%TF.GenerationSoftware,KiCad,Pcbnew,9.0.0*%
%TF.CreationDate,2025-05-01T21:38:04+02:00*%
%TF.ProjectId,tinyboard-blinkenlight,74696e79-626f-4617-9264-2d626c696e6b,rev?*%
%TF.SameCoordinates,Original*%
%TF.FileFunction,Legend,Top*%
%TF.FilePolarity,Positive*%
%FSLAX46Y46*%
G04 Gerber Fmt 4.6, Leading zero omitted, Abs format (unit mm)*
G04 Created by KiCad (PCBNEW 9.0.0) date 2025-05-01 21:38:04*
%MOMM*%
%LPD*%
G01*
G04 APERTURE LIST*
%ADD10C,0.100000*%
%ADD11C,0.200000*%
%ADD12C,0.150000*%
%ADD13C,0.120000*%
%ADD14C,0.000000*%
G04 APERTURE END LIST*
D10*
X90645752Y-84786115D02*
X91502895Y-84786115D01*
X91502895Y-84786115D02*
X91598133Y-84833734D01*
X91598133Y-84833734D02*
X91645752Y-84928972D01*
X91645752Y-84928972D02*
X91645752Y-84976591D01*
X90312419Y-84786115D02*
X90360038Y-84833734D01*
X90360038Y-84833734D02*
X90407657Y-84786115D01*
X90407657Y-84786115D02*
X90360038Y-84738496D01*
X90360038Y-84738496D02*
X90312419Y-84786115D01*
X90312419Y-84786115D02*
X90407657Y-84786115D01*
X91312419Y-84167068D02*
X91264800Y-84262306D01*
X91264800Y-84262306D02*
X91169561Y-84309925D01*
X91169561Y-84309925D02*
X90312419Y-84309925D01*
X91264800Y-83357544D02*
X91312419Y-83452782D01*
X91312419Y-83452782D02*
X91312419Y-83643258D01*
X91312419Y-83643258D02*
X91264800Y-83738496D01*
X91264800Y-83738496D02*
X91217180Y-83786115D01*
X91217180Y-83786115D02*
X91121942Y-83833734D01*
X91121942Y-83833734D02*
X90836228Y-83833734D01*
X90836228Y-83833734D02*
X90740990Y-83786115D01*
X90740990Y-83786115D02*
X90693371Y-83738496D01*
X90693371Y-83738496D02*
X90645752Y-83643258D01*
X90645752Y-83643258D02*
X90645752Y-83452782D01*
X90645752Y-83452782D02*
X90693371Y-83357544D01*
X90645752Y-82928972D02*
X91502895Y-82928972D01*
X91502895Y-82928972D02*
X91598133Y-82976591D01*
X91598133Y-82976591D02*
X91645752Y-83071829D01*
X91645752Y-83071829D02*
X91645752Y-83119448D01*
X90312419Y-82928972D02*
X90360038Y-82976591D01*
X90360038Y-82976591D02*
X90407657Y-82928972D01*
X90407657Y-82928972D02*
X90360038Y-82881353D01*
X90360038Y-82881353D02*
X90312419Y-82928972D01*
X90312419Y-82928972D02*
X90407657Y-82928972D01*
X91312419Y-82309925D02*
X91264800Y-82405163D01*
X91264800Y-82405163D02*
X91169561Y-82452782D01*
X91169561Y-82452782D02*
X90312419Y-82452782D01*
X91264800Y-81500401D02*
X91312419Y-81595639D01*
X91312419Y-81595639D02*
X91312419Y-81786115D01*
X91312419Y-81786115D02*
X91264800Y-81881353D01*
X91264800Y-81881353D02*
X91217180Y-81928972D01*
X91217180Y-81928972D02*
X91121942Y-81976591D01*
X91121942Y-81976591D02*
X90836228Y-81976591D01*
X90836228Y-81976591D02*
X90740990Y-81928972D01*
X90740990Y-81928972D02*
X90693371Y-81881353D01*
X90693371Y-81881353D02*
X90645752Y-81786115D01*
X90645752Y-81786115D02*
X90645752Y-81595639D01*
X90645752Y-81595639D02*
X90693371Y-81500401D01*
X90645752Y-81071829D02*
X91502895Y-81071829D01*
X91502895Y-81071829D02*
X91598133Y-81119448D01*
X91598133Y-81119448D02*
X91645752Y-81214686D01*
X91645752Y-81214686D02*
X91645752Y-81262305D01*
X90312419Y-81071829D02*
X90360038Y-81119448D01*
X90360038Y-81119448D02*
X90407657Y-81071829D01*
X90407657Y-81071829D02*
X90360038Y-81024210D01*
X90360038Y-81024210D02*
X90312419Y-81071829D01*
X90312419Y-81071829D02*
X90407657Y-81071829D01*
X91312419Y-80452782D02*
X91264800Y-80548020D01*
X91264800Y-80548020D02*
X91169561Y-80595639D01*
X91169561Y-80595639D02*
X90312419Y-80595639D01*
X91264800Y-79643258D02*
X91312419Y-79738496D01*
X91312419Y-79738496D02*
X91312419Y-79928972D01*
X91312419Y-79928972D02*
X91264800Y-80024210D01*
X91264800Y-80024210D02*
X91217180Y-80071829D01*
X91217180Y-80071829D02*
X91121942Y-80119448D01*
X91121942Y-80119448D02*
X90836228Y-80119448D01*
X90836228Y-80119448D02*
X90740990Y-80071829D01*
X90740990Y-80071829D02*
X90693371Y-80024210D01*
X90693371Y-80024210D02*
X90645752Y-79928972D01*
X90645752Y-79928972D02*
X90645752Y-79738496D01*
X90645752Y-79738496D02*
X90693371Y-79643258D01*
X90645752Y-79214686D02*
X91502895Y-79214686D01*
X91502895Y-79214686D02*
X91598133Y-79262305D01*
X91598133Y-79262305D02*
X91645752Y-79357543D01*
X91645752Y-79357543D02*
X91645752Y-79405162D01*
X90312419Y-79214686D02*
X90360038Y-79262305D01*
X90360038Y-79262305D02*
X90407657Y-79214686D01*
X90407657Y-79214686D02*
X90360038Y-79167067D01*
X90360038Y-79167067D02*
X90312419Y-79214686D01*
X90312419Y-79214686D02*
X90407657Y-79214686D01*
X91312419Y-78595639D02*
X91264800Y-78690877D01*
X91264800Y-78690877D02*
X91169561Y-78738496D01*
X91169561Y-78738496D02*
X90312419Y-78738496D01*
X91264800Y-77786115D02*
X91312419Y-77881353D01*
X91312419Y-77881353D02*
X91312419Y-78071829D01*
X91312419Y-78071829D02*
X91264800Y-78167067D01*
X91264800Y-78167067D02*
X91217180Y-78214686D01*
X91217180Y-78214686D02*
X91121942Y-78262305D01*
X91121942Y-78262305D02*
X90836228Y-78262305D01*
X90836228Y-78262305D02*
X90740990Y-78214686D01*
X90740990Y-78214686D02*
X90693371Y-78167067D01*
X90693371Y-78167067D02*
X90645752Y-78071829D01*
X90645752Y-78071829D02*
X90645752Y-77881353D01*
X90645752Y-77881353D02*
X90693371Y-77786115D01*
D11*
X70123465Y-84454286D02*
X70171084Y-84311429D01*
X70171084Y-84311429D02*
X70218703Y-84263810D01*
X70218703Y-84263810D02*
X70313941Y-84216191D01*
X70313941Y-84216191D02*
X70456798Y-84216191D01*
X70456798Y-84216191D02*
X70552036Y-84263810D01*
X70552036Y-84263810D02*
X70599656Y-84311429D01*
X70599656Y-84311429D02*
X70647275Y-84406667D01*
X70647275Y-84406667D02*
X70647275Y-84787619D01*
X70647275Y-84787619D02*
X69647275Y-84787619D01*
X69647275Y-84787619D02*
X69647275Y-84454286D01*
X69647275Y-84454286D02*
X69694894Y-84359048D01*
X69694894Y-84359048D02*
X69742513Y-84311429D01*
X69742513Y-84311429D02*
X69837751Y-84263810D01*
X69837751Y-84263810D02*
X69932989Y-84263810D01*
X69932989Y-84263810D02*
X70028227Y-84311429D01*
X70028227Y-84311429D02*
X70075846Y-84359048D01*
X70075846Y-84359048D02*
X70123465Y-84454286D01*
X70123465Y-84454286D02*
X70123465Y-84787619D01*
X69980608Y-83882857D02*
X70647275Y-83644762D01*
X69980608Y-83406667D02*
X70647275Y-83644762D01*
X70647275Y-83644762D02*
X70885370Y-83740000D01*
X70885370Y-83740000D02*
X70932989Y-83787619D01*
X70932989Y-83787619D02*
X70980608Y-83882857D01*
X69980608Y-83168571D02*
X69980608Y-82787619D01*
X69647275Y-83025714D02*
X70504417Y-83025714D01*
X70504417Y-83025714D02*
X70599656Y-82978095D01*
X70599656Y-82978095D02*
X70647275Y-82882857D01*
X70647275Y-82882857D02*
X70647275Y-82787619D01*
X70599656Y-82073333D02*
X70647275Y-82168571D01*
X70647275Y-82168571D02*
X70647275Y-82359047D01*
X70647275Y-82359047D02*
X70599656Y-82454285D01*
X70599656Y-82454285D02*
X70504417Y-82501904D01*
X70504417Y-82501904D02*
X70123465Y-82501904D01*
X70123465Y-82501904D02*
X70028227Y-82454285D01*
X70028227Y-82454285D02*
X69980608Y-82359047D01*
X69980608Y-82359047D02*
X69980608Y-82168571D01*
X69980608Y-82168571D02*
X70028227Y-82073333D01*
X70028227Y-82073333D02*
X70123465Y-82025714D01*
X70123465Y-82025714D02*
X70218703Y-82025714D01*
X70218703Y-82025714D02*
X70313941Y-82501904D01*
X70552036Y-81025714D02*
X70599656Y-81073333D01*
X70599656Y-81073333D02*
X70647275Y-81216190D01*
X70647275Y-81216190D02*
X70647275Y-81311428D01*
X70647275Y-81311428D02*
X70599656Y-81454285D01*
X70599656Y-81454285D02*
X70504417Y-81549523D01*
X70504417Y-81549523D02*
X70409179Y-81597142D01*
X70409179Y-81597142D02*
X70218703Y-81644761D01*
X70218703Y-81644761D02*
X70075846Y-81644761D01*
X70075846Y-81644761D02*
X69885370Y-81597142D01*
X69885370Y-81597142D02*
X69790132Y-81549523D01*
X69790132Y-81549523D02*
X69694894Y-81454285D01*
X69694894Y-81454285D02*
X69647275Y-81311428D01*
X69647275Y-81311428D02*
X69647275Y-81216190D01*
X69647275Y-81216190D02*
X69694894Y-81073333D01*
X69694894Y-81073333D02*
X69742513Y-81025714D01*
X70647275Y-80597142D02*
X69980608Y-80597142D01*
X70171084Y-80597142D02*
X70075846Y-80549523D01*
X70075846Y-80549523D02*
X70028227Y-80501904D01*
X70028227Y-80501904D02*
X69980608Y-80406666D01*
X69980608Y-80406666D02*
X69980608Y-80311428D01*
X70647275Y-79549523D02*
X70123465Y-79549523D01*
X70123465Y-79549523D02*
X70028227Y-79597142D01*
X70028227Y-79597142D02*
X69980608Y-79692380D01*
X69980608Y-79692380D02*
X69980608Y-79882856D01*
X69980608Y-79882856D02*
X70028227Y-79978094D01*
X70599656Y-79549523D02*
X70647275Y-79644761D01*
X70647275Y-79644761D02*
X70647275Y-79882856D01*
X70647275Y-79882856D02*
X70599656Y-79978094D01*
X70599656Y-79978094D02*
X70504417Y-80025713D01*
X70504417Y-80025713D02*
X70409179Y-80025713D01*
X70409179Y-80025713D02*
X70313941Y-79978094D01*
X70313941Y-79978094D02*
X70266322Y-79882856D01*
X70266322Y-79882856D02*
X70266322Y-79644761D01*
X70266322Y-79644761D02*
X70218703Y-79549523D01*
X70647275Y-78644761D02*
X69647275Y-78644761D01*
X70599656Y-78644761D02*
X70647275Y-78739999D01*
X70647275Y-78739999D02*
X70647275Y-78930475D01*
X70647275Y-78930475D02*
X70599656Y-79025713D01*
X70599656Y-79025713D02*
X70552036Y-79073332D01*
X70552036Y-79073332D02*
X70456798Y-79120951D01*
X70456798Y-79120951D02*
X70171084Y-79120951D01*
X70171084Y-79120951D02*
X70075846Y-79073332D01*
X70075846Y-79073332D02*
X70028227Y-79025713D01*
X70028227Y-79025713D02*
X69980608Y-78930475D01*
X69980608Y-78930475D02*
X69980608Y-78739999D01*
X69980608Y-78739999D02*
X70028227Y-78644761D01*
X70647275Y-78025713D02*
X70599656Y-78120951D01*
X70599656Y-78120951D02*
X70504417Y-78168570D01*
X70504417Y-78168570D02*
X69647275Y-78168570D01*
X70599656Y-77263808D02*
X70647275Y-77359046D01*
X70647275Y-77359046D02*
X70647275Y-77549522D01*
X70647275Y-77549522D02*
X70599656Y-77644760D01*
X70599656Y-77644760D02*
X70504417Y-77692379D01*
X70504417Y-77692379D02*
X70123465Y-77692379D01*
X70123465Y-77692379D02*
X70028227Y-77644760D01*
X70028227Y-77644760D02*
X69980608Y-77549522D01*
X69980608Y-77549522D02*
X69980608Y-77359046D01*
X69980608Y-77359046D02*
X70028227Y-77263808D01*
X70028227Y-77263808D02*
X70123465Y-77216189D01*
X70123465Y-77216189D02*
X70218703Y-77216189D01*
X70218703Y-77216189D02*
X70313941Y-77692379D01*
X69647275Y-75597141D02*
X69647275Y-75787617D01*
X69647275Y-75787617D02*
X69694894Y-75882855D01*
X69694894Y-75882855D02*
X69742513Y-75930474D01*
X69742513Y-75930474D02*
X69885370Y-76025712D01*
X69885370Y-76025712D02*
X70075846Y-76073331D01*
X70075846Y-76073331D02*
X70456798Y-76073331D01*
X70456798Y-76073331D02*
X70552036Y-76025712D01*
X70552036Y-76025712D02*
X70599656Y-75978093D01*
X70599656Y-75978093D02*
X70647275Y-75882855D01*
X70647275Y-75882855D02*
X70647275Y-75692379D01*
X70647275Y-75692379D02*
X70599656Y-75597141D01*
X70599656Y-75597141D02*
X70552036Y-75549522D01*
X70552036Y-75549522D02*
X70456798Y-75501903D01*
X70456798Y-75501903D02*
X70218703Y-75501903D01*
X70218703Y-75501903D02*
X70123465Y-75549522D01*
X70123465Y-75549522D02*
X70075846Y-75597141D01*
X70075846Y-75597141D02*
X70028227Y-75692379D01*
X70028227Y-75692379D02*
X70028227Y-75882855D01*
X70028227Y-75882855D02*
X70075846Y-75978093D01*
X70075846Y-75978093D02*
X70123465Y-76025712D01*
X70123465Y-76025712D02*
X70218703Y-76073331D01*
X69647275Y-74597141D02*
X69647275Y-75073331D01*
X69647275Y-75073331D02*
X70123465Y-75120950D01*
X70123465Y-75120950D02*
X70075846Y-75073331D01*
X70075846Y-75073331D02*
X70028227Y-74978093D01*
X70028227Y-74978093D02*
X70028227Y-74739998D01*
X70028227Y-74739998D02*
X70075846Y-74644760D01*
X70075846Y-74644760D02*
X70123465Y-74597141D01*
X70123465Y-74597141D02*
X70218703Y-74549522D01*
X70218703Y-74549522D02*
X70456798Y-74549522D01*
X70456798Y-74549522D02*
X70552036Y-74597141D01*
X70552036Y-74597141D02*
X70599656Y-74644760D01*
X70599656Y-74644760D02*
X70647275Y-74739998D01*
X70647275Y-74739998D02*
X70647275Y-74978093D01*
X70647275Y-74978093D02*
X70599656Y-75073331D01*
X70599656Y-75073331D02*
X70552036Y-75120950D01*
X69647275Y-73930474D02*
X69647275Y-73835236D01*
X69647275Y-73835236D02*
X69694894Y-73739998D01*
X69694894Y-73739998D02*
X69742513Y-73692379D01*
X69742513Y-73692379D02*
X69837751Y-73644760D01*
X69837751Y-73644760D02*
X70028227Y-73597141D01*
X70028227Y-73597141D02*
X70266322Y-73597141D01*
X70266322Y-73597141D02*
X70456798Y-73644760D01*
X70456798Y-73644760D02*
X70552036Y-73692379D01*
X70552036Y-73692379D02*
X70599656Y-73739998D01*
X70599656Y-73739998D02*
X70647275Y-73835236D01*
X70647275Y-73835236D02*
X70647275Y-73930474D01*
X70647275Y-73930474D02*
X70599656Y-74025712D01*
X70599656Y-74025712D02*
X70552036Y-74073331D01*
X70552036Y-74073331D02*
X70456798Y-74120950D01*
X70456798Y-74120950D02*
X70266322Y-74168569D01*
X70266322Y-74168569D02*
X70028227Y-74168569D01*
X70028227Y-74168569D02*
X69837751Y-74120950D01*
X69837751Y-74120950D02*
X69742513Y-74073331D01*
X69742513Y-74073331D02*
X69694894Y-74025712D01*
X69694894Y-74025712D02*
X69647275Y-73930474D01*
X69742513Y-73216188D02*
X69694894Y-73168569D01*
X69694894Y-73168569D02*
X69647275Y-73073331D01*
X69647275Y-73073331D02*
X69647275Y-72835236D01*
X69647275Y-72835236D02*
X69694894Y-72739998D01*
X69694894Y-72739998D02*
X69742513Y-72692379D01*
X69742513Y-72692379D02*
X69837751Y-72644760D01*
X69837751Y-72644760D02*
X69932989Y-72644760D01*
X69932989Y-72644760D02*
X70075846Y-72692379D01*
X70075846Y-72692379D02*
X70647275Y-73263807D01*
X70647275Y-73263807D02*
X70647275Y-72644760D01*
X71257219Y-85787618D02*
X71257219Y-85216190D01*
X72257219Y-85501904D02*
X71257219Y-85501904D01*
X72257219Y-84882856D02*
X71257219Y-84882856D01*
X72257219Y-84406666D02*
X71257219Y-84406666D01*
X71257219Y-84406666D02*
X72257219Y-83835238D01*
X72257219Y-83835238D02*
X71257219Y-83835238D01*
X71781028Y-83168571D02*
X72257219Y-83168571D01*
X71257219Y-83501904D02*
X71781028Y-83168571D01*
X71781028Y-83168571D02*
X71257219Y-82835238D01*
X71733409Y-81406666D02*
X71781028Y-81263809D01*
X71781028Y-81263809D02*
X71828647Y-81216190D01*
X71828647Y-81216190D02*
X71923885Y-81168571D01*
X71923885Y-81168571D02*
X72066742Y-81168571D01*
X72066742Y-81168571D02*
X72161980Y-81216190D01*
X72161980Y-81216190D02*
X72209600Y-81263809D01*
X72209600Y-81263809D02*
X72257219Y-81359047D01*
X72257219Y-81359047D02*
X72257219Y-81739999D01*
X72257219Y-81739999D02*
X71257219Y-81739999D01*
X71257219Y-81739999D02*
X71257219Y-81406666D01*
X71257219Y-81406666D02*
X71304838Y-81311428D01*
X71304838Y-81311428D02*
X71352457Y-81263809D01*
X71352457Y-81263809D02*
X71447695Y-81216190D01*
X71447695Y-81216190D02*
X71542933Y-81216190D01*
X71542933Y-81216190D02*
X71638171Y-81263809D01*
X71638171Y-81263809D02*
X71685790Y-81311428D01*
X71685790Y-81311428D02*
X71733409Y-81406666D01*
X71733409Y-81406666D02*
X71733409Y-81739999D01*
X72257219Y-80263809D02*
X72257219Y-80739999D01*
X72257219Y-80739999D02*
X71257219Y-80739999D01*
X72257219Y-79930475D02*
X71257219Y-79930475D01*
X72257219Y-79454285D02*
X71257219Y-79454285D01*
X71257219Y-79454285D02*
X72257219Y-78882857D01*
X72257219Y-78882857D02*
X71257219Y-78882857D01*
X72257219Y-78406666D02*
X71257219Y-78406666D01*
X72257219Y-77835238D02*
X71685790Y-78263809D01*
X71257219Y-77835238D02*
X71828647Y-78406666D01*
X71733409Y-77406666D02*
X71733409Y-77073333D01*
X72257219Y-76930476D02*
X72257219Y-77406666D01*
X72257219Y-77406666D02*
X71257219Y-77406666D01*
X71257219Y-77406666D02*
X71257219Y-76930476D01*
X72257219Y-76501904D02*
X71257219Y-76501904D01*
X71257219Y-76501904D02*
X72257219Y-75930476D01*
X72257219Y-75930476D02*
X71257219Y-75930476D01*
X72257219Y-74978095D02*
X72257219Y-75454285D01*
X72257219Y-75454285D02*
X71257219Y-75454285D01*
X72257219Y-74644761D02*
X71257219Y-74644761D01*
X71304838Y-73644762D02*
X71257219Y-73740000D01*
X71257219Y-73740000D02*
X71257219Y-73882857D01*
X71257219Y-73882857D02*
X71304838Y-74025714D01*
X71304838Y-74025714D02*
X71400076Y-74120952D01*
X71400076Y-74120952D02*
X71495314Y-74168571D01*
X71495314Y-74168571D02*
X71685790Y-74216190D01*
X71685790Y-74216190D02*
X71828647Y-74216190D01*
X71828647Y-74216190D02*
X72019123Y-74168571D01*
X72019123Y-74168571D02*
X72114361Y-74120952D01*
X72114361Y-74120952D02*
X72209600Y-74025714D01*
X72209600Y-74025714D02*
X72257219Y-73882857D01*
X72257219Y-73882857D02*
X72257219Y-73787619D01*
X72257219Y-73787619D02*
X72209600Y-73644762D01*
X72209600Y-73644762D02*
X72161980Y-73597143D01*
X72161980Y-73597143D02*
X71828647Y-73597143D01*
X71828647Y-73597143D02*
X71828647Y-73787619D01*
X72257219Y-73168571D02*
X71257219Y-73168571D01*
X71733409Y-73168571D02*
X71733409Y-72597143D01*
X72257219Y-72597143D02*
X71257219Y-72597143D01*
X71257219Y-72263809D02*
X71257219Y-71692381D01*
X72257219Y-71978095D02*
X71257219Y-71978095D01*
D12*
X90678095Y-31414819D02*
X90678095Y-32224342D01*
X90678095Y-32224342D02*
X90725714Y-32319580D01*
X90725714Y-32319580D02*
X90773333Y-32367200D01*
X90773333Y-32367200D02*
X90868571Y-32414819D01*
X90868571Y-32414819D02*
X91059047Y-32414819D01*
X91059047Y-32414819D02*
X91154285Y-32367200D01*
X91154285Y-32367200D02*
X91201904Y-32319580D01*
X91201904Y-32319580D02*
X91249523Y-32224342D01*
X91249523Y-32224342D02*
X91249523Y-31414819D01*
X91678095Y-31510057D02*
X91725714Y-31462438D01*
X91725714Y-31462438D02*
X91820952Y-31414819D01*
X91820952Y-31414819D02*
X92059047Y-31414819D01*
X92059047Y-31414819D02*
X92154285Y-31462438D01*
X92154285Y-31462438D02*
X92201904Y-31510057D01*
X92201904Y-31510057D02*
X92249523Y-31605295D01*
X92249523Y-31605295D02*
X92249523Y-31700533D01*
X92249523Y-31700533D02*
X92201904Y-31843390D01*
X92201904Y-31843390D02*
X91630476Y-32414819D01*
X91630476Y-32414819D02*
X92249523Y-32414819D01*
X88654286Y-51314819D02*
X89320952Y-51314819D01*
X89320952Y-51314819D02*
X88892381Y-52314819D01*
X90130476Y-51648152D02*
X90130476Y-52314819D01*
X89892381Y-51267200D02*
X89654286Y-51981485D01*
X89654286Y-51981485D02*
X90273333Y-51981485D01*
X90654286Y-52314819D02*
X90654286Y-51314819D01*
X90654286Y-51791009D02*
X91225714Y-51791009D01*
X91225714Y-52314819D02*
X91225714Y-51314819D01*
X92273333Y-52219580D02*
X92225714Y-52267200D01*
X92225714Y-52267200D02*
X92082857Y-52314819D01*
X92082857Y-52314819D02*
X91987619Y-52314819D01*
X91987619Y-52314819D02*
X91844762Y-52267200D01*
X91844762Y-52267200D02*
X91749524Y-52171961D01*
X91749524Y-52171961D02*
X91701905Y-52076723D01*
X91701905Y-52076723D02*
X91654286Y-51886247D01*
X91654286Y-51886247D02*
X91654286Y-51743390D01*
X91654286Y-51743390D02*
X91701905Y-51552914D01*
X91701905Y-51552914D02*
X91749524Y-51457676D01*
X91749524Y-51457676D02*
X91844762Y-51362438D01*
X91844762Y-51362438D02*
X91987619Y-51314819D01*
X91987619Y-51314819D02*
X92082857Y-51314819D01*
X92082857Y-51314819D02*
X92225714Y-51362438D01*
X92225714Y-51362438D02*
X92273333Y-51410057D01*
X92892381Y-51314819D02*
X92987619Y-51314819D01*
X92987619Y-51314819D02*
X93082857Y-51362438D01*
X93082857Y-51362438D02*
X93130476Y-51410057D01*
X93130476Y-51410057D02*
X93178095Y-51505295D01*
X93178095Y-51505295D02*
X93225714Y-51695771D01*
X93225714Y-51695771D02*
X93225714Y-51933866D01*
X93225714Y-51933866D02*
X93178095Y-52124342D01*
X93178095Y-52124342D02*
X93130476Y-52219580D01*
X93130476Y-52219580D02*
X93082857Y-52267200D01*
X93082857Y-52267200D02*
X92987619Y-52314819D01*
X92987619Y-52314819D02*
X92892381Y-52314819D01*
X92892381Y-52314819D02*
X92797143Y-52267200D01*
X92797143Y-52267200D02*
X92749524Y-52219580D01*
X92749524Y-52219580D02*
X92701905Y-52124342D01*
X92701905Y-52124342D02*
X92654286Y-51933866D01*
X92654286Y-51933866D02*
X92654286Y-51695771D01*
X92654286Y-51695771D02*
X92701905Y-51505295D01*
X92701905Y-51505295D02*
X92749524Y-51410057D01*
X92749524Y-51410057D02*
X92797143Y-51362438D01*
X92797143Y-51362438D02*
X92892381Y-51314819D01*
X93606667Y-51410057D02*
X93654286Y-51362438D01*
X93654286Y-51362438D02*
X93749524Y-51314819D01*
X93749524Y-51314819D02*
X93987619Y-51314819D01*
X93987619Y-51314819D02*
X94082857Y-51362438D01*
X94082857Y-51362438D02*
X94130476Y-51410057D01*
X94130476Y-51410057D02*
X94178095Y-51505295D01*
X94178095Y-51505295D02*
X94178095Y-51600533D01*
X94178095Y-51600533D02*
X94130476Y-51743390D01*
X94130476Y-51743390D02*
X93559048Y-52314819D01*
X93559048Y-52314819D02*
X94178095Y-52314819D01*
X86719580Y-57316666D02*
X86767200Y-57364285D01*
X86767200Y-57364285D02*
X86814819Y-57507142D01*
X86814819Y-57507142D02*
X86814819Y-57602380D01*
X86814819Y-57602380D02*
X86767200Y-57745237D01*
X86767200Y-57745237D02*
X86671961Y-57840475D01*
X86671961Y-57840475D02*
X86576723Y-57888094D01*
X86576723Y-57888094D02*
X86386247Y-57935713D01*
X86386247Y-57935713D02*
X86243390Y-57935713D01*
X86243390Y-57935713D02*
X86052914Y-57888094D01*
X86052914Y-57888094D02*
X85957676Y-57840475D01*
X85957676Y-57840475D02*
X85862438Y-57745237D01*
X85862438Y-57745237D02*
X85814819Y-57602380D01*
X85814819Y-57602380D02*
X85814819Y-57507142D01*
X85814819Y-57507142D02*
X85862438Y-57364285D01*
X85862438Y-57364285D02*
X85910057Y-57316666D01*
X85910057Y-56935713D02*
X85862438Y-56888094D01*
X85862438Y-56888094D02*
X85814819Y-56792856D01*
X85814819Y-56792856D02*
X85814819Y-56554761D01*
X85814819Y-56554761D02*
X85862438Y-56459523D01*
X85862438Y-56459523D02*
X85910057Y-56411904D01*
X85910057Y-56411904D02*
X86005295Y-56364285D01*
X86005295Y-56364285D02*
X86100533Y-56364285D01*
X86100533Y-56364285D02*
X86243390Y-56411904D01*
X86243390Y-56411904D02*
X86814819Y-56983332D01*
X86814819Y-56983332D02*
X86814819Y-56364285D01*
X78001905Y-57454819D02*
X78001905Y-56454819D01*
X78001905Y-56454819D02*
X78240000Y-56454819D01*
X78240000Y-56454819D02*
X78382857Y-56502438D01*
X78382857Y-56502438D02*
X78478095Y-56597676D01*
X78478095Y-56597676D02*
X78525714Y-56692914D01*
X78525714Y-56692914D02*
X78573333Y-56883390D01*
X78573333Y-56883390D02*
X78573333Y-57026247D01*
X78573333Y-57026247D02*
X78525714Y-57216723D01*
X78525714Y-57216723D02*
X78478095Y-57311961D01*
X78478095Y-57311961D02*
X78382857Y-57407200D01*
X78382857Y-57407200D02*
X78240000Y-57454819D01*
X78240000Y-57454819D02*
X78001905Y-57454819D01*
X79478095Y-56454819D02*
X79001905Y-56454819D01*
X79001905Y-56454819D02*
X78954286Y-56931009D01*
X78954286Y-56931009D02*
X79001905Y-56883390D01*
X79001905Y-56883390D02*
X79097143Y-56835771D01*
X79097143Y-56835771D02*
X79335238Y-56835771D01*
X79335238Y-56835771D02*
X79430476Y-56883390D01*
X79430476Y-56883390D02*
X79478095Y-56931009D01*
X79478095Y-56931009D02*
X79525714Y-57026247D01*
X79525714Y-57026247D02*
X79525714Y-57264342D01*
X79525714Y-57264342D02*
X79478095Y-57359580D01*
X79478095Y-57359580D02*
X79430476Y-57407200D01*
X79430476Y-57407200D02*
X79335238Y-57454819D01*
X79335238Y-57454819D02*
X79097143Y-57454819D01*
X79097143Y-57454819D02*
X79001905Y-57407200D01*
X79001905Y-57407200D02*
X78954286Y-57359580D01*
X78001905Y-26974819D02*
X78001905Y-25974819D01*
X78001905Y-25974819D02*
X78240000Y-25974819D01*
X78240000Y-25974819D02*
X78382857Y-26022438D01*
X78382857Y-26022438D02*
X78478095Y-26117676D01*
X78478095Y-26117676D02*
X78525714Y-26212914D01*
X78525714Y-26212914D02*
X78573333Y-26403390D01*
X78573333Y-26403390D02*
X78573333Y-26546247D01*
X78573333Y-26546247D02*
X78525714Y-26736723D01*
X78525714Y-26736723D02*
X78478095Y-26831961D01*
X78478095Y-26831961D02*
X78382857Y-26927200D01*
X78382857Y-26927200D02*
X78240000Y-26974819D01*
X78240000Y-26974819D02*
X78001905Y-26974819D01*
X79525714Y-26974819D02*
X78954286Y-26974819D01*
X79240000Y-26974819D02*
X79240000Y-25974819D01*
X79240000Y-25974819D02*
X79144762Y-26117676D01*
X79144762Y-26117676D02*
X79049524Y-26212914D01*
X79049524Y-26212914D02*
X78954286Y-26260533D01*
X78001905Y-72694819D02*
X78001905Y-71694819D01*
X78001905Y-71694819D02*
X78240000Y-71694819D01*
X78240000Y-71694819D02*
X78382857Y-71742438D01*
X78382857Y-71742438D02*
X78478095Y-71837676D01*
X78478095Y-71837676D02*
X78525714Y-71932914D01*
X78525714Y-71932914D02*
X78573333Y-72123390D01*
X78573333Y-72123390D02*
X78573333Y-72266247D01*
X78573333Y-72266247D02*
X78525714Y-72456723D01*
X78525714Y-72456723D02*
X78478095Y-72551961D01*
X78478095Y-72551961D02*
X78382857Y-72647200D01*
X78382857Y-72647200D02*
X78240000Y-72694819D01*
X78240000Y-72694819D02*
X78001905Y-72694819D01*
X78906667Y-71694819D02*
X79573333Y-71694819D01*
X79573333Y-71694819D02*
X79144762Y-72694819D01*
X78001905Y-65074819D02*
X78001905Y-64074819D01*
X78001905Y-64074819D02*
X78240000Y-64074819D01*
X78240000Y-64074819D02*
X78382857Y-64122438D01*
X78382857Y-64122438D02*
X78478095Y-64217676D01*
X78478095Y-64217676D02*
X78525714Y-64312914D01*
X78525714Y-64312914D02*
X78573333Y-64503390D01*
X78573333Y-64503390D02*
X78573333Y-64646247D01*
X78573333Y-64646247D02*
X78525714Y-64836723D01*
X78525714Y-64836723D02*
X78478095Y-64931961D01*
X78478095Y-64931961D02*
X78382857Y-65027200D01*
X78382857Y-65027200D02*
X78240000Y-65074819D01*
X78240000Y-65074819D02*
X78001905Y-65074819D01*
X79430476Y-64074819D02*
X79240000Y-64074819D01*
X79240000Y-64074819D02*
X79144762Y-64122438D01*
X79144762Y-64122438D02*
X79097143Y-64170057D01*
X79097143Y-64170057D02*
X79001905Y-64312914D01*
X79001905Y-64312914D02*
X78954286Y-64503390D01*
X78954286Y-64503390D02*
X78954286Y-64884342D01*
X78954286Y-64884342D02*
X79001905Y-64979580D01*
X79001905Y-64979580D02*
X79049524Y-65027200D01*
X79049524Y-65027200D02*
X79144762Y-65074819D01*
X79144762Y-65074819D02*
X79335238Y-65074819D01*
X79335238Y-65074819D02*
X79430476Y-65027200D01*
X79430476Y-65027200D02*
X79478095Y-64979580D01*
X79478095Y-64979580D02*
X79525714Y-64884342D01*
X79525714Y-64884342D02*
X79525714Y-64646247D01*
X79525714Y-64646247D02*
X79478095Y-64551009D01*
X79478095Y-64551009D02*
X79430476Y-64503390D01*
X79430476Y-64503390D02*
X79335238Y-64455771D01*
X79335238Y-64455771D02*
X79144762Y-64455771D01*
X79144762Y-64455771D02*
X79049524Y-64503390D01*
X79049524Y-64503390D02*
X79001905Y-64551009D01*
X79001905Y-64551009D02*
X78954286Y-64646247D01*
X73974819Y-59095476D02*
X73498628Y-59428809D01*
X73974819Y-59666904D02*
X72974819Y-59666904D01*
X72974819Y-59666904D02*
X72974819Y-59285952D01*
X72974819Y-59285952D02*
X73022438Y-59190714D01*
X73022438Y-59190714D02*
X73070057Y-59143095D01*
X73070057Y-59143095D02*
X73165295Y-59095476D01*
X73165295Y-59095476D02*
X73308152Y-59095476D01*
X73308152Y-59095476D02*
X73403390Y-59143095D01*
X73403390Y-59143095D02*
X73451009Y-59190714D01*
X73451009Y-59190714D02*
X73498628Y-59285952D01*
X73498628Y-59285952D02*
X73498628Y-59666904D01*
X73974819Y-58666904D02*
X72974819Y-58666904D01*
X72974819Y-58666904D02*
X73974819Y-58095476D01*
X73974819Y-58095476D02*
X72974819Y-58095476D01*
X73974819Y-57095476D02*
X73974819Y-57666904D01*
X73974819Y-57381190D02*
X72974819Y-57381190D01*
X72974819Y-57381190D02*
X73117676Y-57476428D01*
X73117676Y-57476428D02*
X73212914Y-57571666D01*
X73212914Y-57571666D02*
X73260533Y-57666904D01*
X68174819Y-59690713D02*
X68174819Y-59071666D01*
X68174819Y-59071666D02*
X68555771Y-59404999D01*
X68555771Y-59404999D02*
X68555771Y-59262142D01*
X68555771Y-59262142D02*
X68603390Y-59166904D01*
X68603390Y-59166904D02*
X68651009Y-59119285D01*
X68651009Y-59119285D02*
X68746247Y-59071666D01*
X68746247Y-59071666D02*
X68984342Y-59071666D01*
X68984342Y-59071666D02*
X69079580Y-59119285D01*
X69079580Y-59119285D02*
X69127200Y-59166904D01*
X69127200Y-59166904D02*
X69174819Y-59262142D01*
X69174819Y-59262142D02*
X69174819Y-59547856D01*
X69174819Y-59547856D02*
X69127200Y-59643094D01*
X69127200Y-59643094D02*
X69079580Y-59690713D01*
X68174819Y-58738332D02*
X68174819Y-58119285D01*
X68174819Y-58119285D02*
X68555771Y-58452618D01*
X68555771Y-58452618D02*
X68555771Y-58309761D01*
X68555771Y-58309761D02*
X68603390Y-58214523D01*
X68603390Y-58214523D02*
X68651009Y-58166904D01*
X68651009Y-58166904D02*
X68746247Y-58119285D01*
X68746247Y-58119285D02*
X68984342Y-58119285D01*
X68984342Y-58119285D02*
X69079580Y-58166904D01*
X69079580Y-58166904D02*
X69127200Y-58214523D01*
X69127200Y-58214523D02*
X69174819Y-58309761D01*
X69174819Y-58309761D02*
X69174819Y-58595475D01*
X69174819Y-58595475D02*
X69127200Y-58690713D01*
X69127200Y-58690713D02*
X69079580Y-58738332D01*
X68174819Y-57500237D02*
X68174819Y-57404999D01*
X68174819Y-57404999D02*
X68222438Y-57309761D01*
X68222438Y-57309761D02*
X68270057Y-57262142D01*
X68270057Y-57262142D02*
X68365295Y-57214523D01*
X68365295Y-57214523D02*
X68555771Y-57166904D01*
X68555771Y-57166904D02*
X68793866Y-57166904D01*
X68793866Y-57166904D02*
X68984342Y-57214523D01*
X68984342Y-57214523D02*
X69079580Y-57262142D01*
X69079580Y-57262142D02*
X69127200Y-57309761D01*
X69127200Y-57309761D02*
X69174819Y-57404999D01*
X69174819Y-57404999D02*
X69174819Y-57500237D01*
X69174819Y-57500237D02*
X69127200Y-57595475D01*
X69127200Y-57595475D02*
X69079580Y-57643094D01*
X69079580Y-57643094D02*
X68984342Y-57690713D01*
X68984342Y-57690713D02*
X68793866Y-57738332D01*
X68793866Y-57738332D02*
X68555771Y-57738332D01*
X68555771Y-57738332D02*
X68365295Y-57690713D01*
X68365295Y-57690713D02*
X68270057Y-57643094D01*
X68270057Y-57643094D02*
X68222438Y-57595475D01*
X68222438Y-57595475D02*
X68174819Y-57500237D01*
X78001905Y-80314819D02*
X78001905Y-79314819D01*
X78001905Y-79314819D02*
X78240000Y-79314819D01*
X78240000Y-79314819D02*
X78382857Y-79362438D01*
X78382857Y-79362438D02*
X78478095Y-79457676D01*
X78478095Y-79457676D02*
X78525714Y-79552914D01*
X78525714Y-79552914D02*
X78573333Y-79743390D01*
X78573333Y-79743390D02*
X78573333Y-79886247D01*
X78573333Y-79886247D02*
X78525714Y-80076723D01*
X78525714Y-80076723D02*
X78478095Y-80171961D01*
X78478095Y-80171961D02*
X78382857Y-80267200D01*
X78382857Y-80267200D02*
X78240000Y-80314819D01*
X78240000Y-80314819D02*
X78001905Y-80314819D01*
X79144762Y-79743390D02*
X79049524Y-79695771D01*
X79049524Y-79695771D02*
X79001905Y-79648152D01*
X79001905Y-79648152D02*
X78954286Y-79552914D01*
X78954286Y-79552914D02*
X78954286Y-79505295D01*
X78954286Y-79505295D02*
X79001905Y-79410057D01*
X79001905Y-79410057D02*
X79049524Y-79362438D01*
X79049524Y-79362438D02*
X79144762Y-79314819D01*
X79144762Y-79314819D02*
X79335238Y-79314819D01*
X79335238Y-79314819D02*
X79430476Y-79362438D01*
X79430476Y-79362438D02*
X79478095Y-79410057D01*
X79478095Y-79410057D02*
X79525714Y-79505295D01*
X79525714Y-79505295D02*
X79525714Y-79552914D01*
X79525714Y-79552914D02*
X79478095Y-79648152D01*
X79478095Y-79648152D02*
X79430476Y-79695771D01*
X79430476Y-79695771D02*
X79335238Y-79743390D01*
X79335238Y-79743390D02*
X79144762Y-79743390D01*
X79144762Y-79743390D02*
X79049524Y-79791009D01*
X79049524Y-79791009D02*
X79001905Y-79838628D01*
X79001905Y-79838628D02*
X78954286Y-79933866D01*
X78954286Y-79933866D02*
X78954286Y-80124342D01*
X78954286Y-80124342D02*
X79001905Y-80219580D01*
X79001905Y-80219580D02*
X79049524Y-80267200D01*
X79049524Y-80267200D02*
X79144762Y-80314819D01*
X79144762Y-80314819D02*
X79335238Y-80314819D01*
X79335238Y-80314819D02*
X79430476Y-80267200D01*
X79430476Y-80267200D02*
X79478095Y-80219580D01*
X79478095Y-80219580D02*
X79525714Y-80124342D01*
X79525714Y-80124342D02*
X79525714Y-79933866D01*
X79525714Y-79933866D02*
X79478095Y-79838628D01*
X79478095Y-79838628D02*
X79430476Y-79791009D01*
X79430476Y-79791009D02*
X79335238Y-79743390D01*
X78001905Y-42214819D02*
X78001905Y-41214819D01*
X78001905Y-41214819D02*
X78240000Y-41214819D01*
X78240000Y-41214819D02*
X78382857Y-41262438D01*
X78382857Y-41262438D02*
X78478095Y-41357676D01*
X78478095Y-41357676D02*
X78525714Y-41452914D01*
X78525714Y-41452914D02*
X78573333Y-41643390D01*
X78573333Y-41643390D02*
X78573333Y-41786247D01*
X78573333Y-41786247D02*
X78525714Y-41976723D01*
X78525714Y-41976723D02*
X78478095Y-42071961D01*
X78478095Y-42071961D02*
X78382857Y-42167200D01*
X78382857Y-42167200D02*
X78240000Y-42214819D01*
X78240000Y-42214819D02*
X78001905Y-42214819D01*
X78906667Y-41214819D02*
X79525714Y-41214819D01*
X79525714Y-41214819D02*
X79192381Y-41595771D01*
X79192381Y-41595771D02*
X79335238Y-41595771D01*
X79335238Y-41595771D02*
X79430476Y-41643390D01*
X79430476Y-41643390D02*
X79478095Y-41691009D01*
X79478095Y-41691009D02*
X79525714Y-41786247D01*
X79525714Y-41786247D02*
X79525714Y-42024342D01*
X79525714Y-42024342D02*
X79478095Y-42119580D01*
X79478095Y-42119580D02*
X79430476Y-42167200D01*
X79430476Y-42167200D02*
X79335238Y-42214819D01*
X79335238Y-42214819D02*
X79049524Y-42214819D01*
X79049524Y-42214819D02*
X78954286Y-42167200D01*
X78954286Y-42167200D02*
X78906667Y-42119580D01*
X90678095Y-59354819D02*
X90678095Y-60164342D01*
X90678095Y-60164342D02*
X90725714Y-60259580D01*
X90725714Y-60259580D02*
X90773333Y-60307200D01*
X90773333Y-60307200D02*
X90868571Y-60354819D01*
X90868571Y-60354819D02*
X91059047Y-60354819D01*
X91059047Y-60354819D02*
X91154285Y-60307200D01*
X91154285Y-60307200D02*
X91201904Y-60259580D01*
X91201904Y-60259580D02*
X91249523Y-60164342D01*
X91249523Y-60164342D02*
X91249523Y-59354819D01*
X92249523Y-60354819D02*
X91678095Y-60354819D01*
X91963809Y-60354819D02*
X91963809Y-59354819D01*
X91963809Y-59354819D02*
X91868571Y-59497676D01*
X91868571Y-59497676D02*
X91773333Y-59592914D01*
X91773333Y-59592914D02*
X91678095Y-59640533D01*
X88178095Y-86874819D02*
X88844761Y-86874819D01*
X88844761Y-86874819D02*
X88416190Y-87874819D01*
X89654285Y-87208152D02*
X89654285Y-87874819D01*
X89416190Y-86827200D02*
X89178095Y-87541485D01*
X89178095Y-87541485D02*
X89797142Y-87541485D01*
X90178095Y-87874819D02*
X90178095Y-86874819D01*
X90178095Y-87351009D02*
X90749523Y-87351009D01*
X90749523Y-87874819D02*
X90749523Y-86874819D01*
X91797142Y-87779580D02*
X91749523Y-87827200D01*
X91749523Y-87827200D02*
X91606666Y-87874819D01*
X91606666Y-87874819D02*
X91511428Y-87874819D01*
X91511428Y-87874819D02*
X91368571Y-87827200D01*
X91368571Y-87827200D02*
X91273333Y-87731961D01*
X91273333Y-87731961D02*
X91225714Y-87636723D01*
X91225714Y-87636723D02*
X91178095Y-87446247D01*
X91178095Y-87446247D02*
X91178095Y-87303390D01*
X91178095Y-87303390D02*
X91225714Y-87112914D01*
X91225714Y-87112914D02*
X91273333Y-87017676D01*
X91273333Y-87017676D02*
X91368571Y-86922438D01*
X91368571Y-86922438D02*
X91511428Y-86874819D01*
X91511428Y-86874819D02*
X91606666Y-86874819D01*
X91606666Y-86874819D02*
X91749523Y-86922438D01*
X91749523Y-86922438D02*
X91797142Y-86970057D01*
X92178095Y-86970057D02*
X92225714Y-86922438D01*
X92225714Y-86922438D02*
X92320952Y-86874819D01*
X92320952Y-86874819D02*
X92559047Y-86874819D01*
X92559047Y-86874819D02*
X92654285Y-86922438D01*
X92654285Y-86922438D02*
X92701904Y-86970057D01*
X92701904Y-86970057D02*
X92749523Y-87065295D01*
X92749523Y-87065295D02*
X92749523Y-87160533D01*
X92749523Y-87160533D02*
X92701904Y-87303390D01*
X92701904Y-87303390D02*
X92130476Y-87874819D01*
X92130476Y-87874819D02*
X92749523Y-87874819D01*
X93082857Y-86874819D02*
X93749523Y-86874819D01*
X93749523Y-86874819D02*
X93320952Y-87874819D01*
X94035238Y-86874819D02*
X94654285Y-86874819D01*
X94654285Y-86874819D02*
X94320952Y-87255771D01*
X94320952Y-87255771D02*
X94463809Y-87255771D01*
X94463809Y-87255771D02*
X94559047Y-87303390D01*
X94559047Y-87303390D02*
X94606666Y-87351009D01*
X94606666Y-87351009D02*
X94654285Y-87446247D01*
X94654285Y-87446247D02*
X94654285Y-87684342D01*
X94654285Y-87684342D02*
X94606666Y-87779580D01*
X94606666Y-87779580D02*
X94559047Y-87827200D01*
X94559047Y-87827200D02*
X94463809Y-87874819D01*
X94463809Y-87874819D02*
X94178095Y-87874819D01*
X94178095Y-87874819D02*
X94082857Y-87827200D01*
X94082857Y-87827200D02*
X94035238Y-87779580D01*
X78001905Y-49834819D02*
X78001905Y-48834819D01*
X78001905Y-48834819D02*
X78240000Y-48834819D01*
X78240000Y-48834819D02*
X78382857Y-48882438D01*
X78382857Y-48882438D02*
X78478095Y-48977676D01*
X78478095Y-48977676D02*
X78525714Y-49072914D01*
X78525714Y-49072914D02*
X78573333Y-49263390D01*
X78573333Y-49263390D02*
X78573333Y-49406247D01*
X78573333Y-49406247D02*
X78525714Y-49596723D01*
X78525714Y-49596723D02*
X78478095Y-49691961D01*
X78478095Y-49691961D02*
X78382857Y-49787200D01*
X78382857Y-49787200D02*
X78240000Y-49834819D01*
X78240000Y-49834819D02*
X78001905Y-49834819D01*
X79430476Y-49168152D02*
X79430476Y-49834819D01*
X79192381Y-48787200D02*
X78954286Y-49501485D01*
X78954286Y-49501485D02*
X79573333Y-49501485D01*
X86719580Y-29376666D02*
X86767200Y-29424285D01*
X86767200Y-29424285D02*
X86814819Y-29567142D01*
X86814819Y-29567142D02*
X86814819Y-29662380D01*
X86814819Y-29662380D02*
X86767200Y-29805237D01*
X86767200Y-29805237D02*
X86671961Y-29900475D01*
X86671961Y-29900475D02*
X86576723Y-29948094D01*
X86576723Y-29948094D02*
X86386247Y-29995713D01*
X86386247Y-29995713D02*
X86243390Y-29995713D01*
X86243390Y-29995713D02*
X86052914Y-29948094D01*
X86052914Y-29948094D02*
X85957676Y-29900475D01*
X85957676Y-29900475D02*
X85862438Y-29805237D01*
X85862438Y-29805237D02*
X85814819Y-29662380D01*
X85814819Y-29662380D02*
X85814819Y-29567142D01*
X85814819Y-29567142D02*
X85862438Y-29424285D01*
X85862438Y-29424285D02*
X85910057Y-29376666D01*
X86814819Y-28424285D02*
X86814819Y-28995713D01*
X86814819Y-28709999D02*
X85814819Y-28709999D01*
X85814819Y-28709999D02*
X85957676Y-28805237D01*
X85957676Y-28805237D02*
X86052914Y-28900475D01*
X86052914Y-28900475D02*
X86100533Y-28995713D01*
X78001905Y-34594819D02*
X78001905Y-33594819D01*
X78001905Y-33594819D02*
X78240000Y-33594819D01*
X78240000Y-33594819D02*
X78382857Y-33642438D01*
X78382857Y-33642438D02*
X78478095Y-33737676D01*
X78478095Y-33737676D02*
X78525714Y-33832914D01*
X78525714Y-33832914D02*
X78573333Y-34023390D01*
X78573333Y-34023390D02*
X78573333Y-34166247D01*
X78573333Y-34166247D02*
X78525714Y-34356723D01*
X78525714Y-34356723D02*
X78478095Y-34451961D01*
X78478095Y-34451961D02*
X78382857Y-34547200D01*
X78382857Y-34547200D02*
X78240000Y-34594819D01*
X78240000Y-34594819D02*
X78001905Y-34594819D01*
X78954286Y-33690057D02*
X79001905Y-33642438D01*
X79001905Y-33642438D02*
X79097143Y-33594819D01*
X79097143Y-33594819D02*
X79335238Y-33594819D01*
X79335238Y-33594819D02*
X79430476Y-33642438D01*
X79430476Y-33642438D02*
X79478095Y-33690057D01*
X79478095Y-33690057D02*
X79525714Y-33785295D01*
X79525714Y-33785295D02*
X79525714Y-33880533D01*
X79525714Y-33880533D02*
X79478095Y-34023390D01*
X79478095Y-34023390D02*
X78906667Y-34594819D01*
X78906667Y-34594819D02*
X79525714Y-34594819D01*
X102536666Y-29704819D02*
X102536666Y-30419104D01*
X102536666Y-30419104D02*
X102489047Y-30561961D01*
X102489047Y-30561961D02*
X102393809Y-30657200D01*
X102393809Y-30657200D02*
X102250952Y-30704819D01*
X102250952Y-30704819D02*
X102155714Y-30704819D01*
X102965238Y-29800057D02*
X103012857Y-29752438D01*
X103012857Y-29752438D02*
X103108095Y-29704819D01*
X103108095Y-29704819D02*
X103346190Y-29704819D01*
X103346190Y-29704819D02*
X103441428Y-29752438D01*
X103441428Y-29752438D02*
X103489047Y-29800057D01*
X103489047Y-29800057D02*
X103536666Y-29895295D01*
X103536666Y-29895295D02*
X103536666Y-29990533D01*
X103536666Y-29990533D02*
X103489047Y-30133390D01*
X103489047Y-30133390D02*
X102917619Y-30704819D01*
X102917619Y-30704819D02*
X103536666Y-30704819D01*
X99467200Y-81946190D02*
X99514819Y-81803333D01*
X99514819Y-81803333D02*
X99514819Y-81565238D01*
X99514819Y-81565238D02*
X99467200Y-81470000D01*
X99467200Y-81470000D02*
X99419580Y-81422381D01*
X99419580Y-81422381D02*
X99324342Y-81374762D01*
X99324342Y-81374762D02*
X99229104Y-81374762D01*
X99229104Y-81374762D02*
X99133866Y-81422381D01*
X99133866Y-81422381D02*
X99086247Y-81470000D01*
X99086247Y-81470000D02*
X99038628Y-81565238D01*
X99038628Y-81565238D02*
X98991009Y-81755714D01*
X98991009Y-81755714D02*
X98943390Y-81850952D01*
X98943390Y-81850952D02*
X98895771Y-81898571D01*
X98895771Y-81898571D02*
X98800533Y-81946190D01*
X98800533Y-81946190D02*
X98705295Y-81946190D01*
X98705295Y-81946190D02*
X98610057Y-81898571D01*
X98610057Y-81898571D02*
X98562438Y-81850952D01*
X98562438Y-81850952D02*
X98514819Y-81755714D01*
X98514819Y-81755714D02*
X98514819Y-81517619D01*
X98514819Y-81517619D02*
X98562438Y-81374762D01*
X99038628Y-80755714D02*
X99514819Y-80755714D01*
X98514819Y-81089047D02*
X99038628Y-80755714D01*
X99038628Y-80755714D02*
X98514819Y-80422381D01*
X99467200Y-80136666D02*
X99514819Y-79993809D01*
X99514819Y-79993809D02*
X99514819Y-79755714D01*
X99514819Y-79755714D02*
X99467200Y-79660476D01*
X99467200Y-79660476D02*
X99419580Y-79612857D01*
X99419580Y-79612857D02*
X99324342Y-79565238D01*
X99324342Y-79565238D02*
X99229104Y-79565238D01*
X99229104Y-79565238D02*
X99133866Y-79612857D01*
X99133866Y-79612857D02*
X99086247Y-79660476D01*
X99086247Y-79660476D02*
X99038628Y-79755714D01*
X99038628Y-79755714D02*
X98991009Y-79946190D01*
X98991009Y-79946190D02*
X98943390Y-80041428D01*
X98943390Y-80041428D02*
X98895771Y-80089047D01*
X98895771Y-80089047D02*
X98800533Y-80136666D01*
X98800533Y-80136666D02*
X98705295Y-80136666D01*
X98705295Y-80136666D02*
X98610057Y-80089047D01*
X98610057Y-80089047D02*
X98562438Y-80041428D01*
X98562438Y-80041428D02*
X98514819Y-79946190D01*
X98514819Y-79946190D02*
X98514819Y-79708095D01*
X98514819Y-79708095D02*
X98562438Y-79565238D01*
X98514819Y-79279523D02*
X98514819Y-78708095D01*
X99514819Y-78993809D02*
X98514819Y-78993809D01*
X98991009Y-78374761D02*
X98991009Y-78041428D01*
X99514819Y-77898571D02*
X99514819Y-78374761D01*
X99514819Y-78374761D02*
X98514819Y-78374761D01*
X98514819Y-78374761D02*
X98514819Y-77898571D01*
X99514819Y-77469999D02*
X98514819Y-77469999D01*
X98514819Y-77469999D02*
X99229104Y-77136666D01*
X99229104Y-77136666D02*
X98514819Y-76803333D01*
X98514819Y-76803333D02*
X99514819Y-76803333D01*
X98991009Y-75231904D02*
X99038628Y-75089047D01*
X99038628Y-75089047D02*
X99086247Y-75041428D01*
X99086247Y-75041428D02*
X99181485Y-74993809D01*
X99181485Y-74993809D02*
X99324342Y-74993809D01*
X99324342Y-74993809D02*
X99419580Y-75041428D01*
X99419580Y-75041428D02*
X99467200Y-75089047D01*
X99467200Y-75089047D02*
X99514819Y-75184285D01*
X99514819Y-75184285D02*
X99514819Y-75565237D01*
X99514819Y-75565237D02*
X98514819Y-75565237D01*
X98514819Y-75565237D02*
X98514819Y-75231904D01*
X98514819Y-75231904D02*
X98562438Y-75136666D01*
X98562438Y-75136666D02*
X98610057Y-75089047D01*
X98610057Y-75089047D02*
X98705295Y-75041428D01*
X98705295Y-75041428D02*
X98800533Y-75041428D01*
X98800533Y-75041428D02*
X98895771Y-75089047D01*
X98895771Y-75089047D02*
X98943390Y-75136666D01*
X98943390Y-75136666D02*
X98991009Y-75231904D01*
X98991009Y-75231904D02*
X98991009Y-75565237D01*
X98514819Y-74565237D02*
X99324342Y-74565237D01*
X99324342Y-74565237D02*
X99419580Y-74517618D01*
X99419580Y-74517618D02*
X99467200Y-74469999D01*
X99467200Y-74469999D02*
X99514819Y-74374761D01*
X99514819Y-74374761D02*
X99514819Y-74184285D01*
X99514819Y-74184285D02*
X99467200Y-74089047D01*
X99467200Y-74089047D02*
X99419580Y-74041428D01*
X99419580Y-74041428D02*
X99324342Y-73993809D01*
X99324342Y-73993809D02*
X98514819Y-73993809D01*
X99467200Y-73565237D02*
X99514819Y-73422380D01*
X99514819Y-73422380D02*
X99514819Y-73184285D01*
X99514819Y-73184285D02*
X99467200Y-73089047D01*
X99467200Y-73089047D02*
X99419580Y-73041428D01*
X99419580Y-73041428D02*
X99324342Y-72993809D01*
X99324342Y-72993809D02*
X99229104Y-72993809D01*
X99229104Y-72993809D02*
X99133866Y-73041428D01*
X99133866Y-73041428D02*
X99086247Y-73089047D01*
X99086247Y-73089047D02*
X99038628Y-73184285D01*
X99038628Y-73184285D02*
X98991009Y-73374761D01*
X98991009Y-73374761D02*
X98943390Y-73469999D01*
X98943390Y-73469999D02*
X98895771Y-73517618D01*
X98895771Y-73517618D02*
X98800533Y-73565237D01*
X98800533Y-73565237D02*
X98705295Y-73565237D01*
X98705295Y-73565237D02*
X98610057Y-73517618D01*
X98610057Y-73517618D02*
X98562438Y-73469999D01*
X98562438Y-73469999D02*
X98514819Y-73374761D01*
X98514819Y-73374761D02*
X98514819Y-73136666D01*
X98514819Y-73136666D02*
X98562438Y-72993809D01*
D13*
%TO.C,U2*%
X88790000Y-32960000D02*
X88790000Y-50860000D01*
X88790000Y-50860000D02*
X94090000Y-50860000D01*
X90440000Y-32960000D02*
X88790000Y-32960000D01*
X94090000Y-32960000D02*
X92440000Y-32960000D01*
X94090000Y-50860000D02*
X94090000Y-32960000D01*
X86300000Y-32900000D02*
X96580000Y-32900000D01*
X96580000Y-50920000D01*
X86300000Y-50920000D01*
X86300000Y-32900000D01*
X92440000Y-32960000D02*
G75*
G02*
X90440000Y-32960000I-1000000J0D01*
G01*
%TO.C,C2*%
X88780000Y-56095000D02*
X88780000Y-55780000D01*
X88780000Y-58520000D02*
X88780000Y-58205000D01*
X94020000Y-55780000D02*
X88780000Y-55780000D01*
X94020000Y-56095000D02*
X94020000Y-55780000D01*
X94020000Y-58520000D02*
X88780000Y-58520000D01*
X94020000Y-58520000D02*
X94020000Y-58205000D01*
%TO.C,D5*%
X76180000Y-59415000D02*
X76180000Y-62505000D01*
X76180000Y-59415170D02*
G75*
G02*
X81730000Y-60959952I2560000J-1544830D01*
G01*
X81730000Y-60960048D02*
G75*
G02*
X76180000Y-62504830I-2990000J48D01*
G01*
X81240000Y-60960000D02*
G75*
G02*
X76240000Y-60960000I-2500000J0D01*
G01*
X76240000Y-60960000D02*
G75*
G02*
X81240000Y-60960000I2500000J0D01*
G01*
%TO.C,D1*%
X76180000Y-28935000D02*
X76180000Y-32025000D01*
X76180000Y-28935170D02*
G75*
G02*
X81730000Y-30479952I2560000J-1544830D01*
G01*
X81730000Y-30480048D02*
G75*
G02*
X76180000Y-32024830I-2990000J48D01*
G01*
X81240000Y-30480000D02*
G75*
G02*
X76240000Y-30480000I-2500000J0D01*
G01*
X76240000Y-30480000D02*
G75*
G02*
X81240000Y-30480000I2500000J0D01*
G01*
%TO.C,D7*%
X76180000Y-74655000D02*
X76180000Y-77745000D01*
X76180000Y-74655170D02*
G75*
G02*
X81730000Y-76199952I2560000J-1544830D01*
G01*
X81730000Y-76200048D02*
G75*
G02*
X76180000Y-77744830I-2990000J48D01*
G01*
X81240000Y-76200000D02*
G75*
G02*
X76240000Y-76200000I-2500000J0D01*
G01*
X76240000Y-76200000D02*
G75*
G02*
X81240000Y-76200000I2500000J0D01*
G01*
%TO.C,D6*%
X76180000Y-67035000D02*
X76180000Y-70125000D01*
X76180000Y-67035170D02*
G75*
G02*
X81730000Y-68579952I2560000J-1544830D01*
G01*
X81730000Y-68580048D02*
G75*
G02*
X76180000Y-70124830I-2990000J48D01*
G01*
X81240000Y-68580000D02*
G75*
G02*
X76240000Y-68580000I-2500000J0D01*
G01*
X76240000Y-68580000D02*
G75*
G02*
X81240000Y-68580000I2500000J0D01*
G01*
%TO.C,RN1*%
X69720000Y-45535000D02*
X69720000Y-68735000D01*
X69720000Y-68735000D02*
X72520000Y-68735000D01*
X72520000Y-45535000D02*
X69720000Y-45535000D01*
X72520000Y-48245000D02*
X69720000Y-48245000D01*
X72520000Y-68735000D02*
X72520000Y-45535000D01*
%TO.C,D8*%
X76180000Y-82275000D02*
X76180000Y-85365000D01*
X76180000Y-82275170D02*
G75*
G02*
X81730000Y-83819952I2560000J-1544830D01*
G01*
X81730000Y-83820048D02*
G75*
G02*
X76180000Y-85364830I-2990000J48D01*
G01*
X81240000Y-83820000D02*
G75*
G02*
X76240000Y-83820000I-2500000J0D01*
G01*
X76240000Y-83820000D02*
G75*
G02*
X81240000Y-83820000I2500000J0D01*
G01*
%TO.C,D3*%
X76180000Y-44175000D02*
X76180000Y-47265000D01*
X76180000Y-44175170D02*
G75*
G02*
X81730000Y-45719952I2560000J-1544830D01*
G01*
X81730000Y-45720048D02*
G75*
G02*
X76180000Y-47264830I-2990000J48D01*
G01*
X81240000Y-45720000D02*
G75*
G02*
X76240000Y-45720000I-2500000J0D01*
G01*
X76240000Y-45720000D02*
G75*
G02*
X81240000Y-45720000I2500000J0D01*
G01*
%TO.C,U1*%
X88790000Y-60900000D02*
X88790000Y-86420000D01*
X88790000Y-86420000D02*
X94090000Y-86420000D01*
X90440000Y-60900000D02*
X88790000Y-60900000D01*
X94090000Y-60900000D02*
X92440000Y-60900000D01*
X94090000Y-86420000D02*
X94090000Y-60900000D01*
X86300000Y-60840000D02*
X96580000Y-60840000D01*
X96580000Y-86480000D01*
X86300000Y-86480000D01*
X86300000Y-60840000D01*
X92440000Y-60900000D02*
G75*
G02*
X90440000Y-60900000I-1000000J0D01*
G01*
%TO.C,D4*%
X76180000Y-51795000D02*
X76180000Y-54885000D01*
X76180000Y-51795170D02*
G75*
G02*
X81730000Y-53339952I2560000J-1544830D01*
G01*
X81730000Y-53340048D02*
G75*
G02*
X76180000Y-54884830I-2990000J48D01*
G01*
X81240000Y-53340000D02*
G75*
G02*
X76240000Y-53340000I-2500000J0D01*
G01*
X76240000Y-53340000D02*
G75*
G02*
X81240000Y-53340000I2500000J0D01*
G01*
%TO.C,C1*%
X88860000Y-28155000D02*
X88860000Y-27840000D01*
X88860000Y-30580000D02*
X88860000Y-30265000D01*
X94100000Y-27840000D02*
X88860000Y-27840000D01*
X94100000Y-28155000D02*
X94100000Y-27840000D01*
X94100000Y-30580000D02*
X88860000Y-30580000D01*
X94100000Y-30580000D02*
X94100000Y-30265000D01*
D14*
%TO.C,G\u002A\u002A\u002A*%
G36*
X72064277Y-28700727D02*
G01*
X72064277Y-30743125D01*
X71963483Y-30743125D01*
X71862690Y-30743125D01*
X71862690Y-28700727D01*
X71862690Y-26658329D01*
X71963483Y-26658329D01*
X72064277Y-26658329D01*
X72064277Y-28700727D01*
G37*
G36*
X72064277Y-37188614D02*
G01*
X72064277Y-39231011D01*
X71963483Y-39231011D01*
X71862690Y-39231011D01*
X71862690Y-37188614D01*
X71862690Y-35146216D01*
X71963483Y-35146216D01*
X72064277Y-35146216D01*
X72064277Y-37188614D01*
G37*
G36*
X72403792Y-28700727D02*
G01*
X72403792Y-30743125D01*
X72302999Y-30743125D01*
X72202205Y-30743125D01*
X72202205Y-28700727D01*
X72202205Y-26658329D01*
X72302999Y-26658329D01*
X72403792Y-26658329D01*
X72403792Y-28700727D01*
G37*
G36*
X72403792Y-37188614D02*
G01*
X72403792Y-39231011D01*
X72302999Y-39231011D01*
X72202205Y-39231011D01*
X72202205Y-37188614D01*
X72202205Y-35146216D01*
X72302999Y-35146216D01*
X72403792Y-35146216D01*
X72403792Y-37188614D01*
G37*
G36*
X72775137Y-28700727D02*
G01*
X72775137Y-30743125D01*
X72674344Y-30743125D01*
X72573550Y-30743125D01*
X72573550Y-28700727D01*
X72573550Y-26658329D01*
X72674344Y-26658329D01*
X72775137Y-26658329D01*
X72775137Y-28700727D01*
G37*
G36*
X72775137Y-37188614D02*
G01*
X72775137Y-39231011D01*
X72674344Y-39231011D01*
X72573550Y-39231011D01*
X72573550Y-37188614D01*
X72573550Y-35146216D01*
X72674344Y-35146216D01*
X72775137Y-35146216D01*
X72775137Y-37188614D01*
G37*
G36*
X70897193Y-28271028D02*
G01*
X70897193Y-28663593D01*
X70053709Y-28663593D01*
X69210225Y-28663593D01*
X69210225Y-28504445D01*
X69210225Y-28345297D01*
X69899866Y-28345297D01*
X70589507Y-28345297D01*
X70589507Y-28111880D01*
X70589507Y-27878463D01*
X70743350Y-27878463D01*
X70897193Y-27878463D01*
X70897193Y-28271028D01*
G37*
G36*
X69528521Y-36838488D02*
G01*
X69528521Y-36992331D01*
X70212857Y-36992331D01*
X70897193Y-36992331D01*
X70897193Y-37151479D01*
X70897193Y-37310627D01*
X70212857Y-37310627D01*
X69528521Y-37310627D01*
X69528521Y-37464470D01*
X69528521Y-37618313D01*
X69369373Y-37618313D01*
X69210225Y-37618313D01*
X69210225Y-37151479D01*
X69210225Y-36684645D01*
X69369373Y-36684645D01*
X69528521Y-36684645D01*
X69528521Y-36838488D01*
G37*
G36*
X69517911Y-27013760D02*
G01*
X69517911Y-27316141D01*
X69671754Y-27316141D01*
X69825597Y-27316141D01*
X69825597Y-27013760D01*
X69825597Y-26711379D01*
X69979440Y-26711379D01*
X70133283Y-26711379D01*
X70133283Y-27013760D01*
X70133283Y-27316141D01*
X70356090Y-27316141D01*
X70578897Y-27316141D01*
X70578897Y-27013760D01*
X70578897Y-26711379D01*
X70738045Y-26711379D01*
X70897193Y-26711379D01*
X70897193Y-27172908D01*
X70897193Y-27634436D01*
X70053709Y-27634436D01*
X69210225Y-27634436D01*
X69210225Y-27172908D01*
X69210225Y-26711379D01*
X69364068Y-26711379D01*
X69517911Y-26711379D01*
X69517911Y-27013760D01*
G37*
G36*
X69517911Y-35841162D02*
G01*
X69517911Y-36143543D01*
X69671754Y-36143543D01*
X69825597Y-36143543D01*
X69825597Y-35841162D01*
X69825597Y-35538781D01*
X69979275Y-35538781D01*
X70132952Y-35538781D01*
X70135770Y-35838509D01*
X70138588Y-36138238D01*
X70358742Y-36141105D01*
X70578897Y-36143973D01*
X70578897Y-35841377D01*
X70578897Y-35538781D01*
X70738045Y-35538781D01*
X70897193Y-35538781D01*
X70897193Y-36000309D01*
X70897193Y-36461838D01*
X70053709Y-36461838D01*
X69210225Y-36461838D01*
X69210225Y-36000309D01*
X69210225Y-35538781D01*
X69364068Y-35538781D01*
X69517911Y-35538781D01*
X69517911Y-35841162D01*
G37*
G36*
X70549071Y-43042168D02*
G01*
X70677934Y-43042456D01*
X70703487Y-43042537D01*
X71521830Y-43045255D01*
X71116340Y-43745506D01*
X70710849Y-44445756D01*
X69886586Y-44448474D01*
X69062323Y-44451191D01*
X69156120Y-44289326D01*
X69179263Y-44249369D01*
X69211682Y-44193369D01*
X69252031Y-44123653D01*
X69298964Y-44042547D01*
X69351134Y-43952379D01*
X69407195Y-43855474D01*
X69465801Y-43754160D01*
X69525606Y-43650763D01*
X69559787Y-43591663D01*
X69616300Y-43494034D01*
X69669751Y-43401870D01*
X69719178Y-43316816D01*
X69763622Y-43240514D01*
X69802123Y-43174608D01*
X69833721Y-43120741D01*
X69857456Y-43080558D01*
X69872368Y-43055702D01*
X69877400Y-43047842D01*
X69888990Y-43046603D01*
X69920162Y-43045492D01*
X69969278Y-43044519D01*
X70034699Y-43043695D01*
X70114789Y-43043029D01*
X70207909Y-43042533D01*
X70312421Y-43042218D01*
X70426688Y-43042092D01*
X70549071Y-43042168D01*
G37*
G36*
X69224762Y-37718534D02*
G01*
X69251900Y-37732116D01*
X69294258Y-37753620D01*
X69350029Y-37782120D01*
X69417406Y-37816692D01*
X69494581Y-37856408D01*
X69579747Y-37900342D01*
X69671097Y-37947569D01*
X69690916Y-37957828D01*
X70162229Y-38201855D01*
X70529711Y-38201855D01*
X70897193Y-38201855D01*
X70897193Y-38366308D01*
X70897193Y-38530761D01*
X70531001Y-38530761D01*
X70164810Y-38530761D01*
X69693431Y-38774787D01*
X69600959Y-38822597D01*
X69514249Y-38867307D01*
X69435116Y-38907992D01*
X69365371Y-38943724D01*
X69306829Y-38973578D01*
X69261301Y-38996626D01*
X69230601Y-39011943D01*
X69216543Y-39018602D01*
X69215876Y-39018814D01*
X69213969Y-39008797D01*
X69212661Y-38981103D01*
X69212020Y-38939267D01*
X69212113Y-38886827D01*
X69212615Y-38847764D01*
X69215530Y-38676714D01*
X69505580Y-38525954D01*
X69577305Y-38488333D01*
X69642437Y-38453516D01*
X69698715Y-38422763D01*
X69743881Y-38397334D01*
X69775676Y-38378489D01*
X69791840Y-38367487D01*
X69793416Y-38365446D01*
X69783780Y-38358328D01*
X69757555Y-38342837D01*
X69717059Y-38320241D01*
X69664609Y-38291802D01*
X69602521Y-38258788D01*
X69533113Y-38222463D01*
X69503367Y-38207056D01*
X69215530Y-38058414D01*
X69212615Y-37886108D01*
X69211925Y-37828342D01*
X69211884Y-37778813D01*
X69212448Y-37741045D01*
X69213577Y-37718562D01*
X69214651Y-37713801D01*
X69224762Y-37718534D01*
G37*
G36*
X72828187Y-31533559D02*
G01*
X72828187Y-31963258D01*
X72768679Y-31963258D01*
X72709170Y-31963258D01*
X72471058Y-31730279D01*
X72408668Y-31669751D01*
X72347627Y-31611488D01*
X72290511Y-31557878D01*
X72239896Y-31511309D01*
X72198360Y-31474170D01*
X72168480Y-31448850D01*
X72161873Y-31443689D01*
X72110973Y-31410405D01*
X72054625Y-31381822D01*
X71999111Y-31360567D01*
X71950710Y-31349264D01*
X71933189Y-31348120D01*
X71899219Y-31354996D01*
X71860287Y-31371946D01*
X71825259Y-31394324D01*
X71804099Y-31415722D01*
X71779392Y-31470313D01*
X71774233Y-31525316D01*
X71787264Y-31577530D01*
X71817121Y-31623755D01*
X71862445Y-31660791D01*
X71918391Y-31684494D01*
X71979398Y-31701491D01*
X71979398Y-31815450D01*
X71979398Y-31929410D01*
X71934306Y-31924191D01*
X71843655Y-31904766D01*
X71760274Y-31869430D01*
X71687879Y-31820289D01*
X71630189Y-31759451D01*
X71621223Y-31746781D01*
X71587586Y-31686766D01*
X71566626Y-31623303D01*
X71557030Y-31550882D01*
X71556902Y-31476403D01*
X71559748Y-31425772D01*
X71564447Y-31389031D01*
X71572744Y-31358852D01*
X71586382Y-31327908D01*
X71597164Y-31307210D01*
X71647181Y-31234158D01*
X71709498Y-31178350D01*
X71783679Y-31140061D01*
X71869287Y-31119564D01*
X71901643Y-31116656D01*
X71973807Y-31117556D01*
X72044170Y-31129086D01*
X72114792Y-31152347D01*
X72187732Y-31188441D01*
X72265052Y-31238468D01*
X72348812Y-31303528D01*
X72441072Y-31384722D01*
X72490573Y-31431273D01*
X72605380Y-31541184D01*
X72605380Y-31322522D01*
X72605380Y-31103860D01*
X72716783Y-31103860D01*
X72828187Y-31103860D01*
X72828187Y-31533559D01*
G37*
G36*
X73084434Y-39774345D02*
G01*
X73190929Y-39774627D01*
X73286351Y-39775091D01*
X73369059Y-39775728D01*
X73437415Y-39776526D01*
X73489778Y-39777476D01*
X73524511Y-39778565D01*
X73539973Y-39779785D01*
X73540596Y-39780028D01*
X73547103Y-39790297D01*
X73563154Y-39817147D01*
X73587752Y-39858859D01*
X73619900Y-39913708D01*
X73658601Y-39979974D01*
X73702859Y-40055933D01*
X73751676Y-40139865D01*
X73804055Y-40230047D01*
X73859000Y-40324757D01*
X73915514Y-40422272D01*
X73972600Y-40520872D01*
X74029260Y-40618833D01*
X74084499Y-40714434D01*
X74137319Y-40805952D01*
X74186723Y-40891666D01*
X74231715Y-40969853D01*
X74271297Y-41038791D01*
X74304473Y-41096759D01*
X74330245Y-41142034D01*
X74347617Y-41172894D01*
X74355593Y-41187617D01*
X74356006Y-41188612D01*
X74345682Y-41189472D01*
X74315851Y-41190256D01*
X74268227Y-41190953D01*
X74204523Y-41191556D01*
X74126451Y-41192054D01*
X74035726Y-41192437D01*
X73934059Y-41192695D01*
X73823165Y-41192820D01*
X73704757Y-41192802D01*
X73626579Y-41192711D01*
X73501149Y-41192421D01*
X73379757Y-41191953D01*
X73264425Y-41191326D01*
X73157177Y-41190561D01*
X73060035Y-41189677D01*
X72975022Y-41188693D01*
X72904161Y-41187629D01*
X72849475Y-41186504D01*
X72812988Y-41185339D01*
X72802303Y-41184754D01*
X72707456Y-41177920D01*
X72670202Y-41114261D01*
X72658629Y-41094371D01*
X72637415Y-41057788D01*
X72607532Y-41006193D01*
X72569951Y-40941267D01*
X72525647Y-40864691D01*
X72475591Y-40778147D01*
X72420756Y-40683314D01*
X72362114Y-40581875D01*
X72300637Y-40475510D01*
X72265098Y-40414010D01*
X71897248Y-39777419D01*
X72714899Y-39774700D01*
X72844779Y-39774371D01*
X72968504Y-39774256D01*
X73084434Y-39774345D01*
G37*
G36*
X70138560Y-28979617D02*
G01*
X70212883Y-28984066D01*
X70275428Y-28991851D01*
X70297736Y-28996369D01*
X70426904Y-29036211D01*
X70542053Y-29090620D01*
X70642398Y-29159024D01*
X70727153Y-29240850D01*
X70795533Y-29335528D01*
X70816907Y-29374453D01*
X70836984Y-29418178D01*
X70853581Y-29464361D01*
X70866992Y-29515406D01*
X70877511Y-29573716D01*
X70885431Y-29641694D01*
X70891047Y-29721743D01*
X70894651Y-29816266D01*
X70896538Y-29927666D01*
X70897009Y-30029612D01*
X70897193Y-30308121D01*
X70052483Y-30308121D01*
X70046962Y-30308121D01*
X69207774Y-30308121D01*
X69213136Y-29989825D01*
X69515027Y-29989825D01*
X70046962Y-29989825D01*
X70578897Y-29989825D01*
X70578740Y-29838634D01*
X70577083Y-29755573D01*
X70572473Y-29685352D01*
X70565176Y-29631621D01*
X70562870Y-29620798D01*
X70542603Y-29552120D01*
X70516196Y-29497844D01*
X70480001Y-29451296D01*
X70458735Y-29430342D01*
X70386696Y-29375431D01*
X70305584Y-29336060D01*
X70213051Y-29311439D01*
X70106753Y-29300778D01*
X70071579Y-29300184D01*
X69962621Y-29306226D01*
X69868245Y-29325078D01*
X69785342Y-29357827D01*
X69710805Y-29405559D01*
X69670055Y-29440657D01*
X69624622Y-29490945D01*
X69588750Y-29548146D01*
X69561415Y-29615206D01*
X69541593Y-29695071D01*
X69528259Y-29790687D01*
X69522437Y-29865159D01*
X69515027Y-29989825D01*
X69213136Y-29989825D01*
X69213181Y-29987172D01*
X69214990Y-29890752D01*
X69216958Y-29812501D01*
X69219286Y-29749369D01*
X69222170Y-29698307D01*
X69225810Y-29656263D01*
X69230405Y-29620189D01*
X69236153Y-29587034D01*
X69240639Y-29565431D01*
X69269404Y-29462019D01*
X69308341Y-29373256D01*
X69360235Y-29293899D01*
X69421459Y-29225046D01*
X69521349Y-29139632D01*
X69632639Y-29071767D01*
X69756033Y-29021075D01*
X69850689Y-28995453D01*
X69908523Y-28986423D01*
X69980021Y-28980783D01*
X70058819Y-28978518D01*
X70138560Y-28979617D01*
G37*
G36*
X71725939Y-39898818D02*
G01*
X71749885Y-39938786D01*
X71781387Y-39992284D01*
X71819459Y-40057580D01*
X71863118Y-40132943D01*
X71911380Y-40216640D01*
X71963260Y-40306941D01*
X72017775Y-40402113D01*
X72073939Y-40500424D01*
X72130770Y-40600143D01*
X72187283Y-40699538D01*
X72242494Y-40796877D01*
X72295419Y-40890428D01*
X72345073Y-40978460D01*
X72390473Y-41059241D01*
X72430633Y-41131039D01*
X72464572Y-41192122D01*
X72491303Y-41240758D01*
X72509843Y-41275216D01*
X72519208Y-41293764D01*
X72520169Y-41296423D01*
X72514921Y-41308532D01*
X72499837Y-41337525D01*
X72475739Y-41381936D01*
X72443451Y-41440303D01*
X72403795Y-41511161D01*
X72357596Y-41593045D01*
X72305676Y-41684492D01*
X72248859Y-41784037D01*
X72187968Y-41890216D01*
X72123826Y-42001565D01*
X72118497Y-42010794D01*
X72054131Y-42122026D01*
X71992721Y-42227722D01*
X71935102Y-42326469D01*
X71882112Y-42416853D01*
X71834586Y-42497460D01*
X71793362Y-42566876D01*
X71759276Y-42623689D01*
X71733165Y-42666484D01*
X71715865Y-42693847D01*
X71708213Y-42704365D01*
X71708010Y-42704436D01*
X71701026Y-42695219D01*
X71684577Y-42669270D01*
X71659658Y-42628319D01*
X71627266Y-42574094D01*
X71588395Y-42508326D01*
X71544041Y-42432744D01*
X71495200Y-42349078D01*
X71442868Y-42259057D01*
X71388040Y-42164411D01*
X71331712Y-42066871D01*
X71274879Y-41968164D01*
X71218537Y-41870022D01*
X71163682Y-41774174D01*
X71111309Y-41682349D01*
X71062414Y-41596277D01*
X71017992Y-41517687D01*
X70979040Y-41448310D01*
X70946552Y-41389875D01*
X70921524Y-41344112D01*
X70904953Y-41312750D01*
X70897833Y-41297519D01*
X70897631Y-41296595D01*
X70902743Y-41284526D01*
X70917680Y-41255552D01*
X70941627Y-41211129D01*
X70973770Y-41152710D01*
X71013292Y-41081752D01*
X71059381Y-40999709D01*
X71111221Y-40908036D01*
X71167997Y-40808189D01*
X71228896Y-40701622D01*
X71293102Y-40589791D01*
X71302586Y-40573314D01*
X71707980Y-39869286D01*
X71725939Y-39898818D01*
G37*
G36*
X72531146Y-33060708D02*
G01*
X72613928Y-33089283D01*
X72688410Y-33133310D01*
X72752247Y-33191587D01*
X72803094Y-33262913D01*
X72838606Y-33346085D01*
X72848087Y-33382849D01*
X72857592Y-33446510D01*
X72856828Y-33507090D01*
X72845655Y-33575285D01*
X72845509Y-33575957D01*
X72817910Y-33657112D01*
X72773606Y-33731562D01*
X72715760Y-33795975D01*
X72647535Y-33847018D01*
X72572093Y-33881359D01*
X72549678Y-33887632D01*
X72520501Y-33894657D01*
X72520501Y-33771512D01*
X72520501Y-33648367D01*
X72568131Y-33604205D01*
X72609819Y-33553534D01*
X72631785Y-33498837D01*
X72633925Y-33442795D01*
X72616137Y-33388089D01*
X72578474Y-33337561D01*
X72532945Y-33304449D01*
X72480822Y-33286338D01*
X72425937Y-33282196D01*
X72372119Y-33290993D01*
X72323198Y-33311698D01*
X72283006Y-33343281D01*
X72255373Y-33384709D01*
X72244574Y-33427419D01*
X72243721Y-33474904D01*
X72252559Y-33512055D01*
X72273780Y-33548573D01*
X72280871Y-33558132D01*
X72317098Y-33605592D01*
X72296244Y-33699183D01*
X72286813Y-33740681D01*
X72279053Y-33773289D01*
X72274115Y-33792237D01*
X72273085Y-33795080D01*
X72262546Y-33793505D01*
X72233984Y-33787899D01*
X72190088Y-33778826D01*
X72133553Y-33766851D01*
X72067068Y-33752537D01*
X71993326Y-33736450D01*
X71989813Y-33735679D01*
X71911910Y-33718598D01*
X71837610Y-33702361D01*
X71770404Y-33687726D01*
X71713786Y-33675452D01*
X71671246Y-33666299D01*
X71647840Y-33661347D01*
X71586833Y-33648721D01*
X71586833Y-33357703D01*
X71586833Y-33066684D01*
X71692932Y-33066684D01*
X71799031Y-33066684D01*
X71799031Y-33267206D01*
X71799031Y-33467728D01*
X71875952Y-33484641D01*
X71919355Y-33494064D01*
X71959334Y-33502538D01*
X71987266Y-33508235D01*
X71987356Y-33508252D01*
X72021838Y-33514950D01*
X72021838Y-33434448D01*
X72027792Y-33353831D01*
X72047241Y-33285522D01*
X72082564Y-33223751D01*
X72132313Y-33166549D01*
X72181953Y-33121976D01*
X72228193Y-33092151D01*
X72256459Y-33079708D01*
X72350067Y-33054718D01*
X72442411Y-33048785D01*
X72531146Y-33060708D01*
G37*
G36*
X70894403Y-32323410D02*
G01*
X70895285Y-32351162D01*
X70895618Y-32393152D01*
X70895368Y-32445892D01*
X70894797Y-32489193D01*
X70891888Y-32665003D01*
X70539110Y-32852404D01*
X70459753Y-32894904D01*
X70386631Y-32934731D01*
X70321798Y-32970715D01*
X70267309Y-33001685D01*
X70225220Y-33026471D01*
X70197585Y-33043904D01*
X70186460Y-33052813D01*
X70186332Y-33053244D01*
X70190558Y-33057031D01*
X70204406Y-33060083D01*
X70229635Y-33062465D01*
X70268002Y-33064244D01*
X70321264Y-33065487D01*
X70391179Y-33066259D01*
X70479504Y-33066628D01*
X70541762Y-33066684D01*
X70897193Y-33066684D01*
X70897193Y-33225832D01*
X70897193Y-33384979D01*
X70052508Y-33384979D01*
X69691706Y-33384979D01*
X69207824Y-33384979D01*
X69213466Y-33090556D01*
X69214036Y-33066684D01*
X69515376Y-33066684D01*
X69691706Y-33066684D01*
X69868036Y-33066684D01*
X69868036Y-32967816D01*
X69866135Y-32912720D01*
X69861010Y-32860772D01*
X69853534Y-32820379D01*
X69852313Y-32816002D01*
X69838381Y-32780461D01*
X69820909Y-32750486D01*
X69812526Y-32740756D01*
X69772185Y-32715848D01*
X69721936Y-32702473D01*
X69670858Y-32702688D01*
X69657224Y-32705576D01*
X69614030Y-32721585D01*
X69581123Y-32745178D01*
X69556981Y-32779156D01*
X69540085Y-32826319D01*
X69528912Y-32889470D01*
X69523125Y-32952628D01*
X69515376Y-33066684D01*
X69214036Y-33066684D01*
X69215375Y-33010578D01*
X69217887Y-32934913D01*
X69220834Y-32866943D01*
X69224049Y-32810052D01*
X69227366Y-32767624D01*
X69230609Y-32743083D01*
X69260889Y-32650878D01*
X69308360Y-32569832D01*
X69371180Y-32501729D01*
X69447502Y-32448351D01*
X69535483Y-32411482D01*
X69586171Y-32399252D01*
X69694383Y-32388212D01*
X69795148Y-32395776D01*
X69887142Y-32421339D01*
X69969041Y-32464297D01*
X70039521Y-32524048D01*
X70097259Y-32599986D01*
X70120514Y-32642958D01*
X70150403Y-32705232D01*
X70519359Y-32509308D01*
X70600645Y-32466204D01*
X70675965Y-32426382D01*
X70743288Y-32390907D01*
X70800580Y-32360843D01*
X70845813Y-32337257D01*
X70876952Y-32321214D01*
X70891968Y-32313778D01*
X70893010Y-32313384D01*
X70894403Y-32323410D01*
G37*
G36*
X73674560Y-41395524D02*
G01*
X73797233Y-41395818D01*
X73911924Y-41396288D01*
X74017009Y-41396918D01*
X74110866Y-41397694D01*
X74191872Y-41398597D01*
X74258403Y-41399613D01*
X74308837Y-41400726D01*
X74341551Y-41401920D01*
X74354922Y-41403178D01*
X74355158Y-41403380D01*
X74349831Y-41413625D01*
X74334680Y-41440778D01*
X74310534Y-41483394D01*
X74278224Y-41540028D01*
X74238576Y-41609236D01*
X74192422Y-41689572D01*
X74140588Y-41779593D01*
X74083905Y-41877852D01*
X74023201Y-41982907D01*
X73959306Y-42093311D01*
X73957938Y-42095673D01*
X73893506Y-42206749D01*
X73831769Y-42312862D01*
X73773605Y-42412519D01*
X73719896Y-42504226D01*
X73671521Y-42586491D01*
X73629359Y-42657821D01*
X73594292Y-42716723D01*
X73567199Y-42761704D01*
X73548960Y-42791270D01*
X73540499Y-42803881D01*
X73519433Y-42827753D01*
X72706976Y-42827753D01*
X72577757Y-42827678D01*
X72454877Y-42827459D01*
X72339958Y-42827110D01*
X72234625Y-42826641D01*
X72140500Y-42826065D01*
X72059207Y-42825394D01*
X71992369Y-42824638D01*
X71941608Y-42823811D01*
X71908550Y-42822924D01*
X71894816Y-42821988D01*
X71894519Y-42821827D01*
X71899733Y-42810730D01*
X71914704Y-42783076D01*
X71938423Y-42740597D01*
X71969885Y-42685024D01*
X72008081Y-42618089D01*
X72052005Y-42541522D01*
X72100650Y-42457055D01*
X72153007Y-42366419D01*
X72208070Y-42271345D01*
X72264831Y-42173564D01*
X72322284Y-42074807D01*
X72379421Y-41976805D01*
X72435235Y-41881290D01*
X72488718Y-41789993D01*
X72538864Y-41704644D01*
X72584665Y-41626975D01*
X72625114Y-41558717D01*
X72659203Y-41501601D01*
X72685926Y-41457358D01*
X72704275Y-41427720D01*
X72713242Y-41414417D01*
X72713653Y-41413989D01*
X72718680Y-41410535D01*
X72726205Y-41407536D01*
X72737659Y-41404960D01*
X72754472Y-41402775D01*
X72778077Y-41400950D01*
X72809903Y-41399452D01*
X72851382Y-41398249D01*
X72903945Y-41397311D01*
X72969022Y-41396603D01*
X73048046Y-41396095D01*
X73142446Y-41395755D01*
X73253655Y-41395551D01*
X73383102Y-41395451D01*
X73532219Y-41395422D01*
X73545528Y-41395422D01*
X73674560Y-41395524D01*
G37*
G36*
X72725840Y-43029441D02*
G01*
X72848911Y-43029733D01*
X72964008Y-43030201D01*
X73069515Y-43030828D01*
X73163813Y-43031599D01*
X73245283Y-43032498D01*
X73312308Y-43033509D01*
X73363270Y-43034617D01*
X73396550Y-43035805D01*
X73410530Y-43037058D01*
X73410871Y-43037298D01*
X73405537Y-43047540D01*
X73390369Y-43074685D01*
X73366199Y-43117287D01*
X73333854Y-43173904D01*
X73294166Y-43243090D01*
X73247963Y-43323402D01*
X73196076Y-43413395D01*
X73139334Y-43511626D01*
X73078567Y-43616651D01*
X73014604Y-43727025D01*
X73013173Y-43729492D01*
X72948802Y-43840365D01*
X72887248Y-43946158D01*
X72829380Y-44045394D01*
X72776064Y-44136597D01*
X72728168Y-44218289D01*
X72686559Y-44288994D01*
X72652105Y-44347235D01*
X72625673Y-44391534D01*
X72608131Y-44420415D01*
X72600350Y-44432395D01*
X72596413Y-44435850D01*
X72589982Y-44438853D01*
X72579640Y-44441434D01*
X72563974Y-44443625D01*
X72541567Y-44445457D01*
X72511004Y-44446963D01*
X72470869Y-44448175D01*
X72419748Y-44449123D01*
X72356225Y-44449840D01*
X72278884Y-44450357D01*
X72186310Y-44450706D01*
X72077087Y-44450918D01*
X71949800Y-44451026D01*
X71803035Y-44451060D01*
X71766439Y-44451061D01*
X70948511Y-44451061D01*
X70969238Y-44416579D01*
X70977888Y-44401825D01*
X70996237Y-44370247D01*
X71023385Y-44323402D01*
X71058431Y-44262849D01*
X71100474Y-44190145D01*
X71148614Y-44106848D01*
X71201950Y-44014516D01*
X71259581Y-43914708D01*
X71320607Y-43808980D01*
X71369476Y-43724286D01*
X71432296Y-43615527D01*
X71492310Y-43511871D01*
X71548635Y-43414828D01*
X71600387Y-43325910D01*
X71646683Y-43246628D01*
X71686638Y-43178493D01*
X71719368Y-43123017D01*
X71743990Y-43081711D01*
X71759620Y-43056087D01*
X71765044Y-43047908D01*
X71769030Y-43044464D01*
X71775568Y-43041474D01*
X71786077Y-43038903D01*
X71801973Y-43036722D01*
X71824673Y-43034898D01*
X71855595Y-43033400D01*
X71896156Y-43032196D01*
X71947773Y-43031254D01*
X72011863Y-43030543D01*
X72089843Y-43030031D01*
X72183132Y-43029687D01*
X72293145Y-43029478D01*
X72421301Y-43029373D01*
X72569016Y-43029341D01*
X72596414Y-43029340D01*
X72725840Y-43029441D01*
G37*
G36*
X70890590Y-30571311D02*
G01*
X70893902Y-30584562D01*
X70895881Y-30609231D01*
X70896861Y-30648238D01*
X70897177Y-30704505D01*
X70897193Y-30729268D01*
X70897193Y-30897208D01*
X70724782Y-30961737D01*
X70552372Y-31026265D01*
X70549578Y-31370157D01*
X70546784Y-31714048D01*
X70721988Y-31781876D01*
X70897193Y-31849704D01*
X70897193Y-32017842D01*
X70897193Y-32185979D01*
X70846796Y-32166822D01*
X70829118Y-32160040D01*
X70793255Y-32146226D01*
X70740816Y-32126001D01*
X70673408Y-32099987D01*
X70592638Y-32068803D01*
X70500115Y-32033071D01*
X70397445Y-31993412D01*
X70286237Y-31950446D01*
X70232186Y-31929559D01*
X70168098Y-31904794D01*
X70044635Y-31857078D01*
X70003054Y-31841005D01*
X69209709Y-31534345D01*
X69212617Y-31370002D01*
X69677105Y-31370002D01*
X69686476Y-31375033D01*
X69712577Y-31386535D01*
X69752362Y-31403290D01*
X69802784Y-31424080D01*
X69860796Y-31447686D01*
X69923351Y-31472891D01*
X69987402Y-31498476D01*
X70049902Y-31523223D01*
X70107804Y-31545914D01*
X70158061Y-31565331D01*
X70197627Y-31580257D01*
X70223454Y-31589471D01*
X70232186Y-31591913D01*
X70234319Y-31581819D01*
X70236200Y-31553600D01*
X70237732Y-31510348D01*
X70238813Y-31455157D01*
X70239344Y-31391120D01*
X70239381Y-31368222D01*
X70238983Y-31302184D01*
X70237868Y-31244207D01*
X70236159Y-31197320D01*
X70233978Y-31164551D01*
X70231447Y-31148930D01*
X70230516Y-31148068D01*
X70218661Y-31152709D01*
X70189667Y-31164028D01*
X70146167Y-31180997D01*
X70090793Y-31202589D01*
X70026178Y-31227779D01*
X69954955Y-31255538D01*
X69949401Y-31257703D01*
X69878285Y-31285633D01*
X69814096Y-31311256D01*
X69759363Y-31333528D01*
X69716615Y-31351407D01*
X69688381Y-31363851D01*
X69677190Y-31369815D01*
X69677105Y-31370002D01*
X69212617Y-31370002D01*
X69212620Y-31369811D01*
X69215530Y-31205278D01*
X70037794Y-30889361D01*
X70164027Y-30840875D01*
X70284786Y-30794515D01*
X70398573Y-30750857D01*
X70503889Y-30710474D01*
X70599233Y-30673939D01*
X70683109Y-30641828D01*
X70754015Y-30614715D01*
X70810453Y-30593172D01*
X70850924Y-30577775D01*
X70873929Y-30569097D01*
X70878625Y-30567386D01*
X70885609Y-30566559D01*
X70890590Y-30571311D01*
G37*
G36*
X68886689Y-41524610D02*
G01*
X68895787Y-41537914D01*
X68914157Y-41567730D01*
X68940793Y-41612294D01*
X68974685Y-41669840D01*
X69014826Y-41738602D01*
X69060210Y-41816815D01*
X69109827Y-41902713D01*
X69162671Y-41994531D01*
X69217733Y-42090503D01*
X69274006Y-42188864D01*
X69330482Y-42287847D01*
X69386153Y-42385688D01*
X69440012Y-42480620D01*
X69491052Y-42570879D01*
X69538263Y-42654698D01*
X69580639Y-42730312D01*
X69617172Y-42795955D01*
X69646854Y-42849863D01*
X69668678Y-42890268D01*
X69681635Y-42915406D01*
X69684930Y-42923191D01*
X69682292Y-42934448D01*
X69672595Y-42957107D01*
X69655421Y-42991933D01*
X69630348Y-43039691D01*
X69596957Y-43101145D01*
X69554826Y-43177062D01*
X69503536Y-43268204D01*
X69442666Y-43375338D01*
X69371796Y-43499228D01*
X69294271Y-43634102D01*
X69230375Y-43744938D01*
X69169342Y-43850579D01*
X69112028Y-43949557D01*
X69059290Y-44040404D01*
X69011982Y-44121652D01*
X68970963Y-44191833D01*
X68937087Y-44249480D01*
X68911210Y-44293125D01*
X68894190Y-44321300D01*
X68886888Y-44332531D01*
X68884621Y-44334765D01*
X68882085Y-44335848D01*
X68878677Y-44334772D01*
X68873794Y-44330532D01*
X68866833Y-44322121D01*
X68857189Y-44308532D01*
X68844261Y-44288758D01*
X68827445Y-44261793D01*
X68806137Y-44226631D01*
X68779735Y-44182264D01*
X68747635Y-44127686D01*
X68709234Y-44061891D01*
X68663929Y-43983872D01*
X68611116Y-43892622D01*
X68550193Y-43787135D01*
X68480555Y-43666404D01*
X68401601Y-43529422D01*
X68312726Y-43375183D01*
X68301345Y-43355432D01*
X68252238Y-43269876D01*
X68206571Y-43189674D01*
X68165412Y-43116753D01*
X68129832Y-43053038D01*
X68100901Y-43000454D01*
X68079689Y-42960927D01*
X68067266Y-42936383D01*
X68064361Y-42928973D01*
X68067639Y-42920423D01*
X68077688Y-42900437D01*
X68094832Y-42868446D01*
X68119394Y-42823882D01*
X68151697Y-42766178D01*
X68192063Y-42694766D01*
X68240818Y-42609079D01*
X68298282Y-42508547D01*
X68364780Y-42392605D01*
X68440635Y-42260683D01*
X68526170Y-42112214D01*
X68621708Y-41946631D01*
X68727572Y-41763365D01*
X68742922Y-41736807D01*
X68784862Y-41664764D01*
X68817763Y-41609587D01*
X68842799Y-41569546D01*
X68861145Y-41542906D01*
X68873974Y-41527935D01*
X68882461Y-41522900D01*
X68886689Y-41524610D01*
G37*
G36*
X69562308Y-41396068D02*
G01*
X69667065Y-41396244D01*
X69774227Y-41396555D01*
X69881703Y-41396994D01*
X69987404Y-41397556D01*
X70089238Y-41398234D01*
X70185116Y-41399022D01*
X70272946Y-41399915D01*
X70350639Y-41400907D01*
X70416105Y-41401990D01*
X70467251Y-41403161D01*
X70501355Y-41404379D01*
X70562646Y-41407725D01*
X70611664Y-41412471D01*
X70651299Y-41420729D01*
X70684445Y-41434605D01*
X70713993Y-41456209D01*
X70742835Y-41487649D01*
X70773864Y-41531035D01*
X70809970Y-41588475D01*
X70853498Y-41661156D01*
X70882797Y-41710665D01*
X70918709Y-41771790D01*
X70960165Y-41842678D01*
X71006092Y-41921473D01*
X71055421Y-42006320D01*
X71107081Y-42095364D01*
X71160003Y-42186750D01*
X71213114Y-42278623D01*
X71265345Y-42369128D01*
X71315626Y-42456409D01*
X71362886Y-42538611D01*
X71406054Y-42613880D01*
X71444061Y-42680360D01*
X71475834Y-42736197D01*
X71500305Y-42779534D01*
X71516403Y-42808518D01*
X71523057Y-42821293D01*
X71523174Y-42821694D01*
X71512835Y-42822660D01*
X71482903Y-42823577D01*
X71435003Y-42824436D01*
X71370762Y-42825222D01*
X71291805Y-42825924D01*
X71199758Y-42826531D01*
X71096249Y-42827029D01*
X70982902Y-42827406D01*
X70861345Y-42827651D01*
X70733202Y-42827751D01*
X70713548Y-42827753D01*
X70555913Y-42827681D01*
X70418321Y-42827452D01*
X70299595Y-42827048D01*
X70198560Y-42826448D01*
X70114039Y-42825636D01*
X70044854Y-42824591D01*
X69989831Y-42823296D01*
X69947793Y-42821730D01*
X69917562Y-42819875D01*
X69897964Y-42817713D01*
X69887821Y-42815224D01*
X69886547Y-42814491D01*
X69879354Y-42804036D01*
X69862589Y-42776985D01*
X69837258Y-42735061D01*
X69804365Y-42679986D01*
X69764915Y-42613484D01*
X69719914Y-42537278D01*
X69670366Y-42453090D01*
X69617275Y-42362643D01*
X69561648Y-42267661D01*
X69504488Y-42169866D01*
X69446801Y-42070981D01*
X69389591Y-41972729D01*
X69333864Y-41876834D01*
X69280625Y-41785017D01*
X69230877Y-41699003D01*
X69185627Y-41620514D01*
X69145879Y-41551272D01*
X69112638Y-41493002D01*
X69086908Y-41447425D01*
X69069696Y-41416265D01*
X69062005Y-41401245D01*
X69061687Y-41400226D01*
X69071948Y-41399109D01*
X69101338Y-41398174D01*
X69147765Y-41397416D01*
X69209140Y-41396829D01*
X69283373Y-41396407D01*
X69368372Y-41396143D01*
X69462047Y-41396032D01*
X69562308Y-41396068D01*
G37*
G36*
X72244105Y-32050116D02*
G01*
X72324841Y-32052691D01*
X72399542Y-32057394D01*
X72463339Y-32064131D01*
X72511362Y-32072808D01*
X72515196Y-32073802D01*
X72603313Y-32104890D01*
X72681906Y-32147123D01*
X72748107Y-32198269D01*
X72799048Y-32256095D01*
X72831861Y-32318369D01*
X72832771Y-32320965D01*
X72844950Y-32370926D01*
X72852762Y-32432329D01*
X72855628Y-32496156D01*
X72852965Y-32553391D01*
X72849271Y-32577233D01*
X72821438Y-32659599D01*
X72775578Y-32732154D01*
X72713060Y-32793686D01*
X72635256Y-32842984D01*
X72543537Y-32878838D01*
X72493976Y-32891122D01*
X72404161Y-32904966D01*
X72301849Y-32913045D01*
X72197737Y-32914992D01*
X72195055Y-32915042D01*
X72091790Y-32910639D01*
X72064277Y-32908183D01*
X71989507Y-32899790D01*
X71930484Y-32890854D01*
X71881746Y-32880122D01*
X71837830Y-32866341D01*
X71793277Y-32848258D01*
X71783116Y-32843701D01*
X71706621Y-32800021D01*
X71646028Y-32744625D01*
X71597765Y-32674229D01*
X71596699Y-32672273D01*
X71580994Y-32642397D01*
X71570613Y-32618060D01*
X71564455Y-32593540D01*
X71561420Y-32563114D01*
X71560406Y-32521062D01*
X71560315Y-32485316D01*
X71775925Y-32485316D01*
X71786398Y-32538754D01*
X71816078Y-32583472D01*
X71864750Y-32619292D01*
X71932198Y-32646037D01*
X71987885Y-32658810D01*
X72047335Y-32666480D01*
X72119347Y-32671267D01*
X72197737Y-32673184D01*
X72276318Y-32672240D01*
X72348904Y-32668445D01*
X72409312Y-32661809D01*
X72430043Y-32658076D01*
X72501105Y-32636605D01*
X72558731Y-32606213D01*
X72601529Y-32568804D01*
X72628105Y-32526279D01*
X72637066Y-32480543D01*
X72627020Y-32433496D01*
X72613085Y-32408042D01*
X72580486Y-32369866D01*
X72538452Y-32339766D01*
X72484874Y-32317132D01*
X72417645Y-32301356D01*
X72334654Y-32291827D01*
X72233793Y-32287936D01*
X72196900Y-32287783D01*
X72081995Y-32291663D01*
X71986464Y-32302821D01*
X71909636Y-32321573D01*
X71850839Y-32348232D01*
X71809404Y-32383115D01*
X71784659Y-32426535D01*
X71775933Y-32478808D01*
X71775925Y-32485316D01*
X71560315Y-32485316D01*
X71560309Y-32483142D01*
X71560737Y-32428582D01*
X71562632Y-32389525D01*
X71566912Y-32360262D01*
X71574493Y-32335083D01*
X71586292Y-32308278D01*
X71589431Y-32301829D01*
X71637544Y-32227546D01*
X71702573Y-32165572D01*
X71783848Y-32116340D01*
X71880698Y-32080286D01*
X71958178Y-32062988D01*
X72014370Y-32056105D01*
X72084000Y-32051728D01*
X72162202Y-32049763D01*
X72244105Y-32050116D01*
G37*
G36*
X72521723Y-34048507D02*
G01*
X72560240Y-34050301D01*
X72588463Y-34054376D01*
X72611851Y-34061611D01*
X72635864Y-34072891D01*
X72642514Y-34076398D01*
X72703174Y-34117759D01*
X72759488Y-34172519D01*
X72804912Y-34233772D01*
X72822066Y-34265915D01*
X72842176Y-34326982D01*
X72853634Y-34398008D01*
X72855370Y-34469137D01*
X72849387Y-34517873D01*
X72823110Y-34593332D01*
X72778798Y-34663626D01*
X72719595Y-34724974D01*
X72648641Y-34773595D01*
X72628458Y-34783779D01*
X72595901Y-34797656D01*
X72565983Y-34806112D01*
X72531505Y-34810399D01*
X72485272Y-34811769D01*
X72467452Y-34811798D01*
X72466345Y-34811776D01*
X72414990Y-34810750D01*
X72376089Y-34806982D01*
X72343138Y-34799176D01*
X72308525Y-34786016D01*
X72301949Y-34783161D01*
X72277372Y-34771688D01*
X72238329Y-34752633D01*
X72187352Y-34727294D01*
X72126974Y-34696967D01*
X72059724Y-34662950D01*
X71988137Y-34626540D01*
X71914743Y-34589035D01*
X71842074Y-34551732D01*
X71772663Y-34515927D01*
X71709040Y-34482920D01*
X71653739Y-34454006D01*
X71609290Y-34430483D01*
X71606107Y-34428758D01*
X72302126Y-34428758D01*
X72307396Y-34476347D01*
X72323937Y-34515356D01*
X72324973Y-34516804D01*
X72363546Y-34553115D01*
X72412648Y-34575881D01*
X72466345Y-34583983D01*
X72518706Y-34576305D01*
X72553161Y-34559769D01*
X72583688Y-34534000D01*
X72611225Y-34502724D01*
X72614022Y-34498762D01*
X72632626Y-34453557D01*
X72632752Y-34403650D01*
X72614669Y-34354284D01*
X72605956Y-34340676D01*
X72566294Y-34301616D01*
X72517512Y-34278776D01*
X72464120Y-34272111D01*
X72410632Y-34281581D01*
X72361561Y-34307143D01*
X72325328Y-34343297D01*
X72308109Y-34381453D01*
X72302126Y-34428758D01*
X71606107Y-34428758D01*
X71578225Y-34413649D01*
X71563077Y-34404800D01*
X71562181Y-34404104D01*
X71563009Y-34391684D01*
X71572159Y-34364885D01*
X71587980Y-34328056D01*
X71602415Y-34298092D01*
X71651386Y-34200584D01*
X71858150Y-34307360D01*
X71918541Y-34338467D01*
X71972297Y-34366007D01*
X72016665Y-34388580D01*
X72048894Y-34404790D01*
X72066229Y-34413238D01*
X72068423Y-34414136D01*
X72071542Y-34404630D01*
X72075694Y-34380302D01*
X72078249Y-34360791D01*
X72096659Y-34289290D01*
X72132949Y-34219537D01*
X72183928Y-34155763D01*
X72246402Y-34102201D01*
X72295398Y-34072983D01*
X72320314Y-34061878D01*
X72345174Y-34054626D01*
X72375424Y-34050440D01*
X72416514Y-34048531D01*
X72467452Y-34048110D01*
X72521723Y-34048507D01*
G37*
G36*
X69520147Y-33702678D02*
G01*
X69521033Y-33703646D01*
X69533394Y-33716983D01*
X69557156Y-33742107D01*
X69588999Y-33775522D01*
X69625601Y-33813735D01*
X69628821Y-33817087D01*
X69722860Y-33914983D01*
X69675647Y-33965625D01*
X69600759Y-34059020D01*
X69543369Y-34158573D01*
X69503788Y-34262135D01*
X69482325Y-34367555D01*
X69479290Y-34472685D01*
X69494994Y-34575373D01*
X69529746Y-34673471D01*
X69564464Y-34736533D01*
X69632642Y-34824428D01*
X69713205Y-34895413D01*
X69804846Y-34948790D01*
X69906260Y-34983861D01*
X70016138Y-34999925D01*
X70059014Y-35000910D01*
X70172317Y-34990283D01*
X70276027Y-34961455D01*
X70368830Y-34915761D01*
X70449412Y-34854536D01*
X70516460Y-34779116D01*
X70568662Y-34690836D01*
X70604703Y-34591032D01*
X70623270Y-34481039D01*
X70625591Y-34424746D01*
X70617923Y-34320726D01*
X70593784Y-34223555D01*
X70551967Y-34130288D01*
X70491261Y-34037984D01*
X70442211Y-33978363D01*
X70385099Y-33913689D01*
X70494510Y-33811135D01*
X70534725Y-33774213D01*
X70570081Y-33743194D01*
X70597453Y-33720714D01*
X70613714Y-33709410D01*
X70616153Y-33708580D01*
X70628477Y-33716067D01*
X70650246Y-33735933D01*
X70677286Y-33764283D01*
X70684381Y-33772239D01*
X70775414Y-33888003D01*
X70845848Y-34004786D01*
X70895422Y-34122132D01*
X70909213Y-34168586D01*
X70919718Y-34222425D01*
X70927862Y-34290892D01*
X70933352Y-34367493D01*
X70935898Y-34445738D01*
X70935208Y-34519135D01*
X70930990Y-34581192D01*
X70928569Y-34599395D01*
X70898483Y-34725909D01*
X70849992Y-34845860D01*
X70784827Y-34957004D01*
X70704716Y-35057095D01*
X70611388Y-35143890D01*
X70506573Y-35215142D01*
X70422306Y-35256679D01*
X70357433Y-35281544D01*
X70296205Y-35299310D01*
X70232790Y-35310981D01*
X70161360Y-35317562D01*
X70076084Y-35320056D01*
X70053709Y-35320157D01*
X69964614Y-35318624D01*
X69890722Y-35313050D01*
X69826211Y-35302262D01*
X69765260Y-35285090D01*
X69702046Y-35260361D01*
X69659331Y-35240801D01*
X69551020Y-35177685D01*
X69452593Y-35097346D01*
X69365886Y-35002196D01*
X69292735Y-34894645D01*
X69234976Y-34777105D01*
X69194445Y-34651987D01*
X69187470Y-34621028D01*
X69170020Y-34485172D01*
X69172323Y-34345981D01*
X69194031Y-34206919D01*
X69234794Y-34071451D01*
X69245433Y-34044536D01*
X69277393Y-33979152D01*
X69320710Y-33907412D01*
X69370457Y-33836569D01*
X69421709Y-33773874D01*
X69448149Y-33746085D01*
X69478658Y-33717146D01*
X69498403Y-33701677D01*
X69511021Y-33697560D01*
X69520147Y-33702678D01*
G37*
G36*
X70487686Y-39218549D02*
G01*
X70582795Y-39244295D01*
X70619149Y-39259664D01*
X70679540Y-39296173D01*
X70739643Y-39346714D01*
X70792941Y-39405034D01*
X70832829Y-39464712D01*
X70850234Y-39500613D01*
X70864271Y-39538071D01*
X70875280Y-39579794D01*
X70883599Y-39628493D01*
X70889567Y-39686875D01*
X70893523Y-39757650D01*
X70895806Y-39843527D01*
X70896754Y-39947216D01*
X70896822Y-39976354D01*
X70897193Y-40260167D01*
X70373461Y-40260167D01*
X70052421Y-40260167D01*
X69692974Y-40260167D01*
X69207648Y-40260167D01*
X69213011Y-39997573D01*
X69214380Y-39941872D01*
X69517911Y-39941872D01*
X69692974Y-39941872D01*
X69868036Y-39941872D01*
X70154503Y-39941872D01*
X70373461Y-39941872D01*
X70592420Y-39941872D01*
X70586422Y-39817206D01*
X70582865Y-39763473D01*
X70577829Y-39713559D01*
X70572032Y-39673594D01*
X70567112Y-39652236D01*
X70545354Y-39611800D01*
X70510849Y-39574192D01*
X70470303Y-39545530D01*
X70436226Y-39532798D01*
X70370557Y-39530164D01*
X70308669Y-39545768D01*
X70254670Y-39577614D01*
X70212670Y-39623707D01*
X70199047Y-39647992D01*
X70179897Y-39701579D01*
X70165188Y-39768209D01*
X70156407Y-39839912D01*
X70154583Y-39886170D01*
X70154503Y-39941872D01*
X69868036Y-39941872D01*
X69867977Y-39880865D01*
X69865907Y-39838465D01*
X69860689Y-39797692D01*
X69856789Y-39779781D01*
X69831582Y-39725400D01*
X69791772Y-39683617D01*
X69741206Y-39656903D01*
X69683729Y-39647725D01*
X69654957Y-39650250D01*
X69601981Y-39668800D01*
X69561658Y-39704136D01*
X69534285Y-39755792D01*
X69520158Y-39823303D01*
X69518144Y-39864950D01*
X69517911Y-39941872D01*
X69214380Y-39941872D01*
X69215345Y-39902626D01*
X69218387Y-39825657D01*
X69222631Y-39763427D01*
X69228571Y-39712695D01*
X69236702Y-39670220D01*
X69247517Y-39632764D01*
X69261511Y-39597085D01*
X69279177Y-39559944D01*
X69279982Y-39558352D01*
X69320267Y-39496821D01*
X69374579Y-39438971D01*
X69436076Y-39391447D01*
X69472970Y-39370936D01*
X69504668Y-39357318D01*
X69533585Y-39348828D01*
X69566523Y-39344304D01*
X69610280Y-39342586D01*
X69639924Y-39342415D01*
X69692149Y-39343130D01*
X69729965Y-39346044D01*
X69760157Y-39352311D01*
X69789509Y-39363086D01*
X69806462Y-39370745D01*
X69848584Y-39394969D01*
X69892194Y-39426923D01*
X69916237Y-39448411D01*
X69941443Y-39472901D01*
X69959832Y-39489413D01*
X69967354Y-39494350D01*
X69991655Y-39454188D01*
X70024127Y-39408741D01*
X70060066Y-39363875D01*
X70094768Y-39325456D01*
X70123528Y-39299350D01*
X70124025Y-39298983D01*
X70205566Y-39251906D01*
X70295642Y-39222627D01*
X70390825Y-39211417D01*
X70487686Y-39218549D01*
G37*
D13*
%TO.C,D2*%
X76180000Y-36555000D02*
X76180000Y-39645000D01*
X76180000Y-36555170D02*
G75*
G02*
X81730000Y-38099952I2560000J-1544830D01*
G01*
X81730000Y-38100048D02*
G75*
G02*
X76180000Y-39644830I-2990000J48D01*
G01*
X81240000Y-38100000D02*
G75*
G02*
X76240000Y-38100000I-2500000J0D01*
G01*
X76240000Y-38100000D02*
G75*
G02*
X81240000Y-38100000I2500000J0D01*
G01*
%TO.C,J2*%
X100270000Y-31690000D02*
X100270000Y-82610000D01*
X100270000Y-31690000D02*
X102870000Y-31690000D01*
X100270000Y-82610000D02*
X105470000Y-82610000D01*
X102870000Y-31690000D02*
X102870000Y-34290000D01*
X102870000Y-34290000D02*
X105470000Y-34290000D01*
X104140000Y-31690000D02*
X105470000Y-31690000D01*
X105470000Y-31690000D02*
X105470000Y-33020000D01*
X105470000Y-34290000D02*
X105470000Y-82610000D01*
%TD*%
M02*
