M48
; DRILL file {KiCad 9.0.0} date 2025-05-01T21:38:06+0200
; FORMAT={-:-/ absolute / metric / decimal}
; #@! TF.CreationDate,2025-05-01T21:38:06+02:00
; #@! TF.GenerationSoftware,Kicad,Pcbnew,9.0.0
; #@! TF.FileFunction,Plated,1,2,PTH
FMAT,2
METRIC
; #@! TA.AperFunction,Plated,PTH,ViaDrill
T1C0.300
; #@! TA.AperFunction,Plated,PTH,ComponentDrill
T2C0.800
; #@! TA.AperFunction,Plated,PTH,ComponentDrill
T3C0.900
; #@! TA.AperFunction,Plated,PTH,ComponentDrill
T4C1.000
%
G90
G05
T1
X90.673Y-76.784
X91.44Y-40.64
T2
X71.12Y-46.975
X71.12Y-49.515
X71.12Y-52.055
X71.12Y-54.595
X71.12Y-57.135
X71.12Y-59.675
X71.12Y-62.215
X71.12Y-64.755
X71.12Y-67.295
X87.63Y-34.29
X87.63Y-36.83
X87.63Y-39.37
X87.63Y-41.91
X87.63Y-44.45
X87.63Y-46.99
X87.63Y-49.53
X87.63Y-62.23
X87.63Y-64.77
X87.63Y-67.31
X87.63Y-69.85
X87.63Y-72.39
X87.63Y-74.93
X87.63Y-77.47
X87.63Y-80.01
X87.63Y-82.55
X87.63Y-85.09
X88.9Y-57.15
X88.98Y-29.21
X93.9Y-57.15
X93.98Y-29.21
X95.25Y-34.29
X95.25Y-36.83
X95.25Y-39.37
X95.25Y-41.91
X95.25Y-44.45
X95.25Y-46.99
X95.25Y-49.53
X95.25Y-62.23
X95.25Y-64.77
X95.25Y-67.31
X95.25Y-69.85
X95.25Y-72.39
X95.25Y-74.93
X95.25Y-77.47
X95.25Y-80.01
X95.25Y-82.55
X95.25Y-85.09
T3
X77.47Y-30.48
X77.47Y-38.1
X77.47Y-45.72
X77.47Y-53.34
X77.47Y-60.96
X77.47Y-68.58
X77.47Y-76.2
X77.47Y-83.82
X80.01Y-30.48
X80.01Y-38.1
X80.01Y-45.72
X80.01Y-53.34
X80.01Y-60.96
X80.01Y-68.58
X80.01Y-76.2
X80.01Y-83.82
T4
X101.6Y-33.02
X101.6Y-35.56
X101.6Y-38.1
X101.6Y-40.64
X101.6Y-43.18
X101.6Y-45.72
X101.6Y-48.26
X101.6Y-50.8
X101.6Y-53.34
X101.6Y-55.88
X101.6Y-58.42
X101.6Y-60.96
X101.6Y-63.5
X101.6Y-66.04
X101.6Y-68.58
X101.6Y-71.12
X101.6Y-73.66
X101.6Y-76.2
X101.6Y-78.74
X101.6Y-81.28
X104.14Y-33.02
X104.14Y-35.56
X104.14Y-38.1
X104.14Y-40.64
X104.14Y-43.18
X104.14Y-45.72
X104.14Y-48.26
X104.14Y-50.8
X104.14Y-53.34
X104.14Y-55.88
X104.14Y-58.42
X104.14Y-60.96
X104.14Y-63.5
X104.14Y-66.04
X104.14Y-68.58
X104.14Y-71.12
X104.14Y-73.66
X104.14Y-76.2
X104.14Y-78.74
X104.14Y-81.28
M30
