%TF.GenerationSoftware,KiCad,Pcbnew,9.0.0*%
%TF.CreationDate,2025-05-01T21:38:04+02:00*%
%TF.ProjectId,tinyboard-blinkenlight,74696e79-626f-4617-9264-2d626c696e6b,rev?*%
%TF.SameCoordinates,Original*%
%TF.FileFunction,Copper,L1,Top*%
%TF.FilePolarity,Positive*%
%FSLAX46Y46*%
G04 Gerber Fmt 4.6, Leading zero omitted, Abs format (unit mm)*
G04 Created by KiCad (PCBNEW 9.0.0) date 2025-05-01 21:38:04*
%MOMM*%
%LPD*%
G01*
G04 APERTURE LIST*
G04 Aperture macros list*
%AMRoundRect*
0 Rectangle with rounded corners*
0 $1 Rounding radius*
0 $2 $3 $4 $5 $6 $7 $8 $9 X,Y pos of 4 corners*
0 Add a 4 corners polygon primitive as box body*
4,1,4,$2,$3,$4,$5,$6,$7,$8,$9,$2,$3,0*
0 Add four circle primitives for the rounded corners*
1,1,$1+$1,$2,$3*
1,1,$1+$1,$4,$5*
1,1,$1+$1,$6,$7*
1,1,$1+$1,$8,$9*
0 Add four rect primitives between the rounded corners*
20,1,$1+$1,$2,$3,$4,$5,0*
20,1,$1+$1,$4,$5,$6,$7,0*
20,1,$1+$1,$6,$7,$8,$9,0*
20,1,$1+$1,$8,$9,$2,$3,0*%
G04 Aperture macros list end*
%TA.AperFunction,ComponentPad*%
%ADD10RoundRect,0.250000X-0.550000X-0.550000X0.550000X-0.550000X0.550000X0.550000X-0.550000X0.550000X0*%
%TD*%
%TA.AperFunction,ComponentPad*%
%ADD11C,1.600000*%
%TD*%
%TA.AperFunction,ComponentPad*%
%ADD12R,1.800000X1.800000*%
%TD*%
%TA.AperFunction,ComponentPad*%
%ADD13C,1.800000*%
%TD*%
%TA.AperFunction,ComponentPad*%
%ADD14R,1.600000X1.600000*%
%TD*%
%TA.AperFunction,ComponentPad*%
%ADD15O,1.600000X1.600000*%
%TD*%
%TA.AperFunction,ComponentPad*%
%ADD16R,1.700000X1.700000*%
%TD*%
%TA.AperFunction,ComponentPad*%
%ADD17O,1.700000X1.700000*%
%TD*%
%TA.AperFunction,ViaPad*%
%ADD18C,0.600000*%
%TD*%
%TA.AperFunction,Conductor*%
%ADD19C,0.500000*%
%TD*%
%TA.AperFunction,Conductor*%
%ADD20C,0.200000*%
%TD*%
G04 APERTURE END LIST*
D10*
%TO.P,U2,1*%
%TO.N,Net-(U2-Pad1)*%
X87630000Y-34290000D03*
D11*
%TO.P,U2,2*%
%TO.N,B1*%
X87630000Y-36830000D03*
%TO.P,U2,3*%
%TO.N,R{slash}~{W}*%
X87630000Y-39370000D03*
%TO.P,U2,4*%
%TO.N,Net-(U2-Pad4)*%
X87630000Y-41910000D03*
%TO.P,U2,5*%
%TO.N,Net-(U2-Pad1)*%
X87630000Y-44450000D03*
%TO.P,U2,6*%
X87630000Y-46990000D03*
%TO.P,U2,7,GND*%
%TO.N,GND*%
X87630000Y-49530000D03*
%TO.P,U2,8*%
%TO.N,Net-(U2-Pad4)*%
X95250000Y-49530000D03*
%TO.P,U2,9*%
%TO.N,CLK*%
X95250000Y-46990000D03*
%TO.P,U2,10*%
%TO.N,Net-(U1-Cp)*%
X95250000Y-44450000D03*
%TO.P,U2,11*%
%TO.N,GND*%
X95250000Y-41910000D03*
%TO.P,U2,12*%
X95250000Y-39370000D03*
%TO.P,U2,13*%
%TO.N,unconnected-(U2-Pad13)*%
X95250000Y-36830000D03*
%TO.P,U2,14,VCC*%
%TO.N,VCC*%
X95250000Y-34290000D03*
%TD*%
%TO.P,C2,1*%
%TO.N,VCC*%
X93900000Y-57150000D03*
%TO.P,C2,2*%
%TO.N,GND*%
X88900000Y-57150000D03*
%TD*%
D12*
%TO.P,D5,1,K*%
%TO.N,Net-(D5-K)*%
X77470000Y-60960000D03*
D13*
%TO.P,D5,2,A*%
%TO.N,Net-(D5-A)*%
X80010000Y-60960000D03*
%TD*%
D12*
%TO.P,D1,1,K*%
%TO.N,Net-(D1-K)*%
X77470000Y-30480000D03*
D13*
%TO.P,D1,2,A*%
%TO.N,Net-(D1-A)*%
X80010000Y-30480000D03*
%TD*%
D12*
%TO.P,D7,1,K*%
%TO.N,Net-(D7-K)*%
X77470000Y-76200000D03*
D13*
%TO.P,D7,2,A*%
%TO.N,Net-(D7-A)*%
X80010000Y-76200000D03*
%TD*%
D12*
%TO.P,D6,1,K*%
%TO.N,Net-(D6-K)*%
X77470000Y-68580000D03*
D13*
%TO.P,D6,2,A*%
%TO.N,Net-(D6-A)*%
X80010000Y-68580000D03*
%TD*%
D14*
%TO.P,RN1,1,R1*%
%TO.N,GND*%
X71120000Y-46975000D03*
D15*
%TO.P,RN1,2,R1.2*%
%TO.N,Net-(D1-K)*%
X71120000Y-49515000D03*
%TO.P,RN1,3,R2.2*%
%TO.N,Net-(D2-K)*%
X71120000Y-52055000D03*
%TO.P,RN1,4,R3.2*%
%TO.N,Net-(D3-K)*%
X71120000Y-54595000D03*
%TO.P,RN1,5,R4.2*%
%TO.N,Net-(D4-K)*%
X71120000Y-57135000D03*
%TO.P,RN1,6,R5.2*%
%TO.N,Net-(D5-K)*%
X71120000Y-59675000D03*
%TO.P,RN1,7,R6.2*%
%TO.N,Net-(D6-K)*%
X71120000Y-62215000D03*
%TO.P,RN1,8,R7.2*%
%TO.N,Net-(D7-K)*%
X71120000Y-64755000D03*
%TO.P,RN1,9,R8.2*%
%TO.N,Net-(D8-K)*%
X71120000Y-67295000D03*
%TD*%
D12*
%TO.P,D8,1,K*%
%TO.N,Net-(D8-K)*%
X77470000Y-83820000D03*
D13*
%TO.P,D8,2,A*%
%TO.N,Net-(D8-A)*%
X80010000Y-83820000D03*
%TD*%
D12*
%TO.P,D3,1,K*%
%TO.N,Net-(D3-K)*%
X77470000Y-45720000D03*
D13*
%TO.P,D3,2,A*%
%TO.N,Net-(D3-A)*%
X80010000Y-45720000D03*
%TD*%
D10*
%TO.P,U1,1,~{Mr}*%
%TO.N,~{RES}*%
X87630000Y-62230000D03*
D11*
%TO.P,U1,2,Q0*%
%TO.N,Net-(D1-A)*%
X87630000Y-64770000D03*
%TO.P,U1,3,D0*%
%TO.N,D0*%
X87630000Y-67310000D03*
%TO.P,U1,4,D1*%
%TO.N,D1*%
X87630000Y-69850000D03*
%TO.P,U1,5,Q1*%
%TO.N,Net-(D2-A)*%
X87630000Y-72390000D03*
%TO.P,U1,6,Q2*%
%TO.N,Net-(D3-A)*%
X87630000Y-74930000D03*
%TO.P,U1,7,D2*%
%TO.N,D2*%
X87630000Y-77470000D03*
%TO.P,U1,8,D3*%
%TO.N,D3*%
X87630000Y-80010000D03*
%TO.P,U1,9,Q3*%
%TO.N,Net-(D4-A)*%
X87630000Y-82550000D03*
%TO.P,U1,10,GND*%
%TO.N,GND*%
X87630000Y-85090000D03*
%TO.P,U1,11,Cp*%
%TO.N,Net-(U1-Cp)*%
X95250000Y-85090000D03*
%TO.P,U1,12,Q4*%
%TO.N,Net-(D5-A)*%
X95250000Y-82550000D03*
%TO.P,U1,13,D4*%
%TO.N,D4*%
X95250000Y-80010000D03*
%TO.P,U1,14,D5*%
%TO.N,D5*%
X95250000Y-77470000D03*
%TO.P,U1,15,Q5*%
%TO.N,Net-(D6-A)*%
X95250000Y-74930000D03*
%TO.P,U1,16,Q6*%
%TO.N,Net-(D7-A)*%
X95250000Y-72390000D03*
%TO.P,U1,17,D6*%
%TO.N,D6*%
X95250000Y-69850000D03*
%TO.P,U1,18,D7*%
%TO.N,D7*%
X95250000Y-67310000D03*
%TO.P,U1,19,Q7*%
%TO.N,Net-(D8-A)*%
X95250000Y-64770000D03*
%TO.P,U1,20,VCC*%
%TO.N,VCC*%
X95250000Y-62230000D03*
%TD*%
D12*
%TO.P,D4,1,K*%
%TO.N,Net-(D4-K)*%
X77470000Y-53340000D03*
D13*
%TO.P,D4,2,A*%
%TO.N,Net-(D4-A)*%
X80010000Y-53340000D03*
%TD*%
D11*
%TO.P,C1,1*%
%TO.N,VCC*%
X93980000Y-29210000D03*
%TO.P,C1,2*%
%TO.N,GND*%
X88980000Y-29210000D03*
%TD*%
D12*
%TO.P,D2,1,K*%
%TO.N,Net-(D2-K)*%
X77470000Y-38100000D03*
D13*
%TO.P,D2,2,A*%
%TO.N,Net-(D2-A)*%
X80010000Y-38100000D03*
%TD*%
D16*
%TO.P,J2,1,Pin_1*%
%TO.N,VCC*%
X104140000Y-33020000D03*
D17*
%TO.P,J2,2,Pin_2*%
X101600000Y-33020000D03*
%TO.P,J2,3,Pin_3*%
%TO.N,A0*%
X104140000Y-35560000D03*
%TO.P,J2,4,Pin_4*%
%TO.N,R{slash}~{W}*%
X101600000Y-35560000D03*
%TO.P,J2,5,Pin_5*%
%TO.N,A1*%
X104140000Y-38100000D03*
%TO.P,J2,6,Pin_6*%
%TO.N,CLK*%
X101600000Y-38100000D03*
%TO.P,J2,7,Pin_7*%
%TO.N,A2*%
X104140000Y-40640000D03*
%TO.P,J2,8,Pin_8*%
%TO.N,B2*%
X101600000Y-40640000D03*
%TO.P,J2,9,Pin_9*%
%TO.N,A3*%
X104140000Y-43180000D03*
%TO.P,J2,10,Pin_10*%
%TO.N,B1*%
X101600000Y-43180000D03*
%TO.P,J2,11,Pin_11*%
%TO.N,A4*%
X104140000Y-45720000D03*
%TO.P,J2,12,Pin_12*%
%TO.N,~{RES}*%
X101600000Y-45720000D03*
%TO.P,J2,13,Pin_13*%
%TO.N,A5*%
X104140000Y-48260000D03*
%TO.P,J2,14,Pin_14*%
%TO.N,~{NMI}*%
X101600000Y-48260000D03*
%TO.P,J2,15,Pin_15*%
%TO.N,A6*%
X104140000Y-50800000D03*
%TO.P,J2,16,Pin_16*%
%TO.N,~{IRQ}*%
X101600000Y-50800000D03*
%TO.P,J2,17,Pin_17*%
%TO.N,A7*%
X104140000Y-53340000D03*
%TO.P,J2,18,Pin_18*%
%TO.N,~{ROMCS}*%
X101600000Y-53340000D03*
%TO.P,J2,19,Pin_19*%
%TO.N,A8*%
X104140000Y-55880000D03*
%TO.P,J2,20,Pin_20*%
%TO.N,~{ACIACS}*%
X101600000Y-55880000D03*
%TO.P,J2,21,Pin_21*%
%TO.N,A9*%
X104140000Y-58420000D03*
%TO.P,J2,22,Pin_22*%
%TO.N,~{RAMCS}*%
X101600000Y-58420000D03*
%TO.P,J2,23,Pin_23*%
%TO.N,A10*%
X104140000Y-60960000D03*
%TO.P,J2,24,Pin_24*%
%TO.N,D0*%
X101600000Y-60960000D03*
%TO.P,J2,25,Pin_25*%
%TO.N,A11*%
X104140000Y-63500000D03*
%TO.P,J2,26,Pin_26*%
%TO.N,D1*%
X101600000Y-63500000D03*
%TO.P,J2,27,Pin_27*%
%TO.N,A12*%
X104140000Y-66040000D03*
%TO.P,J2,28,Pin_28*%
%TO.N,D2*%
X101600000Y-66040000D03*
%TO.P,J2,29,Pin_29*%
%TO.N,A13*%
X104140000Y-68580000D03*
%TO.P,J2,30,Pin_30*%
%TO.N,D3*%
X101600000Y-68580000D03*
%TO.P,J2,31,Pin_31*%
%TO.N,A14*%
X104140000Y-71120000D03*
%TO.P,J2,32,Pin_32*%
%TO.N,D4*%
X101600000Y-71120000D03*
%TO.P,J2,33,Pin_33*%
%TO.N,A15*%
X104140000Y-73660000D03*
%TO.P,J2,34,Pin_34*%
%TO.N,D5*%
X101600000Y-73660000D03*
%TO.P,J2,35,Pin_35*%
%TO.N,TxD1*%
X104140000Y-76200000D03*
%TO.P,J2,36,Pin_36*%
%TO.N,D6*%
X101600000Y-76200000D03*
%TO.P,J2,37,Pin_37*%
%TO.N,RxD1*%
X104140000Y-78740000D03*
%TO.P,J2,38,Pin_38*%
%TO.N,D7*%
X101600000Y-78740000D03*
%TO.P,J2,39,Pin_39*%
%TO.N,GND*%
X104140000Y-81280000D03*
%TO.P,J2,40,Pin_40*%
X101600000Y-81280000D03*
%TD*%
D18*
%TO.N,GND*%
X91440000Y-40640000D03*
%TO.N,Net-(D6-A)*%
X90672900Y-76784200D03*
%TD*%
D19*
%TO.N,GND*%
X88900000Y-87630000D02*
X87630000Y-86360000D01*
X101600000Y-81280000D02*
X100330000Y-82550000D01*
X100330000Y-86360000D02*
X99060000Y-87630000D01*
X68580000Y-27940000D02*
X69850000Y-26670000D01*
X100330000Y-82550000D02*
X100330000Y-86360000D01*
X69865000Y-46975000D02*
X71120000Y-46975000D01*
X69850000Y-87630000D02*
X68580000Y-86360000D01*
X88900000Y-87630000D02*
X69850000Y-87630000D01*
X68580000Y-48260000D02*
X68580000Y-27940000D01*
X95250000Y-41910000D02*
X92710000Y-41910000D01*
X68580000Y-86360000D02*
X68580000Y-48260000D01*
X87630000Y-26670000D02*
X88980000Y-28020000D01*
X92710000Y-41910000D02*
X91440000Y-40640000D01*
X87630000Y-86360000D02*
X87630000Y-85090000D01*
X104140000Y-81280000D02*
X101600000Y-81280000D01*
X88980000Y-28020000D02*
X88980000Y-29210000D01*
X99060000Y-87630000D02*
X88900000Y-87630000D01*
X68580000Y-48260000D02*
X69865000Y-46975000D01*
X69850000Y-26670000D02*
X87630000Y-26670000D01*
D20*
%TO.N,Net-(D1-K)*%
X77470000Y-30480000D02*
X77470000Y-31680100D01*
X72359800Y-36790300D02*
X72359800Y-47792000D01*
X71120000Y-49515000D02*
X71120000Y-48414900D01*
X72359800Y-47792000D02*
X71736900Y-48414900D01*
X71736900Y-48414900D02*
X71120000Y-48414900D01*
X77470000Y-31680100D02*
X72359800Y-36790300D01*
%TO.N,Net-(D1-A)*%
X85630100Y-36100100D02*
X85630100Y-43437300D01*
X80010000Y-30480000D02*
X85630100Y-36100100D01*
X86191200Y-63331200D02*
X87630000Y-64770000D01*
X85630100Y-43437300D02*
X86191200Y-43998400D01*
X86191200Y-43998400D02*
X86191200Y-63331200D01*
%TO.N,Net-(D2-A)*%
X85430100Y-70190100D02*
X87630000Y-72390000D01*
X80010000Y-38665700D02*
X85430100Y-44085800D01*
X80010000Y-38100000D02*
X80010000Y-38665700D01*
X85430100Y-44085800D02*
X85430100Y-70190100D01*
%TO.N,Net-(D2-K)*%
X76269900Y-46032900D02*
X76269900Y-40500200D01*
X77470000Y-38100000D02*
X77470000Y-39300100D01*
X76269900Y-40500200D02*
X77470000Y-39300100D01*
X71120000Y-52055000D02*
X71120000Y-50954900D01*
X71120000Y-50954900D02*
X71347900Y-50954900D01*
X71347900Y-50954900D02*
X76269900Y-46032900D01*
%TO.N,Net-(D3-A)*%
X84569500Y-50279500D02*
X84569500Y-71869500D01*
X84569500Y-71869500D02*
X87630000Y-74930000D01*
X80010000Y-45720000D02*
X84569500Y-50279500D01*
%TO.N,Net-(D4-A)*%
X83464400Y-78384400D02*
X87630000Y-82550000D01*
X80010000Y-53340000D02*
X83464400Y-56794400D01*
X83464400Y-56794400D02*
X83464400Y-78384400D01*
%TO.N,Net-(D6-A)*%
X93395800Y-76784200D02*
X90672900Y-76784200D01*
X95250000Y-74930000D02*
X93395800Y-76784200D01*
%TO.N,Net-(D7-A)*%
X95250000Y-72390000D02*
X94215100Y-72390000D01*
X89650700Y-82128000D02*
X88127200Y-83651500D01*
X89650700Y-76954400D02*
X89650700Y-82128000D01*
X88127200Y-83651500D02*
X87108500Y-83651500D01*
X94215100Y-72390000D02*
X89650700Y-76954400D01*
X87108500Y-83651500D02*
X80010000Y-76553000D01*
X80010000Y-76553000D02*
X80010000Y-76200000D01*
%TO.N,Net-(D8-K)*%
X77470000Y-82619900D02*
X71120000Y-76269900D01*
X71120000Y-76269900D02*
X71120000Y-67295000D01*
X77470000Y-83820000D02*
X77470000Y-82619900D01*
%TO.N,D2*%
X94920800Y-66040000D02*
X101600000Y-66040000D01*
X93580100Y-71519900D02*
X93580100Y-67380700D01*
X87630000Y-77470000D02*
X93580100Y-71519900D01*
X93580100Y-67380700D02*
X94920800Y-66040000D01*
%TO.N,~{RES}*%
X87630000Y-62230000D02*
X87630000Y-60603400D01*
X87630000Y-60603400D02*
X101363300Y-46870100D01*
X101363300Y-46870100D02*
X101600000Y-46870100D01*
X101600000Y-45720000D02*
X101600000Y-46870100D01*
%TO.N,R{slash}~{W}*%
X87630000Y-39370000D02*
X91440000Y-35560000D01*
X91440000Y-35560000D02*
X101600000Y-35560000D01*
%TO.N,D0*%
X87630000Y-67310000D02*
X93980000Y-60960000D01*
X93980000Y-60960000D02*
X101600000Y-60960000D01*
%TO.N,B1*%
X86518600Y-37941400D02*
X86518600Y-39825600D01*
X89420000Y-40640000D02*
X91960000Y-43180000D01*
X87630000Y-36830000D02*
X86518600Y-37941400D01*
X91960000Y-43180000D02*
X101600000Y-43180000D01*
X87333000Y-40640000D02*
X89420000Y-40640000D01*
X86518600Y-39825600D02*
X87333000Y-40640000D01*
%TO.N,D6*%
X100449900Y-75049900D02*
X100449900Y-76200000D01*
X95250000Y-69850000D02*
X100449900Y-75049900D01*
X101600000Y-76200000D02*
X100449900Y-76200000D01*
%TO.N,D1*%
X93980000Y-63500000D02*
X101600000Y-63500000D01*
X87630000Y-69850000D02*
X93980000Y-63500000D01*
%TO.N,D3*%
X89130300Y-76670200D02*
X89130300Y-78509700D01*
X89130300Y-78509700D02*
X87630000Y-80010000D01*
X94003900Y-69533900D02*
X94003900Y-71796600D01*
X101600000Y-68580000D02*
X94957800Y-68580000D01*
X94957800Y-68580000D02*
X94003900Y-69533900D01*
X94003900Y-71796600D02*
X89130300Y-76670200D01*
%TO.N,Net-(U2-Pad1)*%
X86118500Y-35801500D02*
X86118500Y-42938500D01*
X87630000Y-46990000D02*
X87630000Y-44450000D01*
X86118500Y-42938500D02*
X87630000Y-44450000D01*
X87630000Y-34290000D02*
X86118500Y-35801500D01*
%TO.N,Net-(U2-Pad4)*%
X95250000Y-49530000D02*
X87630000Y-41910000D01*
%TD*%
%TA.AperFunction,Conductor*%
%TO.N,GND*%
G36*
X103414418Y-25900816D02*
G01*
X103614561Y-25915130D01*
X103632063Y-25917647D01*
X103823797Y-25959355D01*
X103840755Y-25964334D01*
X104024609Y-26032909D01*
X104040701Y-26040259D01*
X104212904Y-26134288D01*
X104227784Y-26143849D01*
X104384867Y-26261441D01*
X104398237Y-26273027D01*
X104536972Y-26411762D01*
X104548558Y-26425132D01*
X104666146Y-26582210D01*
X104675711Y-26597095D01*
X104769740Y-26769298D01*
X104777090Y-26785390D01*
X104845662Y-26969236D01*
X104850646Y-26986212D01*
X104892351Y-27177931D01*
X104894869Y-27195442D01*
X104909184Y-27395580D01*
X104909500Y-27404427D01*
X104909500Y-31545500D01*
X104889815Y-31612539D01*
X104837011Y-31658294D01*
X104785500Y-31669500D01*
X103242129Y-31669500D01*
X103242123Y-31669501D01*
X103182516Y-31675908D01*
X103047671Y-31726202D01*
X103047664Y-31726206D01*
X102932455Y-31812452D01*
X102932452Y-31812455D01*
X102846206Y-31927664D01*
X102846203Y-31927669D01*
X102797189Y-32059083D01*
X102755317Y-32115016D01*
X102689853Y-32139433D01*
X102621580Y-32124581D01*
X102593326Y-32103430D01*
X102479786Y-31989890D01*
X102307820Y-31864951D01*
X102118414Y-31768444D01*
X102118413Y-31768443D01*
X102118412Y-31768443D01*
X101916243Y-31702754D01*
X101916241Y-31702753D01*
X101916240Y-31702753D01*
X101754957Y-31677208D01*
X101706287Y-31669500D01*
X101493713Y-31669500D01*
X101445042Y-31677208D01*
X101283760Y-31702753D01*
X101081585Y-31768444D01*
X100892179Y-31864951D01*
X100720213Y-31989890D01*
X100569890Y-32140213D01*
X100444951Y-32312179D01*
X100348444Y-32501585D01*
X100282753Y-32703760D01*
X100249500Y-32913713D01*
X100249500Y-33126287D01*
X100257645Y-33177713D01*
X100272474Y-33271342D01*
X100282754Y-33336243D01*
X100317370Y-33442781D01*
X100348444Y-33538414D01*
X100444951Y-33727820D01*
X100569890Y-33899786D01*
X100720213Y-34050109D01*
X100892182Y-34175050D01*
X100900946Y-34179516D01*
X100951742Y-34227491D01*
X100968536Y-34295312D01*
X100945998Y-34361447D01*
X100900946Y-34400484D01*
X100892182Y-34404949D01*
X100720213Y-34529890D01*
X100569890Y-34680213D01*
X100444948Y-34852184D01*
X100444947Y-34852185D01*
X100424765Y-34891795D01*
X100376791Y-34942591D01*
X100314281Y-34959500D01*
X96570266Y-34959500D01*
X96503227Y-34939815D01*
X96457472Y-34887011D01*
X96447528Y-34817853D01*
X96454080Y-34793970D01*
X96453714Y-34793852D01*
X96455218Y-34789222D01*
X96455220Y-34789219D01*
X96518477Y-34594534D01*
X96550500Y-34392352D01*
X96550500Y-34187648D01*
X96518477Y-33985466D01*
X96502589Y-33936569D01*
X96455218Y-33790776D01*
X96403865Y-33689991D01*
X96362287Y-33608390D01*
X96311447Y-33538414D01*
X96241971Y-33442786D01*
X96097213Y-33298028D01*
X95931613Y-33177715D01*
X95931612Y-33177714D01*
X95931610Y-33177713D01*
X95871898Y-33147288D01*
X95749223Y-33084781D01*
X95554534Y-33021522D01*
X95379995Y-32993878D01*
X95352352Y-32989500D01*
X95147648Y-32989500D01*
X95123329Y-32993351D01*
X94945465Y-33021522D01*
X94750776Y-33084781D01*
X94568386Y-33177715D01*
X94402786Y-33298028D01*
X94258028Y-33442786D01*
X94137715Y-33608386D01*
X94044781Y-33790776D01*
X93981522Y-33985465D01*
X93949500Y-34187648D01*
X93949500Y-34392351D01*
X93981522Y-34594534D01*
X94020848Y-34715564D01*
X94044780Y-34789219D01*
X94044781Y-34789222D01*
X94046286Y-34793852D01*
X94044964Y-34794281D01*
X94051764Y-34857514D01*
X94020491Y-34919994D01*
X93960403Y-34955648D01*
X93929734Y-34959500D01*
X91526670Y-34959500D01*
X91526654Y-34959499D01*
X91519058Y-34959499D01*
X91360943Y-34959499D01*
X91284579Y-34979961D01*
X91208214Y-35000423D01*
X91208209Y-35000426D01*
X91071290Y-35079475D01*
X91071282Y-35079481D01*
X89142181Y-37008582D01*
X89080858Y-37042067D01*
X89011166Y-37037083D01*
X88955233Y-36995211D01*
X88930816Y-36929747D01*
X88930500Y-36920901D01*
X88930500Y-36727648D01*
X88898477Y-36525465D01*
X88835218Y-36330776D01*
X88782955Y-36228205D01*
X88742287Y-36148390D01*
X88734556Y-36137749D01*
X88621971Y-35982786D01*
X88477219Y-35838034D01*
X88383547Y-35769978D01*
X88340882Y-35714649D01*
X88334903Y-35645036D01*
X88367508Y-35583240D01*
X88417426Y-35551955D01*
X88499334Y-35524814D01*
X88648656Y-35432712D01*
X88772712Y-35308656D01*
X88864814Y-35159334D01*
X88919999Y-34992797D01*
X88930500Y-34890009D01*
X88930499Y-33689992D01*
X88919999Y-33587203D01*
X88864814Y-33420666D01*
X88772712Y-33271344D01*
X88648656Y-33147288D01*
X88499334Y-33055186D01*
X88332797Y-33000001D01*
X88332795Y-33000000D01*
X88230010Y-32989500D01*
X87029998Y-32989500D01*
X87029981Y-32989501D01*
X86927203Y-33000000D01*
X86927200Y-33000001D01*
X86760668Y-33055185D01*
X86760663Y-33055187D01*
X86611342Y-33147289D01*
X86487289Y-33271342D01*
X86395187Y-33420663D01*
X86395186Y-33420666D01*
X86340001Y-33587203D01*
X86340001Y-33587204D01*
X86340000Y-33587204D01*
X86329500Y-33689983D01*
X86329500Y-34689901D01*
X86309815Y-34756940D01*
X86293181Y-34777582D01*
X85812680Y-35258083D01*
X85751357Y-35291568D01*
X85681665Y-35286584D01*
X85637318Y-35258083D01*
X81383438Y-31004203D01*
X81349953Y-30942880D01*
X81353187Y-30878205D01*
X81376015Y-30807951D01*
X81410500Y-30590222D01*
X81410500Y-30369778D01*
X81376015Y-30152049D01*
X81376015Y-30152048D01*
X81307896Y-29942396D01*
X81307895Y-29942393D01*
X81273237Y-29874375D01*
X81207815Y-29745978D01*
X81109022Y-29610000D01*
X81078247Y-29567641D01*
X81078243Y-29567636D01*
X80922363Y-29411756D01*
X80922358Y-29411752D01*
X80744025Y-29282187D01*
X80744024Y-29282186D01*
X80744022Y-29282185D01*
X80608831Y-29213301D01*
X80608828Y-29213298D01*
X80547616Y-29182109D01*
X80547603Y-29182103D01*
X80337952Y-29113985D01*
X80298157Y-29107682D01*
X87680000Y-29107682D01*
X87680000Y-29312317D01*
X87712009Y-29514417D01*
X87775244Y-29709031D01*
X87868141Y-29891350D01*
X87868147Y-29891359D01*
X87900523Y-29935921D01*
X87900524Y-29935922D01*
X88580000Y-29256446D01*
X88580000Y-29262661D01*
X88607259Y-29364394D01*
X88659920Y-29455606D01*
X88734394Y-29530080D01*
X88825606Y-29582741D01*
X88927339Y-29610000D01*
X88933553Y-29610000D01*
X88254076Y-30289474D01*
X88298650Y-30321859D01*
X88480968Y-30414755D01*
X88675582Y-30477990D01*
X88877683Y-30510000D01*
X89082317Y-30510000D01*
X89284417Y-30477990D01*
X89479031Y-30414755D01*
X89661349Y-30321859D01*
X89705921Y-30289474D01*
X89026447Y-29610000D01*
X89032661Y-29610000D01*
X89134394Y-29582741D01*
X89225606Y-29530080D01*
X89300080Y-29455606D01*
X89352741Y-29364394D01*
X89380000Y-29262661D01*
X89380000Y-29256447D01*
X90059474Y-29935921D01*
X90091859Y-29891349D01*
X90184755Y-29709031D01*
X90247990Y-29514417D01*
X90280000Y-29312317D01*
X90280000Y-29107682D01*
X90279995Y-29107648D01*
X92679500Y-29107648D01*
X92679500Y-29312351D01*
X92711522Y-29514534D01*
X92774781Y-29709223D01*
X92838691Y-29834653D01*
X92867585Y-29891359D01*
X92867715Y-29891613D01*
X92988028Y-30057213D01*
X93132786Y-30201971D01*
X93253226Y-30289474D01*
X93298390Y-30322287D01*
X93414607Y-30381503D01*
X93480776Y-30415218D01*
X93480778Y-30415218D01*
X93480781Y-30415220D01*
X93585137Y-30449127D01*
X93675465Y-30478477D01*
X93776557Y-30494488D01*
X93877648Y-30510500D01*
X93877649Y-30510500D01*
X94082351Y-30510500D01*
X94082352Y-30510500D01*
X94284534Y-30478477D01*
X94479219Y-30415220D01*
X94661610Y-30322287D01*
X94754590Y-30254732D01*
X94827213Y-30201971D01*
X94827215Y-30201968D01*
X94827219Y-30201966D01*
X94971966Y-30057219D01*
X94971968Y-30057215D01*
X94971971Y-30057213D01*
X95055389Y-29942396D01*
X95092287Y-29891610D01*
X95185220Y-29709219D01*
X95248477Y-29514534D01*
X95280500Y-29312352D01*
X95280500Y-29107648D01*
X95272257Y-29055606D01*
X95248477Y-28905465D01*
X95217458Y-28810000D01*
X95185220Y-28710781D01*
X95185218Y-28710778D01*
X95185218Y-28710776D01*
X95092419Y-28528650D01*
X95092287Y-28528390D01*
X95060092Y-28484077D01*
X94971971Y-28362786D01*
X94827213Y-28218028D01*
X94661613Y-28097715D01*
X94661612Y-28097714D01*
X94661610Y-28097713D01*
X94604653Y-28068691D01*
X94479223Y-28004781D01*
X94284534Y-27941522D01*
X94109995Y-27913878D01*
X94082352Y-27909500D01*
X93877648Y-27909500D01*
X93853329Y-27913351D01*
X93675465Y-27941522D01*
X93480776Y-28004781D01*
X93298386Y-28097715D01*
X93132786Y-28218028D01*
X92988028Y-28362786D01*
X92867715Y-28528386D01*
X92774781Y-28710776D01*
X92711522Y-28905465D01*
X92679500Y-29107648D01*
X90279995Y-29107648D01*
X90247990Y-28905582D01*
X90184755Y-28710968D01*
X90091859Y-28528650D01*
X90059474Y-28484077D01*
X90059474Y-28484076D01*
X89380000Y-29163551D01*
X89380000Y-29157339D01*
X89352741Y-29055606D01*
X89300080Y-28964394D01*
X89225606Y-28889920D01*
X89134394Y-28837259D01*
X89032661Y-28810000D01*
X89026446Y-28810000D01*
X89705922Y-28130524D01*
X89705921Y-28130523D01*
X89661359Y-28098147D01*
X89661350Y-28098141D01*
X89479031Y-28005244D01*
X89284417Y-27942009D01*
X89082317Y-27910000D01*
X88877683Y-27910000D01*
X88675582Y-27942009D01*
X88480968Y-28005244D01*
X88298644Y-28098143D01*
X88254077Y-28130523D01*
X88254077Y-28130524D01*
X88933554Y-28810000D01*
X88927339Y-28810000D01*
X88825606Y-28837259D01*
X88734394Y-28889920D01*
X88659920Y-28964394D01*
X88607259Y-29055606D01*
X88580000Y-29157339D01*
X88580000Y-29163553D01*
X87900524Y-28484077D01*
X87900523Y-28484077D01*
X87868143Y-28528644D01*
X87775244Y-28710968D01*
X87712009Y-28905582D01*
X87680000Y-29107682D01*
X80298157Y-29107682D01*
X80229086Y-29096742D01*
X80120222Y-29079500D01*
X79899778Y-29079500D01*
X79827201Y-29090995D01*
X79682047Y-29113985D01*
X79472396Y-29182103D01*
X79472393Y-29182104D01*
X79275974Y-29282187D01*
X79097641Y-29411752D01*
X79097636Y-29411756D01*
X79047463Y-29461929D01*
X78986140Y-29495413D01*
X78916448Y-29490428D01*
X78860515Y-29448557D01*
X78843601Y-29417580D01*
X78813797Y-29337671D01*
X78813793Y-29337664D01*
X78727547Y-29222455D01*
X78727544Y-29222452D01*
X78612335Y-29136206D01*
X78612328Y-29136202D01*
X78477482Y-29085908D01*
X78477483Y-29085908D01*
X78417883Y-29079501D01*
X78417881Y-29079500D01*
X78417873Y-29079500D01*
X78417864Y-29079500D01*
X76522129Y-29079500D01*
X76522123Y-29079501D01*
X76462516Y-29085908D01*
X76327671Y-29136202D01*
X76327664Y-29136206D01*
X76212455Y-29222452D01*
X76212452Y-29222455D01*
X76126206Y-29337664D01*
X76126202Y-29337671D01*
X76075908Y-29472517D01*
X76069501Y-29532116D01*
X76069500Y-29532135D01*
X76069500Y-31427870D01*
X76069501Y-31427876D01*
X76075908Y-31487483D01*
X76126202Y-31622328D01*
X76126206Y-31622335D01*
X76167737Y-31677812D01*
X76212454Y-31737546D01*
X76298550Y-31801997D01*
X76340420Y-31857930D01*
X76345404Y-31927622D01*
X76311919Y-31988944D01*
X71994390Y-36306473D01*
X71994383Y-36306480D01*
X71991086Y-36309778D01*
X71991084Y-36309780D01*
X71879280Y-36421584D01*
X71852011Y-36468816D01*
X71846217Y-36478850D01*
X71846217Y-36478851D01*
X71819304Y-36525466D01*
X71800223Y-36558515D01*
X71759299Y-36711243D01*
X71759299Y-36711245D01*
X71759299Y-36879346D01*
X71759300Y-36879359D01*
X71759300Y-45551000D01*
X71739615Y-45618039D01*
X71686811Y-45663794D01*
X71635300Y-45675000D01*
X71370000Y-45675000D01*
X71370000Y-46659314D01*
X71365606Y-46654920D01*
X71274394Y-46602259D01*
X71172661Y-46575000D01*
X71067339Y-46575000D01*
X70965606Y-46602259D01*
X70874394Y-46654920D01*
X70870000Y-46659314D01*
X70870000Y-45675000D01*
X70272155Y-45675000D01*
X70212627Y-45681401D01*
X70212620Y-45681403D01*
X70077913Y-45731645D01*
X70077906Y-45731649D01*
X69962812Y-45817809D01*
X69962809Y-45817812D01*
X69876649Y-45932906D01*
X69876645Y-45932913D01*
X69826403Y-46067620D01*
X69826401Y-46067627D01*
X69820000Y-46127155D01*
X69820000Y-46725000D01*
X70804314Y-46725000D01*
X70799920Y-46729394D01*
X70747259Y-46820606D01*
X70720000Y-46922339D01*
X70720000Y-47027661D01*
X70747259Y-47129394D01*
X70799920Y-47220606D01*
X70804314Y-47225000D01*
X69820000Y-47225000D01*
X69820000Y-47822844D01*
X69826401Y-47882372D01*
X69826403Y-47882379D01*
X69876645Y-48017086D01*
X69876649Y-48017093D01*
X69962809Y-48132187D01*
X69962812Y-48132190D01*
X70077906Y-48218350D01*
X70077913Y-48218354D01*
X70212620Y-48268596D01*
X70250043Y-48272620D01*
X70314595Y-48299358D01*
X70354443Y-48356750D01*
X70356937Y-48426576D01*
X70321285Y-48486665D01*
X70309675Y-48496227D01*
X70272789Y-48523026D01*
X70272782Y-48523032D01*
X70128028Y-48667786D01*
X70007715Y-48833386D01*
X69914781Y-49015776D01*
X69851522Y-49210465D01*
X69819500Y-49412648D01*
X69819500Y-49617351D01*
X69851522Y-49819534D01*
X69914781Y-50014223D01*
X70007715Y-50196613D01*
X70128028Y-50362213D01*
X70272786Y-50506971D01*
X70413872Y-50609474D01*
X70438390Y-50627287D01*
X70462529Y-50639586D01*
X70478888Y-50647922D01*
X70501398Y-50669182D01*
X70525282Y-50688902D01*
X70526581Y-50692966D01*
X70529683Y-50695896D01*
X70537126Y-50725952D01*
X70546557Y-50755454D01*
X70545865Y-50761241D01*
X70546478Y-50763717D01*
X70542367Y-50790498D01*
X70525863Y-50852094D01*
X70489499Y-50911755D01*
X70462386Y-50930485D01*
X70438388Y-50942713D01*
X70272786Y-51063028D01*
X70128028Y-51207786D01*
X70007715Y-51373386D01*
X69914781Y-51555776D01*
X69851522Y-51750465D01*
X69819500Y-51952648D01*
X69819500Y-52157351D01*
X69851522Y-52359534D01*
X69914781Y-52554223D01*
X70007715Y-52736613D01*
X70128028Y-52902213D01*
X70272786Y-53046971D01*
X70427749Y-53159556D01*
X70438390Y-53167287D01*
X70529840Y-53213883D01*
X70531080Y-53214515D01*
X70581876Y-53262490D01*
X70598671Y-53330311D01*
X70576134Y-53396446D01*
X70531080Y-53435485D01*
X70438386Y-53482715D01*
X70272786Y-53603028D01*
X70128028Y-53747786D01*
X70007715Y-53913386D01*
X69914781Y-54095776D01*
X69851522Y-54290465D01*
X69819500Y-54492648D01*
X69819500Y-54697351D01*
X69851522Y-54899534D01*
X69914781Y-55094223D01*
X70007715Y-55276613D01*
X70128028Y-55442213D01*
X70272786Y-55586971D01*
X70427749Y-55699556D01*
X70438390Y-55707287D01*
X70529840Y-55753883D01*
X70531080Y-55754515D01*
X70581876Y-55802490D01*
X70598671Y-55870311D01*
X70576134Y-55936446D01*
X70531080Y-55975485D01*
X70438386Y-56022715D01*
X70272786Y-56143028D01*
X70128028Y-56287786D01*
X70007715Y-56453386D01*
X69914781Y-56635776D01*
X69851522Y-56830465D01*
X69819500Y-57032648D01*
X69819500Y-57237351D01*
X69851522Y-57439534D01*
X69914781Y-57634223D01*
X70007715Y-57816613D01*
X70128028Y-57982213D01*
X70272786Y-58126971D01*
X70413872Y-58229474D01*
X70438390Y-58247287D01*
X70529840Y-58293883D01*
X70531080Y-58294515D01*
X70581876Y-58342490D01*
X70598671Y-58410311D01*
X70576134Y-58476446D01*
X70531080Y-58515485D01*
X70438386Y-58562715D01*
X70272786Y-58683028D01*
X70128028Y-58827786D01*
X70007715Y-58993386D01*
X69914781Y-59175776D01*
X69851522Y-59370465D01*
X69819500Y-59572648D01*
X69819500Y-59777351D01*
X69851522Y-59979534D01*
X69914781Y-60174223D01*
X70007715Y-60356613D01*
X70128028Y-60522213D01*
X70272786Y-60666971D01*
X70387781Y-60750518D01*
X70438390Y-60787287D01*
X70529840Y-60833883D01*
X70531080Y-60834515D01*
X70581876Y-60882490D01*
X70598671Y-60950311D01*
X70576134Y-61016446D01*
X70531080Y-61055485D01*
X70438386Y-61102715D01*
X70272786Y-61223028D01*
X70128028Y-61367786D01*
X70007715Y-61533386D01*
X69914781Y-61715776D01*
X69851522Y-61910465D01*
X69819500Y-62112648D01*
X69819500Y-62317351D01*
X69851522Y-62519534D01*
X69914781Y-62714223D01*
X70007715Y-62896613D01*
X70128028Y-63062213D01*
X70272786Y-63206971D01*
X70427749Y-63319556D01*
X70438390Y-63327287D01*
X70527538Y-63372710D01*
X70531080Y-63374515D01*
X70581876Y-63422490D01*
X70598671Y-63490311D01*
X70576134Y-63556446D01*
X70531080Y-63595485D01*
X70438386Y-63642715D01*
X70272786Y-63763028D01*
X70128028Y-63907786D01*
X70007715Y-64073386D01*
X69914781Y-64255776D01*
X69851522Y-64450465D01*
X69819500Y-64652648D01*
X69819500Y-64857351D01*
X69851522Y-65059534D01*
X69914781Y-65254223D01*
X70007715Y-65436613D01*
X70128028Y-65602213D01*
X70272786Y-65746971D01*
X70377509Y-65823055D01*
X70438390Y-65867287D01*
X70529840Y-65913883D01*
X70531080Y-65914515D01*
X70581876Y-65962490D01*
X70598671Y-66030311D01*
X70576134Y-66096446D01*
X70531080Y-66135485D01*
X70438386Y-66182715D01*
X70272786Y-66303028D01*
X70128028Y-66447786D01*
X70007715Y-66613386D01*
X69914781Y-66795776D01*
X69851522Y-66990465D01*
X69819500Y-67192648D01*
X69819500Y-67397351D01*
X69851522Y-67599534D01*
X69914781Y-67794223D01*
X70007715Y-67976613D01*
X70128028Y-68142213D01*
X70128034Y-68142219D01*
X70272781Y-68286966D01*
X70438390Y-68407287D01*
X70451793Y-68414116D01*
X70502589Y-68462088D01*
X70519500Y-68524601D01*
X70519500Y-76183230D01*
X70519499Y-76183248D01*
X70519499Y-76348954D01*
X70519498Y-76348954D01*
X70519499Y-76348957D01*
X70560423Y-76501685D01*
X70560424Y-76501686D01*
X70575587Y-76527951D01*
X70575588Y-76527952D01*
X70639475Y-76638609D01*
X70639481Y-76638617D01*
X70758349Y-76757485D01*
X70758355Y-76757490D01*
X76311919Y-82311054D01*
X76345404Y-82372377D01*
X76340420Y-82442069D01*
X76298550Y-82498001D01*
X76212452Y-82562455D01*
X76126206Y-82677664D01*
X76126202Y-82677671D01*
X76075908Y-82812517D01*
X76069501Y-82872116D01*
X76069500Y-82872135D01*
X76069500Y-84767870D01*
X76069501Y-84767876D01*
X76075908Y-84827483D01*
X76126202Y-84962328D01*
X76126206Y-84962335D01*
X76212452Y-85077544D01*
X76212455Y-85077547D01*
X76327664Y-85163793D01*
X76327671Y-85163797D01*
X76462517Y-85214091D01*
X76462516Y-85214091D01*
X76469444Y-85214835D01*
X76522127Y-85220500D01*
X78417872Y-85220499D01*
X78477483Y-85214091D01*
X78612331Y-85163796D01*
X78727546Y-85077546D01*
X78813796Y-84962331D01*
X78841429Y-84888243D01*
X78843601Y-84882420D01*
X78885471Y-84826486D01*
X78950936Y-84802068D01*
X79019209Y-84816919D01*
X79047464Y-84838071D01*
X79097636Y-84888243D01*
X79097641Y-84888247D01*
X79162826Y-84935606D01*
X79275978Y-85017815D01*
X79404375Y-85083237D01*
X79472393Y-85117895D01*
X79472396Y-85117896D01*
X79548617Y-85142661D01*
X79682049Y-85186015D01*
X79899778Y-85220500D01*
X79899779Y-85220500D01*
X80120221Y-85220500D01*
X80120222Y-85220500D01*
X80337951Y-85186015D01*
X80547606Y-85117895D01*
X80744022Y-85017815D01*
X80857174Y-84935606D01*
X80922358Y-84888248D01*
X80922361Y-84888244D01*
X80922365Y-84888242D01*
X81078242Y-84732365D01*
X81207815Y-84554022D01*
X81307895Y-84357606D01*
X81376015Y-84147951D01*
X81410500Y-83930222D01*
X81410500Y-83709778D01*
X81376015Y-83492049D01*
X81307895Y-83282394D01*
X81307895Y-83282393D01*
X81273237Y-83214375D01*
X81207815Y-83085978D01*
X81149501Y-83005715D01*
X81078247Y-82907641D01*
X81078243Y-82907636D01*
X80922363Y-82751756D01*
X80922358Y-82751752D01*
X80744025Y-82622187D01*
X80744024Y-82622186D01*
X80744022Y-82622185D01*
X80681096Y-82590122D01*
X80547606Y-82522104D01*
X80547603Y-82522103D01*
X80337952Y-82453985D01*
X80221987Y-82435618D01*
X80120222Y-82419500D01*
X79899778Y-82419500D01*
X79827201Y-82430995D01*
X79682047Y-82453985D01*
X79472396Y-82522103D01*
X79472393Y-82522104D01*
X79275974Y-82622187D01*
X79097641Y-82751752D01*
X79097636Y-82751756D01*
X79047463Y-82801929D01*
X78986140Y-82835413D01*
X78916448Y-82830428D01*
X78860515Y-82788557D01*
X78843601Y-82757580D01*
X78813797Y-82677671D01*
X78813793Y-82677664D01*
X78727547Y-82562455D01*
X78727544Y-82562452D01*
X78612335Y-82476206D01*
X78612328Y-82476202D01*
X78477482Y-82425908D01*
X78477483Y-82425908D01*
X78417883Y-82419501D01*
X78417881Y-82419500D01*
X78417873Y-82419500D01*
X78417865Y-82419500D01*
X78119288Y-82419500D01*
X78107770Y-82416117D01*
X78095820Y-82417259D01*
X78074864Y-82406455D01*
X78052249Y-82399815D01*
X78042837Y-82389944D01*
X78033718Y-82385243D01*
X78011901Y-82357500D01*
X77989220Y-82318215D01*
X77989219Y-82318214D01*
X77985085Y-82311054D01*
X77950520Y-82251184D01*
X77838716Y-82139380D01*
X77838715Y-82139379D01*
X77834385Y-82135049D01*
X77834374Y-82135039D01*
X71756819Y-76057484D01*
X71723334Y-75996161D01*
X71720500Y-75969803D01*
X71720500Y-68524601D01*
X71740185Y-68457562D01*
X71788206Y-68414116D01*
X71801610Y-68407287D01*
X71967219Y-68286966D01*
X72111966Y-68142219D01*
X72111968Y-68142215D01*
X72111971Y-68142213D01*
X72184491Y-68042396D01*
X72232287Y-67976610D01*
X72325220Y-67794219D01*
X72377884Y-67632135D01*
X76069500Y-67632135D01*
X76069500Y-69527870D01*
X76069501Y-69527876D01*
X76075908Y-69587483D01*
X76126202Y-69722328D01*
X76126206Y-69722335D01*
X76212452Y-69837544D01*
X76212455Y-69837547D01*
X76327664Y-69923793D01*
X76327671Y-69923797D01*
X76462517Y-69974091D01*
X76462516Y-69974091D01*
X76469444Y-69974835D01*
X76522127Y-69980500D01*
X78417872Y-69980499D01*
X78477483Y-69974091D01*
X78612331Y-69923796D01*
X78727546Y-69837546D01*
X78813796Y-69722331D01*
X78841429Y-69648243D01*
X78843601Y-69642420D01*
X78885471Y-69586486D01*
X78950936Y-69562068D01*
X79019209Y-69576919D01*
X79047464Y-69598071D01*
X79097636Y-69648243D01*
X79097641Y-69648247D01*
X79234456Y-69747648D01*
X79275978Y-69777815D01*
X79404375Y-69843237D01*
X79472393Y-69877895D01*
X79472396Y-69877896D01*
X79577221Y-69911955D01*
X79682049Y-69946015D01*
X79899778Y-69980500D01*
X79899779Y-69980500D01*
X80120221Y-69980500D01*
X80120222Y-69980500D01*
X80337951Y-69946015D01*
X80547606Y-69877895D01*
X80744022Y-69777815D01*
X80922365Y-69648242D01*
X81078242Y-69492365D01*
X81207815Y-69314022D01*
X81307895Y-69117606D01*
X81376015Y-68907951D01*
X81410500Y-68690222D01*
X81410500Y-68469778D01*
X81376015Y-68252049D01*
X81332574Y-68118349D01*
X81307896Y-68042396D01*
X81307895Y-68042393D01*
X81251514Y-67931742D01*
X81207815Y-67845978D01*
X81170210Y-67794219D01*
X81078247Y-67667641D01*
X81078243Y-67667636D01*
X80922363Y-67511756D01*
X80922358Y-67511752D01*
X80744025Y-67382187D01*
X80744024Y-67382186D01*
X80744022Y-67382185D01*
X80681096Y-67350122D01*
X80547606Y-67282104D01*
X80547603Y-67282103D01*
X80337952Y-67213985D01*
X80218407Y-67195051D01*
X80120222Y-67179500D01*
X79899778Y-67179500D01*
X79827201Y-67190995D01*
X79682047Y-67213985D01*
X79472396Y-67282103D01*
X79472393Y-67282104D01*
X79275974Y-67382187D01*
X79097641Y-67511752D01*
X79097636Y-67511756D01*
X79047463Y-67561929D01*
X78986140Y-67595413D01*
X78916448Y-67590428D01*
X78860515Y-67548557D01*
X78843601Y-67517580D01*
X78813797Y-67437671D01*
X78813793Y-67437664D01*
X78727547Y-67322455D01*
X78727544Y-67322452D01*
X78612335Y-67236206D01*
X78612328Y-67236202D01*
X78477482Y-67185908D01*
X78477483Y-67185908D01*
X78417883Y-67179501D01*
X78417881Y-67179500D01*
X78417873Y-67179500D01*
X78417864Y-67179500D01*
X76522129Y-67179500D01*
X76522123Y-67179501D01*
X76462516Y-67185908D01*
X76327671Y-67236202D01*
X76327664Y-67236206D01*
X76212455Y-67322452D01*
X76212452Y-67322455D01*
X76126206Y-67437664D01*
X76126202Y-67437671D01*
X76075908Y-67572517D01*
X76069501Y-67632116D01*
X76069500Y-67632135D01*
X72377884Y-67632135D01*
X72388477Y-67599534D01*
X72420500Y-67397352D01*
X72420500Y-67192648D01*
X72413573Y-67148913D01*
X72388477Y-66990465D01*
X72347761Y-66865156D01*
X72325220Y-66795781D01*
X72325218Y-66795778D01*
X72325218Y-66795776D01*
X72273359Y-66693999D01*
X72232287Y-66613390D01*
X72224556Y-66602749D01*
X72111971Y-66447786D01*
X71967213Y-66303028D01*
X71801614Y-66182715D01*
X71795006Y-66179348D01*
X71708917Y-66135483D01*
X71658123Y-66087511D01*
X71641328Y-66019690D01*
X71663865Y-65953555D01*
X71708917Y-65914516D01*
X71801610Y-65867287D01*
X71923530Y-65778708D01*
X71967213Y-65746971D01*
X71967215Y-65746968D01*
X71967219Y-65746966D01*
X72111966Y-65602219D01*
X72111968Y-65602215D01*
X72111971Y-65602213D01*
X72170547Y-65521588D01*
X72232287Y-65436610D01*
X72325220Y-65254219D01*
X72388477Y-65059534D01*
X72420500Y-64857352D01*
X72420500Y-64652648D01*
X72412919Y-64604786D01*
X72388477Y-64450465D01*
X72336675Y-64291036D01*
X72325220Y-64255781D01*
X72325218Y-64255778D01*
X72325218Y-64255776D01*
X72273359Y-64153999D01*
X72232287Y-64073390D01*
X72224556Y-64062749D01*
X72111971Y-63907786D01*
X71967213Y-63763028D01*
X71801614Y-63642715D01*
X71795006Y-63639348D01*
X71708917Y-63595483D01*
X71658123Y-63547511D01*
X71641328Y-63479690D01*
X71663865Y-63413555D01*
X71708917Y-63374516D01*
X71801610Y-63327287D01*
X71909836Y-63248657D01*
X71967213Y-63206971D01*
X71967215Y-63206968D01*
X71967219Y-63206966D01*
X72111966Y-63062219D01*
X72111968Y-63062215D01*
X72111971Y-63062213D01*
X72200455Y-62940423D01*
X72232287Y-62896610D01*
X72325220Y-62714219D01*
X72388477Y-62519534D01*
X72420500Y-62317352D01*
X72420500Y-62112648D01*
X72412919Y-62064786D01*
X72388477Y-61910465D01*
X72336675Y-61751036D01*
X72325220Y-61715781D01*
X72325218Y-61715778D01*
X72325218Y-61715776D01*
X72281508Y-61629992D01*
X72232287Y-61533390D01*
X72206289Y-61497606D01*
X72111971Y-61367786D01*
X71967213Y-61223028D01*
X71801614Y-61102715D01*
X71795006Y-61099348D01*
X71708917Y-61055483D01*
X71658123Y-61007511D01*
X71641328Y-60939690D01*
X71663865Y-60873555D01*
X71708917Y-60834516D01*
X71801610Y-60787287D01*
X71852219Y-60750518D01*
X71967213Y-60666971D01*
X71967215Y-60666968D01*
X71967219Y-60666966D01*
X72111966Y-60522219D01*
X72111968Y-60522215D01*
X72111971Y-60522213D01*
X72184492Y-60422395D01*
X72232287Y-60356610D01*
X72325220Y-60174219D01*
X72377884Y-60012135D01*
X76069500Y-60012135D01*
X76069500Y-61907870D01*
X76069501Y-61907876D01*
X76075908Y-61967483D01*
X76126202Y-62102328D01*
X76126206Y-62102335D01*
X76212452Y-62217544D01*
X76212455Y-62217547D01*
X76327664Y-62303793D01*
X76327671Y-62303797D01*
X76462517Y-62354091D01*
X76462516Y-62354091D01*
X76469444Y-62354835D01*
X76522127Y-62360500D01*
X78417872Y-62360499D01*
X78477483Y-62354091D01*
X78612331Y-62303796D01*
X78727546Y-62217546D01*
X78813796Y-62102331D01*
X78825767Y-62070235D01*
X78843601Y-62022420D01*
X78885471Y-61966486D01*
X78950936Y-61942068D01*
X79019209Y-61956919D01*
X79047464Y-61978071D01*
X79097636Y-62028243D01*
X79097641Y-62028247D01*
X79234456Y-62127648D01*
X79275978Y-62157815D01*
X79404375Y-62223237D01*
X79472393Y-62257895D01*
X79472396Y-62257896D01*
X79577221Y-62291955D01*
X79682049Y-62326015D01*
X79899778Y-62360500D01*
X79899779Y-62360500D01*
X80120221Y-62360500D01*
X80120222Y-62360500D01*
X80337951Y-62326015D01*
X80547606Y-62257895D01*
X80744022Y-62157815D01*
X80922365Y-62028242D01*
X81078242Y-61872365D01*
X81207815Y-61694022D01*
X81307895Y-61497606D01*
X81376015Y-61287951D01*
X81410500Y-61070222D01*
X81410500Y-60849778D01*
X81376015Y-60632049D01*
X81307895Y-60422394D01*
X81307895Y-60422393D01*
X81256484Y-60321495D01*
X81207815Y-60225978D01*
X81149501Y-60145715D01*
X81078247Y-60047641D01*
X81078243Y-60047636D01*
X80922363Y-59891756D01*
X80922358Y-59891752D01*
X80744025Y-59762187D01*
X80744024Y-59762186D01*
X80744022Y-59762185D01*
X80681096Y-59730122D01*
X80547606Y-59662104D01*
X80547603Y-59662103D01*
X80337952Y-59593985D01*
X80218407Y-59575051D01*
X80120222Y-59559500D01*
X79899778Y-59559500D01*
X79827201Y-59570995D01*
X79682047Y-59593985D01*
X79472396Y-59662103D01*
X79472393Y-59662104D01*
X79275974Y-59762187D01*
X79097641Y-59891752D01*
X79097636Y-59891756D01*
X79047463Y-59941929D01*
X78986140Y-59975413D01*
X78916448Y-59970428D01*
X78860515Y-59928557D01*
X78843601Y-59897580D01*
X78813797Y-59817671D01*
X78813793Y-59817664D01*
X78727547Y-59702455D01*
X78727544Y-59702452D01*
X78612335Y-59616206D01*
X78612328Y-59616202D01*
X78477482Y-59565908D01*
X78477483Y-59565908D01*
X78417883Y-59559501D01*
X78417881Y-59559500D01*
X78417873Y-59559500D01*
X78417864Y-59559500D01*
X76522129Y-59559500D01*
X76522123Y-59559501D01*
X76462516Y-59565908D01*
X76327671Y-59616202D01*
X76327664Y-59616206D01*
X76212455Y-59702452D01*
X76212452Y-59702455D01*
X76126206Y-59817664D01*
X76126202Y-59817671D01*
X76075908Y-59952517D01*
X76069501Y-60012116D01*
X76069500Y-60012135D01*
X72377884Y-60012135D01*
X72388477Y-59979534D01*
X72420500Y-59777352D01*
X72420500Y-59572648D01*
X72413782Y-59530235D01*
X72388477Y-59370465D01*
X72325218Y-59175776D01*
X72273359Y-59073999D01*
X72232287Y-58993390D01*
X72192345Y-58938414D01*
X72111971Y-58827786D01*
X71967213Y-58683028D01*
X71801614Y-58562715D01*
X71795006Y-58559348D01*
X71708917Y-58515483D01*
X71658123Y-58467511D01*
X71641328Y-58399690D01*
X71663865Y-58333555D01*
X71708917Y-58294516D01*
X71801610Y-58247287D01*
X71826128Y-58229474D01*
X71967213Y-58126971D01*
X71967215Y-58126968D01*
X71967219Y-58126966D01*
X72111966Y-57982219D01*
X72111968Y-57982215D01*
X72111971Y-57982213D01*
X72170547Y-57901588D01*
X72232287Y-57816610D01*
X72325220Y-57634219D01*
X72388477Y-57439534D01*
X72420500Y-57237352D01*
X72420500Y-57032648D01*
X72412169Y-56980048D01*
X72388477Y-56830465D01*
X72359127Y-56740137D01*
X72325220Y-56635781D01*
X72325218Y-56635778D01*
X72325218Y-56635776D01*
X72273359Y-56533999D01*
X72232287Y-56453390D01*
X72192345Y-56398414D01*
X72111971Y-56287786D01*
X71967213Y-56143028D01*
X71801614Y-56022715D01*
X71795006Y-56019348D01*
X71708917Y-55975483D01*
X71658123Y-55927511D01*
X71641328Y-55859690D01*
X71663865Y-55793555D01*
X71708917Y-55754516D01*
X71801610Y-55707287D01*
X71822770Y-55691913D01*
X71967213Y-55586971D01*
X71967215Y-55586968D01*
X71967219Y-55586966D01*
X72111966Y-55442219D01*
X72111968Y-55442215D01*
X72111971Y-55442213D01*
X72170547Y-55361588D01*
X72232287Y-55276610D01*
X72325220Y-55094219D01*
X72388477Y-54899534D01*
X72420500Y-54697352D01*
X72420500Y-54492648D01*
X72406209Y-54402420D01*
X72388477Y-54290465D01*
X72325218Y-54095776D01*
X72273359Y-53993999D01*
X72232287Y-53913390D01*
X72192345Y-53858414D01*
X72111971Y-53747786D01*
X71967213Y-53603028D01*
X71801614Y-53482715D01*
X71795006Y-53479348D01*
X71708917Y-53435483D01*
X71658123Y-53387511D01*
X71641328Y-53319690D01*
X71663865Y-53253555D01*
X71708917Y-53214516D01*
X71801610Y-53167287D01*
X71822770Y-53151913D01*
X71967213Y-53046971D01*
X71967215Y-53046968D01*
X71967219Y-53046966D01*
X72111966Y-52902219D01*
X72111968Y-52902215D01*
X72111971Y-52902213D01*
X72170547Y-52821588D01*
X72232287Y-52736610D01*
X72325220Y-52554219D01*
X72388477Y-52359534D01*
X72420500Y-52157352D01*
X72420500Y-51952648D01*
X72413782Y-51910235D01*
X72388477Y-51750465D01*
X72325218Y-51555776D01*
X72273359Y-51453999D01*
X72232287Y-51373390D01*
X72111966Y-51207781D01*
X72109155Y-51204489D01*
X72080582Y-51140729D01*
X72091016Y-51071643D01*
X72115758Y-51036276D01*
X76114767Y-47037266D01*
X76176088Y-47003783D01*
X76245780Y-47008767D01*
X76276753Y-47025680D01*
X76326857Y-47063188D01*
X76327668Y-47063795D01*
X76327671Y-47063797D01*
X76462517Y-47114091D01*
X76462516Y-47114091D01*
X76469444Y-47114835D01*
X76522127Y-47120500D01*
X78417872Y-47120499D01*
X78477483Y-47114091D01*
X78612331Y-47063796D01*
X78727546Y-46977546D01*
X78813796Y-46862331D01*
X78825767Y-46830235D01*
X78843601Y-46782420D01*
X78885471Y-46726486D01*
X78950936Y-46702068D01*
X79019209Y-46716919D01*
X79047464Y-46738071D01*
X79097636Y-46788243D01*
X79097641Y-46788247D01*
X79234456Y-46887648D01*
X79275978Y-46917815D01*
X79404375Y-46983237D01*
X79472393Y-47017895D01*
X79472396Y-47017896D01*
X79534647Y-47038122D01*
X79682049Y-47086015D01*
X79899778Y-47120500D01*
X79899779Y-47120500D01*
X80120221Y-47120500D01*
X80120222Y-47120500D01*
X80337951Y-47086015D01*
X80408205Y-47063187D01*
X80478044Y-47061192D01*
X80534203Y-47093438D01*
X83932681Y-50491916D01*
X83966166Y-50553239D01*
X83969000Y-50579597D01*
X83969000Y-56150403D01*
X83949315Y-56217442D01*
X83896511Y-56263197D01*
X83827353Y-56273141D01*
X83763797Y-56244116D01*
X83757319Y-56238084D01*
X81383438Y-53864203D01*
X81349953Y-53802880D01*
X81353187Y-53738205D01*
X81376015Y-53667951D01*
X81410500Y-53450222D01*
X81410500Y-53229778D01*
X81376015Y-53012049D01*
X81332574Y-52878349D01*
X81307896Y-52802396D01*
X81307895Y-52802393D01*
X81251514Y-52691742D01*
X81207815Y-52605978D01*
X81149501Y-52525715D01*
X81078247Y-52427641D01*
X81078243Y-52427636D01*
X80922363Y-52271756D01*
X80922358Y-52271752D01*
X80744025Y-52142187D01*
X80744024Y-52142186D01*
X80744022Y-52142185D01*
X80681096Y-52110122D01*
X80547606Y-52042104D01*
X80547603Y-52042103D01*
X80337952Y-51973985D01*
X80218407Y-51955051D01*
X80120222Y-51939500D01*
X79899778Y-51939500D01*
X79827201Y-51950995D01*
X79682047Y-51973985D01*
X79472396Y-52042103D01*
X79472393Y-52042104D01*
X79275974Y-52142187D01*
X79097641Y-52271752D01*
X79097636Y-52271756D01*
X79047463Y-52321929D01*
X78986140Y-52355413D01*
X78916448Y-52350428D01*
X78860515Y-52308557D01*
X78843601Y-52277580D01*
X78813797Y-52197671D01*
X78813793Y-52197664D01*
X78727547Y-52082455D01*
X78727544Y-52082452D01*
X78612335Y-51996206D01*
X78612328Y-51996202D01*
X78477482Y-51945908D01*
X78477483Y-51945908D01*
X78417883Y-51939501D01*
X78417881Y-51939500D01*
X78417873Y-51939500D01*
X78417864Y-51939500D01*
X76522129Y-51939500D01*
X76522123Y-51939501D01*
X76462516Y-51945908D01*
X76327671Y-51996202D01*
X76327664Y-51996206D01*
X76212455Y-52082452D01*
X76212452Y-52082455D01*
X76126206Y-52197664D01*
X76126202Y-52197671D01*
X76075908Y-52332517D01*
X76069501Y-52392116D01*
X76069500Y-52392135D01*
X76069500Y-54287870D01*
X76069501Y-54287876D01*
X76075908Y-54347483D01*
X76126202Y-54482328D01*
X76126206Y-54482335D01*
X76212452Y-54597544D01*
X76212455Y-54597547D01*
X76327664Y-54683793D01*
X76327671Y-54683797D01*
X76462517Y-54734091D01*
X76462516Y-54734091D01*
X76469444Y-54734835D01*
X76522127Y-54740500D01*
X78417872Y-54740499D01*
X78477483Y-54734091D01*
X78612331Y-54683796D01*
X78727546Y-54597546D01*
X78813796Y-54482331D01*
X78841429Y-54408243D01*
X78843601Y-54402420D01*
X78885471Y-54346486D01*
X78950936Y-54322068D01*
X79019209Y-54336919D01*
X79047464Y-54358071D01*
X79097636Y-54408243D01*
X79097641Y-54408247D01*
X79253192Y-54521260D01*
X79275978Y-54537815D01*
X79404375Y-54603237D01*
X79472393Y-54637895D01*
X79472396Y-54637896D01*
X79539525Y-54659707D01*
X79682049Y-54706015D01*
X79899778Y-54740500D01*
X79899779Y-54740500D01*
X80120221Y-54740500D01*
X80120222Y-54740500D01*
X80337951Y-54706015D01*
X80408205Y-54683187D01*
X80478044Y-54681192D01*
X80534203Y-54713438D01*
X82827581Y-57006816D01*
X82861066Y-57068139D01*
X82863900Y-57094497D01*
X82863900Y-78258303D01*
X82844215Y-78325342D01*
X82791411Y-78371097D01*
X82722253Y-78381041D01*
X82658697Y-78352016D01*
X82652219Y-78345984D01*
X81282469Y-76976234D01*
X81248984Y-76914911D01*
X81253968Y-76845219D01*
X81259660Y-76832270D01*
X81307895Y-76737606D01*
X81376015Y-76527951D01*
X81410500Y-76310222D01*
X81410500Y-76089778D01*
X81376015Y-75872049D01*
X81332574Y-75738349D01*
X81307896Y-75662396D01*
X81307895Y-75662393D01*
X81251514Y-75551742D01*
X81207815Y-75465978D01*
X81181108Y-75429219D01*
X81078247Y-75287641D01*
X81078243Y-75287636D01*
X80922363Y-75131756D01*
X80922358Y-75131752D01*
X80744025Y-75002187D01*
X80744024Y-75002186D01*
X80744022Y-75002185D01*
X80671269Y-74965115D01*
X80547606Y-74902104D01*
X80547603Y-74902103D01*
X80337952Y-74833985D01*
X80218407Y-74815051D01*
X80120222Y-74799500D01*
X79899778Y-74799500D01*
X79827201Y-74810995D01*
X79682047Y-74833985D01*
X79472396Y-74902103D01*
X79472393Y-74902104D01*
X79275974Y-75002187D01*
X79097641Y-75131752D01*
X79097636Y-75131756D01*
X79047463Y-75181929D01*
X78986140Y-75215413D01*
X78916448Y-75210428D01*
X78860515Y-75168557D01*
X78843601Y-75137580D01*
X78813797Y-75057671D01*
X78813793Y-75057664D01*
X78727547Y-74942455D01*
X78727544Y-74942452D01*
X78612335Y-74856206D01*
X78612328Y-74856202D01*
X78477482Y-74805908D01*
X78477483Y-74805908D01*
X78417883Y-74799501D01*
X78417881Y-74799500D01*
X78417873Y-74799500D01*
X78417864Y-74799500D01*
X76522129Y-74799500D01*
X76522123Y-74799501D01*
X76462516Y-74805908D01*
X76327671Y-74856202D01*
X76327664Y-74856206D01*
X76212455Y-74942452D01*
X76212452Y-74942455D01*
X76126206Y-75057664D01*
X76126202Y-75057671D01*
X76075908Y-75192517D01*
X76069501Y-75252116D01*
X76069500Y-75252135D01*
X76069500Y-77147870D01*
X76069501Y-77147876D01*
X76075908Y-77207483D01*
X76126202Y-77342328D01*
X76126206Y-77342335D01*
X76212452Y-77457544D01*
X76212455Y-77457547D01*
X76327664Y-77543793D01*
X76327671Y-77543797D01*
X76462517Y-77594091D01*
X76462516Y-77594091D01*
X76466507Y-77594520D01*
X76522127Y-77600500D01*
X78417872Y-77600499D01*
X78477483Y-77594091D01*
X78612331Y-77543796D01*
X78727546Y-77457546D01*
X78813796Y-77342331D01*
X78825767Y-77310235D01*
X78843601Y-77262420D01*
X78885471Y-77206486D01*
X78950936Y-77182068D01*
X79019209Y-77196919D01*
X79047464Y-77218071D01*
X79097636Y-77268243D01*
X79097641Y-77268247D01*
X79234456Y-77367648D01*
X79275978Y-77397815D01*
X79404375Y-77463237D01*
X79472393Y-77497895D01*
X79472396Y-77497896D01*
X79577221Y-77531955D01*
X79682049Y-77566015D01*
X79899778Y-77600500D01*
X79899779Y-77600500D01*
X80120216Y-77600500D01*
X80120222Y-77600500D01*
X80133822Y-77598345D01*
X80203112Y-77607297D01*
X80240902Y-77633137D01*
X86623639Y-84015874D01*
X86623649Y-84015885D01*
X86627979Y-84020215D01*
X86627980Y-84020216D01*
X86739784Y-84132020D01*
X86767380Y-84147952D01*
X86826595Y-84182139D01*
X86826597Y-84182141D01*
X86864651Y-84204111D01*
X86876715Y-84211077D01*
X87029443Y-84252001D01*
X87029446Y-84252001D01*
X87094192Y-84252001D01*
X87161231Y-84271686D01*
X87181873Y-84288320D01*
X87583554Y-84690000D01*
X87577339Y-84690000D01*
X87475606Y-84717259D01*
X87384394Y-84769920D01*
X87309920Y-84844394D01*
X87257259Y-84935606D01*
X87230000Y-85037339D01*
X87230000Y-85043553D01*
X86550524Y-84364077D01*
X86550523Y-84364077D01*
X86518143Y-84408644D01*
X86425244Y-84590968D01*
X86362009Y-84785582D01*
X86330000Y-84987682D01*
X86330000Y-85192317D01*
X86362009Y-85394417D01*
X86425244Y-85589031D01*
X86518141Y-85771350D01*
X86518147Y-85771359D01*
X86550523Y-85815921D01*
X86550524Y-85815922D01*
X87230000Y-85136446D01*
X87230000Y-85142661D01*
X87257259Y-85244394D01*
X87309920Y-85335606D01*
X87384394Y-85410080D01*
X87475606Y-85462741D01*
X87577339Y-85490000D01*
X87583553Y-85490000D01*
X86904076Y-86169474D01*
X86948650Y-86201859D01*
X87130968Y-86294755D01*
X87325582Y-86357990D01*
X87527683Y-86390000D01*
X87732317Y-86390000D01*
X87934417Y-86357990D01*
X88129031Y-86294755D01*
X88311349Y-86201859D01*
X88355921Y-86169474D01*
X87676447Y-85490000D01*
X87682661Y-85490000D01*
X87784394Y-85462741D01*
X87875606Y-85410080D01*
X87950080Y-85335606D01*
X88002741Y-85244394D01*
X88030000Y-85142661D01*
X88030000Y-85136448D01*
X88709474Y-85815922D01*
X88709474Y-85815921D01*
X88741859Y-85771349D01*
X88834755Y-85589031D01*
X88897990Y-85394417D01*
X88930000Y-85192317D01*
X88930000Y-84987682D01*
X88897990Y-84785582D01*
X88834755Y-84590968D01*
X88741859Y-84408650D01*
X88709474Y-84364077D01*
X88709474Y-84364076D01*
X88030000Y-85043551D01*
X88030000Y-85037339D01*
X88002741Y-84935606D01*
X87950080Y-84844394D01*
X87875606Y-84769920D01*
X87784394Y-84717259D01*
X87682661Y-84690000D01*
X87676446Y-84690000D01*
X88078127Y-84288320D01*
X88139450Y-84254835D01*
X88165808Y-84252001D01*
X88206254Y-84252001D01*
X88206257Y-84252001D01*
X88358985Y-84211077D01*
X88409104Y-84182139D01*
X88495916Y-84132020D01*
X88607720Y-84020216D01*
X88607720Y-84020214D01*
X88617928Y-84010007D01*
X88617930Y-84010004D01*
X90009206Y-82618728D01*
X90009211Y-82618724D01*
X90019414Y-82608520D01*
X90019416Y-82608520D01*
X90131220Y-82496716D01*
X90210277Y-82359784D01*
X90251200Y-82207057D01*
X90251200Y-77661559D01*
X90270885Y-77594520D01*
X90323689Y-77548765D01*
X90392847Y-77538821D01*
X90422647Y-77546996D01*
X90439403Y-77553937D01*
X90572863Y-77580484D01*
X90594053Y-77584699D01*
X90594056Y-77584700D01*
X90594058Y-77584700D01*
X90751744Y-77584700D01*
X90751745Y-77584699D01*
X90906397Y-77553937D01*
X91041693Y-77497896D01*
X91052072Y-77493597D01*
X91052072Y-77493596D01*
X91052079Y-77493594D01*
X91114992Y-77451557D01*
X91183775Y-77405598D01*
X91250453Y-77384720D01*
X91252666Y-77384700D01*
X93309131Y-77384700D01*
X93309147Y-77384701D01*
X93316743Y-77384701D01*
X93474854Y-77384701D01*
X93474857Y-77384701D01*
X93627585Y-77343777D01*
X93677704Y-77314839D01*
X93763503Y-77265304D01*
X93831402Y-77248834D01*
X93897428Y-77271687D01*
X93940618Y-77326608D01*
X93949500Y-77372693D01*
X93949500Y-77572352D01*
X93952943Y-77594091D01*
X93981522Y-77774534D01*
X94044781Y-77969223D01*
X94103418Y-78084303D01*
X94116848Y-78110661D01*
X94137715Y-78151613D01*
X94258028Y-78317213D01*
X94402786Y-78461971D01*
X94557749Y-78574556D01*
X94568390Y-78582287D01*
X94659840Y-78628883D01*
X94661080Y-78629515D01*
X94711876Y-78677490D01*
X94728671Y-78745311D01*
X94706134Y-78811446D01*
X94661080Y-78850485D01*
X94568386Y-78897715D01*
X94402786Y-79018028D01*
X94258028Y-79162786D01*
X94137715Y-79328386D01*
X94044781Y-79510776D01*
X93981522Y-79705465D01*
X93949500Y-79907648D01*
X93949500Y-80112351D01*
X93981522Y-80314534D01*
X94044781Y-80509223D01*
X94137715Y-80691613D01*
X94258028Y-80857213D01*
X94402786Y-81001971D01*
X94541140Y-81102489D01*
X94568390Y-81122287D01*
X94659840Y-81168883D01*
X94661080Y-81169515D01*
X94711876Y-81217490D01*
X94728671Y-81285311D01*
X94706134Y-81351446D01*
X94661080Y-81390485D01*
X94568386Y-81437715D01*
X94402786Y-81558028D01*
X94258028Y-81702786D01*
X94137715Y-81868386D01*
X94044781Y-82050776D01*
X93981522Y-82245465D01*
X93949500Y-82447648D01*
X93949500Y-82652351D01*
X93981522Y-82854534D01*
X94044781Y-83049223D01*
X94137715Y-83231613D01*
X94258028Y-83397213D01*
X94402786Y-83541971D01*
X94557749Y-83654556D01*
X94568390Y-83662287D01*
X94659840Y-83708883D01*
X94661080Y-83709515D01*
X94711876Y-83757490D01*
X94728671Y-83825311D01*
X94706134Y-83891446D01*
X94661080Y-83930485D01*
X94568386Y-83977715D01*
X94402786Y-84098028D01*
X94258028Y-84242786D01*
X94137715Y-84408386D01*
X94044781Y-84590776D01*
X93981522Y-84785465D01*
X93949500Y-84987648D01*
X93949500Y-85192351D01*
X93981522Y-85394534D01*
X94044781Y-85589223D01*
X94108691Y-85714653D01*
X94137585Y-85771359D01*
X94137715Y-85771613D01*
X94258028Y-85937213D01*
X94402786Y-86081971D01*
X94523226Y-86169474D01*
X94568390Y-86202287D01*
X94684607Y-86261503D01*
X94750776Y-86295218D01*
X94750778Y-86295218D01*
X94750781Y-86295220D01*
X94855137Y-86329127D01*
X94945465Y-86358477D01*
X95046557Y-86374488D01*
X95147648Y-86390500D01*
X95147649Y-86390500D01*
X95352351Y-86390500D01*
X95352352Y-86390500D01*
X95554534Y-86358477D01*
X95749219Y-86295220D01*
X95931610Y-86202287D01*
X96024590Y-86134732D01*
X96097213Y-86081971D01*
X96097215Y-86081968D01*
X96097219Y-86081966D01*
X96241966Y-85937219D01*
X96241968Y-85937215D01*
X96241971Y-85937213D01*
X96294732Y-85864590D01*
X96362287Y-85771610D01*
X96455220Y-85589219D01*
X96518477Y-85394534D01*
X96550500Y-85192352D01*
X96550500Y-84987648D01*
X96533833Y-84882420D01*
X96518477Y-84785465D01*
X96487458Y-84690000D01*
X96455220Y-84590781D01*
X96455218Y-84590778D01*
X96455218Y-84590776D01*
X96362419Y-84408650D01*
X96362287Y-84408390D01*
X96330092Y-84364077D01*
X96241971Y-84242786D01*
X96097213Y-84098028D01*
X95931614Y-83977715D01*
X95925006Y-83974348D01*
X95838917Y-83930483D01*
X95788123Y-83882511D01*
X95771328Y-83814690D01*
X95793865Y-83748555D01*
X95838917Y-83709516D01*
X95931610Y-83662287D01*
X95952770Y-83646913D01*
X96097213Y-83541971D01*
X96097215Y-83541968D01*
X96097219Y-83541966D01*
X96241966Y-83397219D01*
X96241968Y-83397215D01*
X96241971Y-83397213D01*
X96325389Y-83282396D01*
X96362287Y-83231610D01*
X96455220Y-83049219D01*
X96518477Y-82854534D01*
X96550500Y-82652352D01*
X96550500Y-82447648D01*
X96538578Y-82372377D01*
X96518477Y-82245465D01*
X96455218Y-82050776D01*
X96418113Y-81977954D01*
X96362287Y-81868390D01*
X96311304Y-81798217D01*
X96241971Y-81702786D01*
X96097213Y-81558028D01*
X95931614Y-81437715D01*
X95925006Y-81434348D01*
X95838917Y-81390483D01*
X95788123Y-81342511D01*
X95771328Y-81274690D01*
X95793865Y-81208555D01*
X95838917Y-81169516D01*
X95931610Y-81122287D01*
X96031539Y-81049685D01*
X96097213Y-81001971D01*
X96097215Y-81001968D01*
X96097219Y-81001966D01*
X96241966Y-80857219D01*
X96241968Y-80857215D01*
X96241971Y-80857213D01*
X96311304Y-80761782D01*
X96362287Y-80691610D01*
X96455220Y-80509219D01*
X96518477Y-80314534D01*
X96550500Y-80112352D01*
X96550500Y-79907648D01*
X96518477Y-79705466D01*
X96455220Y-79510781D01*
X96455218Y-79510778D01*
X96455218Y-79510776D01*
X96418674Y-79439056D01*
X96362287Y-79328390D01*
X96311447Y-79258414D01*
X96241971Y-79162786D01*
X96097213Y-79018028D01*
X95931614Y-78897715D01*
X95925006Y-78894348D01*
X95838917Y-78850483D01*
X95788123Y-78802511D01*
X95771328Y-78734690D01*
X95793865Y-78668555D01*
X95838917Y-78629516D01*
X95931610Y-78582287D01*
X95952770Y-78566913D01*
X96097213Y-78461971D01*
X96097215Y-78461968D01*
X96097219Y-78461966D01*
X96241966Y-78317219D01*
X96241968Y-78317215D01*
X96241971Y-78317213D01*
X96311445Y-78221588D01*
X96362287Y-78151610D01*
X96455220Y-77969219D01*
X96518477Y-77774534D01*
X96550500Y-77572352D01*
X96550500Y-77367648D01*
X96533833Y-77262420D01*
X96518477Y-77165465D01*
X96489127Y-77075137D01*
X96455220Y-76970781D01*
X96455218Y-76970778D01*
X96455218Y-76970776D01*
X96396592Y-76855718D01*
X96362287Y-76788390D01*
X96341353Y-76759576D01*
X96241971Y-76622786D01*
X96097213Y-76478028D01*
X95931614Y-76357715D01*
X95914425Y-76348957D01*
X95838917Y-76310483D01*
X95788123Y-76262511D01*
X95771328Y-76194690D01*
X95793865Y-76128555D01*
X95838917Y-76089516D01*
X95931610Y-76042287D01*
X95995098Y-75996161D01*
X96097213Y-75921971D01*
X96097215Y-75921968D01*
X96097219Y-75921966D01*
X96241966Y-75777219D01*
X96241968Y-75777215D01*
X96241971Y-75777213D01*
X96325389Y-75662396D01*
X96362287Y-75611610D01*
X96455220Y-75429219D01*
X96518477Y-75234534D01*
X96550500Y-75032352D01*
X96550500Y-74827648D01*
X96518477Y-74625466D01*
X96455220Y-74430781D01*
X96455218Y-74430778D01*
X96455218Y-74430776D01*
X96418674Y-74359056D01*
X96362287Y-74248390D01*
X96354556Y-74237749D01*
X96241971Y-74082786D01*
X96097213Y-73938028D01*
X95931614Y-73817715D01*
X95923728Y-73813697D01*
X95838917Y-73770483D01*
X95788123Y-73722511D01*
X95771328Y-73654690D01*
X95793865Y-73588555D01*
X95838917Y-73549516D01*
X95931610Y-73502287D01*
X95952770Y-73486913D01*
X96097213Y-73381971D01*
X96097215Y-73381968D01*
X96097219Y-73381966D01*
X96241966Y-73237219D01*
X96241968Y-73237215D01*
X96241971Y-73237213D01*
X96311445Y-73141588D01*
X96362287Y-73071610D01*
X96455220Y-72889219D01*
X96518477Y-72694534D01*
X96550500Y-72492352D01*
X96550500Y-72299097D01*
X96570185Y-72232058D01*
X96622989Y-72186303D01*
X96692147Y-72176359D01*
X96755703Y-72205384D01*
X96762181Y-72211416D01*
X99813081Y-75262316D01*
X99846566Y-75323639D01*
X99849400Y-75349997D01*
X99849400Y-76120943D01*
X99849400Y-76279057D01*
X99870477Y-76357715D01*
X99890323Y-76431783D01*
X99890326Y-76431790D01*
X99969375Y-76568709D01*
X99969379Y-76568714D01*
X99969380Y-76568716D01*
X100081184Y-76680520D01*
X100081186Y-76680521D01*
X100081190Y-76680524D01*
X100214501Y-76757490D01*
X100218116Y-76759577D01*
X100340014Y-76792239D01*
X100399673Y-76828603D01*
X100418404Y-76855718D01*
X100444951Y-76907820D01*
X100569890Y-77079786D01*
X100720213Y-77230109D01*
X100892182Y-77355050D01*
X100900946Y-77359516D01*
X100951742Y-77407491D01*
X100968536Y-77475312D01*
X100945998Y-77541447D01*
X100900946Y-77580484D01*
X100892182Y-77584949D01*
X100720213Y-77709890D01*
X100569890Y-77860213D01*
X100444951Y-78032179D01*
X100348444Y-78221585D01*
X100282753Y-78423760D01*
X100257645Y-78582287D01*
X100249500Y-78633713D01*
X100249500Y-78846287D01*
X100282754Y-79056243D01*
X100317370Y-79162781D01*
X100348444Y-79258414D01*
X100444951Y-79447820D01*
X100569890Y-79619786D01*
X100720213Y-79770109D01*
X100892179Y-79895048D01*
X100892181Y-79895049D01*
X100892184Y-79895051D01*
X100901493Y-79899794D01*
X100952290Y-79947766D01*
X100969087Y-80015587D01*
X100946552Y-80081722D01*
X100901502Y-80120762D01*
X100892443Y-80125378D01*
X100720540Y-80250272D01*
X100720535Y-80250276D01*
X100570276Y-80400535D01*
X100570272Y-80400540D01*
X100445379Y-80572442D01*
X100348904Y-80761782D01*
X100283242Y-80963870D01*
X100283242Y-80963873D01*
X100272769Y-81030000D01*
X101166988Y-81030000D01*
X101134075Y-81087007D01*
X101100000Y-81214174D01*
X101100000Y-81345826D01*
X101134075Y-81472993D01*
X101166988Y-81530000D01*
X100272769Y-81530000D01*
X100283242Y-81596126D01*
X100283242Y-81596129D01*
X100348904Y-81798217D01*
X100445379Y-81987557D01*
X100570272Y-82159459D01*
X100570276Y-82159464D01*
X100720535Y-82309723D01*
X100720540Y-82309727D01*
X100892442Y-82434620D01*
X101081782Y-82531095D01*
X101283871Y-82596757D01*
X101350000Y-82607231D01*
X101350000Y-81713012D01*
X101407007Y-81745925D01*
X101534174Y-81780000D01*
X101665826Y-81780000D01*
X101792993Y-81745925D01*
X101850000Y-81713012D01*
X101850000Y-82607230D01*
X101916126Y-82596757D01*
X101916129Y-82596757D01*
X102118217Y-82531095D01*
X102307557Y-82434620D01*
X102479459Y-82309727D01*
X102479464Y-82309723D01*
X102629723Y-82159464D01*
X102629727Y-82159459D01*
X102754620Y-81987558D01*
X102759514Y-81977954D01*
X102807488Y-81927157D01*
X102875308Y-81910361D01*
X102941444Y-81932897D01*
X102980486Y-81977954D01*
X102985379Y-81987558D01*
X103110272Y-82159459D01*
X103110276Y-82159464D01*
X103260535Y-82309723D01*
X103260540Y-82309727D01*
X103432442Y-82434620D01*
X103621782Y-82531095D01*
X103823871Y-82596757D01*
X103890000Y-82607231D01*
X103890000Y-81713012D01*
X103947007Y-81745925D01*
X104074174Y-81780000D01*
X104205826Y-81780000D01*
X104332993Y-81745925D01*
X104390000Y-81713012D01*
X104390000Y-82607230D01*
X104456126Y-82596757D01*
X104456129Y-82596757D01*
X104658217Y-82531095D01*
X104729205Y-82494925D01*
X104797874Y-82482029D01*
X104862614Y-82508305D01*
X104902872Y-82565411D01*
X104909500Y-82605410D01*
X104909500Y-86895572D01*
X104909184Y-86904418D01*
X104909184Y-86904419D01*
X104894869Y-87104557D01*
X104892351Y-87122068D01*
X104850646Y-87313787D01*
X104845662Y-87330763D01*
X104777090Y-87514609D01*
X104769740Y-87530701D01*
X104675711Y-87702904D01*
X104666146Y-87717789D01*
X104548558Y-87874867D01*
X104536972Y-87888237D01*
X104398237Y-88026972D01*
X104384867Y-88038558D01*
X104227789Y-88156146D01*
X104212904Y-88165711D01*
X104040701Y-88259740D01*
X104024609Y-88267090D01*
X103840763Y-88335662D01*
X103823787Y-88340646D01*
X103632068Y-88382351D01*
X103614557Y-88384869D01*
X103433779Y-88397799D01*
X103414417Y-88399184D01*
X103405572Y-88399500D01*
X69314428Y-88399500D01*
X69305582Y-88399184D01*
X69283622Y-88397613D01*
X69105442Y-88384869D01*
X69087931Y-88382351D01*
X68896212Y-88340646D01*
X68879236Y-88335662D01*
X68695390Y-88267090D01*
X68679298Y-88259740D01*
X68507095Y-88165711D01*
X68492210Y-88156146D01*
X68335132Y-88038558D01*
X68321762Y-88026972D01*
X68183027Y-87888237D01*
X68171441Y-87874867D01*
X68053849Y-87717784D01*
X68044288Y-87702904D01*
X67950259Y-87530701D01*
X67942909Y-87514609D01*
X67882091Y-87351551D01*
X67874334Y-87330755D01*
X67869355Y-87313797D01*
X67827647Y-87122063D01*
X67825130Y-87104556D01*
X67810816Y-86904418D01*
X67810500Y-86895572D01*
X67810500Y-27404427D01*
X67810816Y-27395581D01*
X67825130Y-27195443D01*
X67825131Y-27195434D01*
X67827646Y-27177938D01*
X67869356Y-26986199D01*
X67874333Y-26969248D01*
X67942911Y-26785385D01*
X67950259Y-26769298D01*
X68012815Y-26654734D01*
X68044291Y-26597089D01*
X68053845Y-26582221D01*
X68171448Y-26425123D01*
X68183020Y-26411769D01*
X68321769Y-26273020D01*
X68335123Y-26261448D01*
X68492221Y-26143845D01*
X68507089Y-26134291D01*
X68679298Y-26040258D01*
X68695385Y-26032911D01*
X68879248Y-25964333D01*
X68896199Y-25959356D01*
X69087938Y-25917646D01*
X69105436Y-25915130D01*
X69305582Y-25900816D01*
X69314428Y-25900500D01*
X69375892Y-25900500D01*
X103344108Y-25900500D01*
X103405572Y-25900500D01*
X103414418Y-25900816D01*
G37*
%TD.AperFunction*%
%TA.AperFunction,Conductor*%
G36*
X103674075Y-81087007D02*
G01*
X103640000Y-81214174D01*
X103640000Y-81345826D01*
X103674075Y-81472993D01*
X103706988Y-81530000D01*
X102033012Y-81530000D01*
X102065925Y-81472993D01*
X102100000Y-81345826D01*
X102100000Y-81214174D01*
X102065925Y-81087007D01*
X102033012Y-81030000D01*
X103706988Y-81030000D01*
X103674075Y-81087007D01*
G37*
%TD.AperFunction*%
%TA.AperFunction,Conductor*%
G36*
X100328883Y-43784787D02*
G01*
X100344088Y-43784136D01*
X100361726Y-43794431D01*
X100381320Y-43800185D01*
X100392216Y-43812228D01*
X100404430Y-43819358D01*
X100424765Y-43848205D01*
X100444947Y-43887814D01*
X100444948Y-43887815D01*
X100569890Y-44059786D01*
X100720213Y-44210109D01*
X100892182Y-44335050D01*
X100900946Y-44339516D01*
X100951742Y-44387491D01*
X100968536Y-44455312D01*
X100945998Y-44521447D01*
X100900946Y-44560484D01*
X100892182Y-44564949D01*
X100720213Y-44689890D01*
X100569890Y-44840213D01*
X100444951Y-45012179D01*
X100348444Y-45201585D01*
X100282753Y-45403760D01*
X100257645Y-45562287D01*
X100249500Y-45613713D01*
X100249500Y-45826287D01*
X100282754Y-46036243D01*
X100332866Y-46190472D01*
X100348444Y-46238414D01*
X100444951Y-46427820D01*
X100569890Y-46599786D01*
X100589453Y-46619349D01*
X100622938Y-46680672D01*
X100617954Y-46750364D01*
X100589453Y-46794711D01*
X90390744Y-56993419D01*
X90329421Y-57026904D01*
X90259729Y-57021920D01*
X90203796Y-56980048D01*
X90180590Y-56925136D01*
X90167989Y-56845582D01*
X90104755Y-56650968D01*
X90011859Y-56468650D01*
X89979474Y-56424077D01*
X89979474Y-56424076D01*
X89300000Y-57103553D01*
X89300000Y-57097339D01*
X89272741Y-56995606D01*
X89220080Y-56904394D01*
X89145606Y-56829920D01*
X89054394Y-56777259D01*
X88952661Y-56750000D01*
X88946446Y-56750000D01*
X89625922Y-56070524D01*
X89625921Y-56070523D01*
X89581359Y-56038147D01*
X89581350Y-56038141D01*
X89399031Y-55945244D01*
X89204417Y-55882009D01*
X89002317Y-55850000D01*
X88797683Y-55850000D01*
X88595582Y-55882009D01*
X88400968Y-55945244D01*
X88218644Y-56038143D01*
X88174077Y-56070523D01*
X88174077Y-56070524D01*
X88853554Y-56750000D01*
X88847339Y-56750000D01*
X88745606Y-56777259D01*
X88654394Y-56829920D01*
X88579920Y-56904394D01*
X88527259Y-56995606D01*
X88500000Y-57097339D01*
X88500000Y-57103553D01*
X87820524Y-56424077D01*
X87820523Y-56424077D01*
X87788143Y-56468644D01*
X87695244Y-56650968D01*
X87632009Y-56845582D01*
X87600000Y-57047682D01*
X87600000Y-57252317D01*
X87632009Y-57454417D01*
X87695244Y-57649031D01*
X87788141Y-57831350D01*
X87788147Y-57831359D01*
X87820523Y-57875921D01*
X87820524Y-57875922D01*
X88500000Y-57196446D01*
X88500000Y-57202661D01*
X88527259Y-57304394D01*
X88579920Y-57395606D01*
X88654394Y-57470080D01*
X88745606Y-57522741D01*
X88847339Y-57550000D01*
X88853553Y-57550000D01*
X88174076Y-58229474D01*
X88218650Y-58261859D01*
X88400968Y-58354755D01*
X88595582Y-58417989D01*
X88675136Y-58430590D01*
X88738271Y-58460519D01*
X88775202Y-58519831D01*
X88774204Y-58589693D01*
X88743419Y-58640744D01*
X87261286Y-60122878D01*
X87149481Y-60234682D01*
X87149479Y-60234685D01*
X87104991Y-60311742D01*
X87099360Y-60321495D01*
X87070423Y-60371615D01*
X87034093Y-60507195D01*
X87032280Y-60512200D01*
X87014630Y-60536239D01*
X86999110Y-60561703D01*
X86994177Y-60564099D01*
X86990931Y-60568521D01*
X86963083Y-60579203D01*
X86936262Y-60592232D01*
X86930816Y-60591580D01*
X86925696Y-60593545D01*
X86896500Y-60587477D01*
X86866887Y-60583937D01*
X86862657Y-60580444D01*
X86857288Y-60579329D01*
X86836006Y-60558440D01*
X86813009Y-60539452D01*
X86811339Y-60534227D01*
X86807425Y-60530386D01*
X86800814Y-60501304D01*
X86791735Y-60472899D01*
X86791700Y-60469949D01*
X86791700Y-50764239D01*
X86811385Y-50697200D01*
X86864189Y-50651445D01*
X86933347Y-50641501D01*
X86971995Y-50653754D01*
X87130968Y-50734755D01*
X87325582Y-50797990D01*
X87527683Y-50830000D01*
X87732317Y-50830000D01*
X87934417Y-50797990D01*
X88129031Y-50734755D01*
X88311349Y-50641859D01*
X88355921Y-50609474D01*
X87676447Y-49930000D01*
X87682661Y-49930000D01*
X87784394Y-49902741D01*
X87875606Y-49850080D01*
X87950080Y-49775606D01*
X88002741Y-49684394D01*
X88030000Y-49582661D01*
X88030000Y-49576447D01*
X88709474Y-50255921D01*
X88741859Y-50211349D01*
X88834755Y-50029031D01*
X88897990Y-49834417D01*
X88930000Y-49632317D01*
X88930000Y-49427682D01*
X88897990Y-49225582D01*
X88834755Y-49030968D01*
X88741859Y-48848650D01*
X88709474Y-48804077D01*
X88709474Y-48804076D01*
X88030000Y-49483551D01*
X88030000Y-49477339D01*
X88002741Y-49375606D01*
X87950080Y-49284394D01*
X87875606Y-49209920D01*
X87784394Y-49157259D01*
X87682661Y-49130000D01*
X87676446Y-49130000D01*
X88355922Y-48450524D01*
X88355921Y-48450523D01*
X88311359Y-48418147D01*
X88311350Y-48418141D01*
X88218369Y-48370765D01*
X88167573Y-48322790D01*
X88150778Y-48254969D01*
X88173315Y-48188835D01*
X88218370Y-48149795D01*
X88252922Y-48132190D01*
X88311610Y-48102287D01*
X88419661Y-48023784D01*
X88477213Y-47981971D01*
X88477215Y-47981968D01*
X88477219Y-47981966D01*
X88621966Y-47837219D01*
X88621968Y-47837215D01*
X88621971Y-47837213D01*
X88691445Y-47741588D01*
X88742287Y-47671610D01*
X88835220Y-47489219D01*
X88898477Y-47294534D01*
X88930500Y-47092352D01*
X88930500Y-46887648D01*
X88903459Y-46716919D01*
X88898477Y-46685465D01*
X88862584Y-46575000D01*
X88835220Y-46490781D01*
X88835218Y-46490778D01*
X88835218Y-46490776D01*
X88798674Y-46419056D01*
X88742287Y-46308390D01*
X88691447Y-46238414D01*
X88621971Y-46142786D01*
X88477213Y-45998028D01*
X88311610Y-45877712D01*
X88298200Y-45870879D01*
X88287138Y-45860431D01*
X88273297Y-45854110D01*
X88262255Y-45836928D01*
X88247406Y-45822903D01*
X88243165Y-45807223D01*
X88235523Y-45795332D01*
X88230500Y-45760397D01*
X88230500Y-45679601D01*
X88250185Y-45612562D01*
X88298206Y-45569116D01*
X88311610Y-45562287D01*
X88477219Y-45441966D01*
X88621966Y-45297219D01*
X88621968Y-45297215D01*
X88621971Y-45297213D01*
X88691445Y-45201588D01*
X88742287Y-45131610D01*
X88835220Y-44949219D01*
X88898477Y-44754534D01*
X88930500Y-44552352D01*
X88930500Y-44359097D01*
X88950185Y-44292058D01*
X89002989Y-44246303D01*
X89072147Y-44236359D01*
X89135703Y-44265384D01*
X89142181Y-44271416D01*
X93955922Y-49085157D01*
X93989407Y-49146480D01*
X93986173Y-49211155D01*
X93981522Y-49225468D01*
X93949500Y-49427648D01*
X93949500Y-49632351D01*
X93981522Y-49834534D01*
X94044781Y-50029223D01*
X94137715Y-50211613D01*
X94258028Y-50377213D01*
X94402786Y-50521971D01*
X94523226Y-50609474D01*
X94568390Y-50642287D01*
X94675994Y-50697114D01*
X94750776Y-50735218D01*
X94750778Y-50735218D01*
X94750781Y-50735220D01*
X94838486Y-50763717D01*
X94945465Y-50798477D01*
X95046557Y-50814488D01*
X95147648Y-50830500D01*
X95147649Y-50830500D01*
X95352351Y-50830500D01*
X95352352Y-50830500D01*
X95554534Y-50798477D01*
X95749219Y-50735220D01*
X95931610Y-50642287D01*
X96054175Y-50553239D01*
X96097213Y-50521971D01*
X96097215Y-50521968D01*
X96097219Y-50521966D01*
X96241966Y-50377219D01*
X96241968Y-50377215D01*
X96241971Y-50377213D01*
X96311445Y-50281588D01*
X96362287Y-50211610D01*
X96455220Y-50029219D01*
X96518477Y-49834534D01*
X96550500Y-49632352D01*
X96550500Y-49427648D01*
X96528715Y-49290104D01*
X96518477Y-49225465D01*
X96472888Y-49085157D01*
X96455220Y-49030781D01*
X96455218Y-49030778D01*
X96455218Y-49030776D01*
X96408089Y-48938281D01*
X96362287Y-48848390D01*
X96330092Y-48804077D01*
X96241971Y-48682786D01*
X96097213Y-48538028D01*
X95931614Y-48417715D01*
X95902171Y-48402713D01*
X95838917Y-48370483D01*
X95788123Y-48322511D01*
X95771328Y-48254690D01*
X95793865Y-48188555D01*
X95838917Y-48149516D01*
X95931610Y-48102287D01*
X96039660Y-48023785D01*
X96097213Y-47981971D01*
X96097215Y-47981968D01*
X96097219Y-47981966D01*
X96241966Y-47837219D01*
X96241968Y-47837215D01*
X96241971Y-47837213D01*
X96311445Y-47741588D01*
X96362287Y-47671610D01*
X96455220Y-47489219D01*
X96518477Y-47294534D01*
X96550500Y-47092352D01*
X96550500Y-46887648D01*
X96523459Y-46716919D01*
X96518477Y-46685465D01*
X96482584Y-46575000D01*
X96455220Y-46490781D01*
X96455218Y-46490778D01*
X96455218Y-46490776D01*
X96418674Y-46419056D01*
X96362287Y-46308390D01*
X96311447Y-46238414D01*
X96241971Y-46142786D01*
X96097213Y-45998028D01*
X95931614Y-45877715D01*
X95925006Y-45874348D01*
X95838917Y-45830483D01*
X95788123Y-45782511D01*
X95771328Y-45714690D01*
X95793865Y-45648555D01*
X95838917Y-45609516D01*
X95931610Y-45562287D01*
X95952770Y-45546913D01*
X96097213Y-45441971D01*
X96097215Y-45441968D01*
X96097219Y-45441966D01*
X96241966Y-45297219D01*
X96241968Y-45297215D01*
X96241971Y-45297213D01*
X96311445Y-45201588D01*
X96362287Y-45131610D01*
X96455220Y-44949219D01*
X96518477Y-44754534D01*
X96550500Y-44552352D01*
X96550500Y-44347648D01*
X96538426Y-44271416D01*
X96518477Y-44145465D01*
X96461801Y-43971036D01*
X96455220Y-43950781D01*
X96455218Y-43950777D01*
X96453714Y-43946148D01*
X96455035Y-43945718D01*
X96448236Y-43882486D01*
X96479509Y-43820006D01*
X96539597Y-43784352D01*
X96570266Y-43780500D01*
X100314281Y-43780500D01*
X100328883Y-43784787D01*
G37*
%TD.AperFunction*%
%TA.AperFunction,Conductor*%
G36*
X93996773Y-36180185D02*
G01*
X94042528Y-36232989D01*
X94052472Y-36302147D01*
X94045919Y-36326029D01*
X94046286Y-36326148D01*
X94044781Y-36330777D01*
X94044780Y-36330781D01*
X94038914Y-36348835D01*
X93981522Y-36525465D01*
X93949500Y-36727648D01*
X93949500Y-36932351D01*
X93981522Y-37134534D01*
X94044781Y-37329223D01*
X94137715Y-37511613D01*
X94258028Y-37677213D01*
X94402786Y-37821971D01*
X94568385Y-37942284D01*
X94568387Y-37942285D01*
X94568390Y-37942287D01*
X94661630Y-37989795D01*
X94712426Y-38037770D01*
X94729221Y-38105591D01*
X94706684Y-38171725D01*
X94661630Y-38210765D01*
X94568644Y-38258143D01*
X94524077Y-38290523D01*
X94524077Y-38290524D01*
X95203554Y-38970000D01*
X95197339Y-38970000D01*
X95095606Y-38997259D01*
X95004394Y-39049920D01*
X94929920Y-39124394D01*
X94877259Y-39215606D01*
X94850000Y-39317339D01*
X94850000Y-39323553D01*
X94170524Y-38644077D01*
X94170523Y-38644077D01*
X94138143Y-38688644D01*
X94045244Y-38870968D01*
X93982009Y-39065582D01*
X93950000Y-39267682D01*
X93950000Y-39472317D01*
X93982009Y-39674417D01*
X94045244Y-39869031D01*
X94138141Y-40051350D01*
X94138147Y-40051359D01*
X94170523Y-40095921D01*
X94170524Y-40095922D01*
X94850000Y-39416446D01*
X94850000Y-39422661D01*
X94877259Y-39524394D01*
X94929920Y-39615606D01*
X95004394Y-39690080D01*
X95095606Y-39742741D01*
X95197339Y-39770000D01*
X95203553Y-39770000D01*
X94524076Y-40449474D01*
X94568650Y-40481859D01*
X94662180Y-40529515D01*
X94712976Y-40577489D01*
X94729771Y-40645310D01*
X94707234Y-40711445D01*
X94662180Y-40750485D01*
X94568644Y-40798143D01*
X94524077Y-40830523D01*
X94524077Y-40830524D01*
X95203554Y-41510000D01*
X95197339Y-41510000D01*
X95095606Y-41537259D01*
X95004394Y-41589920D01*
X94929920Y-41664394D01*
X94877259Y-41755606D01*
X94850000Y-41857339D01*
X94850000Y-41863553D01*
X94170524Y-41184077D01*
X94170523Y-41184077D01*
X94138143Y-41228644D01*
X94045244Y-41410968D01*
X93982009Y-41605582D01*
X93950000Y-41807682D01*
X93950000Y-42012317D01*
X93982009Y-42214417D01*
X94046749Y-42413660D01*
X94045487Y-42414069D01*
X94052303Y-42477530D01*
X94021022Y-42540006D01*
X93960929Y-42575652D01*
X93930276Y-42579500D01*
X92260097Y-42579500D01*
X92193058Y-42559815D01*
X92172416Y-42543181D01*
X89907590Y-40278355D01*
X89907588Y-40278352D01*
X89788717Y-40159481D01*
X89788716Y-40159480D01*
X89701904Y-40109360D01*
X89701904Y-40109359D01*
X89701900Y-40109358D01*
X89651785Y-40080423D01*
X89499057Y-40039499D01*
X89340943Y-40039499D01*
X89333347Y-40039499D01*
X89333331Y-40039500D01*
X88950266Y-40039500D01*
X88883227Y-40019815D01*
X88837472Y-39967011D01*
X88827528Y-39897853D01*
X88834080Y-39873970D01*
X88833714Y-39873852D01*
X88835218Y-39869222D01*
X88835220Y-39869219D01*
X88898477Y-39674534D01*
X88930500Y-39472352D01*
X88930500Y-39267648D01*
X88898477Y-39065466D01*
X88893825Y-39051151D01*
X88891832Y-38981312D01*
X88924075Y-38925158D01*
X91652417Y-36196819D01*
X91713740Y-36163334D01*
X91740098Y-36160500D01*
X93929734Y-36160500D01*
X93996773Y-36180185D01*
G37*
%TD.AperFunction*%
%TA.AperFunction,Conductor*%
G36*
X100381320Y-36180185D02*
G01*
X100424765Y-36228205D01*
X100444947Y-36267814D01*
X100444948Y-36267815D01*
X100569890Y-36439786D01*
X100720213Y-36590109D01*
X100892182Y-36715050D01*
X100900946Y-36719516D01*
X100951742Y-36767491D01*
X100968536Y-36835312D01*
X100945998Y-36901447D01*
X100900946Y-36940484D01*
X100892182Y-36944949D01*
X100720213Y-37069890D01*
X100569890Y-37220213D01*
X100444951Y-37392179D01*
X100348444Y-37581585D01*
X100282753Y-37783760D01*
X100249500Y-37993713D01*
X100249500Y-38206286D01*
X100282753Y-38416239D01*
X100348444Y-38618414D01*
X100444951Y-38807820D01*
X100569890Y-38979786D01*
X100720213Y-39130109D01*
X100892182Y-39255050D01*
X100900946Y-39259516D01*
X100951742Y-39307491D01*
X100968536Y-39375312D01*
X100945998Y-39441447D01*
X100900946Y-39480484D01*
X100892182Y-39484949D01*
X100720213Y-39609890D01*
X100569890Y-39760213D01*
X100444951Y-39932179D01*
X100348444Y-40121585D01*
X100282753Y-40323760D01*
X100250165Y-40529515D01*
X100249500Y-40533713D01*
X100249500Y-40746287D01*
X100250165Y-40750485D01*
X100282753Y-40956239D01*
X100348444Y-41158414D01*
X100444951Y-41347820D01*
X100569890Y-41519786D01*
X100720213Y-41670109D01*
X100892182Y-41795050D01*
X100900946Y-41799516D01*
X100951742Y-41847491D01*
X100968536Y-41915312D01*
X100945998Y-41981447D01*
X100900946Y-42020484D01*
X100892182Y-42024949D01*
X100720213Y-42149890D01*
X100569890Y-42300213D01*
X100444948Y-42472184D01*
X100444947Y-42472185D01*
X100424765Y-42511795D01*
X100376791Y-42562591D01*
X100314281Y-42579500D01*
X96569724Y-42579500D01*
X96502685Y-42559815D01*
X96456930Y-42507011D01*
X96446986Y-42437853D01*
X96453591Y-42413770D01*
X96453251Y-42413660D01*
X96517990Y-42214417D01*
X96550000Y-42012317D01*
X96550000Y-41807682D01*
X96517990Y-41605582D01*
X96454755Y-41410968D01*
X96361859Y-41228650D01*
X96329474Y-41184077D01*
X96329474Y-41184076D01*
X95650000Y-41863551D01*
X95650000Y-41857339D01*
X95622741Y-41755606D01*
X95570080Y-41664394D01*
X95495606Y-41589920D01*
X95404394Y-41537259D01*
X95302661Y-41510000D01*
X95296446Y-41510000D01*
X95975922Y-40830524D01*
X95975921Y-40830523D01*
X95931359Y-40798147D01*
X95931350Y-40798141D01*
X95837819Y-40750485D01*
X95787023Y-40702511D01*
X95770228Y-40634690D01*
X95792765Y-40568555D01*
X95837820Y-40529515D01*
X95931346Y-40481861D01*
X95931347Y-40481861D01*
X95975921Y-40449474D01*
X95296447Y-39770000D01*
X95302661Y-39770000D01*
X95404394Y-39742741D01*
X95495606Y-39690080D01*
X95570080Y-39615606D01*
X95622741Y-39524394D01*
X95650000Y-39422661D01*
X95650000Y-39416447D01*
X96329474Y-40095921D01*
X96361859Y-40051349D01*
X96454755Y-39869031D01*
X96517990Y-39674417D01*
X96550000Y-39472317D01*
X96550000Y-39267682D01*
X96517990Y-39065582D01*
X96454755Y-38870968D01*
X96361859Y-38688650D01*
X96329474Y-38644077D01*
X96329474Y-38644076D01*
X95650000Y-39323551D01*
X95650000Y-39317339D01*
X95622741Y-39215606D01*
X95570080Y-39124394D01*
X95495606Y-39049920D01*
X95404394Y-38997259D01*
X95302661Y-38970000D01*
X95296446Y-38970000D01*
X95975922Y-38290524D01*
X95975921Y-38290523D01*
X95931359Y-38258147D01*
X95931350Y-38258141D01*
X95838369Y-38210765D01*
X95787573Y-38162790D01*
X95770778Y-38094969D01*
X95793315Y-38028835D01*
X95838370Y-37989795D01*
X95931610Y-37942287D01*
X95981144Y-37906298D01*
X96097213Y-37821971D01*
X96097215Y-37821968D01*
X96097219Y-37821966D01*
X96241966Y-37677219D01*
X96241968Y-37677215D01*
X96241971Y-37677213D01*
X96311445Y-37581588D01*
X96362287Y-37511610D01*
X96455220Y-37329219D01*
X96518477Y-37134534D01*
X96550500Y-36932352D01*
X96550500Y-36727648D01*
X96518477Y-36525466D01*
X96455220Y-36330781D01*
X96455218Y-36330777D01*
X96453714Y-36326148D01*
X96455035Y-36325718D01*
X96448236Y-36262486D01*
X96479509Y-36200006D01*
X96539597Y-36164352D01*
X96570266Y-36160500D01*
X100314281Y-36160500D01*
X100381320Y-36180185D01*
G37*
%TD.AperFunction*%
%TD*%
M02*
