M48
; DRILL file {KiCad 9.0.1} date 2025-05-09T19:11:12+0200
; FORMAT={-:-/ absolute / metric / decimal}
; #@! TF.CreationDate,2025-05-09T19:11:12+02:00
; #@! TF.GenerationSoftware,Kicad,Pcbnew,9.0.1
; #@! TF.FileFunction,Plated,1,4,PTH
FMAT,2
METRIC
; #@! TA.AperFunction,Plated,PTH,ViaDrill
T1C0.300
; #@! TA.AperFunction,Plated,PTH,ComponentDrill
T2C0.750
; #@! TA.AperFunction,Plated,PTH,ComponentDrill
T3C0.800
; #@! TA.AperFunction,Plated,PTH,ComponentDrill
T4C0.900
; #@! TA.AperFunction,Plated,PTH,ComponentDrill
T5C0.920
; #@! TA.AperFunction,Plated,PTH,ComponentDrill
T6C1.000
; #@! TA.AperFunction,Plated,PTH,ComponentDrill
T7C1.100
; #@! TA.AperFunction,Plated,PTH,ComponentDrill
T8C1.500
; #@! TA.AperFunction,Plated,PTH,ComponentDrill
T9C2.330
; #@! TA.AperFunction,Plated,PTH,ComponentDrill
T10C3.200
%
G90
G05
T1
X128.128Y-91.439
X129.032Y-118.872
X137.14Y-79.083
X139.127Y-82.061
X141.797Y-75.504
X141.972Y-54.79
X144.597Y-105.066
X144.868Y-101.736
X144.871Y-100.936
X145.013Y-71.614
X145.326Y-104.663
X145.393Y-120.459
X145.558Y-102.178
X145.922Y-117.404
X146.219Y-103.336
X149.089Y-114.383
X149.447Y-103.669
X149.562Y-112.155
X149.841Y-115.954
X150.383Y-121.697
X150.55Y-105.286
X150.55Y-107.62
X151.778Y-96.76
X152.635Y-113.3
X153.48Y-115.893
X153.767Y-112.555
X153.835Y-113.491
X153.902Y-123.969
X154.106Y-72.569
X154.12Y-71.733
X154.235Y-102.986
X155.052Y-66.967
X155.077Y-71.843
X166.716Y-85.199
X169.034Y-91.131
X169.524Y-59.122
X170.591Y-74.435
X172.39Y-118.908
X174.312Y-67.375
X178.152Y-133.271
X180.632Y-139.744
X181.457Y-118.719
X181.969Y-119.55
X182.611Y-71.718
X183.334Y-70.995
X184.805Y-120.929
X187.162Y-67.963
X187.18Y-108.831
X187.776Y-112.338
X188.775Y-117.76
X189.829Y-89.275
X189.895Y-56.27
X193.212Y-88.085
X193.215Y-115.331
X193.813Y-109.479
X193.952Y-115.954
X195.16Y-113.942
X195.753Y-83.146
X196.361Y-122.568
X197.931Y-133.63
X199.181Y-133.436
X199.654Y-96.223
X199.835Y-126.996
X200.42Y-129.091
X200.816Y-130.692
X202.039Y-130.675
X204.95Y-96.004
X206.869Y-94.233
X214.305Y-126.328
X216.836Y-100.258
X222.743Y-108.174
T2
X161.29Y-152.4
X162.56Y-151.13
X163.83Y-152.4
T3
X143.51Y-83.82
X143.51Y-91.44
X144.78Y-140.716
X144.78Y-148.336
X147.32Y-83.82
X147.32Y-86.36
X147.32Y-88.9
X147.32Y-91.44
X147.32Y-93.98
X147.32Y-96.52
X147.32Y-99.06
X147.32Y-101.6
X147.32Y-104.14
X147.32Y-106.68
X147.32Y-109.22
X147.32Y-111.76
X147.32Y-114.3
X147.32Y-116.84
X147.32Y-119.38
X147.32Y-121.92
X147.32Y-124.46
X147.32Y-127.0
X147.32Y-129.54
X147.32Y-132.08
X150.368Y-27.432
X150.368Y-35.052
X150.368Y-42.164
X150.368Y-44.704
X150.368Y-47.244
X150.368Y-49.784
X150.368Y-52.324
X150.368Y-54.864
X150.368Y-57.404
X153.924Y-27.432
X153.924Y-35.052
X157.48Y-27.432
X157.48Y-35.052
X157.988Y-42.164
X157.988Y-44.704
X157.988Y-47.244
X157.988Y-49.784
X157.988Y-52.324
X157.988Y-54.864
X157.988Y-57.404
X161.544Y-42.164
X161.544Y-47.164
X162.56Y-83.82
X162.56Y-86.36
X162.56Y-88.9
X162.56Y-91.44
X162.56Y-93.98
X162.56Y-96.52
X162.56Y-99.06
X162.56Y-101.6
X162.56Y-104.14
X162.56Y-106.68
X162.56Y-109.22
X162.56Y-111.76
X162.56Y-114.3
X162.56Y-116.84
X162.56Y-119.38
X162.56Y-121.92
X162.56Y-124.46
X162.56Y-127.0
X162.56Y-129.54
X162.56Y-132.08
X166.37Y-94.06
X166.37Y-99.06
X169.164Y-120.436
X169.164Y-125.436
X174.498Y-116.84
X174.498Y-119.38
X174.498Y-121.92
X174.498Y-124.46
X174.498Y-127.0
X174.498Y-129.54
X176.107Y-50.8
X176.107Y-53.34
X176.107Y-55.88
X176.107Y-58.42
X176.107Y-60.96
X176.107Y-63.5
X176.107Y-66.04
X176.107Y-68.58
X176.107Y-71.12
X176.107Y-73.66
X176.107Y-76.2
X176.107Y-78.74
X176.107Y-81.28
X176.107Y-83.82
X176.107Y-86.36
X176.107Y-88.9
X176.107Y-91.44
X176.107Y-93.98
X176.107Y-96.52
X176.107Y-99.06
X177.038Y-114.3
X177.038Y-116.84
X177.038Y-119.38
X177.038Y-121.92
X177.038Y-124.46
X177.038Y-127.0
X177.038Y-129.54
X177.038Y-132.08
X179.578Y-114.3
X179.578Y-116.84
X179.578Y-129.54
X179.578Y-132.08
X180.42Y-109.22
X180.42Y-137.668
X181.436Y-45.72
X182.118Y-114.3
X182.118Y-116.84
X182.118Y-129.54
X182.118Y-132.08
X184.658Y-114.3
X184.658Y-116.84
X184.658Y-129.54
X184.658Y-132.08
X185.42Y-109.22
X185.42Y-137.668
X186.436Y-45.72
X187.198Y-114.3
X187.198Y-116.84
X187.198Y-129.54
X187.198Y-132.08
X189.738Y-114.3
X189.738Y-116.84
X189.738Y-119.38
X189.738Y-121.92
X189.738Y-124.46
X189.738Y-127.0
X189.738Y-129.54
X189.738Y-132.08
X191.347Y-50.8
X191.347Y-53.34
X191.347Y-55.88
X191.347Y-58.42
X191.347Y-60.96
X191.347Y-63.5
X191.347Y-66.04
X191.347Y-68.58
X191.347Y-71.12
X191.347Y-73.66
X191.347Y-76.2
X191.347Y-78.74
X191.347Y-81.28
X191.347Y-83.82
X191.347Y-86.36
X191.347Y-88.9
X191.347Y-91.44
X191.347Y-93.98
X191.347Y-96.52
X191.347Y-99.06
X192.278Y-116.84
X192.278Y-119.38
X192.278Y-121.92
X192.278Y-124.46
X192.278Y-127.0
X192.278Y-129.54
X197.612Y-120.436
X197.612Y-125.436
X199.39Y-147.32
X199.39Y-154.94
X203.24Y-47.12
X203.24Y-54.74
X203.24Y-62.36
X203.24Y-69.98
X204.893Y-104.14
X204.893Y-106.68
X204.893Y-109.22
X204.893Y-111.76
X204.893Y-114.3
X204.893Y-116.84
X204.893Y-119.38
X204.893Y-121.92
X204.893Y-124.46
X204.893Y-127.0
X204.893Y-129.54
X204.893Y-132.08
X204.893Y-134.62
X204.893Y-137.16
X204.893Y-139.7
X204.893Y-142.24
X205.74Y-47.12
X205.74Y-54.74
X205.74Y-62.36
X205.74Y-69.98
X205.74Y-82.55
X205.74Y-90.17
X209.844Y-99.06
X210.09Y-50.8
X210.09Y-53.34
X210.09Y-55.88
X210.09Y-58.42
X210.09Y-60.96
X210.09Y-63.5
X210.09Y-66.04
X210.09Y-68.58
X210.86Y-77.47
X211.36Y-45.72
X214.844Y-99.06
X215.86Y-77.47
X216.36Y-45.72
X217.17Y-149.94
X217.17Y-154.94
X217.71Y-50.8
X217.71Y-53.34
X217.71Y-55.88
X217.71Y-58.42
X217.71Y-60.96
X217.71Y-63.5
X217.71Y-66.04
X217.71Y-68.58
X220.133Y-104.14
X220.133Y-106.68
X220.133Y-109.22
X220.133Y-111.76
X220.133Y-114.3
X220.133Y-116.84
X220.133Y-119.38
X220.133Y-121.92
X220.133Y-124.46
X220.133Y-127.0
X220.133Y-129.54
X220.133Y-132.08
X220.133Y-134.62
X220.133Y-137.16
X220.133Y-139.7
X220.133Y-142.24
X220.98Y-82.55
X220.98Y-90.17
X223.52Y-65.405
X223.52Y-73.025
X226.06Y-46.736
X228.6Y-54.436
X228.6Y-59.436
X233.68Y-46.736
X233.68Y-52.705
X233.68Y-55.245
X233.68Y-57.785
X233.68Y-60.325
X233.68Y-62.865
X233.68Y-65.405
X233.68Y-67.945
X233.68Y-70.485
X233.68Y-73.025
X233.68Y-75.565
X233.68Y-78.105
X233.68Y-80.645
X233.68Y-83.185
X233.68Y-85.725
X233.68Y-104.14
X233.68Y-106.68
X233.68Y-109.22
X233.68Y-111.76
X233.68Y-114.3
X233.68Y-116.84
X233.68Y-119.38
X233.68Y-121.92
X233.68Y-124.46
X233.68Y-127.0
X233.68Y-129.54
X233.68Y-132.08
X233.68Y-134.62
X233.68Y-137.16
X233.68Y-139.7
X233.68Y-142.24
X238.8Y-99.06
X238.84Y-91.44
X240.792Y-46.736
X243.8Y-99.06
X243.84Y-91.44
X248.412Y-46.736
X248.92Y-52.705
X248.92Y-55.245
X248.92Y-57.785
X248.92Y-60.325
X248.92Y-62.865
X248.92Y-65.405
X248.92Y-67.945
X248.92Y-70.485
X248.92Y-73.025
X248.92Y-75.565
X248.92Y-78.105
X248.92Y-80.645
X248.92Y-83.185
X248.92Y-85.725
X248.92Y-104.14
X248.92Y-106.68
X248.92Y-109.22
X248.92Y-111.76
X248.92Y-114.3
X248.92Y-116.84
X248.92Y-119.38
X248.92Y-121.92
X248.92Y-124.46
X248.92Y-127.0
X248.92Y-129.54
X248.92Y-132.08
X248.92Y-134.62
X248.92Y-137.16
X248.92Y-139.7
X248.92Y-142.24
X253.492Y-46.736
X253.532Y-57.404
X255.992Y-46.736
X256.032Y-57.404
T4
X150.876Y-140.716
X153.416Y-140.716
T5
X241.34Y-38.64
X241.34Y-40.64
X243.84Y-38.64
X243.84Y-40.64
T6
X133.35Y-39.116
X133.35Y-41.656
X133.35Y-44.196
X133.35Y-46.736
X133.35Y-49.276
X133.35Y-51.816
X133.35Y-54.356
X133.35Y-56.896
X133.35Y-59.436
X133.35Y-61.976
X133.35Y-64.516
X133.35Y-67.056
X133.35Y-69.596
X133.35Y-72.136
X133.35Y-74.676
X133.35Y-77.216
X133.35Y-79.756
X133.35Y-82.296
X133.35Y-84.836
X133.35Y-87.376
X133.35Y-97.536
X133.35Y-100.076
X133.35Y-102.616
X133.35Y-105.156
X133.35Y-107.696
X133.35Y-110.236
X133.35Y-112.776
X133.35Y-115.316
X133.35Y-117.856
X133.35Y-120.396
X133.35Y-122.936
X133.35Y-125.476
X133.35Y-128.016
X133.35Y-130.556
X133.35Y-133.096
X133.35Y-135.636
X133.35Y-138.176
X133.35Y-140.716
X133.35Y-143.256
X133.35Y-145.796
X135.89Y-39.116
X135.89Y-41.656
X135.89Y-44.196
X135.89Y-46.736
X135.89Y-49.276
X135.89Y-51.816
X135.89Y-54.356
X135.89Y-56.896
X135.89Y-59.436
X135.89Y-61.976
X135.89Y-64.516
X135.89Y-67.056
X135.89Y-69.596
X135.89Y-72.136
X135.89Y-74.676
X135.89Y-77.216
X135.89Y-79.756
X135.89Y-82.296
X135.89Y-84.836
X135.89Y-87.376
X135.89Y-97.536
X135.89Y-100.076
X135.89Y-102.616
X135.89Y-105.156
X135.89Y-107.696
X135.89Y-110.236
X135.89Y-112.776
X135.89Y-115.316
X135.89Y-117.856
X135.89Y-120.396
X135.89Y-122.936
X135.89Y-125.476
X135.89Y-128.016
X135.89Y-130.556
X135.89Y-133.096
X135.89Y-135.636
X135.89Y-138.176
X135.89Y-140.716
X135.89Y-143.256
X135.89Y-145.796
X147.32Y-63.5
X149.86Y-63.5
X152.4Y-63.5
X154.94Y-63.5
X157.48Y-63.5
X160.02Y-63.5
X178.308Y-146.05
X178.308Y-148.59
X180.848Y-146.05
X180.848Y-148.59
X183.388Y-146.05
X183.388Y-148.59
X185.928Y-146.05
X185.928Y-148.59
X187.5Y-33.32
X188.468Y-146.05
X188.468Y-148.59
X188.885Y-30.48
X190.27Y-33.32
X191.655Y-30.48
X193.04Y-33.32
X194.425Y-30.48
X195.81Y-33.32
X197.195Y-30.48
X198.58Y-33.32
T7
X149.15Y-149.86
X149.15Y-154.36
X155.65Y-149.86
X155.65Y-154.36
X205.59Y-149.86
X205.59Y-154.36
X212.09Y-149.86
X212.09Y-154.36
T8
X228.6Y-66.555
X228.6Y-71.455
T9
X236.57Y-35.93
X248.61Y-35.93
T10
X130.556Y-28.956
X130.556Y-153.924
X180.54Y-30.48
X205.54Y-30.48
X255.524Y-28.956
X255.524Y-153.924
T6
G00X222.647Y-29.354
M15
G01X224.647Y-29.354
M16
G05
G00X222.647Y-33.854
M15
G01X224.647Y-33.854
M16
G05
G00X222.647Y-38.354
M15
G01X224.647Y-38.354
M16
G05
M30
