%TF.GenerationSoftware,KiCad,Pcbnew,9.0.0*%
%TF.CreationDate,2025-05-03T17:50:57+02:00*%
%TF.ProjectId,mini-board,6d696e69-2d62-46f6-9172-642e6b696361,rev1*%
%TF.SameCoordinates,Original*%
%TF.FileFunction,Copper,L1,Top*%
%TF.FilePolarity,Positive*%
%FSLAX46Y46*%
G04 Gerber Fmt 4.6, Leading zero omitted, Abs format (unit mm)*
G04 Created by KiCad (PCBNEW 9.0.0) date 2025-05-03 17:50:57*
%MOMM*%
%LPD*%
G01*
G04 APERTURE LIST*
G04 Aperture macros list*
%AMRoundRect*
0 Rectangle with rounded corners*
0 $1 Rounding radius*
0 $2 $3 $4 $5 $6 $7 $8 $9 X,Y pos of 4 corners*
0 Add a 4 corners polygon primitive as box body*
4,1,4,$2,$3,$4,$5,$6,$7,$8,$9,$2,$3,0*
0 Add four circle primitives for the rounded corners*
1,1,$1+$1,$2,$3*
1,1,$1+$1,$4,$5*
1,1,$1+$1,$6,$7*
1,1,$1+$1,$8,$9*
0 Add four rect primitives between the rounded corners*
20,1,$1+$1,$2,$3,$4,$5,0*
20,1,$1+$1,$4,$5,$6,$7,0*
20,1,$1+$1,$6,$7,$8,$9,0*
20,1,$1+$1,$8,$9,$2,$3,0*%
G04 Aperture macros list end*
%TA.AperFunction,ComponentPad*%
%ADD10O,1.700000X1.700000*%
%TD*%
%TA.AperFunction,ComponentPad*%
%ADD11R,1.700000X1.700000*%
%TD*%
%TA.AperFunction,ComponentPad*%
%ADD12C,1.600000*%
%TD*%
%TA.AperFunction,ComponentPad*%
%ADD13RoundRect,0.250000X-0.550000X-0.550000X0.550000X-0.550000X0.550000X0.550000X-0.550000X0.550000X0*%
%TD*%
%TA.AperFunction,ComponentPad*%
%ADD14O,1.600000X1.600000*%
%TD*%
%TA.AperFunction,ComponentPad*%
%ADD15R,1.600000X1.600000*%
%TD*%
%TA.AperFunction,ComponentPad*%
%ADD16C,3.600000*%
%TD*%
%TA.AperFunction,ConnectorPad*%
%ADD17C,5.600000*%
%TD*%
%TA.AperFunction,ComponentPad*%
%ADD18O,4.500000X2.500000*%
%TD*%
%TA.AperFunction,WasherPad*%
%ADD19C,3.000000*%
%TD*%
%TA.AperFunction,ComponentPad*%
%ADD20R,1.800000X1.800000*%
%TD*%
%TA.AperFunction,ComponentPad*%
%ADD21C,1.800000*%
%TD*%
%TA.AperFunction,ComponentPad*%
%ADD22C,2.000000*%
%TD*%
%TA.AperFunction,ComponentPad*%
%ADD23C,4.000000*%
%TD*%
%TA.AperFunction,ComponentPad*%
%ADD24R,1.300000X1.300000*%
%TD*%
%TA.AperFunction,ComponentPad*%
%ADD25C,1.300000*%
%TD*%
%TA.AperFunction,ComponentPad*%
%ADD26RoundRect,0.250000X0.600000X-0.600000X0.600000X0.600000X-0.600000X0.600000X-0.600000X-0.600000X0*%
%TD*%
%TA.AperFunction,ComponentPad*%
%ADD27C,1.700000*%
%TD*%
%TA.AperFunction,ComponentPad*%
%ADD28R,1.422400X1.422400*%
%TD*%
%TA.AperFunction,ComponentPad*%
%ADD29C,1.422400*%
%TD*%
%TA.AperFunction,ComponentPad*%
%ADD30C,3.500000*%
%TD*%
%TA.AperFunction,ComponentPad*%
%ADD31C,2.300000*%
%TD*%
%TA.AperFunction,ViaPad*%
%ADD32C,0.600000*%
%TD*%
%TA.AperFunction,Conductor*%
%ADD33C,0.200000*%
%TD*%
%TA.AperFunction,Conductor*%
%ADD34C,0.500000*%
%TD*%
G04 APERTURE END LIST*
D10*
%TO.P,J5,40,Pin_40*%
%TO.N,GND*%
X135890000Y-87376000D03*
%TO.P,J5,39,Pin_39*%
X133350000Y-87376000D03*
%TO.P,J5,38,Pin_38*%
%TO.N,RxD1*%
X135890000Y-84836000D03*
%TO.P,J5,37,Pin_37*%
%TO.N,~{IRQ51}*%
X133350000Y-84836000D03*
%TO.P,J5,36,Pin_36*%
%TO.N,TxD1*%
X135890000Y-82296000D03*
%TO.P,J5,35,Pin_35*%
%TO.N,~{IRQ22}*%
X133350000Y-82296000D03*
%TO.P,J5,34,Pin_34*%
%TO.N,~{IRQ2}*%
X135890000Y-79756000D03*
%TO.P,J5,33,Pin_33*%
%TO.N,A15*%
X133350000Y-79756000D03*
%TO.P,J5,32,Pin_32*%
%TO.N,~{IRQ1}*%
X135890000Y-77216000D03*
%TO.P,J5,31,Pin_31*%
%TO.N,A14*%
X133350000Y-77216000D03*
%TO.P,J5,30,Pin_30*%
%TO.N,~{IRQ0}*%
X135890000Y-74676000D03*
%TO.P,J5,29,Pin_29*%
%TO.N,A13*%
X133350000Y-74676000D03*
%TO.P,J5,28,Pin_28*%
%TO.N,~{IRQ}*%
X135890000Y-72136000D03*
%TO.P,J5,27,Pin_27*%
%TO.N,A12*%
X133350000Y-72136000D03*
%TO.P,J5,26,Pin_26*%
%TO.N,R{slash}~{W}*%
X135890000Y-69596000D03*
%TO.P,J5,25,Pin_25*%
%TO.N,A11*%
X133350000Y-69596000D03*
%TO.P,J5,24,Pin_24*%
%TO.N,~{NMI}*%
X135890000Y-67056000D03*
%TO.P,J5,23,Pin_23*%
%TO.N,A10*%
X133350000Y-67056000D03*
%TO.P,J5,22,Pin_22*%
%TO.N,CLK*%
X135890000Y-64516000D03*
%TO.P,J5,21,Pin_21*%
%TO.N,A9*%
X133350000Y-64516000D03*
%TO.P,J5,20,Pin_20*%
%TO.N,~{RES}*%
X135890000Y-61976000D03*
%TO.P,J5,19,Pin_19*%
%TO.N,A8*%
X133350000Y-61976000D03*
%TO.P,J5,18,Pin_18*%
%TO.N,D7*%
X135890000Y-59436000D03*
%TO.P,J5,17,Pin_17*%
%TO.N,A7*%
X133350000Y-59436000D03*
%TO.P,J5,16,Pin_16*%
%TO.N,D6*%
X135890000Y-56896000D03*
%TO.P,J5,15,Pin_15*%
%TO.N,A6*%
X133350000Y-56896000D03*
%TO.P,J5,14,Pin_14*%
%TO.N,D5*%
X135890000Y-54356000D03*
%TO.P,J5,13,Pin_13*%
%TO.N,A5*%
X133350000Y-54356000D03*
%TO.P,J5,12,Pin_12*%
%TO.N,D4*%
X135890000Y-51816000D03*
%TO.P,J5,11,Pin_11*%
%TO.N,A4*%
X133350000Y-51816000D03*
%TO.P,J5,10,Pin_10*%
%TO.N,D3*%
X135890000Y-49276000D03*
%TO.P,J5,9,Pin_9*%
%TO.N,A3*%
X133350000Y-49276000D03*
%TO.P,J5,8,Pin_8*%
%TO.N,D2*%
X135890000Y-46736000D03*
%TO.P,J5,7,Pin_7*%
%TO.N,A2*%
X133350000Y-46736000D03*
%TO.P,J5,6,Pin_6*%
%TO.N,D1*%
X135890000Y-44196000D03*
%TO.P,J5,5,Pin_5*%
%TO.N,A1*%
X133350000Y-44196000D03*
%TO.P,J5,4,Pin_4*%
%TO.N,D0*%
X135890000Y-41656000D03*
%TO.P,J5,3,Pin_3*%
%TO.N,A0*%
X133350000Y-41656000D03*
%TO.P,J5,2,Pin_2*%
%TO.N,VCC*%
X135890000Y-39116000D03*
D11*
%TO.P,J5,1,Pin_1*%
X133350000Y-39116000D03*
%TD*%
%TO.P,J2,1,Pin_1*%
%TO.N,VCC*%
X133350000Y-97536000D03*
D10*
%TO.P,J2,2,Pin_2*%
X135890000Y-97536000D03*
%TO.P,J2,3,Pin_3*%
%TO.N,PB0*%
X133350000Y-100076000D03*
%TO.P,J2,4,Pin_4*%
%TO.N,MISO*%
X135890000Y-100076000D03*
%TO.P,J2,5,Pin_5*%
%TO.N,PB1*%
X133350000Y-102616000D03*
%TO.P,J2,6,Pin_6*%
%TO.N,MOSI*%
X135890000Y-102616000D03*
%TO.P,J2,7,Pin_7*%
%TO.N,PB2*%
X133350000Y-105156000D03*
%TO.P,J2,8,Pin_8*%
%TO.N,PA2*%
X135890000Y-105156000D03*
%TO.P,J2,9,Pin_9*%
%TO.N,PB3*%
X133350000Y-107696000D03*
%TO.P,J2,10,Pin_10*%
%TO.N,PA3*%
X135890000Y-107696000D03*
%TO.P,J2,11,Pin_11*%
%TO.N,GND*%
X133350000Y-110236000D03*
%TO.P,J2,12,Pin_12*%
X135890000Y-110236000D03*
%TO.P,J2,13,Pin_13*%
%TO.N,PB4*%
X133350000Y-112776000D03*
%TO.P,J2,14,Pin_14*%
%TO.N,PA4*%
X135890000Y-112776000D03*
%TO.P,J2,15,Pin_15*%
%TO.N,PB5*%
X133350000Y-115316000D03*
%TO.P,J2,16,Pin_16*%
%TO.N,PA5*%
X135890000Y-115316000D03*
%TO.P,J2,17,Pin_17*%
%TO.N,PB6*%
X133350000Y-117856000D03*
%TO.P,J2,18,Pin_18*%
%TO.N,PA6*%
X135890000Y-117856000D03*
%TO.P,J2,19,Pin_19*%
%TO.N,PB7*%
X133350000Y-120396000D03*
%TO.P,J2,20,Pin_20*%
%TO.N,PA7*%
X135890000Y-120396000D03*
%TO.P,J2,21,Pin_21*%
%TO.N,GND*%
X133350000Y-122936000D03*
%TO.P,J2,22,Pin_22*%
X135890000Y-122936000D03*
%TO.P,J2,23,Pin_23*%
%TO.N,CB1*%
X133350000Y-125476000D03*
%TO.P,J2,24,Pin_24*%
%TO.N,CA1*%
X135890000Y-125476000D03*
%TO.P,J2,25,Pin_25*%
%TO.N,CB2*%
X133350000Y-128016000D03*
%TO.P,J2,26,Pin_26*%
%TO.N,CA2*%
X135890000Y-128016000D03*
%TO.P,J2,27,Pin_27*%
%TO.N,R{slash}~{W}*%
X133350000Y-130556000D03*
%TO.P,J2,28,Pin_28*%
%TO.N,~{RES}*%
X135890000Y-130556000D03*
%TO.P,J2,29,Pin_29*%
%TO.N,~{NMI}*%
X133350000Y-133096000D03*
%TO.P,J2,30,Pin_30*%
%TO.N,CLK*%
X135890000Y-133096000D03*
%TO.P,J2,31,Pin_31*%
%TO.N,GND*%
X133350000Y-135636000D03*
%TO.P,J2,32,Pin_32*%
X135890000Y-135636000D03*
%TO.P,J2,33,Pin_33*%
%TO.N,~{VIA_CS}*%
X133350000Y-138176000D03*
%TO.P,J2,34,Pin_34*%
%TO.N,TxD1*%
X135890000Y-138176000D03*
%TO.P,J2,35,Pin_35*%
%TO.N,~{IRQ22}*%
X133350000Y-140716000D03*
%TO.P,J2,36,Pin_36*%
%TO.N,RxD1*%
X135890000Y-140716000D03*
%TO.P,J2,37,Pin_37*%
%TO.N,VCC*%
X133350000Y-143256000D03*
%TO.P,J2,38,Pin_38*%
X135890000Y-143256000D03*
%TO.P,J2,39,Pin_39*%
%TO.N,GND*%
X133350000Y-145796000D03*
%TO.P,J2,40,Pin_40*%
X135890000Y-145796000D03*
%TD*%
D12*
%TO.P,C4,1*%
%TO.N,VCC*%
X161544000Y-42164000D03*
%TO.P,C4,2*%
%TO.N,GND*%
X161544000Y-47164000D03*
%TD*%
D13*
%TO.P,U1,1*%
%TO.N,GND*%
X150368000Y-42164000D03*
D12*
%TO.P,U1,2*%
X150368000Y-44704000D03*
%TO.P,U1,3*%
%TO.N,~{IRQ0}*%
X150368000Y-47244000D03*
%TO.P,U1,4*%
%TO.N,~{IRQ1}*%
X150368000Y-49784000D03*
%TO.P,U1,5*%
%TO.N,~{IRQ2}*%
X150368000Y-52324000D03*
%TO.P,U1,6*%
%TO.N,Net-(U1-Pad6)*%
X150368000Y-54864000D03*
%TO.P,U1,7,GND*%
%TO.N,GND*%
X150368000Y-57404000D03*
%TO.P,U1,8*%
%TO.N,~{IRQ}*%
X157988000Y-57404000D03*
%TO.P,U1,9*%
%TO.N,Net-(U1-Pad6)*%
X157988000Y-54864000D03*
%TO.P,U1,10*%
%TO.N,~{IRQ22}*%
X157988000Y-52324000D03*
%TO.P,U1,11*%
%TO.N,~{IRQ51}*%
X157988000Y-49784000D03*
%TO.P,U1,12*%
%TO.N,unconnected-(U1-Pad12)*%
X157988000Y-47244000D03*
%TO.P,U1,13*%
%TO.N,GND*%
X157988000Y-44704000D03*
%TO.P,U1,14,VCC*%
%TO.N,VCC*%
X157988000Y-42164000D03*
%TD*%
%TO.P,R12,1*%
%TO.N,VCC*%
X157480000Y-27432000D03*
D14*
%TO.P,R12,2*%
%TO.N,~{IRQ2}*%
X157480000Y-35052000D03*
%TD*%
D12*
%TO.P,R11,1*%
%TO.N,VCC*%
X153924000Y-27432000D03*
D14*
%TO.P,R11,2*%
%TO.N,~{IRQ1}*%
X153924000Y-35052000D03*
%TD*%
D12*
%TO.P,R10,1*%
%TO.N,VCC*%
X150368000Y-27432000D03*
D14*
%TO.P,R10,2*%
%TO.N,~{IRQ0}*%
X150368000Y-35052000D03*
%TD*%
D15*
%TO.P,C7,1*%
%TO.N,VCC*%
X256032000Y-57404000D03*
D12*
%TO.P,C7,2*%
%TO.N,GND*%
X253532000Y-57404000D03*
%TD*%
D16*
%TO.P,H1,1*%
%TO.N,N/C*%
X130556000Y-28956000D03*
D17*
X130556000Y-28956000D03*
%TD*%
D18*
%TO.P,SW1,1,A*%
%TO.N,VCC*%
X223647000Y-38354000D03*
%TO.P,SW1,2,B*%
%TO.N,VIN*%
X223647000Y-33854000D03*
%TO.P,SW1,3,C*%
%TO.N,unconnected-(SW1-C-Pad3)*%
X223647000Y-29354000D03*
%TD*%
D12*
%TO.P,R7,1*%
%TO.N,~{NMI}*%
X199390000Y-154940000D03*
D14*
%TO.P,R7,2*%
%TO.N,VCC*%
X199390000Y-147320000D03*
%TD*%
D15*
%TO.P,C29,1*%
%TO.N,Net-(U22-C2+)*%
X203240000Y-62360000D03*
D12*
%TO.P,C29,2*%
%TO.N,Net-(U22-C2-)*%
X205740000Y-62360000D03*
%TD*%
%TO.P,C24,1*%
%TO.N,VCC*%
X186436000Y-45720000D03*
%TO.P,C24,2*%
%TO.N,GND*%
X181436000Y-45720000D03*
%TD*%
D19*
%TO.P,J3,*%
%TO.N,*%
X163670000Y-27500000D03*
X143670000Y-27500000D03*
X163670000Y-65500000D03*
X143670000Y-65500000D03*
D11*
%TO.P,J3,1,Pin_1*%
%TO.N,PA3*%
X160020000Y-63500000D03*
D10*
%TO.P,J3,2,Pin_2*%
%TO.N,PA2*%
X157480000Y-63500000D03*
%TO.P,J3,3,Pin_3*%
%TO.N,MOSI*%
X154940000Y-63500000D03*
%TO.P,J3,4,Pin_4*%
%TO.N,MISO*%
X152400000Y-63500000D03*
%TO.P,J3,5,Pin_5*%
%TO.N,VCC*%
X149860000Y-63500000D03*
%TO.P,J3,6,Pin_6*%
%TO.N,GND*%
X147320000Y-63500000D03*
%TD*%
D12*
%TO.P,C34,1*%
%TO.N,VCC*%
X197612000Y-120436000D03*
%TO.P,C34,2*%
%TO.N,GND*%
X197612000Y-125436000D03*
%TD*%
%TO.P,C33,1*%
%TO.N,VCC*%
X185420000Y-137668000D03*
%TO.P,C33,2*%
%TO.N,GND*%
X180420000Y-137668000D03*
%TD*%
D13*
%TO.P,U16,1,A18*%
%TO.N,B5*%
X204893300Y-104140000D03*
D12*
%TO.P,U16,2,A16*%
%TO.N,B3*%
X204893300Y-106680000D03*
%TO.P,U16,3,A14*%
%TO.N,B1*%
X204893300Y-109220000D03*
%TO.P,U16,4,A12*%
%TO.N,A12*%
X204893300Y-111760000D03*
%TO.P,U16,5,A7*%
%TO.N,A7*%
X204893300Y-114300000D03*
%TO.P,U16,6,A6*%
%TO.N,A6*%
X204893300Y-116840000D03*
%TO.P,U16,7,A5*%
%TO.N,A5*%
X204893300Y-119380000D03*
%TO.P,U16,8,A4*%
%TO.N,A4*%
X204893300Y-121920000D03*
%TO.P,U16,9,A3*%
%TO.N,A3*%
X204893300Y-124460000D03*
%TO.P,U16,10,A2*%
%TO.N,A2*%
X204893300Y-127000000D03*
%TO.P,U16,11,A1*%
%TO.N,A1*%
X204893300Y-129540000D03*
%TO.P,U16,12,A0*%
%TO.N,A0*%
X204893300Y-132080000D03*
%TO.P,U16,13,DQ0*%
%TO.N,D0*%
X204893300Y-134620000D03*
%TO.P,U16,14,DQ1*%
%TO.N,D1*%
X204893300Y-137160000D03*
%TO.P,U16,15,DQ2*%
%TO.N,D2*%
X204893300Y-139700000D03*
%TO.P,U16,16,VSS*%
%TO.N,GND*%
X204893300Y-142240000D03*
%TO.P,U16,17,DQ3*%
%TO.N,D3*%
X220133300Y-142240000D03*
%TO.P,U16,18,DQ4*%
%TO.N,D4*%
X220133300Y-139700000D03*
%TO.P,U16,19,DQ5*%
%TO.N,D5*%
X220133300Y-137160000D03*
%TO.P,U16,20,DQ6*%
%TO.N,D6*%
X220133300Y-134620000D03*
%TO.P,U16,21,DQ7*%
%TO.N,D7*%
X220133300Y-132080000D03*
%TO.P,U16,22,CE#*%
%TO.N,~{RAM_CS}*%
X220133300Y-129540000D03*
%TO.P,U16,23,A10*%
%TO.N,A10*%
X220133300Y-127000000D03*
%TO.P,U16,24,OE#*%
%TO.N,~{RAM_OE}*%
X220133300Y-124460000D03*
%TO.P,U16,25,A11*%
%TO.N,A11*%
X220133300Y-121920000D03*
%TO.P,U16,26,A9*%
%TO.N,A9*%
X220133300Y-119380000D03*
%TO.P,U16,27,A8*%
%TO.N,A8*%
X220133300Y-116840000D03*
%TO.P,U16,28,A13*%
%TO.N,B0*%
X220133300Y-114300000D03*
%TO.P,U16,29,WE#*%
%TO.N,R{slash}~{W}*%
X220133300Y-111760000D03*
%TO.P,U16,30,A17*%
%TO.N,B4*%
X220133300Y-109220000D03*
%TO.P,U16,31,A15*%
%TO.N,B2*%
X220133300Y-106680000D03*
%TO.P,U16,32,VCC*%
%TO.N,VCC*%
X220133300Y-104140000D03*
%TD*%
%TO.P,R9,1*%
%TO.N,Net-(U2-RDY)*%
X143510000Y-91440000D03*
D14*
%TO.P,R9,2*%
%TO.N,VCC*%
X143510000Y-83820000D03*
%TD*%
D16*
%TO.P,H2,1*%
%TO.N,N/C*%
X255524000Y-28956000D03*
D17*
X255524000Y-28956000D03*
%TD*%
D15*
%TO.P,C6,1*%
%TO.N,VCC*%
X255992000Y-46736000D03*
D12*
%TO.P,C6,2*%
%TO.N,GND*%
X253492000Y-46736000D03*
%TD*%
D13*
%TO.P,U22,1,C1+*%
%TO.N,Net-(U22-C1+)*%
X210090000Y-50800000D03*
D12*
%TO.P,U22,2,VS+*%
%TO.N,Net-(U22-VS+)*%
X210090000Y-53340000D03*
%TO.P,U22,3,C1-*%
%TO.N,Net-(U22-C1-)*%
X210090000Y-55880000D03*
%TO.P,U22,4,C2+*%
%TO.N,Net-(U22-C2+)*%
X210090000Y-58420000D03*
%TO.P,U22,5,C2-*%
%TO.N,Net-(U22-C2-)*%
X210090000Y-60960000D03*
%TO.P,U22,6,VS-*%
%TO.N,Net-(U22-VS-)*%
X210090000Y-63500000D03*
%TO.P,U22,7,T2OUT*%
%TO.N,unconnected-(U22-T2OUT-Pad7)*%
X210090000Y-66040000D03*
%TO.P,U22,8,R2IN*%
%TO.N,unconnected-(U22-R2IN-Pad8)*%
X210090000Y-68580000D03*
%TO.P,U22,9,R2OUT*%
%TO.N,unconnected-(U22-R2OUT-Pad9)*%
X217710000Y-68580000D03*
%TO.P,U22,10,T2IN*%
%TO.N,unconnected-(U22-T2IN-Pad10)*%
X217710000Y-66040000D03*
%TO.P,U22,11,T1IN*%
%TO.N,TxD1*%
X217710000Y-63500000D03*
%TO.P,U22,12,R1OUT*%
%TO.N,RxD1*%
X217710000Y-60960000D03*
%TO.P,U22,13,R1IN*%
%TO.N,Net-(U22-R1IN)*%
X217710000Y-58420000D03*
%TO.P,U22,14,T1OUT*%
%TO.N,Net-(U22-T1OUT)*%
X217710000Y-55880000D03*
%TO.P,U22,15,GND*%
%TO.N,GND*%
X217710000Y-53340000D03*
%TO.P,U22,16,VCC*%
%TO.N,VCC*%
X217710000Y-50800000D03*
%TD*%
%TO.P,C1,1*%
%TO.N,VCC*%
X166370000Y-94060000D03*
%TO.P,C1,2*%
%TO.N,GND*%
X166370000Y-99060000D03*
%TD*%
%TO.P,C17,1*%
%TO.N,VCC*%
X214844000Y-99060000D03*
%TO.P,C17,2*%
%TO.N,GND*%
X209844000Y-99060000D03*
%TD*%
D20*
%TO.P,D1,1,K*%
%TO.N,Net-(D1-K)*%
X150876000Y-140716000D03*
D21*
%TO.P,D1,2,A*%
%TO.N,VCC*%
X153416000Y-140716000D03*
%TD*%
D22*
%TO.P,SW2,1,1*%
%TO.N,GND*%
X149150000Y-149860000D03*
X155650000Y-149860000D03*
%TO.P,SW2,2,2*%
%TO.N,~{RES}*%
X149150000Y-154360000D03*
X155650000Y-154360000D03*
%TD*%
D12*
%TO.P,R3,1*%
%TO.N,GND*%
X144780000Y-148336000D03*
D14*
%TO.P,R3,2*%
%TO.N,Net-(D1-K)*%
X144780000Y-140716000D03*
%TD*%
D16*
%TO.P,H4,1*%
%TO.N,N/C*%
X130556000Y-153924000D03*
D17*
X130556000Y-153924000D03*
%TD*%
D22*
%TO.P,SW3,1,1*%
%TO.N,GND*%
X205590000Y-149860000D03*
X212090000Y-149860000D03*
%TO.P,SW3,2,2*%
%TO.N,~{NMI}*%
X205590000Y-154360000D03*
X212090000Y-154360000D03*
%TD*%
D12*
%TO.P,C36,1*%
%TO.N,VCC*%
X169164000Y-125436000D03*
%TO.P,C36,2*%
%TO.N,GND*%
X169164000Y-120436000D03*
%TD*%
D13*
%TO.P,U2,1,~{VP}*%
%TO.N,unconnected-(U2-~{VP}-Pad1)*%
X147320000Y-83820000D03*
D12*
%TO.P,U2,2,RDY*%
%TO.N,Net-(U2-RDY)*%
X147320000Y-86360000D03*
%TO.P,U2,3,\u03D51*%
%TO.N,unconnected-(U2-\u03D51-Pad3)*%
X147320000Y-88900000D03*
%TO.P,U2,4,~{IRQ}*%
%TO.N,~{IRQ}*%
X147320000Y-91440000D03*
%TO.P,U2,5,~{ML}*%
%TO.N,unconnected-(U2-~{ML}-Pad5)*%
X147320000Y-93980000D03*
%TO.P,U2,6,~{NMI}*%
%TO.N,~{NMI}*%
X147320000Y-96520000D03*
%TO.P,U2,7,SYNC*%
%TO.N,unconnected-(U2-SYNC-Pad7)*%
X147320000Y-99060000D03*
%TO.P,U2,8,VDD*%
%TO.N,VCC*%
X147320000Y-101600000D03*
%TO.P,U2,9,A0*%
%TO.N,A0*%
X147320000Y-104140000D03*
%TO.P,U2,10,A1*%
%TO.N,A1*%
X147320000Y-106680000D03*
%TO.P,U2,11,A2*%
%TO.N,A2*%
X147320000Y-109220000D03*
%TO.P,U2,12,A3*%
%TO.N,A3*%
X147320000Y-111760000D03*
%TO.P,U2,13,A4*%
%TO.N,A4*%
X147320000Y-114300000D03*
%TO.P,U2,14,A5*%
%TO.N,A5*%
X147320000Y-116840000D03*
%TO.P,U2,15,A6*%
%TO.N,A6*%
X147320000Y-119380000D03*
%TO.P,U2,16,A7*%
%TO.N,A7*%
X147320000Y-121920000D03*
%TO.P,U2,17,A8*%
%TO.N,A8*%
X147320000Y-124460000D03*
%TO.P,U2,18,A9*%
%TO.N,A9*%
X147320000Y-127000000D03*
%TO.P,U2,19,A10*%
%TO.N,A10*%
X147320000Y-129540000D03*
%TO.P,U2,20,A11*%
%TO.N,A11*%
X147320000Y-132080000D03*
%TO.P,U2,21,VSS*%
%TO.N,GND*%
X162560000Y-132080000D03*
%TO.P,U2,22,A12*%
%TO.N,A12*%
X162560000Y-129540000D03*
%TO.P,U2,23,A13*%
%TO.N,A13*%
X162560000Y-127000000D03*
%TO.P,U2,24,A14*%
%TO.N,A14*%
X162560000Y-124460000D03*
%TO.P,U2,25,A15*%
%TO.N,A15*%
X162560000Y-121920000D03*
%TO.P,U2,26,D7*%
%TO.N,D7*%
X162560000Y-119380000D03*
%TO.P,U2,27,D6*%
%TO.N,D6*%
X162560000Y-116840000D03*
%TO.P,U2,28,D5*%
%TO.N,D5*%
X162560000Y-114300000D03*
%TO.P,U2,29,D4*%
%TO.N,D4*%
X162560000Y-111760000D03*
%TO.P,U2,30,D3*%
%TO.N,D3*%
X162560000Y-109220000D03*
%TO.P,U2,31,D2*%
%TO.N,D2*%
X162560000Y-106680000D03*
%TO.P,U2,32,D1*%
%TO.N,D1*%
X162560000Y-104140000D03*
%TO.P,U2,33,D0*%
%TO.N,D0*%
X162560000Y-101600000D03*
%TO.P,U2,34,R/~{W}*%
%TO.N,R{slash}~{W}*%
X162560000Y-99060000D03*
%TO.P,U2,35,nc*%
%TO.N,unconnected-(U2-nc-Pad35)*%
X162560000Y-96520000D03*
%TO.P,U2,36,BE*%
%TO.N,VCC*%
X162560000Y-93980000D03*
%TO.P,U2,37,\u03D50*%
%TO.N,CLK*%
X162560000Y-91440000D03*
%TO.P,U2,38,~{SO}*%
%TO.N,unconnected-(U2-~{SO}-Pad38)*%
X162560000Y-88900000D03*
%TO.P,U2,39,\u03D52*%
%TO.N,unconnected-(U2-\u03D52-Pad39)*%
X162560000Y-86360000D03*
%TO.P,U2,40,~{RES}*%
%TO.N,~{RES}*%
X162560000Y-83820000D03*
%TD*%
%TO.P,C16,1*%
%TO.N,VCC*%
X243800000Y-99060000D03*
%TO.P,C16,2*%
%TO.N,GND*%
X238800000Y-99060000D03*
%TD*%
D15*
%TO.P,X1,1,EN*%
%TO.N,unconnected-(X1-EN-Pad1)*%
X205740000Y-90170000D03*
D12*
%TO.P,X1,7,GND*%
%TO.N,GND*%
X220980000Y-90170000D03*
%TO.P,X1,8,OUT*%
%TO.N,CLK*%
X220980000Y-82550000D03*
%TO.P,X1,14,Vcc*%
%TO.N,VCC*%
X205740000Y-82550000D03*
%TD*%
%TO.P,C3,1*%
%TO.N,VCC*%
X210860000Y-77470000D03*
%TO.P,C3,2*%
%TO.N,GND*%
X215860000Y-77470000D03*
%TD*%
D23*
%TO.P,J8,0,PAD*%
%TO.N,unconnected-(J8-PAD-Pad0)*%
X205540000Y-30480000D03*
%TO.N,unconnected-(J8-PAD-Pad0)_1*%
X180540000Y-30480000D03*
D15*
%TO.P,J8,1,1*%
%TO.N,unconnected-(J8-Pad1)*%
X198580000Y-33320000D03*
D12*
%TO.P,J8,2,2*%
%TO.N,Net-(U22-T1OUT)*%
X195810000Y-33320000D03*
%TO.P,J8,3,3*%
%TO.N,Net-(U22-R1IN)*%
X193040000Y-33320000D03*
%TO.P,J8,4,4*%
%TO.N,unconnected-(J8-Pad4)*%
X190270000Y-33320000D03*
%TO.P,J8,5,5*%
%TO.N,GND*%
X187500000Y-33320000D03*
%TO.P,J8,6,6*%
%TO.N,unconnected-(J8-Pad6)*%
X197195000Y-30480000D03*
%TO.P,J8,7,7*%
%TO.N,unconnected-(J8-Pad7)*%
X194425000Y-30480000D03*
%TO.P,J8,8,8*%
%TO.N,unconnected-(J8-Pad8)*%
X191655000Y-30480000D03*
%TO.P,J8,9,9*%
%TO.N,unconnected-(J8-Pad9)*%
X188885000Y-30480000D03*
%TD*%
%TO.P,R2,1*%
%TO.N,GND*%
X233680000Y-46736000D03*
D14*
%TO.P,R2,2*%
%TO.N,Net-(J1-Shield)*%
X226060000Y-46736000D03*
%TD*%
D12*
%TO.P,C35,1*%
%TO.N,VCC*%
X180420000Y-109220000D03*
%TO.P,C35,2*%
%TO.N,GND*%
X185420000Y-109220000D03*
%TD*%
D24*
%TO.P,U11,1,Pin_1*%
%TO.N,~{RES}*%
X161290000Y-152400000D03*
D25*
%TO.P,U11,2,Pin_2*%
%TO.N,VCC*%
X162560000Y-151130000D03*
%TO.P,U11,3,Pin_3*%
%TO.N,GND*%
X163830000Y-152400000D03*
%TD*%
D15*
%TO.P,C31,1*%
%TO.N,GND*%
X203240000Y-69980000D03*
D12*
%TO.P,C31,2*%
%TO.N,Net-(U22-VS-)*%
X205740000Y-69980000D03*
%TD*%
D26*
%TO.P,J4,1,TCK*%
%TO.N,TCK*%
X178308000Y-148590000D03*
D27*
%TO.P,J4,2,GND*%
%TO.N,GND*%
X178308000Y-146050000D03*
%TO.P,J4,3,TDO*%
%TO.N,TDO*%
X180848000Y-148590000D03*
%TO.P,J4,4,VccT*%
%TO.N,VCC*%
X180848000Y-146050000D03*
%TO.P,J4,5,TMS*%
%TO.N,TMS*%
X183388000Y-148590000D03*
%TO.P,J4,6,NC*%
%TO.N,unconnected-(J4-NC-Pad6)*%
X183388000Y-146050000D03*
%TO.P,J4,7,NC*%
%TO.N,unconnected-(J4-NC-Pad7)*%
X185928000Y-148590000D03*
%TO.P,J4,8,NC*%
%TO.N,unconnected-(J4-NC-Pad8)*%
X185928000Y-146050000D03*
%TO.P,J4,9,TDI*%
%TO.N,TDI*%
X188468000Y-148590000D03*
%TO.P,J4,10,GND*%
%TO.N,GND*%
X188468000Y-146050000D03*
%TD*%
D28*
%TO.P,U23,1,I/GCLR*%
%TO.N,~{RES}*%
X184658000Y-116840000D03*
D29*
%TO.P,U23,2,I/OE2/GCLK2*%
%TO.N,A7*%
X182118000Y-114300000D03*
%TO.P,U23,3,VCC*%
%TO.N,VCC*%
X182118000Y-116840000D03*
%TO.P,U23,4,I/O*%
%TO.N,A8*%
X179578000Y-114300000D03*
%TO.P,U23,5,I/O*%
%TO.N,A9*%
X179578000Y-116840000D03*
%TO.P,U23,6,I/O*%
%TO.N,A10*%
X177038000Y-114300000D03*
%TO.P,U23,7,I/O/TDI*%
%TO.N,TDI*%
X174498000Y-116840000D03*
%TO.P,U23,8,I/O*%
%TO.N,A11*%
X177038000Y-116840000D03*
%TO.P,U23,9,I/O*%
%TO.N,A12*%
X174498000Y-119380000D03*
%TO.P,U23,10,GND*%
%TO.N,GND*%
X177038000Y-119380000D03*
%TO.P,U23,11,I/O/PD1*%
%TO.N,A13*%
X174498000Y-121920000D03*
%TO.P,U23,12,I/O*%
%TO.N,A14*%
X177038000Y-121920000D03*
%TO.P,U23,13,I/O/TMS*%
%TO.N,TMS*%
X174498000Y-124460000D03*
%TO.P,U23,14,I/O*%
%TO.N,A15*%
X177038000Y-124460000D03*
%TO.P,U23,15,VCC*%
%TO.N,VCC*%
X174498000Y-127000000D03*
%TO.P,U23,16,I/O*%
%TO.N,~{RAM_CS}*%
X177038000Y-127000000D03*
%TO.P,U23,17,I/O*%
%TO.N,~{RAM_OE}*%
X174498000Y-129540000D03*
%TO.P,U23,18,I/O*%
%TO.N,~{UART_CS}*%
X177038000Y-132080000D03*
%TO.P,U23,19,I/O*%
%TO.N,~{VIA_CS}*%
X177038000Y-129540000D03*
%TO.P,U23,20,I/O*%
%TO.N,~{ROM_CS}*%
X179578000Y-132080000D03*
%TO.P,U23,21,I/O*%
%TO.N,A6*%
X179578000Y-129540000D03*
%TO.P,U23,22,GND*%
%TO.N,GND*%
X182118000Y-132080000D03*
%TO.P,U23,23,VCC*%
%TO.N,VCC*%
X182118000Y-129540000D03*
%TO.P,U23,24,I/O*%
%TO.N,B5*%
X184658000Y-132080000D03*
%TO.P,U23,25,I/O/PD2*%
%TO.N,B4*%
X184658000Y-129540000D03*
%TO.P,U23,26,I/O*%
%TO.N,B3*%
X187198000Y-132080000D03*
%TO.P,U23,27,I/O*%
%TO.N,B2*%
X187198000Y-129540000D03*
%TO.P,U23,28,I/O*%
%TO.N,B1*%
X189738000Y-132080000D03*
%TO.P,U23,29,I/O*%
%TO.N,B0*%
X192278000Y-129540000D03*
%TO.P,U23,30,GND*%
%TO.N,GND*%
X189738000Y-129540000D03*
%TO.P,U23,31,I/O*%
%TO.N,D7*%
X192278000Y-127000000D03*
%TO.P,U23,32,I/O/TCK*%
%TO.N,TCK*%
X189738000Y-127000000D03*
%TO.P,U23,33,I/O*%
%TO.N,D6*%
X192278000Y-124460000D03*
%TO.P,U23,34,I/O*%
%TO.N,D5*%
X189738000Y-124460000D03*
%TO.P,U23,35,VCC*%
%TO.N,VCC*%
X192278000Y-121920000D03*
%TO.P,U23,36,I/O*%
%TO.N,D4*%
X189738000Y-121920000D03*
%TO.P,U23,37,I/O*%
%TO.N,D3*%
X192278000Y-119380000D03*
%TO.P,U23,38,I/O/TDO*%
%TO.N,TDO*%
X189738000Y-119380000D03*
%TO.P,U23,39,I/O*%
%TO.N,D2*%
X192278000Y-116840000D03*
%TO.P,U23,40,I/O*%
%TO.N,D1*%
X189738000Y-114300000D03*
%TO.P,U23,41,I/O/GCLK3*%
%TO.N,D0*%
X189738000Y-116840000D03*
%TO.P,U23,42,GND*%
%TO.N,GND*%
X187198000Y-114300000D03*
%TO.P,U23,43,I/GCLK1*%
%TO.N,CLK*%
X187198000Y-116840000D03*
%TO.P,U23,44,I/OE1*%
%TO.N,R{slash}~{W}*%
X184658000Y-114300000D03*
%TD*%
D15*
%TO.P,C30,1*%
%TO.N,Net-(U22-VS+)*%
X203240000Y-47120000D03*
D12*
%TO.P,C30,2*%
%TO.N,VCC*%
X205740000Y-47120000D03*
%TD*%
D11*
%TO.P,J1,1,VBUS*%
%TO.N,VIN*%
X241340000Y-40640000D03*
D27*
%TO.P,J1,2,D-*%
%TO.N,unconnected-(J1-D--Pad2)*%
X243840000Y-40640000D03*
%TO.P,J1,3,D+*%
%TO.N,unconnected-(J1-D+-Pad3)*%
X243840000Y-38640000D03*
%TO.P,J1,4,GND*%
%TO.N,GND*%
X241340000Y-38640000D03*
D30*
%TO.P,J1,5,Shield*%
%TO.N,Net-(J1-Shield)*%
X236570000Y-35930000D03*
X248610000Y-35930000D03*
%TD*%
D12*
%TO.P,C27,1*%
%TO.N,VCC*%
X216360000Y-45720000D03*
%TO.P,C27,2*%
%TO.N,GND*%
X211360000Y-45720000D03*
%TD*%
D31*
%TO.P,Y1,1,1*%
%TO.N,Net-(U21-XTAL2)*%
X228600000Y-71455000D03*
%TO.P,Y1,2,2*%
%TO.N,Net-(U21-XTAL1)*%
X228600000Y-66555000D03*
%TD*%
D12*
%TO.P,C9,1*%
%TO.N,~{NMI}*%
X217170000Y-154940000D03*
%TO.P,C9,2*%
%TO.N,GND*%
X217170000Y-149940000D03*
%TD*%
D15*
%TO.P,C28,1*%
%TO.N,Net-(U22-C1+)*%
X203240000Y-54740000D03*
D12*
%TO.P,C28,2*%
%TO.N,Net-(U22-C1-)*%
X205740000Y-54740000D03*
%TD*%
%TO.P,R8,1*%
%TO.N,Net-(U21-XTAL1)*%
X223520000Y-65405000D03*
D14*
%TO.P,R8,2*%
%TO.N,Net-(U21-XTAL2)*%
X223520000Y-73025000D03*
%TD*%
D16*
%TO.P,H3,1*%
%TO.N,N/C*%
X255524000Y-153924000D03*
D17*
X255524000Y-153924000D03*
%TD*%
D12*
%TO.P,C26,1*%
%TO.N,VCC*%
X243840000Y-91440000D03*
%TO.P,C26,2*%
%TO.N,GND*%
X238840000Y-91440000D03*
%TD*%
D13*
%TO.P,U15,1,A18*%
%TO.N,B5*%
X233680000Y-104140000D03*
D12*
%TO.P,U15,2,A16*%
%TO.N,B3*%
X233680000Y-106680000D03*
%TO.P,U15,3,A15*%
%TO.N,B2*%
X233680000Y-109220000D03*
%TO.P,U15,4,A12*%
%TO.N,A12*%
X233680000Y-111760000D03*
%TO.P,U15,5,A7*%
%TO.N,A7*%
X233680000Y-114300000D03*
%TO.P,U15,6,A6*%
%TO.N,A6*%
X233680000Y-116840000D03*
%TO.P,U15,7,A5*%
%TO.N,A5*%
X233680000Y-119380000D03*
%TO.P,U15,8,A4*%
%TO.N,A4*%
X233680000Y-121920000D03*
%TO.P,U15,9,A3*%
%TO.N,A3*%
X233680000Y-124460000D03*
%TO.P,U15,10,A2*%
%TO.N,A2*%
X233680000Y-127000000D03*
%TO.P,U15,11,A1*%
%TO.N,A1*%
X233680000Y-129540000D03*
%TO.P,U15,12,A0*%
%TO.N,A0*%
X233680000Y-132080000D03*
%TO.P,U15,13,D0*%
%TO.N,D0*%
X233680000Y-134620000D03*
%TO.P,U15,14,D1*%
%TO.N,D1*%
X233680000Y-137160000D03*
%TO.P,U15,15,D2*%
%TO.N,D2*%
X233680000Y-139700000D03*
%TO.P,U15,16,GND*%
%TO.N,GND*%
X233680000Y-142240000D03*
%TO.P,U15,17,D3*%
%TO.N,D3*%
X248920000Y-142240000D03*
%TO.P,U15,18,D4*%
%TO.N,D4*%
X248920000Y-139700000D03*
%TO.P,U15,19,D5*%
%TO.N,D5*%
X248920000Y-137160000D03*
%TO.P,U15,20,D6*%
%TO.N,D6*%
X248920000Y-134620000D03*
%TO.P,U15,21,D7*%
%TO.N,D7*%
X248920000Y-132080000D03*
%TO.P,U15,22,CE*%
%TO.N,~{ROM_CS}*%
X248920000Y-129540000D03*
%TO.P,U15,23,A10*%
%TO.N,A10*%
X248920000Y-127000000D03*
%TO.P,U15,24,OE*%
%TO.N,~{ROM_CS}*%
X248920000Y-124460000D03*
%TO.P,U15,25,A11*%
%TO.N,A11*%
X248920000Y-121920000D03*
%TO.P,U15,26,A9*%
%TO.N,A9*%
X248920000Y-119380000D03*
%TO.P,U15,27,A8*%
%TO.N,A8*%
X248920000Y-116840000D03*
%TO.P,U15,28,A13*%
%TO.N,B0*%
X248920000Y-114300000D03*
%TO.P,U15,29,A14*%
%TO.N,B1*%
X248920000Y-111760000D03*
%TO.P,U15,30,A17*%
%TO.N,B4*%
X248920000Y-109220000D03*
%TO.P,U15,31,PGM*%
%TO.N,VCC*%
X248920000Y-106680000D03*
%TO.P,U15,32,VCC*%
X248920000Y-104140000D03*
%TD*%
%TO.P,C25,1*%
%TO.N,GND*%
X228600000Y-54436000D03*
%TO.P,C25,2*%
%TO.N,Net-(U21-XTAL1)*%
X228600000Y-59436000D03*
%TD*%
D13*
%TO.P,U21,1,VSS*%
%TO.N,GND*%
X233680000Y-52705000D03*
D12*
%TO.P,U21,2,CS1*%
%TO.N,VCC*%
X233680000Y-55245000D03*
%TO.P,U21,3,~{CS2}*%
%TO.N,~{UART_CS}*%
X233680000Y-57785000D03*
%TO.P,U21,4,~{RES}*%
%TO.N,~{RES}*%
X233680000Y-60325000D03*
%TO.P,U21,5,RxC*%
%TO.N,unconnected-(U21-RxC-Pad5)*%
X233680000Y-62865000D03*
%TO.P,U21,6,XTAL1*%
%TO.N,Net-(U21-XTAL1)*%
X233680000Y-65405000D03*
%TO.P,U21,7,XTAL2*%
%TO.N,Net-(U21-XTAL2)*%
X233680000Y-67945000D03*
%TO.P,U21,8,~{RTS}*%
%TO.N,unconnected-(U21-~{RTS}-Pad8)*%
X233680000Y-70485000D03*
%TO.P,U21,9,~{CTS}*%
%TO.N,GND*%
X233680000Y-73025000D03*
%TO.P,U21,10,TxD*%
%TO.N,TxD1*%
X233680000Y-75565000D03*
%TO.P,U21,11,~{DTR}*%
%TO.N,unconnected-(U21-~{DTR}-Pad11)*%
X233680000Y-78105000D03*
%TO.P,U21,12,RxD*%
%TO.N,RxD1*%
X233680000Y-80645000D03*
%TO.P,U21,13,RS0*%
%TO.N,A0*%
X233680000Y-83185000D03*
%TO.P,U21,14,RS1*%
%TO.N,A1*%
X233680000Y-85725000D03*
%TO.P,U21,15,VCC*%
%TO.N,VCC*%
X248920000Y-85725000D03*
%TO.P,U21,16,~{DCD}*%
%TO.N,GND*%
X248920000Y-83185000D03*
%TO.P,U21,17,~{DSR}*%
X248920000Y-80645000D03*
%TO.P,U21,18,D0*%
%TO.N,D0*%
X248920000Y-78105000D03*
%TO.P,U21,19,D1*%
%TO.N,D1*%
X248920000Y-75565000D03*
%TO.P,U21,20,D2*%
%TO.N,D2*%
X248920000Y-73025000D03*
%TO.P,U21,21,D3*%
%TO.N,D3*%
X248920000Y-70485000D03*
%TO.P,U21,22,D4*%
%TO.N,D4*%
X248920000Y-67945000D03*
%TO.P,U21,23,D5*%
%TO.N,D5*%
X248920000Y-65405000D03*
%TO.P,U21,24,D6*%
%TO.N,D6*%
X248920000Y-62865000D03*
%TO.P,U21,25,D7*%
%TO.N,D7*%
X248920000Y-60325000D03*
%TO.P,U21,26,~{IRQ}*%
%TO.N,~{IRQ51}*%
X248920000Y-57785000D03*
%TO.P,U21,27,\u03D52*%
%TO.N,CLK*%
X248920000Y-55245000D03*
%TO.P,U21,28,R/~{W}*%
%TO.N,R{slash}~{W}*%
X248920000Y-52705000D03*
%TD*%
D13*
%TO.P,U19,1,VSS*%
%TO.N,GND*%
X176106700Y-50800000D03*
D12*
%TO.P,U19,2,PA0*%
%TO.N,MISO*%
X176106700Y-53340000D03*
%TO.P,U19,3,PA1*%
%TO.N,MOSI*%
X176106700Y-55880000D03*
%TO.P,U19,4,PA2*%
%TO.N,PA2*%
X176106700Y-58420000D03*
%TO.P,U19,5,PA3*%
%TO.N,PA3*%
X176106700Y-60960000D03*
%TO.P,U19,6,PA4*%
%TO.N,PA4*%
X176106700Y-63500000D03*
%TO.P,U19,7,PA5*%
%TO.N,PA5*%
X176106700Y-66040000D03*
%TO.P,U19,8,PA6*%
%TO.N,PA6*%
X176106700Y-68580000D03*
%TO.P,U19,9,PA7*%
%TO.N,PA7*%
X176106700Y-71120000D03*
%TO.P,U19,10,PB0*%
%TO.N,PB0*%
X176106700Y-73660000D03*
%TO.P,U19,11,PB1*%
%TO.N,PB1*%
X176106700Y-76200000D03*
%TO.P,U19,12,PB2*%
%TO.N,PB2*%
X176106700Y-78740000D03*
%TO.P,U19,13,PB3*%
%TO.N,PB3*%
X176106700Y-81280000D03*
%TO.P,U19,14,PB4*%
%TO.N,PB4*%
X176106700Y-83820000D03*
%TO.P,U19,15,PB5*%
%TO.N,PB5*%
X176106700Y-86360000D03*
%TO.P,U19,16,PB6*%
%TO.N,PB6*%
X176106700Y-88900000D03*
%TO.P,U19,17,PB7*%
%TO.N,PB7*%
X176106700Y-91440000D03*
%TO.P,U19,18,CB1*%
%TO.N,CB1*%
X176106700Y-93980000D03*
%TO.P,U19,19,CB2*%
%TO.N,CB2*%
X176106700Y-96520000D03*
%TO.P,U19,20,VCC*%
%TO.N,VCC*%
X176106700Y-99060000D03*
%TO.P,U19,21,~{IRQ}*%
%TO.N,~{IRQ22}*%
X191346700Y-99060000D03*
%TO.P,U19,22,R/~{W}*%
%TO.N,R{slash}~{W}*%
X191346700Y-96520000D03*
%TO.P,U19,23,~{CS2}*%
%TO.N,~{VIA_CS}*%
X191346700Y-93980000D03*
%TO.P,U19,24,CS1*%
%TO.N,VCC*%
X191346700Y-91440000D03*
%TO.P,U19,25,\u03D52*%
%TO.N,CLK*%
X191346700Y-88900000D03*
%TO.P,U19,26,D7*%
%TO.N,D7*%
X191346700Y-86360000D03*
%TO.P,U19,27,D6*%
%TO.N,D6*%
X191346700Y-83820000D03*
%TO.P,U19,28,D5*%
%TO.N,D5*%
X191346700Y-81280000D03*
%TO.P,U19,29,D4*%
%TO.N,D4*%
X191346700Y-78740000D03*
%TO.P,U19,30,D3*%
%TO.N,D3*%
X191346700Y-76200000D03*
%TO.P,U19,31,D2*%
%TO.N,D2*%
X191346700Y-73660000D03*
%TO.P,U19,32,D1*%
%TO.N,D1*%
X191346700Y-71120000D03*
%TO.P,U19,33,D0*%
%TO.N,D0*%
X191346700Y-68580000D03*
%TO.P,U19,34,~{RES}*%
%TO.N,~{RES}*%
X191346700Y-66040000D03*
%TO.P,U19,35,RS3*%
%TO.N,A3*%
X191346700Y-63500000D03*
%TO.P,U19,36,RS2*%
%TO.N,A2*%
X191346700Y-60960000D03*
%TO.P,U19,37,RS1*%
%TO.N,A1*%
X191346700Y-58420000D03*
%TO.P,U19,38,RS0*%
%TO.N,A0*%
X191346700Y-55880000D03*
%TO.P,U19,39,CA2*%
%TO.N,CA2*%
X191346700Y-53340000D03*
%TO.P,U19,40,CA1*%
%TO.N,CA1*%
X191346700Y-50800000D03*
%TD*%
D32*
%TO.N,~{IRQ22}*%
X189829400Y-89275200D03*
X145012700Y-71613600D03*
%TO.N,~{IRQ51}*%
X137140300Y-79083000D03*
%TO.N,~{UART_CS}*%
X193212500Y-88084900D03*
%TO.N,~{RAM_OE}*%
X202039300Y-130675200D03*
%TO.N,B4*%
X222743300Y-108174200D03*
X188775000Y-117760300D03*
%TO.N,B2*%
X195160100Y-113941800D03*
%TO.N,B0*%
X200419900Y-129091200D03*
%TO.N,B1*%
X200816200Y-130691700D03*
%TO.N,TDI*%
X180631800Y-139744200D03*
%TO.N,PB2*%
X144597200Y-105066200D03*
%TO.N,PB1*%
X154106400Y-72569200D03*
%TO.N,PB3*%
X149447300Y-103669500D03*
%TO.N,PB7*%
X149088700Y-114383300D03*
%TO.N,PB5*%
X150550200Y-107620300D03*
%TO.N,CB1*%
X145922100Y-117404200D03*
%TO.N,CB2*%
X149841000Y-115953600D03*
%TO.N,PB6*%
X149562400Y-112154900D03*
%TO.N,PB0*%
X155077200Y-71842500D03*
%TO.N,CA2*%
X145393400Y-120458900D03*
%TO.N,PB4*%
X150550200Y-105286200D03*
%TO.N,A9*%
X181457400Y-118719400D03*
X144867900Y-101735800D03*
%TO.N,D4*%
X195752900Y-83146200D03*
X196360900Y-122568000D03*
%TO.N,R{slash}~{W}*%
X154234900Y-102986300D03*
X216835800Y-100257800D03*
X206869000Y-94232500D03*
%TO.N,A3*%
X170591200Y-74435000D03*
%TO.N,A10*%
X144871100Y-100935600D03*
X172390400Y-118908300D03*
%TO.N,A6*%
X153902000Y-123969400D03*
X184805500Y-120929500D03*
%TO.N,D5*%
X197931000Y-133630000D03*
%TO.N,A7*%
X150382900Y-121696700D03*
%TO.N,D3*%
X182611300Y-71718200D03*
X174312000Y-67374900D03*
%TO.N,A14*%
X152634500Y-113300200D03*
%TO.N,A8*%
X187179800Y-108830600D03*
X204950500Y-96003900D03*
X145557800Y-102177700D03*
%TO.N,D0*%
X141971800Y-54790200D03*
X193951700Y-115954400D03*
%TO.N,A11*%
X151777900Y-96759900D03*
%TO.N,A1*%
X146219100Y-103336200D03*
%TO.N,A13*%
X153767400Y-112555100D03*
%TO.N,A4*%
X169034200Y-91130800D03*
X199653600Y-96223000D03*
X166715900Y-85198900D03*
%TO.N,A2*%
X145326100Y-104663500D03*
X128127700Y-91439000D03*
%TO.N,D6*%
X181969200Y-119550000D03*
X199180700Y-133436100D03*
%TO.N,A15*%
X153834800Y-113491000D03*
%TO.N,D7*%
X214305400Y-126327800D03*
%TO.N,A12*%
X199835200Y-126995900D03*
X153480200Y-115892800D03*
%TO.N,A5*%
X130346000Y-119053400D03*
%TO.N,D1*%
X189895300Y-56269900D03*
X193215100Y-115330700D03*
X187775800Y-112337800D03*
%TO.N,D2*%
X193812800Y-109479400D03*
X183334400Y-70995100D03*
X169524200Y-59122200D03*
%TO.N,~{RES}*%
X178151800Y-133271000D03*
X187161800Y-67962800D03*
%TO.N,~{IRQ}*%
X141796600Y-75503600D03*
%TO.N,TxD1*%
X154119700Y-71733500D03*
%TO.N,RxD1*%
X155051600Y-66966900D03*
X139127300Y-82061000D03*
%TD*%
D33*
%TO.N,Net-(U1-Pad6)*%
X157988000Y-54864000D02*
X150368000Y-54864000D01*
%TO.N,~{IRQ22}*%
X188184200Y-87630000D02*
X189829400Y-89275200D01*
X161029100Y-87630000D02*
X188184200Y-87630000D01*
X145012700Y-71613600D02*
X161029100Y-87630000D01*
%TO.N,~{IRQ51}*%
X133350000Y-84836000D02*
X133350000Y-83685900D01*
X133588300Y-83685900D02*
X133350000Y-83685900D01*
X134620000Y-82654200D02*
X133588300Y-83685900D01*
X134620000Y-81923500D02*
X134620000Y-82654200D01*
X135539100Y-81004400D02*
X134620000Y-81923500D01*
X136330500Y-81004400D02*
X135539100Y-81004400D01*
X137140300Y-80194600D02*
X136330500Y-81004400D01*
X137140300Y-79083000D02*
X137140300Y-80194600D01*
%TO.N,Net-(U22-VS+)*%
X204340100Y-47590100D02*
X204340100Y-47120000D01*
X210090000Y-53340000D02*
X204340100Y-47590100D01*
X203240000Y-47120000D02*
X204340100Y-47120000D01*
%TO.N,Net-(U22-C2+)*%
X204340100Y-62085000D02*
X204340100Y-62360000D01*
X208005100Y-58420000D02*
X204340100Y-62085000D01*
X210090000Y-58420000D02*
X208005100Y-58420000D01*
X203240000Y-62360000D02*
X204340100Y-62360000D01*
%TO.N,Net-(U22-C2-)*%
X207140000Y-60960000D02*
X205740000Y-62360000D01*
X210090000Y-60960000D02*
X207140000Y-60960000D01*
%TO.N,Net-(U22-C1-)*%
X206880000Y-55880000D02*
X205740000Y-54740000D01*
X210090000Y-55880000D02*
X206880000Y-55880000D01*
%TO.N,~{UART_CS}*%
X234805900Y-58910900D02*
X233680000Y-57785000D01*
X234805900Y-60825700D02*
X234805900Y-58910900D01*
X234036600Y-61595000D02*
X234805900Y-60825700D01*
X233394300Y-61595000D02*
X234036600Y-61595000D01*
X230129800Y-64859500D02*
X233394300Y-61595000D01*
X227240500Y-64859500D02*
X230129800Y-64859500D01*
X216909100Y-75190900D02*
X227240500Y-64859500D01*
X206106500Y-75190900D02*
X216909100Y-75190900D01*
X193212500Y-88084900D02*
X206106500Y-75190900D01*
%TO.N,~{VIA_CS}*%
X134500100Y-137937700D02*
X134500100Y-138176000D01*
X135531800Y-136906000D02*
X134500100Y-137937700D01*
X169672000Y-136906000D02*
X135531800Y-136906000D01*
X177038000Y-129540000D02*
X169672000Y-136906000D01*
X133350000Y-138176000D02*
X134500100Y-138176000D01*
%TO.N,~{RAM_CS}*%
X178478900Y-127000000D02*
X177038000Y-127000000D01*
X181106600Y-129627700D02*
X178478900Y-127000000D01*
X181106600Y-129997300D02*
X181106600Y-129627700D01*
X181724900Y-130615600D02*
X181106600Y-129997300D01*
X199229500Y-130615600D02*
X181724900Y-130615600D01*
X200153700Y-129691400D02*
X199229500Y-130615600D01*
X201904200Y-129691400D02*
X200153700Y-129691400D01*
X202854800Y-130642000D02*
X201904200Y-129691400D01*
X207402200Y-130642000D02*
X202854800Y-130642000D01*
X208504200Y-129540000D02*
X207402200Y-130642000D01*
X220133300Y-129540000D02*
X208504200Y-129540000D01*
%TO.N,~{RAM_OE}*%
X201455600Y-130091500D02*
X202039300Y-130675200D01*
X200519200Y-130091500D02*
X201455600Y-130091500D01*
X199594900Y-131015800D02*
X200519200Y-130091500D01*
X179579800Y-131015800D02*
X199594900Y-131015800D01*
X178308000Y-129744000D02*
X179579800Y-131015800D01*
X178308000Y-129376900D02*
X178308000Y-129744000D01*
X177457900Y-128526800D02*
X178308000Y-129376900D01*
X175511200Y-128526800D02*
X177457900Y-128526800D01*
X174498000Y-129540000D02*
X175511200Y-128526800D01*
%TO.N,~{ROM_CS}*%
X182622500Y-135124500D02*
X179578000Y-132080000D01*
X196766000Y-135124500D02*
X182622500Y-135124500D01*
X202652700Y-141011200D02*
X196766000Y-135124500D01*
X220833000Y-141011200D02*
X202652700Y-141011200D01*
X223210600Y-143388800D02*
X220833000Y-141011200D01*
X245806000Y-143388800D02*
X223210600Y-143388800D01*
X248224800Y-140970000D02*
X245806000Y-143388800D01*
X249234800Y-140970000D02*
X248224800Y-140970000D01*
X250025800Y-140179000D02*
X249234800Y-140970000D01*
X250025800Y-130645800D02*
X250025800Y-140179000D01*
X248920000Y-129540000D02*
X250025800Y-130645800D01*
%TO.N,B4*%
X247818100Y-108118100D02*
X248920000Y-109220000D01*
X222799400Y-108118100D02*
X247818100Y-108118100D01*
X222743300Y-108174200D02*
X222799400Y-108118100D01*
X218863300Y-110490000D02*
X220133300Y-109220000D01*
X202625000Y-110490000D02*
X218863300Y-110490000D01*
X195263600Y-117851400D02*
X202625000Y-110490000D01*
X188866100Y-117851400D02*
X195263600Y-117851400D01*
X188775000Y-117760300D02*
X188866100Y-117851400D01*
%TO.N,B3*%
X232572200Y-105572200D02*
X233680000Y-106680000D01*
X206001100Y-105572200D02*
X232572200Y-105572200D01*
X204893300Y-106680000D02*
X206001100Y-105572200D01*
%TO.N,B2*%
X222673300Y-109220000D02*
X220133300Y-106680000D01*
X233680000Y-109220000D02*
X222673300Y-109220000D01*
X201304000Y-107797900D02*
X195160100Y-113941800D01*
X205897300Y-107797900D02*
X201304000Y-107797900D01*
X207015200Y-106680000D02*
X205897300Y-107797900D01*
X220133300Y-106680000D02*
X207015200Y-106680000D01*
%TO.N,B5*%
X232563300Y-103023300D02*
X233680000Y-104140000D01*
X206010000Y-103023300D02*
X232563300Y-103023300D01*
X204893300Y-104140000D02*
X206010000Y-103023300D01*
%TO.N,B0*%
X247808800Y-115411200D02*
X248920000Y-114300000D01*
X232817100Y-115411200D02*
X247808800Y-115411200D01*
X231705900Y-114300000D02*
X232817100Y-115411200D01*
X220133300Y-114300000D02*
X231705900Y-114300000D01*
X192726800Y-129091200D02*
X192278000Y-129540000D01*
X200419900Y-129091200D02*
X192726800Y-129091200D01*
%TO.N,Net-(U21-XTAL2)*%
X223520000Y-73025000D02*
X224620100Y-73025000D01*
X232110000Y-67945000D02*
X228600000Y-71455000D01*
X233680000Y-67945000D02*
X232110000Y-67945000D01*
X226190100Y-71455000D02*
X224620100Y-73025000D01*
X228600000Y-71455000D02*
X226190100Y-71455000D01*
%TO.N,VIN*%
X225197100Y-35404100D02*
X223647000Y-35404100D01*
X230433000Y-40640000D02*
X225197100Y-35404100D01*
X241340000Y-40640000D02*
X230433000Y-40640000D01*
X223647000Y-33854000D02*
X223647000Y-35404100D01*
%TO.N,Net-(J1-Shield)*%
X248610000Y-35930000D02*
X236570000Y-35930000D01*
%TO.N,B1*%
X247650000Y-110490000D02*
X248920000Y-111760000D01*
X222969200Y-110490000D02*
X247650000Y-110490000D01*
X220581100Y-108101900D02*
X222969200Y-110490000D01*
X212727200Y-108101900D02*
X220581100Y-108101900D01*
X211609100Y-109220000D02*
X212727200Y-108101900D01*
X204893300Y-109220000D02*
X211609100Y-109220000D01*
X199427900Y-132080000D02*
X200816200Y-130691700D01*
X189738000Y-132080000D02*
X199427900Y-132080000D01*
%TO.N,TDI*%
X187198000Y-147320000D02*
X188468000Y-148590000D01*
X187198000Y-145683100D02*
X187198000Y-147320000D01*
X181259100Y-139744200D02*
X187198000Y-145683100D01*
X180631800Y-139744200D02*
X181259100Y-139744200D01*
%TO.N,PB2*%
X133350000Y-105156000D02*
X134500100Y-105156000D01*
X143862200Y-105066200D02*
X144597200Y-105066200D01*
X142765700Y-103969700D02*
X143862200Y-105066200D01*
X135448100Y-103969700D02*
X142765700Y-103969700D01*
X134500100Y-104917700D02*
X135448100Y-103969700D01*
X134500100Y-105156000D02*
X134500100Y-104917700D01*
%TO.N,PA3*%
X163710100Y-60960000D02*
X161170100Y-63500000D01*
X176106700Y-60960000D02*
X163710100Y-60960000D01*
X160020000Y-63500000D02*
X161170100Y-63500000D01*
%TO.N,PB1*%
X157772600Y-76235400D02*
X154106400Y-72569200D01*
X176071300Y-76235400D02*
X157772600Y-76235400D01*
X176106700Y-76200000D02*
X176071300Y-76235400D01*
%TO.N,PB3*%
X133350000Y-107696000D02*
X134500100Y-107696000D01*
X147611200Y-105505600D02*
X149447300Y-103669500D01*
X145006600Y-105505600D02*
X147611200Y-105505600D01*
X144086200Y-106426000D02*
X145006600Y-105505600D01*
X135531800Y-106426000D02*
X144086200Y-106426000D01*
X134500100Y-107457700D02*
X135531800Y-106426000D01*
X134500100Y-107696000D02*
X134500100Y-107457700D01*
%TO.N,PB7*%
X134500100Y-120157700D02*
X134500100Y-120396000D01*
X135447700Y-119210100D02*
X134500100Y-120157700D01*
X136906300Y-119210100D02*
X135447700Y-119210100D01*
X140688000Y-115428400D02*
X136906300Y-119210100D01*
X148043600Y-115428400D02*
X140688000Y-115428400D01*
X149088700Y-114383300D02*
X148043600Y-115428400D01*
X133350000Y-120396000D02*
X134500100Y-120396000D01*
%TO.N,PB5*%
X133350000Y-115316000D02*
X134500100Y-115316000D01*
X134500100Y-115077700D02*
X134500100Y-115316000D01*
X135531800Y-114046000D02*
X134500100Y-115077700D01*
X137634400Y-114046000D02*
X135531800Y-114046000D01*
X141324500Y-110355900D02*
X137634400Y-114046000D01*
X147814600Y-110355900D02*
X141324500Y-110355900D01*
X150550200Y-107620300D02*
X147814600Y-110355900D01*
%TO.N,CB1*%
X139000400Y-124325900D02*
X145922100Y-117404200D01*
X135362600Y-124325900D02*
X139000400Y-124325900D01*
X134500100Y-125188400D02*
X135362600Y-124325900D01*
X134500100Y-125476000D02*
X134500100Y-125188400D01*
X133350000Y-125476000D02*
X134500100Y-125476000D01*
%TO.N,CB2*%
X133350000Y-128016000D02*
X134500100Y-128016000D01*
X147826200Y-117968400D02*
X149841000Y-115953600D01*
X146521800Y-117968400D02*
X147826200Y-117968400D01*
X137744200Y-126746000D02*
X146521800Y-117968400D01*
X135531800Y-126746000D02*
X137744200Y-126746000D01*
X134500100Y-127777700D02*
X135531800Y-126746000D01*
X134500100Y-128016000D02*
X134500100Y-127777700D01*
%TO.N,PB6*%
X133350000Y-117856000D02*
X134500100Y-117856000D01*
X148687300Y-113030000D02*
X149562400Y-112154900D01*
X140578700Y-113030000D02*
X148687300Y-113030000D01*
X136919500Y-116689200D02*
X140578700Y-113030000D01*
X135428600Y-116689200D02*
X136919500Y-116689200D01*
X134500100Y-117617700D02*
X135428600Y-116689200D01*
X134500100Y-117856000D02*
X134500100Y-117617700D01*
%TO.N,PB0*%
X158669900Y-75435200D02*
X155077200Y-71842500D01*
X171080500Y-75435200D02*
X158669900Y-75435200D01*
X172855700Y-73660000D02*
X171080500Y-75435200D01*
X176106700Y-73660000D02*
X172855700Y-73660000D01*
%TO.N,CA2*%
X135890000Y-128016000D02*
X137040100Y-128016000D01*
X144597200Y-120458900D02*
X145393400Y-120458900D01*
X137040100Y-128016000D02*
X144597200Y-120458900D01*
%TO.N,PB4*%
X133350000Y-112776000D02*
X134500100Y-112776000D01*
X134500100Y-112537700D02*
X134500100Y-112776000D01*
X135531800Y-111506000D02*
X134500100Y-112537700D01*
X138127800Y-111506000D02*
X135531800Y-111506000D01*
X141824400Y-107809400D02*
X138127800Y-111506000D01*
X148027000Y-107809400D02*
X141824400Y-107809400D01*
X150550200Y-105286200D02*
X148027000Y-107809400D01*
%TO.N,A9*%
X221244500Y-120491200D02*
X220133300Y-119380000D01*
X247808800Y-120491200D02*
X221244500Y-120491200D01*
X248920000Y-119380000D02*
X247808800Y-120491200D01*
X133350000Y-64516000D02*
X133350000Y-65666100D01*
X182029500Y-118719400D02*
X181457400Y-118719400D01*
X182611500Y-119301400D02*
X182029500Y-118719400D01*
X182611500Y-119584300D02*
X182611500Y-119301400D01*
X185958500Y-122931300D02*
X182611500Y-119584300D01*
X190900800Y-122931300D02*
X185958500Y-122931300D01*
X191300900Y-123331400D02*
X190900800Y-122931300D01*
X196446100Y-123331400D02*
X191300900Y-123331400D01*
X199168800Y-120608700D02*
X196446100Y-123331400D01*
X205593100Y-120608700D02*
X199168800Y-120608700D01*
X206821800Y-119380000D02*
X205593100Y-120608700D01*
X220133300Y-119380000D02*
X206821800Y-119380000D01*
X158620700Y-115699300D02*
X147320000Y-127000000D01*
X163393400Y-115699300D02*
X158620700Y-115699300D01*
X163522800Y-115828700D02*
X163393400Y-115699300D01*
X178566700Y-115828700D02*
X163522800Y-115828700D01*
X179578000Y-116840000D02*
X178566700Y-115828700D01*
X133111700Y-65666100D02*
X133350000Y-65666100D01*
X130937800Y-67840000D02*
X133111700Y-65666100D01*
X130937800Y-87876500D02*
X130937800Y-67840000D01*
X144797100Y-101735800D02*
X130937800Y-87876500D01*
X144867900Y-101735800D02*
X144797100Y-101735800D01*
%TO.N,D4*%
X221244500Y-140811200D02*
X220133300Y-139700000D01*
X247808800Y-140811200D02*
X221244500Y-140811200D01*
X248920000Y-139700000D02*
X247808800Y-140811200D01*
X135890000Y-51816000D02*
X135890000Y-52966100D01*
X195752900Y-83146200D02*
X191346700Y-78740000D01*
X190655500Y-121920000D02*
X189738000Y-121920000D01*
X191666800Y-122931300D02*
X190655500Y-121920000D01*
X195997600Y-122931300D02*
X191666800Y-122931300D01*
X196360900Y-122568000D02*
X195997600Y-122931300D01*
X190100200Y-77493500D02*
X191346700Y-78740000D01*
X158182200Y-77493500D02*
X190100200Y-77493500D01*
X153506300Y-72817600D02*
X158182200Y-77493500D01*
X153506300Y-71409800D02*
X153506300Y-72817600D01*
X146169900Y-64073400D02*
X153506300Y-71409800D01*
X146169900Y-62976500D02*
X146169900Y-64073400D01*
X136159500Y-52966100D02*
X146169900Y-62976500D01*
X135890000Y-52966100D02*
X136159500Y-52966100D01*
%TO.N,R{slash}~{W}*%
X135890000Y-69596000D02*
X135890000Y-70746100D01*
X225823400Y-91270200D02*
X216835800Y-100257800D01*
X225823400Y-86858600D02*
X225823400Y-91270200D01*
X233307000Y-79375000D02*
X225823400Y-86858600D01*
X234034300Y-79375000D02*
X233307000Y-79375000D01*
X235091500Y-78317800D02*
X234034300Y-79375000D01*
X235091500Y-75050700D02*
X235091500Y-78317800D01*
X248547200Y-61595000D02*
X235091500Y-75050700D01*
X249274600Y-61595000D02*
X248547200Y-61595000D01*
X250464600Y-60405000D02*
X249274600Y-61595000D01*
X250464600Y-54249600D02*
X250464600Y-60405000D01*
X248920000Y-52705000D02*
X250464600Y-54249600D01*
X190142000Y-97724700D02*
X191346700Y-96520000D01*
X163895300Y-97724700D02*
X190142000Y-97724700D01*
X162560000Y-99060000D02*
X163895300Y-97724700D01*
X205672000Y-94232500D02*
X206869000Y-94232500D01*
X203064000Y-96840500D02*
X205672000Y-94232500D01*
X191667200Y-96840500D02*
X203064000Y-96840500D01*
X191346700Y-96520000D02*
X191667200Y-96840500D01*
X133350000Y-130556000D02*
X134500100Y-130556000D01*
X134500100Y-130317700D02*
X134500100Y-130556000D01*
X135531800Y-129286000D02*
X134500100Y-130317700D01*
X137784500Y-129286000D02*
X135531800Y-129286000D01*
X146420500Y-120650000D02*
X137784500Y-129286000D01*
X147647800Y-120650000D02*
X146420500Y-120650000D01*
X154435000Y-113862800D02*
X147647800Y-120650000D01*
X154435000Y-103186400D02*
X154435000Y-113862800D01*
X154234900Y-102986300D02*
X154435000Y-103186400D01*
X154234900Y-87093200D02*
X154234900Y-102986300D01*
X137887800Y-70746100D02*
X154234900Y-87093200D01*
X135890000Y-70746100D02*
X137887800Y-70746100D01*
%TO.N,A3*%
X133350000Y-49276000D02*
X134500100Y-49276000D01*
X222390500Y-124460000D02*
X233680000Y-124460000D01*
X221261700Y-123331200D02*
X222390500Y-124460000D01*
X206587800Y-123331200D02*
X221261700Y-123331200D01*
X205459000Y-124460000D02*
X206587800Y-123331200D01*
X204893300Y-124460000D02*
X205459000Y-124460000D01*
X170591200Y-71670300D02*
X170591200Y-74435000D01*
X158340600Y-71670300D02*
X170591200Y-71670300D01*
X151249900Y-64579600D02*
X158340600Y-71670300D01*
X151249900Y-63209700D02*
X151249900Y-64579600D01*
X138586200Y-50546000D02*
X151249900Y-63209700D01*
X135531800Y-50546000D02*
X138586200Y-50546000D01*
X134500100Y-49514300D02*
X135531800Y-50546000D01*
X134500100Y-49276000D02*
X134500100Y-49514300D01*
X170865200Y-71670300D02*
X170591200Y-71670300D01*
X175189900Y-67345600D02*
X170865200Y-71670300D01*
X187501100Y-67345600D02*
X175189900Y-67345600D01*
X191346700Y-63500000D02*
X187501100Y-67345600D01*
%TO.N,A10*%
X220822300Y-127689000D02*
X220133300Y-127689000D01*
X221233500Y-128100200D02*
X220822300Y-127689000D01*
X247819800Y-128100200D02*
X221233500Y-128100200D01*
X248920000Y-127000000D02*
X247819800Y-128100200D01*
X220133300Y-127689000D02*
X220133300Y-127000000D01*
X166348500Y-118908300D02*
X172390400Y-118908300D01*
X164606800Y-120650000D02*
X166348500Y-118908300D01*
X156210000Y-120650000D02*
X164606800Y-120650000D01*
X147320000Y-129540000D02*
X156210000Y-120650000D01*
X206330500Y-127689000D02*
X220133300Y-127689000D01*
X205579700Y-128439800D02*
X206330500Y-127689000D01*
X185389700Y-128439800D02*
X205579700Y-128439800D01*
X177780100Y-120830200D02*
X185389700Y-128439800D01*
X174312300Y-120830200D02*
X177780100Y-120830200D01*
X172390400Y-118908300D02*
X174312300Y-120830200D01*
X144651000Y-100935600D02*
X144871100Y-100935600D01*
X131338000Y-87622600D02*
X144651000Y-100935600D01*
X131338000Y-69068000D02*
X131338000Y-87622600D01*
X133350000Y-67056000D02*
X131338000Y-69068000D01*
%TO.N,A6*%
X232568700Y-115728700D02*
X233680000Y-116840000D01*
X206004600Y-115728700D02*
X232568700Y-115728700D01*
X204893300Y-116840000D02*
X206004600Y-115728700D01*
X155662600Y-125730000D02*
X153902000Y-123969400D01*
X163090000Y-125730000D02*
X155662600Y-125730000D01*
X165436100Y-128076100D02*
X163090000Y-125730000D01*
X178114100Y-128076100D02*
X165436100Y-128076100D01*
X179578000Y-129540000D02*
X178114100Y-128076100D01*
X184826400Y-120908600D02*
X184805500Y-120929500D01*
X194216400Y-120908600D02*
X184826400Y-120908600D01*
X195798700Y-119326300D02*
X194216400Y-120908600D01*
X202407000Y-119326300D02*
X195798700Y-119326300D01*
X204893300Y-116840000D02*
X202407000Y-119326300D01*
X133111700Y-58046100D02*
X133350000Y-58046100D01*
X130101100Y-61056700D02*
X133111700Y-58046100D01*
X130101100Y-88469600D02*
X130101100Y-61056700D01*
X144409300Y-102777800D02*
X130101100Y-88469600D01*
X145806400Y-102777800D02*
X144409300Y-102777800D01*
X145848100Y-102736100D02*
X145806400Y-102777800D01*
X149400900Y-102736100D02*
X145848100Y-102736100D01*
X151198700Y-104533900D02*
X149400900Y-102736100D01*
X151198700Y-115501300D02*
X151198700Y-104533900D01*
X147320000Y-119380000D02*
X151198700Y-115501300D01*
X133350000Y-56896000D02*
X133350000Y-58046100D01*
%TO.N,D5*%
X206693300Y-137160000D02*
X220133300Y-137160000D01*
X205546800Y-138306500D02*
X206693300Y-137160000D01*
X202607500Y-138306500D02*
X205546800Y-138306500D01*
X197931000Y-133630000D02*
X202607500Y-138306500D01*
X220699100Y-137160000D02*
X220133300Y-137160000D01*
X221800000Y-138260900D02*
X220699100Y-137160000D01*
X247819100Y-138260900D02*
X221800000Y-138260900D01*
X248920000Y-137160000D02*
X247819100Y-138260900D01*
X135890000Y-54356000D02*
X135890000Y-55506100D01*
X190076700Y-80010000D02*
X191346700Y-81280000D01*
X160132900Y-80010000D02*
X190076700Y-80010000D01*
X153106200Y-72983300D02*
X160132900Y-80010000D01*
X153106200Y-71815900D02*
X153106200Y-72983300D01*
X136796400Y-55506100D02*
X153106200Y-71815900D01*
X135890000Y-55506100D02*
X136796400Y-55506100D01*
X163599700Y-115339700D02*
X162560000Y-114300000D01*
X179539000Y-115339700D02*
X163599700Y-115339700D01*
X180848000Y-116648700D02*
X179539000Y-115339700D01*
X180848000Y-119285200D02*
X180848000Y-116648700D01*
X186022800Y-124460000D02*
X180848000Y-119285200D01*
X189738000Y-124460000D02*
X186022800Y-124460000D01*
%TO.N,A7*%
X206004600Y-113188700D02*
X204893300Y-114300000D01*
X232568700Y-113188700D02*
X206004600Y-113188700D01*
X233680000Y-114300000D02*
X232568700Y-113188700D01*
X175937100Y-108119100D02*
X182118000Y-114300000D01*
X162071000Y-108119100D02*
X175937100Y-108119100D01*
X161459800Y-108730300D02*
X162071000Y-108119100D01*
X161459800Y-110619800D02*
X161459800Y-108730300D01*
X150382900Y-121696700D02*
X161459800Y-110619800D01*
X200824700Y-118368600D02*
X204893300Y-114300000D01*
X184326000Y-118368600D02*
X200824700Y-118368600D01*
X183646600Y-117689200D02*
X184326000Y-118368600D01*
X183646600Y-115828600D02*
X183646600Y-117689200D01*
X182118000Y-114300000D02*
X183646600Y-115828600D01*
X133588300Y-60586100D02*
X133350000Y-60586100D01*
X134620000Y-61617800D02*
X133588300Y-60586100D01*
X134620000Y-64895600D02*
X134620000Y-61617800D01*
X135390600Y-65666200D02*
X134620000Y-64895600D01*
X136161400Y-65666200D02*
X135390600Y-65666200D01*
X155283700Y-84788500D02*
X136161400Y-65666200D01*
X155283700Y-114947200D02*
X155283700Y-84788500D01*
X148310900Y-121920000D02*
X155283700Y-114947200D01*
X147320000Y-121920000D02*
X148310900Y-121920000D01*
X133350000Y-59436000D02*
X133350000Y-60586100D01*
%TO.N,D3*%
X247371000Y-143789000D02*
X248920000Y-142240000D01*
X221682300Y-143789000D02*
X247371000Y-143789000D01*
X220133300Y-142240000D02*
X221682300Y-143789000D01*
X175989200Y-109220000D02*
X162560000Y-109220000D01*
X180848000Y-114078800D02*
X175989200Y-109220000D01*
X180848000Y-114504000D02*
X180848000Y-114078800D01*
X181655400Y-115311400D02*
X180848000Y-114504000D01*
X182022500Y-115311400D02*
X181655400Y-115311400D01*
X183246400Y-116535300D02*
X182022500Y-115311400D01*
X183246400Y-117854900D02*
X183246400Y-116535300D01*
X185783700Y-120392200D02*
X183246400Y-117854900D01*
X191265800Y-120392200D02*
X185783700Y-120392200D01*
X192278000Y-119380000D02*
X191265800Y-120392200D01*
X173955000Y-67731900D02*
X174312000Y-67374900D01*
X154968000Y-67731900D02*
X173955000Y-67731900D01*
X153670000Y-66433900D02*
X154968000Y-67731900D01*
X153670000Y-63137600D02*
X153670000Y-66433900D01*
X151964700Y-61432300D02*
X153670000Y-63137600D01*
X150646900Y-61432300D02*
X151964700Y-61432300D01*
X138490600Y-49276000D02*
X150646900Y-61432300D01*
X135890000Y-49276000D02*
X138490600Y-49276000D01*
X187093100Y-76200000D02*
X182611300Y-71718200D01*
X191346700Y-76200000D02*
X187093100Y-76200000D01*
%TO.N,A14*%
X162740900Y-124279100D02*
X162560000Y-124460000D01*
X169850300Y-124279100D02*
X162740900Y-124279100D01*
X171082200Y-125511000D02*
X169850300Y-124279100D01*
X177429300Y-125511000D02*
X171082200Y-125511000D01*
X178086100Y-124854200D02*
X177429300Y-125511000D01*
X178086100Y-122968100D02*
X178086100Y-124854200D01*
X177038000Y-121920000D02*
X178086100Y-122968100D01*
X133350000Y-77216000D02*
X133350000Y-78366100D01*
X152634500Y-105319900D02*
X152634500Y-113300200D01*
X147644600Y-100330000D02*
X152634500Y-105319900D01*
X144651800Y-100330000D02*
X147644600Y-100330000D01*
X131793700Y-87471900D02*
X144651800Y-100330000D01*
X131793700Y-79684100D02*
X131793700Y-87471900D01*
X133111700Y-78366100D02*
X131793700Y-79684100D01*
X133350000Y-78366100D02*
X133111700Y-78366100D01*
%TO.N,A8*%
X192123800Y-108830600D02*
X204950500Y-96003900D01*
X187179800Y-108830600D02*
X192123800Y-108830600D01*
X247808800Y-117951200D02*
X248920000Y-116840000D01*
X221244500Y-117951200D02*
X247808800Y-117951200D01*
X220133300Y-116840000D02*
X221244500Y-117951200D01*
X148505100Y-124460000D02*
X147320000Y-124460000D01*
X159776400Y-113188700D02*
X148505100Y-124460000D01*
X178466700Y-113188700D02*
X159776400Y-113188700D01*
X179578000Y-114300000D02*
X178466700Y-113188700D01*
X133350000Y-61976000D02*
X133350000Y-63126100D01*
X133111700Y-63126100D02*
X133350000Y-63126100D01*
X130524300Y-65713500D02*
X133111700Y-63126100D01*
X130524300Y-88241000D02*
X130524300Y-65713500D01*
X144619300Y-102336000D02*
X130524300Y-88241000D01*
X145399500Y-102336000D02*
X144619300Y-102336000D01*
X145557800Y-102177700D02*
X145399500Y-102336000D01*
%TO.N,D0*%
X205997700Y-133515600D02*
X204893300Y-134620000D01*
X232575600Y-133515600D02*
X205997700Y-133515600D01*
X233680000Y-134620000D02*
X232575600Y-133515600D01*
X192838600Y-115954400D02*
X193951700Y-115954400D01*
X192683600Y-115799400D02*
X192838600Y-115954400D01*
X190778600Y-115799400D02*
X192683600Y-115799400D01*
X189738000Y-116840000D02*
X190778600Y-115799400D01*
X188827000Y-116840000D02*
X189738000Y-116840000D01*
X187804900Y-117862100D02*
X188827000Y-116840000D01*
X186768300Y-117862100D02*
X187804900Y-117862100D01*
X185669300Y-116763100D02*
X186768300Y-117862100D01*
X185669300Y-116004500D02*
X185669300Y-116763100D01*
X185493400Y-115828600D02*
X185669300Y-116004500D01*
X184711000Y-115828600D02*
X185493400Y-115828600D01*
X183388000Y-114505600D02*
X184711000Y-115828600D01*
X183388000Y-114102700D02*
X183388000Y-114505600D01*
X174695300Y-105410000D02*
X183388000Y-114102700D01*
X162215200Y-105410000D02*
X174695300Y-105410000D01*
X161424800Y-104619600D02*
X162215200Y-105410000D01*
X161424800Y-102735200D02*
X161424800Y-104619600D01*
X162560000Y-101600000D02*
X161424800Y-102735200D01*
X182371700Y-68580000D02*
X191346700Y-68580000D01*
X178561700Y-72390000D02*
X182371700Y-68580000D01*
X173559800Y-72390000D02*
X178561700Y-72390000D01*
X170914700Y-75035100D02*
X173559800Y-72390000D01*
X159742100Y-75035100D02*
X170914700Y-75035100D01*
X148590000Y-63883000D02*
X159742100Y-75035100D01*
X148590000Y-61408400D02*
X148590000Y-63883000D01*
X141971800Y-54790200D02*
X148590000Y-61408400D01*
D34*
%TO.N,CLK*%
X188360000Y-115678000D02*
X187198000Y-116840000D01*
X188360000Y-113819000D02*
X188360000Y-115678000D01*
X215819000Y-86360000D02*
X188360000Y-113819000D01*
X217170000Y-86360000D02*
X215819000Y-86360000D01*
X247650000Y-56515000D02*
X248920000Y-55245000D01*
X247650000Y-58284200D02*
X247650000Y-56515000D01*
X234160000Y-71774000D02*
X247650000Y-58284200D01*
X231756000Y-71774000D02*
X234160000Y-71774000D01*
X220980000Y-82550000D02*
X231756000Y-71774000D01*
X162560000Y-91186000D02*
X135890000Y-64516000D01*
X162560000Y-91440000D02*
X162560000Y-91186000D01*
X145796000Y-123190000D02*
X135890000Y-133096000D01*
X147819000Y-123190000D02*
X145796000Y-123190000D01*
X156210000Y-114799000D02*
X147819000Y-123190000D01*
X156210000Y-97790000D02*
X156210000Y-114799000D01*
X162560000Y-91440000D02*
X156210000Y-97790000D01*
X136144000Y-133350000D02*
X135890000Y-133096000D01*
X220980000Y-82550000D02*
X217170000Y-86360000D01*
X217170000Y-86360000D02*
X215819000Y-86360000D01*
X191347000Y-88900000D02*
X191346700Y-88900300D01*
X196850000Y-88900000D02*
X191347000Y-88900000D01*
X199390000Y-86360000D02*
X196850000Y-88900000D01*
X215819000Y-86360000D02*
X199390000Y-86360000D01*
X167640000Y-91440000D02*
X162560000Y-91440000D01*
X168910000Y-90170000D02*
X167640000Y-91440000D01*
X190077000Y-90170000D02*
X168910000Y-90170000D01*
X191346700Y-88900300D02*
X190077000Y-90170000D01*
D33*
X191346700Y-88900300D02*
X191346700Y-88900000D01*
%TO.N,A11*%
X247808800Y-123031200D02*
X248920000Y-121920000D01*
X221527600Y-123031200D02*
X247808800Y-123031200D01*
X220416400Y-121920000D02*
X221527600Y-123031200D01*
X220133300Y-121920000D02*
X220416400Y-121920000D01*
X177038000Y-116840000D02*
X177038000Y-117475000D01*
X207150500Y-121920000D02*
X220133300Y-121920000D01*
X205939300Y-123131200D02*
X207150500Y-121920000D01*
X198037300Y-123131200D02*
X205939300Y-123131200D01*
X195637000Y-125531500D02*
X198037300Y-123131200D01*
X186109900Y-125531500D02*
X195637000Y-125531500D01*
X178053400Y-117475000D02*
X186109900Y-125531500D01*
X177038000Y-117475000D02*
X178053400Y-117475000D01*
X176604900Y-117908100D02*
X177038000Y-117475000D01*
X171976200Y-117908100D02*
X176604900Y-117908100D01*
X171933100Y-117951200D02*
X171976200Y-117908100D01*
X157970200Y-117951200D02*
X171933100Y-117951200D01*
X147651400Y-128270000D02*
X157970200Y-117951200D01*
X147026600Y-128270000D02*
X147651400Y-128270000D01*
X146166800Y-129129800D02*
X147026600Y-128270000D01*
X146166800Y-130926800D02*
X146166800Y-129129800D01*
X147320000Y-132080000D02*
X146166800Y-130926800D01*
X132190000Y-70756000D02*
X133350000Y-69596000D01*
X132190000Y-72646000D02*
X132190000Y-70756000D01*
X132950000Y-73406000D02*
X132190000Y-72646000D01*
X136285800Y-73406000D02*
X132950000Y-73406000D01*
X141396400Y-78516600D02*
X136285800Y-73406000D01*
X141396400Y-86121400D02*
X141396400Y-78516600D01*
X146109100Y-90834100D02*
X141396400Y-86121400D01*
X146109100Y-91819400D02*
X146109100Y-90834100D01*
X146999700Y-92710000D02*
X146109100Y-91819400D01*
X147728000Y-92710000D02*
X146999700Y-92710000D01*
X151777900Y-96759900D02*
X147728000Y-92710000D01*
%TO.N,A1*%
X222107400Y-129540000D02*
X233680000Y-129540000D01*
X220993600Y-128426200D02*
X222107400Y-129540000D01*
X206572800Y-128426200D02*
X220993600Y-128426200D01*
X205459000Y-129540000D02*
X206572800Y-128426200D01*
X204893300Y-129540000D02*
X205459000Y-129540000D01*
X133350000Y-44196000D02*
X133350000Y-45346100D01*
X138799900Y-45346100D02*
X133350000Y-45346100D01*
X147047800Y-53594000D02*
X138799900Y-45346100D01*
X158679000Y-53594000D02*
X147047800Y-53594000D01*
X162271300Y-57186300D02*
X158679000Y-53594000D01*
X190113000Y-57186300D02*
X162271300Y-57186300D01*
X191346700Y-58420000D02*
X190113000Y-57186300D01*
X144393300Y-103336200D02*
X146219100Y-103336200D01*
X129701000Y-88643900D02*
X144393300Y-103336200D01*
X129701000Y-48707600D02*
X129701000Y-88643900D01*
X133062500Y-45346100D02*
X129701000Y-48707600D01*
X133350000Y-45346100D02*
X133062500Y-45346100D01*
%TO.N,A13*%
X134500100Y-74914300D02*
X134500100Y-74676000D01*
X135651600Y-76065800D02*
X134500100Y-74914300D01*
X136373600Y-76065800D02*
X135651600Y-76065800D01*
X140996200Y-80688400D02*
X136373600Y-76065800D01*
X140996200Y-86374000D02*
X140996200Y-80688400D01*
X145586900Y-90964700D02*
X140996200Y-86374000D01*
X145586900Y-93843800D02*
X145586900Y-90964700D01*
X146993100Y-95250000D02*
X145586900Y-93843800D01*
X147606800Y-95250000D02*
X146993100Y-95250000D01*
X152846800Y-100490000D02*
X147606800Y-95250000D01*
X152846800Y-102729700D02*
X152846800Y-100490000D01*
X153767400Y-103650300D02*
X152846800Y-102729700D01*
X153767400Y-112555100D02*
X153767400Y-103650300D01*
X133350000Y-74676000D02*
X134500100Y-74676000D01*
%TO.N,A4*%
X222107400Y-121920000D02*
X233680000Y-121920000D01*
X220996100Y-120808700D02*
X222107400Y-121920000D01*
X206004600Y-120808700D02*
X220996100Y-120808700D01*
X204893300Y-121920000D02*
X206004600Y-120808700D01*
X170613400Y-92710000D02*
X169034200Y-91130800D01*
X196140600Y-92710000D02*
X170613400Y-92710000D01*
X199653600Y-96223000D02*
X196140600Y-92710000D01*
X133350000Y-51816000D02*
X133350000Y-52966100D01*
X133588300Y-52966100D02*
X133350000Y-52966100D01*
X134620000Y-53997800D02*
X133588300Y-52966100D01*
X134620000Y-57281400D02*
X134620000Y-53997800D01*
X135384800Y-58046200D02*
X134620000Y-57281400D01*
X136149700Y-58046200D02*
X135384800Y-58046200D01*
X141425700Y-63322200D02*
X136149700Y-58046200D01*
X141425700Y-65805800D02*
X141425700Y-63322200D01*
X157361600Y-81741700D02*
X141425700Y-65805800D01*
X163258700Y-81741700D02*
X157361600Y-81741700D01*
X166715900Y-85198900D02*
X163258700Y-81741700D01*
%TO.N,A2*%
X232568700Y-125888700D02*
X233680000Y-127000000D01*
X217999200Y-125888700D02*
X232568700Y-125888700D01*
X216887900Y-127000000D02*
X217999200Y-125888700D01*
X204893300Y-127000000D02*
X216887900Y-127000000D01*
X145126000Y-104463400D02*
X145326100Y-104663500D01*
X143825200Y-104463400D02*
X145126000Y-104463400D01*
X138167800Y-98806000D02*
X143825200Y-104463400D01*
X135504500Y-98806000D02*
X138167800Y-98806000D01*
X134500200Y-97801700D02*
X135504500Y-98806000D01*
X134500200Y-96550700D02*
X134500200Y-97801700D01*
X129388500Y-91439000D02*
X134500200Y-96550700D01*
X128127700Y-91439000D02*
X129388500Y-91439000D01*
X134500100Y-46974300D02*
X134500100Y-46736000D01*
X135531800Y-48006000D02*
X134500100Y-46974300D01*
X138517400Y-48006000D02*
X135531800Y-48006000D01*
X150333700Y-59822300D02*
X138517400Y-48006000D01*
X190209000Y-59822300D02*
X150333700Y-59822300D01*
X191346700Y-60960000D02*
X190209000Y-59822300D01*
X133350000Y-46736000D02*
X134500100Y-46736000D01*
%TO.N,D6*%
X221234200Y-135720900D02*
X220133300Y-134620000D01*
X247819100Y-135720900D02*
X221234200Y-135720900D01*
X248920000Y-134620000D02*
X247819100Y-135720900D01*
X206693300Y-134620000D02*
X220133300Y-134620000D01*
X205568600Y-135744700D02*
X206693300Y-134620000D01*
X201489300Y-135744700D02*
X205568600Y-135744700D01*
X199180700Y-133436100D02*
X201489300Y-135744700D01*
X185867900Y-123448700D02*
X181969200Y-119550000D01*
X190852400Y-123448700D02*
X185867900Y-123448700D01*
X191863700Y-124460000D02*
X190852400Y-123448700D01*
X192278000Y-124460000D02*
X191863700Y-124460000D01*
X190218200Y-82691500D02*
X191346700Y-83820000D01*
X170907900Y-82691500D02*
X190218200Y-82691500D01*
X169503000Y-81286600D02*
X170907900Y-82691500D01*
X160843700Y-81286600D02*
X169503000Y-81286600D01*
X152706100Y-73149000D02*
X160843700Y-81286600D01*
X152706100Y-71990100D02*
X152706100Y-73149000D01*
X137612000Y-56896000D02*
X152706100Y-71990100D01*
X135890000Y-56896000D02*
X137612000Y-56896000D01*
%TO.N,A0*%
X217995300Y-132080000D02*
X204893300Y-132080000D01*
X219149200Y-130926100D02*
X217995300Y-132080000D01*
X232526100Y-130926100D02*
X219149200Y-130926100D01*
X233680000Y-132080000D02*
X232526100Y-130926100D01*
X133350000Y-41656000D02*
X133350000Y-42806100D01*
X142683900Y-42806100D02*
X133350000Y-42806100D01*
X143453800Y-43576000D02*
X142683900Y-42806100D01*
X162149100Y-43576000D02*
X143453800Y-43576000D01*
X166516900Y-47943800D02*
X162149100Y-43576000D01*
X183410500Y-47943800D02*
X166516900Y-47943800D01*
X191346700Y-55880000D02*
X183410500Y-47943800D01*
X147126100Y-103946100D02*
X147320000Y-104140000D01*
X144436800Y-103946100D02*
X147126100Y-103946100D01*
X129300900Y-88810200D02*
X144436800Y-103946100D01*
X129300900Y-46616900D02*
X129300900Y-88810200D01*
X133111700Y-42806100D02*
X129300900Y-46616900D01*
X133350000Y-42806100D02*
X133111700Y-42806100D01*
%TO.N,A15*%
X133350000Y-79756000D02*
X133350000Y-80906100D01*
X163660200Y-123020200D02*
X162560000Y-121920000D01*
X175598200Y-123020200D02*
X163660200Y-123020200D01*
X177038000Y-124460000D02*
X175598200Y-123020200D01*
X153167300Y-112823500D02*
X153834800Y-113491000D01*
X153167300Y-103898800D02*
X153167300Y-112823500D01*
X152305100Y-103036600D02*
X153167300Y-103898800D01*
X152305100Y-102470800D02*
X152305100Y-103036600D01*
X147624300Y-97790000D02*
X152305100Y-102470800D01*
X144651100Y-97790000D02*
X147624300Y-97790000D01*
X134500200Y-87639100D02*
X144651100Y-97790000D01*
X134500200Y-86837800D02*
X134500200Y-87639100D01*
X133768400Y-86106000D02*
X134500200Y-86837800D01*
X132984000Y-86106000D02*
X133768400Y-86106000D01*
X132196100Y-85318100D02*
X132984000Y-86106000D01*
X132196100Y-81821700D02*
X132196100Y-85318100D01*
X133111700Y-80906100D02*
X132196100Y-81821700D01*
X133350000Y-80906100D02*
X133111700Y-80906100D01*
%TO.N,D7*%
X231705900Y-132080000D02*
X220133300Y-132080000D01*
X232817100Y-133191200D02*
X231705900Y-132080000D01*
X247808800Y-133191200D02*
X232817100Y-133191200D01*
X248920000Y-132080000D02*
X247808800Y-133191200D01*
X213843300Y-125865700D02*
X214305400Y-126327800D01*
X199227300Y-125865700D02*
X213843300Y-125865700D01*
X198093000Y-127000000D02*
X199227300Y-125865700D01*
X192278000Y-127000000D02*
X198093000Y-127000000D01*
X191266600Y-125988600D02*
X192278000Y-127000000D01*
X185669600Y-125988600D02*
X191266600Y-125988600D01*
X177989200Y-118308200D02*
X185669600Y-125988600D01*
X172141900Y-118308200D02*
X177989200Y-118308200D01*
X172098700Y-118351400D02*
X172141900Y-118308200D01*
X163588600Y-118351400D02*
X172098700Y-118351400D01*
X162560000Y-119380000D02*
X163588600Y-118351400D01*
X135890000Y-59436000D02*
X135890000Y-60586100D01*
X136247400Y-60586100D02*
X135890000Y-60586100D01*
X140535000Y-64873700D02*
X136247400Y-60586100D01*
X140535000Y-65481000D02*
X140535000Y-64873700D01*
X157343200Y-82289200D02*
X140535000Y-65481000D01*
X162912800Y-82289200D02*
X157343200Y-82289200D01*
X166443400Y-85819800D02*
X162912800Y-82289200D01*
X167241100Y-85819800D02*
X166443400Y-85819800D01*
X167802000Y-85258900D02*
X167241100Y-85819800D01*
X190245600Y-85258900D02*
X167802000Y-85258900D01*
X191346700Y-86360000D02*
X190245600Y-85258900D01*
%TO.N,A12*%
X222273100Y-111760000D02*
X233680000Y-111760000D01*
X221172200Y-110659100D02*
X222273100Y-111760000D01*
X219269000Y-110659100D02*
X221172200Y-110659100D01*
X218168100Y-111760000D02*
X219269000Y-110659100D01*
X204893300Y-111760000D02*
X218168100Y-111760000D01*
X198805000Y-128026100D02*
X199835200Y-126995900D01*
X187141300Y-128026100D02*
X198805000Y-128026100D01*
X179545200Y-120430000D02*
X187141300Y-128026100D01*
X175548000Y-120430000D02*
X179545200Y-120430000D01*
X174498000Y-119380000D02*
X175548000Y-120430000D01*
X133350000Y-72136000D02*
X133350000Y-70985900D01*
X154869300Y-114503700D02*
X153480200Y-115892800D01*
X154869300Y-86915800D02*
X154869300Y-114503700D01*
X136399300Y-68445800D02*
X154869300Y-86915800D01*
X135351800Y-68445800D02*
X136399300Y-68445800D01*
X134620000Y-69177600D02*
X135351800Y-68445800D01*
X134620000Y-69954200D02*
X134620000Y-69177600D01*
X133588300Y-70985900D02*
X134620000Y-69954200D01*
X133350000Y-70985900D02*
X133588300Y-70985900D01*
%TO.N,A5*%
X222107400Y-119380000D02*
X233680000Y-119380000D01*
X220996100Y-118268700D02*
X222107400Y-119380000D01*
X206004600Y-118268700D02*
X220996100Y-118268700D01*
X204893300Y-119380000D02*
X206004600Y-118268700D01*
X132842700Y-121550100D02*
X130346000Y-119053400D01*
X138151000Y-121550100D02*
X132842700Y-121550100D01*
X142946900Y-116754200D02*
X138151000Y-121550100D01*
X147234200Y-116754200D02*
X142946900Y-116754200D01*
X147320000Y-116840000D02*
X147234200Y-116754200D01*
%TO.N,D1*%
X206033600Y-136019700D02*
X204893300Y-137160000D01*
X220967100Y-136019700D02*
X206033600Y-136019700D01*
X222107400Y-137160000D02*
X220967100Y-136019700D01*
X233680000Y-137160000D02*
X222107400Y-137160000D01*
X190768700Y-115330700D02*
X193215100Y-115330700D01*
X189738000Y-114300000D02*
X190768700Y-115330700D01*
X186495700Y-112337800D02*
X187775800Y-112337800D01*
X178297900Y-104140000D02*
X186495700Y-112337800D01*
X162560000Y-104140000D02*
X178297900Y-104140000D01*
X182139400Y-48514000D02*
X189895300Y-56269900D01*
X142533600Y-48514000D02*
X182139400Y-48514000D01*
X138215600Y-44196000D02*
X142533600Y-48514000D01*
X135890000Y-44196000D02*
X138215600Y-44196000D01*
%TO.N,D2*%
X194558900Y-116228600D02*
X194558900Y-109866500D01*
X193947500Y-116840000D02*
X194558900Y-116228600D01*
X192278000Y-116840000D02*
X193947500Y-116840000D01*
X221035600Y-100909400D02*
X248920000Y-73025000D01*
X203516000Y-100909400D02*
X221035600Y-100909400D01*
X194558900Y-109866500D02*
X203516000Y-100909400D01*
X194199900Y-109866500D02*
X193812800Y-109479400D01*
X194558900Y-109866500D02*
X194199900Y-109866500D01*
X222390500Y-139700000D02*
X233680000Y-139700000D01*
X221249700Y-138559200D02*
X222390500Y-139700000D01*
X206034100Y-138559200D02*
X221249700Y-138559200D01*
X204893300Y-139700000D02*
X206034100Y-138559200D01*
X139624000Y-46736000D02*
X135890000Y-46736000D01*
X149022000Y-56134000D02*
X139624000Y-46736000D01*
X151915900Y-56134000D02*
X149022000Y-56134000D01*
X154904100Y-59122200D02*
X151915900Y-56134000D01*
X169524200Y-59122200D02*
X154904100Y-59122200D01*
X185999300Y-73660000D02*
X183334400Y-70995100D01*
X191346700Y-73660000D02*
X185999300Y-73660000D01*
%TO.N,~{NMI}*%
X199970000Y-154360000D02*
X199390000Y-154940000D01*
X205590000Y-154360000D02*
X199970000Y-154360000D01*
X205590000Y-154360000D02*
X212090000Y-154360000D01*
X216590000Y-154360000D02*
X217170000Y-154940000D01*
X212090000Y-154360000D02*
X216590000Y-154360000D01*
X135890000Y-67056000D02*
X134739900Y-67056000D01*
X145064600Y-94264600D02*
X147320000Y-96520000D01*
X145064600Y-91204600D02*
X145064600Y-94264600D01*
X139744600Y-85884600D02*
X145064600Y-91204600D01*
X139744600Y-80831400D02*
X139744600Y-85884600D01*
X137279400Y-78366200D02*
X139744600Y-80831400D01*
X135351800Y-78366200D02*
X137279400Y-78366200D01*
X134500200Y-77514600D02*
X135351800Y-78366200D01*
X134500200Y-76677800D02*
X134500200Y-77514600D01*
X133768400Y-75946000D02*
X134500200Y-76677800D01*
X132984000Y-75946000D02*
X133768400Y-75946000D01*
X131738200Y-74700200D02*
X132984000Y-75946000D01*
X131738200Y-69570600D02*
X131738200Y-74700200D01*
X132982800Y-68326000D02*
X131738200Y-69570600D01*
X133708200Y-68326000D02*
X132982800Y-68326000D01*
X134739900Y-67294300D02*
X133708200Y-68326000D01*
X134739900Y-67056000D02*
X134739900Y-67294300D01*
%TO.N,~{RES}*%
X155650000Y-154360000D02*
X149150000Y-154360000D01*
X157610000Y-152400000D02*
X155650000Y-154360000D01*
X161290000Y-152400000D02*
X157610000Y-152400000D01*
X161290000Y-150132800D02*
X161290000Y-152400000D01*
X178151800Y-133271000D02*
X161290000Y-150132800D01*
X192786500Y-64600200D02*
X191346700Y-66040000D01*
X212079000Y-64600200D02*
X192786500Y-64600200D01*
X214449200Y-62230000D02*
X212079000Y-64600200D01*
X231775000Y-62230000D02*
X214449200Y-62230000D01*
X233680000Y-60325000D02*
X231775000Y-62230000D01*
X189423900Y-67962800D02*
X187161800Y-67962800D01*
X191346700Y-66040000D02*
X189423900Y-67962800D01*
X137040100Y-62622300D02*
X137040100Y-61976000D01*
X158237800Y-83820000D02*
X137040100Y-62622300D01*
X162560000Y-83820000D02*
X158237800Y-83820000D01*
X135890000Y-61976000D02*
X137040100Y-61976000D01*
%TO.N,~{IRQ}*%
X135890000Y-72136000D02*
X137040100Y-72136000D01*
X140407700Y-75503600D02*
X137040100Y-72136000D01*
X141796600Y-75503600D02*
X140407700Y-75503600D01*
X141796600Y-85916600D02*
X141796600Y-75503600D01*
X147320000Y-91440000D02*
X141796600Y-85916600D01*
%TO.N,TxD1*%
X158221500Y-75835300D02*
X154119700Y-71733500D01*
X171246200Y-75835300D02*
X158221500Y-75835300D01*
X172305100Y-74776400D02*
X171246200Y-75835300D01*
X178329700Y-74776400D02*
X172305100Y-74776400D01*
X182711100Y-70395000D02*
X178329700Y-74776400D01*
X183583000Y-70395000D02*
X182711100Y-70395000D01*
X185459100Y-72271100D02*
X183583000Y-70395000D01*
X208938900Y-72271100D02*
X185459100Y-72271100D01*
X217710000Y-63500000D02*
X208938900Y-72271100D01*
%TO.N,RxD1*%
X155414400Y-67329700D02*
X155051600Y-66966900D01*
X169106600Y-67329700D02*
X155414400Y-67329700D01*
X174049900Y-62386400D02*
X169106600Y-67329700D01*
X195313000Y-62386400D02*
X174049900Y-62386400D01*
X196386800Y-63460200D02*
X195313000Y-62386400D01*
X207651400Y-63460200D02*
X196386800Y-63460200D01*
X208881600Y-62230000D02*
X207651400Y-63460200D01*
X212329800Y-62230000D02*
X208881600Y-62230000D01*
X213599800Y-60960000D02*
X212329800Y-62230000D01*
X217710000Y-60960000D02*
X213599800Y-60960000D01*
X135890000Y-84836000D02*
X137040100Y-84836000D01*
X139127300Y-82748800D02*
X139127300Y-82061000D01*
X137040100Y-84836000D02*
X139127300Y-82748800D01*
%TO.N,Net-(D1-K)*%
X150876000Y-140716000D02*
X144780000Y-140716000D01*
%TD*%
M02*
