%TF.GenerationSoftware,KiCad,Pcbnew,9.0.1*%
%TF.CreationDate,2025-05-05T08:48:29+02:00*%
%TF.ProjectId,mini-board,6d696e69-2d62-46f6-9172-642e6b696361,rev1*%
%TF.SameCoordinates,Original*%
%TF.FileFunction,Soldermask,Bot*%
%TF.FilePolarity,Negative*%
%FSLAX46Y46*%
G04 Gerber Fmt 4.6, Leading zero omitted, Abs format (unit mm)*
G04 Created by KiCad (PCBNEW 9.0.1) date 2025-05-05 08:48:29*
%MOMM*%
%LPD*%
G01*
G04 APERTURE LIST*
G04 Aperture macros list*
%AMRoundRect*
0 Rectangle with rounded corners*
0 $1 Rounding radius*
0 $2 $3 $4 $5 $6 $7 $8 $9 X,Y pos of 4 corners*
0 Add a 4 corners polygon primitive as box body*
4,1,4,$2,$3,$4,$5,$6,$7,$8,$9,$2,$3,0*
0 Add four circle primitives for the rounded corners*
1,1,$1+$1,$2,$3*
1,1,$1+$1,$4,$5*
1,1,$1+$1,$6,$7*
1,1,$1+$1,$8,$9*
0 Add four rect primitives between the rounded corners*
20,1,$1+$1,$2,$3,$4,$5,0*
20,1,$1+$1,$4,$5,$6,$7,0*
20,1,$1+$1,$6,$7,$8,$9,0*
20,1,$1+$1,$8,$9,$2,$3,0*%
G04 Aperture macros list end*
%ADD10R,1.600000X1.600000*%
%ADD11C,1.600000*%
%ADD12C,3.600000*%
%ADD13O,4.500000X2.500000*%
%ADD14O,1.600000X1.600000*%
%ADD15R,1.700000X1.700000*%
%ADD16O,1.700000X1.700000*%
%ADD17C,3.000000*%
%ADD18RoundRect,0.250000X-0.550000X-0.550000X0.550000X-0.550000X0.550000X0.550000X-0.550000X0.550000X0*%
%ADD19R,1.800000X1.800000*%
%ADD20C,1.800000*%
%ADD21C,2.000000*%
%ADD22C,4.000000*%
%ADD23R,1.300000X1.300000*%
%ADD24C,1.300000*%
%ADD25RoundRect,0.250000X0.600000X-0.600000X0.600000X0.600000X-0.600000X0.600000X-0.600000X-0.600000X0*%
%ADD26C,1.700000*%
%ADD27R,1.422400X1.422400*%
%ADD28C,1.422400*%
%ADD29C,3.500000*%
%ADD30C,2.300000*%
G04 APERTURE END LIST*
D10*
%TO.C,C7*%
X256032000Y-57404000D03*
D11*
X253532000Y-57404000D03*
%TD*%
D12*
%TO.C,H1*%
X130556000Y-28956000D03*
%TD*%
D13*
%TO.C,SW1*%
X223647000Y-38354000D03*
X223647000Y-33854000D03*
X223647000Y-29354000D03*
%TD*%
D11*
%TO.C,R7*%
X199390000Y-154940000D03*
D14*
X199390000Y-147320000D03*
%TD*%
D10*
%TO.C,C29*%
X203240000Y-62360000D03*
D11*
X205740000Y-62360000D03*
%TD*%
%TO.C,C24*%
X186436000Y-45720000D03*
X181436000Y-45720000D03*
%TD*%
%TO.C,C4*%
X161544000Y-42164000D03*
X161544000Y-47164000D03*
%TD*%
D15*
%TO.C,J5*%
X133350000Y-39116000D03*
D16*
X135890000Y-39116000D03*
X133350000Y-41656000D03*
X135890000Y-41656000D03*
X133350000Y-44196000D03*
X135890000Y-44196000D03*
X133350000Y-46736000D03*
X135890000Y-46736000D03*
X133350000Y-49276000D03*
X135890000Y-49276000D03*
X133350000Y-51816000D03*
X135890000Y-51816000D03*
X133350000Y-54356000D03*
X135890000Y-54356000D03*
X133350000Y-56896000D03*
X135890000Y-56896000D03*
X133350000Y-59436000D03*
X135890000Y-59436000D03*
X133350000Y-61976000D03*
X135890000Y-61976000D03*
X133350000Y-64516000D03*
X135890000Y-64516000D03*
X133350000Y-67056000D03*
X135890000Y-67056000D03*
X133350000Y-69596000D03*
X135890000Y-69596000D03*
X133350000Y-72136000D03*
X135890000Y-72136000D03*
X133350000Y-74676000D03*
X135890000Y-74676000D03*
X133350000Y-77216000D03*
X135890000Y-77216000D03*
X133350000Y-79756000D03*
X135890000Y-79756000D03*
X133350000Y-82296000D03*
X135890000Y-82296000D03*
X133350000Y-84836000D03*
X135890000Y-84836000D03*
X133350000Y-87376000D03*
X135890000Y-87376000D03*
%TD*%
D17*
%TO.C,J3*%
X163670000Y-27500000D03*
X143670000Y-27500000D03*
X163670000Y-65500000D03*
X143670000Y-65500000D03*
D15*
X160020000Y-63500000D03*
D16*
X157480000Y-63500000D03*
X154940000Y-63500000D03*
X152400000Y-63500000D03*
X149860000Y-63500000D03*
X147320000Y-63500000D03*
%TD*%
D11*
%TO.C,C34*%
X197612000Y-120436000D03*
X197612000Y-125436000D03*
%TD*%
%TO.C,C33*%
X185420000Y-137668000D03*
X180420000Y-137668000D03*
%TD*%
D18*
%TO.C,U16*%
X204893300Y-104140000D03*
D11*
X204893300Y-106680000D03*
X204893300Y-109220000D03*
X204893300Y-111760000D03*
X204893300Y-114300000D03*
X204893300Y-116840000D03*
X204893300Y-119380000D03*
X204893300Y-121920000D03*
X204893300Y-124460000D03*
X204893300Y-127000000D03*
X204893300Y-129540000D03*
X204893300Y-132080000D03*
X204893300Y-134620000D03*
X204893300Y-137160000D03*
X204893300Y-139700000D03*
X204893300Y-142240000D03*
X220133300Y-142240000D03*
X220133300Y-139700000D03*
X220133300Y-137160000D03*
X220133300Y-134620000D03*
X220133300Y-132080000D03*
X220133300Y-129540000D03*
X220133300Y-127000000D03*
X220133300Y-124460000D03*
X220133300Y-121920000D03*
X220133300Y-119380000D03*
X220133300Y-116840000D03*
X220133300Y-114300000D03*
X220133300Y-111760000D03*
X220133300Y-109220000D03*
X220133300Y-106680000D03*
X220133300Y-104140000D03*
%TD*%
%TO.C,R9*%
X143510000Y-91440000D03*
D14*
X143510000Y-83820000D03*
%TD*%
D12*
%TO.C,H2*%
X255524000Y-28956000D03*
%TD*%
D10*
%TO.C,C6*%
X255992000Y-46736000D03*
D11*
X253492000Y-46736000D03*
%TD*%
D18*
%TO.C,U22*%
X210090000Y-50800000D03*
D11*
X210090000Y-53340000D03*
X210090000Y-55880000D03*
X210090000Y-58420000D03*
X210090000Y-60960000D03*
X210090000Y-63500000D03*
X210090000Y-66040000D03*
X210090000Y-68580000D03*
X217710000Y-68580000D03*
X217710000Y-66040000D03*
X217710000Y-63500000D03*
X217710000Y-60960000D03*
X217710000Y-58420000D03*
X217710000Y-55880000D03*
X217710000Y-53340000D03*
X217710000Y-50800000D03*
%TD*%
%TO.C,C1*%
X166370000Y-94060000D03*
X166370000Y-99060000D03*
%TD*%
D15*
%TO.C,J2*%
X133350000Y-97536000D03*
D16*
X135890000Y-97536000D03*
X133350000Y-100076000D03*
X135890000Y-100076000D03*
X133350000Y-102616000D03*
X135890000Y-102616000D03*
X133350000Y-105156000D03*
X135890000Y-105156000D03*
X133350000Y-107696000D03*
X135890000Y-107696000D03*
X133350000Y-110236000D03*
X135890000Y-110236000D03*
X133350000Y-112776000D03*
X135890000Y-112776000D03*
X133350000Y-115316000D03*
X135890000Y-115316000D03*
X133350000Y-117856000D03*
X135890000Y-117856000D03*
X133350000Y-120396000D03*
X135890000Y-120396000D03*
X133350000Y-122936000D03*
X135890000Y-122936000D03*
X133350000Y-125476000D03*
X135890000Y-125476000D03*
X133350000Y-128016000D03*
X135890000Y-128016000D03*
X133350000Y-130556000D03*
X135890000Y-130556000D03*
X133350000Y-133096000D03*
X135890000Y-133096000D03*
X133350000Y-135636000D03*
X135890000Y-135636000D03*
X133350000Y-138176000D03*
X135890000Y-138176000D03*
X133350000Y-140716000D03*
X135890000Y-140716000D03*
X133350000Y-143256000D03*
X135890000Y-143256000D03*
X133350000Y-145796000D03*
X135890000Y-145796000D03*
%TD*%
D11*
%TO.C,C17*%
X214844000Y-99060000D03*
X209844000Y-99060000D03*
%TD*%
D19*
%TO.C,D1*%
X150876000Y-140716000D03*
D20*
X153416000Y-140716000D03*
%TD*%
D21*
%TO.C,SW2*%
X149150000Y-149860000D03*
X155650000Y-149860000D03*
X149150000Y-154360000D03*
X155650000Y-154360000D03*
%TD*%
D18*
%TO.C,U19*%
X176106700Y-50800000D03*
D11*
X176106700Y-53340000D03*
X176106700Y-55880000D03*
X176106700Y-58420000D03*
X176106700Y-60960000D03*
X176106700Y-63500000D03*
X176106700Y-66040000D03*
X176106700Y-68580000D03*
X176106700Y-71120000D03*
X176106700Y-73660000D03*
X176106700Y-76200000D03*
X176106700Y-78740000D03*
X176106700Y-81280000D03*
X176106700Y-83820000D03*
X176106700Y-86360000D03*
X176106700Y-88900000D03*
X176106700Y-91440000D03*
X176106700Y-93980000D03*
X176106700Y-96520000D03*
X176106700Y-99060000D03*
X191346700Y-99060000D03*
X191346700Y-96520000D03*
X191346700Y-93980000D03*
X191346700Y-91440000D03*
X191346700Y-88900000D03*
X191346700Y-86360000D03*
X191346700Y-83820000D03*
X191346700Y-81280000D03*
X191346700Y-78740000D03*
X191346700Y-76200000D03*
X191346700Y-73660000D03*
X191346700Y-71120000D03*
X191346700Y-68580000D03*
X191346700Y-66040000D03*
X191346700Y-63500000D03*
X191346700Y-60960000D03*
X191346700Y-58420000D03*
X191346700Y-55880000D03*
X191346700Y-53340000D03*
X191346700Y-50800000D03*
%TD*%
%TO.C,R12*%
X157480000Y-27432000D03*
D14*
X157480000Y-35052000D03*
%TD*%
D11*
%TO.C,R10*%
X150368000Y-27432000D03*
D14*
X150368000Y-35052000D03*
%TD*%
D11*
%TO.C,R3*%
X144780000Y-148336000D03*
D14*
X144780000Y-140716000D03*
%TD*%
D12*
%TO.C,H4*%
X130556000Y-153924000D03*
%TD*%
D11*
%TO.C,R11*%
X153924000Y-27432000D03*
D14*
X153924000Y-35052000D03*
%TD*%
D21*
%TO.C,SW3*%
X205590000Y-149860000D03*
X212090000Y-149860000D03*
X205590000Y-154360000D03*
X212090000Y-154360000D03*
%TD*%
D11*
%TO.C,C36*%
X169164000Y-125436000D03*
X169164000Y-120436000D03*
%TD*%
D18*
%TO.C,U2*%
X147320000Y-83820000D03*
D11*
X147320000Y-86360000D03*
X147320000Y-88900000D03*
X147320000Y-91440000D03*
X147320000Y-93980000D03*
X147320000Y-96520000D03*
X147320000Y-99060000D03*
X147320000Y-101600000D03*
X147320000Y-104140000D03*
X147320000Y-106680000D03*
X147320000Y-109220000D03*
X147320000Y-111760000D03*
X147320000Y-114300000D03*
X147320000Y-116840000D03*
X147320000Y-119380000D03*
X147320000Y-121920000D03*
X147320000Y-124460000D03*
X147320000Y-127000000D03*
X147320000Y-129540000D03*
X147320000Y-132080000D03*
X162560000Y-132080000D03*
X162560000Y-129540000D03*
X162560000Y-127000000D03*
X162560000Y-124460000D03*
X162560000Y-121920000D03*
X162560000Y-119380000D03*
X162560000Y-116840000D03*
X162560000Y-114300000D03*
X162560000Y-111760000D03*
X162560000Y-109220000D03*
X162560000Y-106680000D03*
X162560000Y-104140000D03*
X162560000Y-101600000D03*
X162560000Y-99060000D03*
X162560000Y-96520000D03*
X162560000Y-93980000D03*
X162560000Y-91440000D03*
X162560000Y-88900000D03*
X162560000Y-86360000D03*
X162560000Y-83820000D03*
%TD*%
%TO.C,C16*%
X243800000Y-99060000D03*
X238800000Y-99060000D03*
%TD*%
D10*
%TO.C,X1*%
X205740000Y-90170000D03*
D11*
X220980000Y-90170000D03*
X220980000Y-82550000D03*
X205740000Y-82550000D03*
%TD*%
%TO.C,C3*%
X210860000Y-77470000D03*
X215860000Y-77470000D03*
%TD*%
D22*
%TO.C,J8*%
X205540000Y-30480000D03*
X180540000Y-30480000D03*
D10*
X198580000Y-33320000D03*
D11*
X195810000Y-33320000D03*
X193040000Y-33320000D03*
X190270000Y-33320000D03*
X187500000Y-33320000D03*
X197195000Y-30480000D03*
X194425000Y-30480000D03*
X191655000Y-30480000D03*
X188885000Y-30480000D03*
%TD*%
%TO.C,R2*%
X233680000Y-46736000D03*
D14*
X226060000Y-46736000D03*
%TD*%
D18*
%TO.C,U21*%
X233680000Y-52705000D03*
D11*
X233680000Y-55245000D03*
X233680000Y-57785000D03*
X233680000Y-60325000D03*
X233680000Y-62865000D03*
X233680000Y-65405000D03*
X233680000Y-67945000D03*
X233680000Y-70485000D03*
X233680000Y-73025000D03*
X233680000Y-75565000D03*
X233680000Y-78105000D03*
X233680000Y-80645000D03*
X233680000Y-83185000D03*
X233680000Y-85725000D03*
X248920000Y-85725000D03*
X248920000Y-83185000D03*
X248920000Y-80645000D03*
X248920000Y-78105000D03*
X248920000Y-75565000D03*
X248920000Y-73025000D03*
X248920000Y-70485000D03*
X248920000Y-67945000D03*
X248920000Y-65405000D03*
X248920000Y-62865000D03*
X248920000Y-60325000D03*
X248920000Y-57785000D03*
X248920000Y-55245000D03*
X248920000Y-52705000D03*
%TD*%
%TO.C,C35*%
X180420000Y-109220000D03*
X185420000Y-109220000D03*
%TD*%
D23*
%TO.C,U11*%
X161290000Y-152400000D03*
D24*
X162560000Y-151130000D03*
X163830000Y-152400000D03*
%TD*%
D10*
%TO.C,C31*%
X203240000Y-69980000D03*
D11*
X205740000Y-69980000D03*
%TD*%
D25*
%TO.C,J4*%
X178308000Y-148590000D03*
D26*
X178308000Y-146050000D03*
X180848000Y-148590000D03*
X180848000Y-146050000D03*
X183388000Y-148590000D03*
X183388000Y-146050000D03*
X185928000Y-148590000D03*
X185928000Y-146050000D03*
X188468000Y-148590000D03*
X188468000Y-146050000D03*
%TD*%
D27*
%TO.C,U23*%
X184658000Y-116840000D03*
D28*
X182118000Y-114300000D03*
X182118000Y-116840000D03*
X179578000Y-114300000D03*
X179578000Y-116840000D03*
X177038000Y-114300000D03*
X174498000Y-116840000D03*
X177038000Y-116840000D03*
X174498000Y-119380000D03*
X177038000Y-119380000D03*
X174498000Y-121920000D03*
X177038000Y-121920000D03*
X174498000Y-124460000D03*
X177038000Y-124460000D03*
X174498000Y-127000000D03*
X177038000Y-127000000D03*
X174498000Y-129540000D03*
X177038000Y-132080000D03*
X177038000Y-129540000D03*
X179578000Y-132080000D03*
X179578000Y-129540000D03*
X182118000Y-132080000D03*
X182118000Y-129540000D03*
X184658000Y-132080000D03*
X184658000Y-129540000D03*
X187198000Y-132080000D03*
X187198000Y-129540000D03*
X189738000Y-132080000D03*
X192278000Y-129540000D03*
X189738000Y-129540000D03*
X192278000Y-127000000D03*
X189738000Y-127000000D03*
X192278000Y-124460000D03*
X189738000Y-124460000D03*
X192278000Y-121920000D03*
X189738000Y-121920000D03*
X192278000Y-119380000D03*
X189738000Y-119380000D03*
X192278000Y-116840000D03*
X189738000Y-114300000D03*
X189738000Y-116840000D03*
X187198000Y-114300000D03*
X187198000Y-116840000D03*
X184658000Y-114300000D03*
%TD*%
D10*
%TO.C,C30*%
X203240000Y-47120000D03*
D11*
X205740000Y-47120000D03*
%TD*%
D15*
%TO.C,J1*%
X241340000Y-40640000D03*
D26*
X243840000Y-40640000D03*
X243840000Y-38640000D03*
X241340000Y-38640000D03*
D29*
X236570000Y-35930000D03*
X248610000Y-35930000D03*
%TD*%
D11*
%TO.C,C27*%
X216360000Y-45720000D03*
X211360000Y-45720000D03*
%TD*%
D18*
%TO.C,U1*%
X150368000Y-42164000D03*
D11*
X150368000Y-44704000D03*
X150368000Y-47244000D03*
X150368000Y-49784000D03*
X150368000Y-52324000D03*
X150368000Y-54864000D03*
X150368000Y-57404000D03*
X157988000Y-57404000D03*
X157988000Y-54864000D03*
X157988000Y-52324000D03*
X157988000Y-49784000D03*
X157988000Y-47244000D03*
X157988000Y-44704000D03*
X157988000Y-42164000D03*
%TD*%
D30*
%TO.C,Y1*%
X228600000Y-71455000D03*
X228600000Y-66555000D03*
%TD*%
D11*
%TO.C,C9*%
X217170000Y-154940000D03*
X217170000Y-149940000D03*
%TD*%
D10*
%TO.C,C28*%
X203240000Y-54740000D03*
D11*
X205740000Y-54740000D03*
%TD*%
%TO.C,R8*%
X223520000Y-65405000D03*
D14*
X223520000Y-73025000D03*
%TD*%
D12*
%TO.C,H3*%
X255524000Y-153924000D03*
%TD*%
D11*
%TO.C,C26*%
X243840000Y-91440000D03*
X238840000Y-91440000D03*
%TD*%
D18*
%TO.C,U15*%
X233680000Y-104140000D03*
D11*
X233680000Y-106680000D03*
X233680000Y-109220000D03*
X233680000Y-111760000D03*
X233680000Y-114300000D03*
X233680000Y-116840000D03*
X233680000Y-119380000D03*
X233680000Y-121920000D03*
X233680000Y-124460000D03*
X233680000Y-127000000D03*
X233680000Y-129540000D03*
X233680000Y-132080000D03*
X233680000Y-134620000D03*
X233680000Y-137160000D03*
X233680000Y-139700000D03*
X233680000Y-142240000D03*
X248920000Y-142240000D03*
X248920000Y-139700000D03*
X248920000Y-137160000D03*
X248920000Y-134620000D03*
X248920000Y-132080000D03*
X248920000Y-129540000D03*
X248920000Y-127000000D03*
X248920000Y-124460000D03*
X248920000Y-121920000D03*
X248920000Y-119380000D03*
X248920000Y-116840000D03*
X248920000Y-114300000D03*
X248920000Y-111760000D03*
X248920000Y-109220000D03*
X248920000Y-106680000D03*
X248920000Y-104140000D03*
%TD*%
%TO.C,C25*%
X228600000Y-54436000D03*
X228600000Y-59436000D03*
%TD*%
M02*
