M48
; DRILL file {KiCad 9.0.0} date 2025-04-23T14:37:59+0200
; FORMAT={-:-/ absolute / metric / decimal}
; #@! TF.CreationDate,2025-04-23T14:37:59+02:00
; #@! TF.GenerationSoftware,Kicad,Pcbnew,9.0.0
; #@! TF.FileFunction,Plated,1,2,PTH
FMAT,2
METRIC
; #@! TA.AperFunction,Plated,PTH,ViaDrill
T1C0.300
; #@! TA.AperFunction,Plated,PTH,ComponentDrill
T2C0.750
; #@! TA.AperFunction,Plated,PTH,ComponentDrill
T3C0.800
; #@! TA.AperFunction,Plated,PTH,ComponentDrill
T4C0.900
; #@! TA.AperFunction,Plated,PTH,ComponentDrill
T5C0.920
; #@! TA.AperFunction,Plated,PTH,ComponentDrill
T6C1.000
; #@! TA.AperFunction,Plated,PTH,ComponentDrill
T7C1.100
; #@! TA.AperFunction,Plated,PTH,ComponentDrill
T8C1.500
; #@! TA.AperFunction,Plated,PTH,ComponentDrill
T9C2.330
; #@! TA.AperFunction,Plated,PTH,ComponentDrill
T10C3.200
%
G90
G05
T1
X129.945Y-110.906
X131.162Y-82.318
X132.882Y-97.868
X136.878Y-76.786
X137.906Y-87.476
X139.332Y-112.23
X139.367Y-78.46
X139.516Y-81.269
X139.809Y-110.16
X140.152Y-81.872
X142.091Y-86.31
X142.492Y-111.634
X142.912Y-56.32
X143.965Y-54.169
X144.02Y-103.058
X144.1Y-81.626
X144.86Y-89.794
X146.096Y-102.919
X146.234Y-97.614
X149.065Y-74.148
X149.388Y-72.81
X150.102Y-97.318
X151.206Y-68.368
X151.273Y-84.374
X152.602Y-106.508
X152.689Y-70.33
X153.072Y-68.595
X153.09Y-95.25
X154.826Y-74.208
X154.909Y-79.598
X155.013Y-124.533
X156.34Y-113.466
X156.598Y-69.057
X157.557Y-114.06
X157.656Y-70.915
X157.767Y-116.054
X158.193Y-103.055
X158.259Y-82.448
X158.7Y-116.97
X158.793Y-86.607
X159.544Y-87.053
X159.829Y-119.668
X161.28Y-127.585
X163.645Y-79.681
X163.645Y-81.582
X163.96Y-116.583
X164.334Y-83.467
X164.598Y-91.44
X164.661Y-112.009
X165.544Y-106.084
X165.674Y-103.197
X167.462Y-78.091
X167.462Y-86.191
X167.845Y-95.306
X168.539Y-79.727
X168.951Y-93.344
X169.998Y-99.277
X170.049Y-133.913
X170.14Y-114.518
X170.204Y-135.608
X170.94Y-94.91
X172.82Y-132.234
X172.97Y-56.515
X173.286Y-126.884
X173.358Y-133.694
X173.736Y-27.94
X174.708Y-105.168
X175.768Y-136.899
X176.034Y-110.654
X176.403Y-105.011
X177.128Y-133.427
X177.411Y-113.021
X180.848Y-124.46
X181.77Y-110.03
X182.118Y-120.396
X182.411Y-62.903
X182.63Y-71.777
X183.101Y-111.035
X184.077Y-118.94
X184.285Y-111.37
X185.171Y-41.466
X185.171Y-101.485
X185.82Y-97.211
X186.048Y-98.874
X186.055Y-125.857
X186.145Y-82.55
X186.448Y-100.583
X187.072Y-110.73
X187.133Y-109.741
X189.163Y-108.624
X189.724Y-101.662
X190.394Y-110.73
X190.744Y-109.741
X192.594Y-137.516
X193.182Y-112.673
X194.18Y-133.342
X194.264Y-132.387
X195.637Y-58.895
X195.936Y-108.517
X196.851Y-136.62
X197.612Y-142.24
X198.631Y-67.159
X199.126Y-110.167
X200.154Y-131.553
X200.544Y-123.248
X200.819Y-121.528
X201.639Y-71.627
X201.757Y-119.641
X201.975Y-135.643
X202.375Y-134.443
X202.758Y-130.976
X203.066Y-135.037
X203.568Y-129.178
X203.71Y-133.92
X208.112Y-136.683
X211.129Y-127.642
X212.481Y-132.672
X212.883Y-82.221
X216.608Y-127.915
X239.708Y-85.214
X240.41Y-85.655
X242.865Y-83.568
T2
X161.29Y-152.4
X162.56Y-151.13
X163.83Y-152.4
T3
X143.51Y-83.82
X143.51Y-91.44
X143.51Y-93.98
X143.51Y-101.6
X144.78Y-140.716
X144.78Y-148.336
X147.32Y-83.82
X147.32Y-86.36
X147.32Y-88.9
X147.32Y-91.44
X147.32Y-93.98
X147.32Y-96.52
X147.32Y-99.06
X147.32Y-101.6
X147.32Y-104.14
X147.32Y-106.68
X147.32Y-109.22
X147.32Y-111.76
X147.32Y-114.3
X147.32Y-116.84
X147.32Y-119.38
X147.32Y-121.92
X147.32Y-124.46
X147.32Y-127.0
X147.32Y-129.54
X147.32Y-132.08
X162.56Y-83.82
X162.56Y-86.36
X162.56Y-88.9
X162.56Y-91.44
X162.56Y-93.98
X162.56Y-96.52
X162.56Y-99.06
X162.56Y-101.6
X162.56Y-104.14
X162.56Y-106.68
X162.56Y-109.22
X162.56Y-111.76
X162.56Y-114.3
X162.56Y-116.84
X162.56Y-119.38
X162.56Y-121.92
X162.56Y-124.46
X162.56Y-127.0
X162.56Y-129.54
X162.56Y-132.08
X166.37Y-94.06
X166.37Y-99.06
X169.164Y-120.436
X169.164Y-125.436
X174.498Y-116.84
X174.498Y-119.38
X174.498Y-121.92
X174.498Y-124.46
X174.498Y-127.0
X174.498Y-129.54
X176.107Y-50.8
X176.107Y-53.34
X176.107Y-55.88
X176.107Y-58.42
X176.107Y-60.96
X176.107Y-63.5
X176.107Y-66.04
X176.107Y-68.58
X176.107Y-71.12
X176.107Y-73.66
X176.107Y-76.2
X176.107Y-78.74
X176.107Y-81.28
X176.107Y-83.82
X176.107Y-86.36
X176.107Y-88.9
X176.107Y-91.44
X176.107Y-93.98
X176.107Y-96.52
X176.107Y-99.06
X177.038Y-114.3
X177.038Y-116.84
X177.038Y-119.38
X177.038Y-121.92
X177.038Y-124.46
X177.038Y-127.0
X177.038Y-129.54
X177.038Y-132.08
X179.578Y-114.3
X179.578Y-116.84
X179.578Y-129.54
X179.578Y-132.08
X180.42Y-109.22
X180.42Y-137.668
X181.436Y-45.72
X182.118Y-114.3
X182.118Y-116.84
X182.118Y-129.54
X182.118Y-132.08
X184.658Y-114.3
X184.658Y-116.84
X184.658Y-129.54
X184.658Y-132.08
X185.42Y-109.22
X185.42Y-137.668
X186.436Y-45.72
X187.198Y-114.3
X187.198Y-116.84
X187.198Y-129.54
X187.198Y-132.08
X189.738Y-114.3
X189.738Y-116.84
X189.738Y-119.38
X189.738Y-121.92
X189.738Y-124.46
X189.738Y-127.0
X189.738Y-129.54
X189.738Y-132.08
X191.347Y-50.8
X191.347Y-53.34
X191.347Y-55.88
X191.347Y-58.42
X191.347Y-60.96
X191.347Y-63.5
X191.347Y-66.04
X191.347Y-68.58
X191.347Y-71.12
X191.347Y-73.66
X191.347Y-76.2
X191.347Y-78.74
X191.347Y-81.28
X191.347Y-83.82
X191.347Y-86.36
X191.347Y-88.9
X191.347Y-91.44
X191.347Y-93.98
X191.347Y-96.52
X191.347Y-99.06
X192.278Y-116.84
X192.278Y-119.38
X192.278Y-121.92
X192.278Y-124.46
X192.278Y-127.0
X192.278Y-129.54
X197.612Y-120.436
X197.612Y-125.436
X199.39Y-147.32
X199.39Y-154.94
X203.24Y-47.12
X203.24Y-54.74
X203.24Y-62.36
X203.24Y-69.98
X204.893Y-104.14
X204.893Y-106.68
X204.893Y-109.22
X204.893Y-111.76
X204.893Y-114.3
X204.893Y-116.84
X204.893Y-119.38
X204.893Y-121.92
X204.893Y-124.46
X204.893Y-127.0
X204.893Y-129.54
X204.893Y-132.08
X204.893Y-134.62
X204.893Y-137.16
X204.893Y-139.7
X204.893Y-142.24
X205.74Y-47.12
X205.74Y-54.74
X205.74Y-62.36
X205.74Y-69.98
X205.74Y-82.55
X205.74Y-90.17
X209.844Y-99.06
X210.09Y-50.8
X210.09Y-53.34
X210.09Y-55.88
X210.09Y-58.42
X210.09Y-60.96
X210.09Y-63.5
X210.09Y-66.04
X210.09Y-68.58
X210.86Y-77.47
X211.36Y-45.72
X214.844Y-99.06
X215.86Y-77.47
X216.36Y-45.72
X217.17Y-149.94
X217.17Y-154.94
X217.71Y-50.8
X217.71Y-53.34
X217.71Y-55.88
X217.71Y-58.42
X217.71Y-60.96
X217.71Y-63.5
X217.71Y-66.04
X217.71Y-68.58
X220.133Y-104.14
X220.133Y-106.68
X220.133Y-109.22
X220.133Y-111.76
X220.133Y-114.3
X220.133Y-116.84
X220.133Y-119.38
X220.133Y-121.92
X220.133Y-124.46
X220.133Y-127.0
X220.133Y-129.54
X220.133Y-132.08
X220.133Y-134.62
X220.133Y-137.16
X220.133Y-139.7
X220.133Y-142.24
X220.98Y-82.55
X220.98Y-90.17
X223.52Y-65.405
X223.52Y-73.025
X226.06Y-46.736
X228.6Y-54.436
X228.6Y-59.436
X233.68Y-46.736
X233.68Y-52.705
X233.68Y-55.245
X233.68Y-57.785
X233.68Y-60.325
X233.68Y-62.865
X233.68Y-65.405
X233.68Y-67.945
X233.68Y-70.485
X233.68Y-73.025
X233.68Y-75.565
X233.68Y-78.105
X233.68Y-80.645
X233.68Y-83.185
X233.68Y-85.725
X233.68Y-104.14
X233.68Y-106.68
X233.68Y-109.22
X233.68Y-111.76
X233.68Y-114.3
X233.68Y-116.84
X233.68Y-119.38
X233.68Y-121.92
X233.68Y-124.46
X233.68Y-127.0
X233.68Y-129.54
X233.68Y-132.08
X233.68Y-134.62
X233.68Y-137.16
X233.68Y-139.7
X233.68Y-142.24
X238.8Y-99.06
X238.84Y-91.44
X243.8Y-99.06
X243.84Y-91.44
X248.92Y-52.705
X248.92Y-55.245
X248.92Y-57.785
X248.92Y-60.325
X248.92Y-62.865
X248.92Y-65.405
X248.92Y-67.945
X248.92Y-70.485
X248.92Y-73.025
X248.92Y-75.565
X248.92Y-78.105
X248.92Y-80.645
X248.92Y-83.185
X248.92Y-85.725
X248.92Y-104.14
X248.92Y-106.68
X248.92Y-109.22
X248.92Y-111.76
X248.92Y-114.3
X248.92Y-116.84
X248.92Y-119.38
X248.92Y-121.92
X248.92Y-124.46
X248.92Y-127.0
X248.92Y-129.54
X248.92Y-132.08
X248.92Y-134.62
X248.92Y-137.16
X248.92Y-139.7
X248.92Y-142.24
X253.492Y-46.736
X253.532Y-57.404
X255.992Y-46.736
X256.032Y-57.404
T4
X150.876Y-140.716
X153.416Y-140.716
T5
X241.34Y-38.64
X241.34Y-40.64
X243.84Y-38.64
X243.84Y-40.64
T6
X133.35Y-44.704
X133.35Y-47.244
X133.35Y-49.784
X133.35Y-52.324
X133.35Y-54.864
X133.35Y-57.404
X133.35Y-59.944
X133.35Y-62.484
X133.35Y-65.024
X133.35Y-67.564
X133.35Y-70.104
X133.35Y-72.644
X133.35Y-75.184
X133.35Y-77.724
X133.35Y-80.264
X133.35Y-82.804
X133.35Y-85.344
X133.35Y-87.884
X133.35Y-109.88
X133.35Y-112.42
X133.35Y-114.96
X133.35Y-117.5
X133.35Y-120.04
X133.35Y-122.58
X133.35Y-125.12
X133.35Y-127.66
X133.35Y-130.2
X133.35Y-132.74
X133.35Y-135.28
X133.35Y-137.82
X133.35Y-140.36
X133.35Y-142.9
X135.89Y-44.704
X135.89Y-47.244
X135.89Y-49.784
X135.89Y-52.324
X135.89Y-54.864
X135.89Y-57.404
X135.89Y-59.944
X135.89Y-62.484
X135.89Y-65.024
X135.89Y-67.564
X135.89Y-70.104
X135.89Y-72.644
X135.89Y-75.184
X135.89Y-77.724
X135.89Y-80.264
X135.89Y-82.804
X135.89Y-85.344
X135.89Y-87.884
X135.89Y-109.88
X135.89Y-112.42
X135.89Y-114.96
X135.89Y-117.5
X135.89Y-120.04
X135.89Y-122.58
X135.89Y-125.12
X135.89Y-127.66
X135.89Y-130.2
X135.89Y-132.74
X135.89Y-135.28
X135.89Y-137.82
X135.89Y-140.36
X135.89Y-142.9
X147.32Y-63.5
X149.86Y-63.5
X152.4Y-63.5
X154.94Y-63.5
X157.48Y-63.5
X160.02Y-63.5
X178.308Y-146.05
X178.308Y-148.59
X180.848Y-146.05
X180.848Y-148.59
X183.388Y-146.05
X183.388Y-148.59
X185.928Y-146.05
X185.928Y-148.59
X187.5Y-33.32
X188.468Y-146.05
X188.468Y-148.59
X188.885Y-30.48
X190.27Y-33.32
X191.655Y-30.48
X193.04Y-33.32
X194.425Y-30.48
X195.81Y-33.32
X197.195Y-30.48
X198.58Y-33.32
T7
X149.15Y-149.86
X149.15Y-154.36
X155.65Y-149.86
X155.65Y-154.36
X205.59Y-149.86
X205.59Y-154.36
X212.09Y-149.86
X212.09Y-154.36
T8
X228.6Y-66.555
X228.6Y-71.455
T9
X236.57Y-35.93
X248.61Y-35.93
T10
X130.556Y-29.464
X130.556Y-153.924
X180.54Y-30.48
X205.54Y-30.48
X255.524Y-28.956
X255.524Y-153.924
T6
G00X222.647Y-29.354
M15
G01X224.647Y-29.354
M16
G05
G00X222.647Y-33.854
M15
G01X224.647Y-33.854
M16
G05
G00X222.647Y-38.354
M15
G01X224.647Y-38.354
M16
G05
M30
