M48
; DRILL file {KiCad 8.0.2} date 2025-03-02T14:39:10+0100
; FORMAT={-:-/ absolute / inch / decimal}
; #@! TF.CreationDate,2025-03-02T14:39:10+01:00
; #@! TF.GenerationSoftware,Kicad,Pcbnew,8.0.2
; #@! TF.FileFunction,Plated,1,2,PTH
FMAT,2
INCH
; #@! TA.AperFunction,Plated,PTH,ViaDrill
T1C0.0118
; #@! TA.AperFunction,Plated,PTH,ComponentDrill
T2C0.0315
; #@! TA.AperFunction,Plated,PTH,ComponentDrill
T3C0.0354
; #@! TA.AperFunction,Plated,PTH,ComponentDrill
T4C0.0362
; #@! TA.AperFunction,Plated,PTH,ComponentDrill
T5C0.0394
; #@! TA.AperFunction,Plated,PTH,ComponentDrill
T6C0.0433
; #@! TA.AperFunction,Plated,PTH,ComponentDrill
T7C0.0591
; #@! TA.AperFunction,Plated,PTH,ComponentDrill
T8C0.0917
; #@! TA.AperFunction,Plated,PTH,ComponentDrill
T9C0.1260
%
G90
G05
T1
X2.5408Y-4.5281
X2.561Y-4.472
X2.5748Y-4.5957
X2.6042Y-3.5456
X2.6917Y-4.57
X2.7718Y-5.2134
X2.775Y-4.75
X2.8228Y-3.1669
X2.8807Y-3.2963
X3.0404Y-4.5463
X3.0645Y-5.5794
X3.1055Y-4.6281
X3.1492Y-3.925
X3.2467Y-4.9704
X3.2495Y-4.2654
X3.2666Y-3.6602
X3.275Y-2.0455
X3.3Y-4.575
X3.35Y-4.999
X3.4Y-4.575
X3.4105Y-3.2725
X3.4466Y-3.6965
X3.5621Y-3.9931
X3.6074Y-5.1132
X3.7242Y-4.9452
X3.9668Y-4.275
X3.9732Y-4.8868
X3.9751Y-3.0129
X4.0061Y-5.7005
X4.05Y-5.6012
X4.0526Y-4.4975
X4.0857Y-4.2796
X4.1388Y-3.8799
X4.147Y-3.644
X4.1518Y-4.9871
X4.2721Y-3.8969
X4.2737Y-3.818
X4.275Y-4.3899
X4.2888Y-3.6949
X4.3441Y-4.2522
X4.3789Y-4.8258
X4.4157Y-4.9092
X4.5851Y-3.016
X4.5966Y-3.311
X4.6412Y-4.7841
X4.6858Y-4.3249
X4.693Y-4.904
X4.7069Y-3.6657
X4.742Y-4.7659
X5.0099Y-4.3219
X5.0155Y-4.3677
X5.0562Y-3.4878
X5.0622Y-4.3554
X5.1556Y-3.4467
X5.1813Y-2.7659
X5.3083Y-2.7659
X5.3443Y-2.6112
X5.3868Y-3.6367
T2
X2.15Y-3.4
X2.1516Y-2.95
X2.2484Y-3.4
X2.25Y-2.95
X2.4Y-2.725
X2.7Y-2.725
X2.7Y-3.8016
X2.7Y-3.9984
X2.7Y-4.925
X2.7Y-5.225
X2.7Y-5.4016
X2.7Y-5.5984
X2.8281Y-3.35
X2.875Y-2.075
X2.875Y-2.375
X2.9Y-2.6002
X2.9Y-3.2002
X2.9Y-3.5998
X2.9Y-4.1998
X2.9Y-5.2
X2.9Y-5.8
X2.9002Y-4.4502
X2.9002Y-5.0502
X3.0Y-2.6002
X3.0Y-3.2002
X3.0Y-3.5998
X3.0Y-4.1998
X3.0Y-5.2
X3.0Y-5.8
X3.0002Y-4.4502
X3.0002Y-5.0502
X3.025Y-3.35
X3.1Y-2.6002
X3.1Y-3.2002
X3.1Y-3.5998
X3.1Y-4.1998
X3.1Y-5.2
X3.1Y-5.8
X3.1002Y-4.4502
X3.1002Y-5.0502
X3.2Y-2.6002
X3.2Y-3.2002
X3.2Y-3.5998
X3.2Y-4.1998
X3.2Y-5.2
X3.2Y-5.8
X3.2002Y-4.4502
X3.2002Y-5.0502
X3.3Y-2.6002
X3.3Y-3.2002
X3.3Y-3.5998
X3.3Y-4.1998
X3.3Y-4.325
X3.3Y-5.2
X3.3Y-5.8
X3.3002Y-4.4502
X3.3002Y-5.0502
X3.4Y-2.6002
X3.4Y-3.2002
X3.4Y-3.5998
X3.4Y-4.1998
X3.4Y-5.2
X3.4Y-5.8
X3.4002Y-4.4502
X3.4002Y-5.0502
X3.4969Y-4.325
X3.5Y-2.6002
X3.5Y-3.2002
X3.5Y-3.5998
X3.5Y-4.1998
X3.5Y-5.2
X3.5Y-5.8
X3.5002Y-4.4502
X3.5002Y-5.0502
X3.6Y-2.6002
X3.6Y-3.2002
X3.6Y-3.5998
X3.6Y-4.1998
X3.6Y-5.2
X3.6Y-5.8
X3.6002Y-4.4502
X3.6002Y-5.0502
X3.7Y-2.6002
X3.7Y-3.2002
X3.7Y-3.5998
X3.7Y-4.1998
X3.7Y-5.2
X3.7Y-5.8
X3.7002Y-4.4502
X3.7002Y-5.0502
X3.8Y-2.6002
X3.8Y-3.2002
X3.8Y-3.475
X3.8Y-3.5998
X3.8Y-4.1998
X3.8Y-5.2
X3.8Y-5.8
X3.8002Y-4.4502
X3.8002Y-5.0502
X3.8516Y-3.35
X3.9Y-2.6002
X3.9Y-3.2002
X3.9Y-3.5998
X3.9Y-4.1998
X3.9Y-5.2
X3.9Y-5.8
X3.9002Y-4.4502
X3.9002Y-5.0502
X4.0Y-2.6002
X4.0Y-3.2002
X4.0Y-3.5998
X4.0Y-4.1998
X4.0Y-5.2
X4.0Y-5.8
X4.0002Y-4.4502
X4.0002Y-5.0502
X4.0484Y-3.35
X4.1Y-2.6002
X4.1Y-3.2002
X4.1Y-3.475
X4.1Y-3.5998
X4.1Y-4.1998
X4.1Y-5.2
X4.1Y-5.8
X4.1002Y-4.4502
X4.1002Y-5.0502
X4.2Y-2.6002
X4.2Y-3.2002
X4.2Y-3.5998
X4.2Y-4.1998
X4.2Y-5.2
X4.2Y-5.8
X4.2002Y-4.4502
X4.2002Y-5.0502
X4.3Y-5.2
X4.3Y-5.8
X4.3002Y-4.4502
X4.3002Y-5.0502
X4.4Y-5.2
X4.4Y-5.8
X4.4002Y-4.4502
X4.4002Y-5.0502
X4.5Y-2.8
X4.5Y-2.8984
X4.5Y-3.05
X4.5Y-3.1484
X4.5Y-3.3
X4.5Y-3.3984
X4.5002Y-4.4502
X4.5002Y-5.0502
X4.6Y-3.5516
X4.6Y-3.7484
X4.6Y-3.9516
X4.6Y-4.1484
X4.6002Y-4.4502
X4.6002Y-5.0502
X4.65Y-5.5766
X4.65Y-5.7734
X4.6781Y-5.25
X4.7Y-5.425
X4.7002Y-4.4502
X4.7002Y-5.0502
X4.7766Y-2.25
X4.8Y-2.3998
X4.8Y-2.6998
X4.8Y-2.8998
X4.8Y-3.1998
X4.8Y-3.3998
X4.8Y-3.6998
X4.8Y-3.8998
X4.8Y-4.1998
X4.8002Y-4.4502
X4.8002Y-5.0502
X4.875Y-5.25
X4.9Y-2.3998
X4.9Y-2.6998
X4.9Y-2.8998
X4.9Y-3.1998
X4.9Y-3.3998
X4.9Y-3.6998
X4.9Y-3.8998
X4.9Y-4.1998
X4.9734Y-2.25
X5.0Y-2.3998
X5.0Y-2.6998
X5.0Y-2.8998
X5.0Y-3.1998
X5.0Y-3.3998
X5.0Y-3.6998
X5.0Y-3.8998
X5.0Y-4.1998
X5.0Y-5.425
X5.025Y-4.975
X5.025Y-5.275
X5.1Y-2.3998
X5.1Y-2.6998
X5.1Y-2.8998
X5.1Y-3.1998
X5.1Y-3.3998
X5.1Y-3.6998
X5.1Y-3.8998
X5.1Y-4.1998
X5.1Y-4.425
X5.1Y-4.725
X5.125Y-4.975
X5.125Y-5.275
X5.175Y-5.425
X5.2Y-2.3998
X5.2Y-2.6998
X5.2Y-2.8998
X5.2Y-3.1998
X5.2Y-3.3998
X5.2Y-3.6998
X5.2Y-3.8998
X5.2Y-4.1998
X5.225Y-4.975
X5.225Y-5.275
X5.3Y-2.3998
X5.3Y-2.6998
X5.3Y-2.8998
X5.3Y-3.1998
X5.3Y-3.3998
X5.3Y-3.6998
X5.3Y-3.8998
X5.3Y-4.1998
X5.325Y-4.975
X5.325Y-5.275
X5.4Y-2.3998
X5.4Y-2.6998
X5.4Y-2.8998
X5.4Y-3.1998
X5.4Y-3.3998
X5.4Y-3.6998
X5.4Y-3.8998
X5.4Y-4.1998
X5.425Y-4.975
X5.425Y-5.275
X5.475Y-5.425
X5.5Y-2.8998
X5.5Y-3.1998
X5.5Y-3.3998
X5.5Y-3.6998
X5.5Y-3.8998
X5.5Y-4.1998
X5.525Y-4.975
X5.525Y-5.275
X5.5766Y-5.425
X5.6Y-3.3998
X5.6Y-3.6998
X5.6Y-3.8998
X5.6Y-4.1998
X5.625Y-4.975
X5.625Y-5.275
X5.7Y-2.6516
X5.7Y-2.75
X5.7Y-3.3998
X5.7Y-3.6998
X5.7Y-3.8998
X5.7Y-4.1998
X5.7Y-4.425
X5.7Y-4.725
X5.7734Y-5.425
X5.825Y-4.975
X5.825Y-5.275
T3
X5.65Y-5.7
X5.75Y-5.7
T4
X2.3508Y-2.4802
X2.3508Y-2.559
X2.4492Y-2.4802
X2.4492Y-2.559
T5
X2.3Y-3.7
X2.3Y-3.8
X2.3Y-3.9
X2.3Y-4.0
X2.3Y-4.1
X2.3Y-4.2
X2.3Y-4.3
X2.3Y-4.4
X2.3Y-4.5
X2.3Y-4.6
X2.3Y-4.7
X2.3Y-4.8
X2.3Y-4.9
X2.3Y-5.0
X2.3Y-5.1
X2.3Y-5.2
X2.3Y-5.3
X2.3Y-5.4
X2.3Y-5.5
X2.3Y-5.6
X2.4Y-3.7
X2.4Y-3.8
X2.4Y-3.9
X2.4Y-4.0
X2.4Y-4.1
X2.4Y-4.2
X2.4Y-4.3
X2.4Y-4.4
X2.4Y-4.5
X2.4Y-4.6
X2.4Y-4.7
X2.4Y-4.8
X2.4Y-4.9
X2.4Y-5.0
X2.4Y-5.1
X2.4Y-5.2
X2.4Y-5.3
X2.4Y-5.4
X2.4Y-5.5
X2.4Y-5.6
X3.3823Y-2.3167
X3.4368Y-2.2049
X3.4913Y-2.3167
X3.5459Y-2.2049
X3.6004Y-2.3167
X3.6549Y-2.2049
X3.7094Y-2.3167
X3.764Y-2.2049
X3.8185Y-2.3167
X4.6Y-2.1
X4.6Y-2.2
X4.6Y-2.3
X4.6Y-2.4
X4.6Y-2.5
X4.6Y-2.6
T6
X4.7941Y-5.6
X4.7941Y-5.7772
X5.05Y-5.6
X5.05Y-5.7772
X5.222Y-5.6
X5.222Y-5.7772
X5.478Y-5.6
X5.478Y-5.7772
T7
X3.3571Y-3.4
X3.55Y-3.4
T8
X2.163Y-2.3735
X2.637Y-2.3735
T9
X3.1083Y-2.3049
X4.0925Y-2.3049
T5
G00X2.5644Y-2.9457
M15
G01X2.4856Y-2.9457
M16
G05
G00X2.5644Y-3.1228
M15
G01X2.4856Y-3.1228
M16
G05
G00X2.5644Y-3.3
M15
G01X2.4856Y-3.3
M16
G05
M30
