%TF.GenerationSoftware,KiCad,Pcbnew,9.0.1*%
%TF.CreationDate,2025-05-12T07:38:33+02:00*%
%TF.ProjectId,tiny-board,74696e79-2d62-46f6-9172-642e6b696361,3*%
%TF.SameCoordinates,Original*%
%TF.FileFunction,Soldermask,Bot*%
%TF.FilePolarity,Negative*%
%FSLAX46Y46*%
G04 Gerber Fmt 4.6, Leading zero omitted, Abs format (unit mm)*
G04 Created by KiCad (PCBNEW 9.0.1) date 2025-05-12 07:38:33*
%MOMM*%
%LPD*%
G01*
G04 APERTURE LIST*
G04 Aperture macros list*
%AMRoundRect*
0 Rectangle with rounded corners*
0 $1 Rounding radius*
0 $2 $3 $4 $5 $6 $7 $8 $9 X,Y pos of 4 corners*
0 Add a 4 corners polygon primitive as box body*
4,1,4,$2,$3,$4,$5,$6,$7,$8,$9,$2,$3,0*
0 Add four circle primitives for the rounded corners*
1,1,$1+$1,$2,$3*
1,1,$1+$1,$4,$5*
1,1,$1+$1,$6,$7*
1,1,$1+$1,$8,$9*
0 Add four rect primitives between the rounded corners*
20,1,$1+$1,$2,$3,$4,$5,0*
20,1,$1+$1,$4,$5,$6,$7,0*
20,1,$1+$1,$6,$7,$8,$9,0*
20,1,$1+$1,$8,$9,$2,$3,0*%
G04 Aperture macros list end*
%ADD10C,1.600000*%
%ADD11O,1.600000X1.600000*%
%ADD12R,1.600000X1.600000*%
%ADD13RoundRect,0.250000X0.550000X-0.550000X0.550000X0.550000X-0.550000X0.550000X-0.550000X-0.550000X0*%
%ADD14C,2.000000*%
%ADD15RoundRect,0.250000X-0.550000X-0.550000X0.550000X-0.550000X0.550000X0.550000X-0.550000X0.550000X0*%
%ADD16R,1.700000X1.700000*%
%ADD17O,1.700000X1.700000*%
%ADD18R,1.300000X1.300000*%
%ADD19C,1.300000*%
%ADD20R,1.800000X1.800000*%
%ADD21C,1.800000*%
%ADD22C,3.600000*%
%ADD23C,4.000000*%
%ADD24O,4.500000X2.500000*%
%ADD25C,1.700000*%
%ADD26C,3.500000*%
G04 APERTURE END LIST*
D10*
%TO.C,R5*%
X114300000Y-72390000D03*
D11*
X114300000Y-80010000D03*
%TD*%
D12*
%TO.C,C2*%
X56475000Y-85090000D03*
D10*
X53975000Y-85090000D03*
%TD*%
%TO.C,R2*%
X61722000Y-70915000D03*
D11*
X69342000Y-70915000D03*
%TD*%
D12*
%TO.C,C15*%
X85130000Y-79375000D03*
D10*
X87630000Y-79375000D03*
%TD*%
D13*
%TO.C,U7*%
X86995000Y-73025000D03*
D10*
X89535000Y-73025000D03*
X92075000Y-73025000D03*
X94615000Y-73025000D03*
X97155000Y-73025000D03*
X99695000Y-73025000D03*
X102235000Y-73025000D03*
X104775000Y-73025000D03*
X104775000Y-65405000D03*
X102235000Y-65405000D03*
X99695000Y-65405000D03*
X97155000Y-65405000D03*
X94615000Y-65405000D03*
X92075000Y-65405000D03*
X89535000Y-65405000D03*
X86995000Y-65405000D03*
%TD*%
D14*
%TO.C,SW2*%
X74220000Y-147375000D03*
X67720000Y-147375000D03*
X74220000Y-142875000D03*
X67720000Y-142875000D03*
%TD*%
D15*
%TO.C,U2*%
X125730000Y-102870000D03*
D10*
X125730000Y-105410000D03*
X125730000Y-107950000D03*
X125730000Y-110490000D03*
X125730000Y-113030000D03*
X125730000Y-115570000D03*
X125730000Y-118110000D03*
X125730000Y-120650000D03*
X125730000Y-123190000D03*
X125730000Y-125730000D03*
X125730000Y-128270000D03*
X125730000Y-130810000D03*
X125730000Y-133350000D03*
X125730000Y-135890000D03*
X125730000Y-138430000D03*
X125730000Y-140970000D03*
X140970000Y-140970000D03*
X140970000Y-138430000D03*
X140970000Y-135890000D03*
X140970000Y-133350000D03*
X140970000Y-130810000D03*
X140970000Y-128270000D03*
X140970000Y-125730000D03*
X140970000Y-123190000D03*
X140970000Y-120650000D03*
X140970000Y-118110000D03*
X140970000Y-115570000D03*
X140970000Y-113030000D03*
X140970000Y-110490000D03*
X140970000Y-107950000D03*
X140970000Y-105410000D03*
X140970000Y-102870000D03*
%TD*%
%TO.C,R4*%
X85852000Y-144780000D03*
D11*
X78232000Y-144780000D03*
%TD*%
D16*
%TO.C,J3*%
X58928000Y-91440000D03*
D17*
X61468000Y-91440000D03*
X58928000Y-93980000D03*
X61468000Y-93980000D03*
X58928000Y-96520000D03*
X61468000Y-96520000D03*
X58928000Y-99060000D03*
X61468000Y-99060000D03*
X58928000Y-101600000D03*
X61468000Y-101600000D03*
X58928000Y-104140000D03*
X61468000Y-104140000D03*
X58928000Y-106680000D03*
X61468000Y-106680000D03*
X58928000Y-109220000D03*
X61468000Y-109220000D03*
X58928000Y-111760000D03*
X61468000Y-111760000D03*
X58928000Y-114300000D03*
X61468000Y-114300000D03*
X58928000Y-116840000D03*
X61468000Y-116840000D03*
X58928000Y-119380000D03*
X61468000Y-119380000D03*
X58928000Y-121920000D03*
X61468000Y-121920000D03*
X58928000Y-124460000D03*
X61468000Y-124460000D03*
X58928000Y-127000000D03*
X61468000Y-127000000D03*
X58928000Y-129540000D03*
X61468000Y-129540000D03*
X58928000Y-132080000D03*
X61468000Y-132080000D03*
X58928000Y-134620000D03*
X61468000Y-134620000D03*
X58928000Y-137160000D03*
X61468000Y-137160000D03*
X58928000Y-139700000D03*
X61468000Y-139700000D03*
%TD*%
D12*
%TO.C,C4*%
X56555000Y-74930000D03*
D10*
X54055000Y-74930000D03*
%TD*%
%TO.C,C8*%
X115490000Y-103505000D03*
X110490000Y-103505000D03*
%TD*%
D15*
%TO.C,U5*%
X92710000Y-107950000D03*
D10*
X92710000Y-110490000D03*
X92710000Y-113030000D03*
X92710000Y-115570000D03*
X92710000Y-118110000D03*
X92710000Y-120650000D03*
X92710000Y-123190000D03*
X92710000Y-125730000D03*
X92710000Y-128270000D03*
X92710000Y-130810000D03*
X92710000Y-133350000D03*
X92710000Y-135890000D03*
X100330000Y-135890000D03*
X100330000Y-133350000D03*
X100330000Y-130810000D03*
X100330000Y-128270000D03*
X100330000Y-125730000D03*
X100330000Y-123190000D03*
X100330000Y-120650000D03*
X100330000Y-118110000D03*
X100330000Y-115570000D03*
X100330000Y-113030000D03*
X100330000Y-110490000D03*
X100330000Y-107950000D03*
%TD*%
D14*
%TO.C,SW3*%
X93905000Y-142820000D03*
X100405000Y-142820000D03*
X93905000Y-147320000D03*
X100405000Y-147320000D03*
%TD*%
D12*
%TO.C,C14*%
X96560000Y-79375000D03*
D10*
X99060000Y-79375000D03*
%TD*%
D18*
%TO.C,U3*%
X77216000Y-57658000D03*
D19*
X78486000Y-56388000D03*
X79756000Y-57658000D03*
%TD*%
D10*
%TO.C,C6*%
X90245000Y-147820000D03*
X90245000Y-142820000D03*
%TD*%
%TO.C,C10*%
X82550000Y-66715000D03*
X82550000Y-71715000D03*
%TD*%
D20*
%TO.C,D1*%
X76200000Y-78740000D03*
D21*
X78740000Y-78740000D03*
%TD*%
D22*
%TO.C,H4*%
X146685000Y-147320000D03*
%TD*%
D10*
%TO.C,R6*%
X76835000Y-62865000D03*
D11*
X76835000Y-70485000D03*
%TD*%
D23*
%TO.C,J2*%
X112195000Y-56215000D03*
X87195000Y-56215000D03*
D12*
X105235000Y-59055000D03*
D10*
X102465000Y-59055000D03*
X99695000Y-59055000D03*
X96925000Y-59055000D03*
X94155000Y-59055000D03*
X103850000Y-56215000D03*
X101080000Y-56215000D03*
X98310000Y-56215000D03*
X95540000Y-56215000D03*
%TD*%
D22*
%TO.C,H1*%
X52705000Y-53975000D03*
%TD*%
D12*
%TO.C,C12*%
X90845000Y-79375000D03*
D10*
X93345000Y-79375000D03*
%TD*%
D15*
%TO.C,U4*%
X105410000Y-107950000D03*
D10*
X105410000Y-110490000D03*
X105410000Y-113030000D03*
X105410000Y-115570000D03*
X105410000Y-118110000D03*
X105410000Y-120650000D03*
X105410000Y-123190000D03*
X105410000Y-125730000D03*
X105410000Y-128270000D03*
X105410000Y-130810000D03*
X105410000Y-133350000D03*
X105410000Y-135890000D03*
X105410000Y-138430000D03*
X105410000Y-140970000D03*
X120650000Y-140970000D03*
X120650000Y-138430000D03*
X120650000Y-135890000D03*
X120650000Y-133350000D03*
X120650000Y-130810000D03*
X120650000Y-128270000D03*
X120650000Y-125730000D03*
X120650000Y-123190000D03*
X120650000Y-120650000D03*
X120650000Y-118110000D03*
X120650000Y-115570000D03*
X120650000Y-113030000D03*
X120650000Y-110490000D03*
X120650000Y-107950000D03*
%TD*%
D24*
%TO.C,SW1*%
X65417000Y-76520000D03*
X65417000Y-81020000D03*
X65417000Y-85520000D03*
%TD*%
D15*
%TO.C,U1*%
X72898000Y-87630000D03*
D10*
X72898000Y-90170000D03*
X72898000Y-92710000D03*
X72898000Y-95250000D03*
X72898000Y-97790000D03*
X72898000Y-100330000D03*
X72898000Y-102870000D03*
X72898000Y-105410000D03*
X72898000Y-107950000D03*
X72898000Y-110490000D03*
X72898000Y-113030000D03*
X72898000Y-115570000D03*
X72898000Y-118110000D03*
X72898000Y-120650000D03*
X72898000Y-123190000D03*
X72898000Y-125730000D03*
X72898000Y-128270000D03*
X72898000Y-130810000D03*
X72898000Y-133350000D03*
X72898000Y-135890000D03*
X88138000Y-135890000D03*
X88138000Y-133350000D03*
X88138000Y-130810000D03*
X88138000Y-128270000D03*
X88138000Y-125730000D03*
X88138000Y-123190000D03*
X88138000Y-120650000D03*
X88138000Y-118110000D03*
X88138000Y-115570000D03*
X88138000Y-113030000D03*
X88138000Y-110490000D03*
X88138000Y-107950000D03*
X88138000Y-105410000D03*
X88138000Y-102870000D03*
X88138000Y-100330000D03*
X88138000Y-97790000D03*
X88138000Y-95250000D03*
X88138000Y-92710000D03*
X88138000Y-90170000D03*
X88138000Y-87630000D03*
%TD*%
D22*
%TO.C,H3*%
X146685000Y-53975000D03*
%TD*%
D12*
%TO.C,X1*%
X100330000Y-95965000D03*
D10*
X115570000Y-95965000D03*
X115570000Y-88345000D03*
X100330000Y-88345000D03*
%TD*%
D22*
%TO.C,H2*%
X52705000Y-147320000D03*
%TD*%
D10*
%TO.C,C3*%
X93980000Y-89615000D03*
X93980000Y-94615000D03*
%TD*%
%TO.C,Y1*%
X120650000Y-78650000D03*
X120650000Y-73750000D03*
%TD*%
%TO.C,C11*%
X118110000Y-63540000D03*
X118110000Y-68540000D03*
%TD*%
%TO.C,C1*%
X69215000Y-108030000D03*
X69215000Y-113030000D03*
%TD*%
%TO.C,R3*%
X69215000Y-100965000D03*
D11*
X69215000Y-93345000D03*
%TD*%
D16*
%TO.C,J1*%
X64155000Y-64997500D03*
D25*
X66655000Y-64997500D03*
X66655000Y-62997500D03*
X64155000Y-62997500D03*
D26*
X59385000Y-60287500D03*
X71425000Y-60287500D03*
%TD*%
D12*
%TO.C,C13*%
X102364774Y-79375000D03*
D10*
X104864774Y-79375000D03*
%TD*%
%TO.C,C5*%
X145415000Y-102910000D03*
X145415000Y-107910000D03*
%TD*%
D15*
%TO.C,U6*%
X125730000Y-62230000D03*
D10*
X125730000Y-64770000D03*
X125730000Y-67310000D03*
X125730000Y-69850000D03*
X125730000Y-72390000D03*
X125730000Y-74930000D03*
X125730000Y-77470000D03*
X125730000Y-80010000D03*
X125730000Y-82550000D03*
X125730000Y-85090000D03*
X125730000Y-87630000D03*
X125730000Y-90170000D03*
X125730000Y-92710000D03*
X125730000Y-95250000D03*
X140970000Y-95250000D03*
X140970000Y-92710000D03*
X140970000Y-90170000D03*
X140970000Y-87630000D03*
X140970000Y-85090000D03*
X140970000Y-82550000D03*
X140970000Y-80010000D03*
X140970000Y-77470000D03*
X140970000Y-74930000D03*
X140970000Y-72390000D03*
X140970000Y-69850000D03*
X140970000Y-67310000D03*
X140970000Y-64770000D03*
X140970000Y-62230000D03*
%TD*%
%TO.C,R1*%
X146050000Y-67310000D03*
D11*
X146050000Y-74930000D03*
%TD*%
D10*
%TO.C,C7*%
X98980000Y-103505000D03*
X93980000Y-103505000D03*
%TD*%
%TO.C,C9*%
X121920000Y-68540000D03*
X121920000Y-63540000D03*
%TD*%
M02*
