M48
; DRILL file {KiCad 9.0.0} date 2025-03-28T20:37:35+0100
; FORMAT={-:-/ absolute / metric / decimal}
; #@! TF.CreationDate,2025-03-28T20:37:35+01:00
; #@! TF.GenerationSoftware,Kicad,Pcbnew,9.0.0
; #@! TF.FileFunction,Plated,1,2,PTH
FMAT,2
METRIC
; #@! TA.AperFunction,Plated,PTH,ViaDrill
T1C0.300
; #@! TA.AperFunction,Plated,PTH,ComponentDrill
T2C0.800
; #@! TA.AperFunction,Plated,PTH,ComponentDrill
T3C0.900
; #@! TA.AperFunction,Plated,PTH,ComponentDrill
T4C0.920
; #@! TA.AperFunction,Plated,PTH,ComponentDrill
T5C1.000
; #@! TA.AperFunction,Plated,PTH,ComponentDrill
T6C1.100
; #@! TA.AperFunction,Plated,PTH,ComponentDrill
T7C1.500
; #@! TA.AperFunction,Plated,PTH,ComponentDrill
T8C2.330
; #@! TA.AperFunction,Plated,PTH,ComponentDrill
T9C3.200
%
G90
G05
T1
X64.537Y-115.015
X65.05Y-113.588
X65.401Y-116.731
X66.147Y-90.059
X68.369Y-116.077
X70.403Y-132.421
X70.485Y-120.65
X71.699Y-80.44
X73.17Y-83.727
X77.225Y-115.475
X77.837Y-141.716
X78.88Y-117.553
X79.99Y-99.695
X82.465Y-126.248
X82.537Y-108.342
X82.971Y-92.97
X83.185Y-51.955
X83.82Y-116.205
X85.09Y-126.975
X86.36Y-116.205
X86.627Y-83.121
X87.544Y-93.891
X90.477Y-101.425
X91.627Y-129.875
X94.594Y-125.608
X100.477Y-83.227
X100.756Y-108.584
X100.918Y-124.124
X100.93Y-77.75
X101.754Y-144.792
X102.799Y-77.049
X102.87Y-142.27
X102.935Y-114.236
X103.776Y-108.701
X105.126Y-98.549
X105.333Y-92.557
X105.457Y-126.673
X108.511Y-98.982
X108.552Y-96.977
X108.585Y-111.504
X108.936Y-93.849
X110.34Y-108.006
X111.225Y-122.575
X112.16Y-124.694
X116.755Y-84.099
X117.5Y-76.87
X117.887Y-121.515
X119.018Y-109.852
X119.201Y-124.562
X119.554Y-93.109
X120.447Y-121.054
X127.251Y-109.775
X127.393Y-110.939
X128.429Y-88.59
X128.581Y-110.627
X130.952Y-87.547
X136.825Y-92.373
T2
X54.61Y-86.36
X54.65Y-74.93
X57.11Y-86.36
X57.15Y-74.93
X60.96Y-69.215
X68.58Y-69.215
X68.58Y-96.56
X68.58Y-101.56
X68.58Y-125.095
X68.58Y-132.715
X68.58Y-137.2
X68.58Y-142.2
X71.835Y-85.09
X73.025Y-52.705
X73.025Y-60.325
X73.66Y-66.045
X73.66Y-81.285
X73.66Y-91.435
X73.66Y-106.675
X73.66Y-132.08
X73.66Y-147.32
X73.665Y-113.035
X73.665Y-128.275
X76.2Y-66.045
X76.2Y-81.285
X76.2Y-91.435
X76.2Y-106.675
X76.2Y-132.08
X76.2Y-147.32
X76.205Y-113.035
X76.205Y-128.275
X76.835Y-85.09
X78.74Y-66.045
X78.74Y-81.285
X78.74Y-91.435
X78.74Y-106.675
X78.74Y-132.08
X78.74Y-147.32
X78.745Y-113.035
X78.745Y-128.275
X81.28Y-66.045
X81.28Y-81.285
X81.28Y-91.435
X81.28Y-106.675
X81.28Y-132.08
X81.28Y-147.32
X81.285Y-113.035
X81.285Y-128.275
X83.82Y-66.045
X83.82Y-81.285
X83.82Y-91.435
X83.82Y-106.675
X83.82Y-109.855
X83.82Y-132.08
X83.82Y-147.32
X83.825Y-113.035
X83.825Y-128.275
X86.36Y-66.045
X86.36Y-81.285
X86.36Y-91.435
X86.36Y-106.675
X86.36Y-132.08
X86.36Y-147.32
X86.365Y-113.035
X86.365Y-128.275
X88.82Y-109.855
X88.9Y-66.045
X88.9Y-81.285
X88.9Y-91.435
X88.9Y-106.675
X88.9Y-132.08
X88.9Y-147.32
X88.905Y-113.035
X88.905Y-128.275
X91.44Y-66.045
X91.44Y-81.285
X91.44Y-91.435
X91.44Y-106.675
X91.44Y-132.08
X91.44Y-147.32
X91.445Y-113.035
X91.445Y-128.275
X93.98Y-66.045
X93.98Y-81.285
X93.98Y-91.435
X93.98Y-106.675
X93.98Y-132.08
X93.98Y-147.32
X93.985Y-113.035
X93.985Y-128.275
X96.52Y-66.045
X96.52Y-81.285
X96.52Y-88.265
X96.52Y-91.435
X96.52Y-106.675
X96.52Y-132.08
X96.52Y-147.32
X96.525Y-113.035
X96.525Y-128.275
X97.83Y-85.09
X99.06Y-66.045
X99.06Y-81.285
X99.06Y-91.435
X99.06Y-106.675
X99.06Y-132.08
X99.06Y-147.32
X99.065Y-113.035
X99.065Y-128.275
X101.6Y-66.045
X101.6Y-81.285
X101.6Y-91.435
X101.6Y-106.675
X101.6Y-132.08
X101.6Y-147.32
X101.605Y-113.035
X101.605Y-128.275
X102.83Y-85.09
X104.14Y-66.045
X104.14Y-81.285
X104.14Y-88.265
X104.14Y-91.435
X104.14Y-106.675
X104.14Y-132.08
X104.14Y-147.32
X104.145Y-113.035
X104.145Y-128.275
X106.68Y-66.045
X106.68Y-81.285
X106.68Y-91.435
X106.68Y-106.675
X106.68Y-132.08
X106.68Y-147.32
X106.685Y-113.035
X106.685Y-128.275
X109.22Y-132.08
X109.22Y-147.32
X109.225Y-113.035
X109.225Y-128.275
X111.76Y-132.08
X111.76Y-147.32
X111.765Y-113.035
X111.765Y-128.275
X114.3Y-71.12
X114.3Y-73.62
X114.3Y-77.47
X114.3Y-79.97
X114.3Y-83.82
X114.3Y-86.32
X114.305Y-113.035
X114.305Y-128.275
X116.84Y-90.21
X116.84Y-95.21
X116.84Y-100.37
X116.84Y-105.37
X116.845Y-113.035
X116.845Y-128.275
X118.11Y-141.645
X118.11Y-146.645
X118.825Y-133.35
X119.38Y-137.795
X119.385Y-113.035
X119.385Y-128.275
X121.325Y-57.15
X121.92Y-60.955
X121.92Y-68.575
X121.92Y-73.655
X121.92Y-81.275
X121.92Y-86.355
X121.92Y-93.975
X121.92Y-99.055
X121.92Y-106.675
X121.925Y-113.035
X121.925Y-128.275
X123.825Y-133.35
X124.46Y-60.955
X124.46Y-68.575
X124.46Y-73.655
X124.46Y-81.275
X124.46Y-86.355
X124.46Y-93.975
X124.46Y-99.055
X124.46Y-106.675
X126.325Y-57.15
X127.0Y-60.955
X127.0Y-68.575
X127.0Y-73.655
X127.0Y-81.275
X127.0Y-86.355
X127.0Y-93.975
X127.0Y-99.055
X127.0Y-106.675
X127.0Y-137.795
X127.635Y-126.365
X127.635Y-133.985
X129.54Y-60.955
X129.54Y-68.575
X129.54Y-73.655
X129.54Y-81.275
X129.54Y-86.355
X129.54Y-93.975
X129.54Y-99.055
X129.54Y-106.675
X129.54Y-112.395
X129.54Y-120.015
X130.175Y-126.365
X130.175Y-133.985
X131.445Y-137.795
X132.08Y-60.955
X132.08Y-68.575
X132.08Y-73.655
X132.08Y-81.275
X132.08Y-86.355
X132.08Y-93.975
X132.08Y-99.055
X132.08Y-106.675
X132.715Y-126.365
X132.715Y-133.985
X134.62Y-60.955
X134.62Y-68.575
X134.62Y-73.655
X134.62Y-81.275
X134.62Y-86.355
X134.62Y-93.975
X134.62Y-99.055
X134.62Y-106.675
X135.255Y-126.365
X135.255Y-133.985
X137.16Y-60.955
X137.16Y-68.575
X137.16Y-73.655
X137.16Y-81.275
X137.16Y-86.355
X137.16Y-93.975
X137.16Y-99.055
X137.16Y-106.675
X137.795Y-126.365
X137.795Y-133.985
X139.065Y-137.795
X139.7Y-73.655
X139.7Y-81.275
X139.7Y-86.355
X139.7Y-93.975
X139.7Y-99.055
X139.7Y-106.675
X140.335Y-126.365
X140.335Y-133.985
X141.645Y-137.795
X142.24Y-86.355
X142.24Y-93.975
X142.24Y-99.055
X142.24Y-106.675
X142.875Y-126.365
X142.875Y-133.985
X144.78Y-67.35
X144.78Y-69.85
X144.78Y-86.355
X144.78Y-93.975
X144.78Y-99.055
X144.78Y-106.675
X144.78Y-112.395
X144.78Y-120.015
X146.645Y-137.795
X147.955Y-126.365
X147.955Y-133.985
T3
X143.51Y-144.78
X146.05Y-144.78
T4
X59.71Y-62.997
X59.71Y-64.998
X62.21Y-62.997
X62.21Y-64.998
T5
X58.42Y-93.98
X58.42Y-96.52
X58.42Y-99.06
X58.42Y-101.6
X58.42Y-104.14
X58.42Y-106.68
X58.42Y-109.22
X58.42Y-111.76
X58.42Y-114.3
X58.42Y-116.84
X58.42Y-119.38
X58.42Y-121.92
X58.42Y-124.46
X58.42Y-127.0
X58.42Y-129.54
X58.42Y-132.08
X58.42Y-134.62
X58.42Y-137.16
X58.42Y-139.7
X58.42Y-142.24
X60.96Y-93.98
X60.96Y-96.52
X60.96Y-99.06
X60.96Y-101.6
X60.96Y-104.14
X60.96Y-106.68
X60.96Y-109.22
X60.96Y-111.76
X60.96Y-114.3
X60.96Y-116.84
X60.96Y-119.38
X60.96Y-121.92
X60.96Y-124.46
X60.96Y-127.0
X60.96Y-129.54
X60.96Y-132.08
X60.96Y-134.62
X60.96Y-137.16
X60.96Y-139.7
X60.96Y-142.24
X85.91Y-58.845
X87.295Y-56.005
X88.68Y-58.845
X90.065Y-56.005
X91.45Y-58.845
X92.835Y-56.005
X94.22Y-58.845
X95.605Y-56.005
X96.99Y-58.845
T6
X121.77Y-142.24
X121.77Y-146.74
X128.27Y-142.24
X128.27Y-146.74
X132.64Y-142.24
X132.64Y-146.74
X139.14Y-142.24
X139.14Y-146.74
T7
X85.27Y-86.36
X90.17Y-86.36
T8
X54.94Y-60.287
X66.98Y-60.287
T9
X78.95Y-58.545
X103.95Y-58.545
T5
G00X65.135Y-74.82
M15
G01X63.135Y-74.82
M16
G05
G00X65.135Y-79.32
M15
G01X63.135Y-79.32
M16
G05
G00X65.135Y-83.82
M15
G01X63.135Y-83.82
M16
G05
M30
