M48
; DRILL file {KiCad 9.0.1} date 2025-05-10T17:14:17+0200
; FORMAT={-:-/ absolute / metric / decimal}
; #@! TF.CreationDate,2025-05-10T17:14:17+02:00
; #@! TF.GenerationSoftware,Kicad,Pcbnew,9.0.1
; #@! TF.FileFunction,Plated,1,2,PTH
FMAT,2
METRIC
; #@! TA.AperFunction,Plated,PTH,ViaDrill
T1C0.300
; #@! TA.AperFunction,Plated,PTH,ComponentDrill
T2C0.750
; #@! TA.AperFunction,Plated,PTH,ComponentDrill
T3C0.800
; #@! TA.AperFunction,Plated,PTH,ComponentDrill
T4C0.900
; #@! TA.AperFunction,Plated,PTH,ComponentDrill
T5C0.920
; #@! TA.AperFunction,Plated,PTH,ComponentDrill
T6C1.000
; #@! TA.AperFunction,Plated,PTH,ComponentDrill
T7C1.100
; #@! TA.AperFunction,Plated,PTH,ComponentDrill
T8C1.500
; #@! TA.AperFunction,Plated,PTH,ComponentDrill
T9C2.330
; #@! TA.AperFunction,Plated,PTH,ComponentDrill
T10C3.200
%
G90
G05
T1
X54.784Y-83.654
X63.543Y-124.933
X64.01Y-127.967
X65.057Y-125.815
X66.0Y-124.605
X66.657Y-123.642
X67.647Y-127.51
X67.726Y-119.403
X68.2Y-126.839
X68.256Y-102.487
X68.341Y-122.748
X71.567Y-98.31
X79.743Y-99.939
X79.809Y-138.342
X81.056Y-140.332
X81.42Y-138.167
X81.963Y-135.249
X89.242Y-138.009
X89.658Y-111.087
X89.744Y-108.465
X91.262Y-124.594
X91.643Y-139.079
X94.117Y-123.328
X94.702Y-119.855
X97.444Y-129.469
X97.734Y-101.326
X98.412Y-112.802
X98.939Y-112.196
X101.737Y-125.228
X102.261Y-110.014
X103.355Y-123.721
X103.423Y-128.503
X103.992Y-118.027
X107.134Y-143.651
X108.841Y-131.035
X108.96Y-82.733
X108.995Y-138.051
X118.558Y-113.299
X121.872Y-100.497
X122.23Y-123.17
X124.314Y-105.801
X127.635Y-140.97
X133.35Y-86.36
X135.507Y-102.116
X136.824Y-99.647
X137.426Y-98.177
X138.696Y-97.474
X139.1Y-96.025
X139.9Y-96.033
T2
X77.216Y-57.658
X78.486Y-56.388
X79.756Y-57.658
T3
X53.975Y-85.09
X54.055Y-74.93
X56.475Y-85.09
X56.555Y-74.93
X61.722Y-70.915
X69.215Y-93.345
X69.215Y-100.965
X69.215Y-108.03
X69.215Y-113.03
X69.342Y-70.915
X72.898Y-87.63
X72.898Y-90.17
X72.898Y-92.71
X72.898Y-95.25
X72.898Y-97.79
X72.898Y-100.33
X72.898Y-102.87
X72.898Y-105.41
X72.898Y-107.95
X72.898Y-110.49
X72.898Y-113.03
X72.898Y-115.57
X72.898Y-118.11
X72.898Y-120.65
X72.898Y-123.19
X72.898Y-125.73
X72.898Y-128.27
X72.898Y-130.81
X72.898Y-133.35
X72.898Y-135.89
X76.835Y-62.865
X76.835Y-70.485
X78.232Y-144.78
X82.55Y-66.715
X82.55Y-71.715
X85.13Y-79.375
X85.852Y-144.78
X86.995Y-65.405
X86.995Y-73.025
X87.63Y-79.375
X88.138Y-87.63
X88.138Y-90.17
X88.138Y-92.71
X88.138Y-95.25
X88.138Y-97.79
X88.138Y-100.33
X88.138Y-102.87
X88.138Y-105.41
X88.138Y-107.95
X88.138Y-110.49
X88.138Y-113.03
X88.138Y-115.57
X88.138Y-118.11
X88.138Y-120.65
X88.138Y-123.19
X88.138Y-125.73
X88.138Y-128.27
X88.138Y-130.81
X88.138Y-133.35
X88.138Y-135.89
X89.535Y-65.405
X89.535Y-73.025
X90.245Y-142.82
X90.245Y-147.82
X90.845Y-79.375
X92.075Y-65.405
X92.075Y-73.025
X92.71Y-107.95
X92.71Y-110.49
X92.71Y-113.03
X92.71Y-115.57
X92.71Y-118.11
X92.71Y-120.65
X92.71Y-123.19
X92.71Y-125.73
X92.71Y-128.27
X92.71Y-130.81
X92.71Y-133.35
X92.71Y-135.89
X93.345Y-79.375
X93.98Y-89.615
X93.98Y-94.615
X93.98Y-103.505
X94.615Y-65.405
X94.615Y-73.025
X96.56Y-79.375
X97.155Y-65.405
X97.155Y-73.025
X98.98Y-103.505
X99.06Y-79.375
X99.695Y-65.405
X99.695Y-73.025
X100.33Y-88.345
X100.33Y-95.965
X100.33Y-107.95
X100.33Y-110.49
X100.33Y-113.03
X100.33Y-115.57
X100.33Y-118.11
X100.33Y-120.65
X100.33Y-123.19
X100.33Y-125.73
X100.33Y-128.27
X100.33Y-130.81
X100.33Y-133.35
X100.33Y-135.89
X102.235Y-65.405
X102.235Y-73.025
X102.365Y-79.375
X104.775Y-65.405
X104.775Y-73.025
X104.865Y-79.375
X105.41Y-107.95
X105.41Y-110.49
X105.41Y-113.03
X105.41Y-115.57
X105.41Y-118.11
X105.41Y-120.65
X105.41Y-123.19
X105.41Y-125.73
X105.41Y-128.27
X105.41Y-130.81
X105.41Y-133.35
X105.41Y-135.89
X105.41Y-138.43
X105.41Y-140.97
X110.49Y-103.505
X114.3Y-72.39
X114.3Y-80.01
X115.49Y-103.505
X115.57Y-88.345
X115.57Y-95.965
X118.11Y-63.54
X118.11Y-68.54
X120.65Y-107.95
X120.65Y-110.49
X120.65Y-113.03
X120.65Y-115.57
X120.65Y-118.11
X120.65Y-120.65
X120.65Y-123.19
X120.65Y-125.73
X120.65Y-128.27
X120.65Y-130.81
X120.65Y-133.35
X120.65Y-135.89
X120.65Y-138.43
X120.65Y-140.97
X121.92Y-63.54
X121.92Y-68.54
X125.73Y-62.23
X125.73Y-64.77
X125.73Y-67.31
X125.73Y-69.85
X125.73Y-72.39
X125.73Y-74.93
X125.73Y-77.47
X125.73Y-80.01
X125.73Y-82.55
X125.73Y-85.09
X125.73Y-87.63
X125.73Y-90.17
X125.73Y-92.71
X125.73Y-95.25
X125.73Y-102.87
X125.73Y-105.41
X125.73Y-107.95
X125.73Y-110.49
X125.73Y-113.03
X125.73Y-115.57
X125.73Y-118.11
X125.73Y-120.65
X125.73Y-123.19
X125.73Y-125.73
X125.73Y-128.27
X125.73Y-130.81
X125.73Y-133.35
X125.73Y-135.89
X125.73Y-138.43
X125.73Y-140.97
X140.97Y-62.23
X140.97Y-64.77
X140.97Y-67.31
X140.97Y-69.85
X140.97Y-72.39
X140.97Y-74.93
X140.97Y-77.47
X140.97Y-80.01
X140.97Y-82.55
X140.97Y-85.09
X140.97Y-87.63
X140.97Y-90.17
X140.97Y-92.71
X140.97Y-95.25
X140.97Y-102.87
X140.97Y-105.41
X140.97Y-107.95
X140.97Y-110.49
X140.97Y-113.03
X140.97Y-115.57
X140.97Y-118.11
X140.97Y-120.65
X140.97Y-123.19
X140.97Y-125.73
X140.97Y-128.27
X140.97Y-130.81
X140.97Y-133.35
X140.97Y-135.89
X140.97Y-138.43
X140.97Y-140.97
X145.415Y-102.91
X145.415Y-107.91
X146.05Y-67.31
X146.05Y-74.93
T4
X76.2Y-78.74
X78.74Y-78.74
T5
X64.155Y-62.997
X64.155Y-64.998
X66.655Y-62.997
X66.655Y-64.998
T6
X58.928Y-91.44
X58.928Y-93.98
X58.928Y-96.52
X58.928Y-99.06
X58.928Y-101.6
X58.928Y-104.14
X58.928Y-106.68
X58.928Y-109.22
X58.928Y-111.76
X58.928Y-114.3
X58.928Y-116.84
X58.928Y-119.38
X58.928Y-121.92
X58.928Y-124.46
X58.928Y-127.0
X58.928Y-129.54
X58.928Y-132.08
X58.928Y-134.62
X58.928Y-137.16
X58.928Y-139.7
X61.468Y-91.44
X61.468Y-93.98
X61.468Y-96.52
X61.468Y-99.06
X61.468Y-101.6
X61.468Y-104.14
X61.468Y-106.68
X61.468Y-109.22
X61.468Y-111.76
X61.468Y-114.3
X61.468Y-116.84
X61.468Y-119.38
X61.468Y-121.92
X61.468Y-124.46
X61.468Y-127.0
X61.468Y-129.54
X61.468Y-132.08
X61.468Y-134.62
X61.468Y-137.16
X61.468Y-139.7
X94.155Y-59.055
X95.54Y-56.215
X96.925Y-59.055
X98.31Y-56.215
X99.695Y-59.055
X101.08Y-56.215
X102.465Y-59.055
X103.85Y-56.215
X105.235Y-59.055
T7
X67.72Y-142.875
X67.72Y-147.375
X74.22Y-142.875
X74.22Y-147.375
X93.905Y-142.82
X93.905Y-147.32
X100.405Y-142.82
X100.405Y-147.32
T8
X120.65Y-73.75
X120.65Y-78.65
T9
X59.385Y-60.287
X71.425Y-60.287
T10
X52.705Y-53.975
X52.705Y-147.32
X87.195Y-56.215
X112.195Y-56.215
X146.685Y-53.975
X146.685Y-147.32
T6
G00X66.417Y-76.52
M15
G01X64.417Y-76.52
M16
G05
G00X66.417Y-81.02
M15
G01X64.417Y-81.02
M16
G05
G00X66.417Y-85.52
M15
G01X64.417Y-85.52
M16
G05
M30
