%TF.GenerationSoftware,KiCad,Pcbnew,9.0.0*%
%TF.CreationDate,2025-03-28T20:37:34+01:00*%
%TF.ProjectId,tiny-board,74696e79-2d62-46f6-9172-642e6b696361,rev?*%
%TF.SameCoordinates,Original*%
%TF.FileFunction,Soldermask,Bot*%
%TF.FilePolarity,Negative*%
%FSLAX46Y46*%
G04 Gerber Fmt 4.6, Leading zero omitted, Abs format (unit mm)*
G04 Created by KiCad (PCBNEW 9.0.0) date 2025-03-28 20:37:34*
%MOMM*%
%LPD*%
G01*
G04 APERTURE LIST*
%ADD10C,1.600000*%
%ADD11C,2.300000*%
%ADD12R,1.600000X1.600000*%
%ADD13O,1.600000X1.600000*%
%ADD14C,2.000000*%
%ADD15R,1.800000X1.800000*%
%ADD16C,1.800000*%
%ADD17R,1.700000X1.700000*%
%ADD18O,1.700000X1.700000*%
%ADD19O,4.500000X2.500000*%
%ADD20C,4.000000*%
%ADD21C,1.700000*%
%ADD22C,3.500000*%
G04 APERTURE END LIST*
D10*
%TO.C,C5*%
X118110000Y-141645000D03*
X118110000Y-146645000D03*
%TD*%
D11*
%TO.C,Y1*%
X90170000Y-86360000D03*
X85270000Y-86360000D03*
%TD*%
D12*
%TO.C,C7*%
X57110000Y-86360000D03*
D10*
X54610000Y-86360000D03*
%TD*%
%TO.C,C10*%
X121325000Y-57150000D03*
X126325000Y-57150000D03*
%TD*%
%TO.C,R5*%
X60960000Y-69215000D03*
D13*
X68580000Y-69215000D03*
%TD*%
D14*
%TO.C,SW1*%
X128270000Y-146740000D03*
X121770000Y-146740000D03*
X128270000Y-142240000D03*
X121770000Y-142240000D03*
%TD*%
D12*
%TO.C,C16*%
X114300000Y-83820000D03*
D10*
X114300000Y-86320000D03*
%TD*%
%TO.C,C13*%
X76835000Y-85090000D03*
X71835000Y-85090000D03*
%TD*%
%TO.C,R6*%
X139065000Y-137795000D03*
D13*
X131445000Y-137795000D03*
%TD*%
D12*
%TO.C,C8*%
X57150000Y-74930000D03*
D10*
X54650000Y-74930000D03*
%TD*%
D12*
%TO.C,U5*%
X73660000Y-147320000D03*
D13*
X76200000Y-147320000D03*
X78740000Y-147320000D03*
X81280000Y-147320000D03*
X83820000Y-147320000D03*
X86360000Y-147320000D03*
X88900000Y-147320000D03*
X91440000Y-147320000D03*
X93980000Y-147320000D03*
X96520000Y-147320000D03*
X99060000Y-147320000D03*
X101600000Y-147320000D03*
X104140000Y-147320000D03*
X106680000Y-147320000D03*
X109220000Y-147320000D03*
X111760000Y-147320000D03*
X111760000Y-132080000D03*
X109220000Y-132080000D03*
X106680000Y-132080000D03*
X104140000Y-132080000D03*
X101600000Y-132080000D03*
X99060000Y-132080000D03*
X96520000Y-132080000D03*
X93980000Y-132080000D03*
X91440000Y-132080000D03*
X88900000Y-132080000D03*
X86360000Y-132080000D03*
X83820000Y-132080000D03*
X81280000Y-132080000D03*
X78740000Y-132080000D03*
X76200000Y-132080000D03*
X73660000Y-132080000D03*
%TD*%
D14*
%TO.C,SW2*%
X132640000Y-142240000D03*
X139140000Y-142240000D03*
X132640000Y-146740000D03*
X139140000Y-146740000D03*
%TD*%
D10*
%TO.C,C6*%
X141645000Y-137795000D03*
X146645000Y-137795000D03*
%TD*%
%TO.C,R8*%
X104140000Y-88265000D03*
D13*
X96520000Y-88265000D03*
%TD*%
D10*
%TO.C,C1*%
X83820000Y-109855000D03*
X88820000Y-109855000D03*
%TD*%
%TO.C,R7*%
X73025000Y-52705000D03*
D13*
X73025000Y-60325000D03*
%TD*%
D15*
%TO.C,D1*%
X143510000Y-144780000D03*
D16*
X146050000Y-144780000D03*
%TD*%
D17*
%TO.C,J2*%
X58420000Y-93980000D03*
D18*
X60960000Y-93980000D03*
X58420000Y-96520000D03*
X60960000Y-96520000D03*
X58420000Y-99060000D03*
X60960000Y-99060000D03*
X58420000Y-101600000D03*
X60960000Y-101600000D03*
X58420000Y-104140000D03*
X60960000Y-104140000D03*
X58420000Y-106680000D03*
X60960000Y-106680000D03*
X58420000Y-109220000D03*
X60960000Y-109220000D03*
X58420000Y-111760000D03*
X60960000Y-111760000D03*
X58420000Y-114300000D03*
X60960000Y-114300000D03*
X58420000Y-116840000D03*
X60960000Y-116840000D03*
X58420000Y-119380000D03*
X60960000Y-119380000D03*
X58420000Y-121920000D03*
X60960000Y-121920000D03*
X58420000Y-124460000D03*
X60960000Y-124460000D03*
X58420000Y-127000000D03*
X60960000Y-127000000D03*
X58420000Y-129540000D03*
X60960000Y-129540000D03*
X58420000Y-132080000D03*
X60960000Y-132080000D03*
X58420000Y-134620000D03*
X60960000Y-134620000D03*
X58420000Y-137160000D03*
X60960000Y-137160000D03*
X58420000Y-139700000D03*
X60960000Y-139700000D03*
X58420000Y-142240000D03*
X60960000Y-142240000D03*
%TD*%
D12*
%TO.C,U3*%
X121920000Y-106675000D03*
D13*
X124460000Y-106675000D03*
X127000000Y-106675000D03*
X129540000Y-106675000D03*
X132080000Y-106675000D03*
X134620000Y-106675000D03*
X137160000Y-106675000D03*
X139700000Y-106675000D03*
X142240000Y-106675000D03*
X144780000Y-106675000D03*
X144780000Y-99055000D03*
X142240000Y-99055000D03*
X139700000Y-99055000D03*
X137160000Y-99055000D03*
X134620000Y-99055000D03*
X132080000Y-99055000D03*
X129540000Y-99055000D03*
X127000000Y-99055000D03*
X124460000Y-99055000D03*
X121920000Y-99055000D03*
%TD*%
D12*
%TO.C,U7*%
X121920000Y-93975000D03*
D13*
X124460000Y-93975000D03*
X127000000Y-93975000D03*
X129540000Y-93975000D03*
X132080000Y-93975000D03*
X134620000Y-93975000D03*
X137160000Y-93975000D03*
X139700000Y-93975000D03*
X142240000Y-93975000D03*
X144780000Y-93975000D03*
X144780000Y-86355000D03*
X142240000Y-86355000D03*
X139700000Y-86355000D03*
X137160000Y-86355000D03*
X134620000Y-86355000D03*
X132080000Y-86355000D03*
X129540000Y-86355000D03*
X127000000Y-86355000D03*
X124460000Y-86355000D03*
X121920000Y-86355000D03*
%TD*%
D10*
%TO.C,R3*%
X147955000Y-126365000D03*
D13*
X147955000Y-133985000D03*
%TD*%
D10*
%TO.C,C12*%
X102830000Y-85090000D03*
X97830000Y-85090000D03*
%TD*%
D12*
%TO.C,C18*%
X114300000Y-77470000D03*
D10*
X114300000Y-79970000D03*
%TD*%
D19*
%TO.C,SW3*%
X64135000Y-74820000D03*
X64135000Y-79320000D03*
X64135000Y-83820000D03*
%TD*%
D10*
%TO.C,C11*%
X68580000Y-96560000D03*
X68580000Y-101560000D03*
%TD*%
%TO.C,C14*%
X116840000Y-100370000D03*
X116840000Y-105370000D03*
%TD*%
D12*
%TO.C,U2*%
X73665000Y-128275000D03*
D13*
X76205000Y-128275000D03*
X78745000Y-128275000D03*
X81285000Y-128275000D03*
X83825000Y-128275000D03*
X86365000Y-128275000D03*
X88905000Y-128275000D03*
X91445000Y-128275000D03*
X93985000Y-128275000D03*
X96525000Y-128275000D03*
X99065000Y-128275000D03*
X101605000Y-128275000D03*
X104145000Y-128275000D03*
X106685000Y-128275000D03*
X109225000Y-128275000D03*
X111765000Y-128275000D03*
X114305000Y-128275000D03*
X116845000Y-128275000D03*
X119385000Y-128275000D03*
X121925000Y-128275000D03*
X121925000Y-113035000D03*
X119385000Y-113035000D03*
X116845000Y-113035000D03*
X114305000Y-113035000D03*
X111765000Y-113035000D03*
X109225000Y-113035000D03*
X106685000Y-113035000D03*
X104145000Y-113035000D03*
X101605000Y-113035000D03*
X99065000Y-113035000D03*
X96525000Y-113035000D03*
X93985000Y-113035000D03*
X91445000Y-113035000D03*
X88905000Y-113035000D03*
X86365000Y-113035000D03*
X83825000Y-113035000D03*
X81285000Y-113035000D03*
X78745000Y-113035000D03*
X76205000Y-113035000D03*
X73665000Y-113035000D03*
%TD*%
D12*
%TO.C,X1*%
X129540000Y-120015000D03*
D10*
X144780000Y-120015000D03*
X144780000Y-112395000D03*
X129540000Y-112395000D03*
%TD*%
D12*
%TO.C,U4*%
X121920000Y-68575000D03*
D13*
X124460000Y-68575000D03*
X127000000Y-68575000D03*
X129540000Y-68575000D03*
X132080000Y-68575000D03*
X134620000Y-68575000D03*
X137160000Y-68575000D03*
X137160000Y-60955000D03*
X134620000Y-60955000D03*
X132080000Y-60955000D03*
X129540000Y-60955000D03*
X127000000Y-60955000D03*
X124460000Y-60955000D03*
X121920000Y-60955000D03*
%TD*%
D10*
%TO.C,C3*%
X123825000Y-133350000D03*
X118825000Y-133350000D03*
%TD*%
%TO.C,R4*%
X119380000Y-137795000D03*
D13*
X127000000Y-137795000D03*
%TD*%
D12*
%TO.C,C15*%
X114300000Y-71120000D03*
D10*
X114300000Y-73620000D03*
%TD*%
D20*
%TO.C,J6*%
X103950000Y-58545300D03*
X78950000Y-58545300D03*
D12*
X96990000Y-58845300D03*
D10*
X94220000Y-58845300D03*
X91450000Y-58845300D03*
X88680000Y-58845300D03*
X85910000Y-58845300D03*
X95605000Y-56005300D03*
X92835000Y-56005300D03*
X90065000Y-56005300D03*
X87295000Y-56005300D03*
%TD*%
D12*
%TO.C,U8*%
X73660000Y-81285000D03*
D13*
X76200000Y-81285000D03*
X78740000Y-81285000D03*
X81280000Y-81285000D03*
X83820000Y-81285000D03*
X86360000Y-81285000D03*
X88900000Y-81285000D03*
X91440000Y-81285000D03*
X93980000Y-81285000D03*
X96520000Y-81285000D03*
X99060000Y-81285000D03*
X101600000Y-81285000D03*
X104140000Y-81285000D03*
X106680000Y-81285000D03*
X106680000Y-66045000D03*
X104140000Y-66045000D03*
X101600000Y-66045000D03*
X99060000Y-66045000D03*
X96520000Y-66045000D03*
X93980000Y-66045000D03*
X91440000Y-66045000D03*
X88900000Y-66045000D03*
X86360000Y-66045000D03*
X83820000Y-66045000D03*
X81280000Y-66045000D03*
X78740000Y-66045000D03*
X76200000Y-66045000D03*
X73660000Y-66045000D03*
%TD*%
D12*
%TO.C,U1*%
X127635000Y-133985000D03*
D13*
X130175000Y-133985000D03*
X132715000Y-133985000D03*
X135255000Y-133985000D03*
X137795000Y-133985000D03*
X140335000Y-133985000D03*
X142875000Y-133985000D03*
X142875000Y-126365000D03*
X140335000Y-126365000D03*
X137795000Y-126365000D03*
X135255000Y-126365000D03*
X132715000Y-126365000D03*
X130175000Y-126365000D03*
X127635000Y-126365000D03*
%TD*%
D12*
%TO.C,C19*%
X144780000Y-67350000D03*
D10*
X144780000Y-69850000D03*
%TD*%
%TO.C,R1*%
X68580000Y-132715000D03*
D13*
X68580000Y-125095000D03*
%TD*%
D17*
%TO.C,J1*%
X59710000Y-64997500D03*
D21*
X62210000Y-64997500D03*
X62210000Y-62997500D03*
X59710000Y-62997500D03*
D22*
X54940000Y-60287500D03*
X66980000Y-60287500D03*
%TD*%
D10*
%TO.C,C9*%
X68580000Y-137200000D03*
X68580000Y-142200000D03*
%TD*%
%TO.C,C2*%
X116840000Y-90210000D03*
X116840000Y-95210000D03*
%TD*%
D12*
%TO.C,U9*%
X121920000Y-81275000D03*
D13*
X124460000Y-81275000D03*
X127000000Y-81275000D03*
X129540000Y-81275000D03*
X132080000Y-81275000D03*
X134620000Y-81275000D03*
X137160000Y-81275000D03*
X139700000Y-81275000D03*
X139700000Y-73655000D03*
X137160000Y-73655000D03*
X134620000Y-73655000D03*
X132080000Y-73655000D03*
X129540000Y-73655000D03*
X127000000Y-73655000D03*
X124460000Y-73655000D03*
X121920000Y-73655000D03*
%TD*%
D12*
%TO.C,U6*%
X73660000Y-106675000D03*
D13*
X76200000Y-106675000D03*
X78740000Y-106675000D03*
X81280000Y-106675000D03*
X83820000Y-106675000D03*
X86360000Y-106675000D03*
X88900000Y-106675000D03*
X91440000Y-106675000D03*
X93980000Y-106675000D03*
X96520000Y-106675000D03*
X99060000Y-106675000D03*
X101600000Y-106675000D03*
X104140000Y-106675000D03*
X106680000Y-106675000D03*
X106680000Y-91435000D03*
X104140000Y-91435000D03*
X101600000Y-91435000D03*
X99060000Y-91435000D03*
X96520000Y-91435000D03*
X93980000Y-91435000D03*
X91440000Y-91435000D03*
X88900000Y-91435000D03*
X86360000Y-91435000D03*
X83820000Y-91435000D03*
X81280000Y-91435000D03*
X78740000Y-91435000D03*
X76200000Y-91435000D03*
X73660000Y-91435000D03*
%TD*%
M02*
