%TF.GenerationSoftware,KiCad,Pcbnew,8.0.2*%
%TF.CreationDate,2025-01-25T11:51:25+01:00*%
%TF.ProjectId,sdcard-board,73646361-7264-42d6-926f-6172642e6b69,rev?*%
%TF.SameCoordinates,Original*%
%TF.FileFunction,Legend,Top*%
%TF.FilePolarity,Positive*%
%FSLAX46Y46*%
G04 Gerber Fmt 4.6, Leading zero omitted, Abs format (unit mm)*
G04 Created by KiCad (PCBNEW 8.0.2) date 2025-01-25 11:51:25*
%MOMM*%
%LPD*%
G01*
G04 APERTURE LIST*
%ADD10C,0.150000*%
%ADD11C,0.100000*%
%ADD12C,0.120000*%
G04 APERTURE END LIST*
D10*
X119104580Y-119292666D02*
X119152200Y-119340285D01*
X119152200Y-119340285D02*
X119199819Y-119483142D01*
X119199819Y-119483142D02*
X119199819Y-119578380D01*
X119199819Y-119578380D02*
X119152200Y-119721237D01*
X119152200Y-119721237D02*
X119056961Y-119816475D01*
X119056961Y-119816475D02*
X118961723Y-119864094D01*
X118961723Y-119864094D02*
X118771247Y-119911713D01*
X118771247Y-119911713D02*
X118628390Y-119911713D01*
X118628390Y-119911713D02*
X118437914Y-119864094D01*
X118437914Y-119864094D02*
X118342676Y-119816475D01*
X118342676Y-119816475D02*
X118247438Y-119721237D01*
X118247438Y-119721237D02*
X118199819Y-119578380D01*
X118199819Y-119578380D02*
X118199819Y-119483142D01*
X118199819Y-119483142D02*
X118247438Y-119340285D01*
X118247438Y-119340285D02*
X118295057Y-119292666D01*
X119152200Y-118911713D02*
X119199819Y-118768856D01*
X119199819Y-118768856D02*
X119199819Y-118530761D01*
X119199819Y-118530761D02*
X119152200Y-118435523D01*
X119152200Y-118435523D02*
X119104580Y-118387904D01*
X119104580Y-118387904D02*
X119009342Y-118340285D01*
X119009342Y-118340285D02*
X118914104Y-118340285D01*
X118914104Y-118340285D02*
X118818866Y-118387904D01*
X118818866Y-118387904D02*
X118771247Y-118435523D01*
X118771247Y-118435523D02*
X118723628Y-118530761D01*
X118723628Y-118530761D02*
X118676009Y-118721237D01*
X118676009Y-118721237D02*
X118628390Y-118816475D01*
X118628390Y-118816475D02*
X118580771Y-118864094D01*
X118580771Y-118864094D02*
X118485533Y-118911713D01*
X118485533Y-118911713D02*
X118390295Y-118911713D01*
X118390295Y-118911713D02*
X118295057Y-118864094D01*
X118295057Y-118864094D02*
X118247438Y-118816475D01*
X118247438Y-118816475D02*
X118199819Y-118721237D01*
X118199819Y-118721237D02*
X118199819Y-118483142D01*
X118199819Y-118483142D02*
X118247438Y-118340285D01*
X117922200Y-120002190D02*
X117922200Y-118249809D01*
X114119819Y-121459427D02*
X113119819Y-121459427D01*
X113119819Y-121459427D02*
X113834104Y-121126094D01*
X113834104Y-121126094D02*
X113119819Y-120792761D01*
X113119819Y-120792761D02*
X114119819Y-120792761D01*
X113119819Y-120126094D02*
X113119819Y-119935618D01*
X113119819Y-119935618D02*
X113167438Y-119840380D01*
X113167438Y-119840380D02*
X113262676Y-119745142D01*
X113262676Y-119745142D02*
X113453152Y-119697523D01*
X113453152Y-119697523D02*
X113786485Y-119697523D01*
X113786485Y-119697523D02*
X113976961Y-119745142D01*
X113976961Y-119745142D02*
X114072200Y-119840380D01*
X114072200Y-119840380D02*
X114119819Y-119935618D01*
X114119819Y-119935618D02*
X114119819Y-120126094D01*
X114119819Y-120126094D02*
X114072200Y-120221332D01*
X114072200Y-120221332D02*
X113976961Y-120316570D01*
X113976961Y-120316570D02*
X113786485Y-120364189D01*
X113786485Y-120364189D02*
X113453152Y-120364189D01*
X113453152Y-120364189D02*
X113262676Y-120316570D01*
X113262676Y-120316570D02*
X113167438Y-120221332D01*
X113167438Y-120221332D02*
X113119819Y-120126094D01*
X114072200Y-119316570D02*
X114119819Y-119173713D01*
X114119819Y-119173713D02*
X114119819Y-118935618D01*
X114119819Y-118935618D02*
X114072200Y-118840380D01*
X114072200Y-118840380D02*
X114024580Y-118792761D01*
X114024580Y-118792761D02*
X113929342Y-118745142D01*
X113929342Y-118745142D02*
X113834104Y-118745142D01*
X113834104Y-118745142D02*
X113738866Y-118792761D01*
X113738866Y-118792761D02*
X113691247Y-118840380D01*
X113691247Y-118840380D02*
X113643628Y-118935618D01*
X113643628Y-118935618D02*
X113596009Y-119126094D01*
X113596009Y-119126094D02*
X113548390Y-119221332D01*
X113548390Y-119221332D02*
X113500771Y-119268951D01*
X113500771Y-119268951D02*
X113405533Y-119316570D01*
X113405533Y-119316570D02*
X113310295Y-119316570D01*
X113310295Y-119316570D02*
X113215057Y-119268951D01*
X113215057Y-119268951D02*
X113167438Y-119221332D01*
X113167438Y-119221332D02*
X113119819Y-119126094D01*
X113119819Y-119126094D02*
X113119819Y-118887999D01*
X113119819Y-118887999D02*
X113167438Y-118745142D01*
X114119819Y-118316570D02*
X113119819Y-118316570D01*
X116564580Y-119975238D02*
X116612200Y-120022857D01*
X116612200Y-120022857D02*
X116659819Y-120165714D01*
X116659819Y-120165714D02*
X116659819Y-120260952D01*
X116659819Y-120260952D02*
X116612200Y-120403809D01*
X116612200Y-120403809D02*
X116516961Y-120499047D01*
X116516961Y-120499047D02*
X116421723Y-120546666D01*
X116421723Y-120546666D02*
X116231247Y-120594285D01*
X116231247Y-120594285D02*
X116088390Y-120594285D01*
X116088390Y-120594285D02*
X115897914Y-120546666D01*
X115897914Y-120546666D02*
X115802676Y-120499047D01*
X115802676Y-120499047D02*
X115707438Y-120403809D01*
X115707438Y-120403809D02*
X115659819Y-120260952D01*
X115659819Y-120260952D02*
X115659819Y-120165714D01*
X115659819Y-120165714D02*
X115707438Y-120022857D01*
X115707438Y-120022857D02*
X115755057Y-119975238D01*
X116659819Y-119070476D02*
X116659819Y-119546666D01*
X116659819Y-119546666D02*
X115659819Y-119546666D01*
X116659819Y-118737142D02*
X115659819Y-118737142D01*
X116659819Y-118165714D02*
X116088390Y-118594285D01*
X115659819Y-118165714D02*
X116231247Y-118737142D01*
X111579819Y-121459427D02*
X110579819Y-121459427D01*
X110579819Y-121459427D02*
X111294104Y-121126094D01*
X111294104Y-121126094D02*
X110579819Y-120792761D01*
X110579819Y-120792761D02*
X111579819Y-120792761D01*
X111579819Y-120316570D02*
X110579819Y-120316570D01*
X111532200Y-119887999D02*
X111579819Y-119745142D01*
X111579819Y-119745142D02*
X111579819Y-119507047D01*
X111579819Y-119507047D02*
X111532200Y-119411809D01*
X111532200Y-119411809D02*
X111484580Y-119364190D01*
X111484580Y-119364190D02*
X111389342Y-119316571D01*
X111389342Y-119316571D02*
X111294104Y-119316571D01*
X111294104Y-119316571D02*
X111198866Y-119364190D01*
X111198866Y-119364190D02*
X111151247Y-119411809D01*
X111151247Y-119411809D02*
X111103628Y-119507047D01*
X111103628Y-119507047D02*
X111056009Y-119697523D01*
X111056009Y-119697523D02*
X111008390Y-119792761D01*
X111008390Y-119792761D02*
X110960771Y-119840380D01*
X110960771Y-119840380D02*
X110865533Y-119887999D01*
X110865533Y-119887999D02*
X110770295Y-119887999D01*
X110770295Y-119887999D02*
X110675057Y-119840380D01*
X110675057Y-119840380D02*
X110627438Y-119792761D01*
X110627438Y-119792761D02*
X110579819Y-119697523D01*
X110579819Y-119697523D02*
X110579819Y-119459428D01*
X110579819Y-119459428D02*
X110627438Y-119316571D01*
X110579819Y-118697523D02*
X110579819Y-118507047D01*
X110579819Y-118507047D02*
X110627438Y-118411809D01*
X110627438Y-118411809D02*
X110722676Y-118316571D01*
X110722676Y-118316571D02*
X110913152Y-118268952D01*
X110913152Y-118268952D02*
X111246485Y-118268952D01*
X111246485Y-118268952D02*
X111436961Y-118316571D01*
X111436961Y-118316571D02*
X111532200Y-118411809D01*
X111532200Y-118411809D02*
X111579819Y-118507047D01*
X111579819Y-118507047D02*
X111579819Y-118697523D01*
X111579819Y-118697523D02*
X111532200Y-118792761D01*
X111532200Y-118792761D02*
X111436961Y-118887999D01*
X111436961Y-118887999D02*
X111246485Y-118935618D01*
X111246485Y-118935618D02*
X110913152Y-118935618D01*
X110913152Y-118935618D02*
X110722676Y-118887999D01*
X110722676Y-118887999D02*
X110627438Y-118792761D01*
X110627438Y-118792761D02*
X110579819Y-118697523D01*
X105547438Y-120395904D02*
X105499819Y-120491142D01*
X105499819Y-120491142D02*
X105499819Y-120633999D01*
X105499819Y-120633999D02*
X105547438Y-120776856D01*
X105547438Y-120776856D02*
X105642676Y-120872094D01*
X105642676Y-120872094D02*
X105737914Y-120919713D01*
X105737914Y-120919713D02*
X105928390Y-120967332D01*
X105928390Y-120967332D02*
X106071247Y-120967332D01*
X106071247Y-120967332D02*
X106261723Y-120919713D01*
X106261723Y-120919713D02*
X106356961Y-120872094D01*
X106356961Y-120872094D02*
X106452200Y-120776856D01*
X106452200Y-120776856D02*
X106499819Y-120633999D01*
X106499819Y-120633999D02*
X106499819Y-120538761D01*
X106499819Y-120538761D02*
X106452200Y-120395904D01*
X106452200Y-120395904D02*
X106404580Y-120348285D01*
X106404580Y-120348285D02*
X106071247Y-120348285D01*
X106071247Y-120348285D02*
X106071247Y-120538761D01*
X106499819Y-119919713D02*
X105499819Y-119919713D01*
X105499819Y-119919713D02*
X106499819Y-119348285D01*
X106499819Y-119348285D02*
X105499819Y-119348285D01*
X106499819Y-118872094D02*
X105499819Y-118872094D01*
X105499819Y-118872094D02*
X105499819Y-118633999D01*
X105499819Y-118633999D02*
X105547438Y-118491142D01*
X105547438Y-118491142D02*
X105642676Y-118395904D01*
X105642676Y-118395904D02*
X105737914Y-118348285D01*
X105737914Y-118348285D02*
X105928390Y-118300666D01*
X105928390Y-118300666D02*
X106071247Y-118300666D01*
X106071247Y-118300666D02*
X106261723Y-118348285D01*
X106261723Y-118348285D02*
X106356961Y-118395904D01*
X106356961Y-118395904D02*
X106452200Y-118491142D01*
X106452200Y-118491142D02*
X106499819Y-118633999D01*
X106499819Y-118633999D02*
X106499819Y-118872094D01*
X108039819Y-120967332D02*
X109039819Y-120633999D01*
X109039819Y-120633999D02*
X108039819Y-120300666D01*
X108944580Y-119395904D02*
X108992200Y-119443523D01*
X108992200Y-119443523D02*
X109039819Y-119586380D01*
X109039819Y-119586380D02*
X109039819Y-119681618D01*
X109039819Y-119681618D02*
X108992200Y-119824475D01*
X108992200Y-119824475D02*
X108896961Y-119919713D01*
X108896961Y-119919713D02*
X108801723Y-119967332D01*
X108801723Y-119967332D02*
X108611247Y-120014951D01*
X108611247Y-120014951D02*
X108468390Y-120014951D01*
X108468390Y-120014951D02*
X108277914Y-119967332D01*
X108277914Y-119967332D02*
X108182676Y-119919713D01*
X108182676Y-119919713D02*
X108087438Y-119824475D01*
X108087438Y-119824475D02*
X108039819Y-119681618D01*
X108039819Y-119681618D02*
X108039819Y-119586380D01*
X108039819Y-119586380D02*
X108087438Y-119443523D01*
X108087438Y-119443523D02*
X108135057Y-119395904D01*
X108944580Y-118395904D02*
X108992200Y-118443523D01*
X108992200Y-118443523D02*
X109039819Y-118586380D01*
X109039819Y-118586380D02*
X109039819Y-118681618D01*
X109039819Y-118681618D02*
X108992200Y-118824475D01*
X108992200Y-118824475D02*
X108896961Y-118919713D01*
X108896961Y-118919713D02*
X108801723Y-118967332D01*
X108801723Y-118967332D02*
X108611247Y-119014951D01*
X108611247Y-119014951D02*
X108468390Y-119014951D01*
X108468390Y-119014951D02*
X108277914Y-118967332D01*
X108277914Y-118967332D02*
X108182676Y-118919713D01*
X108182676Y-118919713D02*
X108087438Y-118824475D01*
X108087438Y-118824475D02*
X108039819Y-118681618D01*
X108039819Y-118681618D02*
X108039819Y-118586380D01*
X108039819Y-118586380D02*
X108087438Y-118443523D01*
X108087438Y-118443523D02*
X108135057Y-118395904D01*
X104949666Y-112230819D02*
X104949666Y-112945104D01*
X104949666Y-112945104D02*
X104902047Y-113087961D01*
X104902047Y-113087961D02*
X104806809Y-113183200D01*
X104806809Y-113183200D02*
X104663952Y-113230819D01*
X104663952Y-113230819D02*
X104568714Y-113230819D01*
X105330619Y-112230819D02*
X105949666Y-112230819D01*
X105949666Y-112230819D02*
X105616333Y-112611771D01*
X105616333Y-112611771D02*
X105759190Y-112611771D01*
X105759190Y-112611771D02*
X105854428Y-112659390D01*
X105854428Y-112659390D02*
X105902047Y-112707009D01*
X105902047Y-112707009D02*
X105949666Y-112802247D01*
X105949666Y-112802247D02*
X105949666Y-113040342D01*
X105949666Y-113040342D02*
X105902047Y-113135580D01*
X105902047Y-113135580D02*
X105854428Y-113183200D01*
X105854428Y-113183200D02*
X105759190Y-113230819D01*
X105759190Y-113230819D02*
X105473476Y-113230819D01*
X105473476Y-113230819D02*
X105378238Y-113183200D01*
X105378238Y-113183200D02*
X105330619Y-113135580D01*
X106966428Y-113183200D02*
X107109285Y-113230819D01*
X107109285Y-113230819D02*
X107347380Y-113230819D01*
X107347380Y-113230819D02*
X107442618Y-113183200D01*
X107442618Y-113183200D02*
X107490237Y-113135580D01*
X107490237Y-113135580D02*
X107537856Y-113040342D01*
X107537856Y-113040342D02*
X107537856Y-112945104D01*
X107537856Y-112945104D02*
X107490237Y-112849866D01*
X107490237Y-112849866D02*
X107442618Y-112802247D01*
X107442618Y-112802247D02*
X107347380Y-112754628D01*
X107347380Y-112754628D02*
X107156904Y-112707009D01*
X107156904Y-112707009D02*
X107061666Y-112659390D01*
X107061666Y-112659390D02*
X107014047Y-112611771D01*
X107014047Y-112611771D02*
X106966428Y-112516533D01*
X106966428Y-112516533D02*
X106966428Y-112421295D01*
X106966428Y-112421295D02*
X107014047Y-112326057D01*
X107014047Y-112326057D02*
X107061666Y-112278438D01*
X107061666Y-112278438D02*
X107156904Y-112230819D01*
X107156904Y-112230819D02*
X107394999Y-112230819D01*
X107394999Y-112230819D02*
X107537856Y-112278438D01*
X107966428Y-113230819D02*
X107966428Y-112230819D01*
X107966428Y-112230819D02*
X108204523Y-112230819D01*
X108204523Y-112230819D02*
X108347380Y-112278438D01*
X108347380Y-112278438D02*
X108442618Y-112373676D01*
X108442618Y-112373676D02*
X108490237Y-112468914D01*
X108490237Y-112468914D02*
X108537856Y-112659390D01*
X108537856Y-112659390D02*
X108537856Y-112802247D01*
X108537856Y-112802247D02*
X108490237Y-112992723D01*
X108490237Y-112992723D02*
X108442618Y-113087961D01*
X108442618Y-113087961D02*
X108347380Y-113183200D01*
X108347380Y-113183200D02*
X108204523Y-113230819D01*
X108204523Y-113230819D02*
X107966428Y-113230819D01*
X110299761Y-113135580D02*
X110252142Y-113183200D01*
X110252142Y-113183200D02*
X110109285Y-113230819D01*
X110109285Y-113230819D02*
X110014047Y-113230819D01*
X110014047Y-113230819D02*
X109871190Y-113183200D01*
X109871190Y-113183200D02*
X109775952Y-113087961D01*
X109775952Y-113087961D02*
X109728333Y-112992723D01*
X109728333Y-112992723D02*
X109680714Y-112802247D01*
X109680714Y-112802247D02*
X109680714Y-112659390D01*
X109680714Y-112659390D02*
X109728333Y-112468914D01*
X109728333Y-112468914D02*
X109775952Y-112373676D01*
X109775952Y-112373676D02*
X109871190Y-112278438D01*
X109871190Y-112278438D02*
X110014047Y-112230819D01*
X110014047Y-112230819D02*
X110109285Y-112230819D01*
X110109285Y-112230819D02*
X110252142Y-112278438D01*
X110252142Y-112278438D02*
X110299761Y-112326057D01*
X111156904Y-113230819D02*
X111156904Y-112707009D01*
X111156904Y-112707009D02*
X111109285Y-112611771D01*
X111109285Y-112611771D02*
X111014047Y-112564152D01*
X111014047Y-112564152D02*
X110823571Y-112564152D01*
X110823571Y-112564152D02*
X110728333Y-112611771D01*
X111156904Y-113183200D02*
X111061666Y-113230819D01*
X111061666Y-113230819D02*
X110823571Y-113230819D01*
X110823571Y-113230819D02*
X110728333Y-113183200D01*
X110728333Y-113183200D02*
X110680714Y-113087961D01*
X110680714Y-113087961D02*
X110680714Y-112992723D01*
X110680714Y-112992723D02*
X110728333Y-112897485D01*
X110728333Y-112897485D02*
X110823571Y-112849866D01*
X110823571Y-112849866D02*
X111061666Y-112849866D01*
X111061666Y-112849866D02*
X111156904Y-112802247D01*
X111633095Y-113230819D02*
X111633095Y-112564152D01*
X111633095Y-112754628D02*
X111680714Y-112659390D01*
X111680714Y-112659390D02*
X111728333Y-112611771D01*
X111728333Y-112611771D02*
X111823571Y-112564152D01*
X111823571Y-112564152D02*
X111918809Y-112564152D01*
X112680714Y-113230819D02*
X112680714Y-112230819D01*
X112680714Y-113183200D02*
X112585476Y-113230819D01*
X112585476Y-113230819D02*
X112395000Y-113230819D01*
X112395000Y-113230819D02*
X112299762Y-113183200D01*
X112299762Y-113183200D02*
X112252143Y-113135580D01*
X112252143Y-113135580D02*
X112204524Y-113040342D01*
X112204524Y-113040342D02*
X112204524Y-112754628D01*
X112204524Y-112754628D02*
X112252143Y-112659390D01*
X112252143Y-112659390D02*
X112299762Y-112611771D01*
X112299762Y-112611771D02*
X112395000Y-112564152D01*
X112395000Y-112564152D02*
X112585476Y-112564152D01*
X112585476Y-112564152D02*
X112680714Y-112611771D01*
X114252143Y-112707009D02*
X114395000Y-112754628D01*
X114395000Y-112754628D02*
X114442619Y-112802247D01*
X114442619Y-112802247D02*
X114490238Y-112897485D01*
X114490238Y-112897485D02*
X114490238Y-113040342D01*
X114490238Y-113040342D02*
X114442619Y-113135580D01*
X114442619Y-113135580D02*
X114395000Y-113183200D01*
X114395000Y-113183200D02*
X114299762Y-113230819D01*
X114299762Y-113230819D02*
X113918810Y-113230819D01*
X113918810Y-113230819D02*
X113918810Y-112230819D01*
X113918810Y-112230819D02*
X114252143Y-112230819D01*
X114252143Y-112230819D02*
X114347381Y-112278438D01*
X114347381Y-112278438D02*
X114395000Y-112326057D01*
X114395000Y-112326057D02*
X114442619Y-112421295D01*
X114442619Y-112421295D02*
X114442619Y-112516533D01*
X114442619Y-112516533D02*
X114395000Y-112611771D01*
X114395000Y-112611771D02*
X114347381Y-112659390D01*
X114347381Y-112659390D02*
X114252143Y-112707009D01*
X114252143Y-112707009D02*
X113918810Y-112707009D01*
X115061667Y-113230819D02*
X114966429Y-113183200D01*
X114966429Y-113183200D02*
X114918810Y-113135580D01*
X114918810Y-113135580D02*
X114871191Y-113040342D01*
X114871191Y-113040342D02*
X114871191Y-112754628D01*
X114871191Y-112754628D02*
X114918810Y-112659390D01*
X114918810Y-112659390D02*
X114966429Y-112611771D01*
X114966429Y-112611771D02*
X115061667Y-112564152D01*
X115061667Y-112564152D02*
X115204524Y-112564152D01*
X115204524Y-112564152D02*
X115299762Y-112611771D01*
X115299762Y-112611771D02*
X115347381Y-112659390D01*
X115347381Y-112659390D02*
X115395000Y-112754628D01*
X115395000Y-112754628D02*
X115395000Y-113040342D01*
X115395000Y-113040342D02*
X115347381Y-113135580D01*
X115347381Y-113135580D02*
X115299762Y-113183200D01*
X115299762Y-113183200D02*
X115204524Y-113230819D01*
X115204524Y-113230819D02*
X115061667Y-113230819D01*
X116252143Y-113230819D02*
X116252143Y-112707009D01*
X116252143Y-112707009D02*
X116204524Y-112611771D01*
X116204524Y-112611771D02*
X116109286Y-112564152D01*
X116109286Y-112564152D02*
X115918810Y-112564152D01*
X115918810Y-112564152D02*
X115823572Y-112611771D01*
X116252143Y-113183200D02*
X116156905Y-113230819D01*
X116156905Y-113230819D02*
X115918810Y-113230819D01*
X115918810Y-113230819D02*
X115823572Y-113183200D01*
X115823572Y-113183200D02*
X115775953Y-113087961D01*
X115775953Y-113087961D02*
X115775953Y-112992723D01*
X115775953Y-112992723D02*
X115823572Y-112897485D01*
X115823572Y-112897485D02*
X115918810Y-112849866D01*
X115918810Y-112849866D02*
X116156905Y-112849866D01*
X116156905Y-112849866D02*
X116252143Y-112802247D01*
X116728334Y-113230819D02*
X116728334Y-112564152D01*
X116728334Y-112754628D02*
X116775953Y-112659390D01*
X116775953Y-112659390D02*
X116823572Y-112611771D01*
X116823572Y-112611771D02*
X116918810Y-112564152D01*
X116918810Y-112564152D02*
X117014048Y-112564152D01*
X117775953Y-113230819D02*
X117775953Y-112230819D01*
X117775953Y-113183200D02*
X117680715Y-113230819D01*
X117680715Y-113230819D02*
X117490239Y-113230819D01*
X117490239Y-113230819D02*
X117395001Y-113183200D01*
X117395001Y-113183200D02*
X117347382Y-113135580D01*
X117347382Y-113135580D02*
X117299763Y-113040342D01*
X117299763Y-113040342D02*
X117299763Y-112754628D01*
X117299763Y-112754628D02*
X117347382Y-112659390D01*
X117347382Y-112659390D02*
X117395001Y-112611771D01*
X117395001Y-112611771D02*
X117490239Y-112564152D01*
X117490239Y-112564152D02*
X117680715Y-112564152D01*
X117680715Y-112564152D02*
X117775953Y-112611771D01*
X74287142Y-114024580D02*
X74239523Y-114072200D01*
X74239523Y-114072200D02*
X74096666Y-114119819D01*
X74096666Y-114119819D02*
X74001428Y-114119819D01*
X74001428Y-114119819D02*
X73858571Y-114072200D01*
X73858571Y-114072200D02*
X73763333Y-113976961D01*
X73763333Y-113976961D02*
X73715714Y-113881723D01*
X73715714Y-113881723D02*
X73668095Y-113691247D01*
X73668095Y-113691247D02*
X73668095Y-113548390D01*
X73668095Y-113548390D02*
X73715714Y-113357914D01*
X73715714Y-113357914D02*
X73763333Y-113262676D01*
X73763333Y-113262676D02*
X73858571Y-113167438D01*
X73858571Y-113167438D02*
X74001428Y-113119819D01*
X74001428Y-113119819D02*
X74096666Y-113119819D01*
X74096666Y-113119819D02*
X74239523Y-113167438D01*
X74239523Y-113167438D02*
X74287142Y-113215057D01*
X75239523Y-114119819D02*
X74668095Y-114119819D01*
X74953809Y-114119819D02*
X74953809Y-113119819D01*
X74953809Y-113119819D02*
X74858571Y-113262676D01*
X74858571Y-113262676D02*
X74763333Y-113357914D01*
X74763333Y-113357914D02*
X74668095Y-113405533D01*
X75572857Y-113119819D02*
X76191904Y-113119819D01*
X76191904Y-113119819D02*
X75858571Y-113500771D01*
X75858571Y-113500771D02*
X76001428Y-113500771D01*
X76001428Y-113500771D02*
X76096666Y-113548390D01*
X76096666Y-113548390D02*
X76144285Y-113596009D01*
X76144285Y-113596009D02*
X76191904Y-113691247D01*
X76191904Y-113691247D02*
X76191904Y-113929342D01*
X76191904Y-113929342D02*
X76144285Y-114024580D01*
X76144285Y-114024580D02*
X76096666Y-114072200D01*
X76096666Y-114072200D02*
X76001428Y-114119819D01*
X76001428Y-114119819D02*
X75715714Y-114119819D01*
X75715714Y-114119819D02*
X75620476Y-114072200D01*
X75620476Y-114072200D02*
X75572857Y-114024580D01*
X74128333Y-126724580D02*
X74080714Y-126772200D01*
X74080714Y-126772200D02*
X73937857Y-126819819D01*
X73937857Y-126819819D02*
X73842619Y-126819819D01*
X73842619Y-126819819D02*
X73699762Y-126772200D01*
X73699762Y-126772200D02*
X73604524Y-126676961D01*
X73604524Y-126676961D02*
X73556905Y-126581723D01*
X73556905Y-126581723D02*
X73509286Y-126391247D01*
X73509286Y-126391247D02*
X73509286Y-126248390D01*
X73509286Y-126248390D02*
X73556905Y-126057914D01*
X73556905Y-126057914D02*
X73604524Y-125962676D01*
X73604524Y-125962676D02*
X73699762Y-125867438D01*
X73699762Y-125867438D02*
X73842619Y-125819819D01*
X73842619Y-125819819D02*
X73937857Y-125819819D01*
X73937857Y-125819819D02*
X74080714Y-125867438D01*
X74080714Y-125867438D02*
X74128333Y-125915057D01*
X74461667Y-125819819D02*
X75080714Y-125819819D01*
X75080714Y-125819819D02*
X74747381Y-126200771D01*
X74747381Y-126200771D02*
X74890238Y-126200771D01*
X74890238Y-126200771D02*
X74985476Y-126248390D01*
X74985476Y-126248390D02*
X75033095Y-126296009D01*
X75033095Y-126296009D02*
X75080714Y-126391247D01*
X75080714Y-126391247D02*
X75080714Y-126629342D01*
X75080714Y-126629342D02*
X75033095Y-126724580D01*
X75033095Y-126724580D02*
X74985476Y-126772200D01*
X74985476Y-126772200D02*
X74890238Y-126819819D01*
X74890238Y-126819819D02*
X74604524Y-126819819D01*
X74604524Y-126819819D02*
X74509286Y-126772200D01*
X74509286Y-126772200D02*
X74461667Y-126724580D01*
X45386666Y-138519819D02*
X45386666Y-139234104D01*
X45386666Y-139234104D02*
X45339047Y-139376961D01*
X45339047Y-139376961D02*
X45243809Y-139472200D01*
X45243809Y-139472200D02*
X45100952Y-139519819D01*
X45100952Y-139519819D02*
X45005714Y-139519819D01*
X46386666Y-139519819D02*
X45815238Y-139519819D01*
X46100952Y-139519819D02*
X46100952Y-138519819D01*
X46100952Y-138519819D02*
X46005714Y-138662676D01*
X46005714Y-138662676D02*
X45910476Y-138757914D01*
X45910476Y-138757914D02*
X45815238Y-138805533D01*
X75864819Y-132048094D02*
X76674342Y-132048094D01*
X76674342Y-132048094D02*
X76769580Y-132000475D01*
X76769580Y-132000475D02*
X76817200Y-131952856D01*
X76817200Y-131952856D02*
X76864819Y-131857618D01*
X76864819Y-131857618D02*
X76864819Y-131667142D01*
X76864819Y-131667142D02*
X76817200Y-131571904D01*
X76817200Y-131571904D02*
X76769580Y-131524285D01*
X76769580Y-131524285D02*
X76674342Y-131476666D01*
X76674342Y-131476666D02*
X75864819Y-131476666D01*
X76864819Y-130476666D02*
X76864819Y-131048094D01*
X76864819Y-130762380D02*
X75864819Y-130762380D01*
X75864819Y-130762380D02*
X76007676Y-130857618D01*
X76007676Y-130857618D02*
X76102914Y-130952856D01*
X76102914Y-130952856D02*
X76150533Y-131048094D01*
X75864819Y-129857618D02*
X75864819Y-129762380D01*
X75864819Y-129762380D02*
X75912438Y-129667142D01*
X75912438Y-129667142D02*
X75960057Y-129619523D01*
X75960057Y-129619523D02*
X76055295Y-129571904D01*
X76055295Y-129571904D02*
X76245771Y-129524285D01*
X76245771Y-129524285D02*
X76483866Y-129524285D01*
X76483866Y-129524285D02*
X76674342Y-129571904D01*
X76674342Y-129571904D02*
X76769580Y-129619523D01*
X76769580Y-129619523D02*
X76817200Y-129667142D01*
X76817200Y-129667142D02*
X76864819Y-129762380D01*
X76864819Y-129762380D02*
X76864819Y-129857618D01*
X76864819Y-129857618D02*
X76817200Y-129952856D01*
X76817200Y-129952856D02*
X76769580Y-130000475D01*
X76769580Y-130000475D02*
X76674342Y-130048094D01*
X76674342Y-130048094D02*
X76483866Y-130095713D01*
X76483866Y-130095713D02*
X76245771Y-130095713D01*
X76245771Y-130095713D02*
X76055295Y-130048094D01*
X76055295Y-130048094D02*
X75960057Y-130000475D01*
X75960057Y-130000475D02*
X75912438Y-129952856D01*
X75912438Y-129952856D02*
X75864819Y-129857618D01*
X98304819Y-134071904D02*
X98304819Y-133405238D01*
X98304819Y-133405238D02*
X99304819Y-133833809D01*
X98638152Y-132595714D02*
X99304819Y-132595714D01*
X98257200Y-132833809D02*
X98971485Y-133071904D01*
X98971485Y-133071904D02*
X98971485Y-132452857D01*
X99304819Y-132071904D02*
X98304819Y-132071904D01*
X98781009Y-132071904D02*
X98781009Y-131500476D01*
X99304819Y-131500476D02*
X98304819Y-131500476D01*
X99209580Y-130452857D02*
X99257200Y-130500476D01*
X99257200Y-130500476D02*
X99304819Y-130643333D01*
X99304819Y-130643333D02*
X99304819Y-130738571D01*
X99304819Y-130738571D02*
X99257200Y-130881428D01*
X99257200Y-130881428D02*
X99161961Y-130976666D01*
X99161961Y-130976666D02*
X99066723Y-131024285D01*
X99066723Y-131024285D02*
X98876247Y-131071904D01*
X98876247Y-131071904D02*
X98733390Y-131071904D01*
X98733390Y-131071904D02*
X98542914Y-131024285D01*
X98542914Y-131024285D02*
X98447676Y-130976666D01*
X98447676Y-130976666D02*
X98352438Y-130881428D01*
X98352438Y-130881428D02*
X98304819Y-130738571D01*
X98304819Y-130738571D02*
X98304819Y-130643333D01*
X98304819Y-130643333D02*
X98352438Y-130500476D01*
X98352438Y-130500476D02*
X98400057Y-130452857D01*
X99304819Y-129500476D02*
X99304819Y-130071904D01*
X99304819Y-129786190D02*
X98304819Y-129786190D01*
X98304819Y-129786190D02*
X98447676Y-129881428D01*
X98447676Y-129881428D02*
X98542914Y-129976666D01*
X98542914Y-129976666D02*
X98590533Y-130071904D01*
X98304819Y-129167142D02*
X98304819Y-128548095D01*
X98304819Y-128548095D02*
X98685771Y-128881428D01*
X98685771Y-128881428D02*
X98685771Y-128738571D01*
X98685771Y-128738571D02*
X98733390Y-128643333D01*
X98733390Y-128643333D02*
X98781009Y-128595714D01*
X98781009Y-128595714D02*
X98876247Y-128548095D01*
X98876247Y-128548095D02*
X99114342Y-128548095D01*
X99114342Y-128548095D02*
X99209580Y-128595714D01*
X99209580Y-128595714D02*
X99257200Y-128643333D01*
X99257200Y-128643333D02*
X99304819Y-128738571D01*
X99304819Y-128738571D02*
X99304819Y-129024285D01*
X99304819Y-129024285D02*
X99257200Y-129119523D01*
X99257200Y-129119523D02*
X99209580Y-129167142D01*
X98733390Y-127976666D02*
X98685771Y-128071904D01*
X98685771Y-128071904D02*
X98638152Y-128119523D01*
X98638152Y-128119523D02*
X98542914Y-128167142D01*
X98542914Y-128167142D02*
X98495295Y-128167142D01*
X98495295Y-128167142D02*
X98400057Y-128119523D01*
X98400057Y-128119523D02*
X98352438Y-128071904D01*
X98352438Y-128071904D02*
X98304819Y-127976666D01*
X98304819Y-127976666D02*
X98304819Y-127786190D01*
X98304819Y-127786190D02*
X98352438Y-127690952D01*
X98352438Y-127690952D02*
X98400057Y-127643333D01*
X98400057Y-127643333D02*
X98495295Y-127595714D01*
X98495295Y-127595714D02*
X98542914Y-127595714D01*
X98542914Y-127595714D02*
X98638152Y-127643333D01*
X98638152Y-127643333D02*
X98685771Y-127690952D01*
X98685771Y-127690952D02*
X98733390Y-127786190D01*
X98733390Y-127786190D02*
X98733390Y-127976666D01*
X98733390Y-127976666D02*
X98781009Y-128071904D01*
X98781009Y-128071904D02*
X98828628Y-128119523D01*
X98828628Y-128119523D02*
X98923866Y-128167142D01*
X98923866Y-128167142D02*
X99114342Y-128167142D01*
X99114342Y-128167142D02*
X99209580Y-128119523D01*
X99209580Y-128119523D02*
X99257200Y-128071904D01*
X99257200Y-128071904D02*
X99304819Y-127976666D01*
X99304819Y-127976666D02*
X99304819Y-127786190D01*
X99304819Y-127786190D02*
X99257200Y-127690952D01*
X99257200Y-127690952D02*
X99209580Y-127643333D01*
X99209580Y-127643333D02*
X99114342Y-127595714D01*
X99114342Y-127595714D02*
X98923866Y-127595714D01*
X98923866Y-127595714D02*
X98828628Y-127643333D01*
X98828628Y-127643333D02*
X98781009Y-127690952D01*
X98781009Y-127690952D02*
X98733390Y-127786190D01*
X42844819Y-131571904D02*
X43654342Y-131571904D01*
X43654342Y-131571904D02*
X43749580Y-131524285D01*
X43749580Y-131524285D02*
X43797200Y-131476666D01*
X43797200Y-131476666D02*
X43844819Y-131381428D01*
X43844819Y-131381428D02*
X43844819Y-131190952D01*
X43844819Y-131190952D02*
X43797200Y-131095714D01*
X43797200Y-131095714D02*
X43749580Y-131048095D01*
X43749580Y-131048095D02*
X43654342Y-131000476D01*
X43654342Y-131000476D02*
X42844819Y-131000476D01*
X43844819Y-130476666D02*
X43844819Y-130286190D01*
X43844819Y-130286190D02*
X43797200Y-130190952D01*
X43797200Y-130190952D02*
X43749580Y-130143333D01*
X43749580Y-130143333D02*
X43606723Y-130048095D01*
X43606723Y-130048095D02*
X43416247Y-130000476D01*
X43416247Y-130000476D02*
X43035295Y-130000476D01*
X43035295Y-130000476D02*
X42940057Y-130048095D01*
X42940057Y-130048095D02*
X42892438Y-130095714D01*
X42892438Y-130095714D02*
X42844819Y-130190952D01*
X42844819Y-130190952D02*
X42844819Y-130381428D01*
X42844819Y-130381428D02*
X42892438Y-130476666D01*
X42892438Y-130476666D02*
X42940057Y-130524285D01*
X42940057Y-130524285D02*
X43035295Y-130571904D01*
X43035295Y-130571904D02*
X43273390Y-130571904D01*
X43273390Y-130571904D02*
X43368628Y-130524285D01*
X43368628Y-130524285D02*
X43416247Y-130476666D01*
X43416247Y-130476666D02*
X43463866Y-130381428D01*
X43463866Y-130381428D02*
X43463866Y-130190952D01*
X43463866Y-130190952D02*
X43416247Y-130095714D01*
X43416247Y-130095714D02*
X43368628Y-130048095D01*
X43368628Y-130048095D02*
X43273390Y-130000476D01*
X70364819Y-134071904D02*
X70364819Y-133405238D01*
X70364819Y-133405238D02*
X71364819Y-133833809D01*
X70698152Y-132595714D02*
X71364819Y-132595714D01*
X70317200Y-132833809D02*
X71031485Y-133071904D01*
X71031485Y-133071904D02*
X71031485Y-132452857D01*
X71364819Y-132071904D02*
X70364819Y-132071904D01*
X70841009Y-132071904D02*
X70841009Y-131500476D01*
X71364819Y-131500476D02*
X70364819Y-131500476D01*
X71269580Y-130452857D02*
X71317200Y-130500476D01*
X71317200Y-130500476D02*
X71364819Y-130643333D01*
X71364819Y-130643333D02*
X71364819Y-130738571D01*
X71364819Y-130738571D02*
X71317200Y-130881428D01*
X71317200Y-130881428D02*
X71221961Y-130976666D01*
X71221961Y-130976666D02*
X71126723Y-131024285D01*
X71126723Y-131024285D02*
X70936247Y-131071904D01*
X70936247Y-131071904D02*
X70793390Y-131071904D01*
X70793390Y-131071904D02*
X70602914Y-131024285D01*
X70602914Y-131024285D02*
X70507676Y-130976666D01*
X70507676Y-130976666D02*
X70412438Y-130881428D01*
X70412438Y-130881428D02*
X70364819Y-130738571D01*
X70364819Y-130738571D02*
X70364819Y-130643333D01*
X70364819Y-130643333D02*
X70412438Y-130500476D01*
X70412438Y-130500476D02*
X70460057Y-130452857D01*
X70364819Y-129595714D02*
X70364819Y-129786190D01*
X70364819Y-129786190D02*
X70412438Y-129881428D01*
X70412438Y-129881428D02*
X70460057Y-129929047D01*
X70460057Y-129929047D02*
X70602914Y-130024285D01*
X70602914Y-130024285D02*
X70793390Y-130071904D01*
X70793390Y-130071904D02*
X71174342Y-130071904D01*
X71174342Y-130071904D02*
X71269580Y-130024285D01*
X71269580Y-130024285D02*
X71317200Y-129976666D01*
X71317200Y-129976666D02*
X71364819Y-129881428D01*
X71364819Y-129881428D02*
X71364819Y-129690952D01*
X71364819Y-129690952D02*
X71317200Y-129595714D01*
X71317200Y-129595714D02*
X71269580Y-129548095D01*
X71269580Y-129548095D02*
X71174342Y-129500476D01*
X71174342Y-129500476D02*
X70936247Y-129500476D01*
X70936247Y-129500476D02*
X70841009Y-129548095D01*
X70841009Y-129548095D02*
X70793390Y-129595714D01*
X70793390Y-129595714D02*
X70745771Y-129690952D01*
X70745771Y-129690952D02*
X70745771Y-129881428D01*
X70745771Y-129881428D02*
X70793390Y-129976666D01*
X70793390Y-129976666D02*
X70841009Y-130024285D01*
X70841009Y-130024285D02*
X70936247Y-130071904D01*
X70793390Y-128929047D02*
X70745771Y-129024285D01*
X70745771Y-129024285D02*
X70698152Y-129071904D01*
X70698152Y-129071904D02*
X70602914Y-129119523D01*
X70602914Y-129119523D02*
X70555295Y-129119523D01*
X70555295Y-129119523D02*
X70460057Y-129071904D01*
X70460057Y-129071904D02*
X70412438Y-129024285D01*
X70412438Y-129024285D02*
X70364819Y-128929047D01*
X70364819Y-128929047D02*
X70364819Y-128738571D01*
X70364819Y-128738571D02*
X70412438Y-128643333D01*
X70412438Y-128643333D02*
X70460057Y-128595714D01*
X70460057Y-128595714D02*
X70555295Y-128548095D01*
X70555295Y-128548095D02*
X70602914Y-128548095D01*
X70602914Y-128548095D02*
X70698152Y-128595714D01*
X70698152Y-128595714D02*
X70745771Y-128643333D01*
X70745771Y-128643333D02*
X70793390Y-128738571D01*
X70793390Y-128738571D02*
X70793390Y-128929047D01*
X70793390Y-128929047D02*
X70841009Y-129024285D01*
X70841009Y-129024285D02*
X70888628Y-129071904D01*
X70888628Y-129071904D02*
X70983866Y-129119523D01*
X70983866Y-129119523D02*
X71174342Y-129119523D01*
X71174342Y-129119523D02*
X71269580Y-129071904D01*
X71269580Y-129071904D02*
X71317200Y-129024285D01*
X71317200Y-129024285D02*
X71364819Y-128929047D01*
X71364819Y-128929047D02*
X71364819Y-128738571D01*
X71364819Y-128738571D02*
X71317200Y-128643333D01*
X71317200Y-128643333D02*
X71269580Y-128595714D01*
X71269580Y-128595714D02*
X71174342Y-128548095D01*
X71174342Y-128548095D02*
X70983866Y-128548095D01*
X70983866Y-128548095D02*
X70888628Y-128595714D01*
X70888628Y-128595714D02*
X70841009Y-128643333D01*
X70841009Y-128643333D02*
X70793390Y-128738571D01*
X70793390Y-127976666D02*
X70745771Y-128071904D01*
X70745771Y-128071904D02*
X70698152Y-128119523D01*
X70698152Y-128119523D02*
X70602914Y-128167142D01*
X70602914Y-128167142D02*
X70555295Y-128167142D01*
X70555295Y-128167142D02*
X70460057Y-128119523D01*
X70460057Y-128119523D02*
X70412438Y-128071904D01*
X70412438Y-128071904D02*
X70364819Y-127976666D01*
X70364819Y-127976666D02*
X70364819Y-127786190D01*
X70364819Y-127786190D02*
X70412438Y-127690952D01*
X70412438Y-127690952D02*
X70460057Y-127643333D01*
X70460057Y-127643333D02*
X70555295Y-127595714D01*
X70555295Y-127595714D02*
X70602914Y-127595714D01*
X70602914Y-127595714D02*
X70698152Y-127643333D01*
X70698152Y-127643333D02*
X70745771Y-127690952D01*
X70745771Y-127690952D02*
X70793390Y-127786190D01*
X70793390Y-127786190D02*
X70793390Y-127976666D01*
X70793390Y-127976666D02*
X70841009Y-128071904D01*
X70841009Y-128071904D02*
X70888628Y-128119523D01*
X70888628Y-128119523D02*
X70983866Y-128167142D01*
X70983866Y-128167142D02*
X71174342Y-128167142D01*
X71174342Y-128167142D02*
X71269580Y-128119523D01*
X71269580Y-128119523D02*
X71317200Y-128071904D01*
X71317200Y-128071904D02*
X71364819Y-127976666D01*
X71364819Y-127976666D02*
X71364819Y-127786190D01*
X71364819Y-127786190D02*
X71317200Y-127690952D01*
X71317200Y-127690952D02*
X71269580Y-127643333D01*
X71269580Y-127643333D02*
X71174342Y-127595714D01*
X71174342Y-127595714D02*
X70983866Y-127595714D01*
X70983866Y-127595714D02*
X70888628Y-127643333D01*
X70888628Y-127643333D02*
X70841009Y-127690952D01*
X70841009Y-127690952D02*
X70793390Y-127786190D01*
X94623095Y-65886819D02*
X95194523Y-65886819D01*
X94908809Y-66886819D02*
X94908809Y-65886819D01*
X95527857Y-66886819D02*
X95527857Y-65886819D01*
X95527857Y-65886819D02*
X95908809Y-65886819D01*
X95908809Y-65886819D02*
X96004047Y-65934438D01*
X96004047Y-65934438D02*
X96051666Y-65982057D01*
X96051666Y-65982057D02*
X96099285Y-66077295D01*
X96099285Y-66077295D02*
X96099285Y-66220152D01*
X96099285Y-66220152D02*
X96051666Y-66315390D01*
X96051666Y-66315390D02*
X96004047Y-66363009D01*
X96004047Y-66363009D02*
X95908809Y-66410628D01*
X95908809Y-66410628D02*
X95527857Y-66410628D01*
X96670714Y-66315390D02*
X96575476Y-66267771D01*
X96575476Y-66267771D02*
X96527857Y-66220152D01*
X96527857Y-66220152D02*
X96480238Y-66124914D01*
X96480238Y-66124914D02*
X96480238Y-66077295D01*
X96480238Y-66077295D02*
X96527857Y-65982057D01*
X96527857Y-65982057D02*
X96575476Y-65934438D01*
X96575476Y-65934438D02*
X96670714Y-65886819D01*
X96670714Y-65886819D02*
X96861190Y-65886819D01*
X96861190Y-65886819D02*
X96956428Y-65934438D01*
X96956428Y-65934438D02*
X97004047Y-65982057D01*
X97004047Y-65982057D02*
X97051666Y-66077295D01*
X97051666Y-66077295D02*
X97051666Y-66124914D01*
X97051666Y-66124914D02*
X97004047Y-66220152D01*
X97004047Y-66220152D02*
X96956428Y-66267771D01*
X96956428Y-66267771D02*
X96861190Y-66315390D01*
X96861190Y-66315390D02*
X96670714Y-66315390D01*
X96670714Y-66315390D02*
X96575476Y-66363009D01*
X96575476Y-66363009D02*
X96527857Y-66410628D01*
X96527857Y-66410628D02*
X96480238Y-66505866D01*
X96480238Y-66505866D02*
X96480238Y-66696342D01*
X96480238Y-66696342D02*
X96527857Y-66791580D01*
X96527857Y-66791580D02*
X96575476Y-66839200D01*
X96575476Y-66839200D02*
X96670714Y-66886819D01*
X96670714Y-66886819D02*
X96861190Y-66886819D01*
X96861190Y-66886819D02*
X96956428Y-66839200D01*
X96956428Y-66839200D02*
X97004047Y-66791580D01*
X97004047Y-66791580D02*
X97051666Y-66696342D01*
X97051666Y-66696342D02*
X97051666Y-66505866D01*
X97051666Y-66505866D02*
X97004047Y-66410628D01*
X97004047Y-66410628D02*
X96956428Y-66363009D01*
X96956428Y-66363009D02*
X96861190Y-66315390D01*
X95123095Y-70332438D02*
X95027857Y-70284819D01*
X95027857Y-70284819D02*
X94885000Y-70284819D01*
X94885000Y-70284819D02*
X94742143Y-70332438D01*
X94742143Y-70332438D02*
X94646905Y-70427676D01*
X94646905Y-70427676D02*
X94599286Y-70522914D01*
X94599286Y-70522914D02*
X94551667Y-70713390D01*
X94551667Y-70713390D02*
X94551667Y-70856247D01*
X94551667Y-70856247D02*
X94599286Y-71046723D01*
X94599286Y-71046723D02*
X94646905Y-71141961D01*
X94646905Y-71141961D02*
X94742143Y-71237200D01*
X94742143Y-71237200D02*
X94885000Y-71284819D01*
X94885000Y-71284819D02*
X94980238Y-71284819D01*
X94980238Y-71284819D02*
X95123095Y-71237200D01*
X95123095Y-71237200D02*
X95170714Y-71189580D01*
X95170714Y-71189580D02*
X95170714Y-70856247D01*
X95170714Y-70856247D02*
X94980238Y-70856247D01*
X95599286Y-71284819D02*
X95599286Y-70284819D01*
X95599286Y-70284819D02*
X96170714Y-71284819D01*
X96170714Y-71284819D02*
X96170714Y-70284819D01*
X96646905Y-71284819D02*
X96646905Y-70284819D01*
X96646905Y-70284819D02*
X96885000Y-70284819D01*
X96885000Y-70284819D02*
X97027857Y-70332438D01*
X97027857Y-70332438D02*
X97123095Y-70427676D01*
X97123095Y-70427676D02*
X97170714Y-70522914D01*
X97170714Y-70522914D02*
X97218333Y-70713390D01*
X97218333Y-70713390D02*
X97218333Y-70856247D01*
X97218333Y-70856247D02*
X97170714Y-71046723D01*
X97170714Y-71046723D02*
X97123095Y-71141961D01*
X97123095Y-71141961D02*
X97027857Y-71237200D01*
X97027857Y-71237200D02*
X96885000Y-71284819D01*
X96885000Y-71284819D02*
X96646905Y-71284819D01*
X79383095Y-65886819D02*
X79954523Y-65886819D01*
X79668809Y-66886819D02*
X79668809Y-65886819D01*
X80287857Y-66886819D02*
X80287857Y-65886819D01*
X80287857Y-65886819D02*
X80668809Y-65886819D01*
X80668809Y-65886819D02*
X80764047Y-65934438D01*
X80764047Y-65934438D02*
X80811666Y-65982057D01*
X80811666Y-65982057D02*
X80859285Y-66077295D01*
X80859285Y-66077295D02*
X80859285Y-66220152D01*
X80859285Y-66220152D02*
X80811666Y-66315390D01*
X80811666Y-66315390D02*
X80764047Y-66363009D01*
X80764047Y-66363009D02*
X80668809Y-66410628D01*
X80668809Y-66410628D02*
X80287857Y-66410628D01*
X81192619Y-65886819D02*
X81859285Y-65886819D01*
X81859285Y-65886819D02*
X81430714Y-66886819D01*
X79883095Y-70332438D02*
X79787857Y-70284819D01*
X79787857Y-70284819D02*
X79645000Y-70284819D01*
X79645000Y-70284819D02*
X79502143Y-70332438D01*
X79502143Y-70332438D02*
X79406905Y-70427676D01*
X79406905Y-70427676D02*
X79359286Y-70522914D01*
X79359286Y-70522914D02*
X79311667Y-70713390D01*
X79311667Y-70713390D02*
X79311667Y-70856247D01*
X79311667Y-70856247D02*
X79359286Y-71046723D01*
X79359286Y-71046723D02*
X79406905Y-71141961D01*
X79406905Y-71141961D02*
X79502143Y-71237200D01*
X79502143Y-71237200D02*
X79645000Y-71284819D01*
X79645000Y-71284819D02*
X79740238Y-71284819D01*
X79740238Y-71284819D02*
X79883095Y-71237200D01*
X79883095Y-71237200D02*
X79930714Y-71189580D01*
X79930714Y-71189580D02*
X79930714Y-70856247D01*
X79930714Y-70856247D02*
X79740238Y-70856247D01*
X80359286Y-71284819D02*
X80359286Y-70284819D01*
X80359286Y-70284819D02*
X80930714Y-71284819D01*
X80930714Y-71284819D02*
X80930714Y-70284819D01*
X81406905Y-71284819D02*
X81406905Y-70284819D01*
X81406905Y-70284819D02*
X81645000Y-70284819D01*
X81645000Y-70284819D02*
X81787857Y-70332438D01*
X81787857Y-70332438D02*
X81883095Y-70427676D01*
X81883095Y-70427676D02*
X81930714Y-70522914D01*
X81930714Y-70522914D02*
X81978333Y-70713390D01*
X81978333Y-70713390D02*
X81978333Y-70856247D01*
X81978333Y-70856247D02*
X81930714Y-71046723D01*
X81930714Y-71046723D02*
X81883095Y-71141961D01*
X81883095Y-71141961D02*
X81787857Y-71237200D01*
X81787857Y-71237200D02*
X81645000Y-71284819D01*
X81645000Y-71284819D02*
X81406905Y-71284819D01*
X64143095Y-65886819D02*
X64714523Y-65886819D01*
X64428809Y-66886819D02*
X64428809Y-65886819D01*
X65047857Y-66886819D02*
X65047857Y-65886819D01*
X65047857Y-65886819D02*
X65428809Y-65886819D01*
X65428809Y-65886819D02*
X65524047Y-65934438D01*
X65524047Y-65934438D02*
X65571666Y-65982057D01*
X65571666Y-65982057D02*
X65619285Y-66077295D01*
X65619285Y-66077295D02*
X65619285Y-66220152D01*
X65619285Y-66220152D02*
X65571666Y-66315390D01*
X65571666Y-66315390D02*
X65524047Y-66363009D01*
X65524047Y-66363009D02*
X65428809Y-66410628D01*
X65428809Y-66410628D02*
X65047857Y-66410628D01*
X66476428Y-65886819D02*
X66285952Y-65886819D01*
X66285952Y-65886819D02*
X66190714Y-65934438D01*
X66190714Y-65934438D02*
X66143095Y-65982057D01*
X66143095Y-65982057D02*
X66047857Y-66124914D01*
X66047857Y-66124914D02*
X66000238Y-66315390D01*
X66000238Y-66315390D02*
X66000238Y-66696342D01*
X66000238Y-66696342D02*
X66047857Y-66791580D01*
X66047857Y-66791580D02*
X66095476Y-66839200D01*
X66095476Y-66839200D02*
X66190714Y-66886819D01*
X66190714Y-66886819D02*
X66381190Y-66886819D01*
X66381190Y-66886819D02*
X66476428Y-66839200D01*
X66476428Y-66839200D02*
X66524047Y-66791580D01*
X66524047Y-66791580D02*
X66571666Y-66696342D01*
X66571666Y-66696342D02*
X66571666Y-66458247D01*
X66571666Y-66458247D02*
X66524047Y-66363009D01*
X66524047Y-66363009D02*
X66476428Y-66315390D01*
X66476428Y-66315390D02*
X66381190Y-66267771D01*
X66381190Y-66267771D02*
X66190714Y-66267771D01*
X66190714Y-66267771D02*
X66095476Y-66315390D01*
X66095476Y-66315390D02*
X66047857Y-66363009D01*
X66047857Y-66363009D02*
X66000238Y-66458247D01*
X64643095Y-70332438D02*
X64547857Y-70284819D01*
X64547857Y-70284819D02*
X64405000Y-70284819D01*
X64405000Y-70284819D02*
X64262143Y-70332438D01*
X64262143Y-70332438D02*
X64166905Y-70427676D01*
X64166905Y-70427676D02*
X64119286Y-70522914D01*
X64119286Y-70522914D02*
X64071667Y-70713390D01*
X64071667Y-70713390D02*
X64071667Y-70856247D01*
X64071667Y-70856247D02*
X64119286Y-71046723D01*
X64119286Y-71046723D02*
X64166905Y-71141961D01*
X64166905Y-71141961D02*
X64262143Y-71237200D01*
X64262143Y-71237200D02*
X64405000Y-71284819D01*
X64405000Y-71284819D02*
X64500238Y-71284819D01*
X64500238Y-71284819D02*
X64643095Y-71237200D01*
X64643095Y-71237200D02*
X64690714Y-71189580D01*
X64690714Y-71189580D02*
X64690714Y-70856247D01*
X64690714Y-70856247D02*
X64500238Y-70856247D01*
X65119286Y-71284819D02*
X65119286Y-70284819D01*
X65119286Y-70284819D02*
X65690714Y-71284819D01*
X65690714Y-71284819D02*
X65690714Y-70284819D01*
X66166905Y-71284819D02*
X66166905Y-70284819D01*
X66166905Y-70284819D02*
X66405000Y-70284819D01*
X66405000Y-70284819D02*
X66547857Y-70332438D01*
X66547857Y-70332438D02*
X66643095Y-70427676D01*
X66643095Y-70427676D02*
X66690714Y-70522914D01*
X66690714Y-70522914D02*
X66738333Y-70713390D01*
X66738333Y-70713390D02*
X66738333Y-70856247D01*
X66738333Y-70856247D02*
X66690714Y-71046723D01*
X66690714Y-71046723D02*
X66643095Y-71141961D01*
X66643095Y-71141961D02*
X66547857Y-71237200D01*
X66547857Y-71237200D02*
X66405000Y-71284819D01*
X66405000Y-71284819D02*
X66166905Y-71284819D01*
X49538095Y-65886819D02*
X50109523Y-65886819D01*
X49823809Y-66886819D02*
X49823809Y-65886819D01*
X50442857Y-66886819D02*
X50442857Y-65886819D01*
X50442857Y-65886819D02*
X50823809Y-65886819D01*
X50823809Y-65886819D02*
X50919047Y-65934438D01*
X50919047Y-65934438D02*
X50966666Y-65982057D01*
X50966666Y-65982057D02*
X51014285Y-66077295D01*
X51014285Y-66077295D02*
X51014285Y-66220152D01*
X51014285Y-66220152D02*
X50966666Y-66315390D01*
X50966666Y-66315390D02*
X50919047Y-66363009D01*
X50919047Y-66363009D02*
X50823809Y-66410628D01*
X50823809Y-66410628D02*
X50442857Y-66410628D01*
X51919047Y-65886819D02*
X51442857Y-65886819D01*
X51442857Y-65886819D02*
X51395238Y-66363009D01*
X51395238Y-66363009D02*
X51442857Y-66315390D01*
X51442857Y-66315390D02*
X51538095Y-66267771D01*
X51538095Y-66267771D02*
X51776190Y-66267771D01*
X51776190Y-66267771D02*
X51871428Y-66315390D01*
X51871428Y-66315390D02*
X51919047Y-66363009D01*
X51919047Y-66363009D02*
X51966666Y-66458247D01*
X51966666Y-66458247D02*
X51966666Y-66696342D01*
X51966666Y-66696342D02*
X51919047Y-66791580D01*
X51919047Y-66791580D02*
X51871428Y-66839200D01*
X51871428Y-66839200D02*
X51776190Y-66886819D01*
X51776190Y-66886819D02*
X51538095Y-66886819D01*
X51538095Y-66886819D02*
X51442857Y-66839200D01*
X51442857Y-66839200D02*
X51395238Y-66791580D01*
X50038095Y-70332438D02*
X49942857Y-70284819D01*
X49942857Y-70284819D02*
X49800000Y-70284819D01*
X49800000Y-70284819D02*
X49657143Y-70332438D01*
X49657143Y-70332438D02*
X49561905Y-70427676D01*
X49561905Y-70427676D02*
X49514286Y-70522914D01*
X49514286Y-70522914D02*
X49466667Y-70713390D01*
X49466667Y-70713390D02*
X49466667Y-70856247D01*
X49466667Y-70856247D02*
X49514286Y-71046723D01*
X49514286Y-71046723D02*
X49561905Y-71141961D01*
X49561905Y-71141961D02*
X49657143Y-71237200D01*
X49657143Y-71237200D02*
X49800000Y-71284819D01*
X49800000Y-71284819D02*
X49895238Y-71284819D01*
X49895238Y-71284819D02*
X50038095Y-71237200D01*
X50038095Y-71237200D02*
X50085714Y-71189580D01*
X50085714Y-71189580D02*
X50085714Y-70856247D01*
X50085714Y-70856247D02*
X49895238Y-70856247D01*
X50514286Y-71284819D02*
X50514286Y-70284819D01*
X50514286Y-70284819D02*
X51085714Y-71284819D01*
X51085714Y-71284819D02*
X51085714Y-70284819D01*
X51561905Y-71284819D02*
X51561905Y-70284819D01*
X51561905Y-70284819D02*
X51800000Y-70284819D01*
X51800000Y-70284819D02*
X51942857Y-70332438D01*
X51942857Y-70332438D02*
X52038095Y-70427676D01*
X52038095Y-70427676D02*
X52085714Y-70522914D01*
X52085714Y-70522914D02*
X52133333Y-70713390D01*
X52133333Y-70713390D02*
X52133333Y-70856247D01*
X52133333Y-70856247D02*
X52085714Y-71046723D01*
X52085714Y-71046723D02*
X52038095Y-71141961D01*
X52038095Y-71141961D02*
X51942857Y-71237200D01*
X51942857Y-71237200D02*
X51800000Y-71284819D01*
X51800000Y-71284819D02*
X51561905Y-71284819D01*
X74287142Y-101324580D02*
X74239523Y-101372200D01*
X74239523Y-101372200D02*
X74096666Y-101419819D01*
X74096666Y-101419819D02*
X74001428Y-101419819D01*
X74001428Y-101419819D02*
X73858571Y-101372200D01*
X73858571Y-101372200D02*
X73763333Y-101276961D01*
X73763333Y-101276961D02*
X73715714Y-101181723D01*
X73715714Y-101181723D02*
X73668095Y-100991247D01*
X73668095Y-100991247D02*
X73668095Y-100848390D01*
X73668095Y-100848390D02*
X73715714Y-100657914D01*
X73715714Y-100657914D02*
X73763333Y-100562676D01*
X73763333Y-100562676D02*
X73858571Y-100467438D01*
X73858571Y-100467438D02*
X74001428Y-100419819D01*
X74001428Y-100419819D02*
X74096666Y-100419819D01*
X74096666Y-100419819D02*
X74239523Y-100467438D01*
X74239523Y-100467438D02*
X74287142Y-100515057D01*
X75239523Y-101419819D02*
X74668095Y-101419819D01*
X74953809Y-101419819D02*
X74953809Y-100419819D01*
X74953809Y-100419819D02*
X74858571Y-100562676D01*
X74858571Y-100562676D02*
X74763333Y-100657914D01*
X74763333Y-100657914D02*
X74668095Y-100705533D01*
X75620476Y-100515057D02*
X75668095Y-100467438D01*
X75668095Y-100467438D02*
X75763333Y-100419819D01*
X75763333Y-100419819D02*
X76001428Y-100419819D01*
X76001428Y-100419819D02*
X76096666Y-100467438D01*
X76096666Y-100467438D02*
X76144285Y-100515057D01*
X76144285Y-100515057D02*
X76191904Y-100610295D01*
X76191904Y-100610295D02*
X76191904Y-100705533D01*
X76191904Y-100705533D02*
X76144285Y-100848390D01*
X76144285Y-100848390D02*
X75572857Y-101419819D01*
X75572857Y-101419819D02*
X76191904Y-101419819D01*
X43031580Y-70011666D02*
X43079200Y-70059285D01*
X43079200Y-70059285D02*
X43126819Y-70202142D01*
X43126819Y-70202142D02*
X43126819Y-70297380D01*
X43126819Y-70297380D02*
X43079200Y-70440237D01*
X43079200Y-70440237D02*
X42983961Y-70535475D01*
X42983961Y-70535475D02*
X42888723Y-70583094D01*
X42888723Y-70583094D02*
X42698247Y-70630713D01*
X42698247Y-70630713D02*
X42555390Y-70630713D01*
X42555390Y-70630713D02*
X42364914Y-70583094D01*
X42364914Y-70583094D02*
X42269676Y-70535475D01*
X42269676Y-70535475D02*
X42174438Y-70440237D01*
X42174438Y-70440237D02*
X42126819Y-70297380D01*
X42126819Y-70297380D02*
X42126819Y-70202142D01*
X42126819Y-70202142D02*
X42174438Y-70059285D01*
X42174438Y-70059285D02*
X42222057Y-70011666D01*
X42460152Y-69154523D02*
X43126819Y-69154523D01*
X42079200Y-69392618D02*
X42793485Y-69630713D01*
X42793485Y-69630713D02*
X42793485Y-69011666D01*
X70584819Y-114563904D02*
X71394342Y-114563904D01*
X71394342Y-114563904D02*
X71489580Y-114516285D01*
X71489580Y-114516285D02*
X71537200Y-114468666D01*
X71537200Y-114468666D02*
X71584819Y-114373428D01*
X71584819Y-114373428D02*
X71584819Y-114182952D01*
X71584819Y-114182952D02*
X71537200Y-114087714D01*
X71537200Y-114087714D02*
X71489580Y-114040095D01*
X71489580Y-114040095D02*
X71394342Y-113992476D01*
X71394342Y-113992476D02*
X70584819Y-113992476D01*
X71013390Y-113373428D02*
X70965771Y-113468666D01*
X70965771Y-113468666D02*
X70918152Y-113516285D01*
X70918152Y-113516285D02*
X70822914Y-113563904D01*
X70822914Y-113563904D02*
X70775295Y-113563904D01*
X70775295Y-113563904D02*
X70680057Y-113516285D01*
X70680057Y-113516285D02*
X70632438Y-113468666D01*
X70632438Y-113468666D02*
X70584819Y-113373428D01*
X70584819Y-113373428D02*
X70584819Y-113182952D01*
X70584819Y-113182952D02*
X70632438Y-113087714D01*
X70632438Y-113087714D02*
X70680057Y-113040095D01*
X70680057Y-113040095D02*
X70775295Y-112992476D01*
X70775295Y-112992476D02*
X70822914Y-112992476D01*
X70822914Y-112992476D02*
X70918152Y-113040095D01*
X70918152Y-113040095D02*
X70965771Y-113087714D01*
X70965771Y-113087714D02*
X71013390Y-113182952D01*
X71013390Y-113182952D02*
X71013390Y-113373428D01*
X71013390Y-113373428D02*
X71061009Y-113468666D01*
X71061009Y-113468666D02*
X71108628Y-113516285D01*
X71108628Y-113516285D02*
X71203866Y-113563904D01*
X71203866Y-113563904D02*
X71394342Y-113563904D01*
X71394342Y-113563904D02*
X71489580Y-113516285D01*
X71489580Y-113516285D02*
X71537200Y-113468666D01*
X71537200Y-113468666D02*
X71584819Y-113373428D01*
X71584819Y-113373428D02*
X71584819Y-113182952D01*
X71584819Y-113182952D02*
X71537200Y-113087714D01*
X71537200Y-113087714D02*
X71489580Y-113040095D01*
X71489580Y-113040095D02*
X71394342Y-112992476D01*
X71394342Y-112992476D02*
X71203866Y-112992476D01*
X71203866Y-112992476D02*
X71108628Y-113040095D01*
X71108628Y-113040095D02*
X71061009Y-113087714D01*
X71061009Y-113087714D02*
X71013390Y-113182952D01*
X70584819Y-123413904D02*
X70584819Y-122747238D01*
X70584819Y-122747238D02*
X71584819Y-123175809D01*
X70918152Y-121937714D02*
X71584819Y-121937714D01*
X70537200Y-122175809D02*
X71251485Y-122413904D01*
X71251485Y-122413904D02*
X71251485Y-121794857D01*
X71584819Y-121413904D02*
X70584819Y-121413904D01*
X71061009Y-121413904D02*
X71061009Y-120842476D01*
X71584819Y-120842476D02*
X70584819Y-120842476D01*
X71489580Y-119794857D02*
X71537200Y-119842476D01*
X71537200Y-119842476D02*
X71584819Y-119985333D01*
X71584819Y-119985333D02*
X71584819Y-120080571D01*
X71584819Y-120080571D02*
X71537200Y-120223428D01*
X71537200Y-120223428D02*
X71441961Y-120318666D01*
X71441961Y-120318666D02*
X71346723Y-120366285D01*
X71346723Y-120366285D02*
X71156247Y-120413904D01*
X71156247Y-120413904D02*
X71013390Y-120413904D01*
X71013390Y-120413904D02*
X70822914Y-120366285D01*
X70822914Y-120366285D02*
X70727676Y-120318666D01*
X70727676Y-120318666D02*
X70632438Y-120223428D01*
X70632438Y-120223428D02*
X70584819Y-120080571D01*
X70584819Y-120080571D02*
X70584819Y-119985333D01*
X70584819Y-119985333D02*
X70632438Y-119842476D01*
X70632438Y-119842476D02*
X70680057Y-119794857D01*
X70584819Y-118890095D02*
X70584819Y-119366285D01*
X70584819Y-119366285D02*
X71061009Y-119413904D01*
X71061009Y-119413904D02*
X71013390Y-119366285D01*
X71013390Y-119366285D02*
X70965771Y-119271047D01*
X70965771Y-119271047D02*
X70965771Y-119032952D01*
X70965771Y-119032952D02*
X71013390Y-118937714D01*
X71013390Y-118937714D02*
X71061009Y-118890095D01*
X71061009Y-118890095D02*
X71156247Y-118842476D01*
X71156247Y-118842476D02*
X71394342Y-118842476D01*
X71394342Y-118842476D02*
X71489580Y-118890095D01*
X71489580Y-118890095D02*
X71537200Y-118937714D01*
X71537200Y-118937714D02*
X71584819Y-119032952D01*
X71584819Y-119032952D02*
X71584819Y-119271047D01*
X71584819Y-119271047D02*
X71537200Y-119366285D01*
X71537200Y-119366285D02*
X71489580Y-119413904D01*
X71584819Y-118366285D02*
X71584819Y-118175809D01*
X71584819Y-118175809D02*
X71537200Y-118080571D01*
X71537200Y-118080571D02*
X71489580Y-118032952D01*
X71489580Y-118032952D02*
X71346723Y-117937714D01*
X71346723Y-117937714D02*
X71156247Y-117890095D01*
X71156247Y-117890095D02*
X70775295Y-117890095D01*
X70775295Y-117890095D02*
X70680057Y-117937714D01*
X70680057Y-117937714D02*
X70632438Y-117985333D01*
X70632438Y-117985333D02*
X70584819Y-118080571D01*
X70584819Y-118080571D02*
X70584819Y-118271047D01*
X70584819Y-118271047D02*
X70632438Y-118366285D01*
X70632438Y-118366285D02*
X70680057Y-118413904D01*
X70680057Y-118413904D02*
X70775295Y-118461523D01*
X70775295Y-118461523D02*
X71013390Y-118461523D01*
X71013390Y-118461523D02*
X71108628Y-118413904D01*
X71108628Y-118413904D02*
X71156247Y-118366285D01*
X71156247Y-118366285D02*
X71203866Y-118271047D01*
X71203866Y-118271047D02*
X71203866Y-118080571D01*
X71203866Y-118080571D02*
X71156247Y-117985333D01*
X71156247Y-117985333D02*
X71108628Y-117937714D01*
X71108628Y-117937714D02*
X71013390Y-117890095D01*
X70584819Y-116985333D02*
X70584819Y-117461523D01*
X70584819Y-117461523D02*
X71061009Y-117509142D01*
X71061009Y-117509142D02*
X71013390Y-117461523D01*
X71013390Y-117461523D02*
X70965771Y-117366285D01*
X70965771Y-117366285D02*
X70965771Y-117128190D01*
X70965771Y-117128190D02*
X71013390Y-117032952D01*
X71013390Y-117032952D02*
X71061009Y-116985333D01*
X71061009Y-116985333D02*
X71156247Y-116937714D01*
X71156247Y-116937714D02*
X71394342Y-116937714D01*
X71394342Y-116937714D02*
X71489580Y-116985333D01*
X71489580Y-116985333D02*
X71537200Y-117032952D01*
X71537200Y-117032952D02*
X71584819Y-117128190D01*
X71584819Y-117128190D02*
X71584819Y-117366285D01*
X71584819Y-117366285D02*
X71537200Y-117461523D01*
X71537200Y-117461523D02*
X71489580Y-117509142D01*
X49272819Y-105586666D02*
X48796628Y-105919999D01*
X49272819Y-106158094D02*
X48272819Y-106158094D01*
X48272819Y-106158094D02*
X48272819Y-105777142D01*
X48272819Y-105777142D02*
X48320438Y-105681904D01*
X48320438Y-105681904D02*
X48368057Y-105634285D01*
X48368057Y-105634285D02*
X48463295Y-105586666D01*
X48463295Y-105586666D02*
X48606152Y-105586666D01*
X48606152Y-105586666D02*
X48701390Y-105634285D01*
X48701390Y-105634285D02*
X48749009Y-105681904D01*
X48749009Y-105681904D02*
X48796628Y-105777142D01*
X48796628Y-105777142D02*
X48796628Y-106158094D01*
X48606152Y-104729523D02*
X49272819Y-104729523D01*
X48225200Y-104967618D02*
X48939485Y-105205713D01*
X48939485Y-105205713D02*
X48939485Y-104586666D01*
X54024761Y-105874819D02*
X53453333Y-105874819D01*
X53739047Y-105874819D02*
X53739047Y-104874819D01*
X53739047Y-104874819D02*
X53643809Y-105017676D01*
X53643809Y-105017676D02*
X53548571Y-105112914D01*
X53548571Y-105112914D02*
X53453333Y-105160533D01*
X54643809Y-104874819D02*
X54739047Y-104874819D01*
X54739047Y-104874819D02*
X54834285Y-104922438D01*
X54834285Y-104922438D02*
X54881904Y-104970057D01*
X54881904Y-104970057D02*
X54929523Y-105065295D01*
X54929523Y-105065295D02*
X54977142Y-105255771D01*
X54977142Y-105255771D02*
X54977142Y-105493866D01*
X54977142Y-105493866D02*
X54929523Y-105684342D01*
X54929523Y-105684342D02*
X54881904Y-105779580D01*
X54881904Y-105779580D02*
X54834285Y-105827200D01*
X54834285Y-105827200D02*
X54739047Y-105874819D01*
X54739047Y-105874819D02*
X54643809Y-105874819D01*
X54643809Y-105874819D02*
X54548571Y-105827200D01*
X54548571Y-105827200D02*
X54500952Y-105779580D01*
X54500952Y-105779580D02*
X54453333Y-105684342D01*
X54453333Y-105684342D02*
X54405714Y-105493866D01*
X54405714Y-105493866D02*
X54405714Y-105255771D01*
X54405714Y-105255771D02*
X54453333Y-105065295D01*
X54453333Y-105065295D02*
X54500952Y-104970057D01*
X54500952Y-104970057D02*
X54548571Y-104922438D01*
X54548571Y-104922438D02*
X54643809Y-104874819D01*
X55405714Y-105874819D02*
X55405714Y-104874819D01*
X55500952Y-105493866D02*
X55786666Y-105874819D01*
X55786666Y-105208152D02*
X55405714Y-105589104D01*
X40433333Y-126517580D02*
X40385714Y-126565200D01*
X40385714Y-126565200D02*
X40242857Y-126612819D01*
X40242857Y-126612819D02*
X40147619Y-126612819D01*
X40147619Y-126612819D02*
X40004762Y-126565200D01*
X40004762Y-126565200D02*
X39909524Y-126469961D01*
X39909524Y-126469961D02*
X39861905Y-126374723D01*
X39861905Y-126374723D02*
X39814286Y-126184247D01*
X39814286Y-126184247D02*
X39814286Y-126041390D01*
X39814286Y-126041390D02*
X39861905Y-125850914D01*
X39861905Y-125850914D02*
X39909524Y-125755676D01*
X39909524Y-125755676D02*
X40004762Y-125660438D01*
X40004762Y-125660438D02*
X40147619Y-125612819D01*
X40147619Y-125612819D02*
X40242857Y-125612819D01*
X40242857Y-125612819D02*
X40385714Y-125660438D01*
X40385714Y-125660438D02*
X40433333Y-125708057D01*
X41004762Y-126041390D02*
X40909524Y-125993771D01*
X40909524Y-125993771D02*
X40861905Y-125946152D01*
X40861905Y-125946152D02*
X40814286Y-125850914D01*
X40814286Y-125850914D02*
X40814286Y-125803295D01*
X40814286Y-125803295D02*
X40861905Y-125708057D01*
X40861905Y-125708057D02*
X40909524Y-125660438D01*
X40909524Y-125660438D02*
X41004762Y-125612819D01*
X41004762Y-125612819D02*
X41195238Y-125612819D01*
X41195238Y-125612819D02*
X41290476Y-125660438D01*
X41290476Y-125660438D02*
X41338095Y-125708057D01*
X41338095Y-125708057D02*
X41385714Y-125803295D01*
X41385714Y-125803295D02*
X41385714Y-125850914D01*
X41385714Y-125850914D02*
X41338095Y-125946152D01*
X41338095Y-125946152D02*
X41290476Y-125993771D01*
X41290476Y-125993771D02*
X41195238Y-126041390D01*
X41195238Y-126041390D02*
X41004762Y-126041390D01*
X41004762Y-126041390D02*
X40909524Y-126089009D01*
X40909524Y-126089009D02*
X40861905Y-126136628D01*
X40861905Y-126136628D02*
X40814286Y-126231866D01*
X40814286Y-126231866D02*
X40814286Y-126422342D01*
X40814286Y-126422342D02*
X40861905Y-126517580D01*
X40861905Y-126517580D02*
X40909524Y-126565200D01*
X40909524Y-126565200D02*
X41004762Y-126612819D01*
X41004762Y-126612819D02*
X41195238Y-126612819D01*
X41195238Y-126612819D02*
X41290476Y-126565200D01*
X41290476Y-126565200D02*
X41338095Y-126517580D01*
X41338095Y-126517580D02*
X41385714Y-126422342D01*
X41385714Y-126422342D02*
X41385714Y-126231866D01*
X41385714Y-126231866D02*
X41338095Y-126136628D01*
X41338095Y-126136628D02*
X41290476Y-126089009D01*
X41290476Y-126089009D02*
X41195238Y-126041390D01*
X38957143Y-134756819D02*
X39052381Y-134756819D01*
X39052381Y-134756819D02*
X39147619Y-134804438D01*
X39147619Y-134804438D02*
X39195238Y-134852057D01*
X39195238Y-134852057D02*
X39242857Y-134947295D01*
X39242857Y-134947295D02*
X39290476Y-135137771D01*
X39290476Y-135137771D02*
X39290476Y-135375866D01*
X39290476Y-135375866D02*
X39242857Y-135566342D01*
X39242857Y-135566342D02*
X39195238Y-135661580D01*
X39195238Y-135661580D02*
X39147619Y-135709200D01*
X39147619Y-135709200D02*
X39052381Y-135756819D01*
X39052381Y-135756819D02*
X38957143Y-135756819D01*
X38957143Y-135756819D02*
X38861905Y-135709200D01*
X38861905Y-135709200D02*
X38814286Y-135661580D01*
X38814286Y-135661580D02*
X38766667Y-135566342D01*
X38766667Y-135566342D02*
X38719048Y-135375866D01*
X38719048Y-135375866D02*
X38719048Y-135137771D01*
X38719048Y-135137771D02*
X38766667Y-134947295D01*
X38766667Y-134947295D02*
X38814286Y-134852057D01*
X38814286Y-134852057D02*
X38861905Y-134804438D01*
X38861905Y-134804438D02*
X38957143Y-134756819D01*
X39719048Y-135661580D02*
X39766667Y-135709200D01*
X39766667Y-135709200D02*
X39719048Y-135756819D01*
X39719048Y-135756819D02*
X39671429Y-135709200D01*
X39671429Y-135709200D02*
X39719048Y-135661580D01*
X39719048Y-135661580D02*
X39719048Y-135756819D01*
X40719047Y-135756819D02*
X40147619Y-135756819D01*
X40433333Y-135756819D02*
X40433333Y-134756819D01*
X40433333Y-134756819D02*
X40338095Y-134899676D01*
X40338095Y-134899676D02*
X40242857Y-134994914D01*
X40242857Y-134994914D02*
X40147619Y-135042533D01*
X41576190Y-135090152D02*
X41576190Y-135756819D01*
X41147619Y-135090152D02*
X41147619Y-135613961D01*
X41147619Y-135613961D02*
X41195238Y-135709200D01*
X41195238Y-135709200D02*
X41290476Y-135756819D01*
X41290476Y-135756819D02*
X41433333Y-135756819D01*
X41433333Y-135756819D02*
X41528571Y-135709200D01*
X41528571Y-135709200D02*
X41576190Y-135661580D01*
X42385714Y-135233009D02*
X42052381Y-135233009D01*
X42052381Y-135756819D02*
X42052381Y-134756819D01*
X42052381Y-134756819D02*
X42528571Y-134756819D01*
X70624819Y-94537904D02*
X71434342Y-94537904D01*
X71434342Y-94537904D02*
X71529580Y-94490285D01*
X71529580Y-94490285D02*
X71577200Y-94442666D01*
X71577200Y-94442666D02*
X71624819Y-94347428D01*
X71624819Y-94347428D02*
X71624819Y-94156952D01*
X71624819Y-94156952D02*
X71577200Y-94061714D01*
X71577200Y-94061714D02*
X71529580Y-94014095D01*
X71529580Y-94014095D02*
X71434342Y-93966476D01*
X71434342Y-93966476D02*
X70624819Y-93966476D01*
X71624819Y-92966476D02*
X71624819Y-93537904D01*
X71624819Y-93252190D02*
X70624819Y-93252190D01*
X70624819Y-93252190D02*
X70767676Y-93347428D01*
X70767676Y-93347428D02*
X70862914Y-93442666D01*
X70862914Y-93442666D02*
X70910533Y-93537904D01*
X70624819Y-102879904D02*
X70624819Y-102213238D01*
X70624819Y-102213238D02*
X71624819Y-102641809D01*
X70958152Y-101403714D02*
X71624819Y-101403714D01*
X70577200Y-101641809D02*
X71291485Y-101879904D01*
X71291485Y-101879904D02*
X71291485Y-101260857D01*
X71624819Y-100879904D02*
X70624819Y-100879904D01*
X71101009Y-100879904D02*
X71101009Y-100308476D01*
X71624819Y-100308476D02*
X70624819Y-100308476D01*
X71529580Y-99260857D02*
X71577200Y-99308476D01*
X71577200Y-99308476D02*
X71624819Y-99451333D01*
X71624819Y-99451333D02*
X71624819Y-99546571D01*
X71624819Y-99546571D02*
X71577200Y-99689428D01*
X71577200Y-99689428D02*
X71481961Y-99784666D01*
X71481961Y-99784666D02*
X71386723Y-99832285D01*
X71386723Y-99832285D02*
X71196247Y-99879904D01*
X71196247Y-99879904D02*
X71053390Y-99879904D01*
X71053390Y-99879904D02*
X70862914Y-99832285D01*
X70862914Y-99832285D02*
X70767676Y-99784666D01*
X70767676Y-99784666D02*
X70672438Y-99689428D01*
X70672438Y-99689428D02*
X70624819Y-99546571D01*
X70624819Y-99546571D02*
X70624819Y-99451333D01*
X70624819Y-99451333D02*
X70672438Y-99308476D01*
X70672438Y-99308476D02*
X70720057Y-99260857D01*
X71624819Y-98308476D02*
X71624819Y-98879904D01*
X71624819Y-98594190D02*
X70624819Y-98594190D01*
X70624819Y-98594190D02*
X70767676Y-98689428D01*
X70767676Y-98689428D02*
X70862914Y-98784666D01*
X70862914Y-98784666D02*
X70910533Y-98879904D01*
X70720057Y-97927523D02*
X70672438Y-97879904D01*
X70672438Y-97879904D02*
X70624819Y-97784666D01*
X70624819Y-97784666D02*
X70624819Y-97546571D01*
X70624819Y-97546571D02*
X70672438Y-97451333D01*
X70672438Y-97451333D02*
X70720057Y-97403714D01*
X70720057Y-97403714D02*
X70815295Y-97356095D01*
X70815295Y-97356095D02*
X70910533Y-97356095D01*
X70910533Y-97356095D02*
X71053390Y-97403714D01*
X71053390Y-97403714D02*
X71624819Y-97975142D01*
X71624819Y-97975142D02*
X71624819Y-97356095D01*
X70624819Y-97022761D02*
X70624819Y-96403714D01*
X70624819Y-96403714D02*
X71005771Y-96737047D01*
X71005771Y-96737047D02*
X71005771Y-96594190D01*
X71005771Y-96594190D02*
X71053390Y-96498952D01*
X71053390Y-96498952D02*
X71101009Y-96451333D01*
X71101009Y-96451333D02*
X71196247Y-96403714D01*
X71196247Y-96403714D02*
X71434342Y-96403714D01*
X71434342Y-96403714D02*
X71529580Y-96451333D01*
X71529580Y-96451333D02*
X71577200Y-96498952D01*
X71577200Y-96498952D02*
X71624819Y-96594190D01*
X71624819Y-96594190D02*
X71624819Y-96879904D01*
X71624819Y-96879904D02*
X71577200Y-96975142D01*
X71577200Y-96975142D02*
X71529580Y-97022761D01*
X95979819Y-89671904D02*
X96789342Y-89671904D01*
X96789342Y-89671904D02*
X96884580Y-89624285D01*
X96884580Y-89624285D02*
X96932200Y-89576666D01*
X96932200Y-89576666D02*
X96979819Y-89481428D01*
X96979819Y-89481428D02*
X96979819Y-89290952D01*
X96979819Y-89290952D02*
X96932200Y-89195714D01*
X96932200Y-89195714D02*
X96884580Y-89148095D01*
X96884580Y-89148095D02*
X96789342Y-89100476D01*
X96789342Y-89100476D02*
X95979819Y-89100476D01*
X95979819Y-88719523D02*
X95979819Y-88100476D01*
X95979819Y-88100476D02*
X96360771Y-88433809D01*
X96360771Y-88433809D02*
X96360771Y-88290952D01*
X96360771Y-88290952D02*
X96408390Y-88195714D01*
X96408390Y-88195714D02*
X96456009Y-88148095D01*
X96456009Y-88148095D02*
X96551247Y-88100476D01*
X96551247Y-88100476D02*
X96789342Y-88100476D01*
X96789342Y-88100476D02*
X96884580Y-88148095D01*
X96884580Y-88148095D02*
X96932200Y-88195714D01*
X96932200Y-88195714D02*
X96979819Y-88290952D01*
X96979819Y-88290952D02*
X96979819Y-88576666D01*
X96979819Y-88576666D02*
X96932200Y-88671904D01*
X96932200Y-88671904D02*
X96884580Y-88719523D01*
X95979819Y-97791713D02*
X95979819Y-97125047D01*
X95979819Y-97125047D02*
X96979819Y-97553618D01*
X96313152Y-96315523D02*
X96979819Y-96315523D01*
X95932200Y-96553618D02*
X96646485Y-96791713D01*
X96646485Y-96791713D02*
X96646485Y-96172666D01*
X96979819Y-95791713D02*
X95979819Y-95791713D01*
X96456009Y-95791713D02*
X96456009Y-95220285D01*
X96979819Y-95220285D02*
X95979819Y-95220285D01*
X96884580Y-94172666D02*
X96932200Y-94220285D01*
X96932200Y-94220285D02*
X96979819Y-94363142D01*
X96979819Y-94363142D02*
X96979819Y-94458380D01*
X96979819Y-94458380D02*
X96932200Y-94601237D01*
X96932200Y-94601237D02*
X96836961Y-94696475D01*
X96836961Y-94696475D02*
X96741723Y-94744094D01*
X96741723Y-94744094D02*
X96551247Y-94791713D01*
X96551247Y-94791713D02*
X96408390Y-94791713D01*
X96408390Y-94791713D02*
X96217914Y-94744094D01*
X96217914Y-94744094D02*
X96122676Y-94696475D01*
X96122676Y-94696475D02*
X96027438Y-94601237D01*
X96027438Y-94601237D02*
X95979819Y-94458380D01*
X95979819Y-94458380D02*
X95979819Y-94363142D01*
X95979819Y-94363142D02*
X96027438Y-94220285D01*
X96027438Y-94220285D02*
X96075057Y-94172666D01*
X95979819Y-93553618D02*
X95979819Y-93458380D01*
X95979819Y-93458380D02*
X96027438Y-93363142D01*
X96027438Y-93363142D02*
X96075057Y-93315523D01*
X96075057Y-93315523D02*
X96170295Y-93267904D01*
X96170295Y-93267904D02*
X96360771Y-93220285D01*
X96360771Y-93220285D02*
X96598866Y-93220285D01*
X96598866Y-93220285D02*
X96789342Y-93267904D01*
X96789342Y-93267904D02*
X96884580Y-93315523D01*
X96884580Y-93315523D02*
X96932200Y-93363142D01*
X96932200Y-93363142D02*
X96979819Y-93458380D01*
X96979819Y-93458380D02*
X96979819Y-93553618D01*
X96979819Y-93553618D02*
X96932200Y-93648856D01*
X96932200Y-93648856D02*
X96884580Y-93696475D01*
X96884580Y-93696475D02*
X96789342Y-93744094D01*
X96789342Y-93744094D02*
X96598866Y-93791713D01*
X96598866Y-93791713D02*
X96360771Y-93791713D01*
X96360771Y-93791713D02*
X96170295Y-93744094D01*
X96170295Y-93744094D02*
X96075057Y-93696475D01*
X96075057Y-93696475D02*
X96027438Y-93648856D01*
X96027438Y-93648856D02*
X95979819Y-93553618D01*
X95979819Y-92601237D02*
X95979819Y-92505999D01*
X95979819Y-92505999D02*
X96027438Y-92410761D01*
X96027438Y-92410761D02*
X96075057Y-92363142D01*
X96075057Y-92363142D02*
X96170295Y-92315523D01*
X96170295Y-92315523D02*
X96360771Y-92267904D01*
X96360771Y-92267904D02*
X96598866Y-92267904D01*
X96598866Y-92267904D02*
X96789342Y-92315523D01*
X96789342Y-92315523D02*
X96884580Y-92363142D01*
X96884580Y-92363142D02*
X96932200Y-92410761D01*
X96932200Y-92410761D02*
X96979819Y-92505999D01*
X96979819Y-92505999D02*
X96979819Y-92601237D01*
X96979819Y-92601237D02*
X96932200Y-92696475D01*
X96932200Y-92696475D02*
X96884580Y-92744094D01*
X96884580Y-92744094D02*
X96789342Y-92791713D01*
X96789342Y-92791713D02*
X96598866Y-92839332D01*
X96598866Y-92839332D02*
X96360771Y-92839332D01*
X96360771Y-92839332D02*
X96170295Y-92791713D01*
X96170295Y-92791713D02*
X96075057Y-92744094D01*
X96075057Y-92744094D02*
X96027438Y-92696475D01*
X96027438Y-92696475D02*
X95979819Y-92601237D01*
X34594819Y-92940094D02*
X33594819Y-92940094D01*
X33594819Y-92940094D02*
X33594819Y-92701999D01*
X33594819Y-92701999D02*
X33642438Y-92559142D01*
X33642438Y-92559142D02*
X33737676Y-92463904D01*
X33737676Y-92463904D02*
X33832914Y-92416285D01*
X33832914Y-92416285D02*
X34023390Y-92368666D01*
X34023390Y-92368666D02*
X34166247Y-92368666D01*
X34166247Y-92368666D02*
X34356723Y-92416285D01*
X34356723Y-92416285D02*
X34451961Y-92463904D01*
X34451961Y-92463904D02*
X34547200Y-92559142D01*
X34547200Y-92559142D02*
X34594819Y-92701999D01*
X34594819Y-92701999D02*
X34594819Y-92940094D01*
X33690057Y-91987713D02*
X33642438Y-91940094D01*
X33642438Y-91940094D02*
X33594819Y-91844856D01*
X33594819Y-91844856D02*
X33594819Y-91606761D01*
X33594819Y-91606761D02*
X33642438Y-91511523D01*
X33642438Y-91511523D02*
X33690057Y-91463904D01*
X33690057Y-91463904D02*
X33785295Y-91416285D01*
X33785295Y-91416285D02*
X33880533Y-91416285D01*
X33880533Y-91416285D02*
X34023390Y-91463904D01*
X34023390Y-91463904D02*
X34594819Y-92035332D01*
X34594819Y-92035332D02*
X34594819Y-91416285D01*
X42467200Y-93344856D02*
X42514819Y-93201999D01*
X42514819Y-93201999D02*
X42514819Y-92963904D01*
X42514819Y-92963904D02*
X42467200Y-92868666D01*
X42467200Y-92868666D02*
X42419580Y-92821047D01*
X42419580Y-92821047D02*
X42324342Y-92773428D01*
X42324342Y-92773428D02*
X42229104Y-92773428D01*
X42229104Y-92773428D02*
X42133866Y-92821047D01*
X42133866Y-92821047D02*
X42086247Y-92868666D01*
X42086247Y-92868666D02*
X42038628Y-92963904D01*
X42038628Y-92963904D02*
X41991009Y-93154380D01*
X41991009Y-93154380D02*
X41943390Y-93249618D01*
X41943390Y-93249618D02*
X41895771Y-93297237D01*
X41895771Y-93297237D02*
X41800533Y-93344856D01*
X41800533Y-93344856D02*
X41705295Y-93344856D01*
X41705295Y-93344856D02*
X41610057Y-93297237D01*
X41610057Y-93297237D02*
X41562438Y-93249618D01*
X41562438Y-93249618D02*
X41514819Y-93154380D01*
X41514819Y-93154380D02*
X41514819Y-92916285D01*
X41514819Y-92916285D02*
X41562438Y-92773428D01*
X41991009Y-92344856D02*
X41991009Y-92011523D01*
X42514819Y-91868666D02*
X42514819Y-92344856D01*
X42514819Y-92344856D02*
X41514819Y-92344856D01*
X41514819Y-92344856D02*
X41514819Y-91868666D01*
X42514819Y-90963904D02*
X42514819Y-91440094D01*
X42514819Y-91440094D02*
X41514819Y-91440094D01*
X70584819Y-76971904D02*
X71394342Y-76971904D01*
X71394342Y-76971904D02*
X71489580Y-76924285D01*
X71489580Y-76924285D02*
X71537200Y-76876666D01*
X71537200Y-76876666D02*
X71584819Y-76781428D01*
X71584819Y-76781428D02*
X71584819Y-76590952D01*
X71584819Y-76590952D02*
X71537200Y-76495714D01*
X71537200Y-76495714D02*
X71489580Y-76448095D01*
X71489580Y-76448095D02*
X71394342Y-76400476D01*
X71394342Y-76400476D02*
X70584819Y-76400476D01*
X70584819Y-76019523D02*
X70584819Y-75352857D01*
X70584819Y-75352857D02*
X71584819Y-75781428D01*
X70584819Y-85059904D02*
X70584819Y-84393238D01*
X70584819Y-84393238D02*
X71584819Y-84821809D01*
X70918152Y-83583714D02*
X71584819Y-83583714D01*
X70537200Y-83821809D02*
X71251485Y-84059904D01*
X71251485Y-84059904D02*
X71251485Y-83440857D01*
X71584819Y-83059904D02*
X70584819Y-83059904D01*
X71061009Y-83059904D02*
X71061009Y-82488476D01*
X71584819Y-82488476D02*
X70584819Y-82488476D01*
X71489580Y-81440857D02*
X71537200Y-81488476D01*
X71537200Y-81488476D02*
X71584819Y-81631333D01*
X71584819Y-81631333D02*
X71584819Y-81726571D01*
X71584819Y-81726571D02*
X71537200Y-81869428D01*
X71537200Y-81869428D02*
X71441961Y-81964666D01*
X71441961Y-81964666D02*
X71346723Y-82012285D01*
X71346723Y-82012285D02*
X71156247Y-82059904D01*
X71156247Y-82059904D02*
X71013390Y-82059904D01*
X71013390Y-82059904D02*
X70822914Y-82012285D01*
X70822914Y-82012285D02*
X70727676Y-81964666D01*
X70727676Y-81964666D02*
X70632438Y-81869428D01*
X70632438Y-81869428D02*
X70584819Y-81726571D01*
X70584819Y-81726571D02*
X70584819Y-81631333D01*
X70584819Y-81631333D02*
X70632438Y-81488476D01*
X70632438Y-81488476D02*
X70680057Y-81440857D01*
X71584819Y-80488476D02*
X71584819Y-81059904D01*
X71584819Y-80774190D02*
X70584819Y-80774190D01*
X70584819Y-80774190D02*
X70727676Y-80869428D01*
X70727676Y-80869428D02*
X70822914Y-80964666D01*
X70822914Y-80964666D02*
X70870533Y-81059904D01*
X70584819Y-79631333D02*
X70584819Y-79821809D01*
X70584819Y-79821809D02*
X70632438Y-79917047D01*
X70632438Y-79917047D02*
X70680057Y-79964666D01*
X70680057Y-79964666D02*
X70822914Y-80059904D01*
X70822914Y-80059904D02*
X71013390Y-80107523D01*
X71013390Y-80107523D02*
X71394342Y-80107523D01*
X71394342Y-80107523D02*
X71489580Y-80059904D01*
X71489580Y-80059904D02*
X71537200Y-80012285D01*
X71537200Y-80012285D02*
X71584819Y-79917047D01*
X71584819Y-79917047D02*
X71584819Y-79726571D01*
X71584819Y-79726571D02*
X71537200Y-79631333D01*
X71537200Y-79631333D02*
X71489580Y-79583714D01*
X71489580Y-79583714D02*
X71394342Y-79536095D01*
X71394342Y-79536095D02*
X71156247Y-79536095D01*
X71156247Y-79536095D02*
X71061009Y-79583714D01*
X71061009Y-79583714D02*
X71013390Y-79631333D01*
X71013390Y-79631333D02*
X70965771Y-79726571D01*
X70965771Y-79726571D02*
X70965771Y-79917047D01*
X70965771Y-79917047D02*
X71013390Y-80012285D01*
X71013390Y-80012285D02*
X71061009Y-80059904D01*
X71061009Y-80059904D02*
X71156247Y-80107523D01*
X70584819Y-78631333D02*
X70584819Y-79107523D01*
X70584819Y-79107523D02*
X71061009Y-79155142D01*
X71061009Y-79155142D02*
X71013390Y-79107523D01*
X71013390Y-79107523D02*
X70965771Y-79012285D01*
X70965771Y-79012285D02*
X70965771Y-78774190D01*
X70965771Y-78774190D02*
X71013390Y-78678952D01*
X71013390Y-78678952D02*
X71061009Y-78631333D01*
X71061009Y-78631333D02*
X71156247Y-78583714D01*
X71156247Y-78583714D02*
X71394342Y-78583714D01*
X71394342Y-78583714D02*
X71489580Y-78631333D01*
X71489580Y-78631333D02*
X71537200Y-78678952D01*
X71537200Y-78678952D02*
X71584819Y-78774190D01*
X71584819Y-78774190D02*
X71584819Y-79012285D01*
X71584819Y-79012285D02*
X71537200Y-79107523D01*
X71537200Y-79107523D02*
X71489580Y-79155142D01*
X32712819Y-74583666D02*
X32236628Y-74916999D01*
X32712819Y-75155094D02*
X31712819Y-75155094D01*
X31712819Y-75155094D02*
X31712819Y-74774142D01*
X31712819Y-74774142D02*
X31760438Y-74678904D01*
X31760438Y-74678904D02*
X31808057Y-74631285D01*
X31808057Y-74631285D02*
X31903295Y-74583666D01*
X31903295Y-74583666D02*
X32046152Y-74583666D01*
X32046152Y-74583666D02*
X32141390Y-74631285D01*
X32141390Y-74631285D02*
X32189009Y-74678904D01*
X32189009Y-74678904D02*
X32236628Y-74774142D01*
X32236628Y-74774142D02*
X32236628Y-75155094D01*
X31808057Y-74202713D02*
X31760438Y-74155094D01*
X31760438Y-74155094D02*
X31712819Y-74059856D01*
X31712819Y-74059856D02*
X31712819Y-73821761D01*
X31712819Y-73821761D02*
X31760438Y-73726523D01*
X31760438Y-73726523D02*
X31808057Y-73678904D01*
X31808057Y-73678904D02*
X31903295Y-73631285D01*
X31903295Y-73631285D02*
X31998533Y-73631285D01*
X31998533Y-73631285D02*
X32141390Y-73678904D01*
X32141390Y-73678904D02*
X32712819Y-74250332D01*
X32712819Y-74250332D02*
X32712819Y-73631285D01*
X94549795Y-57631819D02*
X95121223Y-57631819D01*
X94835509Y-58631819D02*
X94835509Y-57631819D01*
X95454557Y-58631819D02*
X95454557Y-57631819D01*
X95454557Y-57631819D02*
X95835509Y-57631819D01*
X95835509Y-57631819D02*
X95930747Y-57679438D01*
X95930747Y-57679438D02*
X95978366Y-57727057D01*
X95978366Y-57727057D02*
X96025985Y-57822295D01*
X96025985Y-57822295D02*
X96025985Y-57965152D01*
X96025985Y-57965152D02*
X95978366Y-58060390D01*
X95978366Y-58060390D02*
X95930747Y-58108009D01*
X95930747Y-58108009D02*
X95835509Y-58155628D01*
X95835509Y-58155628D02*
X95454557Y-58155628D01*
X96406938Y-57727057D02*
X96454557Y-57679438D01*
X96454557Y-57679438D02*
X96549795Y-57631819D01*
X96549795Y-57631819D02*
X96787890Y-57631819D01*
X96787890Y-57631819D02*
X96883128Y-57679438D01*
X96883128Y-57679438D02*
X96930747Y-57727057D01*
X96930747Y-57727057D02*
X96978366Y-57822295D01*
X96978366Y-57822295D02*
X96978366Y-57917533D01*
X96978366Y-57917533D02*
X96930747Y-58060390D01*
X96930747Y-58060390D02*
X96359319Y-58631819D01*
X96359319Y-58631819D02*
X96978366Y-58631819D01*
X94240272Y-63319819D02*
X94240272Y-62319819D01*
X94240272Y-62319819D02*
X94573605Y-63034104D01*
X94573605Y-63034104D02*
X94906938Y-62319819D01*
X94906938Y-62319819D02*
X94906938Y-63319819D01*
X95383129Y-63319819D02*
X95383129Y-62319819D01*
X95811700Y-63272200D02*
X95954557Y-63319819D01*
X95954557Y-63319819D02*
X96192652Y-63319819D01*
X96192652Y-63319819D02*
X96287890Y-63272200D01*
X96287890Y-63272200D02*
X96335509Y-63224580D01*
X96335509Y-63224580D02*
X96383128Y-63129342D01*
X96383128Y-63129342D02*
X96383128Y-63034104D01*
X96383128Y-63034104D02*
X96335509Y-62938866D01*
X96335509Y-62938866D02*
X96287890Y-62891247D01*
X96287890Y-62891247D02*
X96192652Y-62843628D01*
X96192652Y-62843628D02*
X96002176Y-62796009D01*
X96002176Y-62796009D02*
X95906938Y-62748390D01*
X95906938Y-62748390D02*
X95859319Y-62700771D01*
X95859319Y-62700771D02*
X95811700Y-62605533D01*
X95811700Y-62605533D02*
X95811700Y-62510295D01*
X95811700Y-62510295D02*
X95859319Y-62415057D01*
X95859319Y-62415057D02*
X95906938Y-62367438D01*
X95906938Y-62367438D02*
X96002176Y-62319819D01*
X96002176Y-62319819D02*
X96240271Y-62319819D01*
X96240271Y-62319819D02*
X96383128Y-62367438D01*
X97002176Y-62319819D02*
X97192652Y-62319819D01*
X97192652Y-62319819D02*
X97287890Y-62367438D01*
X97287890Y-62367438D02*
X97383128Y-62462676D01*
X97383128Y-62462676D02*
X97430747Y-62653152D01*
X97430747Y-62653152D02*
X97430747Y-62986485D01*
X97430747Y-62986485D02*
X97383128Y-63176961D01*
X97383128Y-63176961D02*
X97287890Y-63272200D01*
X97287890Y-63272200D02*
X97192652Y-63319819D01*
X97192652Y-63319819D02*
X97002176Y-63319819D01*
X97002176Y-63319819D02*
X96906938Y-63272200D01*
X96906938Y-63272200D02*
X96811700Y-63176961D01*
X96811700Y-63176961D02*
X96764081Y-62986485D01*
X96764081Y-62986485D02*
X96764081Y-62653152D01*
X96764081Y-62653152D02*
X96811700Y-62462676D01*
X96811700Y-62462676D02*
X96906938Y-62367438D01*
X96906938Y-62367438D02*
X97002176Y-62319819D01*
X74287142Y-75837580D02*
X74239523Y-75885200D01*
X74239523Y-75885200D02*
X74096666Y-75932819D01*
X74096666Y-75932819D02*
X74001428Y-75932819D01*
X74001428Y-75932819D02*
X73858571Y-75885200D01*
X73858571Y-75885200D02*
X73763333Y-75789961D01*
X73763333Y-75789961D02*
X73715714Y-75694723D01*
X73715714Y-75694723D02*
X73668095Y-75504247D01*
X73668095Y-75504247D02*
X73668095Y-75361390D01*
X73668095Y-75361390D02*
X73715714Y-75170914D01*
X73715714Y-75170914D02*
X73763333Y-75075676D01*
X73763333Y-75075676D02*
X73858571Y-74980438D01*
X73858571Y-74980438D02*
X74001428Y-74932819D01*
X74001428Y-74932819D02*
X74096666Y-74932819D01*
X74096666Y-74932819D02*
X74239523Y-74980438D01*
X74239523Y-74980438D02*
X74287142Y-75028057D01*
X75239523Y-75932819D02*
X74668095Y-75932819D01*
X74953809Y-75932819D02*
X74953809Y-74932819D01*
X74953809Y-74932819D02*
X74858571Y-75075676D01*
X74858571Y-75075676D02*
X74763333Y-75170914D01*
X74763333Y-75170914D02*
X74668095Y-75218533D01*
X75858571Y-74932819D02*
X75953809Y-74932819D01*
X75953809Y-74932819D02*
X76049047Y-74980438D01*
X76049047Y-74980438D02*
X76096666Y-75028057D01*
X76096666Y-75028057D02*
X76144285Y-75123295D01*
X76144285Y-75123295D02*
X76191904Y-75313771D01*
X76191904Y-75313771D02*
X76191904Y-75551866D01*
X76191904Y-75551866D02*
X76144285Y-75742342D01*
X76144285Y-75742342D02*
X76096666Y-75837580D01*
X76096666Y-75837580D02*
X76049047Y-75885200D01*
X76049047Y-75885200D02*
X75953809Y-75932819D01*
X75953809Y-75932819D02*
X75858571Y-75932819D01*
X75858571Y-75932819D02*
X75763333Y-75885200D01*
X75763333Y-75885200D02*
X75715714Y-75837580D01*
X75715714Y-75837580D02*
X75668095Y-75742342D01*
X75668095Y-75742342D02*
X75620476Y-75551866D01*
X75620476Y-75551866D02*
X75620476Y-75313771D01*
X75620476Y-75313771D02*
X75668095Y-75123295D01*
X75668095Y-75123295D02*
X75715714Y-75028057D01*
X75715714Y-75028057D02*
X75763333Y-74980438D01*
X75763333Y-74980438D02*
X75858571Y-74932819D01*
X43031580Y-97951666D02*
X43079200Y-97999285D01*
X43079200Y-97999285D02*
X43126819Y-98142142D01*
X43126819Y-98142142D02*
X43126819Y-98237380D01*
X43126819Y-98237380D02*
X43079200Y-98380237D01*
X43079200Y-98380237D02*
X42983961Y-98475475D01*
X42983961Y-98475475D02*
X42888723Y-98523094D01*
X42888723Y-98523094D02*
X42698247Y-98570713D01*
X42698247Y-98570713D02*
X42555390Y-98570713D01*
X42555390Y-98570713D02*
X42364914Y-98523094D01*
X42364914Y-98523094D02*
X42269676Y-98475475D01*
X42269676Y-98475475D02*
X42174438Y-98380237D01*
X42174438Y-98380237D02*
X42126819Y-98237380D01*
X42126819Y-98237380D02*
X42126819Y-98142142D01*
X42126819Y-98142142D02*
X42174438Y-97999285D01*
X42174438Y-97999285D02*
X42222057Y-97951666D01*
X42126819Y-97618332D02*
X42126819Y-96951666D01*
X42126819Y-96951666D02*
X43126819Y-97380237D01*
X32982819Y-99427856D02*
X32982819Y-99332618D01*
X32982819Y-99332618D02*
X33030438Y-99237380D01*
X33030438Y-99237380D02*
X33078057Y-99189761D01*
X33078057Y-99189761D02*
X33173295Y-99142142D01*
X33173295Y-99142142D02*
X33363771Y-99094523D01*
X33363771Y-99094523D02*
X33601866Y-99094523D01*
X33601866Y-99094523D02*
X33792342Y-99142142D01*
X33792342Y-99142142D02*
X33887580Y-99189761D01*
X33887580Y-99189761D02*
X33935200Y-99237380D01*
X33935200Y-99237380D02*
X33982819Y-99332618D01*
X33982819Y-99332618D02*
X33982819Y-99427856D01*
X33982819Y-99427856D02*
X33935200Y-99523094D01*
X33935200Y-99523094D02*
X33887580Y-99570713D01*
X33887580Y-99570713D02*
X33792342Y-99618332D01*
X33792342Y-99618332D02*
X33601866Y-99665951D01*
X33601866Y-99665951D02*
X33363771Y-99665951D01*
X33363771Y-99665951D02*
X33173295Y-99618332D01*
X33173295Y-99618332D02*
X33078057Y-99570713D01*
X33078057Y-99570713D02*
X33030438Y-99523094D01*
X33030438Y-99523094D02*
X32982819Y-99427856D01*
X33887580Y-98665951D02*
X33935200Y-98618332D01*
X33935200Y-98618332D02*
X33982819Y-98665951D01*
X33982819Y-98665951D02*
X33935200Y-98713570D01*
X33935200Y-98713570D02*
X33887580Y-98665951D01*
X33887580Y-98665951D02*
X33982819Y-98665951D01*
X33982819Y-97665952D02*
X33982819Y-98237380D01*
X33982819Y-97951666D02*
X32982819Y-97951666D01*
X32982819Y-97951666D02*
X33125676Y-98046904D01*
X33125676Y-98046904D02*
X33220914Y-98142142D01*
X33220914Y-98142142D02*
X33268533Y-98237380D01*
X33316152Y-96808809D02*
X33982819Y-96808809D01*
X33316152Y-97237380D02*
X33839961Y-97237380D01*
X33839961Y-97237380D02*
X33935200Y-97189761D01*
X33935200Y-97189761D02*
X33982819Y-97094523D01*
X33982819Y-97094523D02*
X33982819Y-96951666D01*
X33982819Y-96951666D02*
X33935200Y-96856428D01*
X33935200Y-96856428D02*
X33887580Y-96808809D01*
X33459009Y-95999285D02*
X33459009Y-96332618D01*
X33982819Y-96332618D02*
X32982819Y-96332618D01*
X32982819Y-96332618D02*
X32982819Y-95856428D01*
X69751580Y-90386666D02*
X69799200Y-90434285D01*
X69799200Y-90434285D02*
X69846819Y-90577142D01*
X69846819Y-90577142D02*
X69846819Y-90672380D01*
X69846819Y-90672380D02*
X69799200Y-90815237D01*
X69799200Y-90815237D02*
X69703961Y-90910475D01*
X69703961Y-90910475D02*
X69608723Y-90958094D01*
X69608723Y-90958094D02*
X69418247Y-91005713D01*
X69418247Y-91005713D02*
X69275390Y-91005713D01*
X69275390Y-91005713D02*
X69084914Y-90958094D01*
X69084914Y-90958094D02*
X68989676Y-90910475D01*
X68989676Y-90910475D02*
X68894438Y-90815237D01*
X68894438Y-90815237D02*
X68846819Y-90672380D01*
X68846819Y-90672380D02*
X68846819Y-90577142D01*
X68846819Y-90577142D02*
X68894438Y-90434285D01*
X68894438Y-90434285D02*
X68942057Y-90386666D01*
X68942057Y-90005713D02*
X68894438Y-89958094D01*
X68894438Y-89958094D02*
X68846819Y-89862856D01*
X68846819Y-89862856D02*
X68846819Y-89624761D01*
X68846819Y-89624761D02*
X68894438Y-89529523D01*
X68894438Y-89529523D02*
X68942057Y-89481904D01*
X68942057Y-89481904D02*
X69037295Y-89434285D01*
X69037295Y-89434285D02*
X69132533Y-89434285D01*
X69132533Y-89434285D02*
X69275390Y-89481904D01*
X69275390Y-89481904D02*
X69846819Y-90053332D01*
X69846819Y-90053332D02*
X69846819Y-89434285D01*
X59544057Y-91862856D02*
X59496438Y-91815237D01*
X59496438Y-91815237D02*
X59448819Y-91719999D01*
X59448819Y-91719999D02*
X59448819Y-91481904D01*
X59448819Y-91481904D02*
X59496438Y-91386666D01*
X59496438Y-91386666D02*
X59544057Y-91339047D01*
X59544057Y-91339047D02*
X59639295Y-91291428D01*
X59639295Y-91291428D02*
X59734533Y-91291428D01*
X59734533Y-91291428D02*
X59877390Y-91339047D01*
X59877390Y-91339047D02*
X60448819Y-91910475D01*
X60448819Y-91910475D02*
X60448819Y-91291428D01*
X59544057Y-90910475D02*
X59496438Y-90862856D01*
X59496438Y-90862856D02*
X59448819Y-90767618D01*
X59448819Y-90767618D02*
X59448819Y-90529523D01*
X59448819Y-90529523D02*
X59496438Y-90434285D01*
X59496438Y-90434285D02*
X59544057Y-90386666D01*
X59544057Y-90386666D02*
X59639295Y-90339047D01*
X59639295Y-90339047D02*
X59734533Y-90339047D01*
X59734533Y-90339047D02*
X59877390Y-90386666D01*
X59877390Y-90386666D02*
X60448819Y-90958094D01*
X60448819Y-90958094D02*
X60448819Y-90339047D01*
X59782152Y-89910475D02*
X60782152Y-89910475D01*
X59829771Y-89910475D02*
X59782152Y-89815237D01*
X59782152Y-89815237D02*
X59782152Y-89624761D01*
X59782152Y-89624761D02*
X59829771Y-89529523D01*
X59829771Y-89529523D02*
X59877390Y-89481904D01*
X59877390Y-89481904D02*
X59972628Y-89434285D01*
X59972628Y-89434285D02*
X60258342Y-89434285D01*
X60258342Y-89434285D02*
X60353580Y-89481904D01*
X60353580Y-89481904D02*
X60401200Y-89529523D01*
X60401200Y-89529523D02*
X60448819Y-89624761D01*
X60448819Y-89624761D02*
X60448819Y-89815237D01*
X60448819Y-89815237D02*
X60401200Y-89910475D01*
X59925009Y-88672380D02*
X59925009Y-89005713D01*
X60448819Y-89005713D02*
X59448819Y-89005713D01*
X59448819Y-89005713D02*
X59448819Y-88529523D01*
X58321580Y-90386666D02*
X58369200Y-90434285D01*
X58369200Y-90434285D02*
X58416819Y-90577142D01*
X58416819Y-90577142D02*
X58416819Y-90672380D01*
X58416819Y-90672380D02*
X58369200Y-90815237D01*
X58369200Y-90815237D02*
X58273961Y-90910475D01*
X58273961Y-90910475D02*
X58178723Y-90958094D01*
X58178723Y-90958094D02*
X57988247Y-91005713D01*
X57988247Y-91005713D02*
X57845390Y-91005713D01*
X57845390Y-91005713D02*
X57654914Y-90958094D01*
X57654914Y-90958094D02*
X57559676Y-90910475D01*
X57559676Y-90910475D02*
X57464438Y-90815237D01*
X57464438Y-90815237D02*
X57416819Y-90672380D01*
X57416819Y-90672380D02*
X57416819Y-90577142D01*
X57416819Y-90577142D02*
X57464438Y-90434285D01*
X57464438Y-90434285D02*
X57512057Y-90386666D01*
X58416819Y-89434285D02*
X58416819Y-90005713D01*
X58416819Y-89719999D02*
X57416819Y-89719999D01*
X57416819Y-89719999D02*
X57559676Y-89815237D01*
X57559676Y-89815237D02*
X57654914Y-89910475D01*
X57654914Y-89910475D02*
X57702533Y-90005713D01*
X48368057Y-91822856D02*
X48320438Y-91775237D01*
X48320438Y-91775237D02*
X48272819Y-91679999D01*
X48272819Y-91679999D02*
X48272819Y-91441904D01*
X48272819Y-91441904D02*
X48320438Y-91346666D01*
X48320438Y-91346666D02*
X48368057Y-91299047D01*
X48368057Y-91299047D02*
X48463295Y-91251428D01*
X48463295Y-91251428D02*
X48558533Y-91251428D01*
X48558533Y-91251428D02*
X48701390Y-91299047D01*
X48701390Y-91299047D02*
X49272819Y-91870475D01*
X49272819Y-91870475D02*
X49272819Y-91251428D01*
X48368057Y-90870475D02*
X48320438Y-90822856D01*
X48320438Y-90822856D02*
X48272819Y-90727618D01*
X48272819Y-90727618D02*
X48272819Y-90489523D01*
X48272819Y-90489523D02*
X48320438Y-90394285D01*
X48320438Y-90394285D02*
X48368057Y-90346666D01*
X48368057Y-90346666D02*
X48463295Y-90299047D01*
X48463295Y-90299047D02*
X48558533Y-90299047D01*
X48558533Y-90299047D02*
X48701390Y-90346666D01*
X48701390Y-90346666D02*
X49272819Y-90918094D01*
X49272819Y-90918094D02*
X49272819Y-90299047D01*
X48606152Y-89870475D02*
X49606152Y-89870475D01*
X48653771Y-89870475D02*
X48606152Y-89775237D01*
X48606152Y-89775237D02*
X48606152Y-89584761D01*
X48606152Y-89584761D02*
X48653771Y-89489523D01*
X48653771Y-89489523D02*
X48701390Y-89441904D01*
X48701390Y-89441904D02*
X48796628Y-89394285D01*
X48796628Y-89394285D02*
X49082342Y-89394285D01*
X49082342Y-89394285D02*
X49177580Y-89441904D01*
X49177580Y-89441904D02*
X49225200Y-89489523D01*
X49225200Y-89489523D02*
X49272819Y-89584761D01*
X49272819Y-89584761D02*
X49272819Y-89775237D01*
X49272819Y-89775237D02*
X49225200Y-89870475D01*
X48749009Y-88632380D02*
X48749009Y-88965713D01*
X49272819Y-88965713D02*
X48272819Y-88965713D01*
X48272819Y-88965713D02*
X48272819Y-88489523D01*
X95979819Y-102371904D02*
X96789342Y-102371904D01*
X96789342Y-102371904D02*
X96884580Y-102324285D01*
X96884580Y-102324285D02*
X96932200Y-102276666D01*
X96932200Y-102276666D02*
X96979819Y-102181428D01*
X96979819Y-102181428D02*
X96979819Y-101990952D01*
X96979819Y-101990952D02*
X96932200Y-101895714D01*
X96932200Y-101895714D02*
X96884580Y-101848095D01*
X96884580Y-101848095D02*
X96789342Y-101800476D01*
X96789342Y-101800476D02*
X95979819Y-101800476D01*
X96313152Y-100895714D02*
X96979819Y-100895714D01*
X95932200Y-101133809D02*
X96646485Y-101371904D01*
X96646485Y-101371904D02*
X96646485Y-100752857D01*
X95979819Y-110491713D02*
X95979819Y-109825047D01*
X95979819Y-109825047D02*
X96979819Y-110253618D01*
X96313152Y-109015523D02*
X96979819Y-109015523D01*
X95932200Y-109253618D02*
X96646485Y-109491713D01*
X96646485Y-109491713D02*
X96646485Y-108872666D01*
X96979819Y-108491713D02*
X95979819Y-108491713D01*
X96456009Y-108491713D02*
X96456009Y-107920285D01*
X96979819Y-107920285D02*
X95979819Y-107920285D01*
X96884580Y-106872666D02*
X96932200Y-106920285D01*
X96932200Y-106920285D02*
X96979819Y-107063142D01*
X96979819Y-107063142D02*
X96979819Y-107158380D01*
X96979819Y-107158380D02*
X96932200Y-107301237D01*
X96932200Y-107301237D02*
X96836961Y-107396475D01*
X96836961Y-107396475D02*
X96741723Y-107444094D01*
X96741723Y-107444094D02*
X96551247Y-107491713D01*
X96551247Y-107491713D02*
X96408390Y-107491713D01*
X96408390Y-107491713D02*
X96217914Y-107444094D01*
X96217914Y-107444094D02*
X96122676Y-107396475D01*
X96122676Y-107396475D02*
X96027438Y-107301237D01*
X96027438Y-107301237D02*
X95979819Y-107158380D01*
X95979819Y-107158380D02*
X95979819Y-107063142D01*
X95979819Y-107063142D02*
X96027438Y-106920285D01*
X96027438Y-106920285D02*
X96075057Y-106872666D01*
X95979819Y-106253618D02*
X95979819Y-106158380D01*
X95979819Y-106158380D02*
X96027438Y-106063142D01*
X96027438Y-106063142D02*
X96075057Y-106015523D01*
X96075057Y-106015523D02*
X96170295Y-105967904D01*
X96170295Y-105967904D02*
X96360771Y-105920285D01*
X96360771Y-105920285D02*
X96598866Y-105920285D01*
X96598866Y-105920285D02*
X96789342Y-105967904D01*
X96789342Y-105967904D02*
X96884580Y-106015523D01*
X96884580Y-106015523D02*
X96932200Y-106063142D01*
X96932200Y-106063142D02*
X96979819Y-106158380D01*
X96979819Y-106158380D02*
X96979819Y-106253618D01*
X96979819Y-106253618D02*
X96932200Y-106348856D01*
X96932200Y-106348856D02*
X96884580Y-106396475D01*
X96884580Y-106396475D02*
X96789342Y-106444094D01*
X96789342Y-106444094D02*
X96598866Y-106491713D01*
X96598866Y-106491713D02*
X96360771Y-106491713D01*
X96360771Y-106491713D02*
X96170295Y-106444094D01*
X96170295Y-106444094D02*
X96075057Y-106396475D01*
X96075057Y-106396475D02*
X96027438Y-106348856D01*
X96027438Y-106348856D02*
X95979819Y-106253618D01*
X95979819Y-105301237D02*
X95979819Y-105205999D01*
X95979819Y-105205999D02*
X96027438Y-105110761D01*
X96027438Y-105110761D02*
X96075057Y-105063142D01*
X96075057Y-105063142D02*
X96170295Y-105015523D01*
X96170295Y-105015523D02*
X96360771Y-104967904D01*
X96360771Y-104967904D02*
X96598866Y-104967904D01*
X96598866Y-104967904D02*
X96789342Y-105015523D01*
X96789342Y-105015523D02*
X96884580Y-105063142D01*
X96884580Y-105063142D02*
X96932200Y-105110761D01*
X96932200Y-105110761D02*
X96979819Y-105205999D01*
X96979819Y-105205999D02*
X96979819Y-105301237D01*
X96979819Y-105301237D02*
X96932200Y-105396475D01*
X96932200Y-105396475D02*
X96884580Y-105444094D01*
X96884580Y-105444094D02*
X96789342Y-105491713D01*
X96789342Y-105491713D02*
X96598866Y-105539332D01*
X96598866Y-105539332D02*
X96360771Y-105539332D01*
X96360771Y-105539332D02*
X96170295Y-105491713D01*
X96170295Y-105491713D02*
X96075057Y-105444094D01*
X96075057Y-105444094D02*
X96027438Y-105396475D01*
X96027438Y-105396475D02*
X95979819Y-105301237D01*
X46823333Y-113857580D02*
X46775714Y-113905200D01*
X46775714Y-113905200D02*
X46632857Y-113952819D01*
X46632857Y-113952819D02*
X46537619Y-113952819D01*
X46537619Y-113952819D02*
X46394762Y-113905200D01*
X46394762Y-113905200D02*
X46299524Y-113809961D01*
X46299524Y-113809961D02*
X46251905Y-113714723D01*
X46251905Y-113714723D02*
X46204286Y-113524247D01*
X46204286Y-113524247D02*
X46204286Y-113381390D01*
X46204286Y-113381390D02*
X46251905Y-113190914D01*
X46251905Y-113190914D02*
X46299524Y-113095676D01*
X46299524Y-113095676D02*
X46394762Y-113000438D01*
X46394762Y-113000438D02*
X46537619Y-112952819D01*
X46537619Y-112952819D02*
X46632857Y-112952819D01*
X46632857Y-112952819D02*
X46775714Y-113000438D01*
X46775714Y-113000438D02*
X46823333Y-113048057D01*
X47680476Y-112952819D02*
X47490000Y-112952819D01*
X47490000Y-112952819D02*
X47394762Y-113000438D01*
X47394762Y-113000438D02*
X47347143Y-113048057D01*
X47347143Y-113048057D02*
X47251905Y-113190914D01*
X47251905Y-113190914D02*
X47204286Y-113381390D01*
X47204286Y-113381390D02*
X47204286Y-113762342D01*
X47204286Y-113762342D02*
X47251905Y-113857580D01*
X47251905Y-113857580D02*
X47299524Y-113905200D01*
X47299524Y-113905200D02*
X47394762Y-113952819D01*
X47394762Y-113952819D02*
X47585238Y-113952819D01*
X47585238Y-113952819D02*
X47680476Y-113905200D01*
X47680476Y-113905200D02*
X47728095Y-113857580D01*
X47728095Y-113857580D02*
X47775714Y-113762342D01*
X47775714Y-113762342D02*
X47775714Y-113524247D01*
X47775714Y-113524247D02*
X47728095Y-113429009D01*
X47728095Y-113429009D02*
X47680476Y-113381390D01*
X47680476Y-113381390D02*
X47585238Y-113333771D01*
X47585238Y-113333771D02*
X47394762Y-113333771D01*
X47394762Y-113333771D02*
X47299524Y-113381390D01*
X47299524Y-113381390D02*
X47251905Y-113429009D01*
X47251905Y-113429009D02*
X47204286Y-113524247D01*
X34594819Y-80748094D02*
X33594819Y-80748094D01*
X33594819Y-80748094D02*
X33594819Y-80509999D01*
X33594819Y-80509999D02*
X33642438Y-80367142D01*
X33642438Y-80367142D02*
X33737676Y-80271904D01*
X33737676Y-80271904D02*
X33832914Y-80224285D01*
X33832914Y-80224285D02*
X34023390Y-80176666D01*
X34023390Y-80176666D02*
X34166247Y-80176666D01*
X34166247Y-80176666D02*
X34356723Y-80224285D01*
X34356723Y-80224285D02*
X34451961Y-80271904D01*
X34451961Y-80271904D02*
X34547200Y-80367142D01*
X34547200Y-80367142D02*
X34594819Y-80509999D01*
X34594819Y-80509999D02*
X34594819Y-80748094D01*
X34594819Y-79224285D02*
X34594819Y-79795713D01*
X34594819Y-79509999D02*
X33594819Y-79509999D01*
X33594819Y-79509999D02*
X33737676Y-79605237D01*
X33737676Y-79605237D02*
X33832914Y-79700475D01*
X33832914Y-79700475D02*
X33880533Y-79795713D01*
X42229104Y-81129047D02*
X42229104Y-80652857D01*
X42514819Y-81224285D02*
X41514819Y-80890952D01*
X41514819Y-80890952D02*
X42514819Y-80557619D01*
X42419580Y-79652857D02*
X42467200Y-79700476D01*
X42467200Y-79700476D02*
X42514819Y-79843333D01*
X42514819Y-79843333D02*
X42514819Y-79938571D01*
X42514819Y-79938571D02*
X42467200Y-80081428D01*
X42467200Y-80081428D02*
X42371961Y-80176666D01*
X42371961Y-80176666D02*
X42276723Y-80224285D01*
X42276723Y-80224285D02*
X42086247Y-80271904D01*
X42086247Y-80271904D02*
X41943390Y-80271904D01*
X41943390Y-80271904D02*
X41752914Y-80224285D01*
X41752914Y-80224285D02*
X41657676Y-80176666D01*
X41657676Y-80176666D02*
X41562438Y-80081428D01*
X41562438Y-80081428D02*
X41514819Y-79938571D01*
X41514819Y-79938571D02*
X41514819Y-79843333D01*
X41514819Y-79843333D02*
X41562438Y-79700476D01*
X41562438Y-79700476D02*
X41610057Y-79652857D01*
X41514819Y-79367142D02*
X41514819Y-78795714D01*
X42514819Y-79081428D02*
X41514819Y-79081428D01*
X74287142Y-88497580D02*
X74239523Y-88545200D01*
X74239523Y-88545200D02*
X74096666Y-88592819D01*
X74096666Y-88592819D02*
X74001428Y-88592819D01*
X74001428Y-88592819D02*
X73858571Y-88545200D01*
X73858571Y-88545200D02*
X73763333Y-88449961D01*
X73763333Y-88449961D02*
X73715714Y-88354723D01*
X73715714Y-88354723D02*
X73668095Y-88164247D01*
X73668095Y-88164247D02*
X73668095Y-88021390D01*
X73668095Y-88021390D02*
X73715714Y-87830914D01*
X73715714Y-87830914D02*
X73763333Y-87735676D01*
X73763333Y-87735676D02*
X73858571Y-87640438D01*
X73858571Y-87640438D02*
X74001428Y-87592819D01*
X74001428Y-87592819D02*
X74096666Y-87592819D01*
X74096666Y-87592819D02*
X74239523Y-87640438D01*
X74239523Y-87640438D02*
X74287142Y-87688057D01*
X75239523Y-88592819D02*
X74668095Y-88592819D01*
X74953809Y-88592819D02*
X74953809Y-87592819D01*
X74953809Y-87592819D02*
X74858571Y-87735676D01*
X74858571Y-87735676D02*
X74763333Y-87830914D01*
X74763333Y-87830914D02*
X74668095Y-87878533D01*
X76191904Y-88592819D02*
X75620476Y-88592819D01*
X75906190Y-88592819D02*
X75906190Y-87592819D01*
X75906190Y-87592819D02*
X75810952Y-87735676D01*
X75810952Y-87735676D02*
X75715714Y-87830914D01*
X75715714Y-87830914D02*
X75620476Y-87878533D01*
X49464795Y-57239819D02*
X50036223Y-57239819D01*
X49750509Y-58239819D02*
X49750509Y-57239819D01*
X50369557Y-58239819D02*
X50369557Y-57239819D01*
X50369557Y-57239819D02*
X50750509Y-57239819D01*
X50750509Y-57239819D02*
X50845747Y-57287438D01*
X50845747Y-57287438D02*
X50893366Y-57335057D01*
X50893366Y-57335057D02*
X50940985Y-57430295D01*
X50940985Y-57430295D02*
X50940985Y-57573152D01*
X50940985Y-57573152D02*
X50893366Y-57668390D01*
X50893366Y-57668390D02*
X50845747Y-57716009D01*
X50845747Y-57716009D02*
X50750509Y-57763628D01*
X50750509Y-57763628D02*
X50369557Y-57763628D01*
X51274319Y-57239819D02*
X51893366Y-57239819D01*
X51893366Y-57239819D02*
X51560033Y-57620771D01*
X51560033Y-57620771D02*
X51702890Y-57620771D01*
X51702890Y-57620771D02*
X51798128Y-57668390D01*
X51798128Y-57668390D02*
X51845747Y-57716009D01*
X51845747Y-57716009D02*
X51893366Y-57811247D01*
X51893366Y-57811247D02*
X51893366Y-58049342D01*
X51893366Y-58049342D02*
X51845747Y-58144580D01*
X51845747Y-58144580D02*
X51798128Y-58192200D01*
X51798128Y-58192200D02*
X51702890Y-58239819D01*
X51702890Y-58239819D02*
X51417176Y-58239819D01*
X51417176Y-58239819D02*
X51321938Y-58192200D01*
X51321938Y-58192200D02*
X51274319Y-58144580D01*
X50131461Y-63224580D02*
X50083842Y-63272200D01*
X50083842Y-63272200D02*
X49940985Y-63319819D01*
X49940985Y-63319819D02*
X49845747Y-63319819D01*
X49845747Y-63319819D02*
X49702890Y-63272200D01*
X49702890Y-63272200D02*
X49607652Y-63176961D01*
X49607652Y-63176961D02*
X49560033Y-63081723D01*
X49560033Y-63081723D02*
X49512414Y-62891247D01*
X49512414Y-62891247D02*
X49512414Y-62748390D01*
X49512414Y-62748390D02*
X49560033Y-62557914D01*
X49560033Y-62557914D02*
X49607652Y-62462676D01*
X49607652Y-62462676D02*
X49702890Y-62367438D01*
X49702890Y-62367438D02*
X49845747Y-62319819D01*
X49845747Y-62319819D02*
X49940985Y-62319819D01*
X49940985Y-62319819D02*
X50083842Y-62367438D01*
X50083842Y-62367438D02*
X50131461Y-62415057D01*
X51036223Y-63319819D02*
X50560033Y-63319819D01*
X50560033Y-63319819D02*
X50560033Y-62319819D01*
X51369557Y-63319819D02*
X51369557Y-62319819D01*
X51940985Y-63319819D02*
X51512414Y-62748390D01*
X51940985Y-62319819D02*
X51369557Y-62891247D01*
X46823333Y-93704580D02*
X46775714Y-93752200D01*
X46775714Y-93752200D02*
X46632857Y-93799819D01*
X46632857Y-93799819D02*
X46537619Y-93799819D01*
X46537619Y-93799819D02*
X46394762Y-93752200D01*
X46394762Y-93752200D02*
X46299524Y-93656961D01*
X46299524Y-93656961D02*
X46251905Y-93561723D01*
X46251905Y-93561723D02*
X46204286Y-93371247D01*
X46204286Y-93371247D02*
X46204286Y-93228390D01*
X46204286Y-93228390D02*
X46251905Y-93037914D01*
X46251905Y-93037914D02*
X46299524Y-92942676D01*
X46299524Y-92942676D02*
X46394762Y-92847438D01*
X46394762Y-92847438D02*
X46537619Y-92799819D01*
X46537619Y-92799819D02*
X46632857Y-92799819D01*
X46632857Y-92799819D02*
X46775714Y-92847438D01*
X46775714Y-92847438D02*
X46823333Y-92895057D01*
X47728095Y-92799819D02*
X47251905Y-92799819D01*
X47251905Y-92799819D02*
X47204286Y-93276009D01*
X47204286Y-93276009D02*
X47251905Y-93228390D01*
X47251905Y-93228390D02*
X47347143Y-93180771D01*
X47347143Y-93180771D02*
X47585238Y-93180771D01*
X47585238Y-93180771D02*
X47680476Y-93228390D01*
X47680476Y-93228390D02*
X47728095Y-93276009D01*
X47728095Y-93276009D02*
X47775714Y-93371247D01*
X47775714Y-93371247D02*
X47775714Y-93609342D01*
X47775714Y-93609342D02*
X47728095Y-93704580D01*
X47728095Y-93704580D02*
X47680476Y-93752200D01*
X47680476Y-93752200D02*
X47585238Y-93799819D01*
X47585238Y-93799819D02*
X47347143Y-93799819D01*
X47347143Y-93799819D02*
X47251905Y-93752200D01*
X47251905Y-93752200D02*
X47204286Y-93704580D01*
X79383095Y-57631819D02*
X79954523Y-57631819D01*
X79668809Y-58631819D02*
X79668809Y-57631819D01*
X80287857Y-58631819D02*
X80287857Y-57631819D01*
X80287857Y-57631819D02*
X80668809Y-57631819D01*
X80668809Y-57631819D02*
X80764047Y-57679438D01*
X80764047Y-57679438D02*
X80811666Y-57727057D01*
X80811666Y-57727057D02*
X80859285Y-57822295D01*
X80859285Y-57822295D02*
X80859285Y-57965152D01*
X80859285Y-57965152D02*
X80811666Y-58060390D01*
X80811666Y-58060390D02*
X80764047Y-58108009D01*
X80764047Y-58108009D02*
X80668809Y-58155628D01*
X80668809Y-58155628D02*
X80287857Y-58155628D01*
X81811666Y-58631819D02*
X81240238Y-58631819D01*
X81525952Y-58631819D02*
X81525952Y-57631819D01*
X81525952Y-57631819D02*
X81430714Y-57774676D01*
X81430714Y-57774676D02*
X81335476Y-57869914D01*
X81335476Y-57869914D02*
X81240238Y-57917533D01*
X79073572Y-63319819D02*
X79073572Y-62319819D01*
X79073572Y-62319819D02*
X79406905Y-63034104D01*
X79406905Y-63034104D02*
X79740238Y-62319819D01*
X79740238Y-62319819D02*
X79740238Y-63319819D01*
X80406905Y-62319819D02*
X80597381Y-62319819D01*
X80597381Y-62319819D02*
X80692619Y-62367438D01*
X80692619Y-62367438D02*
X80787857Y-62462676D01*
X80787857Y-62462676D02*
X80835476Y-62653152D01*
X80835476Y-62653152D02*
X80835476Y-62986485D01*
X80835476Y-62986485D02*
X80787857Y-63176961D01*
X80787857Y-63176961D02*
X80692619Y-63272200D01*
X80692619Y-63272200D02*
X80597381Y-63319819D01*
X80597381Y-63319819D02*
X80406905Y-63319819D01*
X80406905Y-63319819D02*
X80311667Y-63272200D01*
X80311667Y-63272200D02*
X80216429Y-63176961D01*
X80216429Y-63176961D02*
X80168810Y-62986485D01*
X80168810Y-62986485D02*
X80168810Y-62653152D01*
X80168810Y-62653152D02*
X80216429Y-62462676D01*
X80216429Y-62462676D02*
X80311667Y-62367438D01*
X80311667Y-62367438D02*
X80406905Y-62319819D01*
X81216429Y-63272200D02*
X81359286Y-63319819D01*
X81359286Y-63319819D02*
X81597381Y-63319819D01*
X81597381Y-63319819D02*
X81692619Y-63272200D01*
X81692619Y-63272200D02*
X81740238Y-63224580D01*
X81740238Y-63224580D02*
X81787857Y-63129342D01*
X81787857Y-63129342D02*
X81787857Y-63034104D01*
X81787857Y-63034104D02*
X81740238Y-62938866D01*
X81740238Y-62938866D02*
X81692619Y-62891247D01*
X81692619Y-62891247D02*
X81597381Y-62843628D01*
X81597381Y-62843628D02*
X81406905Y-62796009D01*
X81406905Y-62796009D02*
X81311667Y-62748390D01*
X81311667Y-62748390D02*
X81264048Y-62700771D01*
X81264048Y-62700771D02*
X81216429Y-62605533D01*
X81216429Y-62605533D02*
X81216429Y-62510295D01*
X81216429Y-62510295D02*
X81264048Y-62415057D01*
X81264048Y-62415057D02*
X81311667Y-62367438D01*
X81311667Y-62367438D02*
X81406905Y-62319819D01*
X81406905Y-62319819D02*
X81645000Y-62319819D01*
X81645000Y-62319819D02*
X81787857Y-62367438D01*
X82216429Y-63319819D02*
X82216429Y-62319819D01*
X64143095Y-57631819D02*
X64714523Y-57631819D01*
X64428809Y-58631819D02*
X64428809Y-57631819D01*
X65047857Y-58631819D02*
X65047857Y-57631819D01*
X65047857Y-57631819D02*
X65428809Y-57631819D01*
X65428809Y-57631819D02*
X65524047Y-57679438D01*
X65524047Y-57679438D02*
X65571666Y-57727057D01*
X65571666Y-57727057D02*
X65619285Y-57822295D01*
X65619285Y-57822295D02*
X65619285Y-57965152D01*
X65619285Y-57965152D02*
X65571666Y-58060390D01*
X65571666Y-58060390D02*
X65524047Y-58108009D01*
X65524047Y-58108009D02*
X65428809Y-58155628D01*
X65428809Y-58155628D02*
X65047857Y-58155628D01*
X66476428Y-57965152D02*
X66476428Y-58631819D01*
X66238333Y-57584200D02*
X66000238Y-58298485D01*
X66000238Y-58298485D02*
X66619285Y-58298485D01*
X65238333Y-63478580D02*
X65190714Y-63526200D01*
X65190714Y-63526200D02*
X65047857Y-63573819D01*
X65047857Y-63573819D02*
X64952619Y-63573819D01*
X64952619Y-63573819D02*
X64809762Y-63526200D01*
X64809762Y-63526200D02*
X64714524Y-63430961D01*
X64714524Y-63430961D02*
X64666905Y-63335723D01*
X64666905Y-63335723D02*
X64619286Y-63145247D01*
X64619286Y-63145247D02*
X64619286Y-63002390D01*
X64619286Y-63002390D02*
X64666905Y-62811914D01*
X64666905Y-62811914D02*
X64714524Y-62716676D01*
X64714524Y-62716676D02*
X64809762Y-62621438D01*
X64809762Y-62621438D02*
X64952619Y-62573819D01*
X64952619Y-62573819D02*
X65047857Y-62573819D01*
X65047857Y-62573819D02*
X65190714Y-62621438D01*
X65190714Y-62621438D02*
X65238333Y-62669057D01*
X65619286Y-63526200D02*
X65762143Y-63573819D01*
X65762143Y-63573819D02*
X66000238Y-63573819D01*
X66000238Y-63573819D02*
X66095476Y-63526200D01*
X66095476Y-63526200D02*
X66143095Y-63478580D01*
X66143095Y-63478580D02*
X66190714Y-63383342D01*
X66190714Y-63383342D02*
X66190714Y-63288104D01*
X66190714Y-63288104D02*
X66143095Y-63192866D01*
X66143095Y-63192866D02*
X66095476Y-63145247D01*
X66095476Y-63145247D02*
X66000238Y-63097628D01*
X66000238Y-63097628D02*
X65809762Y-63050009D01*
X65809762Y-63050009D02*
X65714524Y-63002390D01*
X65714524Y-63002390D02*
X65666905Y-62954771D01*
X65666905Y-62954771D02*
X65619286Y-62859533D01*
X65619286Y-62859533D02*
X65619286Y-62764295D01*
X65619286Y-62764295D02*
X65666905Y-62669057D01*
X65666905Y-62669057D02*
X65714524Y-62621438D01*
X65714524Y-62621438D02*
X65809762Y-62573819D01*
X65809762Y-62573819D02*
X66047857Y-62573819D01*
X66047857Y-62573819D02*
X66190714Y-62621438D01*
X64528810Y-62296200D02*
X66281191Y-62296200D01*
X98564819Y-76757904D02*
X99374342Y-76757904D01*
X99374342Y-76757904D02*
X99469580Y-76710285D01*
X99469580Y-76710285D02*
X99517200Y-76662666D01*
X99517200Y-76662666D02*
X99564819Y-76567428D01*
X99564819Y-76567428D02*
X99564819Y-76376952D01*
X99564819Y-76376952D02*
X99517200Y-76281714D01*
X99517200Y-76281714D02*
X99469580Y-76234095D01*
X99469580Y-76234095D02*
X99374342Y-76186476D01*
X99374342Y-76186476D02*
X98564819Y-76186476D01*
X98564819Y-75234095D02*
X98564819Y-75710285D01*
X98564819Y-75710285D02*
X99041009Y-75757904D01*
X99041009Y-75757904D02*
X98993390Y-75710285D01*
X98993390Y-75710285D02*
X98945771Y-75615047D01*
X98945771Y-75615047D02*
X98945771Y-75376952D01*
X98945771Y-75376952D02*
X98993390Y-75281714D01*
X98993390Y-75281714D02*
X99041009Y-75234095D01*
X99041009Y-75234095D02*
X99136247Y-75186476D01*
X99136247Y-75186476D02*
X99374342Y-75186476D01*
X99374342Y-75186476D02*
X99469580Y-75234095D01*
X99469580Y-75234095D02*
X99517200Y-75281714D01*
X99517200Y-75281714D02*
X99564819Y-75376952D01*
X99564819Y-75376952D02*
X99564819Y-75615047D01*
X99564819Y-75615047D02*
X99517200Y-75710285D01*
X99517200Y-75710285D02*
X99469580Y-75757904D01*
X98564819Y-85099904D02*
X98564819Y-84433238D01*
X98564819Y-84433238D02*
X99564819Y-84861809D01*
X98898152Y-83623714D02*
X99564819Y-83623714D01*
X98517200Y-83861809D02*
X99231485Y-84099904D01*
X99231485Y-84099904D02*
X99231485Y-83480857D01*
X99564819Y-83099904D02*
X98564819Y-83099904D01*
X99041009Y-83099904D02*
X99041009Y-82528476D01*
X99564819Y-82528476D02*
X98564819Y-82528476D01*
X99469580Y-81480857D02*
X99517200Y-81528476D01*
X99517200Y-81528476D02*
X99564819Y-81671333D01*
X99564819Y-81671333D02*
X99564819Y-81766571D01*
X99564819Y-81766571D02*
X99517200Y-81909428D01*
X99517200Y-81909428D02*
X99421961Y-82004666D01*
X99421961Y-82004666D02*
X99326723Y-82052285D01*
X99326723Y-82052285D02*
X99136247Y-82099904D01*
X99136247Y-82099904D02*
X98993390Y-82099904D01*
X98993390Y-82099904D02*
X98802914Y-82052285D01*
X98802914Y-82052285D02*
X98707676Y-82004666D01*
X98707676Y-82004666D02*
X98612438Y-81909428D01*
X98612438Y-81909428D02*
X98564819Y-81766571D01*
X98564819Y-81766571D02*
X98564819Y-81671333D01*
X98564819Y-81671333D02*
X98612438Y-81528476D01*
X98612438Y-81528476D02*
X98660057Y-81480857D01*
X99564819Y-80528476D02*
X99564819Y-81099904D01*
X99564819Y-80814190D02*
X98564819Y-80814190D01*
X98564819Y-80814190D02*
X98707676Y-80909428D01*
X98707676Y-80909428D02*
X98802914Y-81004666D01*
X98802914Y-81004666D02*
X98850533Y-81099904D01*
X98564819Y-79671333D02*
X98564819Y-79861809D01*
X98564819Y-79861809D02*
X98612438Y-79957047D01*
X98612438Y-79957047D02*
X98660057Y-80004666D01*
X98660057Y-80004666D02*
X98802914Y-80099904D01*
X98802914Y-80099904D02*
X98993390Y-80147523D01*
X98993390Y-80147523D02*
X99374342Y-80147523D01*
X99374342Y-80147523D02*
X99469580Y-80099904D01*
X99469580Y-80099904D02*
X99517200Y-80052285D01*
X99517200Y-80052285D02*
X99564819Y-79957047D01*
X99564819Y-79957047D02*
X99564819Y-79766571D01*
X99564819Y-79766571D02*
X99517200Y-79671333D01*
X99517200Y-79671333D02*
X99469580Y-79623714D01*
X99469580Y-79623714D02*
X99374342Y-79576095D01*
X99374342Y-79576095D02*
X99136247Y-79576095D01*
X99136247Y-79576095D02*
X99041009Y-79623714D01*
X99041009Y-79623714D02*
X98993390Y-79671333D01*
X98993390Y-79671333D02*
X98945771Y-79766571D01*
X98945771Y-79766571D02*
X98945771Y-79957047D01*
X98945771Y-79957047D02*
X98993390Y-80052285D01*
X98993390Y-80052285D02*
X99041009Y-80099904D01*
X99041009Y-80099904D02*
X99136247Y-80147523D01*
X98564819Y-79242761D02*
X98564819Y-78623714D01*
X98564819Y-78623714D02*
X98945771Y-78957047D01*
X98945771Y-78957047D02*
X98945771Y-78814190D01*
X98945771Y-78814190D02*
X98993390Y-78718952D01*
X98993390Y-78718952D02*
X99041009Y-78671333D01*
X99041009Y-78671333D02*
X99136247Y-78623714D01*
X99136247Y-78623714D02*
X99374342Y-78623714D01*
X99374342Y-78623714D02*
X99469580Y-78671333D01*
X99469580Y-78671333D02*
X99517200Y-78718952D01*
X99517200Y-78718952D02*
X99564819Y-78814190D01*
X99564819Y-78814190D02*
X99564819Y-79099904D01*
X99564819Y-79099904D02*
X99517200Y-79195142D01*
X99517200Y-79195142D02*
X99469580Y-79242761D01*
X46823333Y-75837580D02*
X46775714Y-75885200D01*
X46775714Y-75885200D02*
X46632857Y-75932819D01*
X46632857Y-75932819D02*
X46537619Y-75932819D01*
X46537619Y-75932819D02*
X46394762Y-75885200D01*
X46394762Y-75885200D02*
X46299524Y-75789961D01*
X46299524Y-75789961D02*
X46251905Y-75694723D01*
X46251905Y-75694723D02*
X46204286Y-75504247D01*
X46204286Y-75504247D02*
X46204286Y-75361390D01*
X46204286Y-75361390D02*
X46251905Y-75170914D01*
X46251905Y-75170914D02*
X46299524Y-75075676D01*
X46299524Y-75075676D02*
X46394762Y-74980438D01*
X46394762Y-74980438D02*
X46537619Y-74932819D01*
X46537619Y-74932819D02*
X46632857Y-74932819D01*
X46632857Y-74932819D02*
X46775714Y-74980438D01*
X46775714Y-74980438D02*
X46823333Y-75028057D01*
X47299524Y-75932819D02*
X47490000Y-75932819D01*
X47490000Y-75932819D02*
X47585238Y-75885200D01*
X47585238Y-75885200D02*
X47632857Y-75837580D01*
X47632857Y-75837580D02*
X47728095Y-75694723D01*
X47728095Y-75694723D02*
X47775714Y-75504247D01*
X47775714Y-75504247D02*
X47775714Y-75123295D01*
X47775714Y-75123295D02*
X47728095Y-75028057D01*
X47728095Y-75028057D02*
X47680476Y-74980438D01*
X47680476Y-74980438D02*
X47585238Y-74932819D01*
X47585238Y-74932819D02*
X47394762Y-74932819D01*
X47394762Y-74932819D02*
X47299524Y-74980438D01*
X47299524Y-74980438D02*
X47251905Y-75028057D01*
X47251905Y-75028057D02*
X47204286Y-75123295D01*
X47204286Y-75123295D02*
X47204286Y-75361390D01*
X47204286Y-75361390D02*
X47251905Y-75456628D01*
X47251905Y-75456628D02*
X47299524Y-75504247D01*
X47299524Y-75504247D02*
X47394762Y-75551866D01*
X47394762Y-75551866D02*
X47585238Y-75551866D01*
X47585238Y-75551866D02*
X47680476Y-75504247D01*
X47680476Y-75504247D02*
X47728095Y-75456628D01*
X47728095Y-75456628D02*
X47775714Y-75361390D01*
X54443333Y-111960819D02*
X54110000Y-111484628D01*
X53871905Y-111960819D02*
X53871905Y-110960819D01*
X53871905Y-110960819D02*
X54252857Y-110960819D01*
X54252857Y-110960819D02*
X54348095Y-111008438D01*
X54348095Y-111008438D02*
X54395714Y-111056057D01*
X54395714Y-111056057D02*
X54443333Y-111151295D01*
X54443333Y-111151295D02*
X54443333Y-111294152D01*
X54443333Y-111294152D02*
X54395714Y-111389390D01*
X54395714Y-111389390D02*
X54348095Y-111437009D01*
X54348095Y-111437009D02*
X54252857Y-111484628D01*
X54252857Y-111484628D02*
X53871905Y-111484628D01*
X55395714Y-111960819D02*
X54824286Y-111960819D01*
X55110000Y-111960819D02*
X55110000Y-110960819D01*
X55110000Y-110960819D02*
X55014762Y-111103676D01*
X55014762Y-111103676D02*
X54919524Y-111198914D01*
X54919524Y-111198914D02*
X54824286Y-111246533D01*
X54014761Y-109674819D02*
X53443333Y-109674819D01*
X53729047Y-109674819D02*
X53729047Y-108674819D01*
X53729047Y-108674819D02*
X53633809Y-108817676D01*
X53633809Y-108817676D02*
X53538571Y-108912914D01*
X53538571Y-108912914D02*
X53443333Y-108960533D01*
X54633809Y-108674819D02*
X54729047Y-108674819D01*
X54729047Y-108674819D02*
X54824285Y-108722438D01*
X54824285Y-108722438D02*
X54871904Y-108770057D01*
X54871904Y-108770057D02*
X54919523Y-108865295D01*
X54919523Y-108865295D02*
X54967142Y-109055771D01*
X54967142Y-109055771D02*
X54967142Y-109293866D01*
X54967142Y-109293866D02*
X54919523Y-109484342D01*
X54919523Y-109484342D02*
X54871904Y-109579580D01*
X54871904Y-109579580D02*
X54824285Y-109627200D01*
X54824285Y-109627200D02*
X54729047Y-109674819D01*
X54729047Y-109674819D02*
X54633809Y-109674819D01*
X54633809Y-109674819D02*
X54538571Y-109627200D01*
X54538571Y-109627200D02*
X54490952Y-109579580D01*
X54490952Y-109579580D02*
X54443333Y-109484342D01*
X54443333Y-109484342D02*
X54395714Y-109293866D01*
X54395714Y-109293866D02*
X54395714Y-109055771D01*
X54395714Y-109055771D02*
X54443333Y-108865295D01*
X54443333Y-108865295D02*
X54490952Y-108770057D01*
X54490952Y-108770057D02*
X54538571Y-108722438D01*
X54538571Y-108722438D02*
X54633809Y-108674819D01*
X55395714Y-109674819D02*
X55395714Y-108674819D01*
X55490952Y-109293866D02*
X55776666Y-109674819D01*
X55776666Y-109008152D02*
X55395714Y-109389104D01*
X95979819Y-115071904D02*
X96789342Y-115071904D01*
X96789342Y-115071904D02*
X96884580Y-115024285D01*
X96884580Y-115024285D02*
X96932200Y-114976666D01*
X96932200Y-114976666D02*
X96979819Y-114881428D01*
X96979819Y-114881428D02*
X96979819Y-114690952D01*
X96979819Y-114690952D02*
X96932200Y-114595714D01*
X96932200Y-114595714D02*
X96884580Y-114548095D01*
X96884580Y-114548095D02*
X96789342Y-114500476D01*
X96789342Y-114500476D02*
X95979819Y-114500476D01*
X95979819Y-113595714D02*
X95979819Y-113786190D01*
X95979819Y-113786190D02*
X96027438Y-113881428D01*
X96027438Y-113881428D02*
X96075057Y-113929047D01*
X96075057Y-113929047D02*
X96217914Y-114024285D01*
X96217914Y-114024285D02*
X96408390Y-114071904D01*
X96408390Y-114071904D02*
X96789342Y-114071904D01*
X96789342Y-114071904D02*
X96884580Y-114024285D01*
X96884580Y-114024285D02*
X96932200Y-113976666D01*
X96932200Y-113976666D02*
X96979819Y-113881428D01*
X96979819Y-113881428D02*
X96979819Y-113690952D01*
X96979819Y-113690952D02*
X96932200Y-113595714D01*
X96932200Y-113595714D02*
X96884580Y-113548095D01*
X96884580Y-113548095D02*
X96789342Y-113500476D01*
X96789342Y-113500476D02*
X96551247Y-113500476D01*
X96551247Y-113500476D02*
X96456009Y-113548095D01*
X96456009Y-113548095D02*
X96408390Y-113595714D01*
X96408390Y-113595714D02*
X96360771Y-113690952D01*
X96360771Y-113690952D02*
X96360771Y-113881428D01*
X96360771Y-113881428D02*
X96408390Y-113976666D01*
X96408390Y-113976666D02*
X96456009Y-114024285D01*
X96456009Y-114024285D02*
X96551247Y-114071904D01*
X95979819Y-123191713D02*
X95979819Y-122525047D01*
X95979819Y-122525047D02*
X96979819Y-122953618D01*
X96313152Y-121715523D02*
X96979819Y-121715523D01*
X95932200Y-121953618D02*
X96646485Y-122191713D01*
X96646485Y-122191713D02*
X96646485Y-121572666D01*
X96979819Y-121191713D02*
X95979819Y-121191713D01*
X96456009Y-121191713D02*
X96456009Y-120620285D01*
X96979819Y-120620285D02*
X95979819Y-120620285D01*
X96884580Y-119572666D02*
X96932200Y-119620285D01*
X96932200Y-119620285D02*
X96979819Y-119763142D01*
X96979819Y-119763142D02*
X96979819Y-119858380D01*
X96979819Y-119858380D02*
X96932200Y-120001237D01*
X96932200Y-120001237D02*
X96836961Y-120096475D01*
X96836961Y-120096475D02*
X96741723Y-120144094D01*
X96741723Y-120144094D02*
X96551247Y-120191713D01*
X96551247Y-120191713D02*
X96408390Y-120191713D01*
X96408390Y-120191713D02*
X96217914Y-120144094D01*
X96217914Y-120144094D02*
X96122676Y-120096475D01*
X96122676Y-120096475D02*
X96027438Y-120001237D01*
X96027438Y-120001237D02*
X95979819Y-119858380D01*
X95979819Y-119858380D02*
X95979819Y-119763142D01*
X95979819Y-119763142D02*
X96027438Y-119620285D01*
X96027438Y-119620285D02*
X96075057Y-119572666D01*
X95979819Y-118953618D02*
X95979819Y-118858380D01*
X95979819Y-118858380D02*
X96027438Y-118763142D01*
X96027438Y-118763142D02*
X96075057Y-118715523D01*
X96075057Y-118715523D02*
X96170295Y-118667904D01*
X96170295Y-118667904D02*
X96360771Y-118620285D01*
X96360771Y-118620285D02*
X96598866Y-118620285D01*
X96598866Y-118620285D02*
X96789342Y-118667904D01*
X96789342Y-118667904D02*
X96884580Y-118715523D01*
X96884580Y-118715523D02*
X96932200Y-118763142D01*
X96932200Y-118763142D02*
X96979819Y-118858380D01*
X96979819Y-118858380D02*
X96979819Y-118953618D01*
X96979819Y-118953618D02*
X96932200Y-119048856D01*
X96932200Y-119048856D02*
X96884580Y-119096475D01*
X96884580Y-119096475D02*
X96789342Y-119144094D01*
X96789342Y-119144094D02*
X96598866Y-119191713D01*
X96598866Y-119191713D02*
X96360771Y-119191713D01*
X96360771Y-119191713D02*
X96170295Y-119144094D01*
X96170295Y-119144094D02*
X96075057Y-119096475D01*
X96075057Y-119096475D02*
X96027438Y-119048856D01*
X96027438Y-119048856D02*
X95979819Y-118953618D01*
X95979819Y-118001237D02*
X95979819Y-117905999D01*
X95979819Y-117905999D02*
X96027438Y-117810761D01*
X96027438Y-117810761D02*
X96075057Y-117763142D01*
X96075057Y-117763142D02*
X96170295Y-117715523D01*
X96170295Y-117715523D02*
X96360771Y-117667904D01*
X96360771Y-117667904D02*
X96598866Y-117667904D01*
X96598866Y-117667904D02*
X96789342Y-117715523D01*
X96789342Y-117715523D02*
X96884580Y-117763142D01*
X96884580Y-117763142D02*
X96932200Y-117810761D01*
X96932200Y-117810761D02*
X96979819Y-117905999D01*
X96979819Y-117905999D02*
X96979819Y-118001237D01*
X96979819Y-118001237D02*
X96932200Y-118096475D01*
X96932200Y-118096475D02*
X96884580Y-118144094D01*
X96884580Y-118144094D02*
X96789342Y-118191713D01*
X96789342Y-118191713D02*
X96598866Y-118239332D01*
X96598866Y-118239332D02*
X96360771Y-118239332D01*
X96360771Y-118239332D02*
X96170295Y-118191713D01*
X96170295Y-118191713D02*
X96075057Y-118144094D01*
X96075057Y-118144094D02*
X96027438Y-118096475D01*
X96027438Y-118096475D02*
X95979819Y-118001237D01*
X32712819Y-86775666D02*
X32236628Y-87108999D01*
X32712819Y-87347094D02*
X31712819Y-87347094D01*
X31712819Y-87347094D02*
X31712819Y-86966142D01*
X31712819Y-86966142D02*
X31760438Y-86870904D01*
X31760438Y-86870904D02*
X31808057Y-86823285D01*
X31808057Y-86823285D02*
X31903295Y-86775666D01*
X31903295Y-86775666D02*
X32046152Y-86775666D01*
X32046152Y-86775666D02*
X32141390Y-86823285D01*
X32141390Y-86823285D02*
X32189009Y-86870904D01*
X32189009Y-86870904D02*
X32236628Y-86966142D01*
X32236628Y-86966142D02*
X32236628Y-87347094D01*
X31712819Y-86442332D02*
X31712819Y-85823285D01*
X31712819Y-85823285D02*
X32093771Y-86156618D01*
X32093771Y-86156618D02*
X32093771Y-86013761D01*
X32093771Y-86013761D02*
X32141390Y-85918523D01*
X32141390Y-85918523D02*
X32189009Y-85870904D01*
X32189009Y-85870904D02*
X32284247Y-85823285D01*
X32284247Y-85823285D02*
X32522342Y-85823285D01*
X32522342Y-85823285D02*
X32617580Y-85870904D01*
X32617580Y-85870904D02*
X32665200Y-85918523D01*
X32665200Y-85918523D02*
X32712819Y-86013761D01*
X32712819Y-86013761D02*
X32712819Y-86299475D01*
X32712819Y-86299475D02*
X32665200Y-86394713D01*
X32665200Y-86394713D02*
X32617580Y-86442332D01*
X71116819Y-105586666D02*
X70640628Y-105919999D01*
X71116819Y-106158094D02*
X70116819Y-106158094D01*
X70116819Y-106158094D02*
X70116819Y-105777142D01*
X70116819Y-105777142D02*
X70164438Y-105681904D01*
X70164438Y-105681904D02*
X70212057Y-105634285D01*
X70212057Y-105634285D02*
X70307295Y-105586666D01*
X70307295Y-105586666D02*
X70450152Y-105586666D01*
X70450152Y-105586666D02*
X70545390Y-105634285D01*
X70545390Y-105634285D02*
X70593009Y-105681904D01*
X70593009Y-105681904D02*
X70640628Y-105777142D01*
X70640628Y-105777142D02*
X70640628Y-106158094D01*
X70116819Y-104681904D02*
X70116819Y-105158094D01*
X70116819Y-105158094D02*
X70593009Y-105205713D01*
X70593009Y-105205713D02*
X70545390Y-105158094D01*
X70545390Y-105158094D02*
X70497771Y-105062856D01*
X70497771Y-105062856D02*
X70497771Y-104824761D01*
X70497771Y-104824761D02*
X70545390Y-104729523D01*
X70545390Y-104729523D02*
X70593009Y-104681904D01*
X70593009Y-104681904D02*
X70688247Y-104634285D01*
X70688247Y-104634285D02*
X70926342Y-104634285D01*
X70926342Y-104634285D02*
X71021580Y-104681904D01*
X71021580Y-104681904D02*
X71069200Y-104729523D01*
X71069200Y-104729523D02*
X71116819Y-104824761D01*
X71116819Y-104824761D02*
X71116819Y-105062856D01*
X71116819Y-105062856D02*
X71069200Y-105158094D01*
X71069200Y-105158094D02*
X71021580Y-105205713D01*
X64660952Y-105874819D02*
X64089524Y-105874819D01*
X64375238Y-105874819D02*
X64375238Y-104874819D01*
X64375238Y-104874819D02*
X64280000Y-105017676D01*
X64280000Y-105017676D02*
X64184762Y-105112914D01*
X64184762Y-105112914D02*
X64089524Y-105160533D01*
X65089524Y-105874819D02*
X65089524Y-104874819D01*
X65184762Y-105493866D02*
X65470476Y-105874819D01*
X65470476Y-105208152D02*
X65089524Y-105589104D01*
X30104819Y-112569523D02*
X31104819Y-111902857D01*
X30104819Y-111902857D02*
X31104819Y-112569523D01*
X31104819Y-110998095D02*
X31104819Y-111569523D01*
X31104819Y-111283809D02*
X30104819Y-111283809D01*
X30104819Y-111283809D02*
X30247676Y-111379047D01*
X30247676Y-111379047D02*
X30342914Y-111474285D01*
X30342914Y-111474285D02*
X30390533Y-111569523D01*
X36409523Y-123644819D02*
X35838095Y-123644819D01*
X36123809Y-123644819D02*
X36123809Y-122644819D01*
X36123809Y-122644819D02*
X36028571Y-122787676D01*
X36028571Y-122787676D02*
X35933333Y-122882914D01*
X35933333Y-122882914D02*
X35838095Y-122930533D01*
X37266666Y-122644819D02*
X37076190Y-122644819D01*
X37076190Y-122644819D02*
X36980952Y-122692438D01*
X36980952Y-122692438D02*
X36933333Y-122740057D01*
X36933333Y-122740057D02*
X36838095Y-122882914D01*
X36838095Y-122882914D02*
X36790476Y-123073390D01*
X36790476Y-123073390D02*
X36790476Y-123454342D01*
X36790476Y-123454342D02*
X36838095Y-123549580D01*
X36838095Y-123549580D02*
X36885714Y-123597200D01*
X36885714Y-123597200D02*
X36980952Y-123644819D01*
X36980952Y-123644819D02*
X37171428Y-123644819D01*
X37171428Y-123644819D02*
X37266666Y-123597200D01*
X37266666Y-123597200D02*
X37314285Y-123549580D01*
X37314285Y-123549580D02*
X37361904Y-123454342D01*
X37361904Y-123454342D02*
X37361904Y-123216247D01*
X37361904Y-123216247D02*
X37314285Y-123121009D01*
X37314285Y-123121009D02*
X37266666Y-123073390D01*
X37266666Y-123073390D02*
X37171428Y-123025771D01*
X37171428Y-123025771D02*
X36980952Y-123025771D01*
X36980952Y-123025771D02*
X36885714Y-123073390D01*
X36885714Y-123073390D02*
X36838095Y-123121009D01*
X36838095Y-123121009D02*
X36790476Y-123216247D01*
X37790476Y-123644819D02*
X37790476Y-122644819D01*
X37790476Y-122644819D02*
X38123809Y-123359104D01*
X38123809Y-123359104D02*
X38457142Y-122644819D01*
X38457142Y-122644819D02*
X38457142Y-123644819D01*
X38933333Y-123644819D02*
X38933333Y-122644819D01*
X38933333Y-123121009D02*
X39504761Y-123121009D01*
X39504761Y-123644819D02*
X39504761Y-122644819D01*
X39885714Y-122978152D02*
X40409523Y-122978152D01*
X40409523Y-122978152D02*
X39885714Y-123644819D01*
X39885714Y-123644819D02*
X40409523Y-123644819D01*
D11*
%TO.C,J3*%
X104013000Y-79756000D02*
X105113000Y-79756000D01*
X105513000Y-79756000D02*
X106613000Y-79756000D01*
X107013000Y-79756000D02*
X108113000Y-79756000D01*
X108513000Y-79756000D02*
X109613000Y-79756000D01*
X110013000Y-79756000D02*
X111113000Y-79756000D01*
X111513000Y-79756000D02*
X112613000Y-79756000D01*
X113013000Y-79756000D02*
X114113000Y-79756000D01*
X114513000Y-79756000D02*
X115613000Y-79756000D01*
X116013000Y-79756000D02*
X117113000Y-79756000D01*
X117513000Y-79756000D02*
X118613000Y-79756000D01*
X119013000Y-79756000D02*
X120113000Y-79756000D01*
X120513000Y-79756000D02*
X120777000Y-79756000D01*
X122301000Y-81280000D02*
X122301000Y-82042000D01*
D12*
X117475000Y-114240000D02*
X104715000Y-114240000D01*
X117475000Y-114240000D02*
X117475000Y-116900000D01*
X104715000Y-114240000D02*
X104715000Y-116900000D01*
X120075000Y-115570000D02*
X120075000Y-116900000D01*
D11*
X122301000Y-115824000D02*
X122301000Y-114724000D01*
X122301000Y-114324000D02*
X122301000Y-113224000D01*
X122301000Y-112824000D02*
X122301000Y-111724000D01*
X122301000Y-111324000D02*
X122301000Y-110224000D01*
X122301000Y-109824000D02*
X122301000Y-108724000D01*
X122301000Y-108324000D02*
X122301000Y-107224000D01*
X122301000Y-106824000D02*
X122301000Y-105724000D01*
X122301000Y-105324000D02*
X122301000Y-104224000D01*
X122301000Y-103824000D02*
X122301000Y-102724000D01*
X122301000Y-102324000D02*
X122301000Y-101224000D01*
X122301000Y-100824000D02*
X122301000Y-99724000D01*
X122301000Y-99324000D02*
X122301000Y-98224000D01*
X122301000Y-97824000D02*
X122301000Y-96724000D01*
X122301000Y-96324000D02*
X122301000Y-95224000D01*
X122301000Y-94824000D02*
X122301000Y-93724000D01*
X122301000Y-93324000D02*
X122301000Y-92224000D01*
X122301000Y-91824000D02*
X122301000Y-90724000D01*
X122301000Y-90324000D02*
X122301000Y-89224000D01*
X122301000Y-88824000D02*
X122301000Y-87724000D01*
X122301000Y-87324000D02*
X122301000Y-86224000D01*
X122301000Y-85824000D02*
X122301000Y-84724000D01*
X122301000Y-84324000D02*
X122301000Y-83224000D01*
X122301000Y-82824000D02*
X122301000Y-81724000D01*
X122301000Y-81324000D02*
X122301000Y-81280000D01*
X102743000Y-115824000D02*
X102743000Y-114724000D01*
X102743000Y-114324000D02*
X102743000Y-113224000D01*
X102743000Y-112824000D02*
X102743000Y-111724000D01*
X102743000Y-111324000D02*
X102743000Y-110224000D01*
X102743000Y-109824000D02*
X102743000Y-108724000D01*
X102743000Y-108324000D02*
X102743000Y-107224000D01*
X102743000Y-106824000D02*
X102743000Y-105724000D01*
X102743000Y-105324000D02*
X102743000Y-104224000D01*
X102743000Y-103824000D02*
X102743000Y-102724000D01*
X102743000Y-102324000D02*
X102743000Y-101224000D01*
X102743000Y-100824000D02*
X102743000Y-99724000D01*
X102743000Y-99324000D02*
X102743000Y-98224000D01*
X102743000Y-97824000D02*
X102743000Y-96724000D01*
X102743000Y-96324000D02*
X102743000Y-95224000D01*
X102743000Y-94824000D02*
X102743000Y-93724000D01*
X102743000Y-93324000D02*
X102743000Y-92224000D01*
X102743000Y-91824000D02*
X102743000Y-90724000D01*
X102743000Y-90324000D02*
X102743000Y-89224000D01*
X102743000Y-88824000D02*
X102743000Y-87724000D01*
X102743000Y-87324000D02*
X102743000Y-86224000D01*
X102743000Y-85824000D02*
X102743000Y-84724000D01*
X102743000Y-84324000D02*
X102743000Y-83224000D01*
X102743000Y-82824000D02*
X102743000Y-81724000D01*
X102743000Y-81324000D02*
X102743000Y-81280000D01*
D12*
X120075000Y-116900000D02*
X118745000Y-116900000D01*
X117475000Y-116900000D02*
X104715000Y-116900000D01*
D11*
X104013000Y-117602000D02*
X105113000Y-117602000D01*
X105513000Y-117602000D02*
X106613000Y-117602000D01*
X107013000Y-117602000D02*
X108113000Y-117602000D01*
X108513000Y-117602000D02*
X109613000Y-117602000D01*
X110013000Y-117602000D02*
X111113000Y-117602000D01*
X111513000Y-117602000D02*
X112613000Y-117602000D01*
X113013000Y-117602000D02*
X114113000Y-117602000D01*
X114513000Y-117602000D02*
X115613000Y-117602000D01*
X116013000Y-117602000D02*
X117113000Y-117602000D01*
X117513000Y-117602000D02*
X118613000Y-117602000D01*
X119013000Y-117602000D02*
X120113000Y-117602000D01*
X120513000Y-117602000D02*
X120777000Y-117602000D01*
D12*
%TO.C,C13*%
X76300000Y-115490000D02*
X75985000Y-115490000D01*
X76300000Y-115490000D02*
X76300000Y-120730000D01*
X73875000Y-115490000D02*
X73560000Y-115490000D01*
X73560000Y-115490000D02*
X73560000Y-120730000D01*
X76300000Y-120730000D02*
X75985000Y-120730000D01*
X73875000Y-120730000D02*
X73560000Y-120730000D01*
%TO.C,C3*%
X75665000Y-128190000D02*
X75350000Y-128190000D01*
X75665000Y-128190000D02*
X75665000Y-133430000D01*
X73240000Y-128190000D02*
X72925000Y-128190000D01*
X72925000Y-128190000D02*
X72925000Y-133430000D01*
X75665000Y-133430000D02*
X75350000Y-133430000D01*
X73240000Y-133430000D02*
X72925000Y-133430000D01*
%TO.C,J1*%
X44390000Y-154325000D02*
X95310000Y-154325000D01*
X44390000Y-154325000D02*
X44390000Y-145695000D01*
X44510000Y-154325000D02*
X44510000Y-145695000D01*
X44628095Y-154325000D02*
X44628095Y-145695000D01*
X44746190Y-154325000D02*
X44746190Y-145695000D01*
X44864285Y-154325000D02*
X44864285Y-145695000D01*
X44982380Y-154325000D02*
X44982380Y-145695000D01*
X45100475Y-154325000D02*
X45100475Y-145695000D01*
X45218570Y-154325000D02*
X45218570Y-145695000D01*
X45336665Y-154325000D02*
X45336665Y-145695000D01*
X45454760Y-154325000D02*
X45454760Y-145695000D01*
X45572855Y-154325000D02*
X45572855Y-145695000D01*
X45690950Y-154325000D02*
X45690950Y-145695000D01*
X45809045Y-154325000D02*
X45809045Y-145695000D01*
X45927140Y-154325000D02*
X45927140Y-145695000D01*
X46045235Y-154325000D02*
X46045235Y-145695000D01*
X46163330Y-154325000D02*
X46163330Y-145695000D01*
X46281425Y-154325000D02*
X46281425Y-145695000D01*
X46399520Y-154325000D02*
X46399520Y-145695000D01*
X46517615Y-154325000D02*
X46517615Y-145695000D01*
X46635710Y-154325000D02*
X46635710Y-145695000D01*
X46753805Y-154325000D02*
X46753805Y-145695000D01*
X46871900Y-154325000D02*
X46871900Y-145695000D01*
X46990000Y-154325000D02*
X46990000Y-145695000D01*
X49530000Y-154325000D02*
X49530000Y-145695000D01*
X52070000Y-154325000D02*
X52070000Y-145695000D01*
X54610000Y-154325000D02*
X54610000Y-145695000D01*
X57150000Y-154325000D02*
X57150000Y-145695000D01*
X59690000Y-154325000D02*
X59690000Y-145695000D01*
X62230000Y-154325000D02*
X62230000Y-145695000D01*
X64770000Y-154325000D02*
X64770000Y-145695000D01*
X67310000Y-154325000D02*
X67310000Y-145695000D01*
X69850000Y-154325000D02*
X69850000Y-145695000D01*
X72390000Y-154325000D02*
X72390000Y-145695000D01*
X74930000Y-154325000D02*
X74930000Y-145695000D01*
X77470000Y-154325000D02*
X77470000Y-145695000D01*
X80010000Y-154325000D02*
X80010000Y-145695000D01*
X82550000Y-154325000D02*
X82550000Y-145695000D01*
X85090000Y-154325000D02*
X85090000Y-145695000D01*
X87630000Y-154325000D02*
X87630000Y-145695000D01*
X90170000Y-154325000D02*
X90170000Y-145695000D01*
X92710000Y-154325000D02*
X92710000Y-145695000D01*
X95310000Y-154325000D02*
X95310000Y-145695000D01*
X44390000Y-145695000D02*
X95310000Y-145695000D01*
X45360000Y-145695000D02*
X45360000Y-145285000D01*
X46080000Y-145695000D02*
X46080000Y-145285000D01*
X47900000Y-145695000D02*
X47900000Y-145285000D01*
X48620000Y-145695000D02*
X48620000Y-145285000D01*
X50440000Y-145695000D02*
X50440000Y-145285000D01*
X51160000Y-145695000D02*
X51160000Y-145285000D01*
X52980000Y-145695000D02*
X52980000Y-145285000D01*
X53700000Y-145695000D02*
X53700000Y-145285000D01*
X55520000Y-145695000D02*
X55520000Y-145285000D01*
X56240000Y-145695000D02*
X56240000Y-145285000D01*
X58060000Y-145695000D02*
X58060000Y-145285000D01*
X58780000Y-145695000D02*
X58780000Y-145285000D01*
X60600000Y-145695000D02*
X60600000Y-145285000D01*
X61320000Y-145695000D02*
X61320000Y-145285000D01*
X63140000Y-145695000D02*
X63140000Y-145285000D01*
X63860000Y-145695000D02*
X63860000Y-145285000D01*
X65680000Y-145695000D02*
X65680000Y-145285000D01*
X66400000Y-145695000D02*
X66400000Y-145285000D01*
X68220000Y-145695000D02*
X68220000Y-145285000D01*
X68940000Y-145695000D02*
X68940000Y-145285000D01*
X70760000Y-145695000D02*
X70760000Y-145285000D01*
X71480000Y-145695000D02*
X71480000Y-145285000D01*
X73300000Y-145695000D02*
X73300000Y-145285000D01*
X74020000Y-145695000D02*
X74020000Y-145285000D01*
X75840000Y-145695000D02*
X75840000Y-145285000D01*
X76560000Y-145695000D02*
X76560000Y-145285000D01*
X78380000Y-145695000D02*
X78380000Y-145285000D01*
X79100000Y-145695000D02*
X79100000Y-145285000D01*
X80920000Y-145695000D02*
X80920000Y-145285000D01*
X81640000Y-145695000D02*
X81640000Y-145285000D01*
X83460000Y-145695000D02*
X83460000Y-145285000D01*
X84180000Y-145695000D02*
X84180000Y-145285000D01*
X86000000Y-145695000D02*
X86000000Y-145285000D01*
X86720000Y-145695000D02*
X86720000Y-145285000D01*
X88540000Y-145695000D02*
X88540000Y-145285000D01*
X89260000Y-145695000D02*
X89260000Y-145285000D01*
X91080000Y-145695000D02*
X91080000Y-145285000D01*
X91800000Y-145695000D02*
X91800000Y-145285000D01*
X93620000Y-145695000D02*
X93620000Y-145285000D01*
X94340000Y-145695000D02*
X94340000Y-145285000D01*
X45360000Y-143185000D02*
X45360000Y-142805000D01*
X46080000Y-143185000D02*
X46080000Y-142805000D01*
X47900000Y-143185000D02*
X47900000Y-142745000D01*
X48620000Y-143185000D02*
X48620000Y-142745000D01*
X50440000Y-143185000D02*
X50440000Y-142745000D01*
X51160000Y-143185000D02*
X51160000Y-142745000D01*
X52980000Y-143185000D02*
X52980000Y-142745000D01*
X53700000Y-143185000D02*
X53700000Y-142745000D01*
X55520000Y-143185000D02*
X55520000Y-142745000D01*
X56240000Y-143185000D02*
X56240000Y-142745000D01*
X58060000Y-143185000D02*
X58060000Y-142745000D01*
X58780000Y-143185000D02*
X58780000Y-142745000D01*
X60600000Y-143185000D02*
X60600000Y-142745000D01*
X61320000Y-143185000D02*
X61320000Y-142745000D01*
X63140000Y-143185000D02*
X63140000Y-142745000D01*
X63860000Y-143185000D02*
X63860000Y-142745000D01*
X65680000Y-143185000D02*
X65680000Y-142745000D01*
X66400000Y-143185000D02*
X66400000Y-142745000D01*
X68220000Y-143185000D02*
X68220000Y-142745000D01*
X68940000Y-143185000D02*
X68940000Y-142745000D01*
X70760000Y-143185000D02*
X70760000Y-142745000D01*
X71480000Y-143185000D02*
X71480000Y-142745000D01*
X73300000Y-143185000D02*
X73300000Y-142745000D01*
X74020000Y-143185000D02*
X74020000Y-142745000D01*
X75840000Y-143185000D02*
X75840000Y-142745000D01*
X76560000Y-143185000D02*
X76560000Y-142745000D01*
X78380000Y-143185000D02*
X78380000Y-142745000D01*
X79100000Y-143185000D02*
X79100000Y-142745000D01*
X80920000Y-143185000D02*
X80920000Y-142745000D01*
X81640000Y-143185000D02*
X81640000Y-142745000D01*
X83460000Y-143185000D02*
X83460000Y-142745000D01*
X84180000Y-143185000D02*
X84180000Y-142745000D01*
X86000000Y-143185000D02*
X86000000Y-142745000D01*
X86720000Y-143185000D02*
X86720000Y-142745000D01*
X88540000Y-143185000D02*
X88540000Y-142745000D01*
X89260000Y-143185000D02*
X89260000Y-142745000D01*
X91080000Y-143185000D02*
X91080000Y-142745000D01*
X91800000Y-143185000D02*
X91800000Y-142745000D01*
X93620000Y-143185000D02*
X93620000Y-142745000D01*
X94340000Y-143185000D02*
X94340000Y-142745000D01*
X44390000Y-141695000D02*
X44390000Y-140585000D01*
X44390000Y-140585000D02*
X45720000Y-140585000D01*
%TO.C,U10*%
X77350000Y-135950000D02*
X97910000Y-135950000D01*
X97910000Y-135950000D02*
X97910000Y-125670000D01*
X77410000Y-133460000D02*
X97850000Y-133460000D01*
X97850000Y-133460000D02*
X97850000Y-128160000D01*
X77410000Y-131810000D02*
X77410000Y-133460000D01*
X77410000Y-128160000D02*
X77410000Y-129810000D01*
X97850000Y-128160000D02*
X77410000Y-128160000D01*
X77350000Y-125670000D02*
X77350000Y-135950000D01*
X97910000Y-125670000D02*
X77350000Y-125670000D01*
X77410000Y-129810000D02*
G75*
G02*
X77410000Y-131810000I0J-1000000D01*
G01*
%TO.C,U9*%
X44330000Y-135950000D02*
X69970000Y-135950000D01*
X69970000Y-135950000D02*
X69970000Y-125670000D01*
X44390000Y-133460000D02*
X69910000Y-133460000D01*
X69910000Y-133460000D02*
X69910000Y-128160000D01*
X44390000Y-131810000D02*
X44390000Y-133460000D01*
X44390000Y-128160000D02*
X44390000Y-129810000D01*
X69910000Y-128160000D02*
X44390000Y-128160000D01*
X44330000Y-125670000D02*
X44330000Y-135950000D01*
X69970000Y-125670000D02*
X44330000Y-125670000D01*
X44390000Y-129810000D02*
G75*
G02*
X44390000Y-131810000I0J-1000000D01*
G01*
%TO.C,TP8*%
X97335000Y-70030000D02*
X94435000Y-70030000D01*
X97335000Y-67130000D02*
X97335000Y-70030000D01*
X94435000Y-70030000D02*
X94435000Y-67130000D01*
X94435000Y-67130000D02*
X97335000Y-67130000D01*
%TO.C,TP7*%
X82095000Y-70030000D02*
X79195000Y-70030000D01*
X82095000Y-67130000D02*
X82095000Y-70030000D01*
X79195000Y-70030000D02*
X79195000Y-67130000D01*
X79195000Y-67130000D02*
X82095000Y-67130000D01*
%TO.C,TP6*%
X66855000Y-70030000D02*
X63955000Y-70030000D01*
X66855000Y-67130000D02*
X66855000Y-70030000D01*
X63955000Y-70030000D02*
X63955000Y-67130000D01*
X63955000Y-67130000D02*
X66855000Y-67130000D01*
%TO.C,TP5*%
X52250000Y-70030000D02*
X49350000Y-70030000D01*
X52250000Y-67130000D02*
X52250000Y-70030000D01*
X49350000Y-70030000D02*
X49350000Y-67130000D01*
X49350000Y-67130000D02*
X52250000Y-67130000D01*
%TO.C,C12*%
X76300000Y-102790000D02*
X75985000Y-102790000D01*
X76300000Y-102790000D02*
X76300000Y-108030000D01*
X73875000Y-102790000D02*
X73560000Y-102790000D01*
X73560000Y-102790000D02*
X73560000Y-108030000D01*
X76300000Y-108030000D02*
X75985000Y-108030000D01*
X73875000Y-108030000D02*
X73560000Y-108030000D01*
%TO.C,C4*%
X35520000Y-68790000D02*
X35520000Y-68475000D01*
X35520000Y-71215000D02*
X35520000Y-70900000D01*
X40760000Y-71215000D02*
X40760000Y-70900000D01*
X40760000Y-68475000D02*
X35520000Y-68475000D01*
X40760000Y-71215000D02*
X35520000Y-71215000D01*
X40760000Y-68790000D02*
X40760000Y-68475000D01*
%TO.C,U8*%
X49410000Y-123250000D02*
X69970000Y-123250000D01*
X49470000Y-120760000D02*
X69910000Y-120760000D01*
X69970000Y-123250000D02*
X69970000Y-112970000D01*
X69910000Y-115460000D02*
X49470000Y-115460000D01*
X69970000Y-112970000D02*
X49410000Y-112970000D01*
X49410000Y-112970000D02*
X49410000Y-123250000D01*
X49470000Y-119110000D02*
X49470000Y-120760000D01*
X69910000Y-120760000D02*
X69910000Y-115460000D01*
X49470000Y-115460000D02*
X49470000Y-117110000D01*
X49470000Y-117110000D02*
G75*
G02*
X49470000Y-119110000I0J-1000000D01*
G01*
%TO.C,R4*%
X51350000Y-106790000D02*
X57890000Y-106790000D01*
X57890000Y-104050000D02*
X57890000Y-104380000D01*
X51350000Y-106460000D02*
X51350000Y-106790000D01*
X51350000Y-104050000D02*
X57890000Y-104050000D01*
X57890000Y-106790000D02*
X57890000Y-106460000D01*
X51350000Y-104380000D02*
X51350000Y-104050000D01*
%TO.C,C8*%
X42010000Y-133430000D02*
X41695000Y-133430000D01*
X39585000Y-128190000D02*
X39270000Y-128190000D01*
X42010000Y-128190000D02*
X42010000Y-133430000D01*
X39585000Y-133430000D02*
X39270000Y-133430000D01*
X42010000Y-128190000D02*
X41695000Y-128190000D01*
X39270000Y-128190000D02*
X39270000Y-133430000D01*
%TO.C,U1*%
X69970000Y-102930000D02*
X69970000Y-92650000D01*
X69970000Y-92650000D02*
X49410000Y-92650000D01*
X49470000Y-100440000D02*
X69910000Y-100440000D01*
X69910000Y-95140000D02*
X49470000Y-95140000D01*
X49410000Y-102930000D02*
X69970000Y-102930000D01*
X49410000Y-92650000D02*
X49410000Y-102930000D01*
X49470000Y-95140000D02*
X49470000Y-96790000D01*
X49470000Y-98790000D02*
X49470000Y-100440000D01*
X69910000Y-100440000D02*
X69910000Y-95140000D01*
X49470000Y-96790000D02*
G75*
G02*
X49470000Y-98790000I0J-1000000D01*
G01*
%TO.C,U3*%
X77410000Y-95360000D02*
X95310000Y-95360000D01*
X95310000Y-95360000D02*
X95310000Y-90060000D01*
X77350000Y-87570000D02*
X77350000Y-97850000D01*
X77350000Y-97850000D02*
X95370000Y-97850000D01*
X77410000Y-93710000D02*
X77410000Y-95360000D01*
X95370000Y-97850000D02*
X95370000Y-87570000D01*
X95310000Y-90060000D02*
X77410000Y-90060000D01*
X95370000Y-87570000D02*
X77350000Y-87570000D01*
X77410000Y-90060000D02*
X77410000Y-91710000D01*
X77410000Y-91710000D02*
G75*
G02*
X77410000Y-93710000I0J-1000000D01*
G01*
%TO.C,D2*%
X36555000Y-94762000D02*
X39645000Y-94762000D01*
X36555170Y-94762000D02*
G75*
G02*
X38100462Y-89212000I1544830J2560000D01*
G01*
X38099538Y-89212000D02*
G75*
G02*
X39644830Y-94762000I462J-2990000D01*
G01*
X40600000Y-92202000D02*
G75*
G02*
X35600000Y-92202000I-2500000J0D01*
G01*
X35600000Y-92202000D02*
G75*
G02*
X40600000Y-92202000I2500000J0D01*
G01*
%TO.C,U7*%
X49470000Y-81010000D02*
X49470000Y-82660000D01*
X69910000Y-77360000D02*
X49470000Y-77360000D01*
X49410000Y-85150000D02*
X69970000Y-85150000D01*
X49470000Y-82660000D02*
X69910000Y-82660000D01*
X69970000Y-85150000D02*
X69970000Y-74870000D01*
X49470000Y-77360000D02*
X49470000Y-79010000D01*
X49410000Y-74870000D02*
X49410000Y-85150000D01*
X69970000Y-74870000D02*
X49410000Y-74870000D01*
X69910000Y-82660000D02*
X69910000Y-77360000D01*
X49470000Y-79010000D02*
G75*
G02*
X49470000Y-81010000I0J-1000000D01*
G01*
%TO.C,R2*%
X41370000Y-75457000D02*
X41370000Y-75787000D01*
X41370000Y-73377000D02*
X41370000Y-73047000D01*
X41370000Y-75787000D02*
X34830000Y-75787000D01*
X34830000Y-73047000D02*
X34830000Y-73377000D01*
X34830000Y-75787000D02*
X34830000Y-75457000D01*
X41370000Y-73047000D02*
X34830000Y-73047000D01*
%TO.C,TP2*%
X94361700Y-58875000D02*
X97261700Y-58875000D01*
X94361700Y-61775000D02*
X94361700Y-58875000D01*
X97261700Y-58875000D02*
X97261700Y-61775000D01*
X97261700Y-61775000D02*
X94361700Y-61775000D01*
%TO.C,C10*%
X76300000Y-82630000D02*
X75985000Y-82630000D01*
X76300000Y-77390000D02*
X76300000Y-82630000D01*
X73560000Y-77390000D02*
X73560000Y-82630000D01*
X73875000Y-77390000D02*
X73560000Y-77390000D01*
X73875000Y-82630000D02*
X73560000Y-82630000D01*
X76300000Y-77390000D02*
X75985000Y-77390000D01*
%TO.C,C7*%
X40720000Y-99195000D02*
X40720000Y-98880000D01*
X40720000Y-96455000D02*
X35480000Y-96455000D01*
X40720000Y-99195000D02*
X35480000Y-99195000D01*
X35480000Y-96770000D02*
X35480000Y-96455000D01*
X40720000Y-96770000D02*
X40720000Y-96455000D01*
X35480000Y-99195000D02*
X35480000Y-98880000D01*
%TO.C,C2*%
X67360000Y-91235000D02*
X67360000Y-91550000D01*
X62120000Y-88810000D02*
X67360000Y-88810000D01*
X62120000Y-91235000D02*
X62120000Y-91550000D01*
X62120000Y-91550000D02*
X67360000Y-91550000D01*
X67360000Y-88810000D02*
X67360000Y-89125000D01*
X62120000Y-88810000D02*
X62120000Y-89125000D01*
%TO.C,C1*%
X56050000Y-89165000D02*
X56050000Y-88850000D01*
X56050000Y-91590000D02*
X50810000Y-91590000D01*
X56050000Y-88850000D02*
X50810000Y-88850000D01*
X50810000Y-91590000D02*
X50810000Y-91275000D01*
X50810000Y-89165000D02*
X50810000Y-88850000D01*
X56050000Y-91590000D02*
X56050000Y-91275000D01*
%TO.C,U4*%
X95370000Y-110550000D02*
X95370000Y-100270000D01*
X77410000Y-106410000D02*
X77410000Y-108060000D01*
X77350000Y-110550000D02*
X95370000Y-110550000D01*
X95310000Y-108060000D02*
X95310000Y-102760000D01*
X95370000Y-100270000D02*
X77350000Y-100270000D01*
X77350000Y-100270000D02*
X77350000Y-110550000D01*
X95310000Y-102760000D02*
X77410000Y-102760000D01*
X77410000Y-102760000D02*
X77410000Y-104410000D01*
X77410000Y-108060000D02*
X95310000Y-108060000D01*
X77410000Y-104410000D02*
G75*
G02*
X77410000Y-106410000I0J-1000000D01*
G01*
%TO.C,C6*%
X45935000Y-120730000D02*
X45620000Y-120730000D01*
X48360000Y-115490000D02*
X48045000Y-115490000D01*
X45620000Y-115490000D02*
X45620000Y-120730000D01*
X48360000Y-115490000D02*
X48360000Y-120730000D01*
X45935000Y-115490000D02*
X45620000Y-115490000D01*
X48360000Y-120730000D02*
X48045000Y-120730000D01*
%TO.C,D1*%
X36555000Y-82570000D02*
X39645000Y-82570000D01*
X38099538Y-77020000D02*
G75*
G02*
X39644830Y-82570000I462J-2990000D01*
G01*
X36555170Y-82570000D02*
G75*
G02*
X38100462Y-77020000I1544830J2560000D01*
G01*
X40600000Y-80010000D02*
G75*
G02*
X35600000Y-80010000I-2500000J0D01*
G01*
X35600000Y-80010000D02*
G75*
G02*
X40600000Y-80010000I2500000J0D01*
G01*
%TO.C,C11*%
X76300000Y-90090000D02*
X75985000Y-90090000D01*
X73875000Y-90090000D02*
X73560000Y-90090000D01*
X76300000Y-90090000D02*
X76300000Y-95330000D01*
X73560000Y-90090000D02*
X73560000Y-95330000D01*
X76300000Y-95330000D02*
X75985000Y-95330000D01*
X73875000Y-95330000D02*
X73560000Y-95330000D01*
%TO.C,TP3*%
X49276700Y-58875000D02*
X52176700Y-58875000D01*
X52176700Y-61775000D02*
X49276700Y-61775000D01*
X52176700Y-58875000D02*
X52176700Y-61775000D01*
X49276700Y-61775000D02*
X49276700Y-58875000D01*
%TO.C,C5*%
X45935000Y-100410000D02*
X45620000Y-100410000D01*
X48360000Y-95170000D02*
X48360000Y-100410000D01*
X48360000Y-100410000D02*
X48045000Y-100410000D01*
X45935000Y-95170000D02*
X45620000Y-95170000D01*
X48360000Y-95170000D02*
X48045000Y-95170000D01*
X45620000Y-95170000D02*
X45620000Y-100410000D01*
%TO.C,TP1*%
X82095000Y-61775000D02*
X79195000Y-61775000D01*
X79195000Y-61775000D02*
X79195000Y-58875000D01*
X82095000Y-58875000D02*
X82095000Y-61775000D01*
X79195000Y-58875000D02*
X82095000Y-58875000D01*
%TO.C,TP4*%
X66855000Y-61775000D02*
X63955000Y-61775000D01*
X66855000Y-58875000D02*
X66855000Y-61775000D01*
X63955000Y-61775000D02*
X63955000Y-58875000D01*
X63955000Y-58875000D02*
X66855000Y-58875000D01*
%TO.C,U5*%
X97850000Y-77360000D02*
X77410000Y-77360000D01*
X97910000Y-85150000D02*
X97910000Y-74870000D01*
X77410000Y-77360000D02*
X77410000Y-79010000D01*
X97910000Y-74870000D02*
X77350000Y-74870000D01*
X77410000Y-82660000D02*
X97850000Y-82660000D01*
X77350000Y-85150000D02*
X97910000Y-85150000D01*
X77350000Y-74870000D02*
X77350000Y-85150000D01*
X97850000Y-82660000D02*
X97850000Y-77360000D01*
X77410000Y-81010000D02*
X77410000Y-82660000D01*
X77410000Y-79010000D02*
G75*
G02*
X77410000Y-81010000I0J-1000000D01*
G01*
%TO.C,C9*%
X45935000Y-77390000D02*
X45620000Y-77390000D01*
X48360000Y-77390000D02*
X48045000Y-77390000D01*
X45935000Y-82630000D02*
X45620000Y-82630000D01*
X48360000Y-82630000D02*
X48045000Y-82630000D01*
X45620000Y-77390000D02*
X45620000Y-82630000D01*
X48360000Y-77390000D02*
X48360000Y-82630000D01*
%TO.C,R1*%
X57880000Y-110590000D02*
X51340000Y-110590000D01*
X57880000Y-110260000D02*
X57880000Y-110590000D01*
X51340000Y-110590000D02*
X51340000Y-110260000D01*
X57880000Y-108180000D02*
X57880000Y-107850000D01*
X51340000Y-107850000D02*
X51340000Y-108180000D01*
X57880000Y-107850000D02*
X51340000Y-107850000D01*
%TO.C,U6*%
X77410000Y-120760000D02*
X95310000Y-120760000D01*
X95370000Y-123250000D02*
X95370000Y-112970000D01*
X77350000Y-112970000D02*
X77350000Y-123250000D01*
X77410000Y-115460000D02*
X77410000Y-117110000D01*
X95370000Y-112970000D02*
X77350000Y-112970000D01*
X77350000Y-123250000D02*
X95370000Y-123250000D01*
X77410000Y-119110000D02*
X77410000Y-120760000D01*
X95310000Y-120760000D02*
X95310000Y-115460000D01*
X95310000Y-115460000D02*
X77410000Y-115460000D01*
X77410000Y-117110000D02*
G75*
G02*
X77410000Y-119110000I0J-1000000D01*
G01*
%TO.C,R3*%
X34830000Y-87979000D02*
X34830000Y-87649000D01*
X41370000Y-87649000D02*
X41370000Y-87979000D01*
X34830000Y-85239000D02*
X34830000Y-85569000D01*
X41370000Y-87979000D02*
X34830000Y-87979000D01*
X41370000Y-85239000D02*
X34830000Y-85239000D01*
X41370000Y-85569000D02*
X41370000Y-85239000D01*
%TO.C,R5*%
X61510000Y-104380000D02*
X61510000Y-104050000D01*
X68050000Y-106790000D02*
X68050000Y-106460000D01*
X61510000Y-104050000D02*
X68050000Y-104050000D01*
X68050000Y-104050000D02*
X68050000Y-104380000D01*
X61510000Y-106790000D02*
X68050000Y-106790000D01*
X61510000Y-106460000D02*
X61510000Y-106790000D01*
%TO.C,X1*%
X32400000Y-122210000D02*
X44550000Y-122210000D01*
X31650000Y-102060000D02*
X31650000Y-121460000D01*
X44550000Y-122210000D02*
X44550000Y-102060000D01*
X43800000Y-101310000D02*
X32400000Y-101310000D01*
X31650000Y-102060000D02*
G75*
G02*
X32400000Y-101310000I750000J0D01*
G01*
X32400000Y-122210000D02*
G75*
G02*
X31650000Y-121460000I0J750000D01*
G01*
X43800000Y-101310000D02*
G75*
G02*
X44550000Y-102060000I0J-750000D01*
G01*
%TD*%
M02*
