%TF.GenerationSoftware,KiCad,Pcbnew,8.0.2*%
%TF.CreationDate,2025-01-27T08:13:52+01:00*%
%TF.ProjectId,sdcard-board,73646361-7264-42d6-926f-6172642e6b69,rev?*%
%TF.SameCoordinates,Original*%
%TF.FileFunction,Soldermask,Bot*%
%TF.FilePolarity,Negative*%
%FSLAX46Y46*%
G04 Gerber Fmt 4.6, Leading zero omitted, Abs format (unit mm)*
G04 Created by KiCad (PCBNEW 8.0.2) date 2025-01-27 08:13:52*
%MOMM*%
%LPD*%
G01*
G04 APERTURE LIST*
%ADD10C,1.600000*%
%ADD11R,1.600000X1.600000*%
%ADD12O,1.600000X1.600000*%
%ADD13R,1.700000X1.700000*%
%ADD14O,1.700000X1.700000*%
%ADD15R,1.800000X1.800000*%
%ADD16C,1.800000*%
%ADD17R,2.500000X2.500000*%
%ADD18C,3.000000*%
G04 APERTURE END LIST*
D10*
%TO.C,C12*%
X74930000Y-102910000D03*
X74930000Y-107910000D03*
%TD*%
%TO.C,C4*%
X40640000Y-69845000D03*
X35640000Y-69845000D03*
%TD*%
D11*
%TO.C,U9*%
X45720000Y-134620000D03*
D12*
X48260000Y-134620000D03*
X50800000Y-134620000D03*
X53340000Y-134620000D03*
X55880000Y-134620000D03*
X58420000Y-134620000D03*
X60960000Y-134620000D03*
X63500000Y-134620000D03*
X66040000Y-134620000D03*
X68580000Y-134620000D03*
X68580000Y-127000000D03*
X66040000Y-127000000D03*
X63500000Y-127000000D03*
X60960000Y-127000000D03*
X58420000Y-127000000D03*
X55880000Y-127000000D03*
X53340000Y-127000000D03*
X50800000Y-127000000D03*
X48260000Y-127000000D03*
X45720000Y-127000000D03*
%TD*%
D11*
%TO.C,U8*%
X50800000Y-121920000D03*
D12*
X53340000Y-121920000D03*
X55880000Y-121920000D03*
X58420000Y-121920000D03*
X60960000Y-121920000D03*
X63500000Y-121920000D03*
X66040000Y-121920000D03*
X68580000Y-121920000D03*
X68580000Y-114300000D03*
X66040000Y-114300000D03*
X63500000Y-114300000D03*
X60960000Y-114300000D03*
X58420000Y-114300000D03*
X55880000Y-114300000D03*
X53340000Y-114300000D03*
X50800000Y-114300000D03*
%TD*%
D11*
%TO.C,U10*%
X78740000Y-134620000D03*
D12*
X81280000Y-134620000D03*
X83820000Y-134620000D03*
X86360000Y-134620000D03*
X88900000Y-134620000D03*
X91440000Y-134620000D03*
X93980000Y-134620000D03*
X96520000Y-134620000D03*
X96520000Y-127000000D03*
X93980000Y-127000000D03*
X91440000Y-127000000D03*
X88900000Y-127000000D03*
X86360000Y-127000000D03*
X83820000Y-127000000D03*
X81280000Y-127000000D03*
X78740000Y-127000000D03*
%TD*%
D10*
%TO.C,R4*%
X50810000Y-105420000D03*
D12*
X58430000Y-105420000D03*
%TD*%
D10*
%TO.C,C8*%
X40640000Y-128310000D03*
X40640000Y-133310000D03*
%TD*%
D13*
%TO.C,J1*%
X45720000Y-141695000D03*
D14*
X45720000Y-144235000D03*
X48260000Y-141695000D03*
X48260000Y-144235000D03*
X50800000Y-141695000D03*
X50800000Y-144235000D03*
X53340000Y-141695000D03*
X53340000Y-144235000D03*
X55880000Y-141695000D03*
X55880000Y-144235000D03*
X58420000Y-141695000D03*
X58420000Y-144235000D03*
X60960000Y-141695000D03*
X60960000Y-144235000D03*
X63500000Y-141695000D03*
X63500000Y-144235000D03*
X66040000Y-141695000D03*
X66040000Y-144235000D03*
X68580000Y-141695000D03*
X68580000Y-144235000D03*
X71120000Y-141695000D03*
X71120000Y-144235000D03*
X73660000Y-141695000D03*
X73660000Y-144235000D03*
X76200000Y-141695000D03*
X76200000Y-144235000D03*
X78740000Y-141695000D03*
X78740000Y-144235000D03*
X81280000Y-141695000D03*
X81280000Y-144235000D03*
X83820000Y-141695000D03*
X83820000Y-144235000D03*
X86360000Y-141695000D03*
X86360000Y-144235000D03*
X88900000Y-141695000D03*
X88900000Y-144235000D03*
X91440000Y-141695000D03*
X91440000Y-144235000D03*
X93980000Y-141695000D03*
X93980000Y-144235000D03*
%TD*%
D11*
%TO.C,U1*%
X50800000Y-101600000D03*
D12*
X53340000Y-101600000D03*
X55880000Y-101600000D03*
X58420000Y-101600000D03*
X60960000Y-101600000D03*
X63500000Y-101600000D03*
X66040000Y-101600000D03*
X68580000Y-101600000D03*
X68580000Y-93980000D03*
X66040000Y-93980000D03*
X63500000Y-93980000D03*
X60960000Y-93980000D03*
X58420000Y-93980000D03*
X55880000Y-93980000D03*
X53340000Y-93980000D03*
X50800000Y-93980000D03*
%TD*%
D11*
%TO.C,U3*%
X78740000Y-96520000D03*
D12*
X81280000Y-96520000D03*
X83820000Y-96520000D03*
X86360000Y-96520000D03*
X88900000Y-96520000D03*
X91440000Y-96520000D03*
X93980000Y-96520000D03*
X93980000Y-88900000D03*
X91440000Y-88900000D03*
X88900000Y-88900000D03*
X86360000Y-88900000D03*
X83820000Y-88900000D03*
X81280000Y-88900000D03*
X78740000Y-88900000D03*
%TD*%
D15*
%TO.C,D2*%
X38100000Y-93472000D03*
D16*
X38100000Y-90932000D03*
%TD*%
D11*
%TO.C,U7*%
X50800000Y-83820000D03*
D12*
X53340000Y-83820000D03*
X55880000Y-83820000D03*
X58420000Y-83820000D03*
X60960000Y-83820000D03*
X63500000Y-83820000D03*
X66040000Y-83820000D03*
X68580000Y-83820000D03*
X68580000Y-76200000D03*
X66040000Y-76200000D03*
X63500000Y-76200000D03*
X60960000Y-76200000D03*
X58420000Y-76200000D03*
X55880000Y-76200000D03*
X53340000Y-76200000D03*
X50800000Y-76200000D03*
%TD*%
D10*
%TO.C,C13*%
X74930000Y-115610000D03*
X74930000Y-120610000D03*
%TD*%
%TO.C,R2*%
X41910000Y-74417000D03*
D12*
X34290000Y-74417000D03*
%TD*%
D17*
%TO.C,TP2*%
X95811700Y-60325000D03*
%TD*%
D18*
%TO.C,J3*%
X122395000Y-79570000D03*
X102395000Y-79570000D03*
X122395000Y-117570000D03*
X102395000Y-117570000D03*
D13*
X118745000Y-115570000D03*
D14*
X116205000Y-115570000D03*
X113665000Y-115570000D03*
X111125000Y-115570000D03*
X108585000Y-115570000D03*
X106045000Y-115570000D03*
%TD*%
D17*
%TO.C,TP5*%
X50800000Y-68580000D03*
%TD*%
D10*
%TO.C,C10*%
X74930000Y-77510000D03*
X74930000Y-82510000D03*
%TD*%
%TO.C,C7*%
X40600000Y-97825000D03*
X35600000Y-97825000D03*
%TD*%
D11*
%TO.C,X1*%
X41910000Y-119380000D03*
D10*
X41910000Y-104140000D03*
X34290000Y-104140000D03*
X34290000Y-119380000D03*
%TD*%
D17*
%TO.C,TP6*%
X65405000Y-68580000D03*
%TD*%
D10*
%TO.C,C2*%
X62240000Y-90180000D03*
X67240000Y-90180000D03*
%TD*%
%TO.C,C1*%
X55930000Y-90220000D03*
X50930000Y-90220000D03*
%TD*%
D11*
%TO.C,U4*%
X78740000Y-109220000D03*
D12*
X81280000Y-109220000D03*
X83820000Y-109220000D03*
X86360000Y-109220000D03*
X88900000Y-109220000D03*
X91440000Y-109220000D03*
X93980000Y-109220000D03*
X93980000Y-101600000D03*
X91440000Y-101600000D03*
X88900000Y-101600000D03*
X86360000Y-101600000D03*
X83820000Y-101600000D03*
X81280000Y-101600000D03*
X78740000Y-101600000D03*
%TD*%
D10*
%TO.C,C6*%
X46990000Y-115610000D03*
X46990000Y-120610000D03*
%TD*%
D17*
%TO.C,TP7*%
X80645000Y-68580000D03*
%TD*%
D10*
%TO.C,C3*%
X74295000Y-128310000D03*
X74295000Y-133310000D03*
%TD*%
D15*
%TO.C,D1*%
X38100000Y-81280000D03*
D16*
X38100000Y-78740000D03*
%TD*%
D10*
%TO.C,C11*%
X74930000Y-90210000D03*
X74930000Y-95210000D03*
%TD*%
D17*
%TO.C,TP3*%
X50726700Y-60325000D03*
%TD*%
D10*
%TO.C,C5*%
X46990000Y-95290000D03*
X46990000Y-100290000D03*
%TD*%
D17*
%TO.C,TP8*%
X95885000Y-68580000D03*
%TD*%
%TO.C,TP1*%
X80645000Y-60325000D03*
%TD*%
%TO.C,TP4*%
X65405000Y-60325000D03*
%TD*%
D11*
%TO.C,U5*%
X78740000Y-83820000D03*
D12*
X81280000Y-83820000D03*
X83820000Y-83820000D03*
X86360000Y-83820000D03*
X88900000Y-83820000D03*
X91440000Y-83820000D03*
X93980000Y-83820000D03*
X96520000Y-83820000D03*
X96520000Y-76200000D03*
X93980000Y-76200000D03*
X91440000Y-76200000D03*
X88900000Y-76200000D03*
X86360000Y-76200000D03*
X83820000Y-76200000D03*
X81280000Y-76200000D03*
X78740000Y-76200000D03*
%TD*%
D10*
%TO.C,C9*%
X46990000Y-77510000D03*
X46990000Y-82510000D03*
%TD*%
%TO.C,R1*%
X58420000Y-109220000D03*
D12*
X50800000Y-109220000D03*
%TD*%
D11*
%TO.C,U6*%
X78740000Y-121920000D03*
D12*
X81280000Y-121920000D03*
X83820000Y-121920000D03*
X86360000Y-121920000D03*
X88900000Y-121920000D03*
X91440000Y-121920000D03*
X93980000Y-121920000D03*
X93980000Y-114300000D03*
X91440000Y-114300000D03*
X88900000Y-114300000D03*
X86360000Y-114300000D03*
X83820000Y-114300000D03*
X81280000Y-114300000D03*
X78740000Y-114300000D03*
%TD*%
D10*
%TO.C,R3*%
X41910000Y-86609000D03*
D12*
X34290000Y-86609000D03*
%TD*%
D10*
%TO.C,R5*%
X60970000Y-105420000D03*
D12*
X68590000Y-105420000D03*
%TD*%
M02*
