M48
; DRILL file {KiCad 8.0.2} date 2025-01-25T14:55:07+0100
; FORMAT={-:-/ absolute / inch / decimal}
; #@! TF.CreationDate,2025-01-25T14:55:07+01:00
; #@! TF.GenerationSoftware,Kicad,Pcbnew,8.0.2
; #@! TF.FileFunction,Plated,1,2,PTH
FMAT,2
INCH
; #@! TA.AperFunction,Plated,PTH,ViaDrill
T1C0.0157
; #@! TA.AperFunction,Plated,PTH,ComponentDrill
T2C0.0315
; #@! TA.AperFunction,Plated,PTH,ComponentDrill
T3C0.0354
; #@! TA.AperFunction,Plated,PTH,ComponentDrill
T4C0.0394
; #@! TA.AperFunction,Plated,PTH,ComponentDrill
T5C0.0472
%
G90
G05
T1
X1.7263Y-3.7682
X2.5431Y-3.4
X2.5738Y-3.1248
X2.66Y-3.46
X2.9255Y-5.4193
X3.1443Y-4.7
X3.7469Y-4.3774
X3.9305Y-4.5034
T2
X1.35Y-2.9298
X1.35Y-3.4098
X1.35Y-4.1
X1.35Y-4.7
X1.4016Y-3.8514
X1.4031Y-2.7498
X1.5984Y-3.8514
X1.6Y-2.7498
X1.6Y-5.0516
X1.6Y-5.2484
X1.65Y-2.9298
X1.65Y-3.4098
X1.65Y-4.1
X1.65Y-4.7
X1.8Y-5.0
X1.8Y-5.3
X1.85Y-3.0516
X1.85Y-3.2484
X1.85Y-3.7516
X1.85Y-3.9484
X1.85Y-4.5516
X1.85Y-4.7484
X1.9Y-5.0
X1.9Y-5.3
X2.0Y-3.0
X2.0Y-3.3
X2.0Y-3.7
X2.0Y-4.0
X2.0Y-4.3
X2.0Y-4.5
X2.0Y-4.8
X2.0Y-5.0
X2.0Y-5.3
X2.0004Y-4.1504
X2.0051Y-3.552
X2.1Y-3.0
X2.1Y-3.3
X2.1Y-3.7
X2.1Y-4.0
X2.1Y-4.5
X2.1Y-4.8
X2.1Y-5.0
X2.1Y-5.3
X2.2Y-3.0
X2.2Y-3.3
X2.2Y-3.7
X2.2Y-4.0
X2.2Y-4.5
X2.2Y-4.8
X2.2Y-5.0
X2.2Y-5.3
X2.202Y-3.552
X2.3Y-3.0
X2.3Y-3.3
X2.3Y-3.7
X2.3Y-4.0
X2.3Y-4.3
X2.3Y-4.5
X2.3Y-4.8
X2.3Y-5.0
X2.3Y-5.3
X2.3004Y-4.1504
X2.4Y-3.0
X2.4Y-3.3
X2.4Y-3.7
X2.4Y-4.0
X2.4Y-4.5
X2.4Y-4.8
X2.4Y-5.0
X2.4Y-5.3
X2.4004Y-4.1504
X2.4504Y-3.5504
X2.5Y-3.0
X2.5Y-3.3
X2.5Y-3.7
X2.5Y-4.0
X2.5Y-4.5
X2.5Y-4.8
X2.5Y-5.0
X2.5Y-5.3
X2.6Y-3.0
X2.6Y-3.3
X2.6Y-3.7
X2.6Y-4.0
X2.6Y-4.5
X2.6Y-4.8
X2.6Y-5.0
X2.6Y-5.3
X2.6472Y-3.5504
X2.7Y-3.0
X2.7Y-3.3
X2.7Y-3.7
X2.7Y-4.0
X2.7Y-4.5
X2.7Y-4.8
X2.7Y-5.0
X2.7Y-5.3
X2.7004Y-4.1504
X2.925Y-5.0516
X2.925Y-5.2484
X2.95Y-3.0516
X2.95Y-3.2484
X2.95Y-3.5516
X2.95Y-3.7484
X2.95Y-4.0516
X2.95Y-4.2484
X2.95Y-4.5516
X2.95Y-4.7484
X3.1Y-3.0
X3.1Y-3.3
X3.1Y-3.5
X3.1Y-3.8
X3.1Y-4.0
X3.1Y-4.3
X3.1Y-4.5
X3.1Y-4.8
X3.1Y-5.0
X3.1Y-5.3
X3.2Y-3.0
X3.2Y-3.3
X3.2Y-3.5
X3.2Y-3.8
X3.2Y-4.0
X3.2Y-4.3
X3.2Y-4.5
X3.2Y-4.8
X3.2Y-5.0
X3.2Y-5.3
X3.3Y-3.0
X3.3Y-3.3
X3.3Y-3.5
X3.3Y-3.8
X3.3Y-4.0
X3.3Y-4.3
X3.3Y-4.5
X3.3Y-4.8
X3.3Y-5.0
X3.3Y-5.3
X3.4Y-3.0
X3.4Y-3.3
X3.4Y-3.5
X3.4Y-3.8
X3.4Y-4.0
X3.4Y-4.3
X3.4Y-4.5
X3.4Y-4.8
X3.4Y-5.0
X3.4Y-5.3
X3.5Y-3.0
X3.5Y-3.3
X3.5Y-3.5
X3.5Y-3.8
X3.5Y-4.0
X3.5Y-4.3
X3.5Y-4.5
X3.5Y-4.8
X3.5Y-5.0
X3.5Y-5.3
X3.6Y-3.0
X3.6Y-3.3
X3.6Y-3.5
X3.6Y-3.8
X3.6Y-4.0
X3.6Y-4.3
X3.6Y-4.5
X3.6Y-4.8
X3.6Y-5.0
X3.6Y-5.3
X3.7Y-3.0
X3.7Y-3.3
X3.7Y-3.5
X3.7Y-3.8
X3.7Y-4.0
X3.7Y-4.3
X3.7Y-4.5
X3.7Y-4.8
X3.7Y-5.0
X3.7Y-5.3
X3.8Y-3.0
X3.8Y-3.3
X3.8Y-5.0
X3.8Y-5.3
T3
X1.5Y-3.1
X1.5Y-3.2
X1.5Y-3.58
X1.5Y-3.68
T4
X1.8Y-5.5785
X1.8Y-5.6785
X1.9Y-5.5785
X1.9Y-5.6785
X2.0Y-5.5785
X2.0Y-5.6785
X2.1Y-5.5785
X2.1Y-5.6785
X2.2Y-5.5785
X2.2Y-5.6785
X2.3Y-5.5785
X2.3Y-5.6785
X2.4Y-5.5785
X2.4Y-5.6785
X2.5Y-5.5785
X2.5Y-5.6785
X2.6Y-5.5785
X2.6Y-5.6785
X2.7Y-5.5785
X2.7Y-5.6785
X2.8Y-5.5785
X2.8Y-5.6785
X2.9Y-5.5785
X2.9Y-5.6785
X3.0Y-5.5785
X3.0Y-5.6785
X3.1Y-5.5785
X3.1Y-5.6785
X3.2Y-5.5785
X3.2Y-5.6785
X3.3Y-5.5785
X3.3Y-5.6785
X3.4Y-5.5785
X3.4Y-5.6785
X3.5Y-5.5785
X3.5Y-5.6785
X3.6Y-5.5785
X3.6Y-5.6785
X3.7Y-5.5785
X3.7Y-5.6785
X4.175Y-4.55
X4.275Y-4.55
X4.375Y-4.55
X4.475Y-4.55
X4.575Y-4.55
X4.675Y-4.55
T5
X1.9971Y-2.375
X2.0Y-2.7
X2.575Y-2.375
X2.575Y-2.7
X3.175Y-2.375
X3.175Y-2.7
X3.7721Y-2.375
X3.775Y-2.7
M30
