%TF.GenerationSoftware,KiCad,Pcbnew,8.0.2*%
%TF.CreationDate,2025-01-11T19:36:36+01:00*%
%TF.ProjectId,bytecradle-6502-expansion-board,62797465-6372-4616-946c-652d36353032,rev?*%
%TF.SameCoordinates,Original*%
%TF.FileFunction,Soldermask,Bot*%
%TF.FilePolarity,Negative*%
%FSLAX46Y46*%
G04 Gerber Fmt 4.6, Leading zero omitted, Abs format (unit mm)*
G04 Created by KiCad (PCBNEW 8.0.2) date 2025-01-11 19:36:36*
%MOMM*%
%LPD*%
G01*
G04 APERTURE LIST*
G04 Aperture macros list*
%AMRoundRect*
0 Rectangle with rounded corners*
0 $1 Rounding radius*
0 $2 $3 $4 $5 $6 $7 $8 $9 X,Y pos of 4 corners*
0 Add a 4 corners polygon primitive as box body*
4,1,4,$2,$3,$4,$5,$6,$7,$8,$9,$2,$3,0*
0 Add four circle primitives for the rounded corners*
1,1,$1+$1,$2,$3*
1,1,$1+$1,$4,$5*
1,1,$1+$1,$6,$7*
1,1,$1+$1,$8,$9*
0 Add four rect primitives between the rounded corners*
20,1,$1+$1,$2,$3,$4,$5,0*
20,1,$1+$1,$4,$5,$6,$7,0*
20,1,$1+$1,$6,$7,$8,$9,0*
20,1,$1+$1,$8,$9,$2,$3,0*%
G04 Aperture macros list end*
%ADD10R,1.600000X1.600000*%
%ADD11O,1.600000X1.600000*%
%ADD12R,2.032000X2.032000*%
%ADD13C,2.032000*%
%ADD14R,1.800000X8.000000*%
%ADD15RoundRect,0.150000X-0.150000X0.875000X-0.150000X-0.875000X0.150000X-0.875000X0.150000X0.875000X0*%
G04 APERTURE END LIST*
D10*
%TO.C,RN6*%
X122174000Y-84328000D03*
D11*
X124714000Y-84328000D03*
X127254000Y-84328000D03*
X129794000Y-84328000D03*
X132334000Y-84328000D03*
X134874000Y-84328000D03*
X137414000Y-84328000D03*
X139954000Y-84328000D03*
X142494000Y-84328000D03*
%TD*%
D10*
%TO.C,RN5*%
X75291500Y-58420000D03*
D11*
X75291500Y-60960000D03*
X75291500Y-63500000D03*
X75291500Y-66040000D03*
X75291500Y-68580000D03*
X75291500Y-71120000D03*
X75291500Y-73660000D03*
X75291500Y-76200000D03*
X75291500Y-78740000D03*
%TD*%
D10*
%TO.C,RN4*%
X54463500Y-58420000D03*
D11*
X54463500Y-60960000D03*
X54463500Y-63500000D03*
X54463500Y-66040000D03*
X54463500Y-68580000D03*
X54463500Y-71120000D03*
X54463500Y-73660000D03*
X54463500Y-76200000D03*
X54463500Y-78740000D03*
%TD*%
D10*
%TO.C,RN3*%
X94996000Y-84328000D03*
D11*
X97536000Y-84328000D03*
X100076000Y-84328000D03*
X102616000Y-84328000D03*
X105156000Y-84328000D03*
X107696000Y-84328000D03*
X110236000Y-84328000D03*
X112776000Y-84328000D03*
X115316000Y-84328000D03*
%TD*%
D10*
%TO.C,RN2*%
X122174000Y-66548000D03*
D11*
X124714000Y-66548000D03*
X127254000Y-66548000D03*
X129794000Y-66548000D03*
X132334000Y-66548000D03*
X134874000Y-66548000D03*
X137414000Y-66548000D03*
X139954000Y-66548000D03*
X142494000Y-66548000D03*
%TD*%
D10*
%TO.C,RN1*%
X94996000Y-66548000D03*
D11*
X97536000Y-66548000D03*
X100076000Y-66548000D03*
X102616000Y-66548000D03*
X105156000Y-66548000D03*
X107696000Y-66548000D03*
X110236000Y-66548000D03*
X112776000Y-66548000D03*
X115316000Y-66548000D03*
%TD*%
D12*
%TO.C,BAR6*%
X124714000Y-72644000D03*
D13*
X127254000Y-72644000D03*
X129794000Y-72644000D03*
X132334000Y-72644000D03*
X134874000Y-72644000D03*
X137414000Y-72644000D03*
X139954000Y-72644000D03*
X142494000Y-72644000D03*
X142494000Y-80264000D03*
X139954000Y-80264000D03*
X137414000Y-80264000D03*
X134874000Y-80264000D03*
X132334000Y-80264000D03*
X129794000Y-80264000D03*
X127254000Y-80264000D03*
X124714000Y-80264000D03*
%TD*%
D12*
%TO.C,BAR5*%
X86614000Y-60960000D03*
D13*
X86614000Y-63500000D03*
X86614000Y-66040000D03*
X86614000Y-68580000D03*
X86614000Y-71120000D03*
X86614000Y-73660000D03*
X86614000Y-76200000D03*
X86614000Y-78740000D03*
X78994000Y-78740000D03*
X78994000Y-76200000D03*
X78994000Y-73660000D03*
X78994000Y-71120000D03*
X78994000Y-68580000D03*
X78994000Y-66040000D03*
X78994000Y-63500000D03*
X78994000Y-60960000D03*
%TD*%
D12*
%TO.C,BAR4*%
X66548000Y-60960000D03*
D13*
X66548000Y-63500000D03*
X66548000Y-66040000D03*
X66548000Y-68580000D03*
X66548000Y-71120000D03*
X66548000Y-73660000D03*
X66548000Y-76200000D03*
X66548000Y-78740000D03*
X58928000Y-78740000D03*
X58928000Y-76200000D03*
X58928000Y-73660000D03*
X58928000Y-71120000D03*
X58928000Y-68580000D03*
X58928000Y-66040000D03*
X58928000Y-63500000D03*
X58928000Y-60960000D03*
%TD*%
D12*
%TO.C,BAR3*%
X97536000Y-72644000D03*
D13*
X100076000Y-72644000D03*
X102616000Y-72644000D03*
X105156000Y-72644000D03*
X107696000Y-72644000D03*
X110236000Y-72644000D03*
X112776000Y-72644000D03*
X115316000Y-72644000D03*
X115316000Y-80264000D03*
X112776000Y-80264000D03*
X110236000Y-80264000D03*
X107696000Y-80264000D03*
X105156000Y-80264000D03*
X102616000Y-80264000D03*
X100076000Y-80264000D03*
X97536000Y-80264000D03*
%TD*%
D12*
%TO.C,BAR2*%
X124714000Y-55118000D03*
D13*
X127254000Y-55118000D03*
X129794000Y-55118000D03*
X132334000Y-55118000D03*
X134874000Y-55118000D03*
X137414000Y-55118000D03*
X139954000Y-55118000D03*
X142494000Y-55118000D03*
X142494000Y-62738000D03*
X139954000Y-62738000D03*
X137414000Y-62738000D03*
X134874000Y-62738000D03*
X132334000Y-62738000D03*
X129794000Y-62738000D03*
X127254000Y-62738000D03*
X124714000Y-62738000D03*
%TD*%
D12*
%TO.C,BAR1*%
X97536000Y-55118000D03*
D13*
X100076000Y-55118000D03*
X102616000Y-55118000D03*
X105156000Y-55118000D03*
X107696000Y-55118000D03*
X110236000Y-55118000D03*
X112776000Y-55118000D03*
X115316000Y-55118000D03*
X115316000Y-62738000D03*
X112776000Y-62738000D03*
X110236000Y-62738000D03*
X107696000Y-62738000D03*
X105156000Y-62738000D03*
X102616000Y-62738000D03*
X100076000Y-62738000D03*
X97536000Y-62738000D03*
%TD*%
D14*
%TO.C,J1*%
X132785000Y-114427000D03*
X130245000Y-114427000D03*
X127705000Y-114427000D03*
X125165000Y-114427000D03*
X122625000Y-114427000D03*
X120085000Y-114427000D03*
X117545000Y-114427000D03*
X115005000Y-114427000D03*
X112465000Y-114427000D03*
X109925000Y-114427000D03*
X107385000Y-114427000D03*
X104845000Y-114427000D03*
X102305000Y-114427000D03*
X99765000Y-114427000D03*
X97225000Y-114427000D03*
X94685000Y-114427000D03*
X92145000Y-114427000D03*
X89605000Y-114427000D03*
X87065000Y-114427000D03*
X84525000Y-114427000D03*
X81985000Y-114427000D03*
X79445000Y-114427000D03*
X76905000Y-114427000D03*
X74365000Y-114427000D03*
X71825000Y-114427000D03*
X69285000Y-114427000D03*
X66745000Y-114427000D03*
X64205000Y-114427000D03*
X61665000Y-114427000D03*
X59125000Y-114427000D03*
%TD*%
D15*
%TO.C,U4*%
X62738000Y-91284000D03*
X64008000Y-91284000D03*
X65278000Y-91284000D03*
X66548000Y-91284000D03*
X67818000Y-91284000D03*
X69088000Y-91284000D03*
X70358000Y-91284000D03*
X71628000Y-91284000D03*
X72898000Y-91284000D03*
X74168000Y-91284000D03*
X74168000Y-100584000D03*
X72898000Y-100584000D03*
X71628000Y-100584000D03*
X70358000Y-100584000D03*
X69088000Y-100584000D03*
X67818000Y-100584000D03*
X66548000Y-100584000D03*
X65278000Y-100584000D03*
X64008000Y-100584000D03*
X62738000Y-100584000D03*
%TD*%
%TO.C,U6*%
X134366000Y-91284000D03*
X135636000Y-91284000D03*
X136906000Y-91284000D03*
X138176000Y-91284000D03*
X139446000Y-91284000D03*
X140716000Y-91284000D03*
X141986000Y-91284000D03*
X143256000Y-91284000D03*
X144526000Y-91284000D03*
X145796000Y-91284000D03*
X145796000Y-100584000D03*
X144526000Y-100584000D03*
X143256000Y-100584000D03*
X141986000Y-100584000D03*
X140716000Y-100584000D03*
X139446000Y-100584000D03*
X138176000Y-100584000D03*
X136906000Y-100584000D03*
X135636000Y-100584000D03*
X134366000Y-100584000D03*
%TD*%
%TO.C,U5*%
X98552000Y-91284000D03*
X99822000Y-91284000D03*
X101092000Y-91284000D03*
X102362000Y-91284000D03*
X103632000Y-91284000D03*
X104902000Y-91284000D03*
X106172000Y-91284000D03*
X107442000Y-91284000D03*
X108712000Y-91284000D03*
X109982000Y-91284000D03*
X109982000Y-100584000D03*
X108712000Y-100584000D03*
X107442000Y-100584000D03*
X106172000Y-100584000D03*
X104902000Y-100584000D03*
X103632000Y-100584000D03*
X102362000Y-100584000D03*
X101092000Y-100584000D03*
X99822000Y-100584000D03*
X98552000Y-100584000D03*
%TD*%
%TO.C,U2*%
X44831000Y-91284000D03*
X46101000Y-91284000D03*
X47371000Y-91284000D03*
X48641000Y-91284000D03*
X49911000Y-91284000D03*
X51181000Y-91284000D03*
X52451000Y-91284000D03*
X53721000Y-91284000D03*
X54991000Y-91284000D03*
X56261000Y-91284000D03*
X56261000Y-100584000D03*
X54991000Y-100584000D03*
X53721000Y-100584000D03*
X52451000Y-100584000D03*
X51181000Y-100584000D03*
X49911000Y-100584000D03*
X48641000Y-100584000D03*
X47371000Y-100584000D03*
X46101000Y-100584000D03*
X44831000Y-100584000D03*
%TD*%
%TO.C,U1*%
X116459000Y-91284000D03*
X117729000Y-91284000D03*
X118999000Y-91284000D03*
X120269000Y-91284000D03*
X121539000Y-91284000D03*
X122809000Y-91284000D03*
X124079000Y-91284000D03*
X125349000Y-91284000D03*
X126619000Y-91284000D03*
X127889000Y-91284000D03*
X127889000Y-100584000D03*
X126619000Y-100584000D03*
X125349000Y-100584000D03*
X124079000Y-100584000D03*
X122809000Y-100584000D03*
X121539000Y-100584000D03*
X120269000Y-100584000D03*
X118999000Y-100584000D03*
X117729000Y-100584000D03*
X116459000Y-100584000D03*
%TD*%
%TO.C,U3*%
X80645000Y-91284000D03*
X81915000Y-91284000D03*
X83185000Y-91284000D03*
X84455000Y-91284000D03*
X85725000Y-91284000D03*
X86995000Y-91284000D03*
X88265000Y-91284000D03*
X89535000Y-91284000D03*
X90805000Y-91284000D03*
X92075000Y-91284000D03*
X92075000Y-100584000D03*
X90805000Y-100584000D03*
X89535000Y-100584000D03*
X88265000Y-100584000D03*
X86995000Y-100584000D03*
X85725000Y-100584000D03*
X84455000Y-100584000D03*
X83185000Y-100584000D03*
X81915000Y-100584000D03*
X80645000Y-100584000D03*
%TD*%
M02*
