M48
; DRILL file {KiCad 8.0.2} date 2025-01-11T19:36:37+0100
; FORMAT={-:-/ absolute / inch / decimal}
; #@! TF.CreationDate,2025-01-11T19:36:37+01:00
; #@! TF.GenerationSoftware,Kicad,Pcbnew,8.0.2
; #@! TF.FileFunction,Plated,1,2,PTH
FMAT,2
INCH
; #@! TA.AperFunction,Plated,PTH,ViaDrill
T1C0.0118
; #@! TA.AperFunction,Plated,PTH,ComponentDrill
T2C0.0315
; #@! TA.AperFunction,Plated,PTH,ComponentDrill
T3C0.0360
%
G90
G05
T1
X1.7886Y-3.47
X1.8353Y-3.7661
X1.8662Y-3.7982
X1.9163Y-3.7243
X1.9444Y-3.4463
X1.9661Y-3.6826
X2.1434Y-3.7513
X2.145Y-2.09
X2.1739Y-3.7208
X2.1962Y-3.6985
X2.215Y-3.48
X2.2182Y-3.6759
X2.2595Y-2.3033
X2.3287Y-2.2567
X2.379Y-3.5991
X2.3968Y-2.0944
X2.4139Y-3.5089
X2.4209Y-3.5734
X2.5439Y-3.47
X2.6074Y-2.2252
X2.6213Y-3.8904
X2.6375Y-2.1976
X2.6705Y-2.1631
X2.7224Y-3.6647
X2.7408Y-2.1371
X2.7734Y-4.1535
X2.8298Y-3.83
X2.925Y-3.525
X2.965Y-2.0886
X3.1136Y-3.1616
X3.2187Y-3.8998
X3.2212Y-3.0886
X3.2788Y-3.8993
X3.29Y-3.2799
X3.3189Y-3.8996
X3.3278Y-4.0491
X3.3424Y-2.9011
X3.3782Y-4.0678
X3.437Y-3.8624
X3.4562Y-4.0587
X3.475Y-3.7964
X3.4961Y-2.1918
X3.4991Y-4.0153
X3.5359Y-2.2442
X3.5359Y-2.2105
X3.5391Y-4.0586
X3.625Y-3.4836
X3.6894Y-4.1829
X3.74Y-2.0736
X3.8191Y-3.6727
X3.8621Y-2.3988
X3.9054Y-3.53
X3.9295Y-3.6543
X3.9379Y-3.4358
X3.9787Y-3.7508
X4.016Y-3.4132
X4.0415Y-3.3886
X4.0689Y-3.3646
X4.08Y-3.7258
X4.2172Y-3.8889
X4.2524Y-3.4595
X4.3193Y-3.7746
X4.3271Y-3.8204
X4.3284Y-3.8745
X4.33Y-3.49
X4.4798Y-3.5787
X4.5035Y-3.5235
X4.5269Y-4.1846
X4.6087Y-3.8548
X4.6167Y-3.6829
X4.6654Y-3.6723
X4.7011Y-3.8667
X4.7855Y-2.9956
X4.81Y-2.075
X4.8199Y-3.8991
X4.8613Y-4.0206
X4.9136Y-2.9716
X4.9667Y-3.2793
X4.9829Y-4.0206
X4.9995Y-3.3713
X5.035Y-3.495
X5.1812Y-4.0706
X5.2319Y-3.6857
X5.2484Y-4.022
X5.2633Y-3.8153
X5.2637Y-3.754
X5.266Y-3.8468
X5.3137Y-3.754
X5.314Y-3.8194
X5.3143Y-3.6857
X5.3158Y-4.0587
X5.34Y-4.135
X5.3455Y-3.8468
X5.4038Y-3.7852
X5.4164Y-3.8653
X5.4407Y-3.47
X5.4747Y-3.7819
X5.5362Y-3.7452
X5.5638Y-3.8108
X5.652Y-3.47
X5.725Y-3.47
X5.74Y-3.5
X5.7731Y-3.4598
X5.7853Y-3.4188
X5.7875Y-3.0972
T2
X2.1442Y-2.3
X2.1442Y-2.4
X2.1442Y-2.5
X2.1442Y-2.6
X2.1442Y-2.7
X2.1442Y-2.8
X2.1442Y-2.9
X2.1442Y-3.0
X2.1442Y-3.1
X2.9642Y-2.3
X2.9642Y-2.4
X2.9642Y-2.5
X2.9642Y-2.6
X2.9642Y-2.7
X2.9642Y-2.8
X2.9642Y-2.9
X2.9642Y-3.0
X2.9642Y-3.1
X3.74Y-2.62
X3.74Y-3.32
X3.84Y-2.62
X3.84Y-3.32
X3.94Y-2.62
X3.94Y-3.32
X4.04Y-2.62
X4.04Y-3.32
X4.14Y-2.62
X4.14Y-3.32
X4.24Y-2.62
X4.24Y-3.32
X4.34Y-2.62
X4.34Y-3.32
X4.44Y-2.62
X4.44Y-3.32
X4.54Y-2.62
X4.54Y-3.32
X4.81Y-2.62
X4.81Y-3.32
X4.91Y-2.62
X4.91Y-3.32
X5.01Y-2.62
X5.01Y-3.32
X5.11Y-2.62
X5.11Y-3.32
X5.21Y-2.62
X5.21Y-3.32
X5.31Y-2.62
X5.31Y-3.32
X5.41Y-2.62
X5.41Y-3.32
X5.51Y-2.62
X5.51Y-3.32
X5.61Y-2.62
X5.61Y-3.32
T3
X2.32Y-2.4
X2.32Y-2.5
X2.32Y-2.6
X2.32Y-2.7
X2.32Y-2.8
X2.32Y-2.9
X2.32Y-3.0
X2.32Y-3.1
X2.62Y-2.4
X2.62Y-2.5
X2.62Y-2.6
X2.62Y-2.7
X2.62Y-2.8
X2.62Y-2.9
X2.62Y-3.0
X2.62Y-3.1
X3.11Y-2.4
X3.11Y-2.5
X3.11Y-2.6
X3.11Y-2.7
X3.11Y-2.8
X3.11Y-2.9
X3.11Y-3.0
X3.11Y-3.1
X3.41Y-2.4
X3.41Y-2.5
X3.41Y-2.6
X3.41Y-2.7
X3.41Y-2.8
X3.41Y-2.9
X3.41Y-3.0
X3.41Y-3.1
X3.84Y-2.17
X3.84Y-2.47
X3.84Y-2.86
X3.84Y-3.16
X3.94Y-2.17
X3.94Y-2.47
X3.94Y-2.86
X3.94Y-3.16
X4.04Y-2.17
X4.04Y-2.47
X4.04Y-2.86
X4.04Y-3.16
X4.14Y-2.17
X4.14Y-2.47
X4.14Y-2.86
X4.14Y-3.16
X4.24Y-2.17
X4.24Y-2.47
X4.24Y-2.86
X4.24Y-3.16
X4.34Y-2.17
X4.34Y-2.47
X4.34Y-2.86
X4.34Y-3.16
X4.44Y-2.17
X4.44Y-2.47
X4.44Y-2.86
X4.44Y-3.16
X4.54Y-2.17
X4.54Y-2.47
X4.54Y-2.86
X4.54Y-3.16
X4.91Y-2.17
X4.91Y-2.47
X4.91Y-2.86
X4.91Y-3.16
X5.01Y-2.17
X5.01Y-2.47
X5.01Y-2.86
X5.01Y-3.16
X5.11Y-2.17
X5.11Y-2.47
X5.11Y-2.86
X5.11Y-3.16
X5.21Y-2.17
X5.21Y-2.47
X5.21Y-2.86
X5.21Y-3.16
X5.31Y-2.17
X5.31Y-2.47
X5.31Y-2.86
X5.31Y-3.16
X5.41Y-2.17
X5.41Y-2.47
X5.41Y-2.86
X5.41Y-3.16
X5.51Y-2.17
X5.51Y-2.47
X5.51Y-2.86
X5.51Y-3.16
X5.61Y-2.17
X5.61Y-2.47
X5.61Y-2.86
X5.61Y-3.16
M30
