M48
; DRILL file {KiCad 8.0.2} date 2025-02-07T22:28:51+0100
; FORMAT={-:-/ absolute / inch / decimal}
; #@! TF.CreationDate,2025-02-07T22:28:51+01:00
; #@! TF.GenerationSoftware,Kicad,Pcbnew,8.0.2
; #@! TF.FileFunction,Plated,1,2,PTH
FMAT,2
INCH
; #@! TA.AperFunction,Plated,PTH,ViaDrill
T1C0.0118
; #@! TA.AperFunction,Plated,PTH,ComponentDrill
T2C0.0315
; #@! TA.AperFunction,Plated,PTH,ComponentDrill
T3C0.0362
; #@! TA.AperFunction,Plated,PTH,ComponentDrill
T4C0.0394
; #@! TA.AperFunction,Plated,PTH,ComponentDrill
T5C0.0433
; #@! TA.AperFunction,Plated,PTH,ComponentDrill
T6C0.0906
; #@! TA.AperFunction,Plated,PTH,ComponentDrill
T7C0.1260
%
G90
G05
T1
X4.6Y-1.9
T2
X4.35Y-2.0094
X4.35Y-2.1079
X4.9Y-2.55
X4.9Y-2.7594
X4.9Y-2.9
X4.9Y-3.1406
X4.9Y-3.3
X5.1Y-1.95
X5.1Y-2.25
X5.2Y-2.55
X5.2Y-2.7594
X5.2Y-2.9
X5.2Y-3.1406
X5.2Y-3.3
X5.25Y-1.95
X5.25Y-2.25
X5.4502Y-2.54
X5.4502Y-3.14
X5.5Y-2.0
X5.5Y-2.1969
X5.5502Y-2.54
X5.5502Y-3.14
X5.6Y-3.3
X5.6Y-3.6
X5.6496Y-1.9613
X5.6496Y-2.2613
X5.6502Y-2.54
X5.6502Y-3.14
X5.7496Y-1.9613
X5.7496Y-2.2613
X5.7502Y-2.54
X5.7502Y-3.14
X5.8496Y-1.9613
X5.8496Y-2.2613
X5.8502Y-2.54
X5.8502Y-3.14
X5.9496Y-1.9613
X5.9496Y-2.2613
X5.9502Y-2.54
X5.9502Y-3.14
X6.0502Y-2.54
X6.0502Y-3.14
X6.1502Y-2.54
X6.1502Y-3.14
X6.25Y-1.75
X6.2502Y-2.54
X6.2502Y-3.14
X6.3Y-3.3
X6.3016Y-2.0
X6.3079Y-2.3
X6.3502Y-2.54
X6.3502Y-3.14
X6.45Y-3.55
X6.4502Y-2.54
X6.4502Y-3.14
X6.4969Y-3.3
X6.4984Y-2.0
X6.5Y-2.3
X6.55Y-1.75
X6.5502Y-2.54
X6.5502Y-3.14
X6.6502Y-2.54
X6.6502Y-3.14
X6.75Y-3.55
X6.7502Y-2.54
X6.7502Y-3.14
X6.8Y-1.95
X6.8Y-2.25
X6.8502Y-2.54
X6.8502Y-3.14
X6.95Y-1.95
X6.95Y-2.25
X6.95Y-3.55
X6.9502Y-2.54
X6.9502Y-3.14
X7.0502Y-2.54
X7.0502Y-3.14
X7.1Y-1.95
X7.1Y-2.25
X7.1502Y-2.54
X7.1502Y-3.14
X7.25Y-1.95
X7.25Y-2.25
X7.25Y-3.55
X7.2502Y-2.54
X7.2502Y-3.14
X7.3502Y-2.54
X7.3502Y-3.14
X7.4Y-1.95
X7.4Y-2.25
X7.55Y-1.95
X7.55Y-2.25
X8.0Y-2.35
X8.0Y-2.5
X8.0Y-2.65
X8.0Y-2.8094
X8.0Y-2.95
X8.3Y-2.35
X8.3Y-2.5
X8.3Y-2.65
X8.3Y-2.8094
X8.3Y-2.95
T3
X4.6358Y-2.7122
X4.6358Y-2.8106
X4.6358Y-2.8894
X4.6358Y-2.9878
T4
X5.45Y-1.75
X5.55Y-1.75
X5.65Y-1.75
X5.75Y-1.75
X5.85Y-1.75
X6.7Y-3.3
X6.8Y-3.3
X6.9Y-3.3
X7.0Y-3.3
X7.5508Y-3.35
X7.85Y-3.35
X8.6Y-2.6429
X8.6Y-2.7327
X8.6Y-2.8224
X8.6Y-2.9122
X8.6Y-3.002
X8.7Y-2.598
X8.7Y-2.6878
X8.7Y-2.7776
X8.7Y-2.8673
X8.7Y-2.9571
X8.8Y-2.6429
X8.8Y-2.7327
X8.8Y-2.8224
X8.8Y-2.9122
X8.8Y-3.002
T5
X5.822Y-3.3614
X5.822Y-3.5386
X6.078Y-3.3614
X6.078Y-3.5386
T6
X4.5291Y-2.5913
X4.5291Y-3.1087
T7
X8.7Y-2.3079
X8.7Y-3.2921
M30
