%TF.GenerationSoftware,KiCad,Pcbnew,8.0.2*%
%TF.CreationDate,2025-02-23T18:43:33+01:00*%
%TF.ProjectId,propeller-40k-testhat,70726f70-656c-46c6-9572-2d34306b2d74,0*%
%TF.SameCoordinates,Original*%
%TF.FileFunction,Copper,L2,Bot*%
%TF.FilePolarity,Positive*%
%FSLAX46Y46*%
G04 Gerber Fmt 4.6, Leading zero omitted, Abs format (unit mm)*
G04 Created by KiCad (PCBNEW 8.0.2) date 2025-02-23 18:43:33*
%MOMM*%
%LPD*%
G01*
G04 APERTURE LIST*
%TA.AperFunction,ComponentPad*%
%ADD10R,1.700000X1.700000*%
%TD*%
%TA.AperFunction,ComponentPad*%
%ADD11O,1.700000X1.700000*%
%TD*%
%TA.AperFunction,ComponentPad*%
%ADD12C,1.600000*%
%TD*%
%TA.AperFunction,ComponentPad*%
%ADD13O,1.600000X1.600000*%
%TD*%
%TA.AperFunction,ComponentPad*%
%ADD14R,1.600000X1.600000*%
%TD*%
%TA.AperFunction,ComponentPad*%
%ADD15C,1.550000*%
%TD*%
%TA.AperFunction,ComponentPad*%
%ADD16C,4.800000*%
%TD*%
%TA.AperFunction,Conductor*%
%ADD17C,0.200000*%
%TD*%
G04 APERTURE END LIST*
D10*
%TO.P,J4,1,Pin_1*%
%TO.N,+3V3*%
X30353000Y-61595000D03*
D11*
%TO.P,J4,2,Pin_2*%
%TO.N,REC*%
X32893000Y-61595000D03*
%TO.P,J4,3,Pin_3*%
%TO.N,ACK*%
X35433000Y-61595000D03*
%TO.P,J4,4,Pin_4*%
%TO.N,GND*%
X37973000Y-61595000D03*
%TD*%
D10*
%TO.P,J3,1,Pin_1*%
%TO.N,BF0*%
X70993000Y-61595000D03*
D11*
%TO.P,J3,2,Pin_2*%
%TO.N,BF1*%
X68453000Y-61595000D03*
%TO.P,J3,3,Pin_3*%
%TO.N,BF2*%
X65913000Y-61595000D03*
%TO.P,J3,4,Pin_4*%
%TO.N,BF3*%
X63373000Y-61595000D03*
%TO.P,J3,5,Pin_5*%
%TO.N,BF4*%
X60833000Y-61595000D03*
%TO.P,J3,6,Pin_6*%
%TO.N,BF5*%
X58293000Y-61595000D03*
%TO.P,J3,7,Pin_7*%
%TO.N,BF6*%
X55753000Y-61595000D03*
%TO.P,J3,8,Pin_8*%
%TO.N,BF7*%
X53213000Y-61595000D03*
%TD*%
D10*
%TO.P,J1,1,Pin_1*%
%TO.N,Net-(J1-Pin_1)*%
X30480000Y-83820000D03*
D11*
%TO.P,J1,2,Pin_2*%
%TO.N,Net-(J1-Pin_2)*%
X30480000Y-81280000D03*
%TO.P,J1,3,Pin_3*%
%TO.N,Net-(J1-Pin_3)*%
X33020000Y-83820000D03*
%TO.P,J1,4,Pin_4*%
%TO.N,Net-(J1-Pin_4)*%
X33020000Y-81280000D03*
%TO.P,J1,5,Pin_5*%
%TO.N,Net-(J1-Pin_5)*%
X35560000Y-83820000D03*
%TO.P,J1,6,Pin_6*%
%TO.N,Net-(J1-Pin_6)*%
X35560000Y-81280000D03*
%TO.P,J1,7,Pin_7*%
%TO.N,Net-(J1-Pin_7)*%
X38100000Y-83820000D03*
%TO.P,J1,8,Pin_8*%
%TO.N,Net-(J1-Pin_8)*%
X38100000Y-81280000D03*
%TO.P,J1,9,Pin_9*%
%TO.N,Net-(J1-Pin_9)*%
X40640000Y-83820000D03*
%TO.P,J1,10,Pin_10*%
%TO.N,ACK*%
X40640000Y-81280000D03*
%TO.P,J1,11,Pin_11*%
%TO.N,unconnected-(J1-Pin_11-Pad11)*%
X43180000Y-83820000D03*
%TO.P,J1,12,Pin_12*%
%TO.N,unconnected-(J1-Pin_12-Pad12)*%
X43180000Y-81280000D03*
%TO.P,J1,13,Pin_13*%
%TO.N,unconnected-(J1-Pin_13-Pad13)*%
X45720000Y-83820000D03*
%TO.P,J1,14,Pin_14*%
%TO.N,unconnected-(J1-Pin_14-Pad14)*%
X45720000Y-81280000D03*
%TO.P,J1,15,Pin_15*%
%TO.N,P14*%
X48260000Y-83820000D03*
%TO.P,J1,16,Pin_16*%
%TO.N,P15*%
X48260000Y-81280000D03*
%TO.P,J1,17,Pin_17*%
%TO.N,P16*%
X50800000Y-83820000D03*
%TO.P,J1,18,Pin_18*%
%TO.N,P17*%
X50800000Y-81280000D03*
%TO.P,J1,19,Pin_19*%
%TO.N,P18*%
X53340000Y-83820000D03*
%TO.P,J1,20,Pin_20*%
%TO.N,P19*%
X53340000Y-81280000D03*
%TO.P,J1,21,Pin_21*%
%TO.N,P20*%
X55880000Y-83820000D03*
%TO.P,J1,22,Pin_22*%
%TO.N,P21*%
X55880000Y-81280000D03*
%TO.P,J1,23,Pin_23*%
%TO.N,P22*%
X58420000Y-83820000D03*
%TO.P,J1,24,Pin_24*%
%TO.N,P23*%
X58420000Y-81280000D03*
%TO.P,J1,25,Pin_25*%
%TO.N,unconnected-(J1-Pin_25-Pad25)*%
X60960000Y-83820000D03*
%TO.P,J1,26,Pin_26*%
%TO.N,unconnected-(J1-Pin_26-Pad26)*%
X60960000Y-81280000D03*
%TO.P,J1,27,Pin_27*%
%TO.N,unconnected-(J1-Pin_27-Pad27)*%
X63500000Y-83820000D03*
%TO.P,J1,28,Pin_28*%
%TO.N,unconnected-(J1-Pin_28-Pad28)*%
X63500000Y-81280000D03*
%TO.P,J1,29,Pin_29*%
%TO.N,unconnected-(J1-Pin_29-Pad29)*%
X66040000Y-83820000D03*
%TO.P,J1,30,Pin_30*%
%TO.N,unconnected-(J1-Pin_30-Pad30)*%
X66040000Y-81280000D03*
%TO.P,J1,31,Pin_31*%
%TO.N,unconnected-(J1-Pin_31-Pad31)*%
X68580000Y-83820000D03*
%TO.P,J1,32,Pin_32*%
%TO.N,unconnected-(J1-Pin_32-Pad32)*%
X68580000Y-81280000D03*
%TO.P,J1,33,Pin_33*%
%TO.N,unconnected-(J1-Pin_33-Pad33)*%
X71120000Y-83820000D03*
%TO.P,J1,34,Pin_34*%
%TO.N,unconnected-(J1-Pin_34-Pad34)*%
X71120000Y-81280000D03*
%TO.P,J1,35,Pin_35*%
%TO.N,unconnected-(J1-Pin_35-Pad35)*%
X73660000Y-83820000D03*
%TO.P,J1,36,Pin_36*%
%TO.N,unconnected-(J1-Pin_36-Pad36)*%
X73660000Y-81280000D03*
%TO.P,J1,37,Pin_37*%
%TO.N,unconnected-(J1-Pin_37-Pad37)*%
X76200000Y-83820000D03*
%TO.P,J1,38,Pin_38*%
%TO.N,unconnected-(J1-Pin_38-Pad38)*%
X76200000Y-81280000D03*
%TO.P,J1,39,Pin_39*%
%TO.N,unconnected-(J1-Pin_39-Pad39)*%
X78740000Y-83820000D03*
%TO.P,J1,40,Pin_40*%
%TO.N,unconnected-(J1-Pin_40-Pad40)*%
X78740000Y-81280000D03*
%TD*%
D12*
%TO.P,R10,1*%
%TO.N,P21*%
X46990000Y-48260000D03*
D13*
%TO.P,R10,2*%
%TO.N,G*%
X46990000Y-55880000D03*
%TD*%
D14*
%TO.P,LS1,1,1*%
%TO.N,P14*%
X72400000Y-50800000D03*
D12*
%TO.P,LS1,2,2*%
%TO.N,P15*%
X80000000Y-50800000D03*
%TD*%
%TO.P,R1,1*%
%TO.N,REC*%
X77470000Y-67310000D03*
D13*
%TO.P,R1,2*%
%TO.N,Net-(J1-Pin_9)*%
X77470000Y-74930000D03*
%TD*%
D14*
%TO.P,RN1,1,R1.1*%
%TO.N,BF0*%
X29210000Y-71120000D03*
D13*
%TO.P,RN1,2,R1.2*%
%TO.N,Net-(J1-Pin_1)*%
X31750000Y-71120000D03*
%TO.P,RN1,3,R2.1*%
%TO.N,BF1*%
X34290000Y-71120000D03*
%TO.P,RN1,4,R2.2*%
%TO.N,Net-(J1-Pin_2)*%
X36830000Y-71120000D03*
%TO.P,RN1,5,R3.1*%
%TO.N,BF2*%
X39370000Y-71120000D03*
%TO.P,RN1,6,R3.2*%
%TO.N,Net-(J1-Pin_3)*%
X41910000Y-71120000D03*
%TO.P,RN1,7,R4.1*%
%TO.N,BF3*%
X44450000Y-71120000D03*
%TO.P,RN1,8,R4.2*%
%TO.N,Net-(J1-Pin_4)*%
X46990000Y-71120000D03*
%TD*%
D12*
%TO.P,R9,1*%
%TO.N,P20*%
X43180000Y-48260000D03*
D13*
%TO.P,R9,2*%
%TO.N,G*%
X43180000Y-55880000D03*
%TD*%
D12*
%TO.P,R12,1*%
%TO.N,P23*%
X54610000Y-48260000D03*
D13*
%TO.P,R12,2*%
%TO.N,R*%
X54610000Y-55880000D03*
%TD*%
D12*
%TO.P,R13,1*%
%TO.N,B*%
X58420000Y-48260000D03*
D13*
%TO.P,R13,2*%
%TO.N,GND*%
X58420000Y-55880000D03*
%TD*%
D12*
%TO.P,R5,1*%
%TO.N,P16*%
X27940000Y-48260000D03*
D13*
%TO.P,R5,2*%
%TO.N,VSYNC*%
X27940000Y-55880000D03*
%TD*%
D12*
%TO.P,R11,1*%
%TO.N,P22*%
X50800000Y-48260000D03*
D13*
%TO.P,R11,2*%
%TO.N,R*%
X50800000Y-55880000D03*
%TD*%
D12*
%TO.P,R6,1*%
%TO.N,P17*%
X31750000Y-48260000D03*
D13*
%TO.P,R6,2*%
%TO.N,HSYNC*%
X31750000Y-55880000D03*
%TD*%
D12*
%TO.P,R15,1*%
%TO.N,R*%
X66040000Y-55880000D03*
D13*
%TO.P,R15,2*%
%TO.N,GND*%
X66040000Y-48260000D03*
%TD*%
D15*
%TO.P,J2,1*%
%TO.N,R*%
X50620000Y-39370000D03*
%TO.P,J2,2*%
%TO.N,G*%
X52900000Y-39370000D03*
%TO.P,J2,3*%
%TO.N,B*%
X55180000Y-39370000D03*
%TO.P,J2,4*%
%TO.N,unconnected-(J2-Pad4)*%
X57460000Y-39370000D03*
%TO.P,J2,5*%
%TO.N,GND*%
X59740000Y-39370000D03*
%TO.P,J2,6*%
X49480000Y-36830000D03*
%TO.P,J2,7*%
X51760000Y-36830000D03*
%TO.P,J2,8*%
X54040000Y-36830000D03*
%TO.P,J2,9*%
%TO.N,unconnected-(J2-Pad9)*%
X56320000Y-36830000D03*
%TO.P,J2,10*%
%TO.N,GND*%
X58600000Y-36830000D03*
%TO.P,J2,11*%
%TO.N,unconnected-(J2-Pad11)*%
X50620000Y-34290000D03*
%TO.P,J2,12*%
%TO.N,unconnected-(J2-Pad12)*%
X52900000Y-34290000D03*
%TO.P,J2,13*%
%TO.N,HSYNC*%
X55180000Y-34290000D03*
%TO.P,J2,14*%
%TO.N,VSYNC*%
X57460000Y-34290000D03*
%TO.P,J2,15*%
%TO.N,unconnected-(J2-Pad15)*%
X59740000Y-34290000D03*
D16*
%TO.P,J2,16*%
%TO.N,N/C*%
X67110000Y-36830000D03*
%TO.P,J2,17*%
X42110000Y-36830000D03*
%TD*%
D14*
%TO.P,RN2,1,R1.1*%
%TO.N,BF4*%
X53340000Y-71120000D03*
D13*
%TO.P,RN2,2,R1.2*%
%TO.N,Net-(J1-Pin_5)*%
X55880000Y-71120000D03*
%TO.P,RN2,3,R2.1*%
%TO.N,BF5*%
X58420000Y-71120000D03*
%TO.P,RN2,4,R2.2*%
%TO.N,Net-(J1-Pin_6)*%
X60960000Y-71120000D03*
%TO.P,RN2,5,R3.1*%
%TO.N,BF6*%
X63500000Y-71120000D03*
%TO.P,RN2,6,R3.2*%
%TO.N,Net-(J1-Pin_7)*%
X66040000Y-71120000D03*
%TO.P,RN2,7,R4.1*%
%TO.N,BF7*%
X68580000Y-71120000D03*
%TO.P,RN2,8,R4.2*%
%TO.N,Net-(J1-Pin_8)*%
X71120000Y-71120000D03*
%TD*%
D12*
%TO.P,R7,1*%
%TO.N,P18*%
X35560000Y-48260000D03*
D13*
%TO.P,R7,2*%
%TO.N,B*%
X35560000Y-55880000D03*
%TD*%
D12*
%TO.P,R14,1*%
%TO.N,G*%
X62230000Y-48260000D03*
D13*
%TO.P,R14,2*%
%TO.N,GND*%
X62230000Y-55880000D03*
%TD*%
D12*
%TO.P,R8,1*%
%TO.N,P19*%
X39130000Y-48260000D03*
D13*
%TO.P,R8,2*%
%TO.N,B*%
X39130000Y-55880000D03*
%TD*%
D17*
%TO.N,REC*%
X32893000Y-61595000D02*
X34043100Y-61595000D01*
X34043100Y-61356700D02*
X34043100Y-61595000D01*
X37395300Y-58004500D02*
X34043100Y-61356700D01*
X69546900Y-58004500D02*
X37395300Y-58004500D01*
X77470000Y-65927600D02*
X69546900Y-58004500D01*
X77470000Y-67310000D02*
X77470000Y-65927600D01*
%TO.N,Net-(J1-Pin_7)*%
X66040000Y-71120000D02*
X64939900Y-71120000D01*
X38100000Y-83820000D02*
X38100000Y-82669900D01*
X64939900Y-71257500D02*
X64939900Y-71120000D01*
X63176900Y-73020500D02*
X64939900Y-71257500D01*
X50731000Y-73020500D02*
X63176900Y-73020500D01*
X49565100Y-74186400D02*
X50731000Y-73020500D01*
X43549200Y-74186400D02*
X49565100Y-74186400D01*
X36909400Y-80826200D02*
X43549200Y-74186400D01*
X36909400Y-81717600D02*
X36909400Y-80826200D01*
X37861700Y-82669900D02*
X36909400Y-81717600D01*
X38100000Y-82669900D02*
X37861700Y-82669900D01*
%TO.N,Net-(J1-Pin_3)*%
X32781700Y-82669900D02*
X33020000Y-82669900D01*
X31829400Y-81717600D02*
X32781700Y-82669900D01*
X31829400Y-80792500D02*
X31829400Y-81717600D01*
X41501900Y-71120000D02*
X31829400Y-80792500D01*
X41910000Y-71120000D02*
X41501900Y-71120000D01*
X33020000Y-83820000D02*
X33020000Y-82669900D01*
%TO.N,Net-(J1-Pin_9)*%
X41790100Y-83581700D02*
X41790100Y-83820000D01*
X42821800Y-82550000D02*
X41790100Y-83581700D01*
X58875500Y-82550000D02*
X42821800Y-82550000D01*
X59570200Y-81855300D02*
X58875500Y-82550000D01*
X59570200Y-80961900D02*
X59570200Y-81855300D01*
X65602100Y-74930000D02*
X59570200Y-80961900D01*
X76369900Y-74930000D02*
X65602100Y-74930000D01*
X77470000Y-74930000D02*
X76369900Y-74930000D01*
X40640000Y-83820000D02*
X41790100Y-83820000D01*
%TO.N,Net-(J1-Pin_4)*%
X42079900Y-72220100D02*
X33020000Y-81280000D01*
X44927400Y-72220100D02*
X42079900Y-72220100D01*
X45889900Y-71257600D02*
X44927400Y-72220100D01*
X45889900Y-71120000D02*
X45889900Y-71257600D01*
X46990000Y-71120000D02*
X45889900Y-71120000D01*
%TO.N,Net-(J1-Pin_5)*%
X55880000Y-71120000D02*
X54779900Y-71120000D01*
X35560000Y-83820000D02*
X35560000Y-82669900D01*
X54779900Y-71721600D02*
X54779900Y-71120000D01*
X54281400Y-72220100D02*
X54779900Y-71721600D01*
X48015300Y-72220100D02*
X54281400Y-72220100D01*
X47249400Y-72986000D02*
X48015300Y-72220100D01*
X42209600Y-72986000D02*
X47249400Y-72986000D01*
X34369400Y-80826200D02*
X42209600Y-72986000D01*
X34369400Y-81717600D02*
X34369400Y-80826200D01*
X35321700Y-82669900D02*
X34369400Y-81717600D01*
X35560000Y-82669900D02*
X35321700Y-82669900D01*
%TO.N,P15*%
X49410100Y-81041700D02*
X49410100Y-81280000D01*
X56418100Y-74033700D02*
X49410100Y-81041700D01*
X72332400Y-74033700D02*
X56418100Y-74033700D01*
X80000000Y-66366100D02*
X72332400Y-74033700D01*
X80000000Y-50800000D02*
X80000000Y-66366100D01*
X48260000Y-81280000D02*
X49410100Y-81280000D01*
%TO.N,BF3*%
X63373000Y-61595000D02*
X62222900Y-61595000D01*
X44450000Y-68146700D02*
X44450000Y-71120000D01*
X52991800Y-59604900D02*
X44450000Y-68146700D01*
X60484600Y-59604900D02*
X52991800Y-59604900D01*
X62222900Y-61343200D02*
X60484600Y-59604900D01*
X62222900Y-61595000D02*
X62222900Y-61343200D01*
%TO.N,BF2*%
X39370000Y-71120000D02*
X40470100Y-71120000D01*
X65913000Y-61595000D02*
X64762900Y-61595000D01*
X40470100Y-70982500D02*
X40470100Y-71120000D01*
X52247800Y-59204800D02*
X40470100Y-70982500D01*
X62611000Y-59204800D02*
X52247800Y-59204800D01*
X64762900Y-61356700D02*
X62611000Y-59204800D01*
X64762900Y-61595000D02*
X64762900Y-61356700D01*
%TO.N,BF1*%
X34290000Y-71120000D02*
X35390100Y-71120000D01*
X68453000Y-61595000D02*
X67302900Y-61595000D01*
X35390100Y-70982500D02*
X35390100Y-71120000D01*
X47567900Y-58804700D02*
X35390100Y-70982500D01*
X64750900Y-58804700D02*
X47567900Y-58804700D01*
X67302900Y-61356700D02*
X64750900Y-58804700D01*
X67302900Y-61595000D02*
X67302900Y-61356700D01*
%TO.N,BF0*%
X29210000Y-71120000D02*
X30310100Y-71120000D01*
X70993000Y-61595000D02*
X69842900Y-61595000D01*
X30310100Y-70982400D02*
X30310100Y-71120000D01*
X42887900Y-58404600D02*
X30310100Y-70982400D01*
X66940000Y-58404600D02*
X42887900Y-58404600D01*
X69842900Y-61307500D02*
X66940000Y-58404600D01*
X69842900Y-61595000D02*
X69842900Y-61307500D01*
%TO.N,Net-(J1-Pin_8)*%
X39250100Y-81041700D02*
X39250100Y-81280000D01*
X40684400Y-79607400D02*
X39250100Y-81041700D01*
X48083700Y-79607400D02*
X40684400Y-79607400D01*
X54270400Y-73420700D02*
X48083700Y-79607400D01*
X67856700Y-73420700D02*
X54270400Y-73420700D01*
X70019900Y-71257500D02*
X67856700Y-73420700D01*
X70019900Y-71120000D02*
X70019900Y-71257500D01*
X71120000Y-71120000D02*
X70019900Y-71120000D01*
X38100000Y-81280000D02*
X39250100Y-81280000D01*
%TO.N,Net-(J1-Pin_2)*%
X36830000Y-73779900D02*
X30480000Y-80129900D01*
X36830000Y-71120000D02*
X36830000Y-73779900D01*
X30480000Y-81280000D02*
X30480000Y-80129900D01*
%TO.N,BF4*%
X52055700Y-68735600D02*
X53340000Y-70019900D01*
X52055700Y-61106900D02*
X52055700Y-68735600D01*
X53157600Y-60005000D02*
X52055700Y-61106900D01*
X58380400Y-60005000D02*
X53157600Y-60005000D01*
X59682900Y-61307500D02*
X58380400Y-60005000D01*
X59682900Y-61595000D02*
X59682900Y-61307500D01*
X53340000Y-71120000D02*
X53340000Y-70019900D01*
X60833000Y-61595000D02*
X59682900Y-61595000D01*
%TO.N,Net-(J1-Pin_6)*%
X43453800Y-73386200D02*
X35560000Y-81280000D01*
X49393800Y-73386200D02*
X43453800Y-73386200D01*
X50159700Y-72620300D02*
X49393800Y-73386200D01*
X58497100Y-72620300D02*
X50159700Y-72620300D01*
X59859900Y-71257500D02*
X58497100Y-72620300D01*
X59859900Y-71120000D02*
X59859900Y-71257500D01*
X60960000Y-71120000D02*
X59859900Y-71120000D01*
%TO.N,BF7*%
X68580000Y-71120000D02*
X68580000Y-70019900D01*
X53213000Y-61595000D02*
X54363100Y-61595000D01*
X54363100Y-61343200D02*
X54363100Y-61595000D01*
X55301100Y-60405200D02*
X54363100Y-61343200D01*
X56237800Y-60405200D02*
X55301100Y-60405200D01*
X57142900Y-61310300D02*
X56237800Y-60405200D01*
X57142900Y-62071400D02*
X57142900Y-61310300D01*
X65091400Y-70019900D02*
X57142900Y-62071400D01*
X68580000Y-70019900D02*
X65091400Y-70019900D01*
%TO.N,BF6*%
X56225200Y-62745100D02*
X55753000Y-62745100D01*
X63500000Y-70019900D02*
X56225200Y-62745100D01*
X63500000Y-71120000D02*
X63500000Y-70019900D01*
X55753000Y-61595000D02*
X55753000Y-62745100D01*
%TO.N,B*%
X35560000Y-55880000D02*
X39130000Y-55880000D01*
X56137500Y-50542500D02*
X58420000Y-48260000D01*
X45567600Y-50542500D02*
X56137500Y-50542500D01*
X40230100Y-55880000D02*
X45567600Y-50542500D01*
X39130000Y-55880000D02*
X40230100Y-55880000D01*
%TO.N,G*%
X46990000Y-55880000D02*
X48090100Y-55880000D01*
X52900000Y-39370000D02*
X60887500Y-47357500D01*
X61790000Y-48260000D02*
X62230000Y-48260000D01*
X60887500Y-47357500D02*
X61790000Y-48260000D01*
X49590500Y-54379600D02*
X48090100Y-55880000D01*
X53865400Y-54379600D02*
X49590500Y-54379600D01*
X60887500Y-47357500D02*
X53865400Y-54379600D01*
X43180000Y-55880000D02*
X46990000Y-55880000D01*
%TO.N,R*%
X50800000Y-55880000D02*
X54610000Y-55880000D01*
X64898400Y-57021600D02*
X66040000Y-55880000D01*
X56851700Y-57021600D02*
X64898400Y-57021600D01*
X55710100Y-55880000D02*
X56851700Y-57021600D01*
X54610000Y-55880000D02*
X55710100Y-55880000D01*
%TO.N,VSYNC*%
X30170400Y-57010300D02*
X29040100Y-55880000D01*
X32871000Y-57010300D02*
X30170400Y-57010300D01*
X43208500Y-46672800D02*
X32871000Y-57010300D01*
X44866900Y-46672800D02*
X43208500Y-46672800D01*
X51760000Y-39779700D02*
X44866900Y-46672800D01*
X51760000Y-38924000D02*
X51760000Y-39779700D01*
X52714000Y-37970000D02*
X51760000Y-38924000D01*
X54496800Y-37970000D02*
X52714000Y-37970000D01*
X55124300Y-37342500D02*
X54496800Y-37970000D01*
X55124300Y-36450700D02*
X55124300Y-37342500D01*
X57285000Y-34290000D02*
X55124300Y-36450700D01*
X57460000Y-34290000D02*
X57285000Y-34290000D01*
X27940000Y-55880000D02*
X29040100Y-55880000D01*
%TO.N,HSYNC*%
X37345100Y-49184800D02*
X31750000Y-54779900D01*
X37345100Y-47434700D02*
X37345100Y-49184800D01*
X49045600Y-35734200D02*
X37345100Y-47434700D01*
X53735800Y-35734200D02*
X49045600Y-35734200D01*
X55180000Y-34290000D02*
X53735800Y-35734200D01*
X31750000Y-55880000D02*
X31750000Y-54779900D01*
%TO.N,GND*%
X54040000Y-36830000D02*
X51760000Y-36830000D01*
X51760000Y-36830000D02*
X49480000Y-36830000D01*
X62230000Y-55880000D02*
X58420000Y-55880000D01*
X36822900Y-61833300D02*
X36822900Y-61595000D01*
X35903400Y-62752800D02*
X36822900Y-61833300D01*
X32422900Y-62752800D02*
X35903400Y-62752800D01*
X31709700Y-62039600D02*
X32422900Y-62752800D01*
X31709700Y-61127400D02*
X31709700Y-62039600D01*
X35407200Y-57429900D02*
X31709700Y-61127400D01*
X47689700Y-57429900D02*
X35407200Y-57429900D01*
X50339800Y-54779800D02*
X47689700Y-57429900D01*
X56219700Y-54779800D02*
X50339800Y-54779800D01*
X57319900Y-55880000D02*
X56219700Y-54779800D01*
X58420000Y-55880000D02*
X57319900Y-55880000D01*
X37973000Y-61595000D02*
X36822900Y-61595000D01*
%TD*%
%TA.AperFunction,Conductor*%
%TO.N,GND*%
G36*
X41605942Y-58624685D02*
G01*
X41651697Y-58677489D01*
X41661641Y-58746647D01*
X41632616Y-58810203D01*
X41626584Y-58816681D01*
X39392426Y-61050837D01*
X39331103Y-61084322D01*
X39261411Y-61079338D01*
X39205478Y-61037466D01*
X39192363Y-61015561D01*
X39146600Y-60917422D01*
X39146599Y-60917420D01*
X39011113Y-60723926D01*
X39011108Y-60723920D01*
X38844082Y-60556894D01*
X38650578Y-60421399D01*
X38436492Y-60321570D01*
X38436486Y-60321567D01*
X38223000Y-60264364D01*
X38223000Y-61161988D01*
X38165993Y-61129075D01*
X38038826Y-61095000D01*
X37907174Y-61095000D01*
X37780007Y-61129075D01*
X37723000Y-61161988D01*
X37723000Y-60264364D01*
X37722999Y-60264364D01*
X37509513Y-60321567D01*
X37509507Y-60321570D01*
X37295422Y-60421399D01*
X37295420Y-60421400D01*
X37101926Y-60556886D01*
X37101920Y-60556891D01*
X36934891Y-60723920D01*
X36934890Y-60723922D01*
X36804880Y-60909595D01*
X36750303Y-60953219D01*
X36680804Y-60960412D01*
X36618450Y-60928890D01*
X36601730Y-60909594D01*
X36471494Y-60723597D01*
X36304402Y-60556506D01*
X36304399Y-60556504D01*
X36227518Y-60502671D01*
X36110834Y-60420967D01*
X36110828Y-60420964D01*
X36078487Y-60405883D01*
X36026049Y-60359711D01*
X36006898Y-60292517D01*
X36027114Y-60225636D01*
X36043208Y-60205826D01*
X37607717Y-58641319D01*
X37669040Y-58607834D01*
X37695398Y-58605000D01*
X41538903Y-58605000D01*
X41605942Y-58624685D01*
G37*
%TD.AperFunction*%
%TA.AperFunction,Conductor*%
G36*
X41960475Y-55101372D02*
G01*
X42016408Y-55143244D01*
X42040825Y-55208708D01*
X42029523Y-55269958D01*
X41953263Y-55433497D01*
X41953258Y-55433511D01*
X41894366Y-55653302D01*
X41894364Y-55653313D01*
X41874532Y-55879998D01*
X41874532Y-55880001D01*
X41894364Y-56106686D01*
X41894366Y-56106697D01*
X41953258Y-56326488D01*
X41953261Y-56326497D01*
X42049431Y-56532732D01*
X42049432Y-56532734D01*
X42179954Y-56719141D01*
X42340858Y-56880045D01*
X42340861Y-56880047D01*
X42527266Y-57010568D01*
X42733504Y-57106739D01*
X42733509Y-57106740D01*
X42733511Y-57106741D01*
X42933118Y-57160225D01*
X42992779Y-57196590D01*
X43023308Y-57259437D01*
X43015013Y-57328812D01*
X42970528Y-57382690D01*
X42903976Y-57403965D01*
X42901025Y-57404000D01*
X39408975Y-57404000D01*
X39341936Y-57384315D01*
X39296181Y-57331511D01*
X39286237Y-57262353D01*
X39315262Y-57198797D01*
X39374040Y-57161023D01*
X39376882Y-57160225D01*
X39522086Y-57121318D01*
X39576496Y-57106739D01*
X39782734Y-57010568D01*
X39969139Y-56880047D01*
X40130047Y-56719139D01*
X40260568Y-56532734D01*
X40260576Y-56532716D01*
X40261667Y-56530828D01*
X40262374Y-56530153D01*
X40263673Y-56528299D01*
X40264045Y-56528559D01*
X40312232Y-56482611D01*
X40336955Y-56473052D01*
X40461885Y-56439577D01*
X40513460Y-56409800D01*
X40598816Y-56360520D01*
X40710620Y-56248716D01*
X40710620Y-56248714D01*
X40720824Y-56238511D01*
X40720827Y-56238506D01*
X41829462Y-55129871D01*
X41890783Y-55096388D01*
X41960475Y-55101372D01*
G37*
%TD.AperFunction*%
%TA.AperFunction,Conductor*%
G36*
X45825347Y-56500185D02*
G01*
X45859880Y-56533374D01*
X45945480Y-56655624D01*
X45989954Y-56719141D01*
X46150858Y-56880045D01*
X46150861Y-56880047D01*
X46337266Y-57010568D01*
X46543504Y-57106739D01*
X46543509Y-57106740D01*
X46543511Y-57106741D01*
X46743118Y-57160225D01*
X46802779Y-57196590D01*
X46833308Y-57259437D01*
X46825013Y-57328812D01*
X46780528Y-57382690D01*
X46713976Y-57403965D01*
X46711025Y-57404000D01*
X43458975Y-57404000D01*
X43391936Y-57384315D01*
X43346181Y-57331511D01*
X43336237Y-57262353D01*
X43365262Y-57198797D01*
X43424040Y-57161023D01*
X43426882Y-57160225D01*
X43572086Y-57121318D01*
X43626496Y-57106739D01*
X43832734Y-57010568D01*
X44019139Y-56880047D01*
X44180047Y-56719139D01*
X44310118Y-56533375D01*
X44364693Y-56489752D01*
X44411692Y-56480500D01*
X45758308Y-56480500D01*
X45825347Y-56500185D01*
G37*
%TD.AperFunction*%
%TA.AperFunction,Conductor*%
G36*
X49445650Y-55476198D02*
G01*
X49501583Y-55518070D01*
X49526000Y-55583534D01*
X49522091Y-55624472D01*
X49514367Y-55653299D01*
X49514364Y-55653313D01*
X49494532Y-55879998D01*
X49494532Y-55880001D01*
X49514364Y-56106686D01*
X49514366Y-56106697D01*
X49573258Y-56326488D01*
X49573261Y-56326497D01*
X49669431Y-56532732D01*
X49669432Y-56532734D01*
X49799954Y-56719141D01*
X49960858Y-56880045D01*
X49960861Y-56880047D01*
X50147266Y-57010568D01*
X50353504Y-57106739D01*
X50353509Y-57106740D01*
X50353511Y-57106741D01*
X50553118Y-57160225D01*
X50612779Y-57196590D01*
X50643308Y-57259437D01*
X50635013Y-57328812D01*
X50590528Y-57382690D01*
X50523976Y-57403965D01*
X50521025Y-57404000D01*
X47268975Y-57404000D01*
X47201936Y-57384315D01*
X47156181Y-57331511D01*
X47146237Y-57262353D01*
X47175262Y-57198797D01*
X47234040Y-57161023D01*
X47236882Y-57160225D01*
X47382086Y-57121318D01*
X47436496Y-57106739D01*
X47642734Y-57010568D01*
X47829139Y-56880047D01*
X47990047Y-56719139D01*
X48120568Y-56532734D01*
X48120576Y-56532716D01*
X48121667Y-56530828D01*
X48122374Y-56530153D01*
X48123673Y-56528299D01*
X48124045Y-56528559D01*
X48172232Y-56482611D01*
X48196955Y-56473052D01*
X48321885Y-56439577D01*
X48373460Y-56409800D01*
X48458816Y-56360520D01*
X48570620Y-56248716D01*
X48570620Y-56248714D01*
X48580824Y-56238511D01*
X48580827Y-56238506D01*
X49314636Y-55504698D01*
X49375958Y-55471214D01*
X49445650Y-55476198D01*
G37*
%TD.AperFunction*%
%TA.AperFunction,Conductor*%
G36*
X49014075Y-37022993D02*
G01*
X49079901Y-37137007D01*
X49172993Y-37230099D01*
X49287007Y-37295925D01*
X49350590Y-37312962D01*
X48772476Y-37891074D01*
X48772477Y-37891075D01*
X48840062Y-37938398D01*
X48840064Y-37938399D01*
X49042252Y-38032681D01*
X49042263Y-38032685D01*
X49257751Y-38090425D01*
X49257758Y-38090426D01*
X49479998Y-38109870D01*
X49480002Y-38109870D01*
X49702241Y-38090426D01*
X49702248Y-38090425D01*
X49867588Y-38046122D01*
X49937438Y-38047785D01*
X49995301Y-38086947D01*
X50022805Y-38151175D01*
X50011219Y-38220078D01*
X49970806Y-38267471D01*
X49796992Y-38389178D01*
X49639182Y-38546988D01*
X49639179Y-38546991D01*
X49639178Y-38546993D01*
X49581575Y-38629259D01*
X49511165Y-38729814D01*
X49416845Y-38932085D01*
X49416841Y-38932094D01*
X49359081Y-39147660D01*
X49359079Y-39147670D01*
X49339628Y-39369999D01*
X49339628Y-39370000D01*
X49359079Y-39592329D01*
X49359081Y-39592339D01*
X49416841Y-39807905D01*
X49416843Y-39807909D01*
X49416844Y-39807913D01*
X49511165Y-40010186D01*
X49639178Y-40193007D01*
X49796993Y-40350822D01*
X49979814Y-40478835D01*
X49979819Y-40478837D01*
X49984500Y-40481540D01*
X49983572Y-40483147D01*
X50029834Y-40523861D01*
X50049001Y-40591050D01*
X50028801Y-40657936D01*
X50012686Y-40677776D01*
X44654484Y-46035981D01*
X44593161Y-46069466D01*
X44566803Y-46072300D01*
X43295170Y-46072300D01*
X43295154Y-46072299D01*
X43287558Y-46072299D01*
X43129443Y-46072299D01*
X43053079Y-46092761D01*
X42976714Y-46113223D01*
X42976709Y-46113226D01*
X42839790Y-46192275D01*
X42839782Y-46192281D01*
X40644098Y-48387965D01*
X40582775Y-48421450D01*
X40513083Y-48416466D01*
X40457150Y-48374594D01*
X40432733Y-48309130D01*
X40432889Y-48289476D01*
X40435468Y-48260000D01*
X40435468Y-48259998D01*
X40415635Y-48033313D01*
X40415635Y-48033308D01*
X40356739Y-47813504D01*
X40260568Y-47607266D01*
X40130047Y-47420861D01*
X40130045Y-47420858D01*
X39969141Y-47259954D01*
X39782734Y-47129432D01*
X39782732Y-47129431D01*
X39576497Y-47033261D01*
X39576488Y-47033258D01*
X39356697Y-46974366D01*
X39356693Y-46974365D01*
X39356692Y-46974365D01*
X39356691Y-46974364D01*
X39356686Y-46974364D01*
X39130002Y-46954532D01*
X39129998Y-46954532D01*
X38970220Y-46968510D01*
X38901720Y-46954743D01*
X38851537Y-46906128D01*
X38835604Y-46838099D01*
X38858980Y-46772255D01*
X38871725Y-46757308D01*
X48179593Y-37449441D01*
X48240913Y-37415959D01*
X48310605Y-37420943D01*
X48366538Y-37462815D01*
X48368846Y-37466002D01*
X48418924Y-37537521D01*
X48418924Y-37537522D01*
X48997037Y-36959408D01*
X49014075Y-37022993D01*
G37*
%TD.AperFunction*%
%TA.AperFunction,Conductor*%
G36*
X58212411Y-38046122D02*
G01*
X58377751Y-38090425D01*
X58377758Y-38090426D01*
X58599998Y-38109870D01*
X58600002Y-38109870D01*
X58822241Y-38090426D01*
X58822248Y-38090425D01*
X58989001Y-38045743D01*
X59058851Y-38047406D01*
X59116713Y-38086568D01*
X59144218Y-38150796D01*
X59132632Y-38219698D01*
X59092218Y-38267093D01*
X59032477Y-38308923D01*
X59032476Y-38308923D01*
X59610590Y-38887037D01*
X59547007Y-38904075D01*
X59432993Y-38969901D01*
X59339901Y-39062993D01*
X59274075Y-39177007D01*
X59257037Y-39240590D01*
X58678923Y-38662476D01*
X58658640Y-38664251D01*
X58647296Y-38673319D01*
X58577797Y-38680509D01*
X58515444Y-38648984D01*
X58498734Y-38629700D01*
X58440822Y-38546993D01*
X58283007Y-38389178D01*
X58168393Y-38308924D01*
X58109193Y-38267471D01*
X58065568Y-38212894D01*
X58058376Y-38143396D01*
X58089898Y-38081041D01*
X58150128Y-38045628D01*
X58212411Y-38046122D01*
G37*
%TD.AperFunction*%
%TA.AperFunction,Conductor*%
G36*
X51294075Y-37022993D02*
G01*
X51359901Y-37137007D01*
X51452993Y-37230099D01*
X51567007Y-37295925D01*
X51630588Y-37312961D01*
X51052476Y-37891074D01*
X51111020Y-37932067D01*
X51154644Y-37986644D01*
X51161837Y-38056143D01*
X51130315Y-38118497D01*
X51070085Y-38153911D01*
X51007803Y-38153417D01*
X50842339Y-38109081D01*
X50842329Y-38109079D01*
X50620001Y-38089628D01*
X50619999Y-38089628D01*
X50397670Y-38109079D01*
X50397660Y-38109081D01*
X50232195Y-38153417D01*
X50162345Y-38151754D01*
X50104483Y-38112591D01*
X50076979Y-38048363D01*
X50088566Y-37979460D01*
X50128979Y-37932067D01*
X50187522Y-37891074D01*
X49609409Y-37312962D01*
X49672993Y-37295925D01*
X49787007Y-37230099D01*
X49880099Y-37137007D01*
X49945925Y-37022993D01*
X49962962Y-36959410D01*
X50541074Y-37537522D01*
X50561080Y-37535772D01*
X50572997Y-37526246D01*
X50642496Y-37519051D01*
X50674873Y-37535417D01*
X50698924Y-37537522D01*
X51277037Y-36959409D01*
X51294075Y-37022993D01*
G37*
%TD.AperFunction*%
%TA.AperFunction,Conductor*%
G36*
X58134075Y-37022993D02*
G01*
X58199901Y-37137007D01*
X58292993Y-37230099D01*
X58407007Y-37295925D01*
X58470590Y-37312962D01*
X57892476Y-37891074D01*
X57951020Y-37932067D01*
X57994644Y-37986644D01*
X58001837Y-38056143D01*
X57970315Y-38118497D01*
X57910085Y-38153911D01*
X57847803Y-38153417D01*
X57682339Y-38109081D01*
X57682329Y-38109079D01*
X57460001Y-38089628D01*
X57459999Y-38089628D01*
X57237670Y-38109079D01*
X57237660Y-38109081D01*
X57073608Y-38153038D01*
X57003758Y-38151375D01*
X56945896Y-38112212D01*
X56918392Y-38047983D01*
X56929979Y-37979081D01*
X56970388Y-37931691D01*
X57143007Y-37810822D01*
X57300822Y-37653007D01*
X57358731Y-37570304D01*
X57413306Y-37526681D01*
X57482804Y-37519487D01*
X57514199Y-37535358D01*
X57538924Y-37537522D01*
X58117037Y-36959409D01*
X58134075Y-37022993D01*
G37*
%TD.AperFunction*%
%TA.AperFunction,Conductor*%
G36*
X57073608Y-35506961D02*
G01*
X57237666Y-35550920D01*
X57415533Y-35566481D01*
X57459999Y-35570372D01*
X57460000Y-35570372D01*
X57460001Y-35570372D01*
X57497055Y-35567130D01*
X57682334Y-35550920D01*
X57847806Y-35506582D01*
X57917653Y-35508245D01*
X57975516Y-35547407D01*
X58003020Y-35611636D01*
X57991434Y-35680538D01*
X57951019Y-35727933D01*
X57892476Y-35768923D01*
X58470590Y-36347037D01*
X58407007Y-36364075D01*
X58292993Y-36429901D01*
X58199901Y-36522993D01*
X58134075Y-36637007D01*
X58117037Y-36700590D01*
X57538923Y-36122476D01*
X57518640Y-36124251D01*
X57507296Y-36133319D01*
X57437797Y-36140509D01*
X57375444Y-36108984D01*
X57358734Y-36089700D01*
X57300822Y-36006993D01*
X57143007Y-35849178D01*
X56970390Y-35728310D01*
X56926766Y-35673733D01*
X56919574Y-35604235D01*
X56951096Y-35541880D01*
X57011326Y-35506467D01*
X57073608Y-35506961D01*
G37*
%TD.AperFunction*%
%TA.AperFunction,Conductor*%
G36*
X82826922Y-25901280D02*
G01*
X82917266Y-25911459D01*
X82944331Y-25917636D01*
X83023540Y-25945352D01*
X83048553Y-25957398D01*
X83119606Y-26002043D01*
X83141313Y-26019355D01*
X83200644Y-26078686D01*
X83217957Y-26100395D01*
X83262600Y-26171444D01*
X83274648Y-26196462D01*
X83302362Y-26275666D01*
X83308540Y-26302735D01*
X83318720Y-26393076D01*
X83319500Y-26406961D01*
X83319500Y-87893038D01*
X83318720Y-87906923D01*
X83308540Y-87997264D01*
X83302362Y-88024333D01*
X83274648Y-88103537D01*
X83262600Y-88128555D01*
X83217957Y-88199604D01*
X83200644Y-88221313D01*
X83141313Y-88280644D01*
X83119604Y-88297957D01*
X83048555Y-88342600D01*
X83023537Y-88354648D01*
X82944333Y-88382362D01*
X82917264Y-88388540D01*
X82837075Y-88397576D01*
X82826921Y-88398720D01*
X82813038Y-88399500D01*
X26406962Y-88399500D01*
X26393078Y-88398720D01*
X26380553Y-88397308D01*
X26302735Y-88388540D01*
X26275666Y-88382362D01*
X26196462Y-88354648D01*
X26171444Y-88342600D01*
X26100395Y-88297957D01*
X26078686Y-88280644D01*
X26019355Y-88221313D01*
X26002042Y-88199604D01*
X25957399Y-88128555D01*
X25945351Y-88103537D01*
X25917637Y-88024333D01*
X25911459Y-87997263D01*
X25901280Y-87906922D01*
X25900500Y-87893038D01*
X25900500Y-55879998D01*
X26634532Y-55879998D01*
X26634532Y-55880001D01*
X26654364Y-56106686D01*
X26654366Y-56106697D01*
X26713258Y-56326488D01*
X26713261Y-56326497D01*
X26809431Y-56532732D01*
X26809432Y-56532734D01*
X26939954Y-56719141D01*
X27100858Y-56880045D01*
X27100861Y-56880047D01*
X27287266Y-57010568D01*
X27493504Y-57106739D01*
X27713308Y-57165635D01*
X27875230Y-57179801D01*
X27939998Y-57185468D01*
X27940000Y-57185468D01*
X27940002Y-57185468D01*
X27996673Y-57180509D01*
X28166692Y-57165635D01*
X28386496Y-57106739D01*
X28592734Y-57010568D01*
X28779139Y-56880047D01*
X28897345Y-56761840D01*
X28958666Y-56728357D01*
X29028358Y-56733341D01*
X29072706Y-56761842D01*
X29417602Y-57106738D01*
X29801684Y-57490820D01*
X29801686Y-57490821D01*
X29801690Y-57490824D01*
X29938609Y-57569873D01*
X29938616Y-57569877D01*
X30091343Y-57610801D01*
X30091345Y-57610801D01*
X30257054Y-57610801D01*
X30257070Y-57610800D01*
X32784331Y-57610800D01*
X32784347Y-57610801D01*
X32791943Y-57610801D01*
X32950054Y-57610801D01*
X32950057Y-57610801D01*
X33102785Y-57569877D01*
X33152904Y-57540939D01*
X33239716Y-57490820D01*
X33351520Y-57379016D01*
X33351520Y-57379014D01*
X33361728Y-57368807D01*
X33361730Y-57368804D01*
X34230549Y-56499984D01*
X34291870Y-56466501D01*
X34361562Y-56471485D01*
X34417495Y-56513357D01*
X34426398Y-56528225D01*
X34426721Y-56528039D01*
X34429430Y-56532731D01*
X34559954Y-56719141D01*
X34720858Y-56880045D01*
X34720861Y-56880047D01*
X34907266Y-57010568D01*
X35113504Y-57106739D01*
X35333308Y-57165635D01*
X35495230Y-57179801D01*
X35559998Y-57185468D01*
X35560000Y-57185468D01*
X35560002Y-57185468D01*
X35616673Y-57180509D01*
X35786692Y-57165635D01*
X36006496Y-57106739D01*
X36212734Y-57010568D01*
X36399139Y-56880047D01*
X36560047Y-56719139D01*
X36690118Y-56533375D01*
X36744693Y-56489752D01*
X36791692Y-56480500D01*
X37898308Y-56480500D01*
X37965347Y-56500185D01*
X37999880Y-56533374D01*
X38085480Y-56655624D01*
X38129954Y-56719141D01*
X38290858Y-56880045D01*
X38290861Y-56880047D01*
X38477266Y-57010568D01*
X38683504Y-57106739D01*
X38683509Y-57106740D01*
X38683511Y-57106741D01*
X38883118Y-57160225D01*
X38942779Y-57196590D01*
X38973308Y-57259437D01*
X38965013Y-57328812D01*
X38920528Y-57382690D01*
X38853976Y-57403965D01*
X38851025Y-57404000D01*
X37481970Y-57404000D01*
X37481954Y-57403999D01*
X37474358Y-57403999D01*
X37316243Y-57403999D01*
X37239879Y-57424461D01*
X37163514Y-57444923D01*
X37163509Y-57444926D01*
X37026590Y-57523975D01*
X37026582Y-57523981D01*
X33966911Y-60583653D01*
X33905588Y-60617138D01*
X33835896Y-60612154D01*
X33791549Y-60583653D01*
X33764402Y-60556506D01*
X33764399Y-60556504D01*
X33687518Y-60502671D01*
X33570834Y-60420967D01*
X33570830Y-60420965D01*
X33538489Y-60405884D01*
X33356663Y-60321097D01*
X33356659Y-60321096D01*
X33356655Y-60321094D01*
X33128413Y-60259938D01*
X33128403Y-60259936D01*
X32893001Y-60239341D01*
X32892999Y-60239341D01*
X32657596Y-60259936D01*
X32657586Y-60259938D01*
X32429344Y-60321094D01*
X32429335Y-60321098D01*
X32215171Y-60420964D01*
X32215169Y-60420965D01*
X32021600Y-60556503D01*
X31899673Y-60678430D01*
X31838350Y-60711914D01*
X31768658Y-60706930D01*
X31712725Y-60665058D01*
X31695810Y-60634081D01*
X31646797Y-60502671D01*
X31646793Y-60502664D01*
X31560547Y-60387455D01*
X31560544Y-60387452D01*
X31445335Y-60301206D01*
X31445328Y-60301202D01*
X31310482Y-60250908D01*
X31310483Y-60250908D01*
X31250883Y-60244501D01*
X31250881Y-60244500D01*
X31250873Y-60244500D01*
X31250864Y-60244500D01*
X29455129Y-60244500D01*
X29455123Y-60244501D01*
X29395516Y-60250908D01*
X29260671Y-60301202D01*
X29260664Y-60301206D01*
X29145455Y-60387452D01*
X29145452Y-60387455D01*
X29059206Y-60502664D01*
X29059202Y-60502671D01*
X29008908Y-60637517D01*
X29002501Y-60697116D01*
X29002500Y-60697135D01*
X29002500Y-62492870D01*
X29002501Y-62492876D01*
X29008908Y-62552483D01*
X29059202Y-62687328D01*
X29059206Y-62687335D01*
X29145452Y-62802544D01*
X29145455Y-62802547D01*
X29260664Y-62888793D01*
X29260671Y-62888797D01*
X29395517Y-62939091D01*
X29395516Y-62939091D01*
X29402444Y-62939835D01*
X29455127Y-62945500D01*
X31250872Y-62945499D01*
X31310483Y-62939091D01*
X31445331Y-62888796D01*
X31560546Y-62802546D01*
X31646796Y-62687331D01*
X31695810Y-62555916D01*
X31737681Y-62499984D01*
X31803145Y-62475566D01*
X31871418Y-62490417D01*
X31899673Y-62511569D01*
X32021599Y-62633495D01*
X32118384Y-62701265D01*
X32215165Y-62769032D01*
X32215167Y-62769033D01*
X32215170Y-62769035D01*
X32429337Y-62868903D01*
X32657592Y-62930063D01*
X32834034Y-62945500D01*
X32892999Y-62950659D01*
X32893000Y-62950659D01*
X32893001Y-62950659D01*
X32951966Y-62945500D01*
X33128408Y-62930063D01*
X33356663Y-62868903D01*
X33570830Y-62769035D01*
X33764401Y-62633495D01*
X33931495Y-62466401D01*
X34061426Y-62280841D01*
X34116002Y-62237217D01*
X34185500Y-62230023D01*
X34247855Y-62261546D01*
X34264575Y-62280842D01*
X34394278Y-62466078D01*
X34394505Y-62466401D01*
X34561599Y-62633495D01*
X34658384Y-62701265D01*
X34755165Y-62769032D01*
X34755167Y-62769033D01*
X34755170Y-62769035D01*
X34969337Y-62868903D01*
X35197592Y-62930063D01*
X35374034Y-62945500D01*
X35432999Y-62950659D01*
X35433000Y-62950659D01*
X35433001Y-62950659D01*
X35491966Y-62945500D01*
X35668408Y-62930063D01*
X35896663Y-62868903D01*
X36110830Y-62769035D01*
X36304401Y-62633495D01*
X36471495Y-62466401D01*
X36601730Y-62280405D01*
X36656307Y-62236781D01*
X36725805Y-62229587D01*
X36788160Y-62261110D01*
X36804879Y-62280405D01*
X36934890Y-62466078D01*
X37101917Y-62633105D01*
X37295421Y-62768600D01*
X37393560Y-62814363D01*
X37445999Y-62860535D01*
X37465151Y-62927729D01*
X37444935Y-62994610D01*
X37428836Y-63014426D01*
X30508296Y-69934967D01*
X30446973Y-69968452D01*
X30377281Y-69963468D01*
X30346305Y-69946553D01*
X30252331Y-69876204D01*
X30252328Y-69876202D01*
X30117482Y-69825908D01*
X30117483Y-69825908D01*
X30057883Y-69819501D01*
X30057881Y-69819500D01*
X30057873Y-69819500D01*
X30057864Y-69819500D01*
X28362129Y-69819500D01*
X28362123Y-69819501D01*
X28302516Y-69825908D01*
X28167671Y-69876202D01*
X28167664Y-69876206D01*
X28052455Y-69962452D01*
X28052452Y-69962455D01*
X27966206Y-70077664D01*
X27966202Y-70077671D01*
X27915908Y-70212517D01*
X27909501Y-70272116D01*
X27909500Y-70272135D01*
X27909500Y-71967870D01*
X27909501Y-71967876D01*
X27915908Y-72027483D01*
X27966202Y-72162328D01*
X27966206Y-72162335D01*
X28052452Y-72277544D01*
X28052455Y-72277547D01*
X28167664Y-72363793D01*
X28167671Y-72363797D01*
X28302517Y-72414091D01*
X28302516Y-72414091D01*
X28309444Y-72414835D01*
X28362127Y-72420500D01*
X30057872Y-72420499D01*
X30117483Y-72414091D01*
X30252331Y-72363796D01*
X30367546Y-72277546D01*
X30453796Y-72162331D01*
X30504091Y-72027483D01*
X30507862Y-71992401D01*
X30534599Y-71927855D01*
X30591990Y-71888006D01*
X30661816Y-71885511D01*
X30721905Y-71921163D01*
X30732726Y-71934536D01*
X30749956Y-71959143D01*
X30910858Y-72120045D01*
X30910861Y-72120047D01*
X31097266Y-72250568D01*
X31303504Y-72346739D01*
X31523308Y-72405635D01*
X31685230Y-72419801D01*
X31749998Y-72425468D01*
X31750000Y-72425468D01*
X31750002Y-72425468D01*
X31812499Y-72420000D01*
X31976692Y-72405635D01*
X32196496Y-72346739D01*
X32402734Y-72250568D01*
X32589139Y-72120047D01*
X32750047Y-71959139D01*
X32880568Y-71772734D01*
X32907618Y-71714724D01*
X32953790Y-71662285D01*
X33020983Y-71643133D01*
X33087865Y-71663348D01*
X33132382Y-71714725D01*
X33159429Y-71772728D01*
X33159432Y-71772734D01*
X33289954Y-71959141D01*
X33450858Y-72120045D01*
X33450861Y-72120047D01*
X33637266Y-72250568D01*
X33843504Y-72346739D01*
X34063308Y-72405635D01*
X34225230Y-72419801D01*
X34289998Y-72425468D01*
X34290000Y-72425468D01*
X34290002Y-72425468D01*
X34352499Y-72420000D01*
X34516692Y-72405635D01*
X34736496Y-72346739D01*
X34942734Y-72250568D01*
X35129139Y-72120047D01*
X35290047Y-71959139D01*
X35420568Y-71772734D01*
X35420577Y-71772713D01*
X35421663Y-71770834D01*
X35422370Y-71770159D01*
X35423673Y-71768299D01*
X35424046Y-71768560D01*
X35472225Y-71722613D01*
X35496957Y-71713050D01*
X35551702Y-71698382D01*
X35621552Y-71700045D01*
X35679414Y-71739209D01*
X35696174Y-71765748D01*
X35699429Y-71772729D01*
X35699432Y-71772734D01*
X35829954Y-71959141D01*
X35990858Y-72120045D01*
X35990861Y-72120047D01*
X36176624Y-72250118D01*
X36220248Y-72304693D01*
X36229500Y-72351692D01*
X36229500Y-73479802D01*
X36209815Y-73546841D01*
X36193181Y-73567483D01*
X29999481Y-79761182D01*
X29999480Y-79761184D01*
X29954447Y-79839184D01*
X29941992Y-79860754D01*
X29920422Y-79898115D01*
X29920422Y-79898116D01*
X29888626Y-80016777D01*
X29852261Y-80076437D01*
X29821260Y-80097063D01*
X29802169Y-80105965D01*
X29608597Y-80241505D01*
X29441505Y-80408597D01*
X29305965Y-80602169D01*
X29305964Y-80602171D01*
X29206098Y-80816335D01*
X29206094Y-80816344D01*
X29144938Y-81044586D01*
X29144936Y-81044596D01*
X29124341Y-81279999D01*
X29124341Y-81280000D01*
X29144936Y-81515403D01*
X29144938Y-81515413D01*
X29206094Y-81743655D01*
X29206096Y-81743659D01*
X29206097Y-81743663D01*
X29286004Y-81915023D01*
X29305965Y-81957830D01*
X29305967Y-81957834D01*
X29414281Y-82112521D01*
X29441501Y-82151396D01*
X29441506Y-82151402D01*
X29563430Y-82273326D01*
X29596915Y-82334649D01*
X29591931Y-82404341D01*
X29550059Y-82460274D01*
X29519083Y-82477189D01*
X29387669Y-82526203D01*
X29387664Y-82526206D01*
X29272455Y-82612452D01*
X29272452Y-82612455D01*
X29186206Y-82727664D01*
X29186202Y-82727671D01*
X29135908Y-82862517D01*
X29129501Y-82922116D01*
X29129500Y-82922135D01*
X29129500Y-84717870D01*
X29129501Y-84717876D01*
X29135908Y-84777483D01*
X29186202Y-84912328D01*
X29186206Y-84912335D01*
X29272452Y-85027544D01*
X29272455Y-85027547D01*
X29387664Y-85113793D01*
X29387671Y-85113797D01*
X29522517Y-85164091D01*
X29522516Y-85164091D01*
X29529444Y-85164835D01*
X29582127Y-85170500D01*
X31377872Y-85170499D01*
X31437483Y-85164091D01*
X31572331Y-85113796D01*
X31687546Y-85027546D01*
X31773796Y-84912331D01*
X31822810Y-84780916D01*
X31864681Y-84724984D01*
X31930145Y-84700566D01*
X31998418Y-84715417D01*
X32026673Y-84736569D01*
X32148599Y-84858495D01*
X32245384Y-84926265D01*
X32342165Y-84994032D01*
X32342167Y-84994033D01*
X32342170Y-84994035D01*
X32556337Y-85093903D01*
X32784592Y-85155063D01*
X32961034Y-85170500D01*
X33019999Y-85175659D01*
X33020000Y-85175659D01*
X33020001Y-85175659D01*
X33078966Y-85170500D01*
X33255408Y-85155063D01*
X33483663Y-85093903D01*
X33697830Y-84994035D01*
X33891401Y-84858495D01*
X34058495Y-84691401D01*
X34188425Y-84505842D01*
X34243002Y-84462217D01*
X34312500Y-84455023D01*
X34374855Y-84486546D01*
X34391575Y-84505842D01*
X34521500Y-84691395D01*
X34521505Y-84691401D01*
X34688599Y-84858495D01*
X34785384Y-84926265D01*
X34882165Y-84994032D01*
X34882167Y-84994033D01*
X34882170Y-84994035D01*
X35096337Y-85093903D01*
X35324592Y-85155063D01*
X35501034Y-85170500D01*
X35559999Y-85175659D01*
X35560000Y-85175659D01*
X35560001Y-85175659D01*
X35618966Y-85170500D01*
X35795408Y-85155063D01*
X36023663Y-85093903D01*
X36237830Y-84994035D01*
X36431401Y-84858495D01*
X36598495Y-84691401D01*
X36728425Y-84505842D01*
X36783002Y-84462217D01*
X36852500Y-84455023D01*
X36914855Y-84486546D01*
X36931575Y-84505842D01*
X37061500Y-84691395D01*
X37061505Y-84691401D01*
X37228599Y-84858495D01*
X37325384Y-84926265D01*
X37422165Y-84994032D01*
X37422167Y-84994033D01*
X37422170Y-84994035D01*
X37636337Y-85093903D01*
X37864592Y-85155063D01*
X38041034Y-85170500D01*
X38099999Y-85175659D01*
X38100000Y-85175659D01*
X38100001Y-85175659D01*
X38158966Y-85170500D01*
X38335408Y-85155063D01*
X38563663Y-85093903D01*
X38777830Y-84994035D01*
X38971401Y-84858495D01*
X39138495Y-84691401D01*
X39268425Y-84505842D01*
X39323002Y-84462217D01*
X39392500Y-84455023D01*
X39454855Y-84486546D01*
X39471575Y-84505842D01*
X39601500Y-84691395D01*
X39601505Y-84691401D01*
X39768599Y-84858495D01*
X39865384Y-84926265D01*
X39962165Y-84994032D01*
X39962167Y-84994033D01*
X39962170Y-84994035D01*
X40176337Y-85093903D01*
X40404592Y-85155063D01*
X40581034Y-85170500D01*
X40639999Y-85175659D01*
X40640000Y-85175659D01*
X40640001Y-85175659D01*
X40698966Y-85170500D01*
X40875408Y-85155063D01*
X41103663Y-85093903D01*
X41317830Y-84994035D01*
X41511401Y-84858495D01*
X41678495Y-84691401D01*
X41808425Y-84505842D01*
X41863002Y-84462217D01*
X41932500Y-84455023D01*
X41994855Y-84486546D01*
X42011575Y-84505842D01*
X42141500Y-84691395D01*
X42141505Y-84691401D01*
X42308599Y-84858495D01*
X42405384Y-84926265D01*
X42502165Y-84994032D01*
X42502167Y-84994033D01*
X42502170Y-84994035D01*
X42716337Y-85093903D01*
X42944592Y-85155063D01*
X43121034Y-85170500D01*
X43179999Y-85175659D01*
X43180000Y-85175659D01*
X43180001Y-85175659D01*
X43238966Y-85170500D01*
X43415408Y-85155063D01*
X43643663Y-85093903D01*
X43857830Y-84994035D01*
X44051401Y-84858495D01*
X44218495Y-84691401D01*
X44348425Y-84505842D01*
X44403002Y-84462217D01*
X44472500Y-84455023D01*
X44534855Y-84486546D01*
X44551575Y-84505842D01*
X44681500Y-84691395D01*
X44681505Y-84691401D01*
X44848599Y-84858495D01*
X44945384Y-84926265D01*
X45042165Y-84994032D01*
X45042167Y-84994033D01*
X45042170Y-84994035D01*
X45256337Y-85093903D01*
X45484592Y-85155063D01*
X45661034Y-85170500D01*
X45719999Y-85175659D01*
X45720000Y-85175659D01*
X45720001Y-85175659D01*
X45778966Y-85170500D01*
X45955408Y-85155063D01*
X46183663Y-85093903D01*
X46397830Y-84994035D01*
X46591401Y-84858495D01*
X46758495Y-84691401D01*
X46888425Y-84505842D01*
X46943002Y-84462217D01*
X47012500Y-84455023D01*
X47074855Y-84486546D01*
X47091575Y-84505842D01*
X47221500Y-84691395D01*
X47221505Y-84691401D01*
X47388599Y-84858495D01*
X47485384Y-84926265D01*
X47582165Y-84994032D01*
X47582167Y-84994033D01*
X47582170Y-84994035D01*
X47796337Y-85093903D01*
X48024592Y-85155063D01*
X48201034Y-85170500D01*
X48259999Y-85175659D01*
X48260000Y-85175659D01*
X48260001Y-85175659D01*
X48318966Y-85170500D01*
X48495408Y-85155063D01*
X48723663Y-85093903D01*
X48937830Y-84994035D01*
X49131401Y-84858495D01*
X49298495Y-84691401D01*
X49428425Y-84505842D01*
X49483002Y-84462217D01*
X49552500Y-84455023D01*
X49614855Y-84486546D01*
X49631575Y-84505842D01*
X49761500Y-84691395D01*
X49761505Y-84691401D01*
X49928599Y-84858495D01*
X50025384Y-84926265D01*
X50122165Y-84994032D01*
X50122167Y-84994033D01*
X50122170Y-84994035D01*
X50336337Y-85093903D01*
X50564592Y-85155063D01*
X50741034Y-85170500D01*
X50799999Y-85175659D01*
X50800000Y-85175659D01*
X50800001Y-85175659D01*
X50858966Y-85170500D01*
X51035408Y-85155063D01*
X51263663Y-85093903D01*
X51477830Y-84994035D01*
X51671401Y-84858495D01*
X51838495Y-84691401D01*
X51968425Y-84505842D01*
X52023002Y-84462217D01*
X52092500Y-84455023D01*
X52154855Y-84486546D01*
X52171575Y-84505842D01*
X52301500Y-84691395D01*
X52301505Y-84691401D01*
X52468599Y-84858495D01*
X52565384Y-84926265D01*
X52662165Y-84994032D01*
X52662167Y-84994033D01*
X52662170Y-84994035D01*
X52876337Y-85093903D01*
X53104592Y-85155063D01*
X53281034Y-85170500D01*
X53339999Y-85175659D01*
X53340000Y-85175659D01*
X53340001Y-85175659D01*
X53398966Y-85170500D01*
X53575408Y-85155063D01*
X53803663Y-85093903D01*
X54017830Y-84994035D01*
X54211401Y-84858495D01*
X54378495Y-84691401D01*
X54508425Y-84505842D01*
X54563002Y-84462217D01*
X54632500Y-84455023D01*
X54694855Y-84486546D01*
X54711575Y-84505842D01*
X54841500Y-84691395D01*
X54841505Y-84691401D01*
X55008599Y-84858495D01*
X55105384Y-84926265D01*
X55202165Y-84994032D01*
X55202167Y-84994033D01*
X55202170Y-84994035D01*
X55416337Y-85093903D01*
X55644592Y-85155063D01*
X55821034Y-85170500D01*
X55879999Y-85175659D01*
X55880000Y-85175659D01*
X55880001Y-85175659D01*
X55938966Y-85170500D01*
X56115408Y-85155063D01*
X56343663Y-85093903D01*
X56557830Y-84994035D01*
X56751401Y-84858495D01*
X56918495Y-84691401D01*
X57048425Y-84505842D01*
X57103002Y-84462217D01*
X57172500Y-84455023D01*
X57234855Y-84486546D01*
X57251575Y-84505842D01*
X57381500Y-84691395D01*
X57381505Y-84691401D01*
X57548599Y-84858495D01*
X57645384Y-84926265D01*
X57742165Y-84994032D01*
X57742167Y-84994033D01*
X57742170Y-84994035D01*
X57956337Y-85093903D01*
X58184592Y-85155063D01*
X58361034Y-85170500D01*
X58419999Y-85175659D01*
X58420000Y-85175659D01*
X58420001Y-85175659D01*
X58478966Y-85170500D01*
X58655408Y-85155063D01*
X58883663Y-85093903D01*
X59097830Y-84994035D01*
X59291401Y-84858495D01*
X59458495Y-84691401D01*
X59588425Y-84505842D01*
X59643002Y-84462217D01*
X59712500Y-84455023D01*
X59774855Y-84486546D01*
X59791575Y-84505842D01*
X59921500Y-84691395D01*
X59921505Y-84691401D01*
X60088599Y-84858495D01*
X60185384Y-84926265D01*
X60282165Y-84994032D01*
X60282167Y-84994033D01*
X60282170Y-84994035D01*
X60496337Y-85093903D01*
X60724592Y-85155063D01*
X60901034Y-85170500D01*
X60959999Y-85175659D01*
X60960000Y-85175659D01*
X60960001Y-85175659D01*
X61018966Y-85170500D01*
X61195408Y-85155063D01*
X61423663Y-85093903D01*
X61637830Y-84994035D01*
X61831401Y-84858495D01*
X61998495Y-84691401D01*
X62128425Y-84505842D01*
X62183002Y-84462217D01*
X62252500Y-84455023D01*
X62314855Y-84486546D01*
X62331575Y-84505842D01*
X62461500Y-84691395D01*
X62461505Y-84691401D01*
X62628599Y-84858495D01*
X62725384Y-84926265D01*
X62822165Y-84994032D01*
X62822167Y-84994033D01*
X62822170Y-84994035D01*
X63036337Y-85093903D01*
X63264592Y-85155063D01*
X63441034Y-85170500D01*
X63499999Y-85175659D01*
X63500000Y-85175659D01*
X63500001Y-85175659D01*
X63558966Y-85170500D01*
X63735408Y-85155063D01*
X63963663Y-85093903D01*
X64177830Y-84994035D01*
X64371401Y-84858495D01*
X64538495Y-84691401D01*
X64668425Y-84505842D01*
X64723002Y-84462217D01*
X64792500Y-84455023D01*
X64854855Y-84486546D01*
X64871575Y-84505842D01*
X65001500Y-84691395D01*
X65001505Y-84691401D01*
X65168599Y-84858495D01*
X65265384Y-84926265D01*
X65362165Y-84994032D01*
X65362167Y-84994033D01*
X65362170Y-84994035D01*
X65576337Y-85093903D01*
X65804592Y-85155063D01*
X65981034Y-85170500D01*
X66039999Y-85175659D01*
X66040000Y-85175659D01*
X66040001Y-85175659D01*
X66098966Y-85170500D01*
X66275408Y-85155063D01*
X66503663Y-85093903D01*
X66717830Y-84994035D01*
X66911401Y-84858495D01*
X67078495Y-84691401D01*
X67208425Y-84505842D01*
X67263002Y-84462217D01*
X67332500Y-84455023D01*
X67394855Y-84486546D01*
X67411575Y-84505842D01*
X67541500Y-84691395D01*
X67541505Y-84691401D01*
X67708599Y-84858495D01*
X67805384Y-84926265D01*
X67902165Y-84994032D01*
X67902167Y-84994033D01*
X67902170Y-84994035D01*
X68116337Y-85093903D01*
X68344592Y-85155063D01*
X68521034Y-85170500D01*
X68579999Y-85175659D01*
X68580000Y-85175659D01*
X68580001Y-85175659D01*
X68638966Y-85170500D01*
X68815408Y-85155063D01*
X69043663Y-85093903D01*
X69257830Y-84994035D01*
X69451401Y-84858495D01*
X69618495Y-84691401D01*
X69748425Y-84505842D01*
X69803002Y-84462217D01*
X69872500Y-84455023D01*
X69934855Y-84486546D01*
X69951575Y-84505842D01*
X70081500Y-84691395D01*
X70081505Y-84691401D01*
X70248599Y-84858495D01*
X70345384Y-84926265D01*
X70442165Y-84994032D01*
X70442167Y-84994033D01*
X70442170Y-84994035D01*
X70656337Y-85093903D01*
X70884592Y-85155063D01*
X71061034Y-85170500D01*
X71119999Y-85175659D01*
X71120000Y-85175659D01*
X71120001Y-85175659D01*
X71178966Y-85170500D01*
X71355408Y-85155063D01*
X71583663Y-85093903D01*
X71797830Y-84994035D01*
X71991401Y-84858495D01*
X72158495Y-84691401D01*
X72288425Y-84505842D01*
X72343002Y-84462217D01*
X72412500Y-84455023D01*
X72474855Y-84486546D01*
X72491575Y-84505842D01*
X72621500Y-84691395D01*
X72621505Y-84691401D01*
X72788599Y-84858495D01*
X72885384Y-84926265D01*
X72982165Y-84994032D01*
X72982167Y-84994033D01*
X72982170Y-84994035D01*
X73196337Y-85093903D01*
X73424592Y-85155063D01*
X73601034Y-85170500D01*
X73659999Y-85175659D01*
X73660000Y-85175659D01*
X73660001Y-85175659D01*
X73718966Y-85170500D01*
X73895408Y-85155063D01*
X74123663Y-85093903D01*
X74337830Y-84994035D01*
X74531401Y-84858495D01*
X74698495Y-84691401D01*
X74828425Y-84505842D01*
X74883002Y-84462217D01*
X74952500Y-84455023D01*
X75014855Y-84486546D01*
X75031575Y-84505842D01*
X75161500Y-84691395D01*
X75161505Y-84691401D01*
X75328599Y-84858495D01*
X75425384Y-84926265D01*
X75522165Y-84994032D01*
X75522167Y-84994033D01*
X75522170Y-84994035D01*
X75736337Y-85093903D01*
X75964592Y-85155063D01*
X76141034Y-85170500D01*
X76199999Y-85175659D01*
X76200000Y-85175659D01*
X76200001Y-85175659D01*
X76258966Y-85170500D01*
X76435408Y-85155063D01*
X76663663Y-85093903D01*
X76877830Y-84994035D01*
X77071401Y-84858495D01*
X77238495Y-84691401D01*
X77368425Y-84505842D01*
X77423002Y-84462217D01*
X77492500Y-84455023D01*
X77554855Y-84486546D01*
X77571575Y-84505842D01*
X77701500Y-84691395D01*
X77701505Y-84691401D01*
X77868599Y-84858495D01*
X77965384Y-84926265D01*
X78062165Y-84994032D01*
X78062167Y-84994033D01*
X78062170Y-84994035D01*
X78276337Y-85093903D01*
X78504592Y-85155063D01*
X78681034Y-85170500D01*
X78739999Y-85175659D01*
X78740000Y-85175659D01*
X78740001Y-85175659D01*
X78798966Y-85170500D01*
X78975408Y-85155063D01*
X79203663Y-85093903D01*
X79417830Y-84994035D01*
X79611401Y-84858495D01*
X79778495Y-84691401D01*
X79914035Y-84497830D01*
X80013903Y-84283663D01*
X80075063Y-84055408D01*
X80095659Y-83820000D01*
X80075063Y-83584592D01*
X80013903Y-83356337D01*
X79914035Y-83142171D01*
X79908425Y-83134158D01*
X79778494Y-82948597D01*
X79611402Y-82781506D01*
X79611396Y-82781501D01*
X79425842Y-82651575D01*
X79382217Y-82596998D01*
X79375023Y-82527500D01*
X79406546Y-82465145D01*
X79425842Y-82448425D01*
X79488800Y-82404341D01*
X79611401Y-82318495D01*
X79778495Y-82151401D01*
X79914035Y-81957830D01*
X80013903Y-81743663D01*
X80075063Y-81515408D01*
X80095659Y-81280000D01*
X80075063Y-81044592D01*
X80013903Y-80816337D01*
X79914035Y-80602171D01*
X79908425Y-80594158D01*
X79778494Y-80408597D01*
X79611402Y-80241506D01*
X79611395Y-80241501D01*
X79417834Y-80105967D01*
X79417830Y-80105965D01*
X79331134Y-80065538D01*
X79203663Y-80006097D01*
X79203659Y-80006096D01*
X79203655Y-80006094D01*
X78975413Y-79944938D01*
X78975403Y-79944936D01*
X78740001Y-79924341D01*
X78739999Y-79924341D01*
X78504596Y-79944936D01*
X78504586Y-79944938D01*
X78276344Y-80006094D01*
X78276335Y-80006098D01*
X78062171Y-80105964D01*
X78062169Y-80105965D01*
X77868597Y-80241505D01*
X77701505Y-80408597D01*
X77571575Y-80594158D01*
X77516998Y-80637783D01*
X77447500Y-80644977D01*
X77385145Y-80613454D01*
X77368425Y-80594158D01*
X77238494Y-80408597D01*
X77071402Y-80241506D01*
X77071395Y-80241501D01*
X76877834Y-80105967D01*
X76877830Y-80105965D01*
X76791134Y-80065538D01*
X76663663Y-80006097D01*
X76663659Y-80006096D01*
X76663655Y-80006094D01*
X76435413Y-79944938D01*
X76435403Y-79944936D01*
X76200001Y-79924341D01*
X76199999Y-79924341D01*
X75964596Y-79944936D01*
X75964586Y-79944938D01*
X75736344Y-80006094D01*
X75736335Y-80006098D01*
X75522171Y-80105964D01*
X75522169Y-80105965D01*
X75328597Y-80241505D01*
X75161505Y-80408597D01*
X75031575Y-80594158D01*
X74976998Y-80637783D01*
X74907500Y-80644977D01*
X74845145Y-80613454D01*
X74828425Y-80594158D01*
X74698494Y-80408597D01*
X74531402Y-80241506D01*
X74531395Y-80241501D01*
X74337834Y-80105967D01*
X74337830Y-80105965D01*
X74251134Y-80065538D01*
X74123663Y-80006097D01*
X74123659Y-80006096D01*
X74123655Y-80006094D01*
X73895413Y-79944938D01*
X73895403Y-79944936D01*
X73660001Y-79924341D01*
X73659999Y-79924341D01*
X73424596Y-79944936D01*
X73424586Y-79944938D01*
X73196344Y-80006094D01*
X73196335Y-80006098D01*
X72982171Y-80105964D01*
X72982169Y-80105965D01*
X72788597Y-80241505D01*
X72621505Y-80408597D01*
X72491575Y-80594158D01*
X72436998Y-80637783D01*
X72367500Y-80644977D01*
X72305145Y-80613454D01*
X72288425Y-80594158D01*
X72158494Y-80408597D01*
X71991402Y-80241506D01*
X71991395Y-80241501D01*
X71797834Y-80105967D01*
X71797830Y-80105965D01*
X71711134Y-80065538D01*
X71583663Y-80006097D01*
X71583659Y-80006096D01*
X71583655Y-80006094D01*
X71355413Y-79944938D01*
X71355403Y-79944936D01*
X71120001Y-79924341D01*
X71119999Y-79924341D01*
X70884596Y-79944936D01*
X70884586Y-79944938D01*
X70656344Y-80006094D01*
X70656335Y-80006098D01*
X70442171Y-80105964D01*
X70442169Y-80105965D01*
X70248597Y-80241505D01*
X70081505Y-80408597D01*
X69951575Y-80594158D01*
X69896998Y-80637783D01*
X69827500Y-80644977D01*
X69765145Y-80613454D01*
X69748425Y-80594158D01*
X69618494Y-80408597D01*
X69451402Y-80241506D01*
X69451395Y-80241501D01*
X69257834Y-80105967D01*
X69257830Y-80105965D01*
X69171134Y-80065538D01*
X69043663Y-80006097D01*
X69043659Y-80006096D01*
X69043655Y-80006094D01*
X68815413Y-79944938D01*
X68815403Y-79944936D01*
X68580001Y-79924341D01*
X68579999Y-79924341D01*
X68344596Y-79944936D01*
X68344586Y-79944938D01*
X68116344Y-80006094D01*
X68116335Y-80006098D01*
X67902171Y-80105964D01*
X67902169Y-80105965D01*
X67708597Y-80241505D01*
X67541505Y-80408597D01*
X67411575Y-80594158D01*
X67356998Y-80637783D01*
X67287500Y-80644977D01*
X67225145Y-80613454D01*
X67208425Y-80594158D01*
X67078494Y-80408597D01*
X66911402Y-80241506D01*
X66911395Y-80241501D01*
X66717834Y-80105967D01*
X66717830Y-80105965D01*
X66631134Y-80065538D01*
X66503663Y-80006097D01*
X66503659Y-80006096D01*
X66503655Y-80006094D01*
X66275413Y-79944938D01*
X66275403Y-79944936D01*
X66040001Y-79924341D01*
X66039999Y-79924341D01*
X65804596Y-79944936D01*
X65804586Y-79944938D01*
X65576344Y-80006094D01*
X65576335Y-80006098D01*
X65362171Y-80105964D01*
X65362169Y-80105965D01*
X65168597Y-80241505D01*
X65001505Y-80408597D01*
X64871575Y-80594158D01*
X64816998Y-80637783D01*
X64747500Y-80644977D01*
X64685145Y-80613454D01*
X64668425Y-80594158D01*
X64538494Y-80408597D01*
X64371402Y-80241506D01*
X64371395Y-80241501D01*
X64177834Y-80105967D01*
X64177830Y-80105965D01*
X64091134Y-80065538D01*
X63963663Y-80006097D01*
X63963659Y-80006096D01*
X63963655Y-80006094D01*
X63735413Y-79944938D01*
X63735403Y-79944936D01*
X63500001Y-79924341D01*
X63499999Y-79924341D01*
X63264596Y-79944936D01*
X63264586Y-79944938D01*
X63036344Y-80006094D01*
X63036335Y-80006098D01*
X62822171Y-80105964D01*
X62822169Y-80105965D01*
X62628597Y-80241505D01*
X62461505Y-80408597D01*
X62331575Y-80594158D01*
X62276998Y-80637783D01*
X62207500Y-80644977D01*
X62145145Y-80613454D01*
X62128425Y-80594158D01*
X61998494Y-80408597D01*
X61831402Y-80241506D01*
X61831395Y-80241501D01*
X61637834Y-80105967D01*
X61637830Y-80105965D01*
X61551134Y-80065538D01*
X61498695Y-80019366D01*
X61479543Y-79952172D01*
X61499759Y-79885291D01*
X61515853Y-79865480D01*
X65814517Y-75566819D01*
X65875840Y-75533334D01*
X65902198Y-75530500D01*
X76238308Y-75530500D01*
X76305347Y-75550185D01*
X76339880Y-75583374D01*
X76425480Y-75705624D01*
X76469954Y-75769141D01*
X76630858Y-75930045D01*
X76630861Y-75930047D01*
X76817266Y-76060568D01*
X77023504Y-76156739D01*
X77243308Y-76215635D01*
X77405230Y-76229801D01*
X77469998Y-76235468D01*
X77470000Y-76235468D01*
X77470002Y-76235468D01*
X77526673Y-76230509D01*
X77696692Y-76215635D01*
X77916496Y-76156739D01*
X78122734Y-76060568D01*
X78309139Y-75930047D01*
X78470047Y-75769139D01*
X78600568Y-75582734D01*
X78696739Y-75376496D01*
X78755635Y-75156692D01*
X78775468Y-74930000D01*
X78755635Y-74703308D01*
X78696739Y-74483504D01*
X78600568Y-74277266D01*
X78470047Y-74090861D01*
X78470045Y-74090858D01*
X78309141Y-73929954D01*
X78122734Y-73799432D01*
X78122732Y-73799431D01*
X77916497Y-73703261D01*
X77916488Y-73703258D01*
X77696697Y-73644366D01*
X77696693Y-73644365D01*
X77696692Y-73644365D01*
X77696691Y-73644364D01*
X77696686Y-73644364D01*
X77470002Y-73624532D01*
X77469998Y-73624532D01*
X77243313Y-73644364D01*
X77243302Y-73644366D01*
X77023511Y-73703258D01*
X77023502Y-73703261D01*
X76817267Y-73799431D01*
X76817265Y-73799432D01*
X76630858Y-73929954D01*
X76469954Y-74090858D01*
X76419548Y-74162847D01*
X76339881Y-74276624D01*
X76285307Y-74320248D01*
X76238308Y-74329500D01*
X73185197Y-74329500D01*
X73118158Y-74309815D01*
X73072403Y-74257011D01*
X73062459Y-74187853D01*
X73091484Y-74124297D01*
X73097516Y-74117819D01*
X74910642Y-72304693D01*
X80368713Y-66846621D01*
X80368716Y-66846620D01*
X80480520Y-66734816D01*
X80530639Y-66648004D01*
X80559577Y-66597885D01*
X80600501Y-66445157D01*
X80600501Y-66287043D01*
X80600501Y-66279448D01*
X80600500Y-66279430D01*
X80600500Y-52031692D01*
X80620185Y-51964653D01*
X80653374Y-51930119D01*
X80839139Y-51800047D01*
X81000047Y-51639139D01*
X81130568Y-51452734D01*
X81226739Y-51246496D01*
X81285635Y-51026692D01*
X81305468Y-50800000D01*
X81285635Y-50573308D01*
X81226739Y-50353504D01*
X81130568Y-50147266D01*
X81000047Y-49960861D01*
X81000045Y-49960858D01*
X80839141Y-49799954D01*
X80652734Y-49669432D01*
X80652732Y-49669431D01*
X80446497Y-49573261D01*
X80446488Y-49573258D01*
X80226697Y-49514366D01*
X80226693Y-49514365D01*
X80226692Y-49514365D01*
X80226691Y-49514364D01*
X80226686Y-49514364D01*
X80000002Y-49494532D01*
X79999998Y-49494532D01*
X79773313Y-49514364D01*
X79773302Y-49514366D01*
X79553511Y-49573258D01*
X79553502Y-49573261D01*
X79347267Y-49669431D01*
X79347265Y-49669432D01*
X79160858Y-49799954D01*
X78999954Y-49960858D01*
X78869432Y-50147265D01*
X78869431Y-50147267D01*
X78773261Y-50353502D01*
X78773258Y-50353511D01*
X78714366Y-50573302D01*
X78714364Y-50573313D01*
X78694532Y-50799998D01*
X78694532Y-50800001D01*
X78714364Y-51026686D01*
X78714366Y-51026697D01*
X78773258Y-51246488D01*
X78773261Y-51246497D01*
X78869431Y-51452732D01*
X78869432Y-51452734D01*
X78999954Y-51639141D01*
X79160858Y-51800045D01*
X79160861Y-51800047D01*
X79346624Y-51930118D01*
X79390248Y-51984693D01*
X79399500Y-52031692D01*
X79399500Y-66066002D01*
X79379815Y-66133041D01*
X79363181Y-66153683D01*
X78808165Y-66708698D01*
X78746842Y-66742183D01*
X78677150Y-66737199D01*
X78621217Y-66695327D01*
X78608102Y-66673422D01*
X78600569Y-66657268D01*
X78594082Y-66648004D01*
X78470047Y-66470861D01*
X78470045Y-66470858D01*
X78309140Y-66309953D01*
X78123377Y-66179881D01*
X78079752Y-66125304D01*
X78070500Y-66078306D01*
X78070500Y-65848545D01*
X78070500Y-65848543D01*
X78029577Y-65695816D01*
X78029573Y-65695809D01*
X77950524Y-65558890D01*
X77950521Y-65558886D01*
X77950520Y-65558884D01*
X77838716Y-65447080D01*
X77838715Y-65447079D01*
X77834385Y-65442749D01*
X77834374Y-65442739D01*
X70034490Y-57642855D01*
X70034488Y-57642852D01*
X69915617Y-57523981D01*
X69915616Y-57523980D01*
X69828804Y-57473860D01*
X69828804Y-57473859D01*
X69828800Y-57473858D01*
X69778685Y-57444923D01*
X69625957Y-57403999D01*
X69467843Y-57403999D01*
X69460247Y-57403999D01*
X69460231Y-57404000D01*
X66318975Y-57404000D01*
X66251936Y-57384315D01*
X66206181Y-57331511D01*
X66196237Y-57262353D01*
X66225262Y-57198797D01*
X66284040Y-57161023D01*
X66286882Y-57160225D01*
X66432086Y-57121318D01*
X66486496Y-57106739D01*
X66692734Y-57010568D01*
X66879139Y-56880047D01*
X67040047Y-56719139D01*
X67170568Y-56532734D01*
X67266739Y-56326496D01*
X67325635Y-56106692D01*
X67345468Y-55880000D01*
X67325635Y-55653308D01*
X67266739Y-55433504D01*
X67170568Y-55227266D01*
X67040047Y-55040861D01*
X67040045Y-55040858D01*
X66879141Y-54879954D01*
X66692734Y-54749432D01*
X66692732Y-54749431D01*
X66486497Y-54653261D01*
X66486488Y-54653258D01*
X66266697Y-54594366D01*
X66266693Y-54594365D01*
X66266692Y-54594365D01*
X66266691Y-54594364D01*
X66266686Y-54594364D01*
X66040002Y-54574532D01*
X66039998Y-54574532D01*
X65813313Y-54594364D01*
X65813302Y-54594366D01*
X65593511Y-54653258D01*
X65593502Y-54653261D01*
X65387267Y-54749431D01*
X65387265Y-54749432D01*
X65200858Y-54879954D01*
X65039954Y-55040858D01*
X64909432Y-55227265D01*
X64909431Y-55227267D01*
X64813261Y-55433502D01*
X64813258Y-55433511D01*
X64754366Y-55653302D01*
X64754364Y-55653313D01*
X64734532Y-55879998D01*
X64734532Y-55880001D01*
X64754364Y-56106686D01*
X64754366Y-56106697D01*
X64780152Y-56202931D01*
X64778489Y-56272781D01*
X64748059Y-56322705D01*
X64685984Y-56384781D01*
X64624661Y-56418266D01*
X64598302Y-56421100D01*
X63592472Y-56421100D01*
X63525433Y-56401415D01*
X63479678Y-56348611D01*
X63469734Y-56279453D01*
X63472697Y-56265006D01*
X63508872Y-56130000D01*
X62545686Y-56130000D01*
X62550080Y-56125606D01*
X62602741Y-56034394D01*
X62630000Y-55932661D01*
X62630000Y-55827339D01*
X62602741Y-55725606D01*
X62550080Y-55634394D01*
X62545686Y-55630000D01*
X63508872Y-55630000D01*
X63508872Y-55629999D01*
X63456269Y-55433682D01*
X63456265Y-55433673D01*
X63360134Y-55227517D01*
X63229657Y-55041179D01*
X63068820Y-54880342D01*
X62882482Y-54749865D01*
X62676328Y-54653734D01*
X62480000Y-54601127D01*
X62480000Y-55564314D01*
X62475606Y-55559920D01*
X62384394Y-55507259D01*
X62282661Y-55480000D01*
X62177339Y-55480000D01*
X62075606Y-55507259D01*
X61984394Y-55559920D01*
X61980000Y-55564314D01*
X61980000Y-54601127D01*
X61783671Y-54653734D01*
X61577517Y-54749865D01*
X61391179Y-54880342D01*
X61230342Y-55041179D01*
X61099865Y-55227517D01*
X61003734Y-55433673D01*
X61003730Y-55433682D01*
X60951127Y-55629999D01*
X60951128Y-55630000D01*
X61914314Y-55630000D01*
X61909920Y-55634394D01*
X61857259Y-55725606D01*
X61830000Y-55827339D01*
X61830000Y-55932661D01*
X61857259Y-56034394D01*
X61909920Y-56125606D01*
X61914314Y-56130000D01*
X60951128Y-56130000D01*
X60987303Y-56265006D01*
X60985640Y-56334856D01*
X60946478Y-56392719D01*
X60882249Y-56420223D01*
X60867528Y-56421100D01*
X59782472Y-56421100D01*
X59715433Y-56401415D01*
X59669678Y-56348611D01*
X59659734Y-56279453D01*
X59662697Y-56265006D01*
X59698872Y-56130000D01*
X58735686Y-56130000D01*
X58740080Y-56125606D01*
X58792741Y-56034394D01*
X58820000Y-55932661D01*
X58820000Y-55827339D01*
X58792741Y-55725606D01*
X58740080Y-55634394D01*
X58735686Y-55630000D01*
X59698872Y-55630000D01*
X59698872Y-55629999D01*
X59646269Y-55433682D01*
X59646265Y-55433673D01*
X59550134Y-55227517D01*
X59419657Y-55041179D01*
X59258820Y-54880342D01*
X59072482Y-54749865D01*
X58866328Y-54653734D01*
X58670000Y-54601127D01*
X58670000Y-55564314D01*
X58665606Y-55559920D01*
X58574394Y-55507259D01*
X58472661Y-55480000D01*
X58367339Y-55480000D01*
X58265606Y-55507259D01*
X58174394Y-55559920D01*
X58170000Y-55564314D01*
X58170000Y-54601127D01*
X57973671Y-54653734D01*
X57767517Y-54749865D01*
X57581179Y-54880342D01*
X57420342Y-55041179D01*
X57289865Y-55227517D01*
X57193734Y-55433673D01*
X57193730Y-55433682D01*
X57141127Y-55629999D01*
X57141128Y-55630000D01*
X58104314Y-55630000D01*
X58099920Y-55634394D01*
X58047259Y-55725606D01*
X58020000Y-55827339D01*
X58020000Y-55932661D01*
X58047259Y-56034394D01*
X58099920Y-56125606D01*
X58104314Y-56130000D01*
X57141128Y-56130000D01*
X57141127Y-56130001D01*
X57142797Y-56136232D01*
X57141134Y-56206082D01*
X57101971Y-56263944D01*
X57037742Y-56291448D01*
X56968840Y-56279861D01*
X56935341Y-56256006D01*
X56197690Y-55518355D01*
X56197688Y-55518352D01*
X56078817Y-55399481D01*
X56078809Y-55399475D01*
X55974888Y-55339477D01*
X55974887Y-55339476D01*
X55974887Y-55339477D01*
X55941885Y-55320423D01*
X55816962Y-55286949D01*
X55757303Y-55250585D01*
X55741671Y-55229178D01*
X55740572Y-55227276D01*
X55740568Y-55227266D01*
X55610047Y-55040861D01*
X55610045Y-55040858D01*
X55449141Y-54879954D01*
X55262734Y-54749432D01*
X55262732Y-54749431D01*
X55056497Y-54653261D01*
X55056488Y-54653258D01*
X54836697Y-54594366D01*
X54836688Y-54594364D01*
X54791870Y-54590443D01*
X54726802Y-54564989D01*
X54685825Y-54508398D01*
X54681948Y-54438636D01*
X54714997Y-54379236D01*
X59142098Y-49952135D01*
X71099500Y-49952135D01*
X71099500Y-51647870D01*
X71099501Y-51647876D01*
X71105908Y-51707483D01*
X71156202Y-51842328D01*
X71156206Y-51842335D01*
X71242452Y-51957544D01*
X71242455Y-51957547D01*
X71357664Y-52043793D01*
X71357671Y-52043797D01*
X71492517Y-52094091D01*
X71492516Y-52094091D01*
X71499444Y-52094835D01*
X71552127Y-52100500D01*
X73247872Y-52100499D01*
X73307483Y-52094091D01*
X73442331Y-52043796D01*
X73557546Y-51957546D01*
X73643796Y-51842331D01*
X73694091Y-51707483D01*
X73700500Y-51647873D01*
X73700499Y-49952128D01*
X73694091Y-49892517D01*
X73659567Y-49799954D01*
X73643797Y-49757671D01*
X73643793Y-49757664D01*
X73557547Y-49642455D01*
X73557544Y-49642452D01*
X73442335Y-49556206D01*
X73442328Y-49556202D01*
X73307482Y-49505908D01*
X73307483Y-49505908D01*
X73247883Y-49499501D01*
X73247881Y-49499500D01*
X73247873Y-49499500D01*
X73247864Y-49499500D01*
X71552129Y-49499500D01*
X71552123Y-49499501D01*
X71492516Y-49505908D01*
X71357671Y-49556202D01*
X71357664Y-49556206D01*
X71242455Y-49642452D01*
X71242452Y-49642455D01*
X71156206Y-49757664D01*
X71156202Y-49757671D01*
X71105908Y-49892517D01*
X71099501Y-49952116D01*
X71099501Y-49952123D01*
X71099500Y-49952135D01*
X59142098Y-49952135D01*
X60729236Y-48364997D01*
X60790557Y-48331514D01*
X60860249Y-48336498D01*
X60916182Y-48378370D01*
X60940443Y-48441870D01*
X60944364Y-48486688D01*
X60944366Y-48486697D01*
X61003258Y-48706488D01*
X61003261Y-48706497D01*
X61099431Y-48912732D01*
X61099432Y-48912734D01*
X61229954Y-49099141D01*
X61390858Y-49260045D01*
X61390861Y-49260047D01*
X61577266Y-49390568D01*
X61783504Y-49486739D01*
X62003308Y-49545635D01*
X62165230Y-49559801D01*
X62229998Y-49565468D01*
X62230000Y-49565468D01*
X62230002Y-49565468D01*
X62286673Y-49560509D01*
X62456692Y-49545635D01*
X62676496Y-49486739D01*
X62882734Y-49390568D01*
X63069139Y-49260047D01*
X63230047Y-49099139D01*
X63360568Y-48912734D01*
X63456739Y-48706496D01*
X63515635Y-48486692D01*
X63535468Y-48260000D01*
X63515635Y-48033308D01*
X63509389Y-48009999D01*
X64761127Y-48009999D01*
X64761128Y-48010000D01*
X65724314Y-48010000D01*
X65719920Y-48014394D01*
X65667259Y-48105606D01*
X65640000Y-48207339D01*
X65640000Y-48312661D01*
X65667259Y-48414394D01*
X65719920Y-48505606D01*
X65724314Y-48510000D01*
X64761128Y-48510000D01*
X64813730Y-48706317D01*
X64813734Y-48706326D01*
X64909865Y-48912482D01*
X65040342Y-49098820D01*
X65201179Y-49259657D01*
X65387517Y-49390134D01*
X65593673Y-49486265D01*
X65593682Y-49486269D01*
X65789999Y-49538872D01*
X65790000Y-49538871D01*
X65790000Y-48575686D01*
X65794394Y-48580080D01*
X65885606Y-48632741D01*
X65987339Y-48660000D01*
X66092661Y-48660000D01*
X66194394Y-48632741D01*
X66285606Y-48580080D01*
X66290000Y-48575686D01*
X66290000Y-49538872D01*
X66486317Y-49486269D01*
X66486326Y-49486265D01*
X66692482Y-49390134D01*
X66878820Y-49259657D01*
X67039657Y-49098820D01*
X67170134Y-48912482D01*
X67266265Y-48706326D01*
X67266269Y-48706317D01*
X67318872Y-48510000D01*
X66355686Y-48510000D01*
X66360080Y-48505606D01*
X66412741Y-48414394D01*
X66440000Y-48312661D01*
X66440000Y-48207339D01*
X66412741Y-48105606D01*
X66360080Y-48014394D01*
X66355686Y-48010000D01*
X67318872Y-48010000D01*
X67318872Y-48009999D01*
X67266269Y-47813682D01*
X67266265Y-47813673D01*
X67170134Y-47607517D01*
X67039657Y-47421179D01*
X66878820Y-47260342D01*
X66692482Y-47129865D01*
X66486328Y-47033734D01*
X66290000Y-46981127D01*
X66290000Y-47944314D01*
X66285606Y-47939920D01*
X66194394Y-47887259D01*
X66092661Y-47860000D01*
X65987339Y-47860000D01*
X65885606Y-47887259D01*
X65794394Y-47939920D01*
X65790000Y-47944314D01*
X65790000Y-46981127D01*
X65593671Y-47033734D01*
X65387517Y-47129865D01*
X65201179Y-47260342D01*
X65040342Y-47421179D01*
X64909865Y-47607517D01*
X64813734Y-47813673D01*
X64813730Y-47813682D01*
X64761127Y-48009999D01*
X63509389Y-48009999D01*
X63456739Y-47813504D01*
X63360568Y-47607266D01*
X63230047Y-47420861D01*
X63230045Y-47420858D01*
X63069141Y-47259954D01*
X62882734Y-47129432D01*
X62882732Y-47129431D01*
X62676497Y-47033261D01*
X62676488Y-47033258D01*
X62456697Y-46974366D01*
X62456693Y-46974365D01*
X62456692Y-46974365D01*
X62456691Y-46974364D01*
X62456686Y-46974364D01*
X62230002Y-46954532D01*
X62229998Y-46954532D01*
X62003313Y-46974364D01*
X62003302Y-46974366D01*
X61783511Y-47033258D01*
X61783502Y-47033262D01*
X61609173Y-47114553D01*
X61540095Y-47125045D01*
X61476311Y-47096525D01*
X61469087Y-47089852D01*
X55229738Y-40850503D01*
X55196253Y-40789180D01*
X55201237Y-40719488D01*
X55243109Y-40663555D01*
X55306609Y-40639294D01*
X55402334Y-40630920D01*
X55617913Y-40573156D01*
X55820186Y-40478835D01*
X56003007Y-40350822D01*
X56160822Y-40193007D01*
X56218427Y-40110737D01*
X56273002Y-40067115D01*
X56342501Y-40059923D01*
X56404855Y-40091445D01*
X56421569Y-40110733D01*
X56479178Y-40193007D01*
X56636993Y-40350822D01*
X56819814Y-40478835D01*
X57022087Y-40573156D01*
X57237666Y-40630920D01*
X57415533Y-40646481D01*
X57459999Y-40650372D01*
X57460000Y-40650372D01*
X57460001Y-40650372D01*
X57497055Y-40647130D01*
X57682334Y-40630920D01*
X57897913Y-40573156D01*
X58100186Y-40478835D01*
X58283007Y-40350822D01*
X58440822Y-40193007D01*
X58498731Y-40110304D01*
X58553306Y-40066681D01*
X58622804Y-40059487D01*
X58654199Y-40075358D01*
X58678924Y-40077522D01*
X59257037Y-39499409D01*
X59274075Y-39562993D01*
X59339901Y-39677007D01*
X59432993Y-39770099D01*
X59547007Y-39835925D01*
X59610590Y-39852962D01*
X59032476Y-40431074D01*
X59032477Y-40431075D01*
X59100062Y-40478398D01*
X59100064Y-40478399D01*
X59302252Y-40572681D01*
X59302263Y-40572685D01*
X59517751Y-40630425D01*
X59517758Y-40630426D01*
X59739998Y-40649870D01*
X59740002Y-40649870D01*
X59962241Y-40630426D01*
X59962248Y-40630425D01*
X60177736Y-40572685D01*
X60177747Y-40572681D01*
X60379931Y-40478401D01*
X60379933Y-40478400D01*
X60447522Y-40431074D01*
X59869409Y-39852962D01*
X59932993Y-39835925D01*
X60047007Y-39770099D01*
X60140099Y-39677007D01*
X60205925Y-39562993D01*
X60222962Y-39499409D01*
X60801074Y-40077522D01*
X60848400Y-40009933D01*
X60848401Y-40009931D01*
X60942681Y-39807747D01*
X60942685Y-39807736D01*
X61000425Y-39592248D01*
X61000426Y-39592241D01*
X61019870Y-39370001D01*
X61019870Y-39369998D01*
X61000426Y-39147758D01*
X61000425Y-39147751D01*
X60942685Y-38932263D01*
X60942681Y-38932252D01*
X60848399Y-38730064D01*
X60848398Y-38730062D01*
X60801075Y-38662477D01*
X60801074Y-38662476D01*
X60222962Y-39240589D01*
X60205925Y-39177007D01*
X60140099Y-39062993D01*
X60047007Y-38969901D01*
X59932993Y-38904075D01*
X59869410Y-38887037D01*
X60447522Y-38308924D01*
X60447521Y-38308923D01*
X60379937Y-38261601D01*
X60379935Y-38261600D01*
X60177747Y-38167318D01*
X60177736Y-38167314D01*
X59962248Y-38109574D01*
X59962241Y-38109573D01*
X59740002Y-38090130D01*
X59739998Y-38090130D01*
X59517758Y-38109573D01*
X59517747Y-38109575D01*
X59350997Y-38154256D01*
X59281148Y-38152593D01*
X59223285Y-38113430D01*
X59195781Y-38049202D01*
X59207368Y-37980300D01*
X59247781Y-37932906D01*
X59307522Y-37891074D01*
X58729409Y-37312962D01*
X58792993Y-37295925D01*
X58907007Y-37230099D01*
X59000099Y-37137007D01*
X59065925Y-37022993D01*
X59082962Y-36959409D01*
X59661074Y-37537522D01*
X59708400Y-37469933D01*
X59708401Y-37469931D01*
X59802681Y-37267747D01*
X59802685Y-37267736D01*
X59860425Y-37052248D01*
X59860426Y-37052241D01*
X59879870Y-36830001D01*
X59879870Y-36829998D01*
X59879870Y-36829996D01*
X64204584Y-36829996D01*
X64204584Y-36830003D01*
X64224229Y-37167298D01*
X64224230Y-37167309D01*
X64282896Y-37500017D01*
X64282899Y-37500031D01*
X64379801Y-37823710D01*
X64513621Y-38133939D01*
X64513627Y-38133952D01*
X64682560Y-38426553D01*
X64884318Y-38697561D01*
X64884323Y-38697567D01*
X64914747Y-38729814D01*
X65116183Y-38943323D01*
X65116189Y-38943328D01*
X65116191Y-38943330D01*
X65375001Y-39160499D01*
X65439561Y-39202960D01*
X65657292Y-39346164D01*
X65959224Y-39497800D01*
X66276717Y-39613358D01*
X66605480Y-39691276D01*
X66941065Y-39730500D01*
X66941072Y-39730500D01*
X67278928Y-39730500D01*
X67278935Y-39730500D01*
X67614520Y-39691276D01*
X67943283Y-39613358D01*
X68260776Y-39497800D01*
X68562708Y-39346164D01*
X68844994Y-39160502D01*
X68860292Y-39147666D01*
X69016671Y-39016447D01*
X69103817Y-38943323D01*
X69335678Y-38697565D01*
X69537440Y-38426552D01*
X69706375Y-38133948D01*
X69840198Y-37823711D01*
X69937100Y-37500035D01*
X69995771Y-37167298D01*
X70015416Y-36830000D01*
X69995771Y-36492702D01*
X69937100Y-36159965D01*
X69840198Y-35836289D01*
X69706375Y-35526052D01*
X69537440Y-35233448D01*
X69537439Y-35233446D01*
X69335681Y-34962438D01*
X69335676Y-34962432D01*
X69223564Y-34843601D01*
X69103817Y-34716677D01*
X69103810Y-34716671D01*
X69103808Y-34716669D01*
X68844998Y-34499500D01*
X68703851Y-34406667D01*
X68562708Y-34313836D01*
X68515245Y-34289999D01*
X68260783Y-34162203D01*
X68260777Y-34162200D01*
X67943284Y-34046642D01*
X67943281Y-34046641D01*
X67716639Y-33992926D01*
X67614520Y-33968724D01*
X67278935Y-33929500D01*
X66941065Y-33929500D01*
X66605480Y-33968724D01*
X66276718Y-34046641D01*
X66276715Y-34046642D01*
X65959222Y-34162200D01*
X65959216Y-34162203D01*
X65657295Y-34313834D01*
X65375001Y-34499500D01*
X65116191Y-34716669D01*
X65116181Y-34716679D01*
X64884323Y-34962432D01*
X64884318Y-34962438D01*
X64682560Y-35233446D01*
X64513627Y-35526047D01*
X64513621Y-35526060D01*
X64379801Y-35836289D01*
X64282899Y-36159968D01*
X64282896Y-36159982D01*
X64224230Y-36492690D01*
X64224229Y-36492701D01*
X64204584Y-36829996D01*
X59879870Y-36829996D01*
X59860426Y-36607758D01*
X59860425Y-36607751D01*
X59802685Y-36392263D01*
X59802681Y-36392252D01*
X59708399Y-36190064D01*
X59708398Y-36190062D01*
X59661075Y-36122477D01*
X59661074Y-36122476D01*
X59082962Y-36700589D01*
X59065925Y-36637007D01*
X59000099Y-36522993D01*
X58907007Y-36429901D01*
X58792993Y-36364075D01*
X58729410Y-36347037D01*
X59307522Y-35768924D01*
X59248979Y-35727932D01*
X59205355Y-35673355D01*
X59198162Y-35603856D01*
X59229684Y-35541502D01*
X59289914Y-35506088D01*
X59352193Y-35506581D01*
X59517666Y-35550920D01*
X59695533Y-35566481D01*
X59739999Y-35570372D01*
X59740000Y-35570372D01*
X59740001Y-35570372D01*
X59777055Y-35567130D01*
X59962334Y-35550920D01*
X60177913Y-35493156D01*
X60380186Y-35398835D01*
X60563007Y-35270822D01*
X60720822Y-35113007D01*
X60848835Y-34930186D01*
X60943156Y-34727913D01*
X61000920Y-34512334D01*
X61020372Y-34290000D01*
X61000920Y-34067666D01*
X60943156Y-33852087D01*
X60848835Y-33649814D01*
X60720822Y-33466993D01*
X60563007Y-33309178D01*
X60380186Y-33181165D01*
X60177913Y-33086844D01*
X60177909Y-33086843D01*
X60177905Y-33086841D01*
X59962339Y-33029081D01*
X59962329Y-33029079D01*
X59740001Y-33009628D01*
X59739999Y-33009628D01*
X59517670Y-33029079D01*
X59517660Y-33029081D01*
X59302094Y-33086841D01*
X59302087Y-33086843D01*
X59302087Y-33086844D01*
X59099814Y-33181165D01*
X58916993Y-33309178D01*
X58916991Y-33309179D01*
X58916988Y-33309182D01*
X58759178Y-33466992D01*
X58701574Y-33549259D01*
X58646997Y-33592884D01*
X58577499Y-33600076D01*
X58515144Y-33568553D01*
X58498426Y-33549259D01*
X58440821Y-33466992D01*
X58283011Y-33309182D01*
X58283007Y-33309178D01*
X58100186Y-33181165D01*
X57897913Y-33086844D01*
X57897909Y-33086843D01*
X57897905Y-33086841D01*
X57682339Y-33029081D01*
X57682329Y-33029079D01*
X57460001Y-33009628D01*
X57459999Y-33009628D01*
X57237670Y-33029079D01*
X57237660Y-33029081D01*
X57022094Y-33086841D01*
X57022087Y-33086843D01*
X57022087Y-33086844D01*
X56819814Y-33181165D01*
X56636993Y-33309178D01*
X56636991Y-33309179D01*
X56636988Y-33309182D01*
X56479178Y-33466992D01*
X56421574Y-33549259D01*
X56366997Y-33592884D01*
X56297499Y-33600076D01*
X56235144Y-33568553D01*
X56218426Y-33549259D01*
X56160821Y-33466992D01*
X56003011Y-33309182D01*
X56003007Y-33309178D01*
X55820186Y-33181165D01*
X55617913Y-33086844D01*
X55617909Y-33086843D01*
X55617905Y-33086841D01*
X55402339Y-33029081D01*
X55402329Y-33029079D01*
X55180001Y-33009628D01*
X55179999Y-33009628D01*
X54957670Y-33029079D01*
X54957660Y-33029081D01*
X54742094Y-33086841D01*
X54742087Y-33086843D01*
X54742087Y-33086844D01*
X54539814Y-33181165D01*
X54356993Y-33309178D01*
X54356991Y-33309179D01*
X54356988Y-33309182D01*
X54199178Y-33466992D01*
X54141574Y-33549259D01*
X54086997Y-33592884D01*
X54017499Y-33600076D01*
X53955144Y-33568553D01*
X53938426Y-33549259D01*
X53880821Y-33466992D01*
X53723011Y-33309182D01*
X53723007Y-33309178D01*
X53540186Y-33181165D01*
X53337913Y-33086844D01*
X53337909Y-33086843D01*
X53337905Y-33086841D01*
X53122339Y-33029081D01*
X53122329Y-33029079D01*
X52900001Y-33009628D01*
X52899999Y-33009628D01*
X52677670Y-33029079D01*
X52677660Y-33029081D01*
X52462094Y-33086841D01*
X52462087Y-33086843D01*
X52462087Y-33086844D01*
X52259814Y-33181165D01*
X52076993Y-33309178D01*
X52076991Y-33309179D01*
X52076988Y-33309182D01*
X51919178Y-33466992D01*
X51861574Y-33549259D01*
X51806997Y-33592884D01*
X51737499Y-33600076D01*
X51675144Y-33568553D01*
X51658426Y-33549259D01*
X51600821Y-33466992D01*
X51443011Y-33309182D01*
X51443007Y-33309178D01*
X51260186Y-33181165D01*
X51057913Y-33086844D01*
X51057909Y-33086843D01*
X51057905Y-33086841D01*
X50842339Y-33029081D01*
X50842329Y-33029079D01*
X50620001Y-33009628D01*
X50619999Y-33009628D01*
X50397670Y-33029079D01*
X50397660Y-33029081D01*
X50182094Y-33086841D01*
X50182087Y-33086843D01*
X50182087Y-33086844D01*
X49979814Y-33181165D01*
X49796993Y-33309178D01*
X49796991Y-33309179D01*
X49796988Y-33309182D01*
X49639182Y-33466988D01*
X49511165Y-33649814D01*
X49416845Y-33852085D01*
X49416841Y-33852094D01*
X49359081Y-34067660D01*
X49359079Y-34067670D01*
X49339628Y-34289999D01*
X49339628Y-34290000D01*
X49359079Y-34512329D01*
X49359081Y-34512339D01*
X49416841Y-34727905D01*
X49416843Y-34727909D01*
X49416844Y-34727913D01*
X49480000Y-34863352D01*
X49511165Y-34930186D01*
X49511168Y-34930190D01*
X49517040Y-34938577D01*
X49539368Y-35004784D01*
X49522356Y-35072551D01*
X49471408Y-35120363D01*
X49415465Y-35133700D01*
X49132270Y-35133700D01*
X49132254Y-35133699D01*
X49124658Y-35133699D01*
X48966543Y-35133699D01*
X48813815Y-35174623D01*
X48711931Y-35233446D01*
X48676881Y-35253682D01*
X36864581Y-47065982D01*
X36864579Y-47065985D01*
X36836539Y-47114553D01*
X36830095Y-47125715D01*
X36785523Y-47202915D01*
X36770239Y-47259954D01*
X36747404Y-47345174D01*
X36711038Y-47404835D01*
X36648191Y-47435363D01*
X36578816Y-47427068D01*
X36539948Y-47400761D01*
X36399141Y-47259954D01*
X36212734Y-47129432D01*
X36212732Y-47129431D01*
X36006497Y-47033261D01*
X36006488Y-47033258D01*
X35786697Y-46974366D01*
X35786693Y-46974365D01*
X35786692Y-46974365D01*
X35786691Y-46974364D01*
X35786686Y-46974364D01*
X35560002Y-46954532D01*
X35559998Y-46954532D01*
X35333313Y-46974364D01*
X35333302Y-46974366D01*
X35113511Y-47033258D01*
X35113502Y-47033261D01*
X34907267Y-47129431D01*
X34907265Y-47129432D01*
X34720858Y-47259954D01*
X34559954Y-47420858D01*
X34429432Y-47607265D01*
X34429431Y-47607267D01*
X34333261Y-47813502D01*
X34333258Y-47813511D01*
X34274366Y-48033302D01*
X34274364Y-48033313D01*
X34254532Y-48259998D01*
X34254532Y-48260001D01*
X34274364Y-48486686D01*
X34274366Y-48486697D01*
X34333258Y-48706488D01*
X34333261Y-48706497D01*
X34429431Y-48912732D01*
X34429432Y-48912734D01*
X34559954Y-49099141D01*
X34720858Y-49260045D01*
X34720861Y-49260047D01*
X34907266Y-49390568D01*
X35113504Y-49486739D01*
X35333308Y-49545635D01*
X35495230Y-49559801D01*
X35559998Y-49565468D01*
X35560000Y-49565468D01*
X35560002Y-49565468D01*
X35616673Y-49560509D01*
X35786692Y-49545635D01*
X35815525Y-49537909D01*
X35885374Y-49539572D01*
X35943237Y-49578734D01*
X35970741Y-49642962D01*
X35959155Y-49711865D01*
X35935299Y-49745365D01*
X31269481Y-54411182D01*
X31269479Y-54411184D01*
X31253631Y-54438636D01*
X31242072Y-54458657D01*
X31219299Y-54498100D01*
X31190424Y-54548112D01*
X31190423Y-54548114D01*
X31190423Y-54548115D01*
X31178031Y-54594364D01*
X31156950Y-54673037D01*
X31120584Y-54732697D01*
X31099190Y-54748321D01*
X31097267Y-54749431D01*
X30910858Y-54879954D01*
X30749954Y-55040858D01*
X30619432Y-55227265D01*
X30619431Y-55227267D01*
X30523261Y-55433502D01*
X30523258Y-55433511D01*
X30464366Y-55653302D01*
X30464364Y-55653313D01*
X30444532Y-55879998D01*
X30444532Y-55880001D01*
X30464364Y-56106686D01*
X30464367Y-56106700D01*
X30472090Y-56135525D01*
X30470426Y-56205375D01*
X30431263Y-56263237D01*
X30367034Y-56290740D01*
X30298132Y-56279153D01*
X30264634Y-56255298D01*
X29527690Y-55518355D01*
X29527688Y-55518352D01*
X29408817Y-55399481D01*
X29408809Y-55399475D01*
X29304888Y-55339477D01*
X29304887Y-55339476D01*
X29304887Y-55339477D01*
X29271885Y-55320423D01*
X29146962Y-55286949D01*
X29087303Y-55250585D01*
X29071671Y-55229178D01*
X29070572Y-55227276D01*
X29070568Y-55227266D01*
X28940047Y-55040861D01*
X28940045Y-55040858D01*
X28779141Y-54879954D01*
X28592734Y-54749432D01*
X28592732Y-54749431D01*
X28386497Y-54653261D01*
X28386488Y-54653258D01*
X28166697Y-54594366D01*
X28166693Y-54594365D01*
X28166692Y-54594365D01*
X28166691Y-54594364D01*
X28166686Y-54594364D01*
X27940002Y-54574532D01*
X27939998Y-54574532D01*
X27713313Y-54594364D01*
X27713302Y-54594366D01*
X27493511Y-54653258D01*
X27493502Y-54653261D01*
X27287267Y-54749431D01*
X27287265Y-54749432D01*
X27100858Y-54879954D01*
X26939954Y-55040858D01*
X26809432Y-55227265D01*
X26809431Y-55227267D01*
X26713261Y-55433502D01*
X26713258Y-55433511D01*
X26654366Y-55653302D01*
X26654364Y-55653313D01*
X26634532Y-55879998D01*
X25900500Y-55879998D01*
X25900500Y-48259998D01*
X26634532Y-48259998D01*
X26634532Y-48260001D01*
X26654364Y-48486686D01*
X26654366Y-48486697D01*
X26713258Y-48706488D01*
X26713261Y-48706497D01*
X26809431Y-48912732D01*
X26809432Y-48912734D01*
X26939954Y-49099141D01*
X27100858Y-49260045D01*
X27100861Y-49260047D01*
X27287266Y-49390568D01*
X27493504Y-49486739D01*
X27713308Y-49545635D01*
X27875230Y-49559801D01*
X27939998Y-49565468D01*
X27940000Y-49565468D01*
X27940002Y-49565468D01*
X27996673Y-49560509D01*
X28166692Y-49545635D01*
X28386496Y-49486739D01*
X28592734Y-49390568D01*
X28779139Y-49260047D01*
X28940047Y-49099139D01*
X29070568Y-48912734D01*
X29166739Y-48706496D01*
X29225635Y-48486692D01*
X29245468Y-48260000D01*
X29245468Y-48259998D01*
X30444532Y-48259998D01*
X30444532Y-48260001D01*
X30464364Y-48486686D01*
X30464366Y-48486697D01*
X30523258Y-48706488D01*
X30523261Y-48706497D01*
X30619431Y-48912732D01*
X30619432Y-48912734D01*
X30749954Y-49099141D01*
X30910858Y-49260045D01*
X30910861Y-49260047D01*
X31097266Y-49390568D01*
X31303504Y-49486739D01*
X31523308Y-49545635D01*
X31685230Y-49559801D01*
X31749998Y-49565468D01*
X31750000Y-49565468D01*
X31750002Y-49565468D01*
X31806673Y-49560509D01*
X31976692Y-49545635D01*
X32196496Y-49486739D01*
X32402734Y-49390568D01*
X32589139Y-49260047D01*
X32750047Y-49099139D01*
X32880568Y-48912734D01*
X32976739Y-48706496D01*
X33035635Y-48486692D01*
X33055468Y-48260000D01*
X33035635Y-48033308D01*
X32976739Y-47813504D01*
X32880568Y-47607266D01*
X32750047Y-47420861D01*
X32750045Y-47420858D01*
X32589141Y-47259954D01*
X32402734Y-47129432D01*
X32402732Y-47129431D01*
X32196497Y-47033261D01*
X32196488Y-47033258D01*
X31976697Y-46974366D01*
X31976693Y-46974365D01*
X31976692Y-46974365D01*
X31976691Y-46974364D01*
X31976686Y-46974364D01*
X31750002Y-46954532D01*
X31749998Y-46954532D01*
X31523313Y-46974364D01*
X31523302Y-46974366D01*
X31303511Y-47033258D01*
X31303502Y-47033261D01*
X31097267Y-47129431D01*
X31097265Y-47129432D01*
X30910858Y-47259954D01*
X30749954Y-47420858D01*
X30619432Y-47607265D01*
X30619431Y-47607267D01*
X30523261Y-47813502D01*
X30523258Y-47813511D01*
X30464366Y-48033302D01*
X30464364Y-48033313D01*
X30444532Y-48259998D01*
X29245468Y-48259998D01*
X29225635Y-48033308D01*
X29166739Y-47813504D01*
X29070568Y-47607266D01*
X28940047Y-47420861D01*
X28940045Y-47420858D01*
X28779141Y-47259954D01*
X28592734Y-47129432D01*
X28592732Y-47129431D01*
X28386497Y-47033261D01*
X28386488Y-47033258D01*
X28166697Y-46974366D01*
X28166693Y-46974365D01*
X28166692Y-46974365D01*
X28166691Y-46974364D01*
X28166686Y-46974364D01*
X27940002Y-46954532D01*
X27939998Y-46954532D01*
X27713313Y-46974364D01*
X27713302Y-46974366D01*
X27493511Y-47033258D01*
X27493502Y-47033261D01*
X27287267Y-47129431D01*
X27287265Y-47129432D01*
X27100858Y-47259954D01*
X26939954Y-47420858D01*
X26809432Y-47607265D01*
X26809431Y-47607267D01*
X26713261Y-47813502D01*
X26713258Y-47813511D01*
X26654366Y-48033302D01*
X26654364Y-48033313D01*
X26634532Y-48259998D01*
X25900500Y-48259998D01*
X25900500Y-36829996D01*
X39204584Y-36829996D01*
X39204584Y-36830003D01*
X39224229Y-37167298D01*
X39224230Y-37167309D01*
X39282896Y-37500017D01*
X39282899Y-37500031D01*
X39379801Y-37823710D01*
X39513621Y-38133939D01*
X39513627Y-38133952D01*
X39682560Y-38426553D01*
X39884318Y-38697561D01*
X39884323Y-38697567D01*
X39914747Y-38729814D01*
X40116183Y-38943323D01*
X40116189Y-38943328D01*
X40116191Y-38943330D01*
X40375001Y-39160499D01*
X40439561Y-39202960D01*
X40657292Y-39346164D01*
X40959224Y-39497800D01*
X41276717Y-39613358D01*
X41605480Y-39691276D01*
X41941065Y-39730500D01*
X41941072Y-39730500D01*
X42278928Y-39730500D01*
X42278935Y-39730500D01*
X42614520Y-39691276D01*
X42943283Y-39613358D01*
X43260776Y-39497800D01*
X43562708Y-39346164D01*
X43844994Y-39160502D01*
X43860292Y-39147666D01*
X44016671Y-39016447D01*
X44103817Y-38943323D01*
X44335678Y-38697565D01*
X44537440Y-38426552D01*
X44706375Y-38133948D01*
X44840198Y-37823711D01*
X44937100Y-37500035D01*
X44995771Y-37167298D01*
X45015416Y-36830000D01*
X44995771Y-36492702D01*
X44937100Y-36159965D01*
X44840198Y-35836289D01*
X44706375Y-35526052D01*
X44537440Y-35233448D01*
X44537439Y-35233446D01*
X44335681Y-34962438D01*
X44335676Y-34962432D01*
X44223564Y-34843601D01*
X44103817Y-34716677D01*
X44103810Y-34716671D01*
X44103808Y-34716669D01*
X43844998Y-34499500D01*
X43703851Y-34406667D01*
X43562708Y-34313836D01*
X43515245Y-34289999D01*
X43260783Y-34162203D01*
X43260777Y-34162200D01*
X42943284Y-34046642D01*
X42943281Y-34046641D01*
X42716639Y-33992926D01*
X42614520Y-33968724D01*
X42278935Y-33929500D01*
X41941065Y-33929500D01*
X41605480Y-33968724D01*
X41276718Y-34046641D01*
X41276715Y-34046642D01*
X40959222Y-34162200D01*
X40959216Y-34162203D01*
X40657295Y-34313834D01*
X40375001Y-34499500D01*
X40116191Y-34716669D01*
X40116181Y-34716679D01*
X39884323Y-34962432D01*
X39884318Y-34962438D01*
X39682560Y-35233446D01*
X39513627Y-35526047D01*
X39513621Y-35526060D01*
X39379801Y-35836289D01*
X39282899Y-36159968D01*
X39282896Y-36159982D01*
X39224230Y-36492690D01*
X39224229Y-36492701D01*
X39204584Y-36829996D01*
X25900500Y-36829996D01*
X25900500Y-26406961D01*
X25901280Y-26393077D01*
X25901280Y-26393076D01*
X25911459Y-26302731D01*
X25917635Y-26275670D01*
X25945353Y-26196456D01*
X25957396Y-26171450D01*
X26002046Y-26100389D01*
X26019351Y-26078690D01*
X26078690Y-26019351D01*
X26100389Y-26002046D01*
X26171450Y-25957396D01*
X26196456Y-25945353D01*
X26275670Y-25917635D01*
X26302733Y-25911459D01*
X26365419Y-25904396D01*
X26393079Y-25901280D01*
X26406962Y-25900500D01*
X26465892Y-25900500D01*
X82754108Y-25900500D01*
X82813038Y-25900500D01*
X82826922Y-25901280D01*
G37*
%TD.AperFunction*%
%TD*%
M02*
