%TF.GenerationSoftware,KiCad,Pcbnew,8.0.2*%
%TF.CreationDate,2025-02-23T18:43:33+01:00*%
%TF.ProjectId,propeller-40k-testhat,70726f70-656c-46c6-9572-2d34306b2d74,0*%
%TF.SameCoordinates,Original*%
%TF.FileFunction,Legend,Top*%
%TF.FilePolarity,Positive*%
%FSLAX46Y46*%
G04 Gerber Fmt 4.6, Leading zero omitted, Abs format (unit mm)*
G04 Created by KiCad (PCBNEW 8.0.2) date 2025-02-23 18:43:33*
%MOMM*%
%LPD*%
G01*
G04 APERTURE LIST*
%ADD10C,0.200000*%
%ADD11C,0.100000*%
%ADD12C,0.150000*%
%ADD13C,0.254000*%
%ADD14C,0.120000*%
G04 APERTURE END LIST*
D10*
G36*
X30071628Y-42800284D02*
G01*
X30098229Y-42826326D01*
X29998717Y-42927307D01*
X29988239Y-42936395D01*
X29985545Y-42940674D01*
X29984092Y-42942149D01*
X29983081Y-42944587D01*
X29977796Y-42952985D01*
X29928494Y-43054890D01*
X29926949Y-43056436D01*
X29922199Y-43067902D01*
X29913647Y-43085580D01*
X29913392Y-43089163D01*
X29912017Y-43092484D01*
X29910096Y-43111993D01*
X29912017Y-43245788D01*
X29926949Y-43281836D01*
X29954539Y-43309426D01*
X29990587Y-43324358D01*
X30008409Y-43324358D01*
X29890128Y-43354876D01*
X29514932Y-43356594D01*
X29319991Y-43309415D01*
X29236910Y-43228078D01*
X29195647Y-43148175D01*
X29194242Y-42966705D01*
X29232178Y-42888293D01*
X29315986Y-42802687D01*
X29501492Y-42754823D01*
X29876687Y-42753105D01*
X30071628Y-42800284D01*
G37*
G36*
X30197377Y-43142996D02*
G01*
X30159442Y-43221409D01*
X30075633Y-43307013D01*
X30064614Y-43309856D01*
X30065653Y-43309426D01*
X30093243Y-43281836D01*
X30108175Y-43245788D01*
X30110096Y-43226279D01*
X30108821Y-43137526D01*
X30146411Y-43059830D01*
X30196341Y-43009163D01*
X30197377Y-43142996D01*
G37*
G36*
X27616451Y-42848506D02*
G01*
X27651832Y-42882558D01*
X27692533Y-42961373D01*
X27693893Y-43298762D01*
X27263481Y-43299440D01*
X27262142Y-42967052D01*
X27300391Y-42887991D01*
X27334444Y-42852609D01*
X27413506Y-42811781D01*
X27537952Y-42810529D01*
X27616451Y-42848506D01*
G37*
G36*
X28264009Y-41818607D02*
G01*
X28265510Y-42057147D01*
X28233708Y-42122881D01*
X28171213Y-42155154D01*
X28103698Y-42156124D01*
X28038703Y-42124679D01*
X28006604Y-42062521D01*
X28005033Y-41812965D01*
X28005951Y-41810214D01*
X28004925Y-41795787D01*
X28004842Y-41782623D01*
X28245059Y-41781911D01*
X28264009Y-41818607D01*
G37*
G36*
X31786295Y-41088793D02*
G01*
X31340978Y-40941093D01*
X31785331Y-40792237D01*
X31786295Y-41088793D01*
G37*
G36*
X28264009Y-39990036D02*
G01*
X28265510Y-40228576D01*
X28233708Y-40294310D01*
X28171213Y-40326583D01*
X28103698Y-40327553D01*
X28038703Y-40296108D01*
X28006604Y-40233950D01*
X28005033Y-39984394D01*
X28005951Y-39981643D01*
X28004925Y-39967216D01*
X28004842Y-39954052D01*
X28245059Y-39953340D01*
X28264009Y-39990036D01*
G37*
G36*
X31786295Y-37888793D02*
G01*
X31340978Y-37741093D01*
X31785331Y-37592237D01*
X31786295Y-37888793D01*
G37*
G36*
X28264009Y-37647180D02*
G01*
X28265510Y-37885720D01*
X28233708Y-37951454D01*
X28171213Y-37983727D01*
X28103698Y-37984697D01*
X28038703Y-37953252D01*
X28006604Y-37891094D01*
X28005033Y-37641538D01*
X28005951Y-37638787D01*
X28004925Y-37624360D01*
X28004842Y-37611196D01*
X28245059Y-37610484D01*
X28264009Y-37647180D01*
G37*
G36*
X30195941Y-36447178D02*
G01*
X30197442Y-36685718D01*
X30165640Y-36751452D01*
X30103145Y-36783725D01*
X30035630Y-36784695D01*
X29970635Y-36753250D01*
X29938536Y-36691092D01*
X29936965Y-36441536D01*
X29937883Y-36438785D01*
X29936857Y-36424358D01*
X29936774Y-36411194D01*
X30176991Y-36410482D01*
X30195941Y-36447178D01*
G37*
G36*
X27616451Y-34505650D02*
G01*
X27651832Y-34539702D01*
X27692533Y-34618517D01*
X27693893Y-34955906D01*
X27263481Y-34956584D01*
X27262142Y-34624196D01*
X27300391Y-34545135D01*
X27334444Y-34509753D01*
X27413506Y-34468925D01*
X27537952Y-34467673D01*
X27616451Y-34505650D01*
G37*
G36*
X28187882Y-32677080D02*
G01*
X28223261Y-32711130D01*
X28264089Y-32790192D01*
X28265341Y-32914640D01*
X28227363Y-32993140D01*
X28193314Y-33028519D01*
X28114446Y-33069247D01*
X27818818Y-33070814D01*
X27739874Y-33032621D01*
X27704495Y-32998572D01*
X27663666Y-32919508D01*
X27662414Y-32795062D01*
X27700392Y-32716562D01*
X27734443Y-32681183D01*
X27813310Y-32640455D01*
X28108939Y-32638888D01*
X28187882Y-32677080D01*
G37*
G36*
X30025794Y-31774450D02*
G01*
X30119814Y-31819936D01*
X30155193Y-31853986D01*
X30196114Y-31933228D01*
X30197084Y-32000745D01*
X30159297Y-32078851D01*
X30125245Y-32114233D01*
X30038637Y-32158957D01*
X29832947Y-32212029D01*
X29571808Y-32213672D01*
X29365828Y-32163822D01*
X29271806Y-32118334D01*
X29236426Y-32084284D01*
X29195505Y-32005042D01*
X29194535Y-31937526D01*
X29232324Y-31859418D01*
X29266375Y-31824039D01*
X29352982Y-31779314D01*
X29558674Y-31726242D01*
X29819812Y-31724599D01*
X30025794Y-31774450D01*
G37*
G36*
X28187882Y-31591366D02*
G01*
X28223261Y-31625416D01*
X28264040Y-31704382D01*
X28265445Y-31885855D01*
X28245493Y-31927096D01*
X27682796Y-31927982D01*
X27663715Y-31891033D01*
X27662310Y-31709563D01*
X27700392Y-31630848D01*
X27734443Y-31595469D01*
X27813310Y-31554741D01*
X28108939Y-31553174D01*
X28187882Y-31591366D01*
G37*
G36*
X30025794Y-30631593D02*
G01*
X30119814Y-30677079D01*
X30155193Y-30711129D01*
X30196114Y-30790371D01*
X30197084Y-30857888D01*
X30159297Y-30935994D01*
X30125245Y-30971376D01*
X30038637Y-31016100D01*
X29832947Y-31069172D01*
X29571808Y-31070815D01*
X29365828Y-31020965D01*
X29271806Y-30975477D01*
X29236426Y-30941427D01*
X29195505Y-30862185D01*
X29194535Y-30794669D01*
X29232324Y-30716561D01*
X29266375Y-30681182D01*
X29352982Y-30636457D01*
X29558674Y-30583385D01*
X29819812Y-30581742D01*
X30025794Y-30631593D01*
G37*
G36*
X27843683Y-30899114D02*
G01*
X27761795Y-30899444D01*
X27695846Y-30867538D01*
X27663715Y-30805319D01*
X27662310Y-30623849D01*
X27694047Y-30558248D01*
X27756542Y-30525976D01*
X27767784Y-30525814D01*
X27843683Y-30899114D01*
G37*
G36*
X30025794Y-29488736D02*
G01*
X30119814Y-29534222D01*
X30155193Y-29568272D01*
X30196114Y-29647514D01*
X30197084Y-29715031D01*
X30159297Y-29793137D01*
X30125245Y-29828519D01*
X30038637Y-29873243D01*
X29832947Y-29926315D01*
X29571808Y-29927958D01*
X29365828Y-29878108D01*
X29271806Y-29832620D01*
X29236426Y-29798570D01*
X29195505Y-29719328D01*
X29194535Y-29651812D01*
X29232324Y-29573704D01*
X29266375Y-29538325D01*
X29352982Y-29493600D01*
X29558674Y-29440528D01*
X29819812Y-29438885D01*
X30025794Y-29488736D01*
G37*
G36*
X30025794Y-28345879D02*
G01*
X30119814Y-28391365D01*
X30155193Y-28425415D01*
X30196114Y-28504657D01*
X30197084Y-28572174D01*
X30159297Y-28650280D01*
X30125245Y-28685662D01*
X30038637Y-28730386D01*
X29832947Y-28783458D01*
X29571808Y-28785101D01*
X29365828Y-28735251D01*
X29271806Y-28689763D01*
X29236426Y-28655713D01*
X29195505Y-28576471D01*
X29194535Y-28508955D01*
X29232324Y-28430847D01*
X29266375Y-28395468D01*
X29352982Y-28350743D01*
X29558674Y-28297671D01*
X29819812Y-28296028D01*
X30025794Y-28345879D01*
G37*
G36*
X27843683Y-28613401D02*
G01*
X27761795Y-28613731D01*
X27695846Y-28581825D01*
X27663715Y-28519606D01*
X27662310Y-28338136D01*
X27694047Y-28272535D01*
X27756542Y-28240263D01*
X27767784Y-28240101D01*
X27843683Y-28613401D01*
G37*
G36*
X32461075Y-43801684D02*
G01*
X26930545Y-43801684D01*
X26930545Y-42940564D01*
X27063878Y-42940564D01*
X27065799Y-43417216D01*
X27080731Y-43453264D01*
X27108321Y-43480854D01*
X27144369Y-43495786D01*
X27163878Y-43497707D01*
X28383387Y-43495786D01*
X28419435Y-43480854D01*
X28447025Y-43453264D01*
X28461957Y-43417216D01*
X28461957Y-43378198D01*
X28447025Y-43342150D01*
X28419435Y-43314560D01*
X28383387Y-43299628D01*
X28363878Y-43297707D01*
X27892049Y-43298450D01*
X27890670Y-42956055D01*
X27891665Y-42953071D01*
X27890776Y-42940564D01*
X28995810Y-42940564D01*
X28997462Y-43154025D01*
X28996595Y-43156629D01*
X28997591Y-43170653D01*
X28997731Y-43188645D01*
X28999106Y-43191965D01*
X28999361Y-43195549D01*
X29006367Y-43213857D01*
X29065042Y-43327478D01*
X29069806Y-43338980D01*
X29072976Y-43342842D01*
X29073953Y-43344734D01*
X29075950Y-43346466D01*
X29082243Y-43354133D01*
X29190031Y-43459658D01*
X29193175Y-43464897D01*
X29202254Y-43471624D01*
X29211682Y-43480854D01*
X29218550Y-43483699D01*
X29224525Y-43488126D01*
X29242985Y-43494721D01*
X29466185Y-43548738D01*
X29476301Y-43552929D01*
X29488436Y-43554123D01*
X29490949Y-43554732D01*
X29492407Y-43554514D01*
X29495810Y-43554850D01*
X29889353Y-43553047D01*
X29900671Y-43554732D01*
X29912784Y-43552940D01*
X29915319Y-43552929D01*
X29916682Y-43552364D01*
X29920064Y-43551864D01*
X30137409Y-43495785D01*
X30143891Y-43495786D01*
X30154599Y-43491350D01*
X30167097Y-43488126D01*
X30173070Y-43483699D01*
X30179939Y-43480855D01*
X30195092Y-43468418D01*
X30307823Y-43353271D01*
X30317668Y-43344733D01*
X30320342Y-43340483D01*
X30321815Y-43338980D01*
X30322826Y-43336538D01*
X30328111Y-43328143D01*
X30377411Y-43226238D01*
X30378957Y-43224693D01*
X30383708Y-43213221D01*
X30392259Y-43195548D01*
X30392513Y-43191965D01*
X30393889Y-43188645D01*
X30395810Y-43169136D01*
X30394157Y-42955674D01*
X30395025Y-42953071D01*
X30394028Y-42939046D01*
X30393889Y-42921055D01*
X30392513Y-42917734D01*
X30392259Y-42914151D01*
X30385253Y-42895843D01*
X30359438Y-42845855D01*
X30422101Y-42781848D01*
X30431953Y-42773305D01*
X30434630Y-42769050D01*
X30436100Y-42767550D01*
X30437109Y-42765112D01*
X30442396Y-42756714D01*
X30442437Y-42756629D01*
X30928527Y-42756629D01*
X30931293Y-42795549D01*
X30948743Y-42830448D01*
X30978219Y-42856013D01*
X30996119Y-42864004D01*
X31914504Y-43168607D01*
X30978219Y-43482259D01*
X30948743Y-43507824D01*
X30931293Y-43542723D01*
X30928527Y-43581643D01*
X30940865Y-43618659D01*
X30966430Y-43648135D01*
X31001329Y-43665585D01*
X31040249Y-43668351D01*
X31059365Y-43664004D01*
X32247220Y-43266077D01*
X32254155Y-43265585D01*
X32265245Y-43260039D01*
X32277265Y-43256013D01*
X32282665Y-43251328D01*
X32289053Y-43248135D01*
X32297266Y-43238665D01*
X32306741Y-43230448D01*
X32309935Y-43224058D01*
X32314619Y-43218659D01*
X32318584Y-43206761D01*
X32324191Y-43195549D01*
X32324697Y-43188421D01*
X32326957Y-43181643D01*
X32326068Y-43169136D01*
X32326957Y-43156629D01*
X32324697Y-43149850D01*
X32324191Y-43142723D01*
X32318584Y-43131510D01*
X32314619Y-43119613D01*
X32309935Y-43114213D01*
X32306741Y-43107824D01*
X32297266Y-43099606D01*
X32289053Y-43090137D01*
X32282665Y-43086943D01*
X32277265Y-43082259D01*
X32259365Y-43074268D01*
X31040249Y-42669921D01*
X31001329Y-42672687D01*
X30966430Y-42690137D01*
X30940865Y-42719613D01*
X30928527Y-42756629D01*
X30442437Y-42756629D01*
X30506545Y-42624120D01*
X30509311Y-42585199D01*
X30496972Y-42548184D01*
X30471408Y-42518707D01*
X30436509Y-42501257D01*
X30397589Y-42498492D01*
X30360573Y-42510831D01*
X30331096Y-42536395D01*
X30320653Y-42552985D01*
X30273726Y-42649980D01*
X30238392Y-42686072D01*
X30201591Y-42650043D01*
X30198447Y-42644803D01*
X30189363Y-42638072D01*
X30179939Y-42628846D01*
X30173072Y-42626001D01*
X30167097Y-42621574D01*
X30148636Y-42614979D01*
X29925434Y-42560961D01*
X29915319Y-42556771D01*
X29903183Y-42555576D01*
X29900671Y-42554968D01*
X29899212Y-42555185D01*
X29895810Y-42554850D01*
X29502266Y-42556652D01*
X29490949Y-42554968D01*
X29478836Y-42556759D01*
X29476301Y-42556771D01*
X29474936Y-42557336D01*
X29471557Y-42557836D01*
X29254213Y-42613914D01*
X29247730Y-42613914D01*
X29237021Y-42618349D01*
X29224525Y-42621574D01*
X29218550Y-42626000D01*
X29211682Y-42628846D01*
X29196528Y-42641282D01*
X29083806Y-42756421D01*
X29073953Y-42764967D01*
X29071275Y-42769221D01*
X29069806Y-42770722D01*
X29068795Y-42773160D01*
X29063511Y-42781557D01*
X29014209Y-42883460D01*
X29012663Y-42885007D01*
X29007911Y-42896476D01*
X28999361Y-42914151D01*
X28999106Y-42917734D01*
X28997731Y-42921055D01*
X28995810Y-42940564D01*
X27890776Y-42940564D01*
X27890597Y-42938050D01*
X27890529Y-42921055D01*
X27889153Y-42917734D01*
X27888899Y-42914151D01*
X27881893Y-42895843D01*
X27823216Y-42782220D01*
X27818454Y-42770721D01*
X27815283Y-42766858D01*
X27814307Y-42764967D01*
X27812309Y-42763234D01*
X27806017Y-42755568D01*
X27746775Y-42698553D01*
X27739476Y-42690136D01*
X27735295Y-42687504D01*
X27733721Y-42685989D01*
X27731284Y-42684979D01*
X27722886Y-42679693D01*
X27620980Y-42630391D01*
X27619435Y-42628846D01*
X27607968Y-42624096D01*
X27590291Y-42615544D01*
X27586707Y-42615289D01*
X27583387Y-42613914D01*
X27563878Y-42611993D01*
X27407327Y-42613568D01*
X27404958Y-42612778D01*
X27391617Y-42613726D01*
X27372941Y-42613914D01*
X27369620Y-42615289D01*
X27366037Y-42615544D01*
X27347729Y-42622550D01*
X27234106Y-42681225D01*
X27222606Y-42685989D01*
X27218743Y-42689159D01*
X27216852Y-42690136D01*
X27215119Y-42692133D01*
X27207453Y-42698426D01*
X27150439Y-42757665D01*
X27142021Y-42764967D01*
X27139390Y-42769146D01*
X27137874Y-42770722D01*
X27136863Y-42773160D01*
X27131579Y-42781557D01*
X27082277Y-42883460D01*
X27080731Y-42885007D01*
X27075979Y-42896476D01*
X27067429Y-42914151D01*
X27067174Y-42917734D01*
X27065799Y-42921055D01*
X27063878Y-42940564D01*
X26930545Y-42940564D01*
X26930545Y-41854850D01*
X27463878Y-41854850D01*
X27465530Y-42068311D01*
X27464663Y-42070915D01*
X27465659Y-42084939D01*
X27465799Y-42102931D01*
X27467174Y-42106251D01*
X27467429Y-42109835D01*
X27474435Y-42128144D01*
X27542021Y-42259019D01*
X27571498Y-42284584D01*
X27608514Y-42296922D01*
X27647434Y-42294156D01*
X27682333Y-42276707D01*
X27707897Y-42247230D01*
X27720236Y-42210214D01*
X27717470Y-42171294D01*
X27710464Y-42152986D01*
X27663715Y-42062460D01*
X27662310Y-41880990D01*
X27694047Y-41815389D01*
X27756071Y-41783360D01*
X27788614Y-41783263D01*
X27806867Y-41818608D01*
X27808438Y-42068162D01*
X27807521Y-42070914D01*
X27808546Y-42085341D01*
X27808657Y-42102931D01*
X27810032Y-42106251D01*
X27810287Y-42109835D01*
X27817293Y-42128143D01*
X27873745Y-42237459D01*
X27877002Y-42247230D01*
X27881423Y-42252327D01*
X27884878Y-42259018D01*
X27894349Y-42267232D01*
X27902566Y-42276707D01*
X27912436Y-42282919D01*
X27914354Y-42284583D01*
X27915894Y-42285096D01*
X27919157Y-42287150D01*
X28021061Y-42336451D01*
X28022607Y-42337997D01*
X28034074Y-42342747D01*
X28051751Y-42351299D01*
X28055334Y-42351553D01*
X28058655Y-42352929D01*
X28078164Y-42354850D01*
X28177997Y-42353416D01*
X28179943Y-42354065D01*
X28191868Y-42353217D01*
X28211959Y-42352929D01*
X28215279Y-42351553D01*
X28218863Y-42351299D01*
X28237171Y-42344293D01*
X28346491Y-42287839D01*
X28356259Y-42284583D01*
X28361354Y-42280163D01*
X28368048Y-42276707D01*
X28376265Y-42267231D01*
X28385736Y-42259018D01*
X28391949Y-42249146D01*
X28393612Y-42247230D01*
X28394125Y-42245691D01*
X28396179Y-42242428D01*
X28445479Y-42140524D01*
X28447025Y-42138979D01*
X28451774Y-42127512D01*
X28460327Y-42109835D01*
X28460581Y-42106251D01*
X28461957Y-42102931D01*
X28463878Y-42083422D01*
X28462175Y-41812965D01*
X28463093Y-41810214D01*
X28462067Y-41795787D01*
X28461957Y-41778198D01*
X28460581Y-41774877D01*
X28460327Y-41771294D01*
X28453321Y-41752986D01*
X28446406Y-41739597D01*
X28447025Y-41738979D01*
X28461957Y-41702931D01*
X28461957Y-41663913D01*
X28447025Y-41627865D01*
X28425930Y-41606770D01*
X29397731Y-41606770D01*
X29397731Y-41645788D01*
X29412663Y-41681836D01*
X29440253Y-41709426D01*
X29476301Y-41724358D01*
X29495810Y-41726279D01*
X30139679Y-41724769D01*
X30155193Y-41739700D01*
X30196021Y-41818762D01*
X30197273Y-41943210D01*
X30165640Y-42008595D01*
X30103616Y-42040625D01*
X29476301Y-42042485D01*
X29440253Y-42057417D01*
X29412663Y-42085007D01*
X29397731Y-42121055D01*
X29397731Y-42160073D01*
X29412663Y-42196121D01*
X29440253Y-42223711D01*
X29476301Y-42238643D01*
X29495810Y-42240564D01*
X30108779Y-42238747D01*
X30111875Y-42239779D01*
X30127161Y-42238692D01*
X30143891Y-42238643D01*
X30147211Y-42237267D01*
X30150795Y-42237013D01*
X30169103Y-42230007D01*
X30278423Y-42173553D01*
X30288191Y-42170297D01*
X30293286Y-42165877D01*
X30299980Y-42162421D01*
X30308197Y-42152945D01*
X30317668Y-42144732D01*
X30323881Y-42134860D01*
X30325544Y-42132944D01*
X30326057Y-42131405D01*
X30328111Y-42128142D01*
X30377411Y-42026238D01*
X30378957Y-42024693D01*
X30383706Y-42013226D01*
X30392259Y-41995549D01*
X30392513Y-41991965D01*
X30393889Y-41988645D01*
X30395810Y-41969136D01*
X30394659Y-41854851D01*
X30927742Y-41854851D01*
X30929460Y-42025652D01*
X30928527Y-42038786D01*
X30929641Y-42043688D01*
X30929663Y-42045788D01*
X30930674Y-42048230D01*
X30932874Y-42057902D01*
X30986806Y-42214672D01*
X30986807Y-42217218D01*
X30991976Y-42229698D01*
X30998008Y-42247231D01*
X31000362Y-42249946D01*
X31001738Y-42253266D01*
X31014175Y-42268419D01*
X31129315Y-42381141D01*
X31137859Y-42390993D01*
X31142113Y-42393670D01*
X31143614Y-42395140D01*
X31146051Y-42396149D01*
X31154450Y-42401436D01*
X31263523Y-42454205D01*
X31270743Y-42459555D01*
X31285413Y-42464796D01*
X31287044Y-42465585D01*
X31287764Y-42465636D01*
X31289203Y-42466150D01*
X31512403Y-42520167D01*
X31522519Y-42524358D01*
X31534654Y-42525552D01*
X31537167Y-42526161D01*
X31538625Y-42525943D01*
X31542028Y-42526279D01*
X31707896Y-42524610D01*
X31718318Y-42526161D01*
X31730330Y-42524384D01*
X31732966Y-42524358D01*
X31734329Y-42523793D01*
X31737711Y-42523293D01*
X31958685Y-42466278D01*
X31968441Y-42465585D01*
X31983071Y-42459986D01*
X31984743Y-42459555D01*
X31985324Y-42459124D01*
X31986749Y-42458579D01*
X32100364Y-42399906D01*
X32111871Y-42395141D01*
X32115735Y-42391969D01*
X32117626Y-42390993D01*
X32119357Y-42388996D01*
X32127024Y-42382704D01*
X32229729Y-42277798D01*
X32231912Y-42276707D01*
X32240563Y-42266731D01*
X32253747Y-42253266D01*
X32255122Y-42249946D01*
X32257477Y-42247231D01*
X32265468Y-42229330D01*
X32320735Y-42058064D01*
X32325821Y-42045788D01*
X32326314Y-42040777D01*
X32326957Y-42038786D01*
X32326769Y-42036152D01*
X32327742Y-42026279D01*
X32326095Y-41911607D01*
X32326957Y-41899486D01*
X32325851Y-41894624D01*
X32325821Y-41892484D01*
X32324810Y-41890043D01*
X32322611Y-41880371D01*
X32268678Y-41723600D01*
X32268678Y-41721056D01*
X32263510Y-41708578D01*
X32257477Y-41691042D01*
X32255121Y-41688326D01*
X32253747Y-41685007D01*
X32241310Y-41669854D01*
X32169014Y-41600275D01*
X32132966Y-41585343D01*
X32113457Y-41583422D01*
X31693948Y-41585343D01*
X31657900Y-41600275D01*
X31630310Y-41627865D01*
X31615378Y-41663913D01*
X31613457Y-41683422D01*
X31615378Y-41931502D01*
X31630310Y-41967550D01*
X31657900Y-41995140D01*
X31693948Y-42010072D01*
X31732966Y-42010072D01*
X31769014Y-41995140D01*
X31796604Y-41967550D01*
X31811536Y-41931502D01*
X31813457Y-41911993D01*
X31812457Y-41782968D01*
X32071475Y-41781782D01*
X32082773Y-41792656D01*
X32127912Y-41923865D01*
X32129096Y-42006360D01*
X32085387Y-42141810D01*
X32000971Y-42228035D01*
X31913426Y-42273243D01*
X31707650Y-42326337D01*
X31560310Y-42327819D01*
X31354903Y-42278108D01*
X31261183Y-42232766D01*
X31172989Y-42146423D01*
X31127624Y-42014558D01*
X31126278Y-41880776D01*
X31181334Y-41766978D01*
X31184100Y-41728057D01*
X31171761Y-41691042D01*
X31146197Y-41661565D01*
X31111298Y-41644115D01*
X31072378Y-41641350D01*
X31035362Y-41653689D01*
X31005885Y-41679253D01*
X30995442Y-41695843D01*
X30946140Y-41797748D01*
X30944595Y-41799294D01*
X30939845Y-41810760D01*
X30931293Y-41828438D01*
X30931038Y-41832021D01*
X30929663Y-41835342D01*
X30927742Y-41854851D01*
X30394659Y-41854851D01*
X30394234Y-41812585D01*
X30395025Y-41810215D01*
X30394076Y-41796874D01*
X30393889Y-41778198D01*
X30392513Y-41774877D01*
X30392259Y-41771295D01*
X30385253Y-41752986D01*
X30358879Y-41701913D01*
X30378957Y-41681836D01*
X30393889Y-41645788D01*
X30393889Y-41606770D01*
X30378957Y-41570722D01*
X30351367Y-41543132D01*
X30315319Y-41528200D01*
X30295810Y-41526279D01*
X29476301Y-41528200D01*
X29440253Y-41543132D01*
X29412663Y-41570722D01*
X29397731Y-41606770D01*
X28425930Y-41606770D01*
X28419435Y-41600275D01*
X28383387Y-41585343D01*
X28363878Y-41583422D01*
X27864188Y-41584903D01*
X27862100Y-41584207D01*
X27851787Y-41584939D01*
X27750910Y-41585238D01*
X27747815Y-41584207D01*
X27732528Y-41585293D01*
X27715798Y-41585343D01*
X27712477Y-41586718D01*
X27708895Y-41586973D01*
X27690586Y-41593979D01*
X27581268Y-41650431D01*
X27571498Y-41653688D01*
X27566400Y-41658109D01*
X27559710Y-41661564D01*
X27551495Y-41671035D01*
X27542021Y-41679252D01*
X27535806Y-41689123D01*
X27534145Y-41691040D01*
X27533631Y-41692578D01*
X27531578Y-41695842D01*
X27482276Y-41797747D01*
X27480731Y-41799293D01*
X27475981Y-41810759D01*
X27467429Y-41828437D01*
X27467174Y-41832020D01*
X27465799Y-41835341D01*
X27463878Y-41854850D01*
X26930545Y-41854850D01*
X26930545Y-40769136D01*
X27463878Y-40769136D01*
X27465311Y-40868969D01*
X27464663Y-40870915D01*
X27465510Y-40882840D01*
X27465799Y-40902931D01*
X27467174Y-40906251D01*
X27467429Y-40909835D01*
X27474435Y-40928143D01*
X27523246Y-41022663D01*
X27508321Y-41028846D01*
X27480731Y-41056436D01*
X27465799Y-41092484D01*
X27465799Y-41131502D01*
X27480731Y-41167550D01*
X27508321Y-41195140D01*
X27544369Y-41210072D01*
X27563878Y-41211993D01*
X28383387Y-41210072D01*
X28419435Y-41195140D01*
X28447025Y-41167550D01*
X28461957Y-41131502D01*
X28461957Y-41092484D01*
X28447025Y-41056436D01*
X28425930Y-41035341D01*
X28997731Y-41035341D01*
X28997731Y-41074359D01*
X29012663Y-41110407D01*
X29025099Y-41125561D01*
X29097395Y-41195140D01*
X29106398Y-41198869D01*
X29133444Y-41210072D01*
X29172462Y-41210072D01*
X29208510Y-41195140D01*
X29223664Y-41182704D01*
X29293243Y-41110408D01*
X29300667Y-41092484D01*
X29308175Y-41074359D01*
X29308175Y-41035341D01*
X29397731Y-41035341D01*
X29397731Y-41074359D01*
X29412663Y-41110407D01*
X29440253Y-41137997D01*
X29476301Y-41152929D01*
X29495810Y-41154850D01*
X30315319Y-41152929D01*
X30351367Y-41137997D01*
X30378957Y-41110407D01*
X30393889Y-41074359D01*
X30393889Y-41035341D01*
X30378957Y-40999293D01*
X30351367Y-40971703D01*
X30315319Y-40956771D01*
X30295810Y-40954850D01*
X29476301Y-40956771D01*
X29440253Y-40971703D01*
X29412663Y-40999293D01*
X29397731Y-41035341D01*
X29308175Y-41035341D01*
X29297616Y-41009850D01*
X29293243Y-40999292D01*
X29280806Y-40984139D01*
X29222535Y-40928058D01*
X30928527Y-40928058D01*
X30929415Y-40940565D01*
X30928527Y-40953072D01*
X30930786Y-40959850D01*
X30931293Y-40966978D01*
X30936899Y-40978190D01*
X30940865Y-40990088D01*
X30945548Y-40995487D01*
X30948743Y-41001877D01*
X30958214Y-41010092D01*
X30966430Y-41019564D01*
X30972819Y-41022758D01*
X30978219Y-41027442D01*
X30996119Y-41035433D01*
X31857910Y-41321265D01*
X31865376Y-41324358D01*
X31867234Y-41324358D01*
X32215234Y-41439780D01*
X32254155Y-41437014D01*
X32289053Y-41419564D01*
X32314619Y-41390088D01*
X32326957Y-41353072D01*
X32324191Y-41314152D01*
X32306741Y-41279253D01*
X32277265Y-41253688D01*
X32259365Y-41245697D01*
X31984651Y-41154582D01*
X31983258Y-40725932D01*
X32277265Y-40627442D01*
X32306741Y-40601877D01*
X32324191Y-40566978D01*
X32326957Y-40528058D01*
X32314619Y-40491042D01*
X32289053Y-40461566D01*
X32254155Y-40444116D01*
X32215234Y-40441350D01*
X32196119Y-40445697D01*
X31008263Y-40843623D01*
X31001329Y-40844116D01*
X30990237Y-40849661D01*
X30978219Y-40853688D01*
X30972819Y-40858371D01*
X30966430Y-40861566D01*
X30958214Y-40871037D01*
X30948743Y-40879253D01*
X30945548Y-40885642D01*
X30940865Y-40891042D01*
X30936899Y-40902939D01*
X30931293Y-40914152D01*
X30930786Y-40921279D01*
X30928527Y-40928058D01*
X29222535Y-40928058D01*
X29208510Y-40914560D01*
X29172462Y-40899628D01*
X29133444Y-40899628D01*
X29108803Y-40909835D01*
X29097395Y-40914560D01*
X29082242Y-40926997D01*
X29012664Y-40999292D01*
X29012663Y-40999293D01*
X28997731Y-41035341D01*
X28425930Y-41035341D01*
X28419435Y-41028846D01*
X28383387Y-41013914D01*
X28363878Y-41011993D01*
X27817995Y-41013272D01*
X27739874Y-40975477D01*
X27704494Y-40941427D01*
X27663573Y-40862185D01*
X27661957Y-40749627D01*
X27647025Y-40713579D01*
X27619435Y-40685989D01*
X27583387Y-40671057D01*
X27544369Y-40671057D01*
X27508321Y-40685989D01*
X27480731Y-40713579D01*
X27465799Y-40749627D01*
X27463878Y-40769136D01*
X26930545Y-40769136D01*
X26930545Y-40026279D01*
X27463878Y-40026279D01*
X27465530Y-40239740D01*
X27464663Y-40242344D01*
X27465659Y-40256368D01*
X27465799Y-40274360D01*
X27467174Y-40277680D01*
X27467429Y-40281264D01*
X27474435Y-40299573D01*
X27542021Y-40430448D01*
X27571498Y-40456013D01*
X27608514Y-40468351D01*
X27647434Y-40465585D01*
X27682333Y-40448136D01*
X27707897Y-40418659D01*
X27720236Y-40381643D01*
X27717470Y-40342723D01*
X27710464Y-40324415D01*
X27663715Y-40233889D01*
X27662310Y-40052419D01*
X27694047Y-39986818D01*
X27756071Y-39954789D01*
X27788614Y-39954692D01*
X27806867Y-39990037D01*
X27808438Y-40239591D01*
X27807521Y-40242343D01*
X27808546Y-40256770D01*
X27808657Y-40274360D01*
X27810032Y-40277680D01*
X27810287Y-40281264D01*
X27817293Y-40299572D01*
X27873745Y-40408888D01*
X27877002Y-40418659D01*
X27881423Y-40423756D01*
X27884878Y-40430447D01*
X27894349Y-40438661D01*
X27902566Y-40448136D01*
X27912436Y-40454348D01*
X27914354Y-40456012D01*
X27915894Y-40456525D01*
X27919157Y-40458579D01*
X28021061Y-40507880D01*
X28022607Y-40509426D01*
X28034074Y-40514176D01*
X28051751Y-40522728D01*
X28055334Y-40522982D01*
X28058655Y-40524358D01*
X28078164Y-40526279D01*
X28177997Y-40524845D01*
X28179943Y-40525494D01*
X28191868Y-40524646D01*
X28211959Y-40524358D01*
X28215279Y-40522982D01*
X28218863Y-40522728D01*
X28237171Y-40515722D01*
X28346491Y-40459268D01*
X28356259Y-40456012D01*
X28361354Y-40451592D01*
X28368048Y-40448136D01*
X28376265Y-40438660D01*
X28385736Y-40430447D01*
X28391949Y-40420575D01*
X28393612Y-40418659D01*
X28394125Y-40417120D01*
X28396179Y-40413857D01*
X28445479Y-40311953D01*
X28447025Y-40310408D01*
X28451774Y-40298941D01*
X28460327Y-40281264D01*
X28460581Y-40277680D01*
X28461957Y-40274360D01*
X28463878Y-40254851D01*
X28462799Y-40083421D01*
X29395810Y-40083421D01*
X29397462Y-40296882D01*
X29396595Y-40299486D01*
X29397591Y-40313510D01*
X29397731Y-40331502D01*
X29399106Y-40334822D01*
X29399361Y-40338406D01*
X29406367Y-40356715D01*
X29465043Y-40470336D01*
X29469806Y-40481835D01*
X29472975Y-40485697D01*
X29473953Y-40487590D01*
X29475950Y-40489322D01*
X29482242Y-40496989D01*
X29541489Y-40554009D01*
X29548784Y-40562421D01*
X29552960Y-40565049D01*
X29554538Y-40566568D01*
X29556978Y-40567578D01*
X29565375Y-40572864D01*
X29667279Y-40622165D01*
X29668825Y-40623711D01*
X29680292Y-40628461D01*
X29697969Y-40637013D01*
X29701552Y-40637267D01*
X29704873Y-40638643D01*
X29724382Y-40640564D01*
X30051878Y-40638827D01*
X30054732Y-40639779D01*
X30069424Y-40638734D01*
X30086748Y-40638643D01*
X30090068Y-40637267D01*
X30093652Y-40637013D01*
X30111960Y-40630007D01*
X30225582Y-40571331D01*
X30237082Y-40566568D01*
X30240944Y-40563398D01*
X30242837Y-40562421D01*
X30244569Y-40560423D01*
X30252236Y-40554132D01*
X30309260Y-40494880D01*
X30317668Y-40487589D01*
X30320295Y-40483414D01*
X30321815Y-40481836D01*
X30322826Y-40479394D01*
X30328111Y-40470999D01*
X30377411Y-40369095D01*
X30378957Y-40367550D01*
X30383706Y-40356083D01*
X30392259Y-40338406D01*
X30392513Y-40334822D01*
X30393889Y-40331502D01*
X30395810Y-40311993D01*
X30394157Y-40098531D01*
X30395025Y-40095928D01*
X30394028Y-40081903D01*
X30393889Y-40063912D01*
X30392513Y-40060591D01*
X30392259Y-40057008D01*
X30385253Y-40038700D01*
X30317668Y-39907825D01*
X30288191Y-39882260D01*
X30251176Y-39869921D01*
X30212255Y-39872687D01*
X30177357Y-39890136D01*
X30151792Y-39919613D01*
X30139453Y-39956628D01*
X30142219Y-39995549D01*
X30149225Y-40013857D01*
X30195972Y-40104380D01*
X30197377Y-40285853D01*
X30159295Y-40364567D01*
X30125246Y-40399946D01*
X30046378Y-40440674D01*
X29750750Y-40442241D01*
X29671806Y-40404048D01*
X29636427Y-40369999D01*
X29595647Y-40291031D01*
X29594242Y-40109562D01*
X29649402Y-39995549D01*
X29652168Y-39956629D01*
X29639829Y-39919613D01*
X29614265Y-39890136D01*
X29579366Y-39872687D01*
X29540446Y-39869921D01*
X29503430Y-39882259D01*
X29473953Y-39907824D01*
X29463511Y-39924414D01*
X29414209Y-40026317D01*
X29412663Y-40027864D01*
X29407911Y-40039333D01*
X29399361Y-40057008D01*
X29399106Y-40060591D01*
X29397731Y-40063912D01*
X29395810Y-40083421D01*
X28462799Y-40083421D01*
X28462175Y-39984394D01*
X28463093Y-39981643D01*
X28462067Y-39967216D01*
X28461957Y-39949627D01*
X28460581Y-39946306D01*
X28460327Y-39942723D01*
X28453321Y-39924415D01*
X28446406Y-39911026D01*
X28447025Y-39910408D01*
X28461957Y-39874360D01*
X28461957Y-39835342D01*
X28447025Y-39799294D01*
X28419435Y-39771704D01*
X28383387Y-39756772D01*
X28363878Y-39754851D01*
X27864188Y-39756332D01*
X27862100Y-39755636D01*
X27851787Y-39756368D01*
X27750910Y-39756667D01*
X27747815Y-39755636D01*
X27732528Y-39756722D01*
X27715798Y-39756772D01*
X27712477Y-39758147D01*
X27708895Y-39758402D01*
X27690586Y-39765408D01*
X27581268Y-39821860D01*
X27571498Y-39825117D01*
X27566400Y-39829538D01*
X27559710Y-39832993D01*
X27551495Y-39842464D01*
X27542021Y-39850681D01*
X27535806Y-39860552D01*
X27534145Y-39862469D01*
X27533631Y-39864007D01*
X27531578Y-39867271D01*
X27482276Y-39969176D01*
X27480731Y-39970722D01*
X27475981Y-39982188D01*
X27467429Y-39999866D01*
X27467174Y-40003449D01*
X27465799Y-40006770D01*
X27463878Y-40026279D01*
X26930545Y-40026279D01*
X26930545Y-39435341D01*
X28997731Y-39435341D01*
X28997731Y-39474359D01*
X29012663Y-39510407D01*
X29040253Y-39537997D01*
X29076301Y-39552929D01*
X29095810Y-39554850D01*
X30315319Y-39552929D01*
X30351367Y-39537997D01*
X30378957Y-39510407D01*
X30393889Y-39474359D01*
X30393889Y-39435341D01*
X30378957Y-39399293D01*
X30351367Y-39371703D01*
X30315319Y-39356771D01*
X30295810Y-39354850D01*
X29994682Y-39355324D01*
X29990532Y-39351198D01*
X30370264Y-39064465D01*
X30390144Y-39030890D01*
X30395661Y-38992264D01*
X30385978Y-38954467D01*
X30362567Y-38923252D01*
X30328993Y-38903373D01*
X30290367Y-38897855D01*
X30252569Y-38907539D01*
X30235810Y-38917707D01*
X29848602Y-39210084D01*
X29551367Y-38914560D01*
X29515319Y-38899628D01*
X29476301Y-38899628D01*
X29440253Y-38914560D01*
X29412663Y-38942150D01*
X29397731Y-38978198D01*
X29397731Y-39017216D01*
X29412663Y-39053264D01*
X29425099Y-39068418D01*
X29714110Y-39355766D01*
X29076301Y-39356771D01*
X29040253Y-39371703D01*
X29012663Y-39399293D01*
X28997731Y-39435341D01*
X26930545Y-39435341D01*
X26930545Y-39263913D01*
X27065799Y-39263913D01*
X27065799Y-39302931D01*
X27080731Y-39338979D01*
X27108321Y-39366569D01*
X27144369Y-39381501D01*
X27163878Y-39383422D01*
X28176728Y-39381565D01*
X28179943Y-39382637D01*
X28195503Y-39381531D01*
X28211959Y-39381501D01*
X28215279Y-39380125D01*
X28218863Y-39379871D01*
X28237171Y-39372865D01*
X28346491Y-39316411D01*
X28356259Y-39313155D01*
X28361354Y-39308735D01*
X28368048Y-39305279D01*
X28376265Y-39295803D01*
X28385736Y-39287590D01*
X28391949Y-39277718D01*
X28393612Y-39275802D01*
X28394125Y-39274263D01*
X28396179Y-39271000D01*
X28460327Y-39138407D01*
X28463093Y-39099487D01*
X28450754Y-39062471D01*
X28425189Y-39032994D01*
X28390290Y-39015545D01*
X28351370Y-39012780D01*
X28314354Y-39025118D01*
X28284878Y-39050683D01*
X28274435Y-39067273D01*
X28233708Y-39151453D01*
X28171729Y-39183459D01*
X27144369Y-39185343D01*
X27108321Y-39200275D01*
X27080731Y-39227865D01*
X27065799Y-39263913D01*
X26930545Y-39263913D01*
X26930545Y-38635342D01*
X27065799Y-38635342D01*
X27065799Y-38674360D01*
X27080731Y-38710408D01*
X27108321Y-38737998D01*
X27144369Y-38752930D01*
X27163878Y-38754851D01*
X28176728Y-38752994D01*
X28179943Y-38754066D01*
X28195503Y-38752960D01*
X28211959Y-38752930D01*
X28215279Y-38751554D01*
X28218863Y-38751300D01*
X28237171Y-38744294D01*
X28346491Y-38687840D01*
X28356259Y-38684584D01*
X28361354Y-38680164D01*
X28368048Y-38676708D01*
X28376265Y-38667232D01*
X28385736Y-38659019D01*
X28391949Y-38649147D01*
X28393612Y-38647231D01*
X28394125Y-38645692D01*
X28396179Y-38642429D01*
X28460327Y-38509836D01*
X28463093Y-38470916D01*
X28450754Y-38433900D01*
X28425189Y-38404423D01*
X28390290Y-38386974D01*
X28351370Y-38384209D01*
X28314354Y-38396547D01*
X28284878Y-38422112D01*
X28274435Y-38438702D01*
X28233708Y-38522882D01*
X28171729Y-38554888D01*
X27144369Y-38556772D01*
X27108321Y-38571704D01*
X27080731Y-38599294D01*
X27065799Y-38635342D01*
X26930545Y-38635342D01*
X26930545Y-38197707D01*
X29395810Y-38197707D01*
X29397385Y-38354258D01*
X29396595Y-38356629D01*
X29397543Y-38369969D01*
X29397731Y-38388645D01*
X29399106Y-38391965D01*
X29399361Y-38395549D01*
X29406367Y-38413858D01*
X29462821Y-38523177D01*
X29466077Y-38532944D01*
X29470496Y-38538040D01*
X29473953Y-38544733D01*
X29483426Y-38552949D01*
X29491641Y-38562421D01*
X29501510Y-38568633D01*
X29503430Y-38570298D01*
X29504971Y-38570811D01*
X29508232Y-38572864D01*
X29610136Y-38622165D01*
X29611682Y-38623711D01*
X29623149Y-38628461D01*
X29640826Y-38637013D01*
X29644409Y-38637267D01*
X29647730Y-38638643D01*
X29667239Y-38640564D01*
X29710944Y-38639468D01*
X29711875Y-38639779D01*
X29719126Y-38639263D01*
X29743891Y-38638643D01*
X29747211Y-38637267D01*
X29750795Y-38637013D01*
X29769103Y-38630007D01*
X29878423Y-38573553D01*
X29888191Y-38570297D01*
X29893286Y-38565877D01*
X29899980Y-38562421D01*
X29908197Y-38552945D01*
X29917668Y-38544732D01*
X29923881Y-38534860D01*
X29925544Y-38532944D01*
X29926057Y-38531405D01*
X29928111Y-38528142D01*
X29977411Y-38426238D01*
X29978957Y-38424693D01*
X29983706Y-38413226D01*
X29992259Y-38395549D01*
X29992513Y-38391965D01*
X29993889Y-38388645D01*
X29995810Y-38369136D01*
X29994346Y-38223632D01*
X30025980Y-38158246D01*
X30088938Y-38125734D01*
X30099795Y-38125462D01*
X30163842Y-38156447D01*
X30195972Y-38218666D01*
X30197377Y-38400138D01*
X30142219Y-38514152D01*
X30139453Y-38553072D01*
X30151792Y-38590088D01*
X30177357Y-38619564D01*
X30212256Y-38637013D01*
X30251176Y-38639779D01*
X30288192Y-38627440D01*
X30317668Y-38601875D01*
X30328111Y-38585285D01*
X30359184Y-38521056D01*
X30929663Y-38521056D01*
X30929663Y-38560074D01*
X30944595Y-38596122D01*
X30972185Y-38623712D01*
X31008233Y-38638644D01*
X31027742Y-38640565D01*
X31499441Y-38639821D01*
X31500769Y-39127424D01*
X31008233Y-39128200D01*
X30972185Y-39143132D01*
X30944595Y-39170722D01*
X30929663Y-39206770D01*
X30929663Y-39245788D01*
X30944595Y-39281836D01*
X30972185Y-39309426D01*
X31008233Y-39324358D01*
X31027742Y-39326279D01*
X32247251Y-39324358D01*
X32283299Y-39309426D01*
X32310889Y-39281836D01*
X32325821Y-39245788D01*
X32325821Y-39206770D01*
X32310889Y-39170722D01*
X32283299Y-39143132D01*
X32247251Y-39128200D01*
X32227742Y-39126279D01*
X31698900Y-39127112D01*
X31697572Y-38639509D01*
X32247251Y-38638644D01*
X32283299Y-38623712D01*
X32310889Y-38596122D01*
X32325821Y-38560074D01*
X32325821Y-38521056D01*
X32310889Y-38485008D01*
X32283299Y-38457418D01*
X32247251Y-38442486D01*
X32227742Y-38440565D01*
X31008233Y-38442486D01*
X30972185Y-38457418D01*
X30944595Y-38485008D01*
X30929663Y-38521056D01*
X30359184Y-38521056D01*
X30377411Y-38483380D01*
X30378957Y-38481835D01*
X30383708Y-38470363D01*
X30392259Y-38452690D01*
X30392513Y-38449107D01*
X30393889Y-38445787D01*
X30395810Y-38426278D01*
X30394157Y-38212818D01*
X30395025Y-38210215D01*
X30394028Y-38196190D01*
X30393889Y-38178198D01*
X30392513Y-38174877D01*
X30392259Y-38171295D01*
X30385253Y-38152986D01*
X30328800Y-38043668D01*
X30325544Y-38033898D01*
X30321122Y-38028800D01*
X30317668Y-38022110D01*
X30308196Y-38013895D01*
X30299980Y-38004421D01*
X30290108Y-37998206D01*
X30288192Y-37996545D01*
X30286653Y-37996031D01*
X30283390Y-37993978D01*
X30181484Y-37944676D01*
X30179939Y-37943131D01*
X30168472Y-37938381D01*
X30150795Y-37929829D01*
X30147211Y-37929574D01*
X30143891Y-37928199D01*
X30124382Y-37926278D01*
X30080677Y-37927373D01*
X30079747Y-37927063D01*
X30072495Y-37927578D01*
X30047730Y-37928199D01*
X30044409Y-37929574D01*
X30040826Y-37929829D01*
X30022518Y-37936835D01*
X29913197Y-37993289D01*
X29903430Y-37996545D01*
X29898333Y-38000964D01*
X29891641Y-38004421D01*
X29883425Y-38013893D01*
X29873953Y-38022109D01*
X29867736Y-38031983D01*
X29866077Y-38033898D01*
X29865564Y-38035434D01*
X29863510Y-38038699D01*
X29814208Y-38140604D01*
X29812663Y-38142150D01*
X29807913Y-38153616D01*
X29799361Y-38171294D01*
X29799106Y-38174877D01*
X29797731Y-38178198D01*
X29795810Y-38197707D01*
X29797273Y-38343210D01*
X29765640Y-38408595D01*
X29702682Y-38441107D01*
X29691826Y-38441379D01*
X29627778Y-38410393D01*
X29595598Y-38348078D01*
X29594346Y-38223632D01*
X29649402Y-38109834D01*
X29652168Y-38070913D01*
X29639829Y-38033898D01*
X29614265Y-38004421D01*
X29579366Y-37986971D01*
X29540446Y-37984206D01*
X29503430Y-37996545D01*
X29473953Y-38022109D01*
X29463510Y-38038699D01*
X29414208Y-38140604D01*
X29412663Y-38142150D01*
X29407913Y-38153616D01*
X29399361Y-38171294D01*
X29399106Y-38174877D01*
X29397731Y-38178198D01*
X29395810Y-38197707D01*
X26930545Y-38197707D01*
X26930545Y-37683423D01*
X27463878Y-37683423D01*
X27465530Y-37896884D01*
X27464663Y-37899488D01*
X27465659Y-37913512D01*
X27465799Y-37931504D01*
X27467174Y-37934824D01*
X27467429Y-37938408D01*
X27474435Y-37956717D01*
X27542021Y-38087592D01*
X27571498Y-38113157D01*
X27608514Y-38125495D01*
X27647434Y-38122729D01*
X27682333Y-38105280D01*
X27707897Y-38075803D01*
X27720236Y-38038787D01*
X27717470Y-37999867D01*
X27710464Y-37981559D01*
X27663715Y-37891033D01*
X27662310Y-37709563D01*
X27694047Y-37643962D01*
X27756071Y-37611933D01*
X27788614Y-37611836D01*
X27806867Y-37647181D01*
X27808438Y-37896735D01*
X27807521Y-37899487D01*
X27808546Y-37913914D01*
X27808657Y-37931504D01*
X27810032Y-37934824D01*
X27810287Y-37938408D01*
X27817293Y-37956716D01*
X27873745Y-38066032D01*
X27877002Y-38075803D01*
X27881423Y-38080900D01*
X27884878Y-38087591D01*
X27894349Y-38095805D01*
X27902566Y-38105280D01*
X27912436Y-38111492D01*
X27914354Y-38113156D01*
X27915894Y-38113669D01*
X27919157Y-38115723D01*
X28021061Y-38165024D01*
X28022607Y-38166570D01*
X28034074Y-38171320D01*
X28051751Y-38179872D01*
X28055334Y-38180126D01*
X28058655Y-38181502D01*
X28078164Y-38183423D01*
X28177997Y-38181989D01*
X28179943Y-38182638D01*
X28191868Y-38181790D01*
X28211959Y-38181502D01*
X28215279Y-38180126D01*
X28218863Y-38179872D01*
X28237171Y-38172866D01*
X28346491Y-38116412D01*
X28356259Y-38113156D01*
X28361354Y-38108736D01*
X28368048Y-38105280D01*
X28376265Y-38095804D01*
X28385736Y-38087591D01*
X28391949Y-38077719D01*
X28393612Y-38075803D01*
X28394125Y-38074264D01*
X28396179Y-38071001D01*
X28445479Y-37969097D01*
X28447025Y-37967552D01*
X28451774Y-37956085D01*
X28460327Y-37938408D01*
X28460581Y-37934824D01*
X28461957Y-37931504D01*
X28463878Y-37911995D01*
X28462175Y-37641538D01*
X28463093Y-37638787D01*
X28462067Y-37624360D01*
X28461957Y-37606771D01*
X28460581Y-37603450D01*
X28460327Y-37599867D01*
X28453321Y-37581559D01*
X28446406Y-37568170D01*
X28447025Y-37567552D01*
X28461957Y-37531504D01*
X28461957Y-37492486D01*
X28461956Y-37492483D01*
X28997731Y-37492483D01*
X28997731Y-37531501D01*
X29012663Y-37567549D01*
X29040253Y-37595139D01*
X29076301Y-37610071D01*
X29095810Y-37611992D01*
X29397362Y-37611439D01*
X29397731Y-37702930D01*
X29412663Y-37738978D01*
X29440253Y-37766568D01*
X29476301Y-37781500D01*
X29515319Y-37781500D01*
X29551367Y-37766568D01*
X29578957Y-37738978D01*
X29583480Y-37728058D01*
X30928527Y-37728058D01*
X30929415Y-37740565D01*
X30928527Y-37753072D01*
X30930786Y-37759850D01*
X30931293Y-37766978D01*
X30936899Y-37778190D01*
X30940865Y-37790088D01*
X30945548Y-37795487D01*
X30948743Y-37801877D01*
X30958214Y-37810092D01*
X30966430Y-37819564D01*
X30972819Y-37822758D01*
X30978219Y-37827442D01*
X30996119Y-37835433D01*
X31857910Y-38121265D01*
X31865376Y-38124358D01*
X31867234Y-38124358D01*
X32215234Y-38239780D01*
X32254155Y-38237014D01*
X32289053Y-38219564D01*
X32314619Y-38190088D01*
X32326957Y-38153072D01*
X32324191Y-38114152D01*
X32306741Y-38079253D01*
X32277265Y-38053688D01*
X32259365Y-38045697D01*
X31984651Y-37954582D01*
X31983258Y-37525932D01*
X32277265Y-37427442D01*
X32306741Y-37401877D01*
X32324191Y-37366978D01*
X32326957Y-37328058D01*
X32314619Y-37291042D01*
X32289053Y-37261566D01*
X32254155Y-37244116D01*
X32215234Y-37241350D01*
X32196119Y-37245697D01*
X31008263Y-37643623D01*
X31001329Y-37644116D01*
X30990237Y-37649661D01*
X30978219Y-37653688D01*
X30972819Y-37658371D01*
X30966430Y-37661566D01*
X30958214Y-37671037D01*
X30948743Y-37679253D01*
X30945548Y-37685642D01*
X30940865Y-37691042D01*
X30936899Y-37702939D01*
X30931293Y-37714152D01*
X30930786Y-37721279D01*
X30928527Y-37728058D01*
X29583480Y-37728058D01*
X29593889Y-37702930D01*
X29595810Y-37683421D01*
X29595518Y-37611076D01*
X30108660Y-37610135D01*
X30111875Y-37611207D01*
X30127435Y-37610101D01*
X30143891Y-37610071D01*
X30147211Y-37608695D01*
X30150795Y-37608441D01*
X30169103Y-37601435D01*
X30278423Y-37544981D01*
X30288191Y-37541725D01*
X30293286Y-37537305D01*
X30299980Y-37533849D01*
X30308197Y-37524373D01*
X30317668Y-37516160D01*
X30323881Y-37506288D01*
X30325544Y-37504372D01*
X30326057Y-37502833D01*
X30328111Y-37499570D01*
X30377411Y-37397666D01*
X30378957Y-37396121D01*
X30383706Y-37384654D01*
X30392259Y-37366977D01*
X30392513Y-37363393D01*
X30393889Y-37360073D01*
X30395810Y-37340564D01*
X30393889Y-37206769D01*
X30378957Y-37170721D01*
X30351367Y-37143131D01*
X30315319Y-37128199D01*
X30276301Y-37128199D01*
X30240253Y-37143131D01*
X30212663Y-37170721D01*
X30197731Y-37206769D01*
X30195810Y-37226278D01*
X30197084Y-37315030D01*
X30165640Y-37380023D01*
X30103661Y-37412029D01*
X29594720Y-37412962D01*
X29593889Y-37206769D01*
X29578957Y-37170721D01*
X29551367Y-37143131D01*
X29515319Y-37128199D01*
X29476301Y-37128199D01*
X29440253Y-37143131D01*
X29412663Y-37170721D01*
X29397731Y-37206769D01*
X29395810Y-37226278D01*
X29396563Y-37413325D01*
X29076301Y-37413913D01*
X29040253Y-37428845D01*
X29012663Y-37456435D01*
X28997731Y-37492483D01*
X28461956Y-37492483D01*
X28447025Y-37456438D01*
X28419435Y-37428848D01*
X28383387Y-37413916D01*
X28363878Y-37411995D01*
X27864188Y-37413476D01*
X27862100Y-37412780D01*
X27851787Y-37413512D01*
X27750910Y-37413811D01*
X27747815Y-37412780D01*
X27732528Y-37413866D01*
X27715798Y-37413916D01*
X27712477Y-37415291D01*
X27708895Y-37415546D01*
X27690586Y-37422552D01*
X27581268Y-37479004D01*
X27571498Y-37482261D01*
X27566400Y-37486682D01*
X27559710Y-37490137D01*
X27551495Y-37499608D01*
X27542021Y-37507825D01*
X27535806Y-37517696D01*
X27534145Y-37519613D01*
X27533631Y-37521151D01*
X27531578Y-37524415D01*
X27482276Y-37626320D01*
X27480731Y-37627866D01*
X27475981Y-37639332D01*
X27467429Y-37657010D01*
X27467174Y-37660593D01*
X27465799Y-37663914D01*
X27463878Y-37683423D01*
X26930545Y-37683423D01*
X26930545Y-36418597D01*
X27464174Y-36418597D01*
X27468823Y-36457337D01*
X27487942Y-36491349D01*
X27502096Y-36504913D01*
X27803544Y-36740863D01*
X27487942Y-36989784D01*
X27468823Y-37023796D01*
X27464174Y-37062536D01*
X27474704Y-37100107D01*
X27498810Y-37130788D01*
X27532822Y-37149907D01*
X27571562Y-37154556D01*
X27609133Y-37144026D01*
X27625660Y-37133484D01*
X27964111Y-36866542D01*
X28318623Y-37144026D01*
X28356193Y-37154556D01*
X28394933Y-37149907D01*
X28428946Y-37130787D01*
X28453052Y-37100107D01*
X28463582Y-37062536D01*
X28458933Y-37023796D01*
X28439813Y-36989784D01*
X28425660Y-36976220D01*
X28124210Y-36740269D01*
X28439813Y-36491349D01*
X28444270Y-36483421D01*
X29395810Y-36483421D01*
X29397462Y-36696882D01*
X29396595Y-36699486D01*
X29397591Y-36713510D01*
X29397731Y-36731502D01*
X29399106Y-36734822D01*
X29399361Y-36738406D01*
X29406367Y-36756715D01*
X29473953Y-36887590D01*
X29503430Y-36913155D01*
X29540446Y-36925493D01*
X29579366Y-36922727D01*
X29614265Y-36905278D01*
X29639829Y-36875801D01*
X29652168Y-36838785D01*
X29649402Y-36799865D01*
X29642396Y-36781557D01*
X29595647Y-36691031D01*
X29594242Y-36509561D01*
X29625979Y-36443960D01*
X29688003Y-36411931D01*
X29720546Y-36411834D01*
X29738799Y-36447179D01*
X29740370Y-36696733D01*
X29739453Y-36699485D01*
X29740478Y-36713912D01*
X29740589Y-36731502D01*
X29741964Y-36734822D01*
X29742219Y-36738406D01*
X29749225Y-36756714D01*
X29805677Y-36866030D01*
X29808934Y-36875801D01*
X29813355Y-36880898D01*
X29816810Y-36887589D01*
X29826281Y-36895803D01*
X29834498Y-36905278D01*
X29844368Y-36911490D01*
X29846286Y-36913154D01*
X29847826Y-36913667D01*
X29851089Y-36915721D01*
X29952993Y-36965022D01*
X29954539Y-36966568D01*
X29966006Y-36971318D01*
X29983683Y-36979870D01*
X29987266Y-36980124D01*
X29990587Y-36981500D01*
X30010096Y-36983421D01*
X30109929Y-36981987D01*
X30111875Y-36982636D01*
X30123800Y-36981788D01*
X30143891Y-36981500D01*
X30147211Y-36980124D01*
X30150795Y-36979870D01*
X30169103Y-36972864D01*
X30278423Y-36916410D01*
X30288191Y-36913154D01*
X30293286Y-36908734D01*
X30299980Y-36905278D01*
X30308197Y-36895802D01*
X30317668Y-36887589D01*
X30323881Y-36877717D01*
X30325544Y-36875801D01*
X30326057Y-36874262D01*
X30328111Y-36870999D01*
X30377411Y-36769095D01*
X30378957Y-36767550D01*
X30383706Y-36756083D01*
X30392259Y-36738406D01*
X30392513Y-36734822D01*
X30393889Y-36731502D01*
X30395810Y-36711993D01*
X30394107Y-36441536D01*
X30395025Y-36438785D01*
X30394136Y-36426280D01*
X30927742Y-36426280D01*
X30929663Y-37131503D01*
X30944595Y-37167551D01*
X30972185Y-37195141D01*
X31008233Y-37210073D01*
X31047251Y-37210073D01*
X31083299Y-37195141D01*
X31110889Y-37167551D01*
X31125821Y-37131503D01*
X31127742Y-37111994D01*
X31127080Y-36868980D01*
X32247251Y-36867216D01*
X32283299Y-36852284D01*
X32310889Y-36824694D01*
X32325821Y-36788646D01*
X32325821Y-36749628D01*
X32310889Y-36713580D01*
X32283299Y-36685990D01*
X32247251Y-36671058D01*
X32227742Y-36669137D01*
X31126540Y-36670871D01*
X31125821Y-36406771D01*
X31110889Y-36370723D01*
X31083299Y-36343133D01*
X31047251Y-36328201D01*
X31008233Y-36328201D01*
X30972185Y-36343133D01*
X30944595Y-36370723D01*
X30929663Y-36406771D01*
X30927742Y-36426280D01*
X30394136Y-36426280D01*
X30393999Y-36424358D01*
X30393889Y-36406769D01*
X30392513Y-36403448D01*
X30392259Y-36399865D01*
X30385253Y-36381557D01*
X30378338Y-36368168D01*
X30378957Y-36367550D01*
X30393889Y-36331502D01*
X30393889Y-36292484D01*
X30378957Y-36256436D01*
X30351367Y-36228846D01*
X30315319Y-36213914D01*
X30295810Y-36211993D01*
X29796120Y-36213474D01*
X29794032Y-36212778D01*
X29783719Y-36213510D01*
X29682842Y-36213809D01*
X29679747Y-36212778D01*
X29664460Y-36213864D01*
X29647730Y-36213914D01*
X29644409Y-36215289D01*
X29640827Y-36215544D01*
X29622518Y-36222550D01*
X29513200Y-36279002D01*
X29503430Y-36282259D01*
X29498332Y-36286680D01*
X29491642Y-36290135D01*
X29483427Y-36299606D01*
X29473953Y-36307823D01*
X29467738Y-36317694D01*
X29466077Y-36319611D01*
X29465563Y-36321149D01*
X29463510Y-36324413D01*
X29414208Y-36426318D01*
X29412663Y-36427864D01*
X29407913Y-36439330D01*
X29399361Y-36457008D01*
X29399106Y-36460591D01*
X29397731Y-36463912D01*
X29395810Y-36483421D01*
X28444270Y-36483421D01*
X28458933Y-36457337D01*
X28463582Y-36418597D01*
X28453052Y-36381026D01*
X28428946Y-36350346D01*
X28394933Y-36331226D01*
X28356193Y-36326577D01*
X28318623Y-36337107D01*
X28302096Y-36347649D01*
X27963644Y-36614590D01*
X27609133Y-36337107D01*
X27571562Y-36326577D01*
X27532822Y-36331226D01*
X27498810Y-36350345D01*
X27474704Y-36381026D01*
X27464174Y-36418597D01*
X26930545Y-36418597D01*
X26930545Y-35397707D01*
X29395810Y-35397707D01*
X29397243Y-35497540D01*
X29396595Y-35499486D01*
X29397442Y-35511411D01*
X29397731Y-35531502D01*
X29399106Y-35534822D01*
X29399361Y-35538406D01*
X29406367Y-35556714D01*
X29455178Y-35651234D01*
X29440253Y-35657417D01*
X29412663Y-35685007D01*
X29397731Y-35721055D01*
X29397731Y-35760073D01*
X29412663Y-35796121D01*
X29440253Y-35823711D01*
X29476301Y-35838643D01*
X29495810Y-35840564D01*
X30315319Y-35838643D01*
X30351367Y-35823711D01*
X30378957Y-35796121D01*
X30393889Y-35760073D01*
X30393889Y-35721055D01*
X30378957Y-35685007D01*
X30351367Y-35657417D01*
X30315319Y-35642485D01*
X30295810Y-35640564D01*
X29749927Y-35641843D01*
X29671806Y-35604048D01*
X29636426Y-35569998D01*
X29595505Y-35490756D01*
X29593889Y-35378198D01*
X29578957Y-35342150D01*
X29551367Y-35314560D01*
X29515319Y-35299628D01*
X29476301Y-35299628D01*
X29440253Y-35314560D01*
X29412663Y-35342150D01*
X29397731Y-35378198D01*
X29395810Y-35397707D01*
X26930545Y-35397707D01*
X26930545Y-34597708D01*
X27063878Y-34597708D01*
X27065799Y-35074360D01*
X27080731Y-35110408D01*
X27108321Y-35137998D01*
X27144369Y-35152930D01*
X27163878Y-35154851D01*
X28383387Y-35152930D01*
X28419435Y-35137998D01*
X28447025Y-35110408D01*
X28461957Y-35074360D01*
X28461957Y-35035342D01*
X28447025Y-34999294D01*
X28425929Y-34978198D01*
X28997731Y-34978198D01*
X28997731Y-35017216D01*
X29012663Y-35053264D01*
X29040253Y-35080854D01*
X29076301Y-35095786D01*
X29095810Y-35097707D01*
X29397362Y-35097154D01*
X29397731Y-35188645D01*
X29412663Y-35224693D01*
X29440253Y-35252283D01*
X29476301Y-35267215D01*
X29515319Y-35267215D01*
X29551367Y-35252283D01*
X29578957Y-35224693D01*
X29593889Y-35188645D01*
X29595810Y-35169136D01*
X29595518Y-35096791D01*
X30108660Y-35095850D01*
X30111875Y-35096922D01*
X30127435Y-35095816D01*
X30143891Y-35095786D01*
X30147211Y-35094410D01*
X30150795Y-35094156D01*
X30169103Y-35087150D01*
X30278423Y-35030696D01*
X30288191Y-35027440D01*
X30293286Y-35023020D01*
X30299980Y-35019564D01*
X30308197Y-35010088D01*
X30317668Y-35001875D01*
X30323881Y-34992003D01*
X30325544Y-34990087D01*
X30326057Y-34988548D01*
X30328111Y-34985285D01*
X30377411Y-34883381D01*
X30378957Y-34881836D01*
X30383706Y-34870369D01*
X30392259Y-34852692D01*
X30392513Y-34849108D01*
X30393889Y-34845788D01*
X30395810Y-34826279D01*
X30393889Y-34692484D01*
X30378957Y-34656436D01*
X30351367Y-34628846D01*
X30315319Y-34613914D01*
X30276301Y-34613914D01*
X30240253Y-34628846D01*
X30212663Y-34656436D01*
X30197731Y-34692484D01*
X30195810Y-34711993D01*
X30197084Y-34800745D01*
X30165640Y-34865738D01*
X30103661Y-34897744D01*
X29594720Y-34898677D01*
X29593889Y-34692484D01*
X29578957Y-34656436D01*
X29551367Y-34628846D01*
X29515319Y-34613914D01*
X29476301Y-34613914D01*
X29440253Y-34628846D01*
X29412663Y-34656436D01*
X29397731Y-34692484D01*
X29395810Y-34711993D01*
X29396563Y-34899040D01*
X29076301Y-34899628D01*
X29040253Y-34914560D01*
X29012663Y-34942150D01*
X28997731Y-34978198D01*
X28425929Y-34978198D01*
X28419435Y-34971704D01*
X28383387Y-34956772D01*
X28363878Y-34954851D01*
X27892049Y-34955594D01*
X27890670Y-34613199D01*
X27891665Y-34610215D01*
X27890597Y-34595194D01*
X27890529Y-34578199D01*
X27889153Y-34574878D01*
X27888899Y-34571295D01*
X27881893Y-34552987D01*
X27823216Y-34439364D01*
X27818454Y-34427865D01*
X27815283Y-34424002D01*
X27814307Y-34422111D01*
X27812309Y-34420378D01*
X27806017Y-34412712D01*
X27746775Y-34355697D01*
X27739476Y-34347280D01*
X27735295Y-34344648D01*
X27733721Y-34343133D01*
X27731284Y-34342123D01*
X27722886Y-34336837D01*
X27620980Y-34287535D01*
X27619435Y-34285990D01*
X27607968Y-34281240D01*
X27590291Y-34272688D01*
X27586707Y-34272433D01*
X27583387Y-34271058D01*
X27563878Y-34269137D01*
X27407327Y-34270712D01*
X27404958Y-34269922D01*
X27391617Y-34270870D01*
X27372941Y-34271058D01*
X27369620Y-34272433D01*
X27366037Y-34272688D01*
X27347729Y-34279694D01*
X27234106Y-34338369D01*
X27222606Y-34343133D01*
X27218743Y-34346303D01*
X27216852Y-34347280D01*
X27215119Y-34349277D01*
X27207453Y-34355570D01*
X27150439Y-34414809D01*
X27142021Y-34422111D01*
X27139390Y-34426290D01*
X27137874Y-34427866D01*
X27136863Y-34430304D01*
X27131579Y-34438701D01*
X27082277Y-34540604D01*
X27080731Y-34542151D01*
X27075979Y-34553620D01*
X27067429Y-34571295D01*
X27067174Y-34574878D01*
X27065799Y-34578199D01*
X27063878Y-34597708D01*
X26930545Y-34597708D01*
X26930545Y-33511994D01*
X27463878Y-33511994D01*
X27465311Y-33611827D01*
X27464663Y-33613773D01*
X27465510Y-33625698D01*
X27465799Y-33645789D01*
X27467174Y-33649109D01*
X27467429Y-33652693D01*
X27474435Y-33671001D01*
X27523246Y-33765521D01*
X27508321Y-33771704D01*
X27480731Y-33799294D01*
X27465799Y-33835342D01*
X27465799Y-33874360D01*
X27480731Y-33910408D01*
X27508321Y-33937998D01*
X27544369Y-33952930D01*
X27563878Y-33954851D01*
X28383387Y-33952930D01*
X28419435Y-33937998D01*
X28447025Y-33910408D01*
X28461957Y-33874360D01*
X28461957Y-33835342D01*
X28447025Y-33799294D01*
X28419435Y-33771704D01*
X28383387Y-33756772D01*
X28363878Y-33754851D01*
X27817995Y-33756130D01*
X27739874Y-33718335D01*
X27704494Y-33684285D01*
X27663573Y-33605043D01*
X27661957Y-33492485D01*
X27647025Y-33456437D01*
X27619435Y-33428847D01*
X27583387Y-33413915D01*
X27544369Y-33413915D01*
X27508321Y-33428847D01*
X27480731Y-33456437D01*
X27465799Y-33492485D01*
X27463878Y-33511994D01*
X26930545Y-33511994D01*
X26930545Y-32769137D01*
X27463878Y-32769137D01*
X27465453Y-32925688D01*
X27464663Y-32928059D01*
X27465611Y-32941399D01*
X27465799Y-32960075D01*
X27467174Y-32963395D01*
X27467429Y-32966979D01*
X27474435Y-32985288D01*
X27533111Y-33098909D01*
X27537874Y-33110408D01*
X27541043Y-33114270D01*
X27542021Y-33116163D01*
X27544018Y-33117895D01*
X27550310Y-33125562D01*
X27609557Y-33182582D01*
X27616852Y-33190994D01*
X27621028Y-33193622D01*
X27622606Y-33195141D01*
X27625046Y-33196151D01*
X27633443Y-33201437D01*
X27735347Y-33250738D01*
X27736893Y-33252284D01*
X27748360Y-33257034D01*
X27766037Y-33265586D01*
X27769620Y-33265840D01*
X27772941Y-33267216D01*
X27792450Y-33269137D01*
X28119946Y-33267400D01*
X28122800Y-33268352D01*
X28137492Y-33267307D01*
X28154816Y-33267216D01*
X28158136Y-33265840D01*
X28161720Y-33265586D01*
X28180028Y-33258580D01*
X28293650Y-33199904D01*
X28305150Y-33195141D01*
X28309012Y-33191971D01*
X28310905Y-33190994D01*
X28312637Y-33188996D01*
X28320304Y-33182705D01*
X28345399Y-33156629D01*
X28939453Y-33156629D01*
X28942219Y-33195549D01*
X28959669Y-33230448D01*
X28989145Y-33256013D01*
X29007045Y-33264004D01*
X29862096Y-33547045D01*
X29876301Y-33552929D01*
X29879871Y-33552929D01*
X29883303Y-33554065D01*
X29899287Y-33552929D01*
X29915319Y-33552929D01*
X29918639Y-33551553D01*
X29922223Y-33551299D01*
X29936558Y-33544131D01*
X29951367Y-33537997D01*
X29953907Y-33535456D01*
X29957122Y-33533849D01*
X29967626Y-33521737D01*
X29978957Y-33510407D01*
X29980331Y-33507088D01*
X29982687Y-33504373D01*
X29987756Y-33489163D01*
X29993889Y-33474359D01*
X29994391Y-33469258D01*
X29995025Y-33467357D01*
X29994837Y-33464723D01*
X29995810Y-33454850D01*
X29994619Y-32982252D01*
X30315319Y-32981501D01*
X30351367Y-32966569D01*
X30378957Y-32938979D01*
X30393889Y-32902931D01*
X30393889Y-32863913D01*
X30378957Y-32827865D01*
X30351367Y-32800275D01*
X30315319Y-32785343D01*
X30295810Y-32783422D01*
X29994119Y-32784129D01*
X29993889Y-32692484D01*
X29978957Y-32656436D01*
X29951367Y-32628846D01*
X29915319Y-32613914D01*
X29876301Y-32613914D01*
X29840253Y-32628846D01*
X29812663Y-32656436D01*
X29797731Y-32692484D01*
X29795810Y-32711993D01*
X29795992Y-32784593D01*
X29476301Y-32785343D01*
X29440253Y-32800275D01*
X29412663Y-32827865D01*
X29397731Y-32863913D01*
X29397731Y-32902931D01*
X29412663Y-32938979D01*
X29440253Y-32966569D01*
X29476301Y-32981501D01*
X29495810Y-32983422D01*
X29796492Y-32982717D01*
X29797334Y-33316916D01*
X29051175Y-33069921D01*
X29012255Y-33072687D01*
X28977356Y-33090137D01*
X28951791Y-33119613D01*
X28939453Y-33156629D01*
X28345399Y-33156629D01*
X28377328Y-33123453D01*
X28385736Y-33116162D01*
X28388363Y-33111987D01*
X28389883Y-33110409D01*
X28390894Y-33107967D01*
X28396179Y-33099572D01*
X28445479Y-32997668D01*
X28447025Y-32996123D01*
X28451774Y-32984656D01*
X28460327Y-32966979D01*
X28460581Y-32963395D01*
X28461957Y-32960075D01*
X28463878Y-32940566D01*
X28462302Y-32784015D01*
X28463093Y-32781645D01*
X28462144Y-32768304D01*
X28461957Y-32749628D01*
X28460581Y-32746307D01*
X28460327Y-32742725D01*
X28453321Y-32724416D01*
X28394650Y-32610803D01*
X28389883Y-32599293D01*
X28386711Y-32595428D01*
X28385736Y-32593540D01*
X28383740Y-32591809D01*
X28377446Y-32584140D01*
X28318199Y-32527120D01*
X28310905Y-32518709D01*
X28306727Y-32516079D01*
X28305150Y-32514561D01*
X28302709Y-32513550D01*
X28294315Y-32508266D01*
X28192409Y-32458964D01*
X28190864Y-32457419D01*
X28179397Y-32452669D01*
X28161720Y-32444117D01*
X28158136Y-32443862D01*
X28154816Y-32442487D01*
X28135307Y-32440566D01*
X27807811Y-32442302D01*
X27804958Y-32441351D01*
X27790265Y-32442395D01*
X27772941Y-32442487D01*
X27769620Y-32443862D01*
X27766037Y-32444117D01*
X27747729Y-32451123D01*
X27634109Y-32509797D01*
X27622608Y-32514561D01*
X27618744Y-32517731D01*
X27616852Y-32518709D01*
X27615120Y-32520705D01*
X27607454Y-32526997D01*
X27550433Y-32586243D01*
X27542021Y-32593539D01*
X27539391Y-32597716D01*
X27537874Y-32599293D01*
X27536863Y-32601731D01*
X27531578Y-32610129D01*
X27482276Y-32712034D01*
X27480731Y-32713580D01*
X27475981Y-32725046D01*
X27467429Y-32742724D01*
X27467174Y-32746307D01*
X27465799Y-32749628D01*
X27463878Y-32769137D01*
X26930545Y-32769137D01*
X26930545Y-31683423D01*
X27463878Y-31683423D01*
X27465530Y-31896884D01*
X27464663Y-31899488D01*
X27465659Y-31913512D01*
X27465799Y-31931504D01*
X27467174Y-31934824D01*
X27467429Y-31938408D01*
X27474435Y-31956717D01*
X27481348Y-31970105D01*
X27480731Y-31970723D01*
X27465799Y-32006771D01*
X27465799Y-32045789D01*
X27480731Y-32081837D01*
X27508321Y-32109427D01*
X27544369Y-32124359D01*
X27563878Y-32126280D01*
X28313670Y-32125098D01*
X28319244Y-32125495D01*
X28320464Y-32125088D01*
X28783387Y-32124359D01*
X28819435Y-32109427D01*
X28847025Y-32081837D01*
X28861957Y-32045789D01*
X28861957Y-32006771D01*
X28847025Y-31970723D01*
X28819435Y-31943133D01*
X28783387Y-31928201D01*
X28763878Y-31926280D01*
X28462424Y-31926754D01*
X28463878Y-31911995D01*
X28463878Y-31911993D01*
X28995810Y-31911993D01*
X28997243Y-32011826D01*
X28996595Y-32013772D01*
X28997442Y-32025697D01*
X28997731Y-32045788D01*
X28999106Y-32049108D01*
X28999361Y-32052692D01*
X29006367Y-32071000D01*
X29065042Y-32184621D01*
X29069806Y-32196123D01*
X29072976Y-32199985D01*
X29073953Y-32201877D01*
X29075950Y-32203609D01*
X29082243Y-32211276D01*
X29141485Y-32268290D01*
X29148784Y-32276707D01*
X29152963Y-32279337D01*
X29154540Y-32280855D01*
X29156978Y-32281865D01*
X29165375Y-32287150D01*
X29274448Y-32339919D01*
X29281668Y-32345269D01*
X29296338Y-32350510D01*
X29297969Y-32351299D01*
X29298689Y-32351350D01*
X29300128Y-32351864D01*
X29523328Y-32405881D01*
X29533444Y-32410072D01*
X29545579Y-32411266D01*
X29548092Y-32411875D01*
X29549550Y-32411657D01*
X29552953Y-32411993D01*
X29832498Y-32410233D01*
X29843529Y-32411875D01*
X29855611Y-32410088D01*
X29858177Y-32410072D01*
X29859540Y-32409507D01*
X29862922Y-32409007D01*
X30083896Y-32351992D01*
X30093652Y-32351299D01*
X30108282Y-32345700D01*
X30109954Y-32345269D01*
X30110535Y-32344838D01*
X30111960Y-32344293D01*
X30225576Y-32285620D01*
X30237082Y-32280855D01*
X30240946Y-32277683D01*
X30242837Y-32276707D01*
X30244568Y-32274710D01*
X30252235Y-32268418D01*
X30309257Y-32209170D01*
X30317668Y-32201876D01*
X30320295Y-32197701D01*
X30321815Y-32196123D01*
X30322826Y-32193681D01*
X30328111Y-32185286D01*
X30377411Y-32083381D01*
X30378957Y-32081836D01*
X30383708Y-32070364D01*
X30392259Y-32052691D01*
X30392513Y-32049108D01*
X30393889Y-32045788D01*
X30395810Y-32026279D01*
X30394376Y-31926446D01*
X30395025Y-31924501D01*
X30394177Y-31912575D01*
X30393889Y-31892484D01*
X30392513Y-31889163D01*
X30392259Y-31885581D01*
X30385253Y-31867272D01*
X30326582Y-31753659D01*
X30321815Y-31742149D01*
X30318643Y-31738284D01*
X30317668Y-31736396D01*
X30315672Y-31734665D01*
X30309378Y-31726996D01*
X30250131Y-31669976D01*
X30242837Y-31661565D01*
X30238659Y-31658935D01*
X30237082Y-31657417D01*
X30234641Y-31656406D01*
X30226247Y-31651122D01*
X30117174Y-31598353D01*
X30109954Y-31593003D01*
X30095281Y-31587761D01*
X30093652Y-31586973D01*
X30092931Y-31586921D01*
X30091493Y-31586408D01*
X29868292Y-31532390D01*
X29858177Y-31528200D01*
X29846041Y-31527005D01*
X29843529Y-31526397D01*
X29842070Y-31526614D01*
X29838668Y-31526279D01*
X29559122Y-31528038D01*
X29548092Y-31526397D01*
X29536010Y-31528183D01*
X29533444Y-31528200D01*
X29532079Y-31528765D01*
X29528700Y-31529265D01*
X29307726Y-31586279D01*
X29297969Y-31586973D01*
X29283336Y-31592572D01*
X29281668Y-31593003D01*
X29281087Y-31593433D01*
X29279661Y-31593979D01*
X29166041Y-31652653D01*
X29154540Y-31657417D01*
X29150676Y-31660587D01*
X29148784Y-31661565D01*
X29147052Y-31663561D01*
X29139386Y-31669853D01*
X29082365Y-31729099D01*
X29073953Y-31736395D01*
X29071323Y-31740572D01*
X29069806Y-31742149D01*
X29068795Y-31744587D01*
X29063510Y-31752985D01*
X29014208Y-31854890D01*
X29012663Y-31856436D01*
X29007913Y-31867902D01*
X28999361Y-31885580D01*
X28999106Y-31889163D01*
X28997731Y-31892484D01*
X28995810Y-31911993D01*
X28463878Y-31911993D01*
X28462225Y-31698534D01*
X28463093Y-31695931D01*
X28462096Y-31681906D01*
X28461957Y-31663914D01*
X28460581Y-31660593D01*
X28460327Y-31657011D01*
X28453321Y-31638702D01*
X28394650Y-31525089D01*
X28389883Y-31513579D01*
X28386711Y-31509714D01*
X28385736Y-31507826D01*
X28383740Y-31506095D01*
X28377446Y-31498426D01*
X28318199Y-31441406D01*
X28310905Y-31432995D01*
X28306727Y-31430365D01*
X28305150Y-31428847D01*
X28302709Y-31427836D01*
X28294315Y-31422552D01*
X28192409Y-31373250D01*
X28190864Y-31371705D01*
X28179397Y-31366955D01*
X28161720Y-31358403D01*
X28158136Y-31358148D01*
X28154816Y-31356773D01*
X28135307Y-31354852D01*
X27807811Y-31356588D01*
X27804958Y-31355637D01*
X27790265Y-31356681D01*
X27772941Y-31356773D01*
X27769620Y-31358148D01*
X27766037Y-31358403D01*
X27747729Y-31365409D01*
X27634109Y-31424083D01*
X27622608Y-31428847D01*
X27618744Y-31432017D01*
X27616852Y-31432995D01*
X27615120Y-31434991D01*
X27607454Y-31441283D01*
X27550433Y-31500529D01*
X27542021Y-31507825D01*
X27539391Y-31512002D01*
X27537874Y-31513579D01*
X27536863Y-31516017D01*
X27531578Y-31524415D01*
X27482276Y-31626320D01*
X27480731Y-31627866D01*
X27475981Y-31639332D01*
X27467429Y-31657010D01*
X27467174Y-31660593D01*
X27465799Y-31663914D01*
X27463878Y-31683423D01*
X26930545Y-31683423D01*
X26930545Y-30597709D01*
X27463878Y-30597709D01*
X27465530Y-30811170D01*
X27464663Y-30813774D01*
X27465659Y-30827798D01*
X27465799Y-30845790D01*
X27467174Y-30849110D01*
X27467429Y-30852694D01*
X27474435Y-30871003D01*
X27530889Y-30980322D01*
X27534145Y-30990089D01*
X27538564Y-30995185D01*
X27542021Y-31001878D01*
X27551494Y-31010094D01*
X27559709Y-31019566D01*
X27569578Y-31025778D01*
X27571498Y-31027443D01*
X27573039Y-31027956D01*
X27576300Y-31030009D01*
X27678204Y-31079310D01*
X27679750Y-31080856D01*
X27691217Y-31085606D01*
X27708894Y-31094158D01*
X27712477Y-31094412D01*
X27715798Y-31095788D01*
X27735307Y-31097709D01*
X27959417Y-31096805D01*
X27963983Y-31097709D01*
X27968685Y-31096768D01*
X28176958Y-31095929D01*
X28179943Y-31096924D01*
X28194963Y-31095856D01*
X28211959Y-31095788D01*
X28215279Y-31094412D01*
X28218863Y-31094158D01*
X28237171Y-31087152D01*
X28346491Y-31030698D01*
X28356259Y-31027442D01*
X28361354Y-31023022D01*
X28368048Y-31019566D01*
X28376265Y-31010090D01*
X28385736Y-31001877D01*
X28391949Y-30992005D01*
X28393612Y-30990089D01*
X28394125Y-30988550D01*
X28396179Y-30985287D01*
X28445479Y-30883383D01*
X28447025Y-30881838D01*
X28451774Y-30870371D01*
X28460327Y-30852694D01*
X28460581Y-30849110D01*
X28461957Y-30845790D01*
X28463878Y-30826281D01*
X28463435Y-30769136D01*
X28995810Y-30769136D01*
X28997243Y-30868969D01*
X28996595Y-30870915D01*
X28997442Y-30882840D01*
X28997731Y-30902931D01*
X28999106Y-30906251D01*
X28999361Y-30909835D01*
X29006367Y-30928143D01*
X29065042Y-31041764D01*
X29069806Y-31053266D01*
X29072976Y-31057128D01*
X29073953Y-31059020D01*
X29075950Y-31060752D01*
X29082243Y-31068419D01*
X29141485Y-31125433D01*
X29148784Y-31133850D01*
X29152963Y-31136480D01*
X29154540Y-31137998D01*
X29156978Y-31139008D01*
X29165375Y-31144293D01*
X29274448Y-31197062D01*
X29281668Y-31202412D01*
X29296338Y-31207653D01*
X29297969Y-31208442D01*
X29298689Y-31208493D01*
X29300128Y-31209007D01*
X29523328Y-31263024D01*
X29533444Y-31267215D01*
X29545579Y-31268409D01*
X29548092Y-31269018D01*
X29549550Y-31268800D01*
X29552953Y-31269136D01*
X29832498Y-31267376D01*
X29843529Y-31269018D01*
X29855611Y-31267231D01*
X29858177Y-31267215D01*
X29859540Y-31266650D01*
X29862922Y-31266150D01*
X30083896Y-31209135D01*
X30093652Y-31208442D01*
X30108282Y-31202843D01*
X30109954Y-31202412D01*
X30110535Y-31201981D01*
X30111960Y-31201436D01*
X30225576Y-31142763D01*
X30237082Y-31137998D01*
X30240946Y-31134826D01*
X30242837Y-31133850D01*
X30244568Y-31131853D01*
X30252235Y-31125561D01*
X30309257Y-31066313D01*
X30317668Y-31059019D01*
X30320295Y-31054844D01*
X30321815Y-31053266D01*
X30322826Y-31050824D01*
X30328111Y-31042429D01*
X30377411Y-30940524D01*
X30378957Y-30938979D01*
X30383708Y-30927507D01*
X30392259Y-30909834D01*
X30392513Y-30906251D01*
X30393889Y-30902931D01*
X30395810Y-30883422D01*
X30394376Y-30783589D01*
X30395025Y-30781644D01*
X30394177Y-30769718D01*
X30393889Y-30749627D01*
X30392513Y-30746306D01*
X30392259Y-30742724D01*
X30385253Y-30724415D01*
X30326582Y-30610802D01*
X30321815Y-30599292D01*
X30318643Y-30595427D01*
X30317668Y-30593539D01*
X30315672Y-30591808D01*
X30309378Y-30584139D01*
X30250131Y-30527119D01*
X30242837Y-30518708D01*
X30238659Y-30516078D01*
X30237082Y-30514560D01*
X30234641Y-30513549D01*
X30226247Y-30508265D01*
X30117174Y-30455496D01*
X30109954Y-30450146D01*
X30095281Y-30444904D01*
X30093652Y-30444116D01*
X30092931Y-30444064D01*
X30091493Y-30443551D01*
X29868292Y-30389533D01*
X29858177Y-30385343D01*
X29846041Y-30384148D01*
X29843529Y-30383540D01*
X29842070Y-30383757D01*
X29838668Y-30383422D01*
X29559122Y-30385181D01*
X29548092Y-30383540D01*
X29536010Y-30385326D01*
X29533444Y-30385343D01*
X29532079Y-30385908D01*
X29528700Y-30386408D01*
X29307726Y-30443422D01*
X29297969Y-30444116D01*
X29283336Y-30449715D01*
X29281668Y-30450146D01*
X29281087Y-30450576D01*
X29279661Y-30451122D01*
X29166041Y-30509796D01*
X29154540Y-30514560D01*
X29150676Y-30517730D01*
X29148784Y-30518708D01*
X29147052Y-30520704D01*
X29139386Y-30526996D01*
X29082365Y-30586242D01*
X29073953Y-30593538D01*
X29071323Y-30597715D01*
X29069806Y-30599292D01*
X29068795Y-30601730D01*
X29063510Y-30610128D01*
X29014208Y-30712033D01*
X29012663Y-30713579D01*
X29007913Y-30725045D01*
X28999361Y-30742723D01*
X28999106Y-30746306D01*
X28997731Y-30749627D01*
X28995810Y-30769136D01*
X28463435Y-30769136D01*
X28462225Y-30612820D01*
X28463093Y-30610217D01*
X28462096Y-30596192D01*
X28461957Y-30578200D01*
X28460581Y-30574879D01*
X28460327Y-30571297D01*
X28453321Y-30552988D01*
X28385736Y-30422112D01*
X28356260Y-30396547D01*
X28319244Y-30384208D01*
X28280324Y-30386974D01*
X28245425Y-30404423D01*
X28219860Y-30433899D01*
X28207521Y-30470915D01*
X28210287Y-30509835D01*
X28217293Y-30528144D01*
X28264040Y-30618668D01*
X28265445Y-30800141D01*
X28233708Y-30865740D01*
X28171641Y-30897792D01*
X28045711Y-30898300D01*
X27947672Y-30416103D01*
X27947672Y-30406772D01*
X27943945Y-30397776D01*
X27941941Y-30387916D01*
X27936489Y-30379775D01*
X27932740Y-30370724D01*
X27925740Y-30363724D01*
X27920230Y-30355496D01*
X27912076Y-30350060D01*
X27905150Y-30343134D01*
X27896003Y-30339345D01*
X27887765Y-30333853D01*
X27878154Y-30331951D01*
X27869102Y-30328202D01*
X27849593Y-30326281D01*
X27849495Y-30326282D01*
X27849488Y-30326281D01*
X27849479Y-30326282D01*
X27749760Y-30327714D01*
X27747815Y-30327066D01*
X27735889Y-30327913D01*
X27715798Y-30328202D01*
X27712477Y-30329577D01*
X27708895Y-30329832D01*
X27690586Y-30336838D01*
X27581268Y-30393290D01*
X27571498Y-30396547D01*
X27566400Y-30400968D01*
X27559710Y-30404423D01*
X27551495Y-30413894D01*
X27542021Y-30422111D01*
X27535806Y-30431982D01*
X27534145Y-30433899D01*
X27533631Y-30435437D01*
X27531578Y-30438701D01*
X27482276Y-30540606D01*
X27480731Y-30542152D01*
X27475981Y-30553618D01*
X27467429Y-30571296D01*
X27467174Y-30574879D01*
X27465799Y-30578200D01*
X27463878Y-30597709D01*
X26930545Y-30597709D01*
X26930545Y-29892486D01*
X27065799Y-29892486D01*
X27065799Y-29931504D01*
X27080731Y-29967552D01*
X27108321Y-29995142D01*
X27144369Y-30010074D01*
X27163878Y-30011995D01*
X28176728Y-30010138D01*
X28179943Y-30011210D01*
X28195503Y-30010104D01*
X28211959Y-30010074D01*
X28215279Y-30008698D01*
X28218863Y-30008444D01*
X28237171Y-30001438D01*
X28346491Y-29944984D01*
X28356259Y-29941728D01*
X28361354Y-29937308D01*
X28368048Y-29933852D01*
X28376265Y-29924376D01*
X28385736Y-29916163D01*
X28391949Y-29906291D01*
X28393612Y-29904375D01*
X28394125Y-29902836D01*
X28396179Y-29899573D01*
X28460327Y-29766980D01*
X28463093Y-29728060D01*
X28450754Y-29691044D01*
X28425189Y-29661567D01*
X28390290Y-29644118D01*
X28351370Y-29641353D01*
X28314354Y-29653691D01*
X28284878Y-29679256D01*
X28274435Y-29695846D01*
X28233708Y-29780026D01*
X28171729Y-29812032D01*
X27144369Y-29813916D01*
X27108321Y-29828848D01*
X27080731Y-29856438D01*
X27065799Y-29892486D01*
X26930545Y-29892486D01*
X26930545Y-29626279D01*
X28995810Y-29626279D01*
X28997243Y-29726112D01*
X28996595Y-29728058D01*
X28997442Y-29739983D01*
X28997731Y-29760074D01*
X28999106Y-29763394D01*
X28999361Y-29766978D01*
X29006367Y-29785286D01*
X29065042Y-29898907D01*
X29069806Y-29910409D01*
X29072976Y-29914271D01*
X29073953Y-29916163D01*
X29075950Y-29917895D01*
X29082243Y-29925562D01*
X29141485Y-29982576D01*
X29148784Y-29990993D01*
X29152963Y-29993623D01*
X29154540Y-29995141D01*
X29156978Y-29996151D01*
X29165375Y-30001436D01*
X29274448Y-30054205D01*
X29281668Y-30059555D01*
X29296338Y-30064796D01*
X29297969Y-30065585D01*
X29298689Y-30065636D01*
X29300128Y-30066150D01*
X29523328Y-30120167D01*
X29533444Y-30124358D01*
X29545579Y-30125552D01*
X29548092Y-30126161D01*
X29549550Y-30125943D01*
X29552953Y-30126279D01*
X29832498Y-30124519D01*
X29843529Y-30126161D01*
X29855611Y-30124374D01*
X29858177Y-30124358D01*
X29859540Y-30123793D01*
X29862922Y-30123293D01*
X30083896Y-30066278D01*
X30093652Y-30065585D01*
X30108282Y-30059986D01*
X30109954Y-30059555D01*
X30110535Y-30059124D01*
X30111960Y-30058579D01*
X30225576Y-29999906D01*
X30237082Y-29995141D01*
X30240946Y-29991969D01*
X30242837Y-29990993D01*
X30244568Y-29988996D01*
X30252235Y-29982704D01*
X30309257Y-29923456D01*
X30317668Y-29916162D01*
X30320295Y-29911987D01*
X30321815Y-29910409D01*
X30322826Y-29907967D01*
X30328111Y-29899572D01*
X30377411Y-29797667D01*
X30378957Y-29796122D01*
X30383708Y-29784650D01*
X30392259Y-29766977D01*
X30392513Y-29763394D01*
X30393889Y-29760074D01*
X30395810Y-29740565D01*
X30394376Y-29640732D01*
X30395025Y-29638787D01*
X30394177Y-29626861D01*
X30393889Y-29606770D01*
X30392513Y-29603449D01*
X30392259Y-29599867D01*
X30385253Y-29581558D01*
X30326582Y-29467945D01*
X30321815Y-29456435D01*
X30318643Y-29452570D01*
X30317668Y-29450682D01*
X30315672Y-29448951D01*
X30309378Y-29441282D01*
X30250131Y-29384262D01*
X30242837Y-29375851D01*
X30238659Y-29373221D01*
X30237082Y-29371703D01*
X30234641Y-29370692D01*
X30226247Y-29365408D01*
X30117174Y-29312639D01*
X30109954Y-29307289D01*
X30095281Y-29302047D01*
X30093652Y-29301259D01*
X30092931Y-29301207D01*
X30091493Y-29300694D01*
X29868292Y-29246676D01*
X29858177Y-29242486D01*
X29846041Y-29241291D01*
X29843529Y-29240683D01*
X29842070Y-29240900D01*
X29838668Y-29240565D01*
X29559122Y-29242324D01*
X29548092Y-29240683D01*
X29536010Y-29242469D01*
X29533444Y-29242486D01*
X29532079Y-29243051D01*
X29528700Y-29243551D01*
X29307726Y-29300565D01*
X29297969Y-29301259D01*
X29283336Y-29306858D01*
X29281668Y-29307289D01*
X29281087Y-29307719D01*
X29279661Y-29308265D01*
X29166041Y-29366939D01*
X29154540Y-29371703D01*
X29150676Y-29374873D01*
X29148784Y-29375851D01*
X29147052Y-29377847D01*
X29139386Y-29384139D01*
X29082365Y-29443385D01*
X29073953Y-29450681D01*
X29071323Y-29454858D01*
X29069806Y-29456435D01*
X29068795Y-29458873D01*
X29063510Y-29467271D01*
X29014208Y-29569176D01*
X29012663Y-29570722D01*
X29007913Y-29582188D01*
X28999361Y-29599866D01*
X28999106Y-29603449D01*
X28997731Y-29606770D01*
X28995810Y-29626279D01*
X26930545Y-29626279D01*
X26930545Y-29263915D01*
X27065799Y-29263915D01*
X27065799Y-29302933D01*
X27080731Y-29338981D01*
X27108321Y-29366571D01*
X27144369Y-29381503D01*
X27163878Y-29383424D01*
X28176728Y-29381567D01*
X28179943Y-29382639D01*
X28195503Y-29381533D01*
X28211959Y-29381503D01*
X28215279Y-29380127D01*
X28218863Y-29379873D01*
X28237171Y-29372867D01*
X28346491Y-29316413D01*
X28356259Y-29313157D01*
X28361354Y-29308737D01*
X28368048Y-29305281D01*
X28376265Y-29295805D01*
X28385736Y-29287592D01*
X28391949Y-29277720D01*
X28393612Y-29275804D01*
X28394125Y-29274265D01*
X28396179Y-29271002D01*
X28460327Y-29138409D01*
X28463093Y-29099489D01*
X28450754Y-29062473D01*
X28425189Y-29032996D01*
X28390290Y-29015547D01*
X28351370Y-29012782D01*
X28314354Y-29025120D01*
X28284878Y-29050685D01*
X28274435Y-29067275D01*
X28233708Y-29151455D01*
X28171729Y-29183461D01*
X27144369Y-29185345D01*
X27108321Y-29200277D01*
X27080731Y-29227867D01*
X27065799Y-29263915D01*
X26930545Y-29263915D01*
X26930545Y-28311996D01*
X27463878Y-28311996D01*
X27465530Y-28525457D01*
X27464663Y-28528061D01*
X27465659Y-28542085D01*
X27465799Y-28560077D01*
X27467174Y-28563397D01*
X27467429Y-28566981D01*
X27474435Y-28585290D01*
X27530889Y-28694609D01*
X27534145Y-28704376D01*
X27538564Y-28709472D01*
X27542021Y-28716165D01*
X27551494Y-28724381D01*
X27559709Y-28733853D01*
X27569578Y-28740065D01*
X27571498Y-28741730D01*
X27573039Y-28742243D01*
X27576300Y-28744296D01*
X27678204Y-28793597D01*
X27679750Y-28795143D01*
X27691217Y-28799893D01*
X27708894Y-28808445D01*
X27712477Y-28808699D01*
X27715798Y-28810075D01*
X27735307Y-28811996D01*
X27959417Y-28811092D01*
X27963983Y-28811996D01*
X27968685Y-28811055D01*
X28176958Y-28810216D01*
X28179943Y-28811211D01*
X28194963Y-28810143D01*
X28211959Y-28810075D01*
X28215279Y-28808699D01*
X28218863Y-28808445D01*
X28237171Y-28801439D01*
X28346491Y-28744985D01*
X28356259Y-28741729D01*
X28361354Y-28737309D01*
X28368048Y-28733853D01*
X28376265Y-28724377D01*
X28385736Y-28716164D01*
X28391949Y-28706292D01*
X28393612Y-28704376D01*
X28394125Y-28702837D01*
X28396179Y-28699574D01*
X28445479Y-28597670D01*
X28447025Y-28596125D01*
X28451774Y-28584658D01*
X28460327Y-28566981D01*
X28460581Y-28563397D01*
X28461957Y-28560077D01*
X28463878Y-28540568D01*
X28463435Y-28483422D01*
X28995810Y-28483422D01*
X28997243Y-28583255D01*
X28996595Y-28585201D01*
X28997442Y-28597126D01*
X28997731Y-28617217D01*
X28999106Y-28620537D01*
X28999361Y-28624121D01*
X29006367Y-28642429D01*
X29065042Y-28756050D01*
X29069806Y-28767552D01*
X29072976Y-28771414D01*
X29073953Y-28773306D01*
X29075950Y-28775038D01*
X29082243Y-28782705D01*
X29141485Y-28839719D01*
X29148784Y-28848136D01*
X29152963Y-28850766D01*
X29154540Y-28852284D01*
X29156978Y-28853294D01*
X29165375Y-28858579D01*
X29274448Y-28911348D01*
X29281668Y-28916698D01*
X29296338Y-28921939D01*
X29297969Y-28922728D01*
X29298689Y-28922779D01*
X29300128Y-28923293D01*
X29523328Y-28977310D01*
X29533444Y-28981501D01*
X29545579Y-28982695D01*
X29548092Y-28983304D01*
X29549550Y-28983086D01*
X29552953Y-28983422D01*
X29832498Y-28981662D01*
X29843529Y-28983304D01*
X29855611Y-28981517D01*
X29858177Y-28981501D01*
X29859540Y-28980936D01*
X29862922Y-28980436D01*
X30083896Y-28923421D01*
X30093652Y-28922728D01*
X30108282Y-28917129D01*
X30109954Y-28916698D01*
X30110535Y-28916267D01*
X30111960Y-28915722D01*
X30225576Y-28857049D01*
X30237082Y-28852284D01*
X30240946Y-28849112D01*
X30242837Y-28848136D01*
X30244568Y-28846139D01*
X30252235Y-28839847D01*
X30309257Y-28780599D01*
X30317668Y-28773305D01*
X30320295Y-28769130D01*
X30321815Y-28767552D01*
X30322826Y-28765110D01*
X30328111Y-28756715D01*
X30377411Y-28654810D01*
X30378957Y-28653265D01*
X30383708Y-28641793D01*
X30392259Y-28624120D01*
X30392513Y-28620537D01*
X30393889Y-28617217D01*
X30395810Y-28597708D01*
X30394376Y-28497875D01*
X30395025Y-28495930D01*
X30394177Y-28484004D01*
X30393889Y-28463913D01*
X30392513Y-28460592D01*
X30392259Y-28457010D01*
X30385253Y-28438701D01*
X30326582Y-28325088D01*
X30321815Y-28313578D01*
X30318643Y-28309713D01*
X30317668Y-28307825D01*
X30315672Y-28306094D01*
X30309378Y-28298425D01*
X30250131Y-28241405D01*
X30242837Y-28232994D01*
X30238659Y-28230364D01*
X30237082Y-28228846D01*
X30234641Y-28227835D01*
X30226247Y-28222551D01*
X30117174Y-28169782D01*
X30109954Y-28164432D01*
X30095281Y-28159190D01*
X30093652Y-28158402D01*
X30092931Y-28158350D01*
X30091493Y-28157837D01*
X29868292Y-28103819D01*
X29858177Y-28099629D01*
X29846041Y-28098434D01*
X29843529Y-28097826D01*
X29842070Y-28098043D01*
X29838668Y-28097708D01*
X29559122Y-28099467D01*
X29548092Y-28097826D01*
X29536010Y-28099612D01*
X29533444Y-28099629D01*
X29532079Y-28100194D01*
X29528700Y-28100694D01*
X29307726Y-28157708D01*
X29297969Y-28158402D01*
X29283336Y-28164001D01*
X29281668Y-28164432D01*
X29281087Y-28164862D01*
X29279661Y-28165408D01*
X29166041Y-28224082D01*
X29154540Y-28228846D01*
X29150676Y-28232016D01*
X29148784Y-28232994D01*
X29147052Y-28234990D01*
X29139386Y-28241282D01*
X29082365Y-28300528D01*
X29073953Y-28307824D01*
X29071323Y-28312001D01*
X29069806Y-28313578D01*
X29068795Y-28316016D01*
X29063510Y-28324414D01*
X29014208Y-28426319D01*
X29012663Y-28427865D01*
X29007913Y-28439331D01*
X28999361Y-28457009D01*
X28999106Y-28460592D01*
X28997731Y-28463913D01*
X28995810Y-28483422D01*
X28463435Y-28483422D01*
X28462225Y-28327107D01*
X28463093Y-28324504D01*
X28462096Y-28310479D01*
X28461957Y-28292487D01*
X28460581Y-28289166D01*
X28460327Y-28285584D01*
X28453321Y-28267275D01*
X28385736Y-28136399D01*
X28356260Y-28110834D01*
X28319244Y-28098495D01*
X28280324Y-28101261D01*
X28245425Y-28118710D01*
X28219860Y-28148186D01*
X28207521Y-28185202D01*
X28210287Y-28224122D01*
X28217293Y-28242431D01*
X28264040Y-28332955D01*
X28265445Y-28514428D01*
X28233708Y-28580027D01*
X28171641Y-28612079D01*
X28045711Y-28612587D01*
X27947672Y-28130390D01*
X27947672Y-28121059D01*
X27943945Y-28112063D01*
X27941941Y-28102203D01*
X27936489Y-28094062D01*
X27932740Y-28085011D01*
X27925740Y-28078011D01*
X27920230Y-28069783D01*
X27912076Y-28064347D01*
X27905150Y-28057421D01*
X27896003Y-28053632D01*
X27887765Y-28048140D01*
X27878154Y-28046238D01*
X27869102Y-28042489D01*
X27849593Y-28040568D01*
X27849495Y-28040569D01*
X27849488Y-28040568D01*
X27849479Y-28040569D01*
X27749760Y-28042001D01*
X27747815Y-28041353D01*
X27735889Y-28042200D01*
X27715798Y-28042489D01*
X27712477Y-28043864D01*
X27708895Y-28044119D01*
X27690586Y-28051125D01*
X27581268Y-28107577D01*
X27571498Y-28110834D01*
X27566400Y-28115255D01*
X27559710Y-28118710D01*
X27551495Y-28128181D01*
X27542021Y-28136398D01*
X27535806Y-28146269D01*
X27534145Y-28148186D01*
X27533631Y-28149724D01*
X27531578Y-28152988D01*
X27482276Y-28254893D01*
X27480731Y-28256439D01*
X27475981Y-28267905D01*
X27467429Y-28285583D01*
X27467174Y-28289166D01*
X27465799Y-28292487D01*
X27463878Y-28311996D01*
X26930545Y-28311996D01*
X26930545Y-27283425D01*
X27463878Y-27283425D01*
X27465311Y-27383258D01*
X27464663Y-27385204D01*
X27465510Y-27397129D01*
X27465799Y-27417220D01*
X27467174Y-27420540D01*
X27467429Y-27424124D01*
X27474435Y-27442432D01*
X27523246Y-27536952D01*
X27508321Y-27543135D01*
X27480731Y-27570725D01*
X27465799Y-27606773D01*
X27465799Y-27645791D01*
X27480731Y-27681839D01*
X27508321Y-27709429D01*
X27544369Y-27724361D01*
X27563878Y-27726282D01*
X28383387Y-27724361D01*
X28419435Y-27709429D01*
X28447025Y-27681839D01*
X28461957Y-27645791D01*
X28461957Y-27606773D01*
X28447025Y-27570725D01*
X28419435Y-27543135D01*
X28383387Y-27528203D01*
X28363878Y-27526282D01*
X27817995Y-27527561D01*
X27739874Y-27489766D01*
X27704494Y-27455716D01*
X27663573Y-27376474D01*
X27661957Y-27263916D01*
X27647025Y-27227868D01*
X27619435Y-27200278D01*
X27583387Y-27185346D01*
X27544369Y-27185346D01*
X27508321Y-27200278D01*
X27480731Y-27227868D01*
X27465799Y-27263916D01*
X27463878Y-27283425D01*
X26930545Y-27283425D01*
X26930545Y-27052013D01*
X32461075Y-27052013D01*
X32461075Y-43801684D01*
G37*
G36*
X82496682Y-80431568D02*
G01*
X82546430Y-80479755D01*
X82605575Y-80594942D01*
X82673033Y-80857928D01*
X82674730Y-81190528D01*
X82610667Y-81453605D01*
X82551037Y-81576132D01*
X82502850Y-81625881D01*
X82394968Y-81681275D01*
X82298878Y-81682412D01*
X82192187Y-81630488D01*
X82142439Y-81582302D01*
X82083292Y-81467112D01*
X82015835Y-81204128D01*
X82014138Y-80871528D01*
X82078200Y-80608451D01*
X82137831Y-80485922D01*
X82186017Y-80436176D01*
X82293901Y-80380780D01*
X82389989Y-80379643D01*
X82496682Y-80431568D01*
G37*
G36*
X83039673Y-82047695D02*
G01*
X80221410Y-82047695D01*
X80221410Y-81268521D01*
X80388077Y-81268521D01*
X80389213Y-81284505D01*
X80389213Y-81300537D01*
X80390588Y-81303857D01*
X80390843Y-81307441D01*
X80398009Y-81321773D01*
X80404145Y-81336585D01*
X80406686Y-81339126D01*
X80408293Y-81342339D01*
X80420400Y-81352840D01*
X80431735Y-81364175D01*
X80435053Y-81365549D01*
X80437769Y-81367905D01*
X80452978Y-81372974D01*
X80467783Y-81379107D01*
X80472883Y-81379609D01*
X80474785Y-81380243D01*
X80477418Y-81380055D01*
X80487292Y-81381028D01*
X81102706Y-81379781D01*
X81103499Y-81800537D01*
X81118431Y-81836585D01*
X81146021Y-81864175D01*
X81182069Y-81879107D01*
X81221087Y-81879107D01*
X81257135Y-81864175D01*
X81284725Y-81836585D01*
X81299657Y-81800537D01*
X81301578Y-81781028D01*
X81300821Y-81379379D01*
X81435372Y-81379107D01*
X81471420Y-81364175D01*
X81499010Y-81336585D01*
X81513942Y-81300537D01*
X81513942Y-81261519D01*
X81499010Y-81225471D01*
X81471420Y-81197881D01*
X81435372Y-81182949D01*
X81415863Y-81181028D01*
X81300447Y-81181261D01*
X81299828Y-80852457D01*
X81815863Y-80852457D01*
X81817652Y-81203231D01*
X81815981Y-81214461D01*
X81817771Y-81226564D01*
X81817784Y-81229109D01*
X81818349Y-81230473D01*
X81818849Y-81233853D01*
X81890133Y-81511757D01*
X81890842Y-81521727D01*
X81896449Y-81536382D01*
X81896872Y-81538028D01*
X81897301Y-81538607D01*
X81897848Y-81540036D01*
X81970598Y-81681718D01*
X81975573Y-81693728D01*
X81978757Y-81697608D01*
X81979720Y-81699483D01*
X81981717Y-81701215D01*
X81988009Y-81708882D01*
X82061103Y-81779681D01*
X82068838Y-81788600D01*
X82073043Y-81791247D01*
X82074592Y-81792747D01*
X82077031Y-81793757D01*
X82085428Y-81799043D01*
X82215731Y-81862457D01*
X82217449Y-81864175D01*
X82229622Y-81869217D01*
X82246594Y-81877477D01*
X82250176Y-81877731D01*
X82253497Y-81879107D01*
X82273006Y-81881028D01*
X82401161Y-81879511D01*
X82403355Y-81880243D01*
X82416137Y-81879334D01*
X82435372Y-81879107D01*
X82438692Y-81877731D01*
X82442276Y-81877477D01*
X82460584Y-81870471D01*
X82602265Y-81797722D01*
X82614277Y-81792747D01*
X82618157Y-81789562D01*
X82620032Y-81788600D01*
X82621764Y-81786602D01*
X82629431Y-81780311D01*
X82700230Y-81707216D01*
X82709149Y-81699482D01*
X82711796Y-81695276D01*
X82713296Y-81693728D01*
X82714306Y-81691288D01*
X82719592Y-81682892D01*
X82786449Y-81545514D01*
X82791996Y-81538028D01*
X82797251Y-81523317D01*
X82798026Y-81521726D01*
X82798077Y-81521006D01*
X82798591Y-81519568D01*
X82866805Y-81239440D01*
X82871085Y-81229109D01*
X82872282Y-81216949D01*
X82872888Y-81214462D01*
X82872670Y-81213003D01*
X82873006Y-81209600D01*
X82871216Y-80858824D01*
X82872888Y-80847595D01*
X82871097Y-80835491D01*
X82871085Y-80832948D01*
X82870520Y-80831584D01*
X82870020Y-80828203D01*
X82798734Y-80550297D01*
X82798026Y-80540330D01*
X82792418Y-80525677D01*
X82791996Y-80524028D01*
X82791565Y-80523447D01*
X82791020Y-80522021D01*
X82718273Y-80380344D01*
X82713296Y-80368327D01*
X82710109Y-80364444D01*
X82709149Y-80362574D01*
X82707154Y-80360843D01*
X82700859Y-80353174D01*
X82627765Y-80282374D01*
X82620032Y-80273457D01*
X82615826Y-80270809D01*
X82614277Y-80269309D01*
X82611835Y-80268297D01*
X82603441Y-80263014D01*
X82473137Y-80199598D01*
X82471420Y-80197881D01*
X82459250Y-80192840D01*
X82442276Y-80184579D01*
X82438692Y-80184324D01*
X82435372Y-80182949D01*
X82415863Y-80181028D01*
X82287706Y-80182544D01*
X82285513Y-80181813D01*
X82272730Y-80182721D01*
X82253497Y-80182949D01*
X82250176Y-80184324D01*
X82246593Y-80184579D01*
X82228284Y-80191585D01*
X82086607Y-80264332D01*
X82074592Y-80269309D01*
X82070709Y-80272495D01*
X82068837Y-80273457D01*
X82067105Y-80275453D01*
X82059439Y-80281746D01*
X81988639Y-80354837D01*
X81979720Y-80362573D01*
X81977072Y-80366778D01*
X81975573Y-80368327D01*
X81974562Y-80370767D01*
X81969277Y-80379164D01*
X81902418Y-80516543D01*
X81896872Y-80524028D01*
X81891618Y-80538732D01*
X81890842Y-80540329D01*
X81890790Y-80541051D01*
X81890277Y-80542489D01*
X81822063Y-80822615D01*
X81817784Y-80832948D01*
X81816586Y-80845109D01*
X81815981Y-80847596D01*
X81816198Y-80849054D01*
X81815863Y-80852457D01*
X81299828Y-80852457D01*
X81299657Y-80761519D01*
X81284725Y-80725471D01*
X81257135Y-80697881D01*
X81221087Y-80682949D01*
X81182069Y-80682949D01*
X81146021Y-80697881D01*
X81118431Y-80725471D01*
X81103499Y-80761519D01*
X81101578Y-80781028D01*
X81102332Y-81181663D01*
X80625259Y-81182629D01*
X80943650Y-80222108D01*
X80940884Y-80183188D01*
X80923434Y-80148289D01*
X80893958Y-80122724D01*
X80856942Y-80110385D01*
X80818022Y-80113152D01*
X80783123Y-80130601D01*
X80757558Y-80160077D01*
X80749567Y-80177978D01*
X80395144Y-81247198D01*
X80389213Y-81261519D01*
X80389213Y-81265093D01*
X80388077Y-81268521D01*
X80221410Y-81268521D01*
X80221410Y-79943718D01*
X83039673Y-79943718D01*
X83039673Y-82047695D01*
G37*
G36*
X82568109Y-83606567D02*
G01*
X82617858Y-83654754D01*
X82673072Y-83762286D01*
X82674084Y-84073639D01*
X82622465Y-84179704D01*
X82574278Y-84229453D01*
X82466624Y-84284730D01*
X82227959Y-84286232D01*
X82120759Y-84234060D01*
X82071009Y-84185872D01*
X82015757Y-84078267D01*
X82014176Y-83768235D01*
X82066402Y-83660922D01*
X82114588Y-83611176D01*
X82222244Y-83555897D01*
X82460908Y-83554395D01*
X82568109Y-83606567D01*
G37*
G36*
X83039673Y-85222695D02*
G01*
X80151117Y-85222695D01*
X80151117Y-83436519D01*
X80317784Y-83436519D01*
X80317784Y-83475537D01*
X80332716Y-83511585D01*
X80360306Y-83539175D01*
X80396354Y-83554107D01*
X80415863Y-83556028D01*
X81126031Y-83554589D01*
X80772194Y-83960993D01*
X80761288Y-83971900D01*
X80760007Y-83974990D01*
X80757776Y-83977554D01*
X80752571Y-83992942D01*
X80746356Y-84007948D01*
X80746356Y-84011321D01*
X80745276Y-84014515D01*
X80746356Y-84030717D01*
X80746356Y-84046966D01*
X80747646Y-84050081D01*
X80747871Y-84053447D01*
X80755071Y-84068007D01*
X80761288Y-84083014D01*
X80763672Y-84085398D01*
X80765168Y-84088422D01*
X80777393Y-84099119D01*
X80788878Y-84110604D01*
X80791992Y-84111894D01*
X80794532Y-84114116D01*
X80809920Y-84119320D01*
X80824926Y-84125536D01*
X80829685Y-84126004D01*
X80831493Y-84126616D01*
X80834117Y-84126441D01*
X80844435Y-84127457D01*
X81032515Y-84125911D01*
X81139541Y-84177997D01*
X81189286Y-84226182D01*
X81244540Y-84333789D01*
X81246121Y-84643819D01*
X81193894Y-84751133D01*
X81145707Y-84800881D01*
X81038135Y-84856116D01*
X80656718Y-84857751D01*
X80549330Y-84805488D01*
X80471420Y-84730024D01*
X80435372Y-84715092D01*
X80396354Y-84715092D01*
X80360306Y-84730024D01*
X80332716Y-84757614D01*
X80317784Y-84793662D01*
X80317784Y-84832680D01*
X80332716Y-84868728D01*
X80345152Y-84883882D01*
X80418246Y-84954681D01*
X80425981Y-84963600D01*
X80430186Y-84966247D01*
X80431735Y-84967747D01*
X80434174Y-84968757D01*
X80442571Y-84974043D01*
X80572874Y-85037457D01*
X80574592Y-85039175D01*
X80586765Y-85044217D01*
X80603737Y-85052477D01*
X80607319Y-85052731D01*
X80610640Y-85054107D01*
X80630149Y-85056028D01*
X81043253Y-85054256D01*
X81046212Y-85055243D01*
X81061167Y-85054180D01*
X81078229Y-85054107D01*
X81081549Y-85052731D01*
X81085132Y-85052477D01*
X81103441Y-85045471D01*
X81245122Y-84972723D01*
X81257136Y-84967747D01*
X81261016Y-84964561D01*
X81262890Y-84963600D01*
X81264622Y-84961602D01*
X81272289Y-84955310D01*
X81343088Y-84882216D01*
X81352006Y-84874483D01*
X81354653Y-84870277D01*
X81356154Y-84868728D01*
X81357164Y-84866287D01*
X81362449Y-84857893D01*
X81425864Y-84727588D01*
X81427582Y-84725871D01*
X81432622Y-84713702D01*
X81440884Y-84696727D01*
X81441138Y-84693143D01*
X81442514Y-84689823D01*
X81444435Y-84670314D01*
X81442691Y-84328552D01*
X81443650Y-84325678D01*
X81442602Y-84310932D01*
X81442514Y-84293662D01*
X81441138Y-84290341D01*
X81440884Y-84286758D01*
X81433878Y-84268449D01*
X81361130Y-84126772D01*
X81356154Y-84114757D01*
X81352967Y-84110874D01*
X81352006Y-84109002D01*
X81350009Y-84107270D01*
X81343717Y-84099604D01*
X81270625Y-84028804D01*
X81262890Y-84019885D01*
X81258684Y-84017237D01*
X81257136Y-84015738D01*
X81254695Y-84014727D01*
X81246299Y-84009442D01*
X81115994Y-83946027D01*
X81114277Y-83944310D01*
X81102103Y-83939267D01*
X81085132Y-83931008D01*
X81081549Y-83930753D01*
X81078229Y-83929378D01*
X81063666Y-83927944D01*
X81225783Y-83741742D01*
X81815863Y-83741742D01*
X81817606Y-84083503D01*
X81816648Y-84086377D01*
X81817695Y-84101122D01*
X81817784Y-84118394D01*
X81819159Y-84121714D01*
X81819414Y-84125298D01*
X81826420Y-84143606D01*
X81899168Y-84285287D01*
X81904144Y-84297299D01*
X81907328Y-84301179D01*
X81908291Y-84303054D01*
X81910288Y-84304786D01*
X81916580Y-84312453D01*
X81989670Y-84383248D01*
X81997408Y-84392171D01*
X82001616Y-84394820D01*
X82003163Y-84396318D01*
X82005599Y-84397327D01*
X82013998Y-84402614D01*
X82144302Y-84466029D01*
X82146020Y-84467747D01*
X82158188Y-84472787D01*
X82175164Y-84481049D01*
X82178747Y-84481303D01*
X82182068Y-84482679D01*
X82201577Y-84484600D01*
X82472032Y-84482897D01*
X82474784Y-84483815D01*
X82489210Y-84482789D01*
X82506800Y-84482679D01*
X82510120Y-84481303D01*
X82513704Y-84481049D01*
X82532012Y-84474043D01*
X82645044Y-84416004D01*
X82611453Y-84553950D01*
X82486925Y-84743578D01*
X82431421Y-84800881D01*
X82323768Y-84856158D01*
X82039211Y-84857949D01*
X82003163Y-84872881D01*
X81975573Y-84900471D01*
X81960641Y-84936519D01*
X81960641Y-84975537D01*
X81975573Y-85011585D01*
X82003163Y-85039175D01*
X82039211Y-85054107D01*
X82058720Y-85056028D01*
X82329174Y-85054325D01*
X82331926Y-85055243D01*
X82346353Y-85054217D01*
X82363943Y-85054107D01*
X82367263Y-85052731D01*
X82370847Y-85052477D01*
X82389155Y-85045471D01*
X82530836Y-84972722D01*
X82542848Y-84967747D01*
X82546728Y-84964562D01*
X82548603Y-84963600D01*
X82550335Y-84961602D01*
X82558002Y-84955311D01*
X82623116Y-84888086D01*
X82629505Y-84883808D01*
X82641781Y-84868816D01*
X82641867Y-84868728D01*
X82641880Y-84868695D01*
X82641925Y-84868641D01*
X82783436Y-84653150D01*
X82791996Y-84641599D01*
X82793157Y-84638348D01*
X82794006Y-84637056D01*
X82794486Y-84634629D01*
X82798591Y-84623139D01*
X82866805Y-84343011D01*
X82871085Y-84332680D01*
X82872282Y-84320520D01*
X82872888Y-84318033D01*
X82872670Y-84316574D01*
X82873006Y-84313171D01*
X82871199Y-83757314D01*
X82872221Y-83754249D01*
X82871139Y-83739032D01*
X82871085Y-83722233D01*
X82869709Y-83718912D01*
X82869455Y-83715329D01*
X82862449Y-83697020D01*
X82789698Y-83555337D01*
X82784724Y-83543327D01*
X82781538Y-83539446D01*
X82780577Y-83537573D01*
X82778579Y-83535840D01*
X82772287Y-83528174D01*
X82699199Y-83457380D01*
X82691461Y-83448457D01*
X82687252Y-83445808D01*
X82685706Y-83444310D01*
X82683268Y-83443300D01*
X82674870Y-83438014D01*
X82544565Y-83374598D01*
X82542848Y-83372881D01*
X82530679Y-83367840D01*
X82513704Y-83359579D01*
X82510120Y-83359324D01*
X82506800Y-83357949D01*
X82487291Y-83356028D01*
X82216835Y-83357730D01*
X82214084Y-83356813D01*
X82199657Y-83357838D01*
X82182068Y-83357949D01*
X82178747Y-83359324D01*
X82175164Y-83359579D01*
X82156855Y-83366585D01*
X82015178Y-83439332D01*
X82003163Y-83444309D01*
X81999280Y-83447495D01*
X81997408Y-83448457D01*
X81995676Y-83450453D01*
X81988010Y-83456746D01*
X81917210Y-83529837D01*
X81908291Y-83537573D01*
X81905643Y-83541778D01*
X81904144Y-83543327D01*
X81903133Y-83545767D01*
X81897848Y-83554164D01*
X81834433Y-83684467D01*
X81832716Y-83686185D01*
X81827675Y-83698352D01*
X81819414Y-83715329D01*
X81819159Y-83718912D01*
X81817784Y-83722233D01*
X81815863Y-83741742D01*
X81225783Y-83741742D01*
X81416674Y-83522492D01*
X81427582Y-83511585D01*
X81428862Y-83508494D01*
X81431093Y-83505932D01*
X81436296Y-83490548D01*
X81442514Y-83475537D01*
X81442514Y-83472163D01*
X81443594Y-83468970D01*
X81442514Y-83452773D01*
X81442514Y-83436519D01*
X81441222Y-83433400D01*
X81440998Y-83430038D01*
X81433801Y-83415484D01*
X81427582Y-83400471D01*
X81425196Y-83398085D01*
X81423702Y-83395063D01*
X81411479Y-83384368D01*
X81399992Y-83372881D01*
X81396875Y-83371589D01*
X81394338Y-83369370D01*
X81378959Y-83364168D01*
X81363944Y-83357949D01*
X81359183Y-83357480D01*
X81357376Y-83356869D01*
X81354752Y-83357043D01*
X81344435Y-83356028D01*
X80396354Y-83357949D01*
X80360306Y-83372881D01*
X80332716Y-83400471D01*
X80317784Y-83436519D01*
X80151117Y-83436519D01*
X80151117Y-83189361D01*
X83039673Y-83189361D01*
X83039673Y-85222695D01*
G37*
G36*
X28999375Y-82047695D02*
G01*
X27539390Y-82047695D01*
X27539390Y-81761519D01*
X27706057Y-81761519D01*
X27706057Y-81800537D01*
X27720989Y-81836585D01*
X27748579Y-81864175D01*
X27784627Y-81879107D01*
X27804136Y-81881028D01*
X28752217Y-81879107D01*
X28788265Y-81864175D01*
X28815855Y-81836585D01*
X28830787Y-81800537D01*
X28830787Y-81761519D01*
X28815855Y-81725471D01*
X28788265Y-81697881D01*
X28752217Y-81682949D01*
X28732708Y-81681028D01*
X28043634Y-81682424D01*
X28719533Y-81004413D01*
X28722590Y-81002885D01*
X28732848Y-80991056D01*
X28744426Y-80979443D01*
X28745801Y-80976121D01*
X28748155Y-80973408D01*
X28756147Y-80955508D01*
X28825528Y-80741803D01*
X28830787Y-80729109D01*
X28831281Y-80724082D01*
X28831923Y-80722108D01*
X28831735Y-80719473D01*
X28832708Y-80709600D01*
X28831191Y-80581442D01*
X28831923Y-80579249D01*
X28831014Y-80566466D01*
X28830787Y-80547233D01*
X28829411Y-80543912D01*
X28829157Y-80540329D01*
X28822151Y-80522020D01*
X28749400Y-80380337D01*
X28744426Y-80368327D01*
X28741240Y-80364446D01*
X28740279Y-80362573D01*
X28738281Y-80360840D01*
X28731989Y-80353174D01*
X28658901Y-80282380D01*
X28651163Y-80273457D01*
X28646954Y-80270808D01*
X28645408Y-80269310D01*
X28642970Y-80268300D01*
X28634572Y-80263014D01*
X28504267Y-80199598D01*
X28502550Y-80197881D01*
X28490381Y-80192840D01*
X28473406Y-80184579D01*
X28469822Y-80184324D01*
X28466502Y-80182949D01*
X28446993Y-80181028D01*
X28105232Y-80182771D01*
X28102358Y-80181813D01*
X28087612Y-80182860D01*
X28070342Y-80182949D01*
X28067021Y-80184324D01*
X28063438Y-80184579D01*
X28045130Y-80191585D01*
X27903446Y-80264335D01*
X27891435Y-80269310D01*
X27887554Y-80272495D01*
X27885681Y-80273457D01*
X27883948Y-80275454D01*
X27876282Y-80281747D01*
X27792418Y-80368328D01*
X27777486Y-80404376D01*
X27777486Y-80443394D01*
X27792418Y-80479442D01*
X27820008Y-80507032D01*
X27856056Y-80521964D01*
X27895074Y-80521964D01*
X27931122Y-80507032D01*
X27946276Y-80494596D01*
X28002863Y-80436174D01*
X28110469Y-80380922D01*
X28420499Y-80379341D01*
X28527811Y-80431567D01*
X28577560Y-80479754D01*
X28632955Y-80587637D01*
X28634158Y-80689317D01*
X28576319Y-80867467D01*
X27720989Y-81725471D01*
X27706057Y-81761519D01*
X27539390Y-81761519D01*
X27539390Y-80014361D01*
X28999375Y-80014361D01*
X28999375Y-82047695D01*
G37*
G36*
X28997454Y-85222695D02*
G01*
X27609683Y-85222695D01*
X27609683Y-83872093D01*
X27776350Y-83872093D01*
X27779116Y-83911013D01*
X27796565Y-83945912D01*
X27826042Y-83971476D01*
X27863058Y-83983815D01*
X27901978Y-83981049D01*
X27920287Y-83974043D01*
X28061969Y-83901292D01*
X28073979Y-83896318D01*
X28077859Y-83893133D01*
X28079734Y-83892171D01*
X28081466Y-83890173D01*
X28089133Y-83883882D01*
X28204528Y-83766467D01*
X28205907Y-84857182D01*
X27856056Y-84857949D01*
X27820008Y-84872881D01*
X27792418Y-84900471D01*
X27777486Y-84936519D01*
X27777486Y-84975537D01*
X27792418Y-85011585D01*
X27820008Y-85039175D01*
X27856056Y-85054107D01*
X27875565Y-85056028D01*
X28752217Y-85054107D01*
X28788265Y-85039175D01*
X28815855Y-85011585D01*
X28830787Y-84975537D01*
X28830787Y-84936519D01*
X28815855Y-84900471D01*
X28788265Y-84872881D01*
X28752217Y-84857949D01*
X28732708Y-84856028D01*
X28404010Y-84856748D01*
X28402251Y-83465449D01*
X28404136Y-83455923D01*
X28402227Y-83446380D01*
X28402215Y-83436519D01*
X28398425Y-83427370D01*
X28396484Y-83417663D01*
X28391032Y-83409522D01*
X28387283Y-83400471D01*
X28380283Y-83393471D01*
X28374773Y-83385243D01*
X28366618Y-83379806D01*
X28359693Y-83372881D01*
X28350549Y-83369093D01*
X28342308Y-83363599D01*
X28332694Y-83361697D01*
X28323645Y-83357949D01*
X28313744Y-83357949D01*
X28304032Y-83356028D01*
X28294427Y-83357949D01*
X28284627Y-83357949D01*
X28275478Y-83361738D01*
X28265771Y-83363680D01*
X28257630Y-83369131D01*
X28248579Y-83372881D01*
X28241579Y-83379880D01*
X28233351Y-83385391D01*
X28221062Y-83400397D01*
X28220989Y-83400471D01*
X28220975Y-83400503D01*
X28220931Y-83400558D01*
X28089514Y-83600675D01*
X27963360Y-83729037D01*
X27814253Y-83805600D01*
X27788689Y-83835077D01*
X27776350Y-83872093D01*
X27609683Y-83872093D01*
X27609683Y-83189361D01*
X28997454Y-83189361D01*
X28997454Y-85222695D01*
G37*
G36*
X53894112Y-65476004D02*
G01*
X52364390Y-65476004D01*
X52364390Y-63691519D01*
X52531057Y-63691519D01*
X52531057Y-63730537D01*
X52545989Y-63766585D01*
X52573579Y-63794175D01*
X52609627Y-63809107D01*
X52629136Y-63811028D01*
X53478356Y-63809427D01*
X52888445Y-65190324D01*
X52887970Y-65229340D01*
X52902461Y-65265567D01*
X52929712Y-65293492D01*
X52965575Y-65308862D01*
X53004591Y-65309337D01*
X53040818Y-65294846D01*
X53068743Y-65267595D01*
X53078194Y-65250420D01*
X53711930Y-63766937D01*
X53712283Y-63766585D01*
X53718735Y-63751007D01*
X53726970Y-63731732D01*
X53726977Y-63731110D01*
X53727215Y-63730537D01*
X53727215Y-63711608D01*
X53727445Y-63692717D01*
X53727215Y-63692141D01*
X53727215Y-63691519D01*
X53719961Y-63674008D01*
X53712954Y-63656489D01*
X53712520Y-63656045D01*
X53712283Y-63655471D01*
X53698924Y-63642112D01*
X53685703Y-63628564D01*
X53685130Y-63628318D01*
X53684693Y-63627881D01*
X53667246Y-63620654D01*
X53649839Y-63613194D01*
X53649218Y-63613186D01*
X53648645Y-63612949D01*
X53629136Y-63611028D01*
X52609627Y-63612949D01*
X52573579Y-63627881D01*
X52545989Y-63655471D01*
X52531057Y-63691519D01*
X52364390Y-63691519D01*
X52364390Y-63444361D01*
X53894112Y-63444361D01*
X53894112Y-65476004D01*
G37*
G36*
X71061384Y-63861568D02*
G01*
X71111132Y-63909755D01*
X71170277Y-64024942D01*
X71237735Y-64287928D01*
X71239432Y-64620528D01*
X71175369Y-64883605D01*
X71115739Y-65006132D01*
X71067552Y-65055881D01*
X70959670Y-65111275D01*
X70863580Y-65112412D01*
X70756889Y-65060488D01*
X70707141Y-65012302D01*
X70647994Y-64897112D01*
X70580537Y-64634128D01*
X70578840Y-64301528D01*
X70642902Y-64038451D01*
X70702533Y-63915922D01*
X70750719Y-63866176D01*
X70858603Y-63810780D01*
X70954691Y-63809643D01*
X71061384Y-63861568D01*
G37*
G36*
X71604375Y-65477695D02*
G01*
X70213898Y-65477695D01*
X70213898Y-64282457D01*
X70380565Y-64282457D01*
X70382354Y-64633231D01*
X70380683Y-64644461D01*
X70382473Y-64656564D01*
X70382486Y-64659109D01*
X70383051Y-64660473D01*
X70383551Y-64663853D01*
X70454835Y-64941757D01*
X70455544Y-64951727D01*
X70461151Y-64966382D01*
X70461574Y-64968028D01*
X70462003Y-64968607D01*
X70462550Y-64970036D01*
X70535300Y-65111718D01*
X70540275Y-65123728D01*
X70543459Y-65127608D01*
X70544422Y-65129483D01*
X70546419Y-65131215D01*
X70552711Y-65138882D01*
X70625805Y-65209681D01*
X70633540Y-65218600D01*
X70637745Y-65221247D01*
X70639294Y-65222747D01*
X70641733Y-65223757D01*
X70650130Y-65229043D01*
X70780433Y-65292457D01*
X70782151Y-65294175D01*
X70794324Y-65299217D01*
X70811296Y-65307477D01*
X70814878Y-65307731D01*
X70818199Y-65309107D01*
X70837708Y-65311028D01*
X70965863Y-65309511D01*
X70968057Y-65310243D01*
X70980839Y-65309334D01*
X71000074Y-65309107D01*
X71003394Y-65307731D01*
X71006978Y-65307477D01*
X71025286Y-65300471D01*
X71166967Y-65227722D01*
X71178979Y-65222747D01*
X71182859Y-65219562D01*
X71184734Y-65218600D01*
X71186466Y-65216602D01*
X71194133Y-65210311D01*
X71264932Y-65137216D01*
X71273851Y-65129482D01*
X71276498Y-65125276D01*
X71277998Y-65123728D01*
X71279008Y-65121288D01*
X71284294Y-65112892D01*
X71351151Y-64975514D01*
X71356698Y-64968028D01*
X71361953Y-64953317D01*
X71362728Y-64951726D01*
X71362779Y-64951006D01*
X71363293Y-64949568D01*
X71431507Y-64669440D01*
X71435787Y-64659109D01*
X71436984Y-64646949D01*
X71437590Y-64644462D01*
X71437372Y-64643003D01*
X71437708Y-64639600D01*
X71435918Y-64288824D01*
X71437590Y-64277595D01*
X71435799Y-64265491D01*
X71435787Y-64262948D01*
X71435222Y-64261584D01*
X71434722Y-64258203D01*
X71363436Y-63980297D01*
X71362728Y-63970330D01*
X71357120Y-63955677D01*
X71356698Y-63954028D01*
X71356267Y-63953447D01*
X71355722Y-63952021D01*
X71282975Y-63810344D01*
X71277998Y-63798327D01*
X71274811Y-63794444D01*
X71273851Y-63792574D01*
X71271856Y-63790843D01*
X71265561Y-63783174D01*
X71192467Y-63712374D01*
X71184734Y-63703457D01*
X71180528Y-63700809D01*
X71178979Y-63699309D01*
X71176537Y-63698297D01*
X71168143Y-63693014D01*
X71037839Y-63629598D01*
X71036122Y-63627881D01*
X71023952Y-63622840D01*
X71006978Y-63614579D01*
X71003394Y-63614324D01*
X71000074Y-63612949D01*
X70980565Y-63611028D01*
X70852408Y-63612544D01*
X70850215Y-63611813D01*
X70837432Y-63612721D01*
X70818199Y-63612949D01*
X70814878Y-63614324D01*
X70811295Y-63614579D01*
X70792986Y-63621585D01*
X70651309Y-63694332D01*
X70639294Y-63699309D01*
X70635411Y-63702495D01*
X70633539Y-63703457D01*
X70631807Y-63705453D01*
X70624141Y-63711746D01*
X70553341Y-63784837D01*
X70544422Y-63792573D01*
X70541774Y-63796778D01*
X70540275Y-63798327D01*
X70539264Y-63800767D01*
X70533979Y-63809164D01*
X70467120Y-63946543D01*
X70461574Y-63954028D01*
X70456320Y-63968732D01*
X70455544Y-63970329D01*
X70455492Y-63971051D01*
X70454979Y-63972489D01*
X70386765Y-64252615D01*
X70382486Y-64262948D01*
X70381288Y-64275109D01*
X70380683Y-64277596D01*
X70380900Y-64279054D01*
X70380565Y-64282457D01*
X70213898Y-64282457D01*
X70213898Y-63444361D01*
X71604375Y-63444361D01*
X71604375Y-65477695D01*
G37*
G36*
X38202175Y-63885629D02*
G01*
X38324457Y-63945140D01*
X38441373Y-64060045D01*
X38501085Y-64234618D01*
X38502340Y-64480559D01*
X37200527Y-64482205D01*
X37199314Y-64244386D01*
X37257515Y-64065118D01*
X37370377Y-63950281D01*
X37486373Y-63890720D01*
X37749424Y-63823246D01*
X37939577Y-63821684D01*
X38202175Y-63885629D01*
G37*
G36*
X38867695Y-67989959D02*
G01*
X36834361Y-67989959D01*
X36834361Y-67009007D01*
X37001028Y-67009007D01*
X37002779Y-67222197D01*
X37001813Y-67235800D01*
X37002931Y-67240720D01*
X37002949Y-67242801D01*
X37003960Y-67245242D01*
X37006160Y-67254915D01*
X37074378Y-67454351D01*
X37074378Y-67457087D01*
X37079747Y-67470050D01*
X37085580Y-67487101D01*
X37087935Y-67489816D01*
X37089310Y-67493135D01*
X37101746Y-67508289D01*
X37245144Y-67649221D01*
X37254002Y-67659435D01*
X37258270Y-67662121D01*
X37259756Y-67663582D01*
X37262194Y-67664592D01*
X37270592Y-67669878D01*
X37407972Y-67736737D01*
X37415457Y-67742283D01*
X37430161Y-67747536D01*
X37431758Y-67748313D01*
X37432480Y-67748364D01*
X37433918Y-67748878D01*
X37714043Y-67817091D01*
X37724376Y-67821371D01*
X37736537Y-67822568D01*
X37739024Y-67823174D01*
X37740482Y-67822956D01*
X37743885Y-67823292D01*
X37952316Y-67821579D01*
X37963032Y-67823174D01*
X37975078Y-67821392D01*
X37977680Y-67821371D01*
X37979044Y-67820805D01*
X37982424Y-67820306D01*
X38260328Y-67749021D01*
X38270298Y-67748313D01*
X38284953Y-67742705D01*
X38286599Y-67742283D01*
X38287178Y-67741853D01*
X38288607Y-67741307D01*
X38430289Y-67668556D01*
X38442299Y-67663582D01*
X38446178Y-67660397D01*
X38448054Y-67659435D01*
X38449787Y-67657436D01*
X38457452Y-67651146D01*
X38588546Y-67517759D01*
X38590912Y-67516577D01*
X38599947Y-67506159D01*
X38612747Y-67493136D01*
X38614121Y-67489816D01*
X38616477Y-67487101D01*
X38624468Y-67469201D01*
X38693847Y-67255497D01*
X38699107Y-67242801D01*
X38699602Y-67237773D01*
X38700243Y-67235799D01*
X38700055Y-67233165D01*
X38701028Y-67223292D01*
X38699340Y-67080631D01*
X38700243Y-67067928D01*
X38699132Y-67063042D01*
X38699107Y-67060926D01*
X38698095Y-67058483D01*
X38695896Y-67048812D01*
X38627678Y-66849372D01*
X38627678Y-66846639D01*
X38622309Y-66833678D01*
X38616477Y-66816626D01*
X38614122Y-66813910D01*
X38612747Y-66810591D01*
X38600310Y-66795438D01*
X38513728Y-66711573D01*
X38488237Y-66701015D01*
X38477680Y-66696642D01*
X38458171Y-66694721D01*
X37938662Y-66696642D01*
X37902614Y-66711574D01*
X37875024Y-66739164D01*
X37860092Y-66775212D01*
X37858171Y-66794721D01*
X37860092Y-67099944D01*
X37875024Y-67135992D01*
X37902614Y-67163582D01*
X37938662Y-67178514D01*
X37977680Y-67178514D01*
X38013728Y-67163582D01*
X38041318Y-67135992D01*
X38056250Y-67099944D01*
X38058171Y-67080435D01*
X38056999Y-66894355D01*
X38415951Y-66893028D01*
X38441610Y-66917882D01*
X38501164Y-67091991D01*
X38502478Y-67203010D01*
X38444541Y-67381466D01*
X38331679Y-67496301D01*
X38215683Y-67555862D01*
X37952631Y-67623337D01*
X37762478Y-67624899D01*
X37499878Y-67560954D01*
X37377599Y-67501444D01*
X37260683Y-67386538D01*
X37200934Y-67211859D01*
X37199482Y-67035211D01*
X37268906Y-66892562D01*
X37271672Y-66853642D01*
X37259333Y-66816626D01*
X37233769Y-66787149D01*
X37198870Y-66769700D01*
X37159950Y-66766934D01*
X37122934Y-66779273D01*
X37093457Y-66804837D01*
X37083014Y-66821428D01*
X37019598Y-66951732D01*
X37017881Y-66953450D01*
X37012840Y-66965618D01*
X37004579Y-66982594D01*
X37004324Y-66986177D01*
X37002949Y-66989498D01*
X37001028Y-67009007D01*
X36834361Y-67009007D01*
X36834361Y-66144879D01*
X37001272Y-66144879D01*
X37002949Y-66158072D01*
X37002949Y-66171373D01*
X37005388Y-66177261D01*
X37006192Y-66183586D01*
X37012792Y-66195135D01*
X37017881Y-66207421D01*
X37022388Y-66211928D01*
X37025551Y-66217463D01*
X37036065Y-66225605D01*
X37045471Y-66235011D01*
X37051361Y-66237450D01*
X37056400Y-66241353D01*
X37069228Y-66244851D01*
X37081519Y-66249943D01*
X37091496Y-66250925D01*
X37094043Y-66251620D01*
X37096010Y-66251369D01*
X37101028Y-66251864D01*
X38620537Y-66249943D01*
X38656585Y-66235011D01*
X38684175Y-66207421D01*
X38699107Y-66171373D01*
X38699107Y-66132355D01*
X38684175Y-66096307D01*
X38656585Y-66068717D01*
X38620537Y-66053785D01*
X38601028Y-66051864D01*
X37474264Y-66053288D01*
X38644505Y-65382871D01*
X38656585Y-65377868D01*
X38661072Y-65373380D01*
X38666628Y-65370198D01*
X38674774Y-65359678D01*
X38684175Y-65350278D01*
X38686613Y-65344390D01*
X38690518Y-65339349D01*
X38694017Y-65326516D01*
X38699107Y-65314230D01*
X38699107Y-65307854D01*
X38700784Y-65301705D01*
X38699107Y-65288511D01*
X38699107Y-65275212D01*
X38696667Y-65269323D01*
X38695864Y-65262999D01*
X38689263Y-65251447D01*
X38684175Y-65239164D01*
X38679669Y-65234658D01*
X38676505Y-65229121D01*
X38665985Y-65220974D01*
X38656585Y-65211574D01*
X38650697Y-65209135D01*
X38645656Y-65205231D01*
X38632823Y-65201731D01*
X38620537Y-65196642D01*
X38610559Y-65195659D01*
X38608013Y-65194965D01*
X38606045Y-65195215D01*
X38601028Y-65194721D01*
X37081519Y-65196642D01*
X37045471Y-65211574D01*
X37017881Y-65239164D01*
X37002949Y-65275212D01*
X37002949Y-65314230D01*
X37017881Y-65350278D01*
X37045471Y-65377868D01*
X37081519Y-65392800D01*
X37101028Y-65394721D01*
X38227791Y-65393296D01*
X37057553Y-66063712D01*
X37045471Y-66068717D01*
X37040982Y-66073205D01*
X37035429Y-66076387D01*
X37027286Y-66086901D01*
X37017881Y-66096307D01*
X37015441Y-66102197D01*
X37011539Y-66107236D01*
X37008040Y-66120064D01*
X37002949Y-66132355D01*
X37002949Y-66138730D01*
X37001272Y-66144879D01*
X36834361Y-66144879D01*
X36834361Y-64223292D01*
X37001028Y-64223292D01*
X37002949Y-64599944D01*
X37017881Y-64635992D01*
X37045471Y-64663582D01*
X37081519Y-64678514D01*
X37101028Y-64680435D01*
X38620537Y-64678514D01*
X38656585Y-64663582D01*
X38684175Y-64635992D01*
X38699107Y-64599944D01*
X38701028Y-64580435D01*
X38699216Y-64225230D01*
X38700243Y-64210785D01*
X38699117Y-64205835D01*
X38699107Y-64203783D01*
X38698095Y-64201340D01*
X38695896Y-64191669D01*
X38627678Y-63992229D01*
X38627678Y-63989497D01*
X38622311Y-63976539D01*
X38616477Y-63959483D01*
X38614121Y-63956767D01*
X38612747Y-63953448D01*
X38600310Y-63938295D01*
X38456916Y-63797368D01*
X38448054Y-63787149D01*
X38443783Y-63784461D01*
X38442299Y-63783002D01*
X38439861Y-63781992D01*
X38431463Y-63776706D01*
X38294083Y-63709847D01*
X38286599Y-63704301D01*
X38271894Y-63699047D01*
X38270298Y-63698271D01*
X38269575Y-63698219D01*
X38268138Y-63697706D01*
X37988012Y-63629492D01*
X37977680Y-63625213D01*
X37965518Y-63624015D01*
X37963032Y-63623410D01*
X37961573Y-63623627D01*
X37958171Y-63623292D01*
X37749739Y-63625004D01*
X37739024Y-63623410D01*
X37726976Y-63625191D01*
X37724376Y-63625213D01*
X37723012Y-63625777D01*
X37719631Y-63626278D01*
X37441727Y-63697562D01*
X37431758Y-63698271D01*
X37417102Y-63703878D01*
X37415457Y-63704301D01*
X37414877Y-63704730D01*
X37413449Y-63705277D01*
X37271766Y-63778027D01*
X37259756Y-63783002D01*
X37255875Y-63786187D01*
X37254002Y-63787149D01*
X37252269Y-63789146D01*
X37244603Y-63795439D01*
X37113512Y-63928823D01*
X37111145Y-63930007D01*
X37102103Y-63940431D01*
X37089310Y-63953449D01*
X37087935Y-63956767D01*
X37085580Y-63959483D01*
X37077589Y-63977383D01*
X37008207Y-64191088D01*
X37002949Y-64203783D01*
X37002454Y-64208809D01*
X37001813Y-64210784D01*
X37002000Y-64213418D01*
X37001028Y-64223292D01*
X36834361Y-64223292D01*
X36834361Y-63456625D01*
X38867695Y-63456625D01*
X38867695Y-67989959D01*
G37*
G36*
X35473966Y-67240082D02*
G01*
X34814255Y-67021058D01*
X35472816Y-66800659D01*
X35473966Y-67240082D01*
G37*
G36*
X36267695Y-67786316D02*
G01*
X34234361Y-67786316D01*
X34234361Y-67007927D01*
X34401813Y-67007927D01*
X34402701Y-67020434D01*
X34401813Y-67032941D01*
X34404072Y-67039719D01*
X34404579Y-67046847D01*
X34410185Y-67058059D01*
X34414151Y-67069957D01*
X34418834Y-67075356D01*
X34422029Y-67081746D01*
X34431500Y-67089961D01*
X34439716Y-67099433D01*
X34446105Y-67102627D01*
X34451505Y-67107311D01*
X34469405Y-67115302D01*
X35545439Y-67472545D01*
X35552948Y-67475656D01*
X35554808Y-67475656D01*
X35988521Y-67619649D01*
X36027441Y-67616883D01*
X36062340Y-67599433D01*
X36087905Y-67569957D01*
X36100243Y-67532941D01*
X36097477Y-67494021D01*
X36080028Y-67459123D01*
X36050551Y-67433557D01*
X36032651Y-67425566D01*
X35672269Y-67305919D01*
X35670773Y-66734410D01*
X36050551Y-66607311D01*
X36080028Y-66581745D01*
X36097477Y-66546847D01*
X36100243Y-66507927D01*
X36087905Y-66470911D01*
X36062340Y-66441435D01*
X36027441Y-66423985D01*
X35988521Y-66421219D01*
X35969405Y-66425566D01*
X34481587Y-66923489D01*
X34474615Y-66923985D01*
X34463499Y-66929542D01*
X34451505Y-66933557D01*
X34446105Y-66938240D01*
X34439716Y-66941435D01*
X34431500Y-66950906D01*
X34422029Y-66959122D01*
X34418834Y-66965511D01*
X34414151Y-66970911D01*
X34410185Y-66982808D01*
X34404579Y-66994021D01*
X34404072Y-67001148D01*
X34401813Y-67007927D01*
X34234361Y-67007927D01*
X34234361Y-65449006D01*
X34401028Y-65449006D01*
X34402715Y-65591666D01*
X34401813Y-65604371D01*
X34402923Y-65609256D01*
X34402949Y-65611372D01*
X34403960Y-65613813D01*
X34406160Y-65623486D01*
X34474378Y-65822922D01*
X34474378Y-65825658D01*
X34479747Y-65838621D01*
X34485580Y-65855672D01*
X34487935Y-65858387D01*
X34489310Y-65861706D01*
X34501746Y-65876860D01*
X34645144Y-66017792D01*
X34654002Y-66028006D01*
X34658270Y-66030692D01*
X34659756Y-66032153D01*
X34662194Y-66033163D01*
X34670592Y-66038449D01*
X34807972Y-66105308D01*
X34815457Y-66110854D01*
X34830161Y-66116107D01*
X34831758Y-66116884D01*
X34832480Y-66116935D01*
X34833918Y-66117449D01*
X35114043Y-66185662D01*
X35124376Y-66189942D01*
X35136537Y-66191139D01*
X35139024Y-66191745D01*
X35140482Y-66191527D01*
X35143885Y-66191863D01*
X35352316Y-66190150D01*
X35363032Y-66191745D01*
X35375078Y-66189963D01*
X35377680Y-66189942D01*
X35379044Y-66189376D01*
X35382424Y-66188877D01*
X35660328Y-66117592D01*
X35670298Y-66116884D01*
X35684953Y-66111276D01*
X35686599Y-66110854D01*
X35687178Y-66110424D01*
X35688607Y-66109878D01*
X35830289Y-66037127D01*
X35842299Y-66032153D01*
X35846178Y-66028968D01*
X35848054Y-66028006D01*
X35849787Y-66026007D01*
X35857452Y-66019717D01*
X35988546Y-65886330D01*
X35990912Y-65885148D01*
X35999947Y-65874730D01*
X36012747Y-65861707D01*
X36014121Y-65858387D01*
X36016477Y-65855672D01*
X36024468Y-65837772D01*
X36093847Y-65624068D01*
X36099107Y-65611372D01*
X36099602Y-65606344D01*
X36100243Y-65604370D01*
X36100055Y-65601736D01*
X36101028Y-65591863D01*
X36099340Y-65449202D01*
X36100243Y-65436499D01*
X36099132Y-65431613D01*
X36099107Y-65429497D01*
X36098095Y-65427054D01*
X36095896Y-65417383D01*
X36027678Y-65217943D01*
X36027678Y-65215210D01*
X36022309Y-65202249D01*
X36016477Y-65185197D01*
X36014122Y-65182481D01*
X36012747Y-65179162D01*
X36000310Y-65164009D01*
X35913728Y-65080144D01*
X35877679Y-65065213D01*
X35838661Y-65065214D01*
X35802613Y-65080145D01*
X35775023Y-65107735D01*
X35760092Y-65143784D01*
X35760093Y-65182802D01*
X35775024Y-65218850D01*
X35787461Y-65234003D01*
X35841610Y-65286453D01*
X35901164Y-65460562D01*
X35902478Y-65571581D01*
X35844541Y-65750037D01*
X35731679Y-65864872D01*
X35615683Y-65924433D01*
X35352631Y-65991908D01*
X35162478Y-65993470D01*
X34899878Y-65929525D01*
X34777599Y-65870015D01*
X34660683Y-65755109D01*
X34600891Y-65580305D01*
X34599577Y-65469288D01*
X34657619Y-65290511D01*
X34727032Y-65218850D01*
X34741963Y-65182801D01*
X34741963Y-65143783D01*
X34727032Y-65107735D01*
X34699442Y-65080145D01*
X34663394Y-65065214D01*
X34624376Y-65065214D01*
X34588327Y-65080145D01*
X34573174Y-65092582D01*
X34512834Y-65154876D01*
X34511145Y-65155721D01*
X34503684Y-65164322D01*
X34489310Y-65179163D01*
X34487935Y-65182481D01*
X34485580Y-65185197D01*
X34477589Y-65203097D01*
X34408207Y-65416802D01*
X34402949Y-65429497D01*
X34402454Y-65434523D01*
X34401813Y-65436498D01*
X34402000Y-65439132D01*
X34401028Y-65449006D01*
X34234361Y-65449006D01*
X34234361Y-63643783D01*
X34402949Y-63643783D01*
X34402949Y-63682801D01*
X34417881Y-63718849D01*
X34430317Y-63734003D01*
X35071760Y-64373448D01*
X35077127Y-64380604D01*
X35081587Y-64383244D01*
X35120011Y-64421548D01*
X34481519Y-64422356D01*
X34445471Y-64437288D01*
X34417881Y-64464878D01*
X34402949Y-64500926D01*
X34402949Y-64539944D01*
X34417881Y-64575992D01*
X34445471Y-64603582D01*
X34481519Y-64618514D01*
X34501028Y-64620435D01*
X36020537Y-64618514D01*
X36056585Y-64603582D01*
X36084175Y-64575992D01*
X36099107Y-64539944D01*
X36099107Y-64500926D01*
X36084175Y-64464878D01*
X36056585Y-64437288D01*
X36020537Y-64422356D01*
X36001028Y-64420435D01*
X35400262Y-64421194D01*
X35295744Y-64317001D01*
X36075483Y-63730050D01*
X36095362Y-63696475D01*
X36100880Y-63657849D01*
X36091197Y-63620052D01*
X36067786Y-63588837D01*
X36034212Y-63568958D01*
X35995586Y-63563440D01*
X35957788Y-63573123D01*
X35941028Y-63583292D01*
X35154017Y-64175717D01*
X34556585Y-63580145D01*
X34520537Y-63565213D01*
X34481519Y-63565213D01*
X34445471Y-63580145D01*
X34417881Y-63607735D01*
X34402949Y-63643783D01*
X34234361Y-63643783D01*
X34234361Y-63396773D01*
X36267695Y-63396773D01*
X36267695Y-67786316D01*
G37*
G36*
X32541845Y-66670973D02*
G01*
X32591595Y-66719161D01*
X32646808Y-66826692D01*
X32647433Y-67018815D01*
X32646765Y-67022603D01*
X32647455Y-67025720D01*
X32648277Y-67278605D01*
X32060708Y-67279348D01*
X32059257Y-66832817D01*
X32111568Y-66725329D01*
X32159755Y-66675581D01*
X32267487Y-66620264D01*
X32434824Y-66618889D01*
X32541845Y-66670973D01*
G37*
G36*
X33727695Y-67644245D02*
G01*
X31694361Y-67644245D01*
X31694361Y-66806149D01*
X31861028Y-66806149D01*
X31862949Y-67397087D01*
X31877881Y-67433135D01*
X31905471Y-67460725D01*
X31941519Y-67475657D01*
X31961028Y-67477578D01*
X33480537Y-67475657D01*
X33516585Y-67460725D01*
X33544175Y-67433135D01*
X33559107Y-67397087D01*
X33559107Y-67358069D01*
X33544175Y-67322021D01*
X33516585Y-67294431D01*
X33480537Y-67279499D01*
X33461028Y-67277578D01*
X32846419Y-67278355D01*
X32845752Y-67073059D01*
X33533255Y-66589597D01*
X33554224Y-66556692D01*
X33561004Y-66518267D01*
X33552565Y-66480173D01*
X33530190Y-66448208D01*
X33497285Y-66427239D01*
X33458860Y-66420459D01*
X33420766Y-66428898D01*
X33403682Y-66438512D01*
X32844966Y-66831408D01*
X32844935Y-66821722D01*
X32845957Y-66818657D01*
X32844875Y-66803440D01*
X32844821Y-66786640D01*
X32843445Y-66783319D01*
X32843191Y-66779737D01*
X32836185Y-66761428D01*
X32763438Y-66619750D01*
X32758461Y-66607735D01*
X32755275Y-66603852D01*
X32754314Y-66601981D01*
X32752319Y-66600251D01*
X32746025Y-66592581D01*
X32672934Y-66521785D01*
X32665197Y-66512863D01*
X32660988Y-66510214D01*
X32659442Y-66508716D01*
X32657004Y-66507706D01*
X32648606Y-66502420D01*
X32518302Y-66439005D01*
X32516585Y-66437288D01*
X32504417Y-66432247D01*
X32487441Y-66423986D01*
X32483857Y-66423731D01*
X32480537Y-66422356D01*
X32461028Y-66420435D01*
X32261805Y-66422071D01*
X32259250Y-66421220D01*
X32245361Y-66422207D01*
X32227233Y-66422356D01*
X32223912Y-66423731D01*
X32220330Y-66423986D01*
X32202021Y-66430992D01*
X32060344Y-66503738D01*
X32048327Y-66508716D01*
X32044444Y-66511902D01*
X32042574Y-66512863D01*
X32040843Y-66514857D01*
X32033174Y-66521153D01*
X31962374Y-66594246D01*
X31953457Y-66601980D01*
X31950809Y-66606185D01*
X31949309Y-66607735D01*
X31948297Y-66610176D01*
X31943014Y-66618571D01*
X31879598Y-66748874D01*
X31877881Y-66750592D01*
X31872840Y-66762761D01*
X31864579Y-66779736D01*
X31864324Y-66783319D01*
X31862949Y-66786640D01*
X31861028Y-66806149D01*
X31694361Y-66806149D01*
X31694361Y-65163292D01*
X31861028Y-65163292D01*
X31862949Y-65897087D01*
X31877881Y-65933135D01*
X31905471Y-65960725D01*
X31941519Y-65975657D01*
X31961028Y-65977578D01*
X33480537Y-65975657D01*
X33516585Y-65960725D01*
X33544175Y-65933135D01*
X33559107Y-65897087D01*
X33561028Y-65877578D01*
X33559107Y-65143783D01*
X33544175Y-65107735D01*
X33516585Y-65080145D01*
X33480537Y-65065213D01*
X33441519Y-65065213D01*
X33405471Y-65080145D01*
X33377881Y-65107735D01*
X33362949Y-65143783D01*
X33361028Y-65163292D01*
X33362636Y-65777702D01*
X32774947Y-65778445D01*
X32773393Y-65358069D01*
X32758461Y-65322021D01*
X32730871Y-65294431D01*
X32694823Y-65279499D01*
X32655805Y-65279499D01*
X32619757Y-65294431D01*
X32592167Y-65322021D01*
X32577235Y-65358069D01*
X32575314Y-65377578D01*
X32576797Y-65778695D01*
X32060770Y-65779348D01*
X32059107Y-65143783D01*
X32044175Y-65107735D01*
X32016585Y-65080145D01*
X31980537Y-65065213D01*
X31941519Y-65065213D01*
X31905471Y-65080145D01*
X31877881Y-65107735D01*
X31862949Y-65143783D01*
X31861028Y-65163292D01*
X31694361Y-65163292D01*
X31694361Y-63949006D01*
X31861028Y-63949006D01*
X31862715Y-64091666D01*
X31861813Y-64104371D01*
X31862923Y-64109256D01*
X31862949Y-64111372D01*
X31863960Y-64113813D01*
X31866160Y-64123486D01*
X31934378Y-64322922D01*
X31934378Y-64325658D01*
X31939747Y-64338621D01*
X31945580Y-64355672D01*
X31947935Y-64358387D01*
X31949310Y-64361706D01*
X31961746Y-64376860D01*
X32105144Y-64517792D01*
X32114002Y-64528006D01*
X32118270Y-64530692D01*
X32119756Y-64532153D01*
X32122194Y-64533163D01*
X32130592Y-64538449D01*
X32267972Y-64605308D01*
X32275457Y-64610854D01*
X32290161Y-64616107D01*
X32291758Y-64616884D01*
X32292480Y-64616935D01*
X32293918Y-64617449D01*
X32574043Y-64685662D01*
X32584376Y-64689942D01*
X32596537Y-64691139D01*
X32599024Y-64691745D01*
X32600482Y-64691527D01*
X32603885Y-64691863D01*
X32812316Y-64690150D01*
X32823032Y-64691745D01*
X32835078Y-64689963D01*
X32837680Y-64689942D01*
X32839044Y-64689376D01*
X32842424Y-64688877D01*
X33120328Y-64617592D01*
X33130298Y-64616884D01*
X33144953Y-64611276D01*
X33146599Y-64610854D01*
X33147178Y-64610424D01*
X33148607Y-64609878D01*
X33290289Y-64537127D01*
X33302299Y-64532153D01*
X33306178Y-64528968D01*
X33308054Y-64528006D01*
X33309787Y-64526007D01*
X33317452Y-64519717D01*
X33448546Y-64386330D01*
X33450912Y-64385148D01*
X33459947Y-64374730D01*
X33472747Y-64361707D01*
X33474121Y-64358387D01*
X33476477Y-64355672D01*
X33484468Y-64337772D01*
X33553847Y-64124068D01*
X33559107Y-64111372D01*
X33559602Y-64106344D01*
X33560243Y-64104370D01*
X33560055Y-64101736D01*
X33561028Y-64091863D01*
X33559340Y-63949202D01*
X33560243Y-63936499D01*
X33559132Y-63931613D01*
X33559107Y-63929497D01*
X33558095Y-63927054D01*
X33555896Y-63917383D01*
X33487678Y-63717943D01*
X33487678Y-63715210D01*
X33482309Y-63702249D01*
X33476477Y-63685197D01*
X33474122Y-63682481D01*
X33472747Y-63679162D01*
X33460310Y-63664009D01*
X33373728Y-63580144D01*
X33337679Y-63565213D01*
X33298661Y-63565214D01*
X33262613Y-63580145D01*
X33235023Y-63607735D01*
X33220092Y-63643784D01*
X33220093Y-63682802D01*
X33235024Y-63718850D01*
X33247461Y-63734003D01*
X33301610Y-63786453D01*
X33361164Y-63960562D01*
X33362478Y-64071581D01*
X33304541Y-64250037D01*
X33191679Y-64364872D01*
X33075683Y-64424433D01*
X32812631Y-64491908D01*
X32622478Y-64493470D01*
X32359878Y-64429525D01*
X32237599Y-64370015D01*
X32120683Y-64255109D01*
X32060891Y-64080305D01*
X32059577Y-63969288D01*
X32117619Y-63790511D01*
X32187032Y-63718850D01*
X32201963Y-63682801D01*
X32201963Y-63643783D01*
X32187032Y-63607735D01*
X32159442Y-63580145D01*
X32123394Y-63565214D01*
X32084376Y-63565214D01*
X32048327Y-63580145D01*
X32033174Y-63592582D01*
X31972834Y-63654876D01*
X31971145Y-63655721D01*
X31963684Y-63664322D01*
X31949310Y-63679163D01*
X31947935Y-63682481D01*
X31945580Y-63685197D01*
X31937589Y-63703097D01*
X31868207Y-63916802D01*
X31862949Y-63929497D01*
X31862454Y-63934523D01*
X31861813Y-63936498D01*
X31862000Y-63939132D01*
X31861028Y-63949006D01*
X31694361Y-63949006D01*
X31694361Y-63398546D01*
X33727695Y-63398546D01*
X33727695Y-67644245D01*
G37*
G36*
X31187695Y-67428037D02*
G01*
X29154361Y-67428037D01*
X29154361Y-66234719D01*
X29321028Y-66234719D01*
X29322949Y-67182800D01*
X29337881Y-67218848D01*
X29365471Y-67246438D01*
X29401519Y-67261370D01*
X29440537Y-67261370D01*
X29476585Y-67246438D01*
X29504175Y-67218848D01*
X29519107Y-67182800D01*
X29521028Y-67163291D01*
X29519589Y-66453122D01*
X29925992Y-66806958D01*
X29936900Y-66817866D01*
X29939990Y-66819146D01*
X29942553Y-66821377D01*
X29957936Y-66826580D01*
X29972948Y-66832798D01*
X29976322Y-66832798D01*
X29979515Y-66833878D01*
X29995712Y-66832798D01*
X30011966Y-66832798D01*
X30015084Y-66831506D01*
X30018447Y-66831282D01*
X30033000Y-66824085D01*
X30048014Y-66817866D01*
X30050399Y-66815480D01*
X30053422Y-66813986D01*
X30064116Y-66801763D01*
X30075604Y-66790276D01*
X30076895Y-66787159D01*
X30079115Y-66784622D01*
X30084316Y-66769243D01*
X30090536Y-66754228D01*
X30091004Y-66749467D01*
X30091616Y-66747660D01*
X30091441Y-66745036D01*
X30092457Y-66734719D01*
X30090911Y-66546637D01*
X30142995Y-66439616D01*
X30191182Y-66389867D01*
X30298789Y-66334613D01*
X30608819Y-66333032D01*
X30716132Y-66385258D01*
X30765881Y-66433446D01*
X30821116Y-66541019D01*
X30822751Y-66922435D01*
X30770488Y-67029823D01*
X30695024Y-67107734D01*
X30680092Y-67143782D01*
X30680092Y-67182800D01*
X30695024Y-67218848D01*
X30722614Y-67246438D01*
X30758662Y-67261370D01*
X30797680Y-67261370D01*
X30833728Y-67246438D01*
X30848882Y-67234002D01*
X30919681Y-67160907D01*
X30928600Y-67153173D01*
X30931247Y-67148967D01*
X30932747Y-67147419D01*
X30933757Y-67144979D01*
X30939043Y-67136583D01*
X31002457Y-67006279D01*
X31004175Y-67004562D01*
X31009217Y-66992388D01*
X31017477Y-66975417D01*
X31017731Y-66971834D01*
X31019107Y-66968514D01*
X31021028Y-66949005D01*
X31019256Y-66535900D01*
X31020243Y-66532942D01*
X31019180Y-66517986D01*
X31019107Y-66500925D01*
X31017731Y-66497604D01*
X31017477Y-66494022D01*
X31010471Y-66475713D01*
X30937724Y-66334035D01*
X30932747Y-66322020D01*
X30929561Y-66318137D01*
X30928600Y-66316266D01*
X30926605Y-66314536D01*
X30920311Y-66306866D01*
X30847220Y-66236070D01*
X30839483Y-66227148D01*
X30835274Y-66224499D01*
X30833728Y-66223001D01*
X30831290Y-66221991D01*
X30822892Y-66216705D01*
X30692588Y-66153289D01*
X30690871Y-66151572D01*
X30678701Y-66146531D01*
X30661727Y-66138270D01*
X30658143Y-66138015D01*
X30654823Y-66136640D01*
X30635314Y-66134719D01*
X30293552Y-66136462D01*
X30290678Y-66135504D01*
X30275932Y-66136551D01*
X30258662Y-66136640D01*
X30255341Y-66138015D01*
X30251758Y-66138270D01*
X30233449Y-66145276D01*
X30091766Y-66218026D01*
X30079757Y-66223001D01*
X30075876Y-66226185D01*
X30074002Y-66227148D01*
X30072269Y-66229145D01*
X30064603Y-66235437D01*
X29993807Y-66308527D01*
X29984885Y-66316265D01*
X29982236Y-66320473D01*
X29980738Y-66322020D01*
X29979728Y-66324457D01*
X29974442Y-66332856D01*
X29911027Y-66463159D01*
X29909310Y-66464877D01*
X29904269Y-66477044D01*
X29896008Y-66494021D01*
X29895753Y-66497604D01*
X29894378Y-66500925D01*
X29892944Y-66515487D01*
X29487491Y-66162478D01*
X29476585Y-66151572D01*
X29473494Y-66150291D01*
X29470931Y-66148060D01*
X29455542Y-66142855D01*
X29440537Y-66136640D01*
X29437163Y-66136640D01*
X29433970Y-66135560D01*
X29417767Y-66136640D01*
X29401519Y-66136640D01*
X29398403Y-66137930D01*
X29395038Y-66138155D01*
X29380477Y-66145355D01*
X29365471Y-66151572D01*
X29363086Y-66153956D01*
X29360063Y-66155452D01*
X29349365Y-66167677D01*
X29337881Y-66179162D01*
X29336590Y-66182276D01*
X29334369Y-66184816D01*
X29329164Y-66200204D01*
X29322949Y-66215210D01*
X29322480Y-66219969D01*
X29321869Y-66221777D01*
X29322043Y-66224401D01*
X29321028Y-66234719D01*
X29154361Y-66234719D01*
X29154361Y-65005819D01*
X29822101Y-65005819D01*
X29824039Y-65044789D01*
X29840742Y-65080051D01*
X29869668Y-65106238D01*
X29887394Y-65114608D01*
X30626509Y-65377098D01*
X29869668Y-65648916D01*
X29840742Y-65675103D01*
X29824039Y-65710365D01*
X29822101Y-65749335D01*
X29835224Y-65786080D01*
X29861411Y-65815006D01*
X29896673Y-65831709D01*
X29935643Y-65833647D01*
X29954662Y-65828894D01*
X30940579Y-65474804D01*
X30945383Y-65474566D01*
X30958359Y-65468419D01*
X30972388Y-65463381D01*
X30976110Y-65460010D01*
X30980645Y-65457863D01*
X30990463Y-65447016D01*
X31001314Y-65437194D01*
X31003462Y-65432657D01*
X31006831Y-65428937D01*
X31011753Y-65415155D01*
X31018017Y-65401932D01*
X31018266Y-65396920D01*
X31019955Y-65392192D01*
X31019228Y-65377577D01*
X31019955Y-65362962D01*
X31018266Y-65358233D01*
X31018017Y-65353222D01*
X31011753Y-65339998D01*
X31006831Y-65326217D01*
X31003462Y-65322496D01*
X31001314Y-65317960D01*
X30990463Y-65308137D01*
X30980645Y-65297291D01*
X30976110Y-65295143D01*
X30972388Y-65291773D01*
X30954662Y-65283403D01*
X29935643Y-64921507D01*
X29896673Y-64923445D01*
X29861411Y-64940148D01*
X29835224Y-64969074D01*
X29822101Y-65005819D01*
X29154361Y-65005819D01*
X29154361Y-63663291D01*
X29321028Y-63663291D01*
X29322949Y-64611372D01*
X29337881Y-64647420D01*
X29365471Y-64675010D01*
X29401519Y-64689942D01*
X29440537Y-64689942D01*
X29476585Y-64675010D01*
X29504175Y-64647420D01*
X29519107Y-64611372D01*
X29521028Y-64591863D01*
X29519589Y-63881694D01*
X29925992Y-64235530D01*
X29936900Y-64246438D01*
X29939990Y-64247718D01*
X29942553Y-64249949D01*
X29957936Y-64255152D01*
X29972948Y-64261370D01*
X29976322Y-64261370D01*
X29979515Y-64262450D01*
X29995712Y-64261370D01*
X30011966Y-64261370D01*
X30015084Y-64260078D01*
X30018447Y-64259854D01*
X30033000Y-64252657D01*
X30048014Y-64246438D01*
X30050399Y-64244052D01*
X30053422Y-64242558D01*
X30064116Y-64230335D01*
X30075604Y-64218848D01*
X30076895Y-64215731D01*
X30079115Y-64213194D01*
X30084316Y-64197815D01*
X30090536Y-64182800D01*
X30091004Y-64178039D01*
X30091616Y-64176232D01*
X30091441Y-64173608D01*
X30092457Y-64163291D01*
X30090911Y-63975209D01*
X30142995Y-63868188D01*
X30191182Y-63818439D01*
X30298789Y-63763185D01*
X30608819Y-63761604D01*
X30716132Y-63813830D01*
X30765881Y-63862018D01*
X30821116Y-63969591D01*
X30822751Y-64351007D01*
X30770488Y-64458395D01*
X30695024Y-64536306D01*
X30680092Y-64572354D01*
X30680092Y-64611372D01*
X30695024Y-64647420D01*
X30722614Y-64675010D01*
X30758662Y-64689942D01*
X30797680Y-64689942D01*
X30833728Y-64675010D01*
X30848882Y-64662574D01*
X30919681Y-64589479D01*
X30928600Y-64581745D01*
X30931247Y-64577539D01*
X30932747Y-64575991D01*
X30933757Y-64573551D01*
X30939043Y-64565155D01*
X31002457Y-64434851D01*
X31004175Y-64433134D01*
X31009217Y-64420960D01*
X31017477Y-64403989D01*
X31017731Y-64400406D01*
X31019107Y-64397086D01*
X31021028Y-64377577D01*
X31019256Y-63964472D01*
X31020243Y-63961514D01*
X31019180Y-63946558D01*
X31019107Y-63929497D01*
X31017731Y-63926176D01*
X31017477Y-63922594D01*
X31010471Y-63904285D01*
X30937724Y-63762607D01*
X30932747Y-63750592D01*
X30929561Y-63746709D01*
X30928600Y-63744838D01*
X30926605Y-63743108D01*
X30920311Y-63735438D01*
X30847220Y-63664642D01*
X30839483Y-63655720D01*
X30835274Y-63653071D01*
X30833728Y-63651573D01*
X30831290Y-63650563D01*
X30822892Y-63645277D01*
X30692588Y-63581861D01*
X30690871Y-63580144D01*
X30678701Y-63575103D01*
X30661727Y-63566842D01*
X30658143Y-63566587D01*
X30654823Y-63565212D01*
X30635314Y-63563291D01*
X30293552Y-63565034D01*
X30290678Y-63564076D01*
X30275932Y-63565123D01*
X30258662Y-63565212D01*
X30255341Y-63566587D01*
X30251758Y-63566842D01*
X30233449Y-63573848D01*
X30091766Y-63646598D01*
X30079757Y-63651573D01*
X30075876Y-63654757D01*
X30074002Y-63655720D01*
X30072269Y-63657717D01*
X30064603Y-63664009D01*
X29993807Y-63737099D01*
X29984885Y-63744837D01*
X29982236Y-63749045D01*
X29980738Y-63750592D01*
X29979728Y-63753029D01*
X29974442Y-63761428D01*
X29911027Y-63891731D01*
X29909310Y-63893449D01*
X29904269Y-63905616D01*
X29896008Y-63922593D01*
X29895753Y-63926176D01*
X29894378Y-63929497D01*
X29892944Y-63944059D01*
X29487491Y-63591050D01*
X29476585Y-63580144D01*
X29473494Y-63578863D01*
X29470931Y-63576632D01*
X29455542Y-63571427D01*
X29440537Y-63565212D01*
X29437163Y-63565212D01*
X29433970Y-63564132D01*
X29417767Y-63565212D01*
X29401519Y-63565212D01*
X29398403Y-63566502D01*
X29395038Y-63566727D01*
X29380477Y-63573927D01*
X29365471Y-63580144D01*
X29363086Y-63582528D01*
X29360063Y-63584024D01*
X29349365Y-63596249D01*
X29337881Y-63607734D01*
X29336590Y-63610848D01*
X29334369Y-63613388D01*
X29329164Y-63628776D01*
X29322949Y-63643782D01*
X29322480Y-63648541D01*
X29321869Y-63650349D01*
X29322043Y-63652973D01*
X29321028Y-63663291D01*
X29154361Y-63663291D01*
X29154361Y-63396624D01*
X31187695Y-63396624D01*
X31187695Y-67428037D01*
G37*
D11*
X51389598Y-29352419D02*
X51389598Y-30066704D01*
X51389598Y-30066704D02*
X51341979Y-30209561D01*
X51341979Y-30209561D02*
X51246741Y-30304800D01*
X51246741Y-30304800D02*
X51103884Y-30352419D01*
X51103884Y-30352419D02*
X51008646Y-30352419D01*
X52341979Y-30352419D02*
X51865789Y-30352419D01*
X51865789Y-30352419D02*
X51865789Y-29352419D01*
X53246741Y-30257180D02*
X53199122Y-30304800D01*
X53199122Y-30304800D02*
X53056265Y-30352419D01*
X53056265Y-30352419D02*
X52961027Y-30352419D01*
X52961027Y-30352419D02*
X52818170Y-30304800D01*
X52818170Y-30304800D02*
X52722932Y-30209561D01*
X52722932Y-30209561D02*
X52675313Y-30114323D01*
X52675313Y-30114323D02*
X52627694Y-29923847D01*
X52627694Y-29923847D02*
X52627694Y-29780990D01*
X52627694Y-29780990D02*
X52675313Y-29590514D01*
X52675313Y-29590514D02*
X52722932Y-29495276D01*
X52722932Y-29495276D02*
X52818170Y-29400038D01*
X52818170Y-29400038D02*
X52961027Y-29352419D01*
X52961027Y-29352419D02*
X53056265Y-29352419D01*
X53056265Y-29352419D02*
X53199122Y-29400038D01*
X53199122Y-29400038D02*
X53246741Y-29447657D01*
X53961027Y-29352419D02*
X53961027Y-30066704D01*
X53961027Y-30066704D02*
X53913408Y-30209561D01*
X53913408Y-30209561D02*
X53818170Y-30304800D01*
X53818170Y-30304800D02*
X53675313Y-30352419D01*
X53675313Y-30352419D02*
X53580075Y-30352419D01*
X54913408Y-30352419D02*
X54437218Y-30352419D01*
X54437218Y-30352419D02*
X54437218Y-29352419D01*
X55818170Y-30257180D02*
X55770551Y-30304800D01*
X55770551Y-30304800D02*
X55627694Y-30352419D01*
X55627694Y-30352419D02*
X55532456Y-30352419D01*
X55532456Y-30352419D02*
X55389599Y-30304800D01*
X55389599Y-30304800D02*
X55294361Y-30209561D01*
X55294361Y-30209561D02*
X55246742Y-30114323D01*
X55246742Y-30114323D02*
X55199123Y-29923847D01*
X55199123Y-29923847D02*
X55199123Y-29780990D01*
X55199123Y-29780990D02*
X55246742Y-29590514D01*
X55246742Y-29590514D02*
X55294361Y-29495276D01*
X55294361Y-29495276D02*
X55389599Y-29400038D01*
X55389599Y-29400038D02*
X55532456Y-29352419D01*
X55532456Y-29352419D02*
X55627694Y-29352419D01*
X55627694Y-29352419D02*
X55770551Y-29400038D01*
X55770551Y-29400038D02*
X55818170Y-29447657D01*
X56532456Y-29352419D02*
X56532456Y-30066704D01*
X56532456Y-30066704D02*
X56484837Y-30209561D01*
X56484837Y-30209561D02*
X56389599Y-30304800D01*
X56389599Y-30304800D02*
X56246742Y-30352419D01*
X56246742Y-30352419D02*
X56151504Y-30352419D01*
X57484837Y-30352419D02*
X57008647Y-30352419D01*
X57008647Y-30352419D02*
X57008647Y-29352419D01*
X58389599Y-30257180D02*
X58341980Y-30304800D01*
X58341980Y-30304800D02*
X58199123Y-30352419D01*
X58199123Y-30352419D02*
X58103885Y-30352419D01*
X58103885Y-30352419D02*
X57961028Y-30304800D01*
X57961028Y-30304800D02*
X57865790Y-30209561D01*
X57865790Y-30209561D02*
X57818171Y-30114323D01*
X57818171Y-30114323D02*
X57770552Y-29923847D01*
X57770552Y-29923847D02*
X57770552Y-29780990D01*
X57770552Y-29780990D02*
X57818171Y-29590514D01*
X57818171Y-29590514D02*
X57865790Y-29495276D01*
X57865790Y-29495276D02*
X57961028Y-29400038D01*
X57961028Y-29400038D02*
X58103885Y-29352419D01*
X58103885Y-29352419D02*
X58199123Y-29352419D01*
X58199123Y-29352419D02*
X58341980Y-29400038D01*
X58341980Y-29400038D02*
X58389599Y-29447657D01*
X59103885Y-29352419D02*
X59103885Y-30066704D01*
X59103885Y-30066704D02*
X59056266Y-30209561D01*
X59056266Y-30209561D02*
X58961028Y-30304800D01*
X58961028Y-30304800D02*
X58818171Y-30352419D01*
X58818171Y-30352419D02*
X58722933Y-30352419D01*
X60056266Y-30352419D02*
X59580076Y-30352419D01*
X59580076Y-30352419D02*
X59580076Y-29352419D01*
X60961028Y-30257180D02*
X60913409Y-30304800D01*
X60913409Y-30304800D02*
X60770552Y-30352419D01*
X60770552Y-30352419D02*
X60675314Y-30352419D01*
X60675314Y-30352419D02*
X60532457Y-30304800D01*
X60532457Y-30304800D02*
X60437219Y-30209561D01*
X60437219Y-30209561D02*
X60389600Y-30114323D01*
X60389600Y-30114323D02*
X60341981Y-29923847D01*
X60341981Y-29923847D02*
X60341981Y-29780990D01*
X60341981Y-29780990D02*
X60389600Y-29590514D01*
X60389600Y-29590514D02*
X60437219Y-29495276D01*
X60437219Y-29495276D02*
X60532457Y-29400038D01*
X60532457Y-29400038D02*
X60675314Y-29352419D01*
X60675314Y-29352419D02*
X60770552Y-29352419D01*
X60770552Y-29352419D02*
X60913409Y-29400038D01*
X60913409Y-29400038D02*
X60961028Y-29447657D01*
D12*
X27037819Y-61928333D02*
X27752104Y-61928333D01*
X27752104Y-61928333D02*
X27894961Y-61975952D01*
X27894961Y-61975952D02*
X27990200Y-62071190D01*
X27990200Y-62071190D02*
X28037819Y-62214047D01*
X28037819Y-62214047D02*
X28037819Y-62309285D01*
X27371152Y-61023571D02*
X28037819Y-61023571D01*
X26990200Y-61261666D02*
X27704485Y-61499761D01*
X27704485Y-61499761D02*
X27704485Y-60880714D01*
X28773952Y-59509819D02*
X28773952Y-58509819D01*
X28773952Y-58986009D02*
X29345380Y-58986009D01*
X29345380Y-59509819D02*
X29345380Y-58509819D01*
X29773952Y-59224104D02*
X30250142Y-59224104D01*
X29678714Y-59509819D02*
X30012047Y-58509819D01*
X30012047Y-58509819D02*
X30345380Y-59509819D01*
X30678714Y-59509819D02*
X30678714Y-58509819D01*
X30678714Y-58509819D02*
X31250142Y-59509819D01*
X31250142Y-59509819D02*
X31250142Y-58509819D01*
X31726333Y-59509819D02*
X31726333Y-58509819D01*
X31726333Y-58509819D02*
X31964428Y-58509819D01*
X31964428Y-58509819D02*
X32107285Y-58557438D01*
X32107285Y-58557438D02*
X32202523Y-58652676D01*
X32202523Y-58652676D02*
X32250142Y-58747914D01*
X32250142Y-58747914D02*
X32297761Y-58938390D01*
X32297761Y-58938390D02*
X32297761Y-59081247D01*
X32297761Y-59081247D02*
X32250142Y-59271723D01*
X32250142Y-59271723D02*
X32202523Y-59366961D01*
X32202523Y-59366961D02*
X32107285Y-59462200D01*
X32107285Y-59462200D02*
X31964428Y-59509819D01*
X31964428Y-59509819D02*
X31726333Y-59509819D01*
X32678714Y-59462200D02*
X32821571Y-59509819D01*
X32821571Y-59509819D02*
X33059666Y-59509819D01*
X33059666Y-59509819D02*
X33154904Y-59462200D01*
X33154904Y-59462200D02*
X33202523Y-59414580D01*
X33202523Y-59414580D02*
X33250142Y-59319342D01*
X33250142Y-59319342D02*
X33250142Y-59224104D01*
X33250142Y-59224104D02*
X33202523Y-59128866D01*
X33202523Y-59128866D02*
X33154904Y-59081247D01*
X33154904Y-59081247D02*
X33059666Y-59033628D01*
X33059666Y-59033628D02*
X32869190Y-58986009D01*
X32869190Y-58986009D02*
X32773952Y-58938390D01*
X32773952Y-58938390D02*
X32726333Y-58890771D01*
X32726333Y-58890771D02*
X32678714Y-58795533D01*
X32678714Y-58795533D02*
X32678714Y-58700295D01*
X32678714Y-58700295D02*
X32726333Y-58605057D01*
X32726333Y-58605057D02*
X32773952Y-58557438D01*
X32773952Y-58557438D02*
X32869190Y-58509819D01*
X32869190Y-58509819D02*
X33107285Y-58509819D01*
X33107285Y-58509819D02*
X33250142Y-58557438D01*
X33678714Y-59509819D02*
X33678714Y-58509819D01*
X33678714Y-58986009D02*
X34250142Y-58986009D01*
X34250142Y-59509819D02*
X34250142Y-58509819D01*
X34678714Y-59224104D02*
X35154904Y-59224104D01*
X34583476Y-59509819D02*
X34916809Y-58509819D01*
X34916809Y-58509819D02*
X35250142Y-59509819D01*
X35583476Y-59509819D02*
X35583476Y-58509819D01*
X36154904Y-59509819D02*
X35726333Y-58938390D01*
X36154904Y-58509819D02*
X35583476Y-59081247D01*
X36583476Y-58986009D02*
X36916809Y-58986009D01*
X37059666Y-59509819D02*
X36583476Y-59509819D01*
X36583476Y-59509819D02*
X36583476Y-58509819D01*
X36583476Y-58509819D02*
X37059666Y-58509819D01*
X49619819Y-61928333D02*
X50334104Y-61928333D01*
X50334104Y-61928333D02*
X50476961Y-61975952D01*
X50476961Y-61975952D02*
X50572200Y-62071190D01*
X50572200Y-62071190D02*
X50619819Y-62214047D01*
X50619819Y-62214047D02*
X50619819Y-62309285D01*
X49619819Y-61547380D02*
X49619819Y-60928333D01*
X49619819Y-60928333D02*
X50000771Y-61261666D01*
X50000771Y-61261666D02*
X50000771Y-61118809D01*
X50000771Y-61118809D02*
X50048390Y-61023571D01*
X50048390Y-61023571D02*
X50096009Y-60975952D01*
X50096009Y-60975952D02*
X50191247Y-60928333D01*
X50191247Y-60928333D02*
X50429342Y-60928333D01*
X50429342Y-60928333D02*
X50524580Y-60975952D01*
X50524580Y-60975952D02*
X50572200Y-61023571D01*
X50572200Y-61023571D02*
X50619819Y-61118809D01*
X50619819Y-61118809D02*
X50619819Y-61404523D01*
X50619819Y-61404523D02*
X50572200Y-61499761D01*
X50572200Y-61499761D02*
X50524580Y-61547380D01*
X51840000Y-59509819D02*
X51840000Y-58509819D01*
X51840000Y-58509819D02*
X52078095Y-58509819D01*
X52078095Y-58509819D02*
X52220952Y-58557438D01*
X52220952Y-58557438D02*
X52316190Y-58652676D01*
X52316190Y-58652676D02*
X52363809Y-58747914D01*
X52363809Y-58747914D02*
X52411428Y-58938390D01*
X52411428Y-58938390D02*
X52411428Y-59081247D01*
X52411428Y-59081247D02*
X52363809Y-59271723D01*
X52363809Y-59271723D02*
X52316190Y-59366961D01*
X52316190Y-59366961D02*
X52220952Y-59462200D01*
X52220952Y-59462200D02*
X52078095Y-59509819D01*
X52078095Y-59509819D02*
X51840000Y-59509819D01*
X52792381Y-59224104D02*
X53268571Y-59224104D01*
X52697143Y-59509819D02*
X53030476Y-58509819D01*
X53030476Y-58509819D02*
X53363809Y-59509819D01*
X53554286Y-58509819D02*
X54125714Y-58509819D01*
X53840000Y-59509819D02*
X53840000Y-58509819D01*
X54411429Y-59224104D02*
X54887619Y-59224104D01*
X54316191Y-59509819D02*
X54649524Y-58509819D01*
X54649524Y-58509819D02*
X54982857Y-59509819D01*
X30146666Y-85814819D02*
X30146666Y-86529104D01*
X30146666Y-86529104D02*
X30099047Y-86671961D01*
X30099047Y-86671961D02*
X30003809Y-86767200D01*
X30003809Y-86767200D02*
X29860952Y-86814819D01*
X29860952Y-86814819D02*
X29765714Y-86814819D01*
X31146666Y-86814819D02*
X30575238Y-86814819D01*
X30860952Y-86814819D02*
X30860952Y-85814819D01*
X30860952Y-85814819D02*
X30765714Y-85957676D01*
X30765714Y-85957676D02*
X30670476Y-86052914D01*
X30670476Y-86052914D02*
X30575238Y-86100533D01*
X46347142Y-46809819D02*
X46013809Y-46333628D01*
X45775714Y-46809819D02*
X45775714Y-45809819D01*
X45775714Y-45809819D02*
X46156666Y-45809819D01*
X46156666Y-45809819D02*
X46251904Y-45857438D01*
X46251904Y-45857438D02*
X46299523Y-45905057D01*
X46299523Y-45905057D02*
X46347142Y-46000295D01*
X46347142Y-46000295D02*
X46347142Y-46143152D01*
X46347142Y-46143152D02*
X46299523Y-46238390D01*
X46299523Y-46238390D02*
X46251904Y-46286009D01*
X46251904Y-46286009D02*
X46156666Y-46333628D01*
X46156666Y-46333628D02*
X45775714Y-46333628D01*
X47299523Y-46809819D02*
X46728095Y-46809819D01*
X47013809Y-46809819D02*
X47013809Y-45809819D01*
X47013809Y-45809819D02*
X46918571Y-45952676D01*
X46918571Y-45952676D02*
X46823333Y-46047914D01*
X46823333Y-46047914D02*
X46728095Y-46095533D01*
X47918571Y-45809819D02*
X48013809Y-45809819D01*
X48013809Y-45809819D02*
X48109047Y-45857438D01*
X48109047Y-45857438D02*
X48156666Y-45905057D01*
X48156666Y-45905057D02*
X48204285Y-46000295D01*
X48204285Y-46000295D02*
X48251904Y-46190771D01*
X48251904Y-46190771D02*
X48251904Y-46428866D01*
X48251904Y-46428866D02*
X48204285Y-46619342D01*
X48204285Y-46619342D02*
X48156666Y-46714580D01*
X48156666Y-46714580D02*
X48109047Y-46762200D01*
X48109047Y-46762200D02*
X48013809Y-46809819D01*
X48013809Y-46809819D02*
X47918571Y-46809819D01*
X47918571Y-46809819D02*
X47823333Y-46762200D01*
X47823333Y-46762200D02*
X47775714Y-46714580D01*
X47775714Y-46714580D02*
X47728095Y-46619342D01*
X47728095Y-46619342D02*
X47680476Y-46428866D01*
X47680476Y-46428866D02*
X47680476Y-46190771D01*
X47680476Y-46190771D02*
X47728095Y-46000295D01*
X47728095Y-46000295D02*
X47775714Y-45905057D01*
X47775714Y-45905057D02*
X47823333Y-45857438D01*
X47823333Y-45857438D02*
X47918571Y-45809819D01*
X46540057Y-53308094D02*
X46492438Y-53260475D01*
X46492438Y-53260475D02*
X46444819Y-53165237D01*
X46444819Y-53165237D02*
X46444819Y-52927142D01*
X46444819Y-52927142D02*
X46492438Y-52831904D01*
X46492438Y-52831904D02*
X46540057Y-52784285D01*
X46540057Y-52784285D02*
X46635295Y-52736666D01*
X46635295Y-52736666D02*
X46730533Y-52736666D01*
X46730533Y-52736666D02*
X46873390Y-52784285D01*
X46873390Y-52784285D02*
X47444819Y-53355713D01*
X47444819Y-53355713D02*
X47444819Y-52736666D01*
X46778152Y-51879523D02*
X47444819Y-51879523D01*
X46397200Y-52117618D02*
X47111485Y-52355713D01*
X47111485Y-52355713D02*
X47111485Y-51736666D01*
X46444819Y-51165237D02*
X46444819Y-51069999D01*
X46444819Y-51069999D02*
X46492438Y-50974761D01*
X46492438Y-50974761D02*
X46540057Y-50927142D01*
X46540057Y-50927142D02*
X46635295Y-50879523D01*
X46635295Y-50879523D02*
X46825771Y-50831904D01*
X46825771Y-50831904D02*
X47063866Y-50831904D01*
X47063866Y-50831904D02*
X47254342Y-50879523D01*
X47254342Y-50879523D02*
X47349580Y-50927142D01*
X47349580Y-50927142D02*
X47397200Y-50974761D01*
X47397200Y-50974761D02*
X47444819Y-51069999D01*
X47444819Y-51069999D02*
X47444819Y-51165237D01*
X47444819Y-51165237D02*
X47397200Y-51260475D01*
X47397200Y-51260475D02*
X47349580Y-51308094D01*
X47349580Y-51308094D02*
X47254342Y-51355713D01*
X47254342Y-51355713D02*
X47063866Y-51403332D01*
X47063866Y-51403332D02*
X46825771Y-51403332D01*
X46825771Y-51403332D02*
X46635295Y-51355713D01*
X46635295Y-51355713D02*
X46540057Y-51308094D01*
X46540057Y-51308094D02*
X46492438Y-51260475D01*
X46492438Y-51260475D02*
X46444819Y-51165237D01*
X75557142Y-44254819D02*
X75080952Y-44254819D01*
X75080952Y-44254819D02*
X75080952Y-43254819D01*
X75842857Y-44207200D02*
X75985714Y-44254819D01*
X75985714Y-44254819D02*
X76223809Y-44254819D01*
X76223809Y-44254819D02*
X76319047Y-44207200D01*
X76319047Y-44207200D02*
X76366666Y-44159580D01*
X76366666Y-44159580D02*
X76414285Y-44064342D01*
X76414285Y-44064342D02*
X76414285Y-43969104D01*
X76414285Y-43969104D02*
X76366666Y-43873866D01*
X76366666Y-43873866D02*
X76319047Y-43826247D01*
X76319047Y-43826247D02*
X76223809Y-43778628D01*
X76223809Y-43778628D02*
X76033333Y-43731009D01*
X76033333Y-43731009D02*
X75938095Y-43683390D01*
X75938095Y-43683390D02*
X75890476Y-43635771D01*
X75890476Y-43635771D02*
X75842857Y-43540533D01*
X75842857Y-43540533D02*
X75842857Y-43445295D01*
X75842857Y-43445295D02*
X75890476Y-43350057D01*
X75890476Y-43350057D02*
X75938095Y-43302438D01*
X75938095Y-43302438D02*
X76033333Y-43254819D01*
X76033333Y-43254819D02*
X76271428Y-43254819D01*
X76271428Y-43254819D02*
X76414285Y-43302438D01*
X77366666Y-44254819D02*
X76795238Y-44254819D01*
X77080952Y-44254819D02*
X77080952Y-43254819D01*
X77080952Y-43254819D02*
X76985714Y-43397676D01*
X76985714Y-43397676D02*
X76890476Y-43492914D01*
X76890476Y-43492914D02*
X76795238Y-43540533D01*
X73438095Y-58207200D02*
X73580952Y-58254819D01*
X73580952Y-58254819D02*
X73819047Y-58254819D01*
X73819047Y-58254819D02*
X73914285Y-58207200D01*
X73914285Y-58207200D02*
X73961904Y-58159580D01*
X73961904Y-58159580D02*
X74009523Y-58064342D01*
X74009523Y-58064342D02*
X74009523Y-57969104D01*
X74009523Y-57969104D02*
X73961904Y-57873866D01*
X73961904Y-57873866D02*
X73914285Y-57826247D01*
X73914285Y-57826247D02*
X73819047Y-57778628D01*
X73819047Y-57778628D02*
X73628571Y-57731009D01*
X73628571Y-57731009D02*
X73533333Y-57683390D01*
X73533333Y-57683390D02*
X73485714Y-57635771D01*
X73485714Y-57635771D02*
X73438095Y-57540533D01*
X73438095Y-57540533D02*
X73438095Y-57445295D01*
X73438095Y-57445295D02*
X73485714Y-57350057D01*
X73485714Y-57350057D02*
X73533333Y-57302438D01*
X73533333Y-57302438D02*
X73628571Y-57254819D01*
X73628571Y-57254819D02*
X73866666Y-57254819D01*
X73866666Y-57254819D02*
X74009523Y-57302438D01*
X74438095Y-57588152D02*
X74438095Y-58588152D01*
X74438095Y-57635771D02*
X74533333Y-57588152D01*
X74533333Y-57588152D02*
X74723809Y-57588152D01*
X74723809Y-57588152D02*
X74819047Y-57635771D01*
X74819047Y-57635771D02*
X74866666Y-57683390D01*
X74866666Y-57683390D02*
X74914285Y-57778628D01*
X74914285Y-57778628D02*
X74914285Y-58064342D01*
X74914285Y-58064342D02*
X74866666Y-58159580D01*
X74866666Y-58159580D02*
X74819047Y-58207200D01*
X74819047Y-58207200D02*
X74723809Y-58254819D01*
X74723809Y-58254819D02*
X74533333Y-58254819D01*
X74533333Y-58254819D02*
X74438095Y-58207200D01*
X75723809Y-58207200D02*
X75628571Y-58254819D01*
X75628571Y-58254819D02*
X75438095Y-58254819D01*
X75438095Y-58254819D02*
X75342857Y-58207200D01*
X75342857Y-58207200D02*
X75295238Y-58111961D01*
X75295238Y-58111961D02*
X75295238Y-57731009D01*
X75295238Y-57731009D02*
X75342857Y-57635771D01*
X75342857Y-57635771D02*
X75438095Y-57588152D01*
X75438095Y-57588152D02*
X75628571Y-57588152D01*
X75628571Y-57588152D02*
X75723809Y-57635771D01*
X75723809Y-57635771D02*
X75771428Y-57731009D01*
X75771428Y-57731009D02*
X75771428Y-57826247D01*
X75771428Y-57826247D02*
X75295238Y-57921485D01*
X76628571Y-58254819D02*
X76628571Y-57731009D01*
X76628571Y-57731009D02*
X76580952Y-57635771D01*
X76580952Y-57635771D02*
X76485714Y-57588152D01*
X76485714Y-57588152D02*
X76295238Y-57588152D01*
X76295238Y-57588152D02*
X76200000Y-57635771D01*
X76628571Y-58207200D02*
X76533333Y-58254819D01*
X76533333Y-58254819D02*
X76295238Y-58254819D01*
X76295238Y-58254819D02*
X76200000Y-58207200D01*
X76200000Y-58207200D02*
X76152381Y-58111961D01*
X76152381Y-58111961D02*
X76152381Y-58016723D01*
X76152381Y-58016723D02*
X76200000Y-57921485D01*
X76200000Y-57921485D02*
X76295238Y-57873866D01*
X76295238Y-57873866D02*
X76533333Y-57873866D01*
X76533333Y-57873866D02*
X76628571Y-57826247D01*
X77104762Y-58254819D02*
X77104762Y-57254819D01*
X77200000Y-57873866D02*
X77485714Y-58254819D01*
X77485714Y-57588152D02*
X77104762Y-57969104D01*
X78295238Y-58207200D02*
X78200000Y-58254819D01*
X78200000Y-58254819D02*
X78009524Y-58254819D01*
X78009524Y-58254819D02*
X77914286Y-58207200D01*
X77914286Y-58207200D02*
X77866667Y-58111961D01*
X77866667Y-58111961D02*
X77866667Y-57731009D01*
X77866667Y-57731009D02*
X77914286Y-57635771D01*
X77914286Y-57635771D02*
X78009524Y-57588152D01*
X78009524Y-57588152D02*
X78200000Y-57588152D01*
X78200000Y-57588152D02*
X78295238Y-57635771D01*
X78295238Y-57635771D02*
X78342857Y-57731009D01*
X78342857Y-57731009D02*
X78342857Y-57826247D01*
X78342857Y-57826247D02*
X77866667Y-57921485D01*
X78771429Y-58254819D02*
X78771429Y-57588152D01*
X78771429Y-57778628D02*
X78819048Y-57683390D01*
X78819048Y-57683390D02*
X78866667Y-57635771D01*
X78866667Y-57635771D02*
X78961905Y-57588152D01*
X78961905Y-57588152D02*
X79057143Y-57588152D01*
X72019048Y-49073866D02*
X72780953Y-49073866D01*
X72400000Y-49454819D02*
X72400000Y-48692914D01*
X77303333Y-65224819D02*
X76970000Y-64748628D01*
X76731905Y-65224819D02*
X76731905Y-64224819D01*
X76731905Y-64224819D02*
X77112857Y-64224819D01*
X77112857Y-64224819D02*
X77208095Y-64272438D01*
X77208095Y-64272438D02*
X77255714Y-64320057D01*
X77255714Y-64320057D02*
X77303333Y-64415295D01*
X77303333Y-64415295D02*
X77303333Y-64558152D01*
X77303333Y-64558152D02*
X77255714Y-64653390D01*
X77255714Y-64653390D02*
X77208095Y-64701009D01*
X77208095Y-64701009D02*
X77112857Y-64748628D01*
X77112857Y-64748628D02*
X76731905Y-64748628D01*
X78255714Y-65224819D02*
X77684286Y-65224819D01*
X77970000Y-65224819D02*
X77970000Y-64224819D01*
X77970000Y-64224819D02*
X77874762Y-64367676D01*
X77874762Y-64367676D02*
X77779524Y-64462914D01*
X77779524Y-64462914D02*
X77684286Y-64510533D01*
X76924819Y-72572380D02*
X76924819Y-71953333D01*
X76924819Y-71953333D02*
X77305771Y-72286666D01*
X77305771Y-72286666D02*
X77305771Y-72143809D01*
X77305771Y-72143809D02*
X77353390Y-72048571D01*
X77353390Y-72048571D02*
X77401009Y-72000952D01*
X77401009Y-72000952D02*
X77496247Y-71953333D01*
X77496247Y-71953333D02*
X77734342Y-71953333D01*
X77734342Y-71953333D02*
X77829580Y-72000952D01*
X77829580Y-72000952D02*
X77877200Y-72048571D01*
X77877200Y-72048571D02*
X77924819Y-72143809D01*
X77924819Y-72143809D02*
X77924819Y-72429523D01*
X77924819Y-72429523D02*
X77877200Y-72524761D01*
X77877200Y-72524761D02*
X77829580Y-72572380D01*
X77829580Y-71524761D02*
X77877200Y-71477142D01*
X77877200Y-71477142D02*
X77924819Y-71524761D01*
X77924819Y-71524761D02*
X77877200Y-71572380D01*
X77877200Y-71572380D02*
X77829580Y-71524761D01*
X77829580Y-71524761D02*
X77924819Y-71524761D01*
X77924819Y-71000952D02*
X77924819Y-70810476D01*
X77924819Y-70810476D02*
X77877200Y-70715238D01*
X77877200Y-70715238D02*
X77829580Y-70667619D01*
X77829580Y-70667619D02*
X77686723Y-70572381D01*
X77686723Y-70572381D02*
X77496247Y-70524762D01*
X77496247Y-70524762D02*
X77115295Y-70524762D01*
X77115295Y-70524762D02*
X77020057Y-70572381D01*
X77020057Y-70572381D02*
X76972438Y-70620000D01*
X76972438Y-70620000D02*
X76924819Y-70715238D01*
X76924819Y-70715238D02*
X76924819Y-70905714D01*
X76924819Y-70905714D02*
X76972438Y-71000952D01*
X76972438Y-71000952D02*
X77020057Y-71048571D01*
X77020057Y-71048571D02*
X77115295Y-71096190D01*
X77115295Y-71096190D02*
X77353390Y-71096190D01*
X77353390Y-71096190D02*
X77448628Y-71048571D01*
X77448628Y-71048571D02*
X77496247Y-71000952D01*
X77496247Y-71000952D02*
X77543866Y-70905714D01*
X77543866Y-70905714D02*
X77543866Y-70715238D01*
X77543866Y-70715238D02*
X77496247Y-70620000D01*
X77496247Y-70620000D02*
X77448628Y-70572381D01*
X77448628Y-70572381D02*
X77353390Y-70524762D01*
X77924819Y-70096190D02*
X76924819Y-70096190D01*
X77543866Y-70000952D02*
X77924819Y-69715238D01*
X77258152Y-69715238D02*
X77639104Y-70096190D01*
X27124819Y-71810476D02*
X26648628Y-72143809D01*
X27124819Y-72381904D02*
X26124819Y-72381904D01*
X26124819Y-72381904D02*
X26124819Y-72000952D01*
X26124819Y-72000952D02*
X26172438Y-71905714D01*
X26172438Y-71905714D02*
X26220057Y-71858095D01*
X26220057Y-71858095D02*
X26315295Y-71810476D01*
X26315295Y-71810476D02*
X26458152Y-71810476D01*
X26458152Y-71810476D02*
X26553390Y-71858095D01*
X26553390Y-71858095D02*
X26601009Y-71905714D01*
X26601009Y-71905714D02*
X26648628Y-72000952D01*
X26648628Y-72000952D02*
X26648628Y-72381904D01*
X27124819Y-71381904D02*
X26124819Y-71381904D01*
X26124819Y-71381904D02*
X27124819Y-70810476D01*
X27124819Y-70810476D02*
X26124819Y-70810476D01*
X27124819Y-69810476D02*
X27124819Y-70381904D01*
X27124819Y-70096190D02*
X26124819Y-70096190D01*
X26124819Y-70096190D02*
X26267676Y-70191428D01*
X26267676Y-70191428D02*
X26362914Y-70286666D01*
X26362914Y-70286666D02*
X26410533Y-70381904D01*
X27757619Y-72974819D02*
X28376666Y-72974819D01*
X28376666Y-72974819D02*
X28043333Y-73355771D01*
X28043333Y-73355771D02*
X28186190Y-73355771D01*
X28186190Y-73355771D02*
X28281428Y-73403390D01*
X28281428Y-73403390D02*
X28329047Y-73451009D01*
X28329047Y-73451009D02*
X28376666Y-73546247D01*
X28376666Y-73546247D02*
X28376666Y-73784342D01*
X28376666Y-73784342D02*
X28329047Y-73879580D01*
X28329047Y-73879580D02*
X28281428Y-73927200D01*
X28281428Y-73927200D02*
X28186190Y-73974819D01*
X28186190Y-73974819D02*
X27900476Y-73974819D01*
X27900476Y-73974819D02*
X27805238Y-73927200D01*
X27805238Y-73927200D02*
X27757619Y-73879580D01*
X28805238Y-73879580D02*
X28852857Y-73927200D01*
X28852857Y-73927200D02*
X28805238Y-73974819D01*
X28805238Y-73974819D02*
X28757619Y-73927200D01*
X28757619Y-73927200D02*
X28805238Y-73879580D01*
X28805238Y-73879580D02*
X28805238Y-73974819D01*
X29329047Y-73974819D02*
X29519523Y-73974819D01*
X29519523Y-73974819D02*
X29614761Y-73927200D01*
X29614761Y-73927200D02*
X29662380Y-73879580D01*
X29662380Y-73879580D02*
X29757618Y-73736723D01*
X29757618Y-73736723D02*
X29805237Y-73546247D01*
X29805237Y-73546247D02*
X29805237Y-73165295D01*
X29805237Y-73165295D02*
X29757618Y-73070057D01*
X29757618Y-73070057D02*
X29709999Y-73022438D01*
X29709999Y-73022438D02*
X29614761Y-72974819D01*
X29614761Y-72974819D02*
X29424285Y-72974819D01*
X29424285Y-72974819D02*
X29329047Y-73022438D01*
X29329047Y-73022438D02*
X29281428Y-73070057D01*
X29281428Y-73070057D02*
X29233809Y-73165295D01*
X29233809Y-73165295D02*
X29233809Y-73403390D01*
X29233809Y-73403390D02*
X29281428Y-73498628D01*
X29281428Y-73498628D02*
X29329047Y-73546247D01*
X29329047Y-73546247D02*
X29424285Y-73593866D01*
X29424285Y-73593866D02*
X29614761Y-73593866D01*
X29614761Y-73593866D02*
X29709999Y-73546247D01*
X29709999Y-73546247D02*
X29757618Y-73498628D01*
X29757618Y-73498628D02*
X29805237Y-73403390D01*
X30233809Y-73974819D02*
X30233809Y-72974819D01*
X30329047Y-73593866D02*
X30614761Y-73974819D01*
X30614761Y-73308152D02*
X30233809Y-73689104D01*
X43013333Y-46809819D02*
X42680000Y-46333628D01*
X42441905Y-46809819D02*
X42441905Y-45809819D01*
X42441905Y-45809819D02*
X42822857Y-45809819D01*
X42822857Y-45809819D02*
X42918095Y-45857438D01*
X42918095Y-45857438D02*
X42965714Y-45905057D01*
X42965714Y-45905057D02*
X43013333Y-46000295D01*
X43013333Y-46000295D02*
X43013333Y-46143152D01*
X43013333Y-46143152D02*
X42965714Y-46238390D01*
X42965714Y-46238390D02*
X42918095Y-46286009D01*
X42918095Y-46286009D02*
X42822857Y-46333628D01*
X42822857Y-46333628D02*
X42441905Y-46333628D01*
X43489524Y-46809819D02*
X43680000Y-46809819D01*
X43680000Y-46809819D02*
X43775238Y-46762200D01*
X43775238Y-46762200D02*
X43822857Y-46714580D01*
X43822857Y-46714580D02*
X43918095Y-46571723D01*
X43918095Y-46571723D02*
X43965714Y-46381247D01*
X43965714Y-46381247D02*
X43965714Y-46000295D01*
X43965714Y-46000295D02*
X43918095Y-45905057D01*
X43918095Y-45905057D02*
X43870476Y-45857438D01*
X43870476Y-45857438D02*
X43775238Y-45809819D01*
X43775238Y-45809819D02*
X43584762Y-45809819D01*
X43584762Y-45809819D02*
X43489524Y-45857438D01*
X43489524Y-45857438D02*
X43441905Y-45905057D01*
X43441905Y-45905057D02*
X43394286Y-46000295D01*
X43394286Y-46000295D02*
X43394286Y-46238390D01*
X43394286Y-46238390D02*
X43441905Y-46333628D01*
X43441905Y-46333628D02*
X43489524Y-46381247D01*
X43489524Y-46381247D02*
X43584762Y-46428866D01*
X43584762Y-46428866D02*
X43775238Y-46428866D01*
X43775238Y-46428866D02*
X43870476Y-46381247D01*
X43870476Y-46381247D02*
X43918095Y-46333628D01*
X43918095Y-46333628D02*
X43965714Y-46238390D01*
X42634819Y-52784285D02*
X42634819Y-53260475D01*
X42634819Y-53260475D02*
X43111009Y-53308094D01*
X43111009Y-53308094D02*
X43063390Y-53260475D01*
X43063390Y-53260475D02*
X43015771Y-53165237D01*
X43015771Y-53165237D02*
X43015771Y-52927142D01*
X43015771Y-52927142D02*
X43063390Y-52831904D01*
X43063390Y-52831904D02*
X43111009Y-52784285D01*
X43111009Y-52784285D02*
X43206247Y-52736666D01*
X43206247Y-52736666D02*
X43444342Y-52736666D01*
X43444342Y-52736666D02*
X43539580Y-52784285D01*
X43539580Y-52784285D02*
X43587200Y-52831904D01*
X43587200Y-52831904D02*
X43634819Y-52927142D01*
X43634819Y-52927142D02*
X43634819Y-53165237D01*
X43634819Y-53165237D02*
X43587200Y-53260475D01*
X43587200Y-53260475D02*
X43539580Y-53308094D01*
X43634819Y-51784285D02*
X43634819Y-52355713D01*
X43634819Y-52069999D02*
X42634819Y-52069999D01*
X42634819Y-52069999D02*
X42777676Y-52165237D01*
X42777676Y-52165237D02*
X42872914Y-52260475D01*
X42872914Y-52260475D02*
X42920533Y-52355713D01*
X42634819Y-51165237D02*
X42634819Y-51069999D01*
X42634819Y-51069999D02*
X42682438Y-50974761D01*
X42682438Y-50974761D02*
X42730057Y-50927142D01*
X42730057Y-50927142D02*
X42825295Y-50879523D01*
X42825295Y-50879523D02*
X43015771Y-50831904D01*
X43015771Y-50831904D02*
X43253866Y-50831904D01*
X43253866Y-50831904D02*
X43444342Y-50879523D01*
X43444342Y-50879523D02*
X43539580Y-50927142D01*
X43539580Y-50927142D02*
X43587200Y-50974761D01*
X43587200Y-50974761D02*
X43634819Y-51069999D01*
X43634819Y-51069999D02*
X43634819Y-51165237D01*
X43634819Y-51165237D02*
X43587200Y-51260475D01*
X43587200Y-51260475D02*
X43539580Y-51308094D01*
X43539580Y-51308094D02*
X43444342Y-51355713D01*
X43444342Y-51355713D02*
X43253866Y-51403332D01*
X43253866Y-51403332D02*
X43015771Y-51403332D01*
X43015771Y-51403332D02*
X42825295Y-51355713D01*
X42825295Y-51355713D02*
X42730057Y-51308094D01*
X42730057Y-51308094D02*
X42682438Y-51260475D01*
X42682438Y-51260475D02*
X42634819Y-51165237D01*
X53967142Y-46809819D02*
X53633809Y-46333628D01*
X53395714Y-46809819D02*
X53395714Y-45809819D01*
X53395714Y-45809819D02*
X53776666Y-45809819D01*
X53776666Y-45809819D02*
X53871904Y-45857438D01*
X53871904Y-45857438D02*
X53919523Y-45905057D01*
X53919523Y-45905057D02*
X53967142Y-46000295D01*
X53967142Y-46000295D02*
X53967142Y-46143152D01*
X53967142Y-46143152D02*
X53919523Y-46238390D01*
X53919523Y-46238390D02*
X53871904Y-46286009D01*
X53871904Y-46286009D02*
X53776666Y-46333628D01*
X53776666Y-46333628D02*
X53395714Y-46333628D01*
X54919523Y-46809819D02*
X54348095Y-46809819D01*
X54633809Y-46809819D02*
X54633809Y-45809819D01*
X54633809Y-45809819D02*
X54538571Y-45952676D01*
X54538571Y-45952676D02*
X54443333Y-46047914D01*
X54443333Y-46047914D02*
X54348095Y-46095533D01*
X55300476Y-45905057D02*
X55348095Y-45857438D01*
X55348095Y-45857438D02*
X55443333Y-45809819D01*
X55443333Y-45809819D02*
X55681428Y-45809819D01*
X55681428Y-45809819D02*
X55776666Y-45857438D01*
X55776666Y-45857438D02*
X55824285Y-45905057D01*
X55824285Y-45905057D02*
X55871904Y-46000295D01*
X55871904Y-46000295D02*
X55871904Y-46095533D01*
X55871904Y-46095533D02*
X55824285Y-46238390D01*
X55824285Y-46238390D02*
X55252857Y-46809819D01*
X55252857Y-46809819D02*
X55871904Y-46809819D01*
X54160057Y-53308094D02*
X54112438Y-53260475D01*
X54112438Y-53260475D02*
X54064819Y-53165237D01*
X54064819Y-53165237D02*
X54064819Y-52927142D01*
X54064819Y-52927142D02*
X54112438Y-52831904D01*
X54112438Y-52831904D02*
X54160057Y-52784285D01*
X54160057Y-52784285D02*
X54255295Y-52736666D01*
X54255295Y-52736666D02*
X54350533Y-52736666D01*
X54350533Y-52736666D02*
X54493390Y-52784285D01*
X54493390Y-52784285D02*
X55064819Y-53355713D01*
X55064819Y-53355713D02*
X55064819Y-52736666D01*
X54398152Y-51879523D02*
X55064819Y-51879523D01*
X54017200Y-52117618D02*
X54731485Y-52355713D01*
X54731485Y-52355713D02*
X54731485Y-51736666D01*
X54064819Y-51165237D02*
X54064819Y-51069999D01*
X54064819Y-51069999D02*
X54112438Y-50974761D01*
X54112438Y-50974761D02*
X54160057Y-50927142D01*
X54160057Y-50927142D02*
X54255295Y-50879523D01*
X54255295Y-50879523D02*
X54445771Y-50831904D01*
X54445771Y-50831904D02*
X54683866Y-50831904D01*
X54683866Y-50831904D02*
X54874342Y-50879523D01*
X54874342Y-50879523D02*
X54969580Y-50927142D01*
X54969580Y-50927142D02*
X55017200Y-50974761D01*
X55017200Y-50974761D02*
X55064819Y-51069999D01*
X55064819Y-51069999D02*
X55064819Y-51165237D01*
X55064819Y-51165237D02*
X55017200Y-51260475D01*
X55017200Y-51260475D02*
X54969580Y-51308094D01*
X54969580Y-51308094D02*
X54874342Y-51355713D01*
X54874342Y-51355713D02*
X54683866Y-51403332D01*
X54683866Y-51403332D02*
X54445771Y-51403332D01*
X54445771Y-51403332D02*
X54255295Y-51355713D01*
X54255295Y-51355713D02*
X54160057Y-51308094D01*
X54160057Y-51308094D02*
X54112438Y-51260475D01*
X54112438Y-51260475D02*
X54064819Y-51165237D01*
X57777142Y-46809819D02*
X57443809Y-46333628D01*
X57205714Y-46809819D02*
X57205714Y-45809819D01*
X57205714Y-45809819D02*
X57586666Y-45809819D01*
X57586666Y-45809819D02*
X57681904Y-45857438D01*
X57681904Y-45857438D02*
X57729523Y-45905057D01*
X57729523Y-45905057D02*
X57777142Y-46000295D01*
X57777142Y-46000295D02*
X57777142Y-46143152D01*
X57777142Y-46143152D02*
X57729523Y-46238390D01*
X57729523Y-46238390D02*
X57681904Y-46286009D01*
X57681904Y-46286009D02*
X57586666Y-46333628D01*
X57586666Y-46333628D02*
X57205714Y-46333628D01*
X58729523Y-46809819D02*
X58158095Y-46809819D01*
X58443809Y-46809819D02*
X58443809Y-45809819D01*
X58443809Y-45809819D02*
X58348571Y-45952676D01*
X58348571Y-45952676D02*
X58253333Y-46047914D01*
X58253333Y-46047914D02*
X58158095Y-46095533D01*
X59062857Y-45809819D02*
X59681904Y-45809819D01*
X59681904Y-45809819D02*
X59348571Y-46190771D01*
X59348571Y-46190771D02*
X59491428Y-46190771D01*
X59491428Y-46190771D02*
X59586666Y-46238390D01*
X59586666Y-46238390D02*
X59634285Y-46286009D01*
X59634285Y-46286009D02*
X59681904Y-46381247D01*
X59681904Y-46381247D02*
X59681904Y-46619342D01*
X59681904Y-46619342D02*
X59634285Y-46714580D01*
X59634285Y-46714580D02*
X59586666Y-46762200D01*
X59586666Y-46762200D02*
X59491428Y-46809819D01*
X59491428Y-46809819D02*
X59205714Y-46809819D01*
X59205714Y-46809819D02*
X59110476Y-46762200D01*
X59110476Y-46762200D02*
X59062857Y-46714580D01*
X58874819Y-52736666D02*
X58874819Y-53308094D01*
X58874819Y-53022380D02*
X57874819Y-53022380D01*
X57874819Y-53022380D02*
X58017676Y-53117618D01*
X58017676Y-53117618D02*
X58112914Y-53212856D01*
X58112914Y-53212856D02*
X58160533Y-53308094D01*
X57874819Y-52403332D02*
X57874819Y-51784285D01*
X57874819Y-51784285D02*
X58255771Y-52117618D01*
X58255771Y-52117618D02*
X58255771Y-51974761D01*
X58255771Y-51974761D02*
X58303390Y-51879523D01*
X58303390Y-51879523D02*
X58351009Y-51831904D01*
X58351009Y-51831904D02*
X58446247Y-51784285D01*
X58446247Y-51784285D02*
X58684342Y-51784285D01*
X58684342Y-51784285D02*
X58779580Y-51831904D01*
X58779580Y-51831904D02*
X58827200Y-51879523D01*
X58827200Y-51879523D02*
X58874819Y-51974761D01*
X58874819Y-51974761D02*
X58874819Y-52260475D01*
X58874819Y-52260475D02*
X58827200Y-52355713D01*
X58827200Y-52355713D02*
X58779580Y-52403332D01*
X57874819Y-51165237D02*
X57874819Y-51069999D01*
X57874819Y-51069999D02*
X57922438Y-50974761D01*
X57922438Y-50974761D02*
X57970057Y-50927142D01*
X57970057Y-50927142D02*
X58065295Y-50879523D01*
X58065295Y-50879523D02*
X58255771Y-50831904D01*
X58255771Y-50831904D02*
X58493866Y-50831904D01*
X58493866Y-50831904D02*
X58684342Y-50879523D01*
X58684342Y-50879523D02*
X58779580Y-50927142D01*
X58779580Y-50927142D02*
X58827200Y-50974761D01*
X58827200Y-50974761D02*
X58874819Y-51069999D01*
X58874819Y-51069999D02*
X58874819Y-51165237D01*
X58874819Y-51165237D02*
X58827200Y-51260475D01*
X58827200Y-51260475D02*
X58779580Y-51308094D01*
X58779580Y-51308094D02*
X58684342Y-51355713D01*
X58684342Y-51355713D02*
X58493866Y-51403332D01*
X58493866Y-51403332D02*
X58255771Y-51403332D01*
X58255771Y-51403332D02*
X58065295Y-51355713D01*
X58065295Y-51355713D02*
X57970057Y-51308094D01*
X57970057Y-51308094D02*
X57922438Y-51260475D01*
X57922438Y-51260475D02*
X57874819Y-51165237D01*
X27773333Y-46809819D02*
X27440000Y-46333628D01*
X27201905Y-46809819D02*
X27201905Y-45809819D01*
X27201905Y-45809819D02*
X27582857Y-45809819D01*
X27582857Y-45809819D02*
X27678095Y-45857438D01*
X27678095Y-45857438D02*
X27725714Y-45905057D01*
X27725714Y-45905057D02*
X27773333Y-46000295D01*
X27773333Y-46000295D02*
X27773333Y-46143152D01*
X27773333Y-46143152D02*
X27725714Y-46238390D01*
X27725714Y-46238390D02*
X27678095Y-46286009D01*
X27678095Y-46286009D02*
X27582857Y-46333628D01*
X27582857Y-46333628D02*
X27201905Y-46333628D01*
X28678095Y-45809819D02*
X28201905Y-45809819D01*
X28201905Y-45809819D02*
X28154286Y-46286009D01*
X28154286Y-46286009D02*
X28201905Y-46238390D01*
X28201905Y-46238390D02*
X28297143Y-46190771D01*
X28297143Y-46190771D02*
X28535238Y-46190771D01*
X28535238Y-46190771D02*
X28630476Y-46238390D01*
X28630476Y-46238390D02*
X28678095Y-46286009D01*
X28678095Y-46286009D02*
X28725714Y-46381247D01*
X28725714Y-46381247D02*
X28725714Y-46619342D01*
X28725714Y-46619342D02*
X28678095Y-46714580D01*
X28678095Y-46714580D02*
X28630476Y-46762200D01*
X28630476Y-46762200D02*
X28535238Y-46809819D01*
X28535238Y-46809819D02*
X28297143Y-46809819D01*
X28297143Y-46809819D02*
X28201905Y-46762200D01*
X28201905Y-46762200D02*
X28154286Y-46714580D01*
X27490057Y-53308094D02*
X27442438Y-53260475D01*
X27442438Y-53260475D02*
X27394819Y-53165237D01*
X27394819Y-53165237D02*
X27394819Y-52927142D01*
X27394819Y-52927142D02*
X27442438Y-52831904D01*
X27442438Y-52831904D02*
X27490057Y-52784285D01*
X27490057Y-52784285D02*
X27585295Y-52736666D01*
X27585295Y-52736666D02*
X27680533Y-52736666D01*
X27680533Y-52736666D02*
X27823390Y-52784285D01*
X27823390Y-52784285D02*
X28394819Y-53355713D01*
X28394819Y-53355713D02*
X28394819Y-52736666D01*
X27728152Y-51879523D02*
X28394819Y-51879523D01*
X27347200Y-52117618D02*
X28061485Y-52355713D01*
X28061485Y-52355713D02*
X28061485Y-51736666D01*
X27394819Y-51165237D02*
X27394819Y-51069999D01*
X27394819Y-51069999D02*
X27442438Y-50974761D01*
X27442438Y-50974761D02*
X27490057Y-50927142D01*
X27490057Y-50927142D02*
X27585295Y-50879523D01*
X27585295Y-50879523D02*
X27775771Y-50831904D01*
X27775771Y-50831904D02*
X28013866Y-50831904D01*
X28013866Y-50831904D02*
X28204342Y-50879523D01*
X28204342Y-50879523D02*
X28299580Y-50927142D01*
X28299580Y-50927142D02*
X28347200Y-50974761D01*
X28347200Y-50974761D02*
X28394819Y-51069999D01*
X28394819Y-51069999D02*
X28394819Y-51165237D01*
X28394819Y-51165237D02*
X28347200Y-51260475D01*
X28347200Y-51260475D02*
X28299580Y-51308094D01*
X28299580Y-51308094D02*
X28204342Y-51355713D01*
X28204342Y-51355713D02*
X28013866Y-51403332D01*
X28013866Y-51403332D02*
X27775771Y-51403332D01*
X27775771Y-51403332D02*
X27585295Y-51355713D01*
X27585295Y-51355713D02*
X27490057Y-51308094D01*
X27490057Y-51308094D02*
X27442438Y-51260475D01*
X27442438Y-51260475D02*
X27394819Y-51165237D01*
X50157142Y-46809819D02*
X49823809Y-46333628D01*
X49585714Y-46809819D02*
X49585714Y-45809819D01*
X49585714Y-45809819D02*
X49966666Y-45809819D01*
X49966666Y-45809819D02*
X50061904Y-45857438D01*
X50061904Y-45857438D02*
X50109523Y-45905057D01*
X50109523Y-45905057D02*
X50157142Y-46000295D01*
X50157142Y-46000295D02*
X50157142Y-46143152D01*
X50157142Y-46143152D02*
X50109523Y-46238390D01*
X50109523Y-46238390D02*
X50061904Y-46286009D01*
X50061904Y-46286009D02*
X49966666Y-46333628D01*
X49966666Y-46333628D02*
X49585714Y-46333628D01*
X51109523Y-46809819D02*
X50538095Y-46809819D01*
X50823809Y-46809819D02*
X50823809Y-45809819D01*
X50823809Y-45809819D02*
X50728571Y-45952676D01*
X50728571Y-45952676D02*
X50633333Y-46047914D01*
X50633333Y-46047914D02*
X50538095Y-46095533D01*
X52061904Y-46809819D02*
X51490476Y-46809819D01*
X51776190Y-46809819D02*
X51776190Y-45809819D01*
X51776190Y-45809819D02*
X51680952Y-45952676D01*
X51680952Y-45952676D02*
X51585714Y-46047914D01*
X51585714Y-46047914D02*
X51490476Y-46095533D01*
X50254819Y-52784285D02*
X50254819Y-53260475D01*
X50254819Y-53260475D02*
X50731009Y-53308094D01*
X50731009Y-53308094D02*
X50683390Y-53260475D01*
X50683390Y-53260475D02*
X50635771Y-53165237D01*
X50635771Y-53165237D02*
X50635771Y-52927142D01*
X50635771Y-52927142D02*
X50683390Y-52831904D01*
X50683390Y-52831904D02*
X50731009Y-52784285D01*
X50731009Y-52784285D02*
X50826247Y-52736666D01*
X50826247Y-52736666D02*
X51064342Y-52736666D01*
X51064342Y-52736666D02*
X51159580Y-52784285D01*
X51159580Y-52784285D02*
X51207200Y-52831904D01*
X51207200Y-52831904D02*
X51254819Y-52927142D01*
X51254819Y-52927142D02*
X51254819Y-53165237D01*
X51254819Y-53165237D02*
X51207200Y-53260475D01*
X51207200Y-53260475D02*
X51159580Y-53308094D01*
X51254819Y-51784285D02*
X51254819Y-52355713D01*
X51254819Y-52069999D02*
X50254819Y-52069999D01*
X50254819Y-52069999D02*
X50397676Y-52165237D01*
X50397676Y-52165237D02*
X50492914Y-52260475D01*
X50492914Y-52260475D02*
X50540533Y-52355713D01*
X50254819Y-51165237D02*
X50254819Y-51069999D01*
X50254819Y-51069999D02*
X50302438Y-50974761D01*
X50302438Y-50974761D02*
X50350057Y-50927142D01*
X50350057Y-50927142D02*
X50445295Y-50879523D01*
X50445295Y-50879523D02*
X50635771Y-50831904D01*
X50635771Y-50831904D02*
X50873866Y-50831904D01*
X50873866Y-50831904D02*
X51064342Y-50879523D01*
X51064342Y-50879523D02*
X51159580Y-50927142D01*
X51159580Y-50927142D02*
X51207200Y-50974761D01*
X51207200Y-50974761D02*
X51254819Y-51069999D01*
X51254819Y-51069999D02*
X51254819Y-51165237D01*
X51254819Y-51165237D02*
X51207200Y-51260475D01*
X51207200Y-51260475D02*
X51159580Y-51308094D01*
X51159580Y-51308094D02*
X51064342Y-51355713D01*
X51064342Y-51355713D02*
X50873866Y-51403332D01*
X50873866Y-51403332D02*
X50635771Y-51403332D01*
X50635771Y-51403332D02*
X50445295Y-51355713D01*
X50445295Y-51355713D02*
X50350057Y-51308094D01*
X50350057Y-51308094D02*
X50302438Y-51260475D01*
X50302438Y-51260475D02*
X50254819Y-51165237D01*
X31583333Y-46809819D02*
X31250000Y-46333628D01*
X31011905Y-46809819D02*
X31011905Y-45809819D01*
X31011905Y-45809819D02*
X31392857Y-45809819D01*
X31392857Y-45809819D02*
X31488095Y-45857438D01*
X31488095Y-45857438D02*
X31535714Y-45905057D01*
X31535714Y-45905057D02*
X31583333Y-46000295D01*
X31583333Y-46000295D02*
X31583333Y-46143152D01*
X31583333Y-46143152D02*
X31535714Y-46238390D01*
X31535714Y-46238390D02*
X31488095Y-46286009D01*
X31488095Y-46286009D02*
X31392857Y-46333628D01*
X31392857Y-46333628D02*
X31011905Y-46333628D01*
X32440476Y-45809819D02*
X32250000Y-45809819D01*
X32250000Y-45809819D02*
X32154762Y-45857438D01*
X32154762Y-45857438D02*
X32107143Y-45905057D01*
X32107143Y-45905057D02*
X32011905Y-46047914D01*
X32011905Y-46047914D02*
X31964286Y-46238390D01*
X31964286Y-46238390D02*
X31964286Y-46619342D01*
X31964286Y-46619342D02*
X32011905Y-46714580D01*
X32011905Y-46714580D02*
X32059524Y-46762200D01*
X32059524Y-46762200D02*
X32154762Y-46809819D01*
X32154762Y-46809819D02*
X32345238Y-46809819D01*
X32345238Y-46809819D02*
X32440476Y-46762200D01*
X32440476Y-46762200D02*
X32488095Y-46714580D01*
X32488095Y-46714580D02*
X32535714Y-46619342D01*
X32535714Y-46619342D02*
X32535714Y-46381247D01*
X32535714Y-46381247D02*
X32488095Y-46286009D01*
X32488095Y-46286009D02*
X32440476Y-46238390D01*
X32440476Y-46238390D02*
X32345238Y-46190771D01*
X32345238Y-46190771D02*
X32154762Y-46190771D01*
X32154762Y-46190771D02*
X32059524Y-46238390D01*
X32059524Y-46238390D02*
X32011905Y-46286009D01*
X32011905Y-46286009D02*
X31964286Y-46381247D01*
X31300057Y-53308094D02*
X31252438Y-53260475D01*
X31252438Y-53260475D02*
X31204819Y-53165237D01*
X31204819Y-53165237D02*
X31204819Y-52927142D01*
X31204819Y-52927142D02*
X31252438Y-52831904D01*
X31252438Y-52831904D02*
X31300057Y-52784285D01*
X31300057Y-52784285D02*
X31395295Y-52736666D01*
X31395295Y-52736666D02*
X31490533Y-52736666D01*
X31490533Y-52736666D02*
X31633390Y-52784285D01*
X31633390Y-52784285D02*
X32204819Y-53355713D01*
X32204819Y-53355713D02*
X32204819Y-52736666D01*
X31538152Y-51879523D02*
X32204819Y-51879523D01*
X31157200Y-52117618D02*
X31871485Y-52355713D01*
X31871485Y-52355713D02*
X31871485Y-51736666D01*
X31204819Y-51165237D02*
X31204819Y-51069999D01*
X31204819Y-51069999D02*
X31252438Y-50974761D01*
X31252438Y-50974761D02*
X31300057Y-50927142D01*
X31300057Y-50927142D02*
X31395295Y-50879523D01*
X31395295Y-50879523D02*
X31585771Y-50831904D01*
X31585771Y-50831904D02*
X31823866Y-50831904D01*
X31823866Y-50831904D02*
X32014342Y-50879523D01*
X32014342Y-50879523D02*
X32109580Y-50927142D01*
X32109580Y-50927142D02*
X32157200Y-50974761D01*
X32157200Y-50974761D02*
X32204819Y-51069999D01*
X32204819Y-51069999D02*
X32204819Y-51165237D01*
X32204819Y-51165237D02*
X32157200Y-51260475D01*
X32157200Y-51260475D02*
X32109580Y-51308094D01*
X32109580Y-51308094D02*
X32014342Y-51355713D01*
X32014342Y-51355713D02*
X31823866Y-51403332D01*
X31823866Y-51403332D02*
X31585771Y-51403332D01*
X31585771Y-51403332D02*
X31395295Y-51355713D01*
X31395295Y-51355713D02*
X31300057Y-51308094D01*
X31300057Y-51308094D02*
X31252438Y-51260475D01*
X31252438Y-51260475D02*
X31204819Y-51165237D01*
X65397142Y-46809819D02*
X65063809Y-46333628D01*
X64825714Y-46809819D02*
X64825714Y-45809819D01*
X64825714Y-45809819D02*
X65206666Y-45809819D01*
X65206666Y-45809819D02*
X65301904Y-45857438D01*
X65301904Y-45857438D02*
X65349523Y-45905057D01*
X65349523Y-45905057D02*
X65397142Y-46000295D01*
X65397142Y-46000295D02*
X65397142Y-46143152D01*
X65397142Y-46143152D02*
X65349523Y-46238390D01*
X65349523Y-46238390D02*
X65301904Y-46286009D01*
X65301904Y-46286009D02*
X65206666Y-46333628D01*
X65206666Y-46333628D02*
X64825714Y-46333628D01*
X66349523Y-46809819D02*
X65778095Y-46809819D01*
X66063809Y-46809819D02*
X66063809Y-45809819D01*
X66063809Y-45809819D02*
X65968571Y-45952676D01*
X65968571Y-45952676D02*
X65873333Y-46047914D01*
X65873333Y-46047914D02*
X65778095Y-46095533D01*
X67254285Y-45809819D02*
X66778095Y-45809819D01*
X66778095Y-45809819D02*
X66730476Y-46286009D01*
X66730476Y-46286009D02*
X66778095Y-46238390D01*
X66778095Y-46238390D02*
X66873333Y-46190771D01*
X66873333Y-46190771D02*
X67111428Y-46190771D01*
X67111428Y-46190771D02*
X67206666Y-46238390D01*
X67206666Y-46238390D02*
X67254285Y-46286009D01*
X67254285Y-46286009D02*
X67301904Y-46381247D01*
X67301904Y-46381247D02*
X67301904Y-46619342D01*
X67301904Y-46619342D02*
X67254285Y-46714580D01*
X67254285Y-46714580D02*
X67206666Y-46762200D01*
X67206666Y-46762200D02*
X67111428Y-46809819D01*
X67111428Y-46809819D02*
X66873333Y-46809819D01*
X66873333Y-46809819D02*
X66778095Y-46762200D01*
X66778095Y-46762200D02*
X66730476Y-46714580D01*
X66494819Y-52736666D02*
X66494819Y-53308094D01*
X66494819Y-53022380D02*
X65494819Y-53022380D01*
X65494819Y-53022380D02*
X65637676Y-53117618D01*
X65637676Y-53117618D02*
X65732914Y-53212856D01*
X65732914Y-53212856D02*
X65780533Y-53308094D01*
X65494819Y-52403332D02*
X65494819Y-51784285D01*
X65494819Y-51784285D02*
X65875771Y-52117618D01*
X65875771Y-52117618D02*
X65875771Y-51974761D01*
X65875771Y-51974761D02*
X65923390Y-51879523D01*
X65923390Y-51879523D02*
X65971009Y-51831904D01*
X65971009Y-51831904D02*
X66066247Y-51784285D01*
X66066247Y-51784285D02*
X66304342Y-51784285D01*
X66304342Y-51784285D02*
X66399580Y-51831904D01*
X66399580Y-51831904D02*
X66447200Y-51879523D01*
X66447200Y-51879523D02*
X66494819Y-51974761D01*
X66494819Y-51974761D02*
X66494819Y-52260475D01*
X66494819Y-52260475D02*
X66447200Y-52355713D01*
X66447200Y-52355713D02*
X66399580Y-52403332D01*
X65494819Y-51165237D02*
X65494819Y-51069999D01*
X65494819Y-51069999D02*
X65542438Y-50974761D01*
X65542438Y-50974761D02*
X65590057Y-50927142D01*
X65590057Y-50927142D02*
X65685295Y-50879523D01*
X65685295Y-50879523D02*
X65875771Y-50831904D01*
X65875771Y-50831904D02*
X66113866Y-50831904D01*
X66113866Y-50831904D02*
X66304342Y-50879523D01*
X66304342Y-50879523D02*
X66399580Y-50927142D01*
X66399580Y-50927142D02*
X66447200Y-50974761D01*
X66447200Y-50974761D02*
X66494819Y-51069999D01*
X66494819Y-51069999D02*
X66494819Y-51165237D01*
X66494819Y-51165237D02*
X66447200Y-51260475D01*
X66447200Y-51260475D02*
X66399580Y-51308094D01*
X66399580Y-51308094D02*
X66304342Y-51355713D01*
X66304342Y-51355713D02*
X66113866Y-51403332D01*
X66113866Y-51403332D02*
X65875771Y-51403332D01*
X65875771Y-51403332D02*
X65685295Y-51355713D01*
X65685295Y-51355713D02*
X65590057Y-51308094D01*
X65590057Y-51308094D02*
X65542438Y-51260475D01*
X65542438Y-51260475D02*
X65494819Y-51165237D01*
D13*
X36716667Y-37404318D02*
X36716667Y-38311461D01*
X36716667Y-38311461D02*
X36656190Y-38492889D01*
X36656190Y-38492889D02*
X36535238Y-38613842D01*
X36535238Y-38613842D02*
X36353809Y-38674318D01*
X36353809Y-38674318D02*
X36232857Y-38674318D01*
X37260952Y-37525270D02*
X37321428Y-37464794D01*
X37321428Y-37464794D02*
X37442381Y-37404318D01*
X37442381Y-37404318D02*
X37744762Y-37404318D01*
X37744762Y-37404318D02*
X37865714Y-37464794D01*
X37865714Y-37464794D02*
X37926190Y-37525270D01*
X37926190Y-37525270D02*
X37986667Y-37646222D01*
X37986667Y-37646222D02*
X37986667Y-37767175D01*
X37986667Y-37767175D02*
X37926190Y-37948603D01*
X37926190Y-37948603D02*
X37200476Y-38674318D01*
X37200476Y-38674318D02*
X37986667Y-38674318D01*
D12*
X51254819Y-71810476D02*
X50778628Y-72143809D01*
X51254819Y-72381904D02*
X50254819Y-72381904D01*
X50254819Y-72381904D02*
X50254819Y-72000952D01*
X50254819Y-72000952D02*
X50302438Y-71905714D01*
X50302438Y-71905714D02*
X50350057Y-71858095D01*
X50350057Y-71858095D02*
X50445295Y-71810476D01*
X50445295Y-71810476D02*
X50588152Y-71810476D01*
X50588152Y-71810476D02*
X50683390Y-71858095D01*
X50683390Y-71858095D02*
X50731009Y-71905714D01*
X50731009Y-71905714D02*
X50778628Y-72000952D01*
X50778628Y-72000952D02*
X50778628Y-72381904D01*
X51254819Y-71381904D02*
X50254819Y-71381904D01*
X50254819Y-71381904D02*
X51254819Y-70810476D01*
X51254819Y-70810476D02*
X50254819Y-70810476D01*
X50350057Y-70381904D02*
X50302438Y-70334285D01*
X50302438Y-70334285D02*
X50254819Y-70239047D01*
X50254819Y-70239047D02*
X50254819Y-70000952D01*
X50254819Y-70000952D02*
X50302438Y-69905714D01*
X50302438Y-69905714D02*
X50350057Y-69858095D01*
X50350057Y-69858095D02*
X50445295Y-69810476D01*
X50445295Y-69810476D02*
X50540533Y-69810476D01*
X50540533Y-69810476D02*
X50683390Y-69858095D01*
X50683390Y-69858095D02*
X51254819Y-70429523D01*
X51254819Y-70429523D02*
X51254819Y-69810476D01*
X51887619Y-73114819D02*
X52506666Y-73114819D01*
X52506666Y-73114819D02*
X52173333Y-73495771D01*
X52173333Y-73495771D02*
X52316190Y-73495771D01*
X52316190Y-73495771D02*
X52411428Y-73543390D01*
X52411428Y-73543390D02*
X52459047Y-73591009D01*
X52459047Y-73591009D02*
X52506666Y-73686247D01*
X52506666Y-73686247D02*
X52506666Y-73924342D01*
X52506666Y-73924342D02*
X52459047Y-74019580D01*
X52459047Y-74019580D02*
X52411428Y-74067200D01*
X52411428Y-74067200D02*
X52316190Y-74114819D01*
X52316190Y-74114819D02*
X52030476Y-74114819D01*
X52030476Y-74114819D02*
X51935238Y-74067200D01*
X51935238Y-74067200D02*
X51887619Y-74019580D01*
X52935238Y-74019580D02*
X52982857Y-74067200D01*
X52982857Y-74067200D02*
X52935238Y-74114819D01*
X52935238Y-74114819D02*
X52887619Y-74067200D01*
X52887619Y-74067200D02*
X52935238Y-74019580D01*
X52935238Y-74019580D02*
X52935238Y-74114819D01*
X53459047Y-74114819D02*
X53649523Y-74114819D01*
X53649523Y-74114819D02*
X53744761Y-74067200D01*
X53744761Y-74067200D02*
X53792380Y-74019580D01*
X53792380Y-74019580D02*
X53887618Y-73876723D01*
X53887618Y-73876723D02*
X53935237Y-73686247D01*
X53935237Y-73686247D02*
X53935237Y-73305295D01*
X53935237Y-73305295D02*
X53887618Y-73210057D01*
X53887618Y-73210057D02*
X53839999Y-73162438D01*
X53839999Y-73162438D02*
X53744761Y-73114819D01*
X53744761Y-73114819D02*
X53554285Y-73114819D01*
X53554285Y-73114819D02*
X53459047Y-73162438D01*
X53459047Y-73162438D02*
X53411428Y-73210057D01*
X53411428Y-73210057D02*
X53363809Y-73305295D01*
X53363809Y-73305295D02*
X53363809Y-73543390D01*
X53363809Y-73543390D02*
X53411428Y-73638628D01*
X53411428Y-73638628D02*
X53459047Y-73686247D01*
X53459047Y-73686247D02*
X53554285Y-73733866D01*
X53554285Y-73733866D02*
X53744761Y-73733866D01*
X53744761Y-73733866D02*
X53839999Y-73686247D01*
X53839999Y-73686247D02*
X53887618Y-73638628D01*
X53887618Y-73638628D02*
X53935237Y-73543390D01*
X54363809Y-74114819D02*
X54363809Y-73114819D01*
X54459047Y-73733866D02*
X54744761Y-74114819D01*
X54744761Y-73448152D02*
X54363809Y-73829104D01*
X35393333Y-46809819D02*
X35060000Y-46333628D01*
X34821905Y-46809819D02*
X34821905Y-45809819D01*
X34821905Y-45809819D02*
X35202857Y-45809819D01*
X35202857Y-45809819D02*
X35298095Y-45857438D01*
X35298095Y-45857438D02*
X35345714Y-45905057D01*
X35345714Y-45905057D02*
X35393333Y-46000295D01*
X35393333Y-46000295D02*
X35393333Y-46143152D01*
X35393333Y-46143152D02*
X35345714Y-46238390D01*
X35345714Y-46238390D02*
X35298095Y-46286009D01*
X35298095Y-46286009D02*
X35202857Y-46333628D01*
X35202857Y-46333628D02*
X34821905Y-46333628D01*
X35726667Y-45809819D02*
X36393333Y-45809819D01*
X36393333Y-45809819D02*
X35964762Y-46809819D01*
X35014819Y-52784285D02*
X35014819Y-53260475D01*
X35014819Y-53260475D02*
X35491009Y-53308094D01*
X35491009Y-53308094D02*
X35443390Y-53260475D01*
X35443390Y-53260475D02*
X35395771Y-53165237D01*
X35395771Y-53165237D02*
X35395771Y-52927142D01*
X35395771Y-52927142D02*
X35443390Y-52831904D01*
X35443390Y-52831904D02*
X35491009Y-52784285D01*
X35491009Y-52784285D02*
X35586247Y-52736666D01*
X35586247Y-52736666D02*
X35824342Y-52736666D01*
X35824342Y-52736666D02*
X35919580Y-52784285D01*
X35919580Y-52784285D02*
X35967200Y-52831904D01*
X35967200Y-52831904D02*
X36014819Y-52927142D01*
X36014819Y-52927142D02*
X36014819Y-53165237D01*
X36014819Y-53165237D02*
X35967200Y-53260475D01*
X35967200Y-53260475D02*
X35919580Y-53308094D01*
X36014819Y-51784285D02*
X36014819Y-52355713D01*
X36014819Y-52069999D02*
X35014819Y-52069999D01*
X35014819Y-52069999D02*
X35157676Y-52165237D01*
X35157676Y-52165237D02*
X35252914Y-52260475D01*
X35252914Y-52260475D02*
X35300533Y-52355713D01*
X35014819Y-51165237D02*
X35014819Y-51069999D01*
X35014819Y-51069999D02*
X35062438Y-50974761D01*
X35062438Y-50974761D02*
X35110057Y-50927142D01*
X35110057Y-50927142D02*
X35205295Y-50879523D01*
X35205295Y-50879523D02*
X35395771Y-50831904D01*
X35395771Y-50831904D02*
X35633866Y-50831904D01*
X35633866Y-50831904D02*
X35824342Y-50879523D01*
X35824342Y-50879523D02*
X35919580Y-50927142D01*
X35919580Y-50927142D02*
X35967200Y-50974761D01*
X35967200Y-50974761D02*
X36014819Y-51069999D01*
X36014819Y-51069999D02*
X36014819Y-51165237D01*
X36014819Y-51165237D02*
X35967200Y-51260475D01*
X35967200Y-51260475D02*
X35919580Y-51308094D01*
X35919580Y-51308094D02*
X35824342Y-51355713D01*
X35824342Y-51355713D02*
X35633866Y-51403332D01*
X35633866Y-51403332D02*
X35395771Y-51403332D01*
X35395771Y-51403332D02*
X35205295Y-51355713D01*
X35205295Y-51355713D02*
X35110057Y-51308094D01*
X35110057Y-51308094D02*
X35062438Y-51260475D01*
X35062438Y-51260475D02*
X35014819Y-51165237D01*
X61587142Y-46809819D02*
X61253809Y-46333628D01*
X61015714Y-46809819D02*
X61015714Y-45809819D01*
X61015714Y-45809819D02*
X61396666Y-45809819D01*
X61396666Y-45809819D02*
X61491904Y-45857438D01*
X61491904Y-45857438D02*
X61539523Y-45905057D01*
X61539523Y-45905057D02*
X61587142Y-46000295D01*
X61587142Y-46000295D02*
X61587142Y-46143152D01*
X61587142Y-46143152D02*
X61539523Y-46238390D01*
X61539523Y-46238390D02*
X61491904Y-46286009D01*
X61491904Y-46286009D02*
X61396666Y-46333628D01*
X61396666Y-46333628D02*
X61015714Y-46333628D01*
X62539523Y-46809819D02*
X61968095Y-46809819D01*
X62253809Y-46809819D02*
X62253809Y-45809819D01*
X62253809Y-45809819D02*
X62158571Y-45952676D01*
X62158571Y-45952676D02*
X62063333Y-46047914D01*
X62063333Y-46047914D02*
X61968095Y-46095533D01*
X63396666Y-46143152D02*
X63396666Y-46809819D01*
X63158571Y-45762200D02*
X62920476Y-46476485D01*
X62920476Y-46476485D02*
X63539523Y-46476485D01*
X62684819Y-52736666D02*
X62684819Y-53308094D01*
X62684819Y-53022380D02*
X61684819Y-53022380D01*
X61684819Y-53022380D02*
X61827676Y-53117618D01*
X61827676Y-53117618D02*
X61922914Y-53212856D01*
X61922914Y-53212856D02*
X61970533Y-53308094D01*
X61684819Y-52403332D02*
X61684819Y-51784285D01*
X61684819Y-51784285D02*
X62065771Y-52117618D01*
X62065771Y-52117618D02*
X62065771Y-51974761D01*
X62065771Y-51974761D02*
X62113390Y-51879523D01*
X62113390Y-51879523D02*
X62161009Y-51831904D01*
X62161009Y-51831904D02*
X62256247Y-51784285D01*
X62256247Y-51784285D02*
X62494342Y-51784285D01*
X62494342Y-51784285D02*
X62589580Y-51831904D01*
X62589580Y-51831904D02*
X62637200Y-51879523D01*
X62637200Y-51879523D02*
X62684819Y-51974761D01*
X62684819Y-51974761D02*
X62684819Y-52260475D01*
X62684819Y-52260475D02*
X62637200Y-52355713D01*
X62637200Y-52355713D02*
X62589580Y-52403332D01*
X61684819Y-51165237D02*
X61684819Y-51069999D01*
X61684819Y-51069999D02*
X61732438Y-50974761D01*
X61732438Y-50974761D02*
X61780057Y-50927142D01*
X61780057Y-50927142D02*
X61875295Y-50879523D01*
X61875295Y-50879523D02*
X62065771Y-50831904D01*
X62065771Y-50831904D02*
X62303866Y-50831904D01*
X62303866Y-50831904D02*
X62494342Y-50879523D01*
X62494342Y-50879523D02*
X62589580Y-50927142D01*
X62589580Y-50927142D02*
X62637200Y-50974761D01*
X62637200Y-50974761D02*
X62684819Y-51069999D01*
X62684819Y-51069999D02*
X62684819Y-51165237D01*
X62684819Y-51165237D02*
X62637200Y-51260475D01*
X62637200Y-51260475D02*
X62589580Y-51308094D01*
X62589580Y-51308094D02*
X62494342Y-51355713D01*
X62494342Y-51355713D02*
X62303866Y-51403332D01*
X62303866Y-51403332D02*
X62065771Y-51403332D01*
X62065771Y-51403332D02*
X61875295Y-51355713D01*
X61875295Y-51355713D02*
X61780057Y-51308094D01*
X61780057Y-51308094D02*
X61732438Y-51260475D01*
X61732438Y-51260475D02*
X61684819Y-51165237D01*
X38963333Y-46809819D02*
X38630000Y-46333628D01*
X38391905Y-46809819D02*
X38391905Y-45809819D01*
X38391905Y-45809819D02*
X38772857Y-45809819D01*
X38772857Y-45809819D02*
X38868095Y-45857438D01*
X38868095Y-45857438D02*
X38915714Y-45905057D01*
X38915714Y-45905057D02*
X38963333Y-46000295D01*
X38963333Y-46000295D02*
X38963333Y-46143152D01*
X38963333Y-46143152D02*
X38915714Y-46238390D01*
X38915714Y-46238390D02*
X38868095Y-46286009D01*
X38868095Y-46286009D02*
X38772857Y-46333628D01*
X38772857Y-46333628D02*
X38391905Y-46333628D01*
X39534762Y-46238390D02*
X39439524Y-46190771D01*
X39439524Y-46190771D02*
X39391905Y-46143152D01*
X39391905Y-46143152D02*
X39344286Y-46047914D01*
X39344286Y-46047914D02*
X39344286Y-46000295D01*
X39344286Y-46000295D02*
X39391905Y-45905057D01*
X39391905Y-45905057D02*
X39439524Y-45857438D01*
X39439524Y-45857438D02*
X39534762Y-45809819D01*
X39534762Y-45809819D02*
X39725238Y-45809819D01*
X39725238Y-45809819D02*
X39820476Y-45857438D01*
X39820476Y-45857438D02*
X39868095Y-45905057D01*
X39868095Y-45905057D02*
X39915714Y-46000295D01*
X39915714Y-46000295D02*
X39915714Y-46047914D01*
X39915714Y-46047914D02*
X39868095Y-46143152D01*
X39868095Y-46143152D02*
X39820476Y-46190771D01*
X39820476Y-46190771D02*
X39725238Y-46238390D01*
X39725238Y-46238390D02*
X39534762Y-46238390D01*
X39534762Y-46238390D02*
X39439524Y-46286009D01*
X39439524Y-46286009D02*
X39391905Y-46333628D01*
X39391905Y-46333628D02*
X39344286Y-46428866D01*
X39344286Y-46428866D02*
X39344286Y-46619342D01*
X39344286Y-46619342D02*
X39391905Y-46714580D01*
X39391905Y-46714580D02*
X39439524Y-46762200D01*
X39439524Y-46762200D02*
X39534762Y-46809819D01*
X39534762Y-46809819D02*
X39725238Y-46809819D01*
X39725238Y-46809819D02*
X39820476Y-46762200D01*
X39820476Y-46762200D02*
X39868095Y-46714580D01*
X39868095Y-46714580D02*
X39915714Y-46619342D01*
X39915714Y-46619342D02*
X39915714Y-46428866D01*
X39915714Y-46428866D02*
X39868095Y-46333628D01*
X39868095Y-46333628D02*
X39820476Y-46286009D01*
X39820476Y-46286009D02*
X39725238Y-46238390D01*
X38680057Y-53308094D02*
X38632438Y-53260475D01*
X38632438Y-53260475D02*
X38584819Y-53165237D01*
X38584819Y-53165237D02*
X38584819Y-52927142D01*
X38584819Y-52927142D02*
X38632438Y-52831904D01*
X38632438Y-52831904D02*
X38680057Y-52784285D01*
X38680057Y-52784285D02*
X38775295Y-52736666D01*
X38775295Y-52736666D02*
X38870533Y-52736666D01*
X38870533Y-52736666D02*
X39013390Y-52784285D01*
X39013390Y-52784285D02*
X39584819Y-53355713D01*
X39584819Y-53355713D02*
X39584819Y-52736666D01*
X38918152Y-51879523D02*
X39584819Y-51879523D01*
X38537200Y-52117618D02*
X39251485Y-52355713D01*
X39251485Y-52355713D02*
X39251485Y-51736666D01*
X38584819Y-51165237D02*
X38584819Y-51069999D01*
X38584819Y-51069999D02*
X38632438Y-50974761D01*
X38632438Y-50974761D02*
X38680057Y-50927142D01*
X38680057Y-50927142D02*
X38775295Y-50879523D01*
X38775295Y-50879523D02*
X38965771Y-50831904D01*
X38965771Y-50831904D02*
X39203866Y-50831904D01*
X39203866Y-50831904D02*
X39394342Y-50879523D01*
X39394342Y-50879523D02*
X39489580Y-50927142D01*
X39489580Y-50927142D02*
X39537200Y-50974761D01*
X39537200Y-50974761D02*
X39584819Y-51069999D01*
X39584819Y-51069999D02*
X39584819Y-51165237D01*
X39584819Y-51165237D02*
X39537200Y-51260475D01*
X39537200Y-51260475D02*
X39489580Y-51308094D01*
X39489580Y-51308094D02*
X39394342Y-51355713D01*
X39394342Y-51355713D02*
X39203866Y-51403332D01*
X39203866Y-51403332D02*
X38965771Y-51403332D01*
X38965771Y-51403332D02*
X38775295Y-51355713D01*
X38775295Y-51355713D02*
X38680057Y-51308094D01*
X38680057Y-51308094D02*
X38632438Y-51260475D01*
X38632438Y-51260475D02*
X38584819Y-51165237D01*
D14*
%TO.C,J4*%
X31623000Y-62925000D02*
X39303000Y-62925000D01*
X31623000Y-62925000D02*
X31623000Y-60265000D01*
X39303000Y-62925000D02*
X39303000Y-60265000D01*
X29023000Y-61595000D02*
X29023000Y-60265000D01*
X29023000Y-60265000D02*
X30353000Y-60265000D01*
X31623000Y-60265000D02*
X39303000Y-60265000D01*
%TO.C,J3*%
X69723000Y-60265000D02*
X51883000Y-60265000D01*
X69723000Y-60265000D02*
X69723000Y-62925000D01*
X51883000Y-60265000D02*
X51883000Y-62925000D01*
X72323000Y-61595000D02*
X72323000Y-62925000D01*
X72323000Y-62925000D02*
X70993000Y-62925000D01*
X69723000Y-62925000D02*
X51883000Y-62925000D01*
%TO.C,J1*%
X29150000Y-85150000D02*
X29150000Y-83820000D01*
X30480000Y-85150000D02*
X29150000Y-85150000D01*
X31750000Y-85150000D02*
X80070000Y-85150000D01*
X31750000Y-85150000D02*
X31750000Y-82550000D01*
X80070000Y-85150000D02*
X80070000Y-79950000D01*
X29150000Y-82550000D02*
X29150000Y-79950000D01*
X31750000Y-82550000D02*
X29150000Y-82550000D01*
X29150000Y-79950000D02*
X80070000Y-79950000D01*
%TO.C,R10*%
X48360000Y-48800000D02*
X48360000Y-55340000D01*
X48030000Y-48800000D02*
X48360000Y-48800000D01*
X45950000Y-48800000D02*
X45620000Y-48800000D01*
X45620000Y-48800000D02*
X45620000Y-55340000D01*
X48360000Y-55340000D02*
X48030000Y-55340000D01*
X45620000Y-55340000D02*
X45950000Y-55340000D01*
%TO.C,LS1*%
X82300000Y-50800000D02*
G75*
G02*
X70100000Y-50800000I-6100000J0D01*
G01*
X70100000Y-50800000D02*
G75*
G02*
X82300000Y-50800000I6100000J0D01*
G01*
%TO.C,R1*%
X78840000Y-67850000D02*
X78840000Y-74390000D01*
X78510000Y-67850000D02*
X78840000Y-67850000D01*
X76430000Y-67850000D02*
X76100000Y-67850000D01*
X76100000Y-67850000D02*
X76100000Y-74390000D01*
X78840000Y-74390000D02*
X78510000Y-74390000D01*
X76100000Y-74390000D02*
X76430000Y-74390000D01*
%TO.C,RN1*%
X27770000Y-69720000D02*
X27770000Y-72520000D01*
X27770000Y-72520000D02*
X48430000Y-72520000D01*
X30480000Y-69720000D02*
X30480000Y-72520000D01*
X48430000Y-69720000D02*
X27770000Y-69720000D01*
X48430000Y-72520000D02*
X48430000Y-69720000D01*
%TO.C,R9*%
X44550000Y-48800000D02*
X44550000Y-55340000D01*
X44220000Y-48800000D02*
X44550000Y-48800000D01*
X42140000Y-48800000D02*
X41810000Y-48800000D01*
X41810000Y-48800000D02*
X41810000Y-55340000D01*
X44550000Y-55340000D02*
X44220000Y-55340000D01*
X41810000Y-55340000D02*
X42140000Y-55340000D01*
%TO.C,R12*%
X55980000Y-48800000D02*
X55980000Y-55340000D01*
X55650000Y-48800000D02*
X55980000Y-48800000D01*
X53570000Y-48800000D02*
X53240000Y-48800000D01*
X53240000Y-48800000D02*
X53240000Y-55340000D01*
X55980000Y-55340000D02*
X55650000Y-55340000D01*
X53240000Y-55340000D02*
X53570000Y-55340000D01*
%TO.C,R13*%
X59790000Y-48800000D02*
X59790000Y-55340000D01*
X59460000Y-48800000D02*
X59790000Y-48800000D01*
X57380000Y-48800000D02*
X57050000Y-48800000D01*
X57050000Y-48800000D02*
X57050000Y-55340000D01*
X59790000Y-55340000D02*
X59460000Y-55340000D01*
X57050000Y-55340000D02*
X57380000Y-55340000D01*
%TO.C,R5*%
X29310000Y-48800000D02*
X29310000Y-55340000D01*
X28980000Y-48800000D02*
X29310000Y-48800000D01*
X26900000Y-48800000D02*
X26570000Y-48800000D01*
X26570000Y-48800000D02*
X26570000Y-55340000D01*
X29310000Y-55340000D02*
X28980000Y-55340000D01*
X26570000Y-55340000D02*
X26900000Y-55340000D01*
%TO.C,R11*%
X52170000Y-48800000D02*
X52170000Y-55340000D01*
X51840000Y-48800000D02*
X52170000Y-48800000D01*
X49760000Y-48800000D02*
X49430000Y-48800000D01*
X49430000Y-48800000D02*
X49430000Y-55340000D01*
X52170000Y-55340000D02*
X51840000Y-55340000D01*
X49430000Y-55340000D02*
X49760000Y-55340000D01*
%TO.C,R6*%
X33120000Y-48800000D02*
X33120000Y-55340000D01*
X32790000Y-48800000D02*
X33120000Y-48800000D01*
X30710000Y-48800000D02*
X30380000Y-48800000D01*
X30380000Y-48800000D02*
X30380000Y-55340000D01*
X33120000Y-55340000D02*
X32790000Y-55340000D01*
X30380000Y-55340000D02*
X30710000Y-55340000D01*
%TO.C,R15*%
X67410000Y-48800000D02*
X67080000Y-48800000D01*
X64670000Y-48800000D02*
X65000000Y-48800000D01*
X67410000Y-55340000D02*
X67410000Y-48800000D01*
X67080000Y-55340000D02*
X67410000Y-55340000D01*
X65000000Y-55340000D02*
X64670000Y-55340000D01*
X64670000Y-55340000D02*
X64670000Y-48800000D01*
D10*
%TO.C,J2*%
X39210000Y-41700000D02*
X70010000Y-41700000D01*
X70010000Y-41700000D02*
X70010000Y-25400000D01*
X39210000Y-25400000D02*
X39210000Y-41700000D01*
X46460000Y-25400000D02*
X39210000Y-25400000D01*
X62760000Y-25400000D02*
X62760000Y-19400000D01*
X70010000Y-25400000D02*
X62760000Y-25400000D01*
X46460000Y-19400000D02*
X46460000Y-25400000D01*
X62760000Y-19400000D02*
X46460000Y-19400000D01*
X50760000Y-42729000D02*
G75*
G02*
X50550000Y-42729000I-105000J0D01*
G01*
X50550000Y-42729000D02*
G75*
G02*
X50760000Y-42729000I105000J0D01*
G01*
D14*
%TO.C,RN2*%
X51900000Y-69720000D02*
X51900000Y-72520000D01*
X51900000Y-72520000D02*
X72560000Y-72520000D01*
X54610000Y-69720000D02*
X54610000Y-72520000D01*
X72560000Y-69720000D02*
X51900000Y-69720000D01*
X72560000Y-72520000D02*
X72560000Y-69720000D01*
%TO.C,R7*%
X36930000Y-48800000D02*
X36930000Y-55340000D01*
X36600000Y-48800000D02*
X36930000Y-48800000D01*
X34520000Y-48800000D02*
X34190000Y-48800000D01*
X34190000Y-48800000D02*
X34190000Y-55340000D01*
X36930000Y-55340000D02*
X36600000Y-55340000D01*
X34190000Y-55340000D02*
X34520000Y-55340000D01*
%TO.C,R14*%
X63600000Y-48800000D02*
X63600000Y-55340000D01*
X63270000Y-48800000D02*
X63600000Y-48800000D01*
X61190000Y-48800000D02*
X60860000Y-48800000D01*
X60860000Y-48800000D02*
X60860000Y-55340000D01*
X63600000Y-55340000D02*
X63270000Y-55340000D01*
X60860000Y-55340000D02*
X61190000Y-55340000D01*
%TO.C,R8*%
X40500000Y-48800000D02*
X40500000Y-55340000D01*
X40170000Y-48800000D02*
X40500000Y-48800000D01*
X38090000Y-48800000D02*
X37760000Y-48800000D01*
X37760000Y-48800000D02*
X37760000Y-55340000D01*
X40500000Y-55340000D02*
X40170000Y-55340000D01*
X37760000Y-55340000D02*
X38090000Y-55340000D01*
%TD*%
M02*
