%TF.GenerationSoftware,KiCad,Pcbnew,8.0.2*%
%TF.CreationDate,2025-02-23T18:43:33+01:00*%
%TF.ProjectId,propeller-40k-testhat,70726f70-656c-46c6-9572-2d34306b2d74,0*%
%TF.SameCoordinates,Original*%
%TF.FileFunction,Copper,L1,Top*%
%TF.FilePolarity,Positive*%
%FSLAX46Y46*%
G04 Gerber Fmt 4.6, Leading zero omitted, Abs format (unit mm)*
G04 Created by KiCad (PCBNEW 8.0.2) date 2025-02-23 18:43:33*
%MOMM*%
%LPD*%
G01*
G04 APERTURE LIST*
%TA.AperFunction,ComponentPad*%
%ADD10R,1.700000X1.700000*%
%TD*%
%TA.AperFunction,ComponentPad*%
%ADD11O,1.700000X1.700000*%
%TD*%
%TA.AperFunction,ComponentPad*%
%ADD12C,1.600000*%
%TD*%
%TA.AperFunction,ComponentPad*%
%ADD13O,1.600000X1.600000*%
%TD*%
%TA.AperFunction,ComponentPad*%
%ADD14R,1.600000X1.600000*%
%TD*%
%TA.AperFunction,ComponentPad*%
%ADD15C,1.550000*%
%TD*%
%TA.AperFunction,ComponentPad*%
%ADD16C,4.800000*%
%TD*%
%TA.AperFunction,Conductor*%
%ADD17C,0.200000*%
%TD*%
G04 APERTURE END LIST*
D10*
%TO.P,J4,1,Pin_1*%
%TO.N,+3V3*%
X30353000Y-61595000D03*
D11*
%TO.P,J4,2,Pin_2*%
%TO.N,REC*%
X32893000Y-61595000D03*
%TO.P,J4,3,Pin_3*%
%TO.N,ACK*%
X35433000Y-61595000D03*
%TO.P,J4,4,Pin_4*%
%TO.N,GND*%
X37973000Y-61595000D03*
%TD*%
D10*
%TO.P,J3,1,Pin_1*%
%TO.N,BF0*%
X70993000Y-61595000D03*
D11*
%TO.P,J3,2,Pin_2*%
%TO.N,BF1*%
X68453000Y-61595000D03*
%TO.P,J3,3,Pin_3*%
%TO.N,BF2*%
X65913000Y-61595000D03*
%TO.P,J3,4,Pin_4*%
%TO.N,BF3*%
X63373000Y-61595000D03*
%TO.P,J3,5,Pin_5*%
%TO.N,BF4*%
X60833000Y-61595000D03*
%TO.P,J3,6,Pin_6*%
%TO.N,BF5*%
X58293000Y-61595000D03*
%TO.P,J3,7,Pin_7*%
%TO.N,BF6*%
X55753000Y-61595000D03*
%TO.P,J3,8,Pin_8*%
%TO.N,BF7*%
X53213000Y-61595000D03*
%TD*%
D10*
%TO.P,J1,1,Pin_1*%
%TO.N,Net-(J1-Pin_1)*%
X30480000Y-83820000D03*
D11*
%TO.P,J1,2,Pin_2*%
%TO.N,Net-(J1-Pin_2)*%
X30480000Y-81280000D03*
%TO.P,J1,3,Pin_3*%
%TO.N,Net-(J1-Pin_3)*%
X33020000Y-83820000D03*
%TO.P,J1,4,Pin_4*%
%TO.N,Net-(J1-Pin_4)*%
X33020000Y-81280000D03*
%TO.P,J1,5,Pin_5*%
%TO.N,Net-(J1-Pin_5)*%
X35560000Y-83820000D03*
%TO.P,J1,6,Pin_6*%
%TO.N,Net-(J1-Pin_6)*%
X35560000Y-81280000D03*
%TO.P,J1,7,Pin_7*%
%TO.N,Net-(J1-Pin_7)*%
X38100000Y-83820000D03*
%TO.P,J1,8,Pin_8*%
%TO.N,Net-(J1-Pin_8)*%
X38100000Y-81280000D03*
%TO.P,J1,9,Pin_9*%
%TO.N,Net-(J1-Pin_9)*%
X40640000Y-83820000D03*
%TO.P,J1,10,Pin_10*%
%TO.N,ACK*%
X40640000Y-81280000D03*
%TO.P,J1,11,Pin_11*%
%TO.N,unconnected-(J1-Pin_11-Pad11)*%
X43180000Y-83820000D03*
%TO.P,J1,12,Pin_12*%
%TO.N,unconnected-(J1-Pin_12-Pad12)*%
X43180000Y-81280000D03*
%TO.P,J1,13,Pin_13*%
%TO.N,unconnected-(J1-Pin_13-Pad13)*%
X45720000Y-83820000D03*
%TO.P,J1,14,Pin_14*%
%TO.N,unconnected-(J1-Pin_14-Pad14)*%
X45720000Y-81280000D03*
%TO.P,J1,15,Pin_15*%
%TO.N,P14*%
X48260000Y-83820000D03*
%TO.P,J1,16,Pin_16*%
%TO.N,P15*%
X48260000Y-81280000D03*
%TO.P,J1,17,Pin_17*%
%TO.N,P16*%
X50800000Y-83820000D03*
%TO.P,J1,18,Pin_18*%
%TO.N,P17*%
X50800000Y-81280000D03*
%TO.P,J1,19,Pin_19*%
%TO.N,P18*%
X53340000Y-83820000D03*
%TO.P,J1,20,Pin_20*%
%TO.N,P19*%
X53340000Y-81280000D03*
%TO.P,J1,21,Pin_21*%
%TO.N,P20*%
X55880000Y-83820000D03*
%TO.P,J1,22,Pin_22*%
%TO.N,P21*%
X55880000Y-81280000D03*
%TO.P,J1,23,Pin_23*%
%TO.N,P22*%
X58420000Y-83820000D03*
%TO.P,J1,24,Pin_24*%
%TO.N,P23*%
X58420000Y-81280000D03*
%TO.P,J1,25,Pin_25*%
%TO.N,unconnected-(J1-Pin_25-Pad25)*%
X60960000Y-83820000D03*
%TO.P,J1,26,Pin_26*%
%TO.N,unconnected-(J1-Pin_26-Pad26)*%
X60960000Y-81280000D03*
%TO.P,J1,27,Pin_27*%
%TO.N,unconnected-(J1-Pin_27-Pad27)*%
X63500000Y-83820000D03*
%TO.P,J1,28,Pin_28*%
%TO.N,unconnected-(J1-Pin_28-Pad28)*%
X63500000Y-81280000D03*
%TO.P,J1,29,Pin_29*%
%TO.N,unconnected-(J1-Pin_29-Pad29)*%
X66040000Y-83820000D03*
%TO.P,J1,30,Pin_30*%
%TO.N,unconnected-(J1-Pin_30-Pad30)*%
X66040000Y-81280000D03*
%TO.P,J1,31,Pin_31*%
%TO.N,unconnected-(J1-Pin_31-Pad31)*%
X68580000Y-83820000D03*
%TO.P,J1,32,Pin_32*%
%TO.N,unconnected-(J1-Pin_32-Pad32)*%
X68580000Y-81280000D03*
%TO.P,J1,33,Pin_33*%
%TO.N,unconnected-(J1-Pin_33-Pad33)*%
X71120000Y-83820000D03*
%TO.P,J1,34,Pin_34*%
%TO.N,unconnected-(J1-Pin_34-Pad34)*%
X71120000Y-81280000D03*
%TO.P,J1,35,Pin_35*%
%TO.N,unconnected-(J1-Pin_35-Pad35)*%
X73660000Y-83820000D03*
%TO.P,J1,36,Pin_36*%
%TO.N,unconnected-(J1-Pin_36-Pad36)*%
X73660000Y-81280000D03*
%TO.P,J1,37,Pin_37*%
%TO.N,unconnected-(J1-Pin_37-Pad37)*%
X76200000Y-83820000D03*
%TO.P,J1,38,Pin_38*%
%TO.N,unconnected-(J1-Pin_38-Pad38)*%
X76200000Y-81280000D03*
%TO.P,J1,39,Pin_39*%
%TO.N,unconnected-(J1-Pin_39-Pad39)*%
X78740000Y-83820000D03*
%TO.P,J1,40,Pin_40*%
%TO.N,unconnected-(J1-Pin_40-Pad40)*%
X78740000Y-81280000D03*
%TD*%
D12*
%TO.P,R10,1*%
%TO.N,P21*%
X46990000Y-48260000D03*
D13*
%TO.P,R10,2*%
%TO.N,G*%
X46990000Y-55880000D03*
%TD*%
D14*
%TO.P,LS1,1,1*%
%TO.N,P14*%
X72400000Y-50800000D03*
D12*
%TO.P,LS1,2,2*%
%TO.N,P15*%
X80000000Y-50800000D03*
%TD*%
%TO.P,R1,1*%
%TO.N,REC*%
X77470000Y-67310000D03*
D13*
%TO.P,R1,2*%
%TO.N,Net-(J1-Pin_9)*%
X77470000Y-74930000D03*
%TD*%
D14*
%TO.P,RN1,1,R1.1*%
%TO.N,BF0*%
X29210000Y-71120000D03*
D13*
%TO.P,RN1,2,R1.2*%
%TO.N,Net-(J1-Pin_1)*%
X31750000Y-71120000D03*
%TO.P,RN1,3,R2.1*%
%TO.N,BF1*%
X34290000Y-71120000D03*
%TO.P,RN1,4,R2.2*%
%TO.N,Net-(J1-Pin_2)*%
X36830000Y-71120000D03*
%TO.P,RN1,5,R3.1*%
%TO.N,BF2*%
X39370000Y-71120000D03*
%TO.P,RN1,6,R3.2*%
%TO.N,Net-(J1-Pin_3)*%
X41910000Y-71120000D03*
%TO.P,RN1,7,R4.1*%
%TO.N,BF3*%
X44450000Y-71120000D03*
%TO.P,RN1,8,R4.2*%
%TO.N,Net-(J1-Pin_4)*%
X46990000Y-71120000D03*
%TD*%
D12*
%TO.P,R9,1*%
%TO.N,P20*%
X43180000Y-48260000D03*
D13*
%TO.P,R9,2*%
%TO.N,G*%
X43180000Y-55880000D03*
%TD*%
D12*
%TO.P,R12,1*%
%TO.N,P23*%
X54610000Y-48260000D03*
D13*
%TO.P,R12,2*%
%TO.N,R*%
X54610000Y-55880000D03*
%TD*%
D12*
%TO.P,R13,1*%
%TO.N,B*%
X58420000Y-48260000D03*
D13*
%TO.P,R13,2*%
%TO.N,GND*%
X58420000Y-55880000D03*
%TD*%
D12*
%TO.P,R5,1*%
%TO.N,P16*%
X27940000Y-48260000D03*
D13*
%TO.P,R5,2*%
%TO.N,VSYNC*%
X27940000Y-55880000D03*
%TD*%
D12*
%TO.P,R11,1*%
%TO.N,P22*%
X50800000Y-48260000D03*
D13*
%TO.P,R11,2*%
%TO.N,R*%
X50800000Y-55880000D03*
%TD*%
D12*
%TO.P,R6,1*%
%TO.N,P17*%
X31750000Y-48260000D03*
D13*
%TO.P,R6,2*%
%TO.N,HSYNC*%
X31750000Y-55880000D03*
%TD*%
D12*
%TO.P,R15,1*%
%TO.N,R*%
X66040000Y-55880000D03*
D13*
%TO.P,R15,2*%
%TO.N,GND*%
X66040000Y-48260000D03*
%TD*%
D15*
%TO.P,J2,1*%
%TO.N,R*%
X50620000Y-39370000D03*
%TO.P,J2,2*%
%TO.N,G*%
X52900000Y-39370000D03*
%TO.P,J2,3*%
%TO.N,B*%
X55180000Y-39370000D03*
%TO.P,J2,4*%
%TO.N,unconnected-(J2-Pad4)*%
X57460000Y-39370000D03*
%TO.P,J2,5*%
%TO.N,GND*%
X59740000Y-39370000D03*
%TO.P,J2,6*%
X49480000Y-36830000D03*
%TO.P,J2,7*%
X51760000Y-36830000D03*
%TO.P,J2,8*%
X54040000Y-36830000D03*
%TO.P,J2,9*%
%TO.N,unconnected-(J2-Pad9)*%
X56320000Y-36830000D03*
%TO.P,J2,10*%
%TO.N,GND*%
X58600000Y-36830000D03*
%TO.P,J2,11*%
%TO.N,unconnected-(J2-Pad11)*%
X50620000Y-34290000D03*
%TO.P,J2,12*%
%TO.N,unconnected-(J2-Pad12)*%
X52900000Y-34290000D03*
%TO.P,J2,13*%
%TO.N,HSYNC*%
X55180000Y-34290000D03*
%TO.P,J2,14*%
%TO.N,VSYNC*%
X57460000Y-34290000D03*
%TO.P,J2,15*%
%TO.N,unconnected-(J2-Pad15)*%
X59740000Y-34290000D03*
D16*
%TO.P,J2,16*%
%TO.N,N/C*%
X67110000Y-36830000D03*
%TO.P,J2,17*%
X42110000Y-36830000D03*
%TD*%
D14*
%TO.P,RN2,1,R1.1*%
%TO.N,BF4*%
X53340000Y-71120000D03*
D13*
%TO.P,RN2,2,R1.2*%
%TO.N,Net-(J1-Pin_5)*%
X55880000Y-71120000D03*
%TO.P,RN2,3,R2.1*%
%TO.N,BF5*%
X58420000Y-71120000D03*
%TO.P,RN2,4,R2.2*%
%TO.N,Net-(J1-Pin_6)*%
X60960000Y-71120000D03*
%TO.P,RN2,5,R3.1*%
%TO.N,BF6*%
X63500000Y-71120000D03*
%TO.P,RN2,6,R3.2*%
%TO.N,Net-(J1-Pin_7)*%
X66040000Y-71120000D03*
%TO.P,RN2,7,R4.1*%
%TO.N,BF7*%
X68580000Y-71120000D03*
%TO.P,RN2,8,R4.2*%
%TO.N,Net-(J1-Pin_8)*%
X71120000Y-71120000D03*
%TD*%
D12*
%TO.P,R7,1*%
%TO.N,P18*%
X35560000Y-48260000D03*
D13*
%TO.P,R7,2*%
%TO.N,B*%
X35560000Y-55880000D03*
%TD*%
D12*
%TO.P,R14,1*%
%TO.N,G*%
X62230000Y-48260000D03*
D13*
%TO.P,R14,2*%
%TO.N,GND*%
X62230000Y-55880000D03*
%TD*%
D12*
%TO.P,R8,1*%
%TO.N,P19*%
X39130000Y-48260000D03*
D13*
%TO.P,R8,2*%
%TO.N,B*%
X39130000Y-55880000D03*
%TD*%
D17*
%TO.N,P21*%
X55880000Y-76635100D02*
X55880000Y-81280000D01*
X51694700Y-72449800D02*
X55880000Y-76635100D01*
X51694700Y-62269100D02*
X51694700Y-72449800D01*
X48895000Y-59469400D02*
X51694700Y-62269100D01*
X48895000Y-50165000D02*
X48895000Y-59469400D01*
X46990000Y-48260000D02*
X48895000Y-50165000D01*
%TO.N,P16*%
X50561700Y-82669900D02*
X50800000Y-82669900D01*
X49530000Y-81638200D02*
X50561700Y-82669900D01*
X49530000Y-79974400D02*
X49530000Y-81638200D01*
X43180000Y-73624400D02*
X49530000Y-79974400D01*
X43180000Y-69137200D02*
X43180000Y-73624400D01*
X36703000Y-62660200D02*
X43180000Y-69137200D01*
X36703000Y-60051300D02*
X36703000Y-62660200D01*
X33655000Y-57003300D02*
X36703000Y-60051300D01*
X33655000Y-53975000D02*
X33655000Y-57003300D01*
X27940000Y-48260000D02*
X33655000Y-53975000D01*
X50800000Y-83820000D02*
X50800000Y-82669900D01*
%TO.N,P17*%
X45720000Y-75049900D02*
X50800000Y-80129900D01*
X45720000Y-65076100D02*
X45720000Y-75049900D01*
X37624100Y-56980200D02*
X45720000Y-65076100D01*
X37624100Y-54134100D02*
X37624100Y-56980200D01*
X31750000Y-48260000D02*
X37624100Y-54134100D01*
X50800000Y-81280000D02*
X50800000Y-80129900D01*
%TO.N,P23*%
X58420000Y-73090000D02*
X58420000Y-81280000D01*
X57008500Y-71678500D02*
X58420000Y-73090000D01*
X57008500Y-50658500D02*
X57008500Y-71678500D01*
X54610000Y-48260000D02*
X57008500Y-50658500D01*
%TO.N,ACK*%
X35433000Y-74922900D02*
X35433000Y-61595000D01*
X40640000Y-80129900D02*
X35433000Y-74922900D01*
X40640000Y-81280000D02*
X40640000Y-80129900D01*
%TO.N,P20*%
X55641700Y-82669900D02*
X55880000Y-82669900D01*
X54610000Y-81638200D02*
X55641700Y-82669900D01*
X54610000Y-79086700D02*
X54610000Y-81638200D01*
X50412700Y-74889400D02*
X54610000Y-79086700D01*
X50412700Y-65316200D02*
X50412700Y-74889400D01*
X48402000Y-63305500D02*
X50412700Y-65316200D01*
X48402000Y-53482000D02*
X48402000Y-63305500D01*
X43180000Y-48260000D02*
X48402000Y-53482000D01*
X55880000Y-83820000D02*
X55880000Y-82669900D01*
%TO.N,P18*%
X53340000Y-83820000D02*
X53340000Y-82669900D01*
X53101700Y-82669900D02*
X53340000Y-82669900D01*
X52070000Y-81638200D02*
X53101700Y-82669900D01*
X52070000Y-78359000D02*
X52070000Y-81638200D01*
X49013600Y-75302600D02*
X52070000Y-78359000D01*
X49013600Y-65331400D02*
X49013600Y-75302600D01*
X43762900Y-60080700D02*
X49013600Y-65331400D01*
X43762900Y-58949200D02*
X43762900Y-60080700D01*
X35560000Y-50746300D02*
X43762900Y-58949200D01*
X35560000Y-48260000D02*
X35560000Y-50746300D01*
%TO.N,P22*%
X58181700Y-82669900D02*
X58420000Y-82669900D01*
X57150000Y-81638200D02*
X58181700Y-82669900D01*
X57150000Y-75155900D02*
X57150000Y-81638200D01*
X54468500Y-72474400D02*
X57150000Y-75155900D01*
X54468500Y-64477000D02*
X54468500Y-72474400D01*
X51949900Y-61958400D02*
X54468500Y-64477000D01*
X51949900Y-49409900D02*
X51949900Y-61958400D01*
X50800000Y-48260000D02*
X51949900Y-49409900D01*
X58420000Y-83820000D02*
X58420000Y-82669900D01*
%TO.N,BF5*%
X58420000Y-62872100D02*
X58293000Y-62745100D01*
X58420000Y-71120000D02*
X58420000Y-62872100D01*
X58293000Y-61595000D02*
X58293000Y-62745100D01*
%TO.N,Net-(J1-Pin_1)*%
X30767500Y-82669900D02*
X30480000Y-82669900D01*
X31750000Y-81687400D02*
X30767500Y-82669900D01*
X31750000Y-71120000D02*
X31750000Y-81687400D01*
X30480000Y-83820000D02*
X30480000Y-82669900D01*
%TO.N,P14*%
X64600200Y-59699900D02*
X72400000Y-51900100D01*
X64600200Y-73481700D02*
X64600200Y-59699900D01*
X59690000Y-78391900D02*
X64600200Y-73481700D01*
X59690000Y-84211100D02*
X59690000Y-78391900D01*
X58912300Y-84988800D02*
X59690000Y-84211100D01*
X50291400Y-84988800D02*
X58912300Y-84988800D01*
X49410100Y-84107500D02*
X50291400Y-84988800D01*
X49410100Y-83820000D02*
X49410100Y-84107500D01*
X48260000Y-83820000D02*
X49410100Y-83820000D01*
X72400000Y-50800000D02*
X72400000Y-51900100D01*
%TO.N,P19*%
X53340000Y-79001800D02*
X53340000Y-81280000D01*
X49413700Y-75075500D02*
X53340000Y-79001800D01*
X49413700Y-65165700D02*
X49413700Y-75075500D01*
X44304600Y-60056600D02*
X49413700Y-65165700D01*
X44304600Y-53434600D02*
X44304600Y-60056600D01*
X39130000Y-48260000D02*
X44304600Y-53434600D01*
%TO.N,B*%
X55180000Y-45020000D02*
X58420000Y-48260000D01*
X55180000Y-39370000D02*
X55180000Y-45020000D01*
%TO.N,R*%
X49649700Y-53629600D02*
X50800000Y-54779900D01*
X49649700Y-40340300D02*
X49649700Y-53629600D01*
X50620000Y-39370000D02*
X49649700Y-40340300D01*
X50800000Y-55880000D02*
X50800000Y-54779900D01*
%TO.N,GND*%
X66040000Y-45670000D02*
X66040000Y-48260000D01*
X59740000Y-39370000D02*
X66040000Y-45670000D01*
X62230000Y-53170100D02*
X62230000Y-55880000D01*
X66040000Y-49360100D02*
X62230000Y-53170100D01*
X66040000Y-48260000D02*
X66040000Y-49360100D01*
X57511700Y-35741700D02*
X58600000Y-36830000D01*
X55128300Y-35741700D02*
X57511700Y-35741700D01*
X54040000Y-36830000D02*
X55128300Y-35741700D01*
X59740000Y-37970000D02*
X59740000Y-39370000D01*
X58600000Y-36830000D02*
X59740000Y-37970000D01*
%TD*%
%TA.AperFunction,Conductor*%
%TO.N,GND*%
G36*
X36967465Y-56274093D02*
G01*
X37012800Y-56327258D01*
X37023600Y-56377873D01*
X37023600Y-56893530D01*
X37023599Y-56893548D01*
X37023599Y-57059254D01*
X37023598Y-57059254D01*
X37064523Y-57211985D01*
X37077860Y-57235085D01*
X37143577Y-57348912D01*
X37143581Y-57348917D01*
X37262449Y-57467785D01*
X37262455Y-57467790D01*
X45083181Y-65288516D01*
X45116666Y-65349839D01*
X45119500Y-65376197D01*
X45119500Y-69802608D01*
X45099815Y-69869647D01*
X45047011Y-69915402D01*
X44977853Y-69925346D01*
X44943096Y-69914991D01*
X44920531Y-69904469D01*
X44896496Y-69893261D01*
X44896493Y-69893260D01*
X44896488Y-69893258D01*
X44676697Y-69834366D01*
X44676693Y-69834365D01*
X44676692Y-69834365D01*
X44676691Y-69834364D01*
X44676686Y-69834364D01*
X44450002Y-69814532D01*
X44449998Y-69814532D01*
X44223313Y-69834364D01*
X44223302Y-69834366D01*
X44003511Y-69893258D01*
X44003506Y-69893260D01*
X43956904Y-69914991D01*
X43887826Y-69925482D01*
X43824042Y-69896961D01*
X43785803Y-69838484D01*
X43780500Y-69802608D01*
X43780500Y-69058145D01*
X43780500Y-69058143D01*
X43739577Y-68905416D01*
X43739577Y-68905415D01*
X43739577Y-68905414D01*
X43710639Y-68855295D01*
X43710637Y-68855292D01*
X43660520Y-68768484D01*
X43548716Y-68656680D01*
X43548715Y-68656679D01*
X43544385Y-68652349D01*
X43544374Y-68652339D01*
X38040748Y-63148713D01*
X38007263Y-63087390D01*
X38012247Y-63017698D01*
X38054119Y-62961765D01*
X38117622Y-62937504D01*
X38208315Y-62929569D01*
X38208326Y-62929567D01*
X38436483Y-62868433D01*
X38436492Y-62868429D01*
X38650578Y-62768600D01*
X38844082Y-62633105D01*
X39011105Y-62466082D01*
X39146600Y-62272578D01*
X39246429Y-62058492D01*
X39246432Y-62058486D01*
X39303636Y-61845000D01*
X38406012Y-61845000D01*
X38438925Y-61787993D01*
X38473000Y-61660826D01*
X38473000Y-61529174D01*
X38438925Y-61402007D01*
X38406012Y-61345000D01*
X39303636Y-61345000D01*
X39303635Y-61344999D01*
X39246432Y-61131513D01*
X39246429Y-61131507D01*
X39146600Y-60917422D01*
X39146599Y-60917420D01*
X39011113Y-60723926D01*
X39011108Y-60723920D01*
X38844082Y-60556894D01*
X38650578Y-60421399D01*
X38436492Y-60321570D01*
X38436486Y-60321567D01*
X38223000Y-60264364D01*
X38223000Y-61161988D01*
X38165993Y-61129075D01*
X38038826Y-61095000D01*
X37907174Y-61095000D01*
X37780007Y-61129075D01*
X37723000Y-61161988D01*
X37723000Y-60264364D01*
X37722999Y-60264364D01*
X37509513Y-60321567D01*
X37509506Y-60321570D01*
X37479903Y-60335374D01*
X37410825Y-60345865D01*
X37347042Y-60317344D01*
X37308803Y-60258867D01*
X37303500Y-60222991D01*
X37303500Y-60140359D01*
X37303501Y-60140346D01*
X37303501Y-59972245D01*
X37303501Y-59972243D01*
X37262577Y-59819515D01*
X37233639Y-59769395D01*
X37183520Y-59682584D01*
X37071716Y-59570780D01*
X37071715Y-59570779D01*
X37067385Y-59566449D01*
X37067374Y-59566439D01*
X34589346Y-57088411D01*
X34555861Y-57027088D01*
X34560845Y-56957396D01*
X34602717Y-56901463D01*
X34668181Y-56877046D01*
X34736454Y-56891898D01*
X34748150Y-56899155D01*
X34750989Y-56901143D01*
X34907266Y-57010568D01*
X35113504Y-57106739D01*
X35333308Y-57165635D01*
X35495230Y-57179801D01*
X35559998Y-57185468D01*
X35560000Y-57185468D01*
X35560002Y-57185468D01*
X35617653Y-57180424D01*
X35786692Y-57165635D01*
X36006496Y-57106739D01*
X36212734Y-57010568D01*
X36399139Y-56880047D01*
X36560047Y-56719139D01*
X36690568Y-56532734D01*
X36786739Y-56326496D01*
X36786739Y-56326494D01*
X36787218Y-56325468D01*
X36833390Y-56273029D01*
X36900584Y-56253877D01*
X36967465Y-56274093D01*
G37*
%TD.AperFunction*%
%TA.AperFunction,Conductor*%
G36*
X58212411Y-38046122D02*
G01*
X58377751Y-38090425D01*
X58377758Y-38090426D01*
X58599998Y-38109870D01*
X58600002Y-38109870D01*
X58822241Y-38090426D01*
X58822248Y-38090425D01*
X58989001Y-38045743D01*
X59058851Y-38047406D01*
X59116713Y-38086568D01*
X59144218Y-38150796D01*
X59132632Y-38219698D01*
X59092218Y-38267093D01*
X59032477Y-38308923D01*
X59032476Y-38308923D01*
X59610590Y-38887037D01*
X59547007Y-38904075D01*
X59432993Y-38969901D01*
X59339901Y-39062993D01*
X59274075Y-39177007D01*
X59257037Y-39240590D01*
X58678923Y-38662476D01*
X58658640Y-38664251D01*
X58647296Y-38673319D01*
X58577797Y-38680509D01*
X58515444Y-38648984D01*
X58498734Y-38629700D01*
X58440822Y-38546993D01*
X58283007Y-38389178D01*
X58168393Y-38308924D01*
X58109193Y-38267471D01*
X58065568Y-38212894D01*
X58058376Y-38143396D01*
X58089898Y-38081041D01*
X58150128Y-38045628D01*
X58212411Y-38046122D01*
G37*
%TD.AperFunction*%
%TA.AperFunction,Conductor*%
G36*
X51294075Y-37022993D02*
G01*
X51359901Y-37137007D01*
X51452993Y-37230099D01*
X51567007Y-37295925D01*
X51630590Y-37312962D01*
X51052476Y-37891074D01*
X51111020Y-37932067D01*
X51154644Y-37986644D01*
X51161837Y-38056143D01*
X51130315Y-38118497D01*
X51070085Y-38153911D01*
X51007803Y-38153417D01*
X50842339Y-38109081D01*
X50842329Y-38109079D01*
X50620001Y-38089628D01*
X50619999Y-38089628D01*
X50397670Y-38109079D01*
X50397660Y-38109081D01*
X50232195Y-38153417D01*
X50162345Y-38151754D01*
X50104483Y-38112591D01*
X50076979Y-38048363D01*
X50088566Y-37979460D01*
X50128979Y-37932067D01*
X50187522Y-37891074D01*
X49609409Y-37312962D01*
X49672993Y-37295925D01*
X49787007Y-37230099D01*
X49880099Y-37137007D01*
X49945925Y-37022993D01*
X49962962Y-36959409D01*
X50541074Y-37537522D01*
X50561080Y-37535772D01*
X50572997Y-37526246D01*
X50642496Y-37519051D01*
X50674873Y-37535417D01*
X50698924Y-37537522D01*
X51277037Y-36959409D01*
X51294075Y-37022993D01*
G37*
%TD.AperFunction*%
%TA.AperFunction,Conductor*%
G36*
X53574075Y-37022993D02*
G01*
X53639901Y-37137007D01*
X53732993Y-37230099D01*
X53847007Y-37295925D01*
X53910590Y-37312962D01*
X53332476Y-37891074D01*
X53391020Y-37932067D01*
X53434644Y-37986644D01*
X53441837Y-38056143D01*
X53410315Y-38118497D01*
X53350085Y-38153911D01*
X53287803Y-38153417D01*
X53122339Y-38109081D01*
X53122329Y-38109079D01*
X52900001Y-38089628D01*
X52899999Y-38089628D01*
X52677670Y-38109079D01*
X52677660Y-38109081D01*
X52512195Y-38153417D01*
X52442345Y-38151754D01*
X52384483Y-38112591D01*
X52356979Y-38048363D01*
X52368566Y-37979460D01*
X52408979Y-37932067D01*
X52467522Y-37891074D01*
X51889409Y-37312962D01*
X51952993Y-37295925D01*
X52067007Y-37230099D01*
X52160099Y-37137007D01*
X52225925Y-37022993D01*
X52242962Y-36959409D01*
X52821074Y-37537522D01*
X52841080Y-37535772D01*
X52852997Y-37526246D01*
X52922496Y-37519051D01*
X52954873Y-37535417D01*
X52978924Y-37537522D01*
X53557037Y-36959409D01*
X53574075Y-37022993D01*
G37*
%TD.AperFunction*%
%TA.AperFunction,Conductor*%
G36*
X58134075Y-37022993D02*
G01*
X58199901Y-37137007D01*
X58292993Y-37230099D01*
X58407007Y-37295925D01*
X58470590Y-37312962D01*
X57892476Y-37891074D01*
X57951020Y-37932067D01*
X57994644Y-37986644D01*
X58001837Y-38056143D01*
X57970315Y-38118497D01*
X57910085Y-38153911D01*
X57847803Y-38153417D01*
X57682339Y-38109081D01*
X57682329Y-38109079D01*
X57460001Y-38089628D01*
X57459999Y-38089628D01*
X57237670Y-38109079D01*
X57237660Y-38109081D01*
X57073608Y-38153038D01*
X57003758Y-38151375D01*
X56945896Y-38112212D01*
X56918392Y-38047983D01*
X56929979Y-37979081D01*
X56970388Y-37931691D01*
X57143007Y-37810822D01*
X57300822Y-37653007D01*
X57358731Y-37570304D01*
X57413306Y-37526681D01*
X57482804Y-37519487D01*
X57514199Y-37535358D01*
X57538924Y-37537522D01*
X58117037Y-36959409D01*
X58134075Y-37022993D01*
G37*
%TD.AperFunction*%
%TA.AperFunction,Conductor*%
G36*
X55101074Y-37537522D02*
G01*
X55121348Y-37535748D01*
X55132690Y-37526682D01*
X55202188Y-37519485D01*
X55264544Y-37551005D01*
X55281268Y-37570304D01*
X55339178Y-37653007D01*
X55496993Y-37810822D01*
X55669609Y-37931689D01*
X55713233Y-37986265D01*
X55720425Y-38055764D01*
X55688903Y-38118118D01*
X55628673Y-38153532D01*
X55566391Y-38153038D01*
X55402339Y-38109081D01*
X55402329Y-38109079D01*
X55180001Y-38089628D01*
X55179999Y-38089628D01*
X54957670Y-38109079D01*
X54957660Y-38109081D01*
X54792195Y-38153417D01*
X54722345Y-38151754D01*
X54664483Y-38112591D01*
X54636979Y-38048363D01*
X54648566Y-37979460D01*
X54688979Y-37932067D01*
X54747522Y-37891074D01*
X54169409Y-37312962D01*
X54232993Y-37295925D01*
X54347007Y-37230099D01*
X54440099Y-37137007D01*
X54505925Y-37022993D01*
X54522962Y-36959409D01*
X55101074Y-37537522D01*
G37*
%TD.AperFunction*%
%TA.AperFunction,Conductor*%
G36*
X50232193Y-35506581D02*
G01*
X50397666Y-35550920D01*
X50575533Y-35566481D01*
X50619999Y-35570372D01*
X50620000Y-35570372D01*
X50620001Y-35570372D01*
X50657055Y-35567130D01*
X50842334Y-35550920D01*
X51007806Y-35506582D01*
X51077653Y-35508245D01*
X51135516Y-35547407D01*
X51163020Y-35611636D01*
X51151434Y-35680538D01*
X51111019Y-35727933D01*
X51052476Y-35768923D01*
X51630590Y-36347037D01*
X51567007Y-36364075D01*
X51452993Y-36429901D01*
X51359901Y-36522993D01*
X51294075Y-36637007D01*
X51277037Y-36700590D01*
X50698923Y-36122476D01*
X50678911Y-36124227D01*
X50666995Y-36133753D01*
X50597496Y-36140945D01*
X50565128Y-36124581D01*
X50541074Y-36122476D01*
X49962962Y-36700589D01*
X49945925Y-36637007D01*
X49880099Y-36522993D01*
X49787007Y-36429901D01*
X49672993Y-36364075D01*
X49609410Y-36347037D01*
X50187522Y-35768924D01*
X50128979Y-35727932D01*
X50085355Y-35673355D01*
X50078162Y-35603856D01*
X50109684Y-35541502D01*
X50169914Y-35506088D01*
X50232193Y-35506581D01*
G37*
%TD.AperFunction*%
%TA.AperFunction,Conductor*%
G36*
X52512193Y-35506581D02*
G01*
X52677666Y-35550920D01*
X52855533Y-35566481D01*
X52899999Y-35570372D01*
X52900000Y-35570372D01*
X52900001Y-35570372D01*
X52937055Y-35567130D01*
X53122334Y-35550920D01*
X53287806Y-35506582D01*
X53357653Y-35508245D01*
X53415516Y-35547407D01*
X53443020Y-35611636D01*
X53431434Y-35680538D01*
X53391019Y-35727933D01*
X53332476Y-35768923D01*
X53910590Y-36347037D01*
X53847007Y-36364075D01*
X53732993Y-36429901D01*
X53639901Y-36522993D01*
X53574075Y-36637007D01*
X53557037Y-36700590D01*
X52978923Y-36122476D01*
X52958911Y-36124227D01*
X52946995Y-36133753D01*
X52877496Y-36140945D01*
X52845128Y-36124581D01*
X52821074Y-36122476D01*
X52242962Y-36700589D01*
X52225925Y-36637007D01*
X52160099Y-36522993D01*
X52067007Y-36429901D01*
X51952993Y-36364075D01*
X51889410Y-36347037D01*
X52467522Y-35768924D01*
X52408979Y-35727932D01*
X52365355Y-35673355D01*
X52358162Y-35603856D01*
X52389684Y-35541502D01*
X52449914Y-35506088D01*
X52512193Y-35506581D01*
G37*
%TD.AperFunction*%
%TA.AperFunction,Conductor*%
G36*
X57073608Y-35506961D02*
G01*
X57080557Y-35508823D01*
X57237666Y-35550920D01*
X57415533Y-35566481D01*
X57459999Y-35570372D01*
X57460000Y-35570372D01*
X57460001Y-35570372D01*
X57497055Y-35567130D01*
X57682334Y-35550920D01*
X57847806Y-35506582D01*
X57917653Y-35508245D01*
X57975516Y-35547407D01*
X58003020Y-35611636D01*
X57991434Y-35680538D01*
X57951019Y-35727933D01*
X57892476Y-35768923D01*
X58470590Y-36347037D01*
X58407007Y-36364075D01*
X58292993Y-36429901D01*
X58199901Y-36522993D01*
X58134075Y-36637007D01*
X58117037Y-36700590D01*
X57538923Y-36122476D01*
X57518640Y-36124251D01*
X57507296Y-36133319D01*
X57437797Y-36140509D01*
X57375444Y-36108984D01*
X57358734Y-36089700D01*
X57300822Y-36006993D01*
X57143007Y-35849178D01*
X56970390Y-35728310D01*
X56926766Y-35673733D01*
X56919574Y-35604235D01*
X56951096Y-35541880D01*
X57011326Y-35506467D01*
X57073608Y-35506961D01*
G37*
%TD.AperFunction*%
%TA.AperFunction,Conductor*%
G36*
X54792193Y-35506581D02*
G01*
X54957666Y-35550920D01*
X55135533Y-35566481D01*
X55179999Y-35570372D01*
X55180000Y-35570372D01*
X55180001Y-35570372D01*
X55217055Y-35567130D01*
X55402334Y-35550920D01*
X55566391Y-35506961D01*
X55636240Y-35508624D01*
X55694103Y-35547786D01*
X55721607Y-35612015D01*
X55710021Y-35680917D01*
X55669608Y-35728310D01*
X55496992Y-35849178D01*
X55339181Y-36006989D01*
X55281269Y-36089695D01*
X55226692Y-36133319D01*
X55157193Y-36140511D01*
X55125800Y-36124640D01*
X55101074Y-36122476D01*
X54522962Y-36700589D01*
X54505925Y-36637007D01*
X54440099Y-36522993D01*
X54347007Y-36429901D01*
X54232993Y-36364075D01*
X54169410Y-36347037D01*
X54747522Y-35768924D01*
X54688979Y-35727932D01*
X54645355Y-35673355D01*
X54638162Y-35603856D01*
X54669684Y-35541502D01*
X54729914Y-35506088D01*
X54792193Y-35506581D01*
G37*
%TD.AperFunction*%
%TA.AperFunction,Conductor*%
G36*
X82826922Y-25901280D02*
G01*
X82917266Y-25911459D01*
X82944331Y-25917636D01*
X83023540Y-25945352D01*
X83048553Y-25957398D01*
X83119606Y-26002043D01*
X83141313Y-26019355D01*
X83200644Y-26078686D01*
X83217957Y-26100395D01*
X83262600Y-26171444D01*
X83274648Y-26196462D01*
X83302362Y-26275666D01*
X83308540Y-26302735D01*
X83318720Y-26393076D01*
X83319500Y-26406961D01*
X83319500Y-87893038D01*
X83318720Y-87906923D01*
X83308540Y-87997264D01*
X83302362Y-88024333D01*
X83274648Y-88103537D01*
X83262600Y-88128555D01*
X83217957Y-88199604D01*
X83200644Y-88221313D01*
X83141313Y-88280644D01*
X83119604Y-88297957D01*
X83048555Y-88342600D01*
X83023537Y-88354648D01*
X82944333Y-88382362D01*
X82917264Y-88388540D01*
X82837075Y-88397576D01*
X82826921Y-88398720D01*
X82813038Y-88399500D01*
X26406962Y-88399500D01*
X26393078Y-88398720D01*
X26380553Y-88397308D01*
X26302735Y-88388540D01*
X26275666Y-88382362D01*
X26196462Y-88354648D01*
X26171444Y-88342600D01*
X26100395Y-88297957D01*
X26078686Y-88280644D01*
X26019355Y-88221313D01*
X26002042Y-88199604D01*
X25957399Y-88128555D01*
X25945351Y-88103537D01*
X25917637Y-88024333D01*
X25911459Y-87997263D01*
X25901280Y-87906922D01*
X25900500Y-87893038D01*
X25900500Y-55879998D01*
X26634532Y-55879998D01*
X26634532Y-55880001D01*
X26654364Y-56106686D01*
X26654366Y-56106697D01*
X26713258Y-56326488D01*
X26713261Y-56326497D01*
X26809431Y-56532732D01*
X26809432Y-56532734D01*
X26939954Y-56719141D01*
X27100858Y-56880045D01*
X27100861Y-56880047D01*
X27287266Y-57010568D01*
X27493504Y-57106739D01*
X27713308Y-57165635D01*
X27875230Y-57179801D01*
X27939998Y-57185468D01*
X27940000Y-57185468D01*
X27940002Y-57185468D01*
X27997653Y-57180424D01*
X28166692Y-57165635D01*
X28386496Y-57106739D01*
X28592734Y-57010568D01*
X28779139Y-56880047D01*
X28940047Y-56719139D01*
X29070568Y-56532734D01*
X29166739Y-56326496D01*
X29225635Y-56106692D01*
X29245468Y-55880000D01*
X29225635Y-55653308D01*
X29166739Y-55433504D01*
X29070568Y-55227266D01*
X28940047Y-55040861D01*
X28940045Y-55040858D01*
X28779141Y-54879954D01*
X28592734Y-54749432D01*
X28592732Y-54749431D01*
X28386497Y-54653261D01*
X28386488Y-54653258D01*
X28166697Y-54594366D01*
X28166693Y-54594365D01*
X28166692Y-54594365D01*
X28166691Y-54594364D01*
X28166686Y-54594364D01*
X27940002Y-54574532D01*
X27939998Y-54574532D01*
X27713313Y-54594364D01*
X27713302Y-54594366D01*
X27493511Y-54653258D01*
X27493502Y-54653261D01*
X27287267Y-54749431D01*
X27287265Y-54749432D01*
X27100858Y-54879954D01*
X26939954Y-55040858D01*
X26809432Y-55227265D01*
X26809431Y-55227267D01*
X26713261Y-55433502D01*
X26713258Y-55433511D01*
X26654366Y-55653302D01*
X26654364Y-55653313D01*
X26634532Y-55879998D01*
X25900500Y-55879998D01*
X25900500Y-48259998D01*
X26634532Y-48259998D01*
X26634532Y-48260001D01*
X26654364Y-48486686D01*
X26654366Y-48486697D01*
X26713258Y-48706488D01*
X26713261Y-48706497D01*
X26809431Y-48912732D01*
X26809432Y-48912734D01*
X26939953Y-49099140D01*
X27100858Y-49260045D01*
X27100861Y-49260047D01*
X27287266Y-49390568D01*
X27493504Y-49486739D01*
X27713308Y-49545635D01*
X27875230Y-49559801D01*
X27939998Y-49565468D01*
X27940000Y-49565468D01*
X27940002Y-49565468D01*
X27996673Y-49560509D01*
X28166692Y-49545635D01*
X28262932Y-49519847D01*
X28332781Y-49521510D01*
X28382706Y-49551941D01*
X33018181Y-54187416D01*
X33051666Y-54248739D01*
X33054500Y-54275097D01*
X33054500Y-55082388D01*
X33034815Y-55149427D01*
X32982011Y-55195182D01*
X32912853Y-55205126D01*
X32849297Y-55176101D01*
X32828925Y-55153511D01*
X32750045Y-55040858D01*
X32589141Y-54879954D01*
X32402734Y-54749432D01*
X32402732Y-54749431D01*
X32196497Y-54653261D01*
X32196488Y-54653258D01*
X31976697Y-54594366D01*
X31976693Y-54594365D01*
X31976692Y-54594365D01*
X31976691Y-54594364D01*
X31976686Y-54594364D01*
X31750002Y-54574532D01*
X31749998Y-54574532D01*
X31523313Y-54594364D01*
X31523302Y-54594366D01*
X31303511Y-54653258D01*
X31303502Y-54653261D01*
X31097267Y-54749431D01*
X31097265Y-54749432D01*
X30910858Y-54879954D01*
X30749954Y-55040858D01*
X30619432Y-55227265D01*
X30619431Y-55227267D01*
X30523261Y-55433502D01*
X30523258Y-55433511D01*
X30464366Y-55653302D01*
X30464364Y-55653313D01*
X30444532Y-55879998D01*
X30444532Y-55880001D01*
X30464364Y-56106686D01*
X30464366Y-56106697D01*
X30523258Y-56326488D01*
X30523261Y-56326497D01*
X30619431Y-56532732D01*
X30619432Y-56532734D01*
X30749954Y-56719141D01*
X30910858Y-56880045D01*
X30910861Y-56880047D01*
X31097266Y-57010568D01*
X31303504Y-57106739D01*
X31523308Y-57165635D01*
X31685230Y-57179801D01*
X31749998Y-57185468D01*
X31750000Y-57185468D01*
X31750002Y-57185468D01*
X31807653Y-57180424D01*
X31976692Y-57165635D01*
X32196496Y-57106739D01*
X32402734Y-57010568D01*
X32589139Y-56880047D01*
X32750047Y-56719139D01*
X32828925Y-56606487D01*
X32883501Y-56562863D01*
X32952999Y-56555669D01*
X33015354Y-56587191D01*
X33050769Y-56647421D01*
X33054500Y-56677611D01*
X33054500Y-56916630D01*
X33054499Y-56916648D01*
X33054499Y-57082354D01*
X33054498Y-57082354D01*
X33080776Y-57180424D01*
X33095423Y-57235085D01*
X33111232Y-57262467D01*
X33124358Y-57285200D01*
X33124359Y-57285204D01*
X33124360Y-57285204D01*
X33161143Y-57348916D01*
X33174479Y-57372014D01*
X33174481Y-57372017D01*
X33293349Y-57490885D01*
X33293355Y-57490890D01*
X35879382Y-60076917D01*
X35912867Y-60138240D01*
X35907883Y-60207932D01*
X35866011Y-60263865D01*
X35800547Y-60288282D01*
X35759609Y-60284373D01*
X35668416Y-60259939D01*
X35668412Y-60259938D01*
X35668408Y-60259937D01*
X35668406Y-60259936D01*
X35668403Y-60259936D01*
X35433001Y-60239341D01*
X35432999Y-60239341D01*
X35197596Y-60259936D01*
X35197586Y-60259938D01*
X34969344Y-60321094D01*
X34969335Y-60321098D01*
X34755171Y-60420964D01*
X34755169Y-60420965D01*
X34561597Y-60556505D01*
X34394505Y-60723597D01*
X34264575Y-60909158D01*
X34209998Y-60952783D01*
X34140500Y-60959977D01*
X34078145Y-60928454D01*
X34061425Y-60909158D01*
X33931494Y-60723597D01*
X33764402Y-60556506D01*
X33764395Y-60556501D01*
X33570834Y-60420967D01*
X33570830Y-60420965D01*
X33548000Y-60410319D01*
X33356663Y-60321097D01*
X33356659Y-60321096D01*
X33356655Y-60321094D01*
X33128413Y-60259938D01*
X33128403Y-60259936D01*
X32893001Y-60239341D01*
X32892999Y-60239341D01*
X32657596Y-60259936D01*
X32657586Y-60259938D01*
X32429344Y-60321094D01*
X32429335Y-60321098D01*
X32215171Y-60420964D01*
X32215169Y-60420965D01*
X32021600Y-60556503D01*
X31899673Y-60678430D01*
X31838350Y-60711914D01*
X31768658Y-60706930D01*
X31712725Y-60665058D01*
X31695810Y-60634081D01*
X31646797Y-60502671D01*
X31646793Y-60502664D01*
X31560547Y-60387455D01*
X31560544Y-60387452D01*
X31445335Y-60301206D01*
X31445328Y-60301202D01*
X31310482Y-60250908D01*
X31310483Y-60250908D01*
X31250883Y-60244501D01*
X31250881Y-60244500D01*
X31250873Y-60244500D01*
X31250864Y-60244500D01*
X29455129Y-60244500D01*
X29455123Y-60244501D01*
X29395516Y-60250908D01*
X29260671Y-60301202D01*
X29260664Y-60301206D01*
X29145455Y-60387452D01*
X29145452Y-60387455D01*
X29059206Y-60502664D01*
X29059202Y-60502671D01*
X29008908Y-60637517D01*
X29002501Y-60697116D01*
X29002501Y-60697123D01*
X29002500Y-60697135D01*
X29002500Y-62492870D01*
X29002501Y-62492876D01*
X29008908Y-62552483D01*
X29059202Y-62687328D01*
X29059206Y-62687335D01*
X29145452Y-62802544D01*
X29145455Y-62802547D01*
X29260664Y-62888793D01*
X29260671Y-62888797D01*
X29395517Y-62939091D01*
X29395516Y-62939091D01*
X29402444Y-62939835D01*
X29455127Y-62945500D01*
X31250872Y-62945499D01*
X31310483Y-62939091D01*
X31445331Y-62888796D01*
X31560546Y-62802546D01*
X31646796Y-62687331D01*
X31695810Y-62555916D01*
X31737681Y-62499984D01*
X31803145Y-62475566D01*
X31871418Y-62490417D01*
X31899673Y-62511569D01*
X32021599Y-62633495D01*
X32112622Y-62697230D01*
X32215165Y-62769032D01*
X32215167Y-62769033D01*
X32215170Y-62769035D01*
X32429337Y-62868903D01*
X32657592Y-62930063D01*
X32834034Y-62945500D01*
X32892999Y-62950659D01*
X32893000Y-62950659D01*
X32893001Y-62950659D01*
X32951966Y-62945500D01*
X33128408Y-62930063D01*
X33356663Y-62868903D01*
X33570830Y-62769035D01*
X33764401Y-62633495D01*
X33931495Y-62466401D01*
X34061425Y-62280842D01*
X34116002Y-62237217D01*
X34185500Y-62230023D01*
X34247855Y-62261546D01*
X34264575Y-62280842D01*
X34394281Y-62466082D01*
X34394505Y-62466401D01*
X34561599Y-62633495D01*
X34652622Y-62697230D01*
X34755165Y-62769032D01*
X34755167Y-62769033D01*
X34755170Y-62769035D01*
X34760898Y-62771706D01*
X34813339Y-62817872D01*
X34832500Y-62884090D01*
X34832500Y-69757385D01*
X34812815Y-69824424D01*
X34760011Y-69870179D01*
X34690853Y-69880123D01*
X34676407Y-69877160D01*
X34516697Y-69834366D01*
X34516693Y-69834365D01*
X34516692Y-69834365D01*
X34516691Y-69834364D01*
X34516686Y-69834364D01*
X34290002Y-69814532D01*
X34289998Y-69814532D01*
X34063313Y-69834364D01*
X34063302Y-69834366D01*
X33843511Y-69893258D01*
X33843502Y-69893261D01*
X33637267Y-69989431D01*
X33637265Y-69989432D01*
X33450858Y-70119954D01*
X33289954Y-70280858D01*
X33159432Y-70467265D01*
X33159431Y-70467267D01*
X33132382Y-70525275D01*
X33086209Y-70577714D01*
X33019016Y-70596866D01*
X32952135Y-70576650D01*
X32907618Y-70525275D01*
X32880568Y-70467267D01*
X32880567Y-70467265D01*
X32750045Y-70280858D01*
X32589141Y-70119954D01*
X32402734Y-69989432D01*
X32402732Y-69989431D01*
X32196497Y-69893261D01*
X32196488Y-69893258D01*
X31976697Y-69834366D01*
X31976693Y-69834365D01*
X31976692Y-69834365D01*
X31976691Y-69834364D01*
X31976686Y-69834364D01*
X31750002Y-69814532D01*
X31749998Y-69814532D01*
X31523313Y-69834364D01*
X31523302Y-69834366D01*
X31303511Y-69893258D01*
X31303502Y-69893261D01*
X31097267Y-69989431D01*
X31097265Y-69989432D01*
X30910858Y-70119954D01*
X30749954Y-70280858D01*
X30732725Y-70305464D01*
X30678147Y-70349088D01*
X30608648Y-70356280D01*
X30546294Y-70324757D01*
X30510882Y-70264526D01*
X30507861Y-70247591D01*
X30504091Y-70212516D01*
X30453797Y-70077671D01*
X30453793Y-70077664D01*
X30367547Y-69962455D01*
X30367544Y-69962452D01*
X30252335Y-69876206D01*
X30252328Y-69876202D01*
X30117482Y-69825908D01*
X30117483Y-69825908D01*
X30057883Y-69819501D01*
X30057881Y-69819500D01*
X30057873Y-69819500D01*
X30057864Y-69819500D01*
X28362129Y-69819500D01*
X28362123Y-69819501D01*
X28302516Y-69825908D01*
X28167671Y-69876202D01*
X28167664Y-69876206D01*
X28052455Y-69962452D01*
X28052452Y-69962455D01*
X27966206Y-70077664D01*
X27966202Y-70077671D01*
X27915908Y-70212517D01*
X27909501Y-70272116D01*
X27909500Y-70272135D01*
X27909500Y-71967870D01*
X27909501Y-71967876D01*
X27915908Y-72027483D01*
X27966202Y-72162328D01*
X27966206Y-72162335D01*
X28052452Y-72277544D01*
X28052455Y-72277547D01*
X28167664Y-72363793D01*
X28167671Y-72363797D01*
X28302517Y-72414091D01*
X28302516Y-72414091D01*
X28309444Y-72414835D01*
X28362127Y-72420500D01*
X30057872Y-72420499D01*
X30117483Y-72414091D01*
X30252331Y-72363796D01*
X30367546Y-72277546D01*
X30453796Y-72162331D01*
X30504091Y-72027483D01*
X30507862Y-71992401D01*
X30534599Y-71927855D01*
X30591990Y-71888006D01*
X30661816Y-71885511D01*
X30721905Y-71921163D01*
X30732726Y-71934536D01*
X30749956Y-71959143D01*
X30910858Y-72120045D01*
X30910861Y-72120047D01*
X31096624Y-72250118D01*
X31140248Y-72304693D01*
X31149500Y-72351692D01*
X31149500Y-79907439D01*
X31129815Y-79974478D01*
X31077011Y-80020233D01*
X31007853Y-80030177D01*
X30973097Y-80019822D01*
X30963790Y-80015482D01*
X30943663Y-80006097D01*
X30943659Y-80006096D01*
X30943655Y-80006094D01*
X30715413Y-79944938D01*
X30715403Y-79944936D01*
X30480001Y-79924341D01*
X30479999Y-79924341D01*
X30244596Y-79944936D01*
X30244586Y-79944938D01*
X30016344Y-80006094D01*
X30016335Y-80006098D01*
X29802171Y-80105964D01*
X29802169Y-80105965D01*
X29608597Y-80241505D01*
X29441505Y-80408597D01*
X29305965Y-80602169D01*
X29305964Y-80602171D01*
X29206098Y-80816335D01*
X29206094Y-80816344D01*
X29144938Y-81044586D01*
X29144936Y-81044596D01*
X29124341Y-81279999D01*
X29124341Y-81280000D01*
X29144936Y-81515403D01*
X29144938Y-81515413D01*
X29206094Y-81743655D01*
X29206096Y-81743659D01*
X29206097Y-81743663D01*
X29210000Y-81752032D01*
X29305965Y-81957830D01*
X29305967Y-81957834D01*
X29414281Y-82112521D01*
X29441501Y-82151396D01*
X29441506Y-82151402D01*
X29563430Y-82273326D01*
X29596915Y-82334649D01*
X29591931Y-82404341D01*
X29550059Y-82460274D01*
X29519083Y-82477189D01*
X29387669Y-82526203D01*
X29387664Y-82526206D01*
X29272455Y-82612452D01*
X29272452Y-82612455D01*
X29186206Y-82727664D01*
X29186202Y-82727671D01*
X29135908Y-82862517D01*
X29129501Y-82922116D01*
X29129500Y-82922135D01*
X29129500Y-84717870D01*
X29129501Y-84717876D01*
X29135908Y-84777483D01*
X29186202Y-84912328D01*
X29186206Y-84912335D01*
X29272452Y-85027544D01*
X29272455Y-85027547D01*
X29387664Y-85113793D01*
X29387671Y-85113797D01*
X29522517Y-85164091D01*
X29522516Y-85164091D01*
X29529444Y-85164835D01*
X29582127Y-85170500D01*
X31377872Y-85170499D01*
X31437483Y-85164091D01*
X31572331Y-85113796D01*
X31687546Y-85027546D01*
X31773796Y-84912331D01*
X31822810Y-84780916D01*
X31864681Y-84724984D01*
X31930145Y-84700566D01*
X31998418Y-84715417D01*
X32026673Y-84736569D01*
X32148599Y-84858495D01*
X32245384Y-84926265D01*
X32342165Y-84994032D01*
X32342167Y-84994033D01*
X32342170Y-84994035D01*
X32556337Y-85093903D01*
X32784592Y-85155063D01*
X32961034Y-85170500D01*
X33019999Y-85175659D01*
X33020000Y-85175659D01*
X33020001Y-85175659D01*
X33078966Y-85170500D01*
X33255408Y-85155063D01*
X33483663Y-85093903D01*
X33697830Y-84994035D01*
X33891401Y-84858495D01*
X34058495Y-84691401D01*
X34188425Y-84505842D01*
X34243002Y-84462217D01*
X34312500Y-84455023D01*
X34374855Y-84486546D01*
X34391575Y-84505842D01*
X34521500Y-84691395D01*
X34521505Y-84691401D01*
X34688599Y-84858495D01*
X34785384Y-84926265D01*
X34882165Y-84994032D01*
X34882167Y-84994033D01*
X34882170Y-84994035D01*
X35096337Y-85093903D01*
X35324592Y-85155063D01*
X35501034Y-85170500D01*
X35559999Y-85175659D01*
X35560000Y-85175659D01*
X35560001Y-85175659D01*
X35618966Y-85170500D01*
X35795408Y-85155063D01*
X36023663Y-85093903D01*
X36237830Y-84994035D01*
X36431401Y-84858495D01*
X36598495Y-84691401D01*
X36728425Y-84505842D01*
X36783002Y-84462217D01*
X36852500Y-84455023D01*
X36914855Y-84486546D01*
X36931575Y-84505842D01*
X37061500Y-84691395D01*
X37061505Y-84691401D01*
X37228599Y-84858495D01*
X37325384Y-84926265D01*
X37422165Y-84994032D01*
X37422167Y-84994033D01*
X37422170Y-84994035D01*
X37636337Y-85093903D01*
X37864592Y-85155063D01*
X38041034Y-85170500D01*
X38099999Y-85175659D01*
X38100000Y-85175659D01*
X38100001Y-85175659D01*
X38158966Y-85170500D01*
X38335408Y-85155063D01*
X38563663Y-85093903D01*
X38777830Y-84994035D01*
X38971401Y-84858495D01*
X39138495Y-84691401D01*
X39268425Y-84505842D01*
X39323002Y-84462217D01*
X39392500Y-84455023D01*
X39454855Y-84486546D01*
X39471575Y-84505842D01*
X39601500Y-84691395D01*
X39601505Y-84691401D01*
X39768599Y-84858495D01*
X39865384Y-84926265D01*
X39962165Y-84994032D01*
X39962167Y-84994033D01*
X39962170Y-84994035D01*
X40176337Y-85093903D01*
X40404592Y-85155063D01*
X40581034Y-85170500D01*
X40639999Y-85175659D01*
X40640000Y-85175659D01*
X40640001Y-85175659D01*
X40698966Y-85170500D01*
X40875408Y-85155063D01*
X41103663Y-85093903D01*
X41317830Y-84994035D01*
X41511401Y-84858495D01*
X41678495Y-84691401D01*
X41808425Y-84505842D01*
X41863002Y-84462217D01*
X41932500Y-84455023D01*
X41994855Y-84486546D01*
X42011575Y-84505842D01*
X42141500Y-84691395D01*
X42141505Y-84691401D01*
X42308599Y-84858495D01*
X42405384Y-84926265D01*
X42502165Y-84994032D01*
X42502167Y-84994033D01*
X42502170Y-84994035D01*
X42716337Y-85093903D01*
X42944592Y-85155063D01*
X43121034Y-85170500D01*
X43179999Y-85175659D01*
X43180000Y-85175659D01*
X43180001Y-85175659D01*
X43238966Y-85170500D01*
X43415408Y-85155063D01*
X43643663Y-85093903D01*
X43857830Y-84994035D01*
X44051401Y-84858495D01*
X44218495Y-84691401D01*
X44348425Y-84505842D01*
X44403002Y-84462217D01*
X44472500Y-84455023D01*
X44534855Y-84486546D01*
X44551575Y-84505842D01*
X44681500Y-84691395D01*
X44681505Y-84691401D01*
X44848599Y-84858495D01*
X44945384Y-84926265D01*
X45042165Y-84994032D01*
X45042167Y-84994033D01*
X45042170Y-84994035D01*
X45256337Y-85093903D01*
X45484592Y-85155063D01*
X45661034Y-85170500D01*
X45719999Y-85175659D01*
X45720000Y-85175659D01*
X45720001Y-85175659D01*
X45778966Y-85170500D01*
X45955408Y-85155063D01*
X46183663Y-85093903D01*
X46397830Y-84994035D01*
X46591401Y-84858495D01*
X46758495Y-84691401D01*
X46888425Y-84505842D01*
X46943002Y-84462217D01*
X47012500Y-84455023D01*
X47074855Y-84486546D01*
X47091575Y-84505842D01*
X47221500Y-84691395D01*
X47221505Y-84691401D01*
X47388599Y-84858495D01*
X47485384Y-84926265D01*
X47582165Y-84994032D01*
X47582167Y-84994033D01*
X47582170Y-84994035D01*
X47796337Y-85093903D01*
X48024592Y-85155063D01*
X48201034Y-85170500D01*
X48259999Y-85175659D01*
X48260000Y-85175659D01*
X48260001Y-85175659D01*
X48318966Y-85170500D01*
X48495408Y-85155063D01*
X48723663Y-85093903D01*
X48937830Y-84994035D01*
X49131401Y-84858495D01*
X49133944Y-84855951D01*
X49135338Y-84855190D01*
X49135545Y-84855017D01*
X49135579Y-84855058D01*
X49195262Y-84822463D01*
X49264954Y-84827442D01*
X49309311Y-84855946D01*
X49806539Y-85353174D01*
X49806549Y-85353185D01*
X49810879Y-85357515D01*
X49810880Y-85357516D01*
X49922684Y-85469320D01*
X49922686Y-85469321D01*
X49922690Y-85469324D01*
X50059609Y-85548373D01*
X50059616Y-85548377D01*
X50171419Y-85578334D01*
X50212342Y-85589300D01*
X50212343Y-85589300D01*
X58825631Y-85589300D01*
X58825647Y-85589301D01*
X58833243Y-85589301D01*
X58991354Y-85589301D01*
X58991357Y-85589301D01*
X59144085Y-85548377D01*
X59194204Y-85519439D01*
X59281016Y-85469320D01*
X59392820Y-85357516D01*
X59392820Y-85357514D01*
X59403028Y-85347307D01*
X59403030Y-85347304D01*
X59902538Y-84847796D01*
X59963861Y-84814311D01*
X60033553Y-84819295D01*
X60077900Y-84847796D01*
X60088599Y-84858495D01*
X60185384Y-84926265D01*
X60282165Y-84994032D01*
X60282167Y-84994033D01*
X60282170Y-84994035D01*
X60496337Y-85093903D01*
X60724592Y-85155063D01*
X60901034Y-85170500D01*
X60959999Y-85175659D01*
X60960000Y-85175659D01*
X60960001Y-85175659D01*
X61018966Y-85170500D01*
X61195408Y-85155063D01*
X61423663Y-85093903D01*
X61637830Y-84994035D01*
X61831401Y-84858495D01*
X61998495Y-84691401D01*
X62128425Y-84505842D01*
X62183002Y-84462217D01*
X62252500Y-84455023D01*
X62314855Y-84486546D01*
X62331575Y-84505842D01*
X62461500Y-84691395D01*
X62461505Y-84691401D01*
X62628599Y-84858495D01*
X62725384Y-84926265D01*
X62822165Y-84994032D01*
X62822167Y-84994033D01*
X62822170Y-84994035D01*
X63036337Y-85093903D01*
X63264592Y-85155063D01*
X63441034Y-85170500D01*
X63499999Y-85175659D01*
X63500000Y-85175659D01*
X63500001Y-85175659D01*
X63558966Y-85170500D01*
X63735408Y-85155063D01*
X63963663Y-85093903D01*
X64177830Y-84994035D01*
X64371401Y-84858495D01*
X64538495Y-84691401D01*
X64668425Y-84505842D01*
X64723002Y-84462217D01*
X64792500Y-84455023D01*
X64854855Y-84486546D01*
X64871575Y-84505842D01*
X65001500Y-84691395D01*
X65001505Y-84691401D01*
X65168599Y-84858495D01*
X65265384Y-84926265D01*
X65362165Y-84994032D01*
X65362167Y-84994033D01*
X65362170Y-84994035D01*
X65576337Y-85093903D01*
X65804592Y-85155063D01*
X65981034Y-85170500D01*
X66039999Y-85175659D01*
X66040000Y-85175659D01*
X66040001Y-85175659D01*
X66098966Y-85170500D01*
X66275408Y-85155063D01*
X66503663Y-85093903D01*
X66717830Y-84994035D01*
X66911401Y-84858495D01*
X67078495Y-84691401D01*
X67208425Y-84505842D01*
X67263002Y-84462217D01*
X67332500Y-84455023D01*
X67394855Y-84486546D01*
X67411575Y-84505842D01*
X67541500Y-84691395D01*
X67541505Y-84691401D01*
X67708599Y-84858495D01*
X67805384Y-84926265D01*
X67902165Y-84994032D01*
X67902167Y-84994033D01*
X67902170Y-84994035D01*
X68116337Y-85093903D01*
X68344592Y-85155063D01*
X68521034Y-85170500D01*
X68579999Y-85175659D01*
X68580000Y-85175659D01*
X68580001Y-85175659D01*
X68638966Y-85170500D01*
X68815408Y-85155063D01*
X69043663Y-85093903D01*
X69257830Y-84994035D01*
X69451401Y-84858495D01*
X69618495Y-84691401D01*
X69748425Y-84505842D01*
X69803002Y-84462217D01*
X69872500Y-84455023D01*
X69934855Y-84486546D01*
X69951575Y-84505842D01*
X70081500Y-84691395D01*
X70081505Y-84691401D01*
X70248599Y-84858495D01*
X70345384Y-84926265D01*
X70442165Y-84994032D01*
X70442167Y-84994033D01*
X70442170Y-84994035D01*
X70656337Y-85093903D01*
X70884592Y-85155063D01*
X71061034Y-85170500D01*
X71119999Y-85175659D01*
X71120000Y-85175659D01*
X71120001Y-85175659D01*
X71178966Y-85170500D01*
X71355408Y-85155063D01*
X71583663Y-85093903D01*
X71797830Y-84994035D01*
X71991401Y-84858495D01*
X72158495Y-84691401D01*
X72288425Y-84505842D01*
X72343002Y-84462217D01*
X72412500Y-84455023D01*
X72474855Y-84486546D01*
X72491575Y-84505842D01*
X72621500Y-84691395D01*
X72621505Y-84691401D01*
X72788599Y-84858495D01*
X72885384Y-84926265D01*
X72982165Y-84994032D01*
X72982167Y-84994033D01*
X72982170Y-84994035D01*
X73196337Y-85093903D01*
X73424592Y-85155063D01*
X73601034Y-85170500D01*
X73659999Y-85175659D01*
X73660000Y-85175659D01*
X73660001Y-85175659D01*
X73718966Y-85170500D01*
X73895408Y-85155063D01*
X74123663Y-85093903D01*
X74337830Y-84994035D01*
X74531401Y-84858495D01*
X74698495Y-84691401D01*
X74828425Y-84505842D01*
X74883002Y-84462217D01*
X74952500Y-84455023D01*
X75014855Y-84486546D01*
X75031575Y-84505842D01*
X75161500Y-84691395D01*
X75161505Y-84691401D01*
X75328599Y-84858495D01*
X75425384Y-84926265D01*
X75522165Y-84994032D01*
X75522167Y-84994033D01*
X75522170Y-84994035D01*
X75736337Y-85093903D01*
X75964592Y-85155063D01*
X76141034Y-85170500D01*
X76199999Y-85175659D01*
X76200000Y-85175659D01*
X76200001Y-85175659D01*
X76258966Y-85170500D01*
X76435408Y-85155063D01*
X76663663Y-85093903D01*
X76877830Y-84994035D01*
X77071401Y-84858495D01*
X77238495Y-84691401D01*
X77368425Y-84505842D01*
X77423002Y-84462217D01*
X77492500Y-84455023D01*
X77554855Y-84486546D01*
X77571575Y-84505842D01*
X77701500Y-84691395D01*
X77701505Y-84691401D01*
X77868599Y-84858495D01*
X77965384Y-84926265D01*
X78062165Y-84994032D01*
X78062167Y-84994033D01*
X78062170Y-84994035D01*
X78276337Y-85093903D01*
X78504592Y-85155063D01*
X78681034Y-85170500D01*
X78739999Y-85175659D01*
X78740000Y-85175659D01*
X78740001Y-85175659D01*
X78798966Y-85170500D01*
X78975408Y-85155063D01*
X79203663Y-85093903D01*
X79417830Y-84994035D01*
X79611401Y-84858495D01*
X79778495Y-84691401D01*
X79914035Y-84497830D01*
X80013903Y-84283663D01*
X80075063Y-84055408D01*
X80095659Y-83820000D01*
X80075063Y-83584592D01*
X80013903Y-83356337D01*
X79914035Y-83142171D01*
X79908425Y-83134158D01*
X79778494Y-82948597D01*
X79611402Y-82781506D01*
X79611396Y-82781501D01*
X79425842Y-82651575D01*
X79382217Y-82596998D01*
X79375023Y-82527500D01*
X79406546Y-82465145D01*
X79425842Y-82448425D01*
X79488800Y-82404341D01*
X79611401Y-82318495D01*
X79778495Y-82151401D01*
X79914035Y-81957830D01*
X80013903Y-81743663D01*
X80075063Y-81515408D01*
X80095659Y-81280000D01*
X80075063Y-81044592D01*
X80013903Y-80816337D01*
X79914035Y-80602171D01*
X79908425Y-80594158D01*
X79778494Y-80408597D01*
X79611402Y-80241506D01*
X79611395Y-80241501D01*
X79417834Y-80105967D01*
X79417830Y-80105965D01*
X79409499Y-80102080D01*
X79203663Y-80006097D01*
X79203659Y-80006096D01*
X79203655Y-80006094D01*
X78975413Y-79944938D01*
X78975403Y-79944936D01*
X78740001Y-79924341D01*
X78739999Y-79924341D01*
X78504596Y-79944936D01*
X78504586Y-79944938D01*
X78276344Y-80006094D01*
X78276335Y-80006098D01*
X78062171Y-80105964D01*
X78062169Y-80105965D01*
X77868597Y-80241505D01*
X77701505Y-80408597D01*
X77571575Y-80594158D01*
X77516998Y-80637783D01*
X77447500Y-80644977D01*
X77385145Y-80613454D01*
X77368425Y-80594158D01*
X77238494Y-80408597D01*
X77071402Y-80241506D01*
X77071395Y-80241501D01*
X76877834Y-80105967D01*
X76877830Y-80105965D01*
X76869499Y-80102080D01*
X76663663Y-80006097D01*
X76663659Y-80006096D01*
X76663655Y-80006094D01*
X76435413Y-79944938D01*
X76435403Y-79944936D01*
X76200001Y-79924341D01*
X76199999Y-79924341D01*
X75964596Y-79944936D01*
X75964586Y-79944938D01*
X75736344Y-80006094D01*
X75736335Y-80006098D01*
X75522171Y-80105964D01*
X75522169Y-80105965D01*
X75328597Y-80241505D01*
X75161505Y-80408597D01*
X75031575Y-80594158D01*
X74976998Y-80637783D01*
X74907500Y-80644977D01*
X74845145Y-80613454D01*
X74828425Y-80594158D01*
X74698494Y-80408597D01*
X74531402Y-80241506D01*
X74531395Y-80241501D01*
X74337834Y-80105967D01*
X74337830Y-80105965D01*
X74329499Y-80102080D01*
X74123663Y-80006097D01*
X74123659Y-80006096D01*
X74123655Y-80006094D01*
X73895413Y-79944938D01*
X73895403Y-79944936D01*
X73660001Y-79924341D01*
X73659999Y-79924341D01*
X73424596Y-79944936D01*
X73424586Y-79944938D01*
X73196344Y-80006094D01*
X73196335Y-80006098D01*
X72982171Y-80105964D01*
X72982169Y-80105965D01*
X72788597Y-80241505D01*
X72621505Y-80408597D01*
X72491575Y-80594158D01*
X72436998Y-80637783D01*
X72367500Y-80644977D01*
X72305145Y-80613454D01*
X72288425Y-80594158D01*
X72158494Y-80408597D01*
X71991402Y-80241506D01*
X71991395Y-80241501D01*
X71797834Y-80105967D01*
X71797830Y-80105965D01*
X71789499Y-80102080D01*
X71583663Y-80006097D01*
X71583659Y-80006096D01*
X71583655Y-80006094D01*
X71355413Y-79944938D01*
X71355403Y-79944936D01*
X71120001Y-79924341D01*
X71119999Y-79924341D01*
X70884596Y-79944936D01*
X70884586Y-79944938D01*
X70656344Y-80006094D01*
X70656335Y-80006098D01*
X70442171Y-80105964D01*
X70442169Y-80105965D01*
X70248597Y-80241505D01*
X70081505Y-80408597D01*
X69951575Y-80594158D01*
X69896998Y-80637783D01*
X69827500Y-80644977D01*
X69765145Y-80613454D01*
X69748425Y-80594158D01*
X69618494Y-80408597D01*
X69451402Y-80241506D01*
X69451395Y-80241501D01*
X69257834Y-80105967D01*
X69257830Y-80105965D01*
X69249499Y-80102080D01*
X69043663Y-80006097D01*
X69043659Y-80006096D01*
X69043655Y-80006094D01*
X68815413Y-79944938D01*
X68815403Y-79944936D01*
X68580001Y-79924341D01*
X68579999Y-79924341D01*
X68344596Y-79944936D01*
X68344586Y-79944938D01*
X68116344Y-80006094D01*
X68116335Y-80006098D01*
X67902171Y-80105964D01*
X67902169Y-80105965D01*
X67708597Y-80241505D01*
X67541505Y-80408597D01*
X67411575Y-80594158D01*
X67356998Y-80637783D01*
X67287500Y-80644977D01*
X67225145Y-80613454D01*
X67208425Y-80594158D01*
X67078494Y-80408597D01*
X66911402Y-80241506D01*
X66911395Y-80241501D01*
X66717834Y-80105967D01*
X66717830Y-80105965D01*
X66709499Y-80102080D01*
X66503663Y-80006097D01*
X66503659Y-80006096D01*
X66503655Y-80006094D01*
X66275413Y-79944938D01*
X66275403Y-79944936D01*
X66040001Y-79924341D01*
X66039999Y-79924341D01*
X65804596Y-79944936D01*
X65804586Y-79944938D01*
X65576344Y-80006094D01*
X65576335Y-80006098D01*
X65362171Y-80105964D01*
X65362169Y-80105965D01*
X65168597Y-80241505D01*
X65001505Y-80408597D01*
X64871575Y-80594158D01*
X64816998Y-80637783D01*
X64747500Y-80644977D01*
X64685145Y-80613454D01*
X64668425Y-80594158D01*
X64538494Y-80408597D01*
X64371402Y-80241506D01*
X64371395Y-80241501D01*
X64177834Y-80105967D01*
X64177830Y-80105965D01*
X64169499Y-80102080D01*
X63963663Y-80006097D01*
X63963659Y-80006096D01*
X63963655Y-80006094D01*
X63735413Y-79944938D01*
X63735403Y-79944936D01*
X63500001Y-79924341D01*
X63499999Y-79924341D01*
X63264596Y-79944936D01*
X63264586Y-79944938D01*
X63036344Y-80006094D01*
X63036335Y-80006098D01*
X62822171Y-80105964D01*
X62822169Y-80105965D01*
X62628597Y-80241505D01*
X62461505Y-80408597D01*
X62331575Y-80594158D01*
X62276998Y-80637783D01*
X62207500Y-80644977D01*
X62145145Y-80613454D01*
X62128425Y-80594158D01*
X61998494Y-80408597D01*
X61831402Y-80241506D01*
X61831395Y-80241501D01*
X61637834Y-80105967D01*
X61637830Y-80105965D01*
X61629499Y-80102080D01*
X61423663Y-80006097D01*
X61423659Y-80006096D01*
X61423655Y-80006094D01*
X61195413Y-79944938D01*
X61195403Y-79944936D01*
X60960001Y-79924341D01*
X60959999Y-79924341D01*
X60724596Y-79944936D01*
X60724586Y-79944938D01*
X60496344Y-80006094D01*
X60496335Y-80006098D01*
X60466903Y-80019822D01*
X60397826Y-80030313D01*
X60334042Y-80001792D01*
X60295803Y-79943315D01*
X60290500Y-79907439D01*
X60290500Y-78691996D01*
X60310185Y-78624957D01*
X60326814Y-78604320D01*
X64001135Y-74929998D01*
X76164532Y-74929998D01*
X76164532Y-74930001D01*
X76184364Y-75156686D01*
X76184366Y-75156697D01*
X76243258Y-75376488D01*
X76243261Y-75376497D01*
X76339431Y-75582732D01*
X76339432Y-75582734D01*
X76469954Y-75769141D01*
X76630858Y-75930045D01*
X76630861Y-75930047D01*
X76817266Y-76060568D01*
X77023504Y-76156739D01*
X77243308Y-76215635D01*
X77405230Y-76229801D01*
X77469998Y-76235468D01*
X77470000Y-76235468D01*
X77470002Y-76235468D01*
X77526673Y-76230509D01*
X77696692Y-76215635D01*
X77916496Y-76156739D01*
X78122734Y-76060568D01*
X78309139Y-75930047D01*
X78470047Y-75769139D01*
X78600568Y-75582734D01*
X78696739Y-75376496D01*
X78755635Y-75156692D01*
X78775468Y-74930000D01*
X78755635Y-74703308D01*
X78696739Y-74483504D01*
X78600568Y-74277266D01*
X78470047Y-74090861D01*
X78470045Y-74090858D01*
X78309141Y-73929954D01*
X78122734Y-73799432D01*
X78122732Y-73799431D01*
X77916497Y-73703261D01*
X77916488Y-73703258D01*
X77696697Y-73644366D01*
X77696693Y-73644365D01*
X77696692Y-73644365D01*
X77696691Y-73644364D01*
X77696686Y-73644364D01*
X77470002Y-73624532D01*
X77469998Y-73624532D01*
X77243313Y-73644364D01*
X77243302Y-73644366D01*
X77023511Y-73703258D01*
X77023502Y-73703261D01*
X76817267Y-73799431D01*
X76817265Y-73799432D01*
X76630858Y-73929954D01*
X76469954Y-74090858D01*
X76339432Y-74277265D01*
X76339431Y-74277267D01*
X76243261Y-74483502D01*
X76243258Y-74483511D01*
X76184366Y-74703302D01*
X76184364Y-74703313D01*
X76164532Y-74929998D01*
X64001135Y-74929998D01*
X64958706Y-73972427D01*
X64958711Y-73972424D01*
X64968914Y-73962220D01*
X64968916Y-73962220D01*
X65080720Y-73850416D01*
X65159777Y-73713484D01*
X65200700Y-73560757D01*
X65200700Y-72357627D01*
X65220385Y-72290588D01*
X65273189Y-72244833D01*
X65342347Y-72234889D01*
X65382174Y-72248676D01*
X65382360Y-72248280D01*
X65386197Y-72250069D01*
X65386716Y-72250249D01*
X65387256Y-72250561D01*
X65387266Y-72250568D01*
X65593504Y-72346739D01*
X65813308Y-72405635D01*
X65975230Y-72419801D01*
X66039998Y-72425468D01*
X66040000Y-72425468D01*
X66040002Y-72425468D01*
X66096807Y-72420498D01*
X66266692Y-72405635D01*
X66486496Y-72346739D01*
X66692734Y-72250568D01*
X66879139Y-72120047D01*
X67040047Y-71959139D01*
X67170568Y-71772734D01*
X67197618Y-71714724D01*
X67243790Y-71662285D01*
X67310983Y-71643133D01*
X67377865Y-71663348D01*
X67422382Y-71714725D01*
X67449429Y-71772728D01*
X67449432Y-71772734D01*
X67579954Y-71959141D01*
X67740858Y-72120045D01*
X67740861Y-72120047D01*
X67927266Y-72250568D01*
X68133504Y-72346739D01*
X68353308Y-72405635D01*
X68515230Y-72419801D01*
X68579998Y-72425468D01*
X68580000Y-72425468D01*
X68580002Y-72425468D01*
X68636807Y-72420498D01*
X68806692Y-72405635D01*
X69026496Y-72346739D01*
X69232734Y-72250568D01*
X69419139Y-72120047D01*
X69580047Y-71959139D01*
X69710568Y-71772734D01*
X69737618Y-71714724D01*
X69783790Y-71662285D01*
X69850983Y-71643133D01*
X69917865Y-71663348D01*
X69962382Y-71714725D01*
X69989429Y-71772728D01*
X69989432Y-71772734D01*
X70119954Y-71959141D01*
X70280858Y-72120045D01*
X70280861Y-72120047D01*
X70467266Y-72250568D01*
X70673504Y-72346739D01*
X70893308Y-72405635D01*
X71055230Y-72419801D01*
X71119998Y-72425468D01*
X71120000Y-72425468D01*
X71120002Y-72425468D01*
X71176807Y-72420498D01*
X71346692Y-72405635D01*
X71566496Y-72346739D01*
X71772734Y-72250568D01*
X71959139Y-72120047D01*
X72120047Y-71959139D01*
X72250568Y-71772734D01*
X72346739Y-71566496D01*
X72405635Y-71346692D01*
X72425468Y-71120000D01*
X72405635Y-70893308D01*
X72346739Y-70673504D01*
X72250568Y-70467266D01*
X72120047Y-70280861D01*
X72120045Y-70280858D01*
X71959141Y-70119954D01*
X71772734Y-69989432D01*
X71772732Y-69989431D01*
X71566497Y-69893261D01*
X71566488Y-69893258D01*
X71346697Y-69834366D01*
X71346693Y-69834365D01*
X71346692Y-69834365D01*
X71346691Y-69834364D01*
X71346686Y-69834364D01*
X71120002Y-69814532D01*
X71119998Y-69814532D01*
X70893313Y-69834364D01*
X70893302Y-69834366D01*
X70673511Y-69893258D01*
X70673502Y-69893261D01*
X70467267Y-69989431D01*
X70467265Y-69989432D01*
X70280858Y-70119954D01*
X70119954Y-70280858D01*
X69989432Y-70467265D01*
X69989431Y-70467267D01*
X69962382Y-70525275D01*
X69916209Y-70577714D01*
X69849016Y-70596866D01*
X69782135Y-70576650D01*
X69737618Y-70525275D01*
X69710568Y-70467267D01*
X69710567Y-70467265D01*
X69580045Y-70280858D01*
X69419141Y-70119954D01*
X69232734Y-69989432D01*
X69232732Y-69989431D01*
X69026497Y-69893261D01*
X69026488Y-69893258D01*
X68806697Y-69834366D01*
X68806693Y-69834365D01*
X68806692Y-69834365D01*
X68806691Y-69834364D01*
X68806686Y-69834364D01*
X68580002Y-69814532D01*
X68579998Y-69814532D01*
X68353313Y-69834364D01*
X68353302Y-69834366D01*
X68133511Y-69893258D01*
X68133502Y-69893261D01*
X67927267Y-69989431D01*
X67927265Y-69989432D01*
X67740858Y-70119954D01*
X67579954Y-70280858D01*
X67449432Y-70467265D01*
X67449431Y-70467267D01*
X67422382Y-70525275D01*
X67376209Y-70577714D01*
X67309016Y-70596866D01*
X67242135Y-70576650D01*
X67197618Y-70525275D01*
X67170568Y-70467267D01*
X67170567Y-70467265D01*
X67040045Y-70280858D01*
X66879141Y-70119954D01*
X66692734Y-69989432D01*
X66692732Y-69989431D01*
X66486497Y-69893261D01*
X66486488Y-69893258D01*
X66266697Y-69834366D01*
X66266693Y-69834365D01*
X66266692Y-69834365D01*
X66266691Y-69834364D01*
X66266686Y-69834364D01*
X66040002Y-69814532D01*
X66039998Y-69814532D01*
X65813313Y-69834364D01*
X65813302Y-69834366D01*
X65593511Y-69893258D01*
X65593502Y-69893261D01*
X65387265Y-69989432D01*
X65386700Y-69989759D01*
X65386419Y-69989827D01*
X65382360Y-69991720D01*
X65381979Y-69990904D01*
X65318800Y-70006232D01*
X65252773Y-69983380D01*
X65209583Y-69928459D01*
X65200700Y-69882372D01*
X65200700Y-67309998D01*
X76164532Y-67309998D01*
X76164532Y-67310001D01*
X76184364Y-67536686D01*
X76184366Y-67536697D01*
X76243258Y-67756488D01*
X76243261Y-67756497D01*
X76339431Y-67962732D01*
X76339432Y-67962734D01*
X76469954Y-68149141D01*
X76630858Y-68310045D01*
X76630861Y-68310047D01*
X76817266Y-68440568D01*
X77023504Y-68536739D01*
X77243308Y-68595635D01*
X77405230Y-68609801D01*
X77469998Y-68615468D01*
X77470000Y-68615468D01*
X77470002Y-68615468D01*
X77526673Y-68610509D01*
X77696692Y-68595635D01*
X77916496Y-68536739D01*
X78122734Y-68440568D01*
X78309139Y-68310047D01*
X78470047Y-68149139D01*
X78600568Y-67962734D01*
X78696739Y-67756496D01*
X78755635Y-67536692D01*
X78775468Y-67310000D01*
X78755635Y-67083308D01*
X78696739Y-66863504D01*
X78600568Y-66657266D01*
X78470047Y-66470861D01*
X78470045Y-66470858D01*
X78309141Y-66309954D01*
X78122734Y-66179432D01*
X78122732Y-66179431D01*
X77916497Y-66083261D01*
X77916488Y-66083258D01*
X77696697Y-66024366D01*
X77696693Y-66024365D01*
X77696692Y-66024365D01*
X77696691Y-66024364D01*
X77696686Y-66024364D01*
X77470002Y-66004532D01*
X77469998Y-66004532D01*
X77243313Y-66024364D01*
X77243302Y-66024366D01*
X77023511Y-66083258D01*
X77023502Y-66083261D01*
X76817267Y-66179431D01*
X76817265Y-66179432D01*
X76630858Y-66309954D01*
X76469954Y-66470858D01*
X76339432Y-66657265D01*
X76339431Y-66657267D01*
X76243261Y-66863502D01*
X76243258Y-66863511D01*
X76184366Y-67083302D01*
X76184364Y-67083313D01*
X76164532Y-67309998D01*
X65200700Y-67309998D01*
X65200700Y-62947602D01*
X65220385Y-62880563D01*
X65273189Y-62834808D01*
X65342347Y-62824864D01*
X65377101Y-62835218D01*
X65449337Y-62868903D01*
X65677592Y-62930063D01*
X65854034Y-62945500D01*
X65912999Y-62950659D01*
X65913000Y-62950659D01*
X65913001Y-62950659D01*
X65971966Y-62945500D01*
X66148408Y-62930063D01*
X66376663Y-62868903D01*
X66590830Y-62769035D01*
X66784401Y-62633495D01*
X66951495Y-62466401D01*
X67081425Y-62280842D01*
X67136002Y-62237217D01*
X67205500Y-62230023D01*
X67267855Y-62261546D01*
X67284575Y-62280842D01*
X67414281Y-62466082D01*
X67414505Y-62466401D01*
X67581599Y-62633495D01*
X67672622Y-62697230D01*
X67775165Y-62769032D01*
X67775167Y-62769033D01*
X67775170Y-62769035D01*
X67989337Y-62868903D01*
X68217592Y-62930063D01*
X68394034Y-62945500D01*
X68452999Y-62950659D01*
X68453000Y-62950659D01*
X68453001Y-62950659D01*
X68511966Y-62945500D01*
X68688408Y-62930063D01*
X68916663Y-62868903D01*
X69130830Y-62769035D01*
X69324401Y-62633495D01*
X69446329Y-62511566D01*
X69507648Y-62478084D01*
X69577340Y-62483068D01*
X69633274Y-62524939D01*
X69650189Y-62555917D01*
X69699202Y-62687328D01*
X69699206Y-62687335D01*
X69785452Y-62802544D01*
X69785455Y-62802547D01*
X69900664Y-62888793D01*
X69900671Y-62888797D01*
X70035517Y-62939091D01*
X70035516Y-62939091D01*
X70042444Y-62939835D01*
X70095127Y-62945500D01*
X71890872Y-62945499D01*
X71950483Y-62939091D01*
X72085331Y-62888796D01*
X72200546Y-62802546D01*
X72286796Y-62687331D01*
X72337091Y-62552483D01*
X72343500Y-62492873D01*
X72343499Y-60697128D01*
X72337091Y-60637517D01*
X72335810Y-60634083D01*
X72286797Y-60502671D01*
X72286793Y-60502664D01*
X72200547Y-60387455D01*
X72200544Y-60387452D01*
X72085335Y-60301206D01*
X72085328Y-60301202D01*
X71950482Y-60250908D01*
X71950483Y-60250908D01*
X71890883Y-60244501D01*
X71890881Y-60244500D01*
X71890873Y-60244500D01*
X71890864Y-60244500D01*
X70095129Y-60244500D01*
X70095123Y-60244501D01*
X70035516Y-60250908D01*
X69900671Y-60301202D01*
X69900664Y-60301206D01*
X69785455Y-60387452D01*
X69785452Y-60387455D01*
X69699206Y-60502664D01*
X69699203Y-60502669D01*
X69650189Y-60634083D01*
X69608317Y-60690016D01*
X69542853Y-60714433D01*
X69474580Y-60699581D01*
X69446326Y-60678430D01*
X69324402Y-60556506D01*
X69324395Y-60556501D01*
X69130834Y-60420967D01*
X69130830Y-60420965D01*
X69108000Y-60410319D01*
X68916663Y-60321097D01*
X68916659Y-60321096D01*
X68916655Y-60321094D01*
X68688413Y-60259938D01*
X68688403Y-60259936D01*
X68453001Y-60239341D01*
X68452999Y-60239341D01*
X68217596Y-60259936D01*
X68217586Y-60259938D01*
X67989344Y-60321094D01*
X67989335Y-60321098D01*
X67775171Y-60420964D01*
X67775169Y-60420965D01*
X67581597Y-60556505D01*
X67414505Y-60723597D01*
X67284575Y-60909158D01*
X67229998Y-60952783D01*
X67160500Y-60959977D01*
X67098145Y-60928454D01*
X67081425Y-60909158D01*
X66951494Y-60723597D01*
X66784402Y-60556506D01*
X66784395Y-60556501D01*
X66590834Y-60420967D01*
X66590830Y-60420965D01*
X66568000Y-60410319D01*
X66376663Y-60321097D01*
X66376659Y-60321096D01*
X66376655Y-60321094D01*
X66148413Y-60259938D01*
X66148403Y-60259936D01*
X65913001Y-60239341D01*
X65912999Y-60239341D01*
X65677596Y-60259936D01*
X65677586Y-60259938D01*
X65449344Y-60321094D01*
X65449330Y-60321099D01*
X65377104Y-60354779D01*
X65308027Y-60365271D01*
X65244243Y-60336751D01*
X65206004Y-60278274D01*
X65200700Y-60242397D01*
X65200700Y-59999996D01*
X65220385Y-59932957D01*
X65237014Y-59912320D01*
X72768713Y-52380621D01*
X72768716Y-52380620D01*
X72880520Y-52268816D01*
X72930639Y-52182004D01*
X72941907Y-52162489D01*
X72992479Y-52114278D01*
X73049288Y-52100499D01*
X73247871Y-52100499D01*
X73247872Y-52100499D01*
X73307483Y-52094091D01*
X73442331Y-52043796D01*
X73557546Y-51957546D01*
X73643796Y-51842331D01*
X73694091Y-51707483D01*
X73700500Y-51647873D01*
X73700499Y-50799998D01*
X78694532Y-50799998D01*
X78694532Y-50800001D01*
X78714364Y-51026686D01*
X78714366Y-51026697D01*
X78773258Y-51246488D01*
X78773261Y-51246497D01*
X78869431Y-51452732D01*
X78869432Y-51452734D01*
X78999954Y-51639141D01*
X79160858Y-51800045D01*
X79160861Y-51800047D01*
X79347266Y-51930568D01*
X79553504Y-52026739D01*
X79773308Y-52085635D01*
X79935230Y-52099801D01*
X79999998Y-52105468D01*
X80000000Y-52105468D01*
X80000002Y-52105468D01*
X80056807Y-52100498D01*
X80226692Y-52085635D01*
X80446496Y-52026739D01*
X80652734Y-51930568D01*
X80839139Y-51800047D01*
X81000047Y-51639139D01*
X81130568Y-51452734D01*
X81226739Y-51246496D01*
X81285635Y-51026692D01*
X81305468Y-50800000D01*
X81285635Y-50573308D01*
X81226739Y-50353504D01*
X81130568Y-50147266D01*
X81000047Y-49960861D01*
X81000045Y-49960858D01*
X80839141Y-49799954D01*
X80652734Y-49669432D01*
X80652732Y-49669431D01*
X80446497Y-49573261D01*
X80446488Y-49573258D01*
X80226697Y-49514366D01*
X80226693Y-49514365D01*
X80226692Y-49514365D01*
X80226691Y-49514364D01*
X80226686Y-49514364D01*
X80000002Y-49494532D01*
X79999998Y-49494532D01*
X79773313Y-49514364D01*
X79773302Y-49514366D01*
X79553511Y-49573258D01*
X79553502Y-49573261D01*
X79347267Y-49669431D01*
X79347265Y-49669432D01*
X79160858Y-49799954D01*
X78999954Y-49960858D01*
X78869432Y-50147265D01*
X78869431Y-50147267D01*
X78773261Y-50353502D01*
X78773258Y-50353511D01*
X78714366Y-50573302D01*
X78714364Y-50573313D01*
X78694532Y-50799998D01*
X73700499Y-50799998D01*
X73700499Y-49952128D01*
X73694091Y-49892517D01*
X73659567Y-49799954D01*
X73643797Y-49757671D01*
X73643793Y-49757664D01*
X73557547Y-49642455D01*
X73557544Y-49642452D01*
X73442335Y-49556206D01*
X73442328Y-49556202D01*
X73307482Y-49505908D01*
X73307483Y-49505908D01*
X73247883Y-49499501D01*
X73247881Y-49499500D01*
X73247873Y-49499500D01*
X73247864Y-49499500D01*
X71552129Y-49499500D01*
X71552123Y-49499501D01*
X71492516Y-49505908D01*
X71357671Y-49556202D01*
X71357664Y-49556206D01*
X71242455Y-49642452D01*
X71242452Y-49642455D01*
X71156206Y-49757664D01*
X71156202Y-49757671D01*
X71105908Y-49892517D01*
X71099501Y-49952116D01*
X71099501Y-49952123D01*
X71099500Y-49952135D01*
X71099500Y-51647870D01*
X71099501Y-51647876D01*
X71105908Y-51707483D01*
X71156202Y-51842328D01*
X71156206Y-51842335D01*
X71242452Y-51957544D01*
X71242453Y-51957544D01*
X71242454Y-51957546D01*
X71262930Y-51972874D01*
X71271361Y-51979186D01*
X71313232Y-52035120D01*
X71318215Y-52104812D01*
X71284730Y-52166133D01*
X67551633Y-55899230D01*
X67490310Y-55932715D01*
X67420618Y-55927731D01*
X67364685Y-55885859D01*
X67340425Y-55822358D01*
X67325635Y-55653308D01*
X67266739Y-55433504D01*
X67170568Y-55227266D01*
X67040047Y-55040861D01*
X67040045Y-55040858D01*
X66879141Y-54879954D01*
X66692734Y-54749432D01*
X66692732Y-54749431D01*
X66486497Y-54653261D01*
X66486488Y-54653258D01*
X66266697Y-54594366D01*
X66266693Y-54594365D01*
X66266692Y-54594365D01*
X66266691Y-54594364D01*
X66266686Y-54594364D01*
X66040002Y-54574532D01*
X66039998Y-54574532D01*
X65813313Y-54594364D01*
X65813302Y-54594366D01*
X65593511Y-54653258D01*
X65593502Y-54653261D01*
X65387267Y-54749431D01*
X65387265Y-54749432D01*
X65200858Y-54879954D01*
X65039954Y-55040858D01*
X64909432Y-55227265D01*
X64909431Y-55227267D01*
X64813261Y-55433502D01*
X64813258Y-55433511D01*
X64754366Y-55653302D01*
X64754364Y-55653313D01*
X64734532Y-55879998D01*
X64734532Y-55880001D01*
X64754364Y-56106686D01*
X64754366Y-56106697D01*
X64813258Y-56326488D01*
X64813261Y-56326497D01*
X64909431Y-56532732D01*
X64909432Y-56532734D01*
X65039954Y-56719141D01*
X65200858Y-56880045D01*
X65200861Y-56880047D01*
X65387266Y-57010568D01*
X65593504Y-57106739D01*
X65813308Y-57165635D01*
X65982358Y-57180425D01*
X66047425Y-57205876D01*
X66088404Y-57262467D01*
X66092282Y-57332229D01*
X66059230Y-57391633D01*
X64231486Y-59219378D01*
X64119681Y-59331182D01*
X64119679Y-59331184D01*
X64095672Y-59372766D01*
X64085525Y-59390343D01*
X64040623Y-59468115D01*
X63999699Y-59620843D01*
X63999699Y-59620845D01*
X63999699Y-59788946D01*
X63999700Y-59788959D01*
X63999700Y-60203346D01*
X63980015Y-60270385D01*
X63927211Y-60316140D01*
X63858053Y-60326084D01*
X63842010Y-60322060D01*
X63841893Y-60322498D01*
X63608413Y-60259938D01*
X63608403Y-60259936D01*
X63373001Y-60239341D01*
X63372999Y-60239341D01*
X63137596Y-60259936D01*
X63137586Y-60259938D01*
X62909344Y-60321094D01*
X62909335Y-60321098D01*
X62695171Y-60420964D01*
X62695169Y-60420965D01*
X62501597Y-60556505D01*
X62334505Y-60723597D01*
X62204575Y-60909158D01*
X62149998Y-60952783D01*
X62080500Y-60959977D01*
X62018145Y-60928454D01*
X62001425Y-60909158D01*
X61871494Y-60723597D01*
X61704402Y-60556506D01*
X61704395Y-60556501D01*
X61510834Y-60420967D01*
X61510830Y-60420965D01*
X61488000Y-60410319D01*
X61296663Y-60321097D01*
X61296659Y-60321096D01*
X61296655Y-60321094D01*
X61068413Y-60259938D01*
X61068403Y-60259936D01*
X60833001Y-60239341D01*
X60832999Y-60239341D01*
X60597596Y-60259936D01*
X60597586Y-60259938D01*
X60369344Y-60321094D01*
X60369335Y-60321098D01*
X60155171Y-60420964D01*
X60155169Y-60420965D01*
X59961597Y-60556505D01*
X59794505Y-60723597D01*
X59664575Y-60909158D01*
X59609998Y-60952783D01*
X59540500Y-60959977D01*
X59478145Y-60928454D01*
X59461425Y-60909158D01*
X59331494Y-60723597D01*
X59164402Y-60556506D01*
X59164395Y-60556501D01*
X58970834Y-60420967D01*
X58970830Y-60420965D01*
X58948000Y-60410319D01*
X58756663Y-60321097D01*
X58756659Y-60321096D01*
X58756655Y-60321094D01*
X58528413Y-60259938D01*
X58528403Y-60259936D01*
X58293001Y-60239341D01*
X58292999Y-60239341D01*
X58057596Y-60259936D01*
X58057586Y-60259938D01*
X57829344Y-60321094D01*
X57829337Y-60321096D01*
X57829337Y-60321097D01*
X57814405Y-60328060D01*
X57785405Y-60341583D01*
X57716327Y-60352075D01*
X57652543Y-60323555D01*
X57614304Y-60265079D01*
X57609000Y-60229201D01*
X57609000Y-57130857D01*
X57628685Y-57063818D01*
X57681489Y-57018063D01*
X57750647Y-57008119D01*
X57785405Y-57018475D01*
X57973673Y-57106265D01*
X57973682Y-57106269D01*
X58169999Y-57158872D01*
X58170000Y-57158871D01*
X58170000Y-56195686D01*
X58174394Y-56200080D01*
X58265606Y-56252741D01*
X58367339Y-56280000D01*
X58472661Y-56280000D01*
X58574394Y-56252741D01*
X58665606Y-56200080D01*
X58670000Y-56195686D01*
X58670000Y-57158872D01*
X58866317Y-57106269D01*
X58866326Y-57106265D01*
X59072482Y-57010134D01*
X59258820Y-56879657D01*
X59419657Y-56718820D01*
X59550134Y-56532482D01*
X59646265Y-56326326D01*
X59646269Y-56326317D01*
X59698872Y-56130000D01*
X58735686Y-56130000D01*
X58740080Y-56125606D01*
X58792741Y-56034394D01*
X58820000Y-55932661D01*
X58820000Y-55827339D01*
X58792741Y-55725606D01*
X58740080Y-55634394D01*
X58735686Y-55630000D01*
X59698872Y-55630000D01*
X59698872Y-55629999D01*
X60951127Y-55629999D01*
X60951128Y-55630000D01*
X61914314Y-55630000D01*
X61909920Y-55634394D01*
X61857259Y-55725606D01*
X61830000Y-55827339D01*
X61830000Y-55932661D01*
X61857259Y-56034394D01*
X61909920Y-56125606D01*
X61914314Y-56130000D01*
X60951128Y-56130000D01*
X61003730Y-56326317D01*
X61003734Y-56326326D01*
X61099865Y-56532482D01*
X61230342Y-56718820D01*
X61391179Y-56879657D01*
X61577517Y-57010134D01*
X61783673Y-57106265D01*
X61783682Y-57106269D01*
X61979999Y-57158872D01*
X61980000Y-57158871D01*
X61980000Y-56195686D01*
X61984394Y-56200080D01*
X62075606Y-56252741D01*
X62177339Y-56280000D01*
X62282661Y-56280000D01*
X62384394Y-56252741D01*
X62475606Y-56200080D01*
X62480000Y-56195686D01*
X62480000Y-57158872D01*
X62676317Y-57106269D01*
X62676326Y-57106265D01*
X62882482Y-57010134D01*
X63068820Y-56879657D01*
X63229657Y-56718820D01*
X63360134Y-56532482D01*
X63456265Y-56326326D01*
X63456269Y-56326317D01*
X63508872Y-56130000D01*
X62545686Y-56130000D01*
X62550080Y-56125606D01*
X62602741Y-56034394D01*
X62630000Y-55932661D01*
X62630000Y-55827339D01*
X62602741Y-55725606D01*
X62550080Y-55634394D01*
X62545686Y-55630000D01*
X63508872Y-55630000D01*
X63508872Y-55629999D01*
X63456269Y-55433682D01*
X63456265Y-55433673D01*
X63360134Y-55227517D01*
X63229657Y-55041179D01*
X63068820Y-54880342D01*
X62882482Y-54749865D01*
X62676328Y-54653734D01*
X62480000Y-54601127D01*
X62480000Y-55564314D01*
X62475606Y-55559920D01*
X62384394Y-55507259D01*
X62282661Y-55480000D01*
X62177339Y-55480000D01*
X62075606Y-55507259D01*
X61984394Y-55559920D01*
X61980000Y-55564314D01*
X61980000Y-54601127D01*
X61783671Y-54653734D01*
X61577517Y-54749865D01*
X61391179Y-54880342D01*
X61230342Y-55041179D01*
X61099865Y-55227517D01*
X61003734Y-55433673D01*
X61003730Y-55433682D01*
X60951127Y-55629999D01*
X59698872Y-55629999D01*
X59646269Y-55433682D01*
X59646265Y-55433673D01*
X59550134Y-55227517D01*
X59419657Y-55041179D01*
X59258820Y-54880342D01*
X59072482Y-54749865D01*
X58866328Y-54653734D01*
X58670000Y-54601127D01*
X58670000Y-55564314D01*
X58665606Y-55559920D01*
X58574394Y-55507259D01*
X58472661Y-55480000D01*
X58367339Y-55480000D01*
X58265606Y-55507259D01*
X58174394Y-55559920D01*
X58170000Y-55564314D01*
X58170000Y-54601127D01*
X57973669Y-54653735D01*
X57785404Y-54741524D01*
X57716327Y-54752016D01*
X57652543Y-54723496D01*
X57614304Y-54665019D01*
X57609000Y-54629142D01*
X57609000Y-50579445D01*
X57609000Y-50579443D01*
X57568077Y-50426716D01*
X57568077Y-50426715D01*
X57539614Y-50377416D01*
X57525808Y-50353503D01*
X57525807Y-50353502D01*
X57489021Y-50289786D01*
X57489020Y-50289784D01*
X57377216Y-50177980D01*
X57377215Y-50177979D01*
X57372885Y-50173649D01*
X57372874Y-50173639D01*
X55901941Y-48702706D01*
X55868456Y-48641383D01*
X55869847Y-48582931D01*
X55870611Y-48580080D01*
X55895635Y-48486692D01*
X55915468Y-48260000D01*
X55895635Y-48033308D01*
X55836739Y-47813504D01*
X55740568Y-47607266D01*
X55610047Y-47420861D01*
X55610045Y-47420858D01*
X55449141Y-47259954D01*
X55262734Y-47129432D01*
X55262732Y-47129431D01*
X55056497Y-47033261D01*
X55056488Y-47033258D01*
X54836697Y-46974366D01*
X54836693Y-46974365D01*
X54836692Y-46974365D01*
X54836691Y-46974364D01*
X54836686Y-46974364D01*
X54610002Y-46954532D01*
X54609998Y-46954532D01*
X54383313Y-46974364D01*
X54383302Y-46974366D01*
X54163511Y-47033258D01*
X54163502Y-47033261D01*
X53957267Y-47129431D01*
X53957265Y-47129432D01*
X53770858Y-47259954D01*
X53609954Y-47420858D01*
X53479432Y-47607265D01*
X53479431Y-47607267D01*
X53383261Y-47813502D01*
X53383258Y-47813511D01*
X53324366Y-48033302D01*
X53324364Y-48033313D01*
X53304532Y-48259998D01*
X53304532Y-48260001D01*
X53324364Y-48486686D01*
X53324366Y-48486697D01*
X53383258Y-48706488D01*
X53383261Y-48706497D01*
X53479431Y-48912732D01*
X53479432Y-48912734D01*
X53609953Y-49099140D01*
X53770858Y-49260045D01*
X53770861Y-49260047D01*
X53957266Y-49390568D01*
X54163504Y-49486739D01*
X54383308Y-49545635D01*
X54545230Y-49559801D01*
X54609998Y-49565468D01*
X54610000Y-49565468D01*
X54610002Y-49565468D01*
X54666673Y-49560509D01*
X54836692Y-49545635D01*
X54932932Y-49519847D01*
X55002781Y-49521510D01*
X55052706Y-49551941D01*
X56371681Y-50870916D01*
X56405166Y-50932239D01*
X56408000Y-50958597D01*
X56408000Y-60215678D01*
X56388315Y-60282717D01*
X56335511Y-60328472D01*
X56266353Y-60338416D01*
X56231596Y-60328060D01*
X56216669Y-60321099D01*
X56216655Y-60321094D01*
X55988413Y-60259938D01*
X55988403Y-60259936D01*
X55753001Y-60239341D01*
X55752999Y-60239341D01*
X55517596Y-60259936D01*
X55517586Y-60259938D01*
X55289344Y-60321094D01*
X55289335Y-60321098D01*
X55075171Y-60420964D01*
X55075169Y-60420965D01*
X54881597Y-60556505D01*
X54714505Y-60723597D01*
X54584575Y-60909158D01*
X54529998Y-60952783D01*
X54460500Y-60959977D01*
X54398145Y-60928454D01*
X54381425Y-60909158D01*
X54251494Y-60723597D01*
X54084402Y-60556506D01*
X54084395Y-60556501D01*
X53890834Y-60420967D01*
X53890830Y-60420965D01*
X53868000Y-60410319D01*
X53676663Y-60321097D01*
X53676659Y-60321096D01*
X53676655Y-60321094D01*
X53448413Y-60259938D01*
X53448403Y-60259936D01*
X53213001Y-60239341D01*
X53212999Y-60239341D01*
X52977596Y-60259936D01*
X52977586Y-60259938D01*
X52749344Y-60321094D01*
X52749337Y-60321096D01*
X52749337Y-60321097D01*
X52733522Y-60328472D01*
X52726805Y-60331604D01*
X52657727Y-60342096D01*
X52593943Y-60313576D01*
X52555704Y-60255100D01*
X52550400Y-60219222D01*
X52550400Y-55879998D01*
X53304532Y-55879998D01*
X53304532Y-55880001D01*
X53324364Y-56106686D01*
X53324366Y-56106697D01*
X53383258Y-56326488D01*
X53383261Y-56326497D01*
X53479431Y-56532732D01*
X53479432Y-56532734D01*
X53609954Y-56719141D01*
X53770858Y-56880045D01*
X53770861Y-56880047D01*
X53957266Y-57010568D01*
X54163504Y-57106739D01*
X54383308Y-57165635D01*
X54545230Y-57179801D01*
X54609998Y-57185468D01*
X54610000Y-57185468D01*
X54610002Y-57185468D01*
X54667653Y-57180424D01*
X54836692Y-57165635D01*
X55056496Y-57106739D01*
X55262734Y-57010568D01*
X55449139Y-56880047D01*
X55610047Y-56719139D01*
X55740568Y-56532734D01*
X55836739Y-56326496D01*
X55895635Y-56106692D01*
X55915468Y-55880000D01*
X55895635Y-55653308D01*
X55836739Y-55433504D01*
X55740568Y-55227266D01*
X55610047Y-55040861D01*
X55610045Y-55040858D01*
X55449141Y-54879954D01*
X55262734Y-54749432D01*
X55262732Y-54749431D01*
X55056497Y-54653261D01*
X55056488Y-54653258D01*
X54836697Y-54594366D01*
X54836693Y-54594365D01*
X54836692Y-54594365D01*
X54836691Y-54594364D01*
X54836686Y-54594364D01*
X54610002Y-54574532D01*
X54609998Y-54574532D01*
X54383313Y-54594364D01*
X54383302Y-54594366D01*
X54163511Y-54653258D01*
X54163502Y-54653261D01*
X53957267Y-54749431D01*
X53957265Y-54749432D01*
X53770858Y-54879954D01*
X53609954Y-55040858D01*
X53479432Y-55227265D01*
X53479431Y-55227267D01*
X53383261Y-55433502D01*
X53383258Y-55433511D01*
X53324366Y-55653302D01*
X53324364Y-55653313D01*
X53304532Y-55879998D01*
X52550400Y-55879998D01*
X52550400Y-49330845D01*
X52550400Y-49330843D01*
X52509477Y-49178116D01*
X52509477Y-49178115D01*
X52463880Y-49099139D01*
X52430420Y-49041184D01*
X52318616Y-48929380D01*
X52314285Y-48925049D01*
X52314274Y-48925039D01*
X52091941Y-48702706D01*
X52058456Y-48641383D01*
X52059847Y-48582931D01*
X52060611Y-48580080D01*
X52085635Y-48486692D01*
X52105468Y-48260000D01*
X52085635Y-48033308D01*
X52026739Y-47813504D01*
X51930568Y-47607266D01*
X51800047Y-47420861D01*
X51800045Y-47420858D01*
X51639141Y-47259954D01*
X51452734Y-47129432D01*
X51452732Y-47129431D01*
X51246497Y-47033261D01*
X51246488Y-47033258D01*
X51026697Y-46974366D01*
X51026693Y-46974365D01*
X51026692Y-46974365D01*
X51026691Y-46974364D01*
X51026686Y-46974364D01*
X50800002Y-46954532D01*
X50799998Y-46954532D01*
X50573313Y-46974364D01*
X50573302Y-46974366D01*
X50406293Y-47019116D01*
X50336443Y-47017453D01*
X50278581Y-46978290D01*
X50251077Y-46914062D01*
X50250200Y-46899341D01*
X50250200Y-40752695D01*
X50269885Y-40685656D01*
X50322689Y-40639901D01*
X50391847Y-40629957D01*
X50395732Y-40630579D01*
X50397658Y-40630918D01*
X50397666Y-40630920D01*
X50598681Y-40648506D01*
X50619999Y-40650372D01*
X50620000Y-40650372D01*
X50620001Y-40650372D01*
X50657055Y-40647130D01*
X50842334Y-40630920D01*
X51057913Y-40573156D01*
X51260186Y-40478835D01*
X51443007Y-40350822D01*
X51600822Y-40193007D01*
X51658427Y-40110737D01*
X51713002Y-40067115D01*
X51782501Y-40059923D01*
X51844855Y-40091445D01*
X51861569Y-40110733D01*
X51919178Y-40193007D01*
X52076993Y-40350822D01*
X52259814Y-40478835D01*
X52462087Y-40573156D01*
X52677666Y-40630920D01*
X52855533Y-40646481D01*
X52899999Y-40650372D01*
X52900000Y-40650372D01*
X52900001Y-40650372D01*
X52937055Y-40647130D01*
X53122334Y-40630920D01*
X53337913Y-40573156D01*
X53540186Y-40478835D01*
X53723007Y-40350822D01*
X53880822Y-40193007D01*
X53938427Y-40110737D01*
X53993002Y-40067115D01*
X54062501Y-40059923D01*
X54124855Y-40091445D01*
X54141569Y-40110733D01*
X54199178Y-40193007D01*
X54356993Y-40350822D01*
X54526626Y-40469600D01*
X54570248Y-40524175D01*
X54579500Y-40571173D01*
X54579500Y-44933330D01*
X54579499Y-44933348D01*
X54579499Y-45099054D01*
X54579498Y-45099054D01*
X54620423Y-45251785D01*
X54649358Y-45301900D01*
X54649359Y-45301904D01*
X54649360Y-45301904D01*
X54699479Y-45388714D01*
X54699481Y-45388717D01*
X54818349Y-45507585D01*
X54818355Y-45507590D01*
X57128058Y-47817293D01*
X57161543Y-47878616D01*
X57160152Y-47937067D01*
X57134366Y-48033302D01*
X57134364Y-48033313D01*
X57114532Y-48259998D01*
X57114532Y-48260001D01*
X57134364Y-48486686D01*
X57134366Y-48486697D01*
X57193258Y-48706488D01*
X57193261Y-48706497D01*
X57289431Y-48912732D01*
X57289432Y-48912734D01*
X57419953Y-49099140D01*
X57580858Y-49260045D01*
X57580861Y-49260047D01*
X57767266Y-49390568D01*
X57973504Y-49486739D01*
X58193308Y-49545635D01*
X58355230Y-49559801D01*
X58419998Y-49565468D01*
X58420000Y-49565468D01*
X58420002Y-49565468D01*
X58476673Y-49560509D01*
X58646692Y-49545635D01*
X58866496Y-49486739D01*
X59072734Y-49390568D01*
X59259139Y-49260047D01*
X59281544Y-49237642D01*
X59420047Y-49099140D01*
X59538912Y-48929380D01*
X59550568Y-48912734D01*
X59646739Y-48706496D01*
X59705635Y-48486692D01*
X59725468Y-48260000D01*
X59725468Y-48259998D01*
X60924532Y-48259998D01*
X60924532Y-48260001D01*
X60944364Y-48486686D01*
X60944366Y-48486697D01*
X61003258Y-48706488D01*
X61003261Y-48706497D01*
X61099431Y-48912732D01*
X61099432Y-48912734D01*
X61229953Y-49099140D01*
X61390858Y-49260045D01*
X61390861Y-49260047D01*
X61577266Y-49390568D01*
X61783504Y-49486739D01*
X62003308Y-49545635D01*
X62165230Y-49559801D01*
X62229998Y-49565468D01*
X62230000Y-49565468D01*
X62230002Y-49565468D01*
X62286673Y-49560509D01*
X62456692Y-49545635D01*
X62676496Y-49486739D01*
X62882734Y-49390568D01*
X63069139Y-49260047D01*
X63091544Y-49237642D01*
X63230047Y-49099140D01*
X63348912Y-48929380D01*
X63360568Y-48912734D01*
X63456739Y-48706496D01*
X63515635Y-48486692D01*
X63535468Y-48260000D01*
X63515635Y-48033308D01*
X63509389Y-48009999D01*
X64761127Y-48009999D01*
X64761128Y-48010000D01*
X65724314Y-48010000D01*
X65719920Y-48014394D01*
X65667259Y-48105606D01*
X65640000Y-48207339D01*
X65640000Y-48312661D01*
X65667259Y-48414394D01*
X65719920Y-48505606D01*
X65724314Y-48510000D01*
X64761128Y-48510000D01*
X64813730Y-48706317D01*
X64813734Y-48706326D01*
X64909865Y-48912482D01*
X65040342Y-49098820D01*
X65201179Y-49259657D01*
X65387517Y-49390134D01*
X65593673Y-49486265D01*
X65593682Y-49486269D01*
X65789999Y-49538872D01*
X65790000Y-49538871D01*
X65790000Y-48575686D01*
X65794394Y-48580080D01*
X65885606Y-48632741D01*
X65987339Y-48660000D01*
X66092661Y-48660000D01*
X66194394Y-48632741D01*
X66285606Y-48580080D01*
X66290000Y-48575686D01*
X66290000Y-49538872D01*
X66486317Y-49486269D01*
X66486326Y-49486265D01*
X66692482Y-49390134D01*
X66878820Y-49259657D01*
X67039657Y-49098820D01*
X67170134Y-48912482D01*
X67266265Y-48706326D01*
X67266269Y-48706317D01*
X67318872Y-48510000D01*
X66355686Y-48510000D01*
X66360080Y-48505606D01*
X66412741Y-48414394D01*
X66440000Y-48312661D01*
X66440000Y-48207339D01*
X66412741Y-48105606D01*
X66360080Y-48014394D01*
X66355686Y-48010000D01*
X67318872Y-48010000D01*
X67318872Y-48009999D01*
X67266269Y-47813682D01*
X67266265Y-47813673D01*
X67170134Y-47607517D01*
X67039657Y-47421179D01*
X66878820Y-47260342D01*
X66692482Y-47129865D01*
X66486328Y-47033734D01*
X66290000Y-46981127D01*
X66290000Y-47944314D01*
X66285606Y-47939920D01*
X66194394Y-47887259D01*
X66092661Y-47860000D01*
X65987339Y-47860000D01*
X65885606Y-47887259D01*
X65794394Y-47939920D01*
X65790000Y-47944314D01*
X65790000Y-46981127D01*
X65593671Y-47033734D01*
X65387517Y-47129865D01*
X65201179Y-47260342D01*
X65040342Y-47421179D01*
X64909865Y-47607517D01*
X64813734Y-47813673D01*
X64813730Y-47813682D01*
X64761127Y-48009999D01*
X63509389Y-48009999D01*
X63456739Y-47813504D01*
X63360568Y-47607266D01*
X63230047Y-47420861D01*
X63230045Y-47420858D01*
X63069141Y-47259954D01*
X62882734Y-47129432D01*
X62882732Y-47129431D01*
X62676497Y-47033261D01*
X62676488Y-47033258D01*
X62456697Y-46974366D01*
X62456693Y-46974365D01*
X62456692Y-46974365D01*
X62456691Y-46974364D01*
X62456686Y-46974364D01*
X62230002Y-46954532D01*
X62229998Y-46954532D01*
X62003313Y-46974364D01*
X62003302Y-46974366D01*
X61783511Y-47033258D01*
X61783502Y-47033261D01*
X61577267Y-47129431D01*
X61577265Y-47129432D01*
X61390858Y-47259954D01*
X61229954Y-47420858D01*
X61099432Y-47607265D01*
X61099431Y-47607267D01*
X61003261Y-47813502D01*
X61003258Y-47813511D01*
X60944366Y-48033302D01*
X60944364Y-48033313D01*
X60924532Y-48259998D01*
X59725468Y-48259998D01*
X59705635Y-48033308D01*
X59646739Y-47813504D01*
X59550568Y-47607266D01*
X59420047Y-47420861D01*
X59420045Y-47420858D01*
X59259141Y-47259954D01*
X59072734Y-47129432D01*
X59072732Y-47129431D01*
X58866497Y-47033261D01*
X58866488Y-47033258D01*
X58646697Y-46974366D01*
X58646693Y-46974365D01*
X58646692Y-46974365D01*
X58646691Y-46974364D01*
X58646686Y-46974364D01*
X58420002Y-46954532D01*
X58419998Y-46954532D01*
X58193313Y-46974364D01*
X58193302Y-46974366D01*
X58097067Y-47000152D01*
X58027217Y-46998489D01*
X57977293Y-46968058D01*
X55816819Y-44807584D01*
X55783334Y-44746261D01*
X55780500Y-44719903D01*
X55780500Y-40571173D01*
X55800185Y-40504134D01*
X55833372Y-40469601D01*
X56003007Y-40350822D01*
X56160822Y-40193007D01*
X56218427Y-40110737D01*
X56273002Y-40067115D01*
X56342501Y-40059923D01*
X56404855Y-40091445D01*
X56421569Y-40110733D01*
X56479178Y-40193007D01*
X56636993Y-40350822D01*
X56819814Y-40478835D01*
X57022087Y-40573156D01*
X57237666Y-40630920D01*
X57415533Y-40646481D01*
X57459999Y-40650372D01*
X57460000Y-40650372D01*
X57460001Y-40650372D01*
X57497055Y-40647130D01*
X57682334Y-40630920D01*
X57897913Y-40573156D01*
X58100186Y-40478835D01*
X58283007Y-40350822D01*
X58440822Y-40193007D01*
X58498731Y-40110304D01*
X58553306Y-40066681D01*
X58622804Y-40059487D01*
X58654199Y-40075358D01*
X58678924Y-40077522D01*
X59257037Y-39499409D01*
X59274075Y-39562993D01*
X59339901Y-39677007D01*
X59432993Y-39770099D01*
X59547007Y-39835925D01*
X59610590Y-39852962D01*
X59032476Y-40431074D01*
X59032477Y-40431075D01*
X59100062Y-40478398D01*
X59100064Y-40478399D01*
X59302252Y-40572681D01*
X59302263Y-40572685D01*
X59517751Y-40630425D01*
X59517758Y-40630426D01*
X59739998Y-40649870D01*
X59740002Y-40649870D01*
X59962241Y-40630426D01*
X59962248Y-40630425D01*
X60177736Y-40572685D01*
X60177747Y-40572681D01*
X60379931Y-40478401D01*
X60379933Y-40478400D01*
X60447522Y-40431074D01*
X59869409Y-39852962D01*
X59932993Y-39835925D01*
X60047007Y-39770099D01*
X60140099Y-39677007D01*
X60205925Y-39562993D01*
X60222962Y-39499409D01*
X60801074Y-40077522D01*
X60848400Y-40009933D01*
X60848401Y-40009931D01*
X60942681Y-39807747D01*
X60942685Y-39807736D01*
X61000425Y-39592248D01*
X61000426Y-39592241D01*
X61019870Y-39370001D01*
X61019870Y-39369998D01*
X61000426Y-39147758D01*
X61000425Y-39147751D01*
X60942685Y-38932263D01*
X60942681Y-38932252D01*
X60848399Y-38730064D01*
X60848398Y-38730062D01*
X60801075Y-38662477D01*
X60801074Y-38662476D01*
X60222962Y-39240589D01*
X60205925Y-39177007D01*
X60140099Y-39062993D01*
X60047007Y-38969901D01*
X59932993Y-38904075D01*
X59869410Y-38887037D01*
X60447522Y-38308924D01*
X60447521Y-38308923D01*
X60379937Y-38261601D01*
X60379935Y-38261600D01*
X60177747Y-38167318D01*
X60177736Y-38167314D01*
X59962248Y-38109574D01*
X59962241Y-38109573D01*
X59740002Y-38090130D01*
X59739998Y-38090130D01*
X59517758Y-38109573D01*
X59517747Y-38109575D01*
X59350997Y-38154256D01*
X59281148Y-38152593D01*
X59223285Y-38113430D01*
X59195781Y-38049202D01*
X59207368Y-37980300D01*
X59247781Y-37932906D01*
X59307522Y-37891074D01*
X58729409Y-37312962D01*
X58792993Y-37295925D01*
X58907007Y-37230099D01*
X59000099Y-37137007D01*
X59065925Y-37022993D01*
X59082962Y-36959409D01*
X59661074Y-37537522D01*
X59708400Y-37469933D01*
X59708401Y-37469931D01*
X59802681Y-37267747D01*
X59802685Y-37267736D01*
X59860425Y-37052248D01*
X59860426Y-37052241D01*
X59879870Y-36830001D01*
X59879870Y-36829998D01*
X59879870Y-36829996D01*
X64204584Y-36829996D01*
X64204584Y-36830003D01*
X64224229Y-37167298D01*
X64224230Y-37167309D01*
X64282896Y-37500017D01*
X64282899Y-37500031D01*
X64379801Y-37823710D01*
X64513621Y-38133939D01*
X64513627Y-38133952D01*
X64682560Y-38426553D01*
X64884318Y-38697561D01*
X64884323Y-38697567D01*
X64914747Y-38729814D01*
X65116183Y-38943323D01*
X65116189Y-38943328D01*
X65116191Y-38943330D01*
X65375001Y-39160499D01*
X65439561Y-39202960D01*
X65657292Y-39346164D01*
X65959224Y-39497800D01*
X66276717Y-39613358D01*
X66605480Y-39691276D01*
X66941065Y-39730500D01*
X66941072Y-39730500D01*
X67278928Y-39730500D01*
X67278935Y-39730500D01*
X67614520Y-39691276D01*
X67943283Y-39613358D01*
X68260776Y-39497800D01*
X68562708Y-39346164D01*
X68844994Y-39160502D01*
X68860292Y-39147666D01*
X69016671Y-39016447D01*
X69103817Y-38943323D01*
X69335678Y-38697565D01*
X69537440Y-38426552D01*
X69706375Y-38133948D01*
X69840198Y-37823711D01*
X69937100Y-37500035D01*
X69995771Y-37167298D01*
X70015416Y-36830000D01*
X69995771Y-36492702D01*
X69937100Y-36159965D01*
X69840198Y-35836289D01*
X69706375Y-35526052D01*
X69537440Y-35233448D01*
X69447775Y-35113007D01*
X69335681Y-34962438D01*
X69335676Y-34962432D01*
X69223564Y-34843601D01*
X69103817Y-34716677D01*
X69103810Y-34716671D01*
X69103808Y-34716669D01*
X68844998Y-34499500D01*
X68703851Y-34406667D01*
X68562708Y-34313836D01*
X68515245Y-34289999D01*
X68260783Y-34162203D01*
X68260777Y-34162200D01*
X67943284Y-34046642D01*
X67943281Y-34046641D01*
X67716639Y-33992926D01*
X67614520Y-33968724D01*
X67278935Y-33929500D01*
X66941065Y-33929500D01*
X66605480Y-33968724D01*
X66276718Y-34046641D01*
X66276715Y-34046642D01*
X65959222Y-34162200D01*
X65959216Y-34162203D01*
X65657295Y-34313834D01*
X65375001Y-34499500D01*
X65116191Y-34716669D01*
X65116181Y-34716679D01*
X64884323Y-34962432D01*
X64884318Y-34962438D01*
X64682560Y-35233446D01*
X64513627Y-35526047D01*
X64513621Y-35526060D01*
X64379801Y-35836289D01*
X64282899Y-36159968D01*
X64282896Y-36159982D01*
X64224230Y-36492690D01*
X64224229Y-36492701D01*
X64204584Y-36829996D01*
X59879870Y-36829996D01*
X59860426Y-36607758D01*
X59860425Y-36607751D01*
X59802685Y-36392263D01*
X59802681Y-36392252D01*
X59708399Y-36190064D01*
X59708398Y-36190062D01*
X59661075Y-36122477D01*
X59661074Y-36122476D01*
X59082962Y-36700589D01*
X59065925Y-36637007D01*
X59000099Y-36522993D01*
X58907007Y-36429901D01*
X58792993Y-36364075D01*
X58729410Y-36347037D01*
X59307522Y-35768924D01*
X59248979Y-35727932D01*
X59205355Y-35673355D01*
X59198162Y-35603856D01*
X59229684Y-35541502D01*
X59289914Y-35506088D01*
X59352193Y-35506581D01*
X59517666Y-35550920D01*
X59695533Y-35566481D01*
X59739999Y-35570372D01*
X59740000Y-35570372D01*
X59740001Y-35570372D01*
X59777055Y-35567130D01*
X59962334Y-35550920D01*
X60177913Y-35493156D01*
X60380186Y-35398835D01*
X60563007Y-35270822D01*
X60720822Y-35113007D01*
X60848835Y-34930186D01*
X60943156Y-34727913D01*
X61000920Y-34512334D01*
X61020372Y-34290000D01*
X61000920Y-34067666D01*
X60943156Y-33852087D01*
X60848835Y-33649814D01*
X60720822Y-33466993D01*
X60563007Y-33309178D01*
X60380186Y-33181165D01*
X60177913Y-33086844D01*
X60177909Y-33086843D01*
X60177905Y-33086841D01*
X59962339Y-33029081D01*
X59962329Y-33029079D01*
X59740001Y-33009628D01*
X59739999Y-33009628D01*
X59517670Y-33029079D01*
X59517660Y-33029081D01*
X59302094Y-33086841D01*
X59302087Y-33086843D01*
X59302087Y-33086844D01*
X59099814Y-33181165D01*
X58916993Y-33309178D01*
X58916991Y-33309179D01*
X58916988Y-33309182D01*
X58759178Y-33466992D01*
X58701574Y-33549259D01*
X58646997Y-33592884D01*
X58577499Y-33600076D01*
X58515144Y-33568553D01*
X58498426Y-33549259D01*
X58440821Y-33466992D01*
X58283011Y-33309182D01*
X58283007Y-33309178D01*
X58100186Y-33181165D01*
X57897913Y-33086844D01*
X57897909Y-33086843D01*
X57897905Y-33086841D01*
X57682339Y-33029081D01*
X57682329Y-33029079D01*
X57460001Y-33009628D01*
X57459999Y-33009628D01*
X57237670Y-33029079D01*
X57237660Y-33029081D01*
X57022094Y-33086841D01*
X57022087Y-33086843D01*
X57022087Y-33086844D01*
X56819814Y-33181165D01*
X56636993Y-33309178D01*
X56636991Y-33309179D01*
X56636988Y-33309182D01*
X56479178Y-33466992D01*
X56421574Y-33549259D01*
X56366997Y-33592884D01*
X56297499Y-33600076D01*
X56235144Y-33568553D01*
X56218426Y-33549259D01*
X56160821Y-33466992D01*
X56003011Y-33309182D01*
X56003007Y-33309178D01*
X55820186Y-33181165D01*
X55617913Y-33086844D01*
X55617909Y-33086843D01*
X55617905Y-33086841D01*
X55402339Y-33029081D01*
X55402329Y-33029079D01*
X55180001Y-33009628D01*
X55179999Y-33009628D01*
X54957670Y-33029079D01*
X54957660Y-33029081D01*
X54742094Y-33086841D01*
X54742087Y-33086843D01*
X54742087Y-33086844D01*
X54539814Y-33181165D01*
X54356993Y-33309178D01*
X54356991Y-33309179D01*
X54356988Y-33309182D01*
X54199178Y-33466992D01*
X54141574Y-33549259D01*
X54086997Y-33592884D01*
X54017499Y-33600076D01*
X53955144Y-33568553D01*
X53938426Y-33549259D01*
X53880821Y-33466992D01*
X53723011Y-33309182D01*
X53723007Y-33309178D01*
X53540186Y-33181165D01*
X53337913Y-33086844D01*
X53337909Y-33086843D01*
X53337905Y-33086841D01*
X53122339Y-33029081D01*
X53122329Y-33029079D01*
X52900001Y-33009628D01*
X52899999Y-33009628D01*
X52677670Y-33029079D01*
X52677660Y-33029081D01*
X52462094Y-33086841D01*
X52462087Y-33086843D01*
X52462087Y-33086844D01*
X52259814Y-33181165D01*
X52076993Y-33309178D01*
X52076991Y-33309179D01*
X52076988Y-33309182D01*
X51919178Y-33466992D01*
X51861574Y-33549259D01*
X51806997Y-33592884D01*
X51737499Y-33600076D01*
X51675144Y-33568553D01*
X51658426Y-33549259D01*
X51600821Y-33466992D01*
X51443011Y-33309182D01*
X51443007Y-33309178D01*
X51260186Y-33181165D01*
X51057913Y-33086844D01*
X51057909Y-33086843D01*
X51057905Y-33086841D01*
X50842339Y-33029081D01*
X50842329Y-33029079D01*
X50620001Y-33009628D01*
X50619999Y-33009628D01*
X50397670Y-33029079D01*
X50397660Y-33029081D01*
X50182094Y-33086841D01*
X50182087Y-33086843D01*
X50182087Y-33086844D01*
X49979814Y-33181165D01*
X49796993Y-33309178D01*
X49796991Y-33309179D01*
X49796988Y-33309182D01*
X49639182Y-33466988D01*
X49511165Y-33649814D01*
X49416845Y-33852085D01*
X49416841Y-33852094D01*
X49359081Y-34067660D01*
X49359079Y-34067670D01*
X49339628Y-34289999D01*
X49339628Y-34290000D01*
X49359079Y-34512329D01*
X49359081Y-34512339D01*
X49416841Y-34727905D01*
X49416843Y-34727909D01*
X49416844Y-34727913D01*
X49511165Y-34930186D01*
X49639178Y-35113007D01*
X49796993Y-35270822D01*
X49970806Y-35392528D01*
X50014431Y-35447105D01*
X50021623Y-35516603D01*
X49990101Y-35578958D01*
X49929871Y-35614371D01*
X49867589Y-35613877D01*
X49702252Y-35569575D01*
X49702241Y-35569573D01*
X49480002Y-35550130D01*
X49479998Y-35550130D01*
X49257758Y-35569573D01*
X49257751Y-35569574D01*
X49042263Y-35627314D01*
X49042252Y-35627318D01*
X48840066Y-35721598D01*
X48772477Y-35768924D01*
X49350590Y-36347037D01*
X49287007Y-36364075D01*
X49172993Y-36429901D01*
X49079901Y-36522993D01*
X49014075Y-36637007D01*
X48997037Y-36700590D01*
X48418924Y-36122477D01*
X48371598Y-36190066D01*
X48277318Y-36392252D01*
X48277314Y-36392263D01*
X48219574Y-36607751D01*
X48219573Y-36607758D01*
X48200130Y-36829998D01*
X48200130Y-36830001D01*
X48219573Y-37052241D01*
X48219574Y-37052248D01*
X48277314Y-37267736D01*
X48277318Y-37267747D01*
X48371600Y-37469935D01*
X48371601Y-37469937D01*
X48418923Y-37537521D01*
X48418924Y-37537522D01*
X48997037Y-36959409D01*
X49014075Y-37022993D01*
X49079901Y-37137007D01*
X49172993Y-37230099D01*
X49287007Y-37295925D01*
X49350590Y-37312962D01*
X48772476Y-37891074D01*
X48772477Y-37891075D01*
X48840062Y-37938398D01*
X48840064Y-37938399D01*
X49042252Y-38032681D01*
X49042263Y-38032685D01*
X49257751Y-38090425D01*
X49257758Y-38090426D01*
X49479998Y-38109870D01*
X49480002Y-38109870D01*
X49702241Y-38090426D01*
X49702248Y-38090425D01*
X49867588Y-38046122D01*
X49937438Y-38047785D01*
X49995301Y-38086947D01*
X50022805Y-38151175D01*
X50011219Y-38220078D01*
X49970806Y-38267471D01*
X49796992Y-38389178D01*
X49639182Y-38546988D01*
X49511165Y-38729814D01*
X49416845Y-38932085D01*
X49416841Y-38932094D01*
X49359081Y-39147660D01*
X49359079Y-39147670D01*
X49339628Y-39369999D01*
X49339628Y-39370000D01*
X49359079Y-39592329D01*
X49359081Y-39592339D01*
X49380565Y-39672518D01*
X49378902Y-39742368D01*
X49348472Y-39792292D01*
X49280986Y-39859778D01*
X49169181Y-39971582D01*
X49169179Y-39971585D01*
X49119061Y-40058394D01*
X49119059Y-40058396D01*
X49090125Y-40108509D01*
X49090124Y-40108510D01*
X49074244Y-40167772D01*
X49049199Y-40261243D01*
X49049199Y-40261245D01*
X49049199Y-40429346D01*
X49049200Y-40429359D01*
X49049200Y-49170603D01*
X49029515Y-49237642D01*
X48976711Y-49283397D01*
X48907553Y-49293341D01*
X48843997Y-49264316D01*
X48837519Y-49258284D01*
X48281941Y-48702706D01*
X48248456Y-48641383D01*
X48249847Y-48582931D01*
X48250611Y-48580080D01*
X48275635Y-48486692D01*
X48295468Y-48260000D01*
X48275635Y-48033308D01*
X48216739Y-47813504D01*
X48120568Y-47607266D01*
X47990047Y-47420861D01*
X47990045Y-47420858D01*
X47829141Y-47259954D01*
X47642734Y-47129432D01*
X47642732Y-47129431D01*
X47436497Y-47033261D01*
X47436488Y-47033258D01*
X47216697Y-46974366D01*
X47216693Y-46974365D01*
X47216692Y-46974365D01*
X47216691Y-46974364D01*
X47216686Y-46974364D01*
X46990002Y-46954532D01*
X46989998Y-46954532D01*
X46763313Y-46974364D01*
X46763302Y-46974366D01*
X46543511Y-47033258D01*
X46543502Y-47033261D01*
X46337267Y-47129431D01*
X46337265Y-47129432D01*
X46150858Y-47259954D01*
X45989954Y-47420858D01*
X45859432Y-47607265D01*
X45859431Y-47607267D01*
X45763261Y-47813502D01*
X45763258Y-47813511D01*
X45704366Y-48033302D01*
X45704364Y-48033313D01*
X45684532Y-48259998D01*
X45684532Y-48260001D01*
X45704364Y-48486686D01*
X45704366Y-48486697D01*
X45763258Y-48706488D01*
X45763261Y-48706497D01*
X45859431Y-48912732D01*
X45859432Y-48912734D01*
X45989953Y-49099140D01*
X46150858Y-49260045D01*
X46150861Y-49260047D01*
X46337266Y-49390568D01*
X46543504Y-49486739D01*
X46763308Y-49545635D01*
X46925230Y-49559801D01*
X46989998Y-49565468D01*
X46990000Y-49565468D01*
X46990002Y-49565468D01*
X47046673Y-49560509D01*
X47216692Y-49545635D01*
X47312932Y-49519847D01*
X47382781Y-49521510D01*
X47432706Y-49551941D01*
X48258181Y-50377416D01*
X48291666Y-50438739D01*
X48294500Y-50465097D01*
X48294500Y-52225903D01*
X48274815Y-52292942D01*
X48222011Y-52338697D01*
X48152853Y-52348641D01*
X48089297Y-52319616D01*
X48082819Y-52313584D01*
X44471941Y-48702706D01*
X44438456Y-48641383D01*
X44439847Y-48582931D01*
X44440611Y-48580080D01*
X44465635Y-48486692D01*
X44485468Y-48260000D01*
X44465635Y-48033308D01*
X44406739Y-47813504D01*
X44310568Y-47607266D01*
X44180047Y-47420861D01*
X44180045Y-47420858D01*
X44019141Y-47259954D01*
X43832734Y-47129432D01*
X43832732Y-47129431D01*
X43626497Y-47033261D01*
X43626488Y-47033258D01*
X43406697Y-46974366D01*
X43406693Y-46974365D01*
X43406692Y-46974365D01*
X43406691Y-46974364D01*
X43406686Y-46974364D01*
X43180002Y-46954532D01*
X43179998Y-46954532D01*
X42953313Y-46974364D01*
X42953302Y-46974366D01*
X42733511Y-47033258D01*
X42733502Y-47033261D01*
X42527267Y-47129431D01*
X42527265Y-47129432D01*
X42340858Y-47259954D01*
X42179954Y-47420858D01*
X42049432Y-47607265D01*
X42049431Y-47607267D01*
X41953261Y-47813502D01*
X41953258Y-47813511D01*
X41894366Y-48033302D01*
X41894364Y-48033313D01*
X41874532Y-48259998D01*
X41874532Y-48260001D01*
X41894364Y-48486686D01*
X41894366Y-48486697D01*
X41953258Y-48706488D01*
X41953261Y-48706497D01*
X42049431Y-48912732D01*
X42049432Y-48912734D01*
X42179953Y-49099140D01*
X42340858Y-49260045D01*
X42340861Y-49260047D01*
X42527266Y-49390568D01*
X42733504Y-49486739D01*
X42953308Y-49545635D01*
X43115230Y-49559801D01*
X43179998Y-49565468D01*
X43180000Y-49565468D01*
X43180002Y-49565468D01*
X43236673Y-49560509D01*
X43406692Y-49545635D01*
X43502932Y-49519847D01*
X43572781Y-49521510D01*
X43622706Y-49551941D01*
X47765181Y-53694416D01*
X47798666Y-53755739D01*
X47801500Y-53782097D01*
X47801500Y-54628825D01*
X47781815Y-54695864D01*
X47729011Y-54741619D01*
X47659853Y-54751563D01*
X47625096Y-54741207D01*
X47514099Y-54689448D01*
X47436497Y-54653261D01*
X47436488Y-54653258D01*
X47216697Y-54594366D01*
X47216693Y-54594365D01*
X47216692Y-54594365D01*
X47216691Y-54594364D01*
X47216686Y-54594364D01*
X46990002Y-54574532D01*
X46989998Y-54574532D01*
X46763313Y-54594364D01*
X46763302Y-54594366D01*
X46543511Y-54653258D01*
X46543502Y-54653261D01*
X46337267Y-54749431D01*
X46337265Y-54749432D01*
X46150858Y-54879954D01*
X45989954Y-55040858D01*
X45859432Y-55227265D01*
X45859431Y-55227267D01*
X45763261Y-55433502D01*
X45763258Y-55433511D01*
X45704366Y-55653302D01*
X45704364Y-55653313D01*
X45684532Y-55879998D01*
X45684532Y-55880001D01*
X45704364Y-56106686D01*
X45704366Y-56106697D01*
X45763258Y-56326488D01*
X45763261Y-56326497D01*
X45859431Y-56532732D01*
X45859432Y-56532734D01*
X45989954Y-56719141D01*
X46150858Y-56880045D01*
X46150861Y-56880047D01*
X46337266Y-57010568D01*
X46543504Y-57106739D01*
X46763308Y-57165635D01*
X46925230Y-57179801D01*
X46989998Y-57185468D01*
X46990000Y-57185468D01*
X46990002Y-57185468D01*
X47047653Y-57180424D01*
X47216692Y-57165635D01*
X47436496Y-57106739D01*
X47625095Y-57018792D01*
X47694172Y-57008301D01*
X47757956Y-57036821D01*
X47796196Y-57095297D01*
X47801500Y-57131175D01*
X47801500Y-62404902D01*
X47781815Y-62471941D01*
X47729011Y-62517696D01*
X47659853Y-62527640D01*
X47596297Y-62498615D01*
X47589819Y-62492583D01*
X44941419Y-59844183D01*
X44907934Y-59782860D01*
X44905100Y-59756502D01*
X44905100Y-53355545D01*
X44905100Y-53355543D01*
X44864177Y-53202816D01*
X44864173Y-53202809D01*
X44785124Y-53065890D01*
X44785121Y-53065886D01*
X44785120Y-53065884D01*
X44673316Y-52954080D01*
X44673315Y-52954079D01*
X44668985Y-52949749D01*
X44668974Y-52949739D01*
X40421941Y-48702706D01*
X40388456Y-48641383D01*
X40389847Y-48582931D01*
X40390611Y-48580080D01*
X40415635Y-48486692D01*
X40435468Y-48260000D01*
X40415635Y-48033308D01*
X40356739Y-47813504D01*
X40260568Y-47607266D01*
X40130047Y-47420861D01*
X40130045Y-47420858D01*
X39969141Y-47259954D01*
X39782734Y-47129432D01*
X39782732Y-47129431D01*
X39576497Y-47033261D01*
X39576488Y-47033258D01*
X39356697Y-46974366D01*
X39356693Y-46974365D01*
X39356692Y-46974365D01*
X39356691Y-46974364D01*
X39356686Y-46974364D01*
X39130002Y-46954532D01*
X39129998Y-46954532D01*
X38903313Y-46974364D01*
X38903302Y-46974366D01*
X38683511Y-47033258D01*
X38683502Y-47033261D01*
X38477267Y-47129431D01*
X38477265Y-47129432D01*
X38290858Y-47259954D01*
X38129954Y-47420858D01*
X37999432Y-47607265D01*
X37999431Y-47607267D01*
X37903261Y-47813502D01*
X37903258Y-47813511D01*
X37844366Y-48033302D01*
X37844364Y-48033313D01*
X37824532Y-48259998D01*
X37824532Y-48260001D01*
X37844364Y-48486686D01*
X37844366Y-48486697D01*
X37903258Y-48706488D01*
X37903261Y-48706497D01*
X37999431Y-48912732D01*
X37999432Y-48912734D01*
X38129953Y-49099140D01*
X38290858Y-49260045D01*
X38290861Y-49260047D01*
X38477266Y-49390568D01*
X38683504Y-49486739D01*
X38903308Y-49545635D01*
X39065230Y-49559801D01*
X39129998Y-49565468D01*
X39130000Y-49565468D01*
X39130002Y-49565468D01*
X39186673Y-49560509D01*
X39356692Y-49545635D01*
X39452932Y-49519847D01*
X39522781Y-49521510D01*
X39572706Y-49551941D01*
X43667781Y-53647016D01*
X43701266Y-53708339D01*
X43704100Y-53734697D01*
X43704100Y-54512454D01*
X43684415Y-54579493D01*
X43631611Y-54625248D01*
X43562453Y-54635192D01*
X43548007Y-54632229D01*
X43406697Y-54594366D01*
X43406693Y-54594365D01*
X43406692Y-54594365D01*
X43406691Y-54594364D01*
X43406686Y-54594364D01*
X43180002Y-54574532D01*
X43179998Y-54574532D01*
X42953313Y-54594364D01*
X42953302Y-54594366D01*
X42733511Y-54653258D01*
X42733502Y-54653261D01*
X42527267Y-54749431D01*
X42527265Y-54749432D01*
X42340858Y-54879954D01*
X42179954Y-55040858D01*
X42049432Y-55227265D01*
X42049431Y-55227267D01*
X41953261Y-55433502D01*
X41953258Y-55433511D01*
X41894366Y-55653302D01*
X41894364Y-55653313D01*
X41874532Y-55879998D01*
X41874532Y-55880004D01*
X41876631Y-55904001D01*
X41862863Y-55972500D01*
X41814247Y-56022683D01*
X41746218Y-56038615D01*
X41680375Y-56015238D01*
X41665422Y-56002487D01*
X36196819Y-50533884D01*
X36163334Y-50472561D01*
X36160500Y-50446203D01*
X36160500Y-49491692D01*
X36180185Y-49424653D01*
X36213374Y-49390119D01*
X36399139Y-49260047D01*
X36421544Y-49237642D01*
X36560047Y-49099140D01*
X36678912Y-48929380D01*
X36690568Y-48912734D01*
X36786739Y-48706496D01*
X36845635Y-48486692D01*
X36865468Y-48260000D01*
X36845635Y-48033308D01*
X36786739Y-47813504D01*
X36690568Y-47607266D01*
X36560047Y-47420861D01*
X36560045Y-47420858D01*
X36399141Y-47259954D01*
X36212734Y-47129432D01*
X36212732Y-47129431D01*
X36006497Y-47033261D01*
X36006488Y-47033258D01*
X35786697Y-46974366D01*
X35786693Y-46974365D01*
X35786692Y-46974365D01*
X35786691Y-46974364D01*
X35786686Y-46974364D01*
X35560002Y-46954532D01*
X35559998Y-46954532D01*
X35333313Y-46974364D01*
X35333302Y-46974366D01*
X35113511Y-47033258D01*
X35113502Y-47033261D01*
X34907267Y-47129431D01*
X34907265Y-47129432D01*
X34720858Y-47259954D01*
X34559954Y-47420858D01*
X34429432Y-47607265D01*
X34429431Y-47607267D01*
X34333261Y-47813502D01*
X34333258Y-47813511D01*
X34274366Y-48033302D01*
X34274364Y-48033313D01*
X34254532Y-48259998D01*
X34254532Y-48260001D01*
X34274364Y-48486686D01*
X34274366Y-48486697D01*
X34333258Y-48706488D01*
X34333261Y-48706497D01*
X34429431Y-48912732D01*
X34429432Y-48912734D01*
X34559953Y-49099140D01*
X34720858Y-49260045D01*
X34720861Y-49260047D01*
X34906624Y-49390118D01*
X34950248Y-49444693D01*
X34959500Y-49491692D01*
X34959500Y-50320903D01*
X34939815Y-50387942D01*
X34887011Y-50433697D01*
X34817853Y-50443641D01*
X34754297Y-50414616D01*
X34747819Y-50408584D01*
X33041941Y-48702706D01*
X33008456Y-48641383D01*
X33009847Y-48582931D01*
X33010611Y-48580080D01*
X33035635Y-48486692D01*
X33055468Y-48260000D01*
X33035635Y-48033308D01*
X32976739Y-47813504D01*
X32880568Y-47607266D01*
X32750047Y-47420861D01*
X32750045Y-47420858D01*
X32589141Y-47259954D01*
X32402734Y-47129432D01*
X32402732Y-47129431D01*
X32196497Y-47033261D01*
X32196488Y-47033258D01*
X31976697Y-46974366D01*
X31976693Y-46974365D01*
X31976692Y-46974365D01*
X31976691Y-46974364D01*
X31976686Y-46974364D01*
X31750002Y-46954532D01*
X31749998Y-46954532D01*
X31523313Y-46974364D01*
X31523302Y-46974366D01*
X31303511Y-47033258D01*
X31303502Y-47033261D01*
X31097267Y-47129431D01*
X31097265Y-47129432D01*
X30910858Y-47259954D01*
X30749954Y-47420858D01*
X30619432Y-47607265D01*
X30619431Y-47607267D01*
X30523261Y-47813502D01*
X30523258Y-47813511D01*
X30464366Y-48033302D01*
X30464364Y-48033313D01*
X30444532Y-48259998D01*
X30444532Y-48260001D01*
X30464364Y-48486686D01*
X30464366Y-48486697D01*
X30523258Y-48706488D01*
X30523261Y-48706497D01*
X30619431Y-48912732D01*
X30619432Y-48912734D01*
X30749953Y-49099140D01*
X30910858Y-49260045D01*
X30910861Y-49260047D01*
X31097266Y-49390568D01*
X31303504Y-49486739D01*
X31523308Y-49545635D01*
X31685230Y-49559801D01*
X31749998Y-49565468D01*
X31750000Y-49565468D01*
X31750002Y-49565468D01*
X31806673Y-49560509D01*
X31976692Y-49545635D01*
X32072932Y-49519847D01*
X32142781Y-49521510D01*
X32192706Y-49551941D01*
X36987281Y-54346516D01*
X37020766Y-54407839D01*
X37023600Y-54434197D01*
X37023600Y-55382126D01*
X37003915Y-55449165D01*
X36951111Y-55494920D01*
X36881953Y-55504864D01*
X36818397Y-55475839D01*
X36787218Y-55434531D01*
X36690568Y-55227267D01*
X36690567Y-55227265D01*
X36675065Y-55205126D01*
X36560047Y-55040861D01*
X36560045Y-55040858D01*
X36399141Y-54879954D01*
X36212734Y-54749432D01*
X36212732Y-54749431D01*
X36006497Y-54653261D01*
X36006488Y-54653258D01*
X35786697Y-54594366D01*
X35786693Y-54594365D01*
X35786692Y-54594365D01*
X35786691Y-54594364D01*
X35786686Y-54594364D01*
X35560002Y-54574532D01*
X35559998Y-54574532D01*
X35333313Y-54594364D01*
X35333302Y-54594366D01*
X35113511Y-54653258D01*
X35113502Y-54653261D01*
X34907267Y-54749431D01*
X34907265Y-54749432D01*
X34720858Y-54879954D01*
X34559954Y-55040858D01*
X34481075Y-55153511D01*
X34426498Y-55197136D01*
X34357000Y-55204330D01*
X34294645Y-55172807D01*
X34259231Y-55112578D01*
X34255500Y-55082388D01*
X34255500Y-54064060D01*
X34255501Y-54064047D01*
X34255501Y-53895944D01*
X34224995Y-53782097D01*
X34214577Y-53743216D01*
X34180005Y-53683335D01*
X34135524Y-53606290D01*
X34135518Y-53606282D01*
X29231941Y-48702706D01*
X29198456Y-48641383D01*
X29199847Y-48582931D01*
X29200611Y-48580080D01*
X29225635Y-48486692D01*
X29245468Y-48260000D01*
X29225635Y-48033308D01*
X29166739Y-47813504D01*
X29070568Y-47607266D01*
X28940047Y-47420861D01*
X28940045Y-47420858D01*
X28779141Y-47259954D01*
X28592734Y-47129432D01*
X28592732Y-47129431D01*
X28386497Y-47033261D01*
X28386488Y-47033258D01*
X28166697Y-46974366D01*
X28166693Y-46974365D01*
X28166692Y-46974365D01*
X28166691Y-46974364D01*
X28166686Y-46974364D01*
X27940002Y-46954532D01*
X27939998Y-46954532D01*
X27713313Y-46974364D01*
X27713302Y-46974366D01*
X27493511Y-47033258D01*
X27493502Y-47033261D01*
X27287267Y-47129431D01*
X27287265Y-47129432D01*
X27100858Y-47259954D01*
X26939954Y-47420858D01*
X26809432Y-47607265D01*
X26809431Y-47607267D01*
X26713261Y-47813502D01*
X26713258Y-47813511D01*
X26654366Y-48033302D01*
X26654364Y-48033313D01*
X26634532Y-48259998D01*
X25900500Y-48259998D01*
X25900500Y-36829996D01*
X39204584Y-36829996D01*
X39204584Y-36830003D01*
X39224229Y-37167298D01*
X39224230Y-37167309D01*
X39282896Y-37500017D01*
X39282899Y-37500031D01*
X39379801Y-37823710D01*
X39513621Y-38133939D01*
X39513627Y-38133952D01*
X39682560Y-38426553D01*
X39884318Y-38697561D01*
X39884323Y-38697567D01*
X39914747Y-38729814D01*
X40116183Y-38943323D01*
X40116189Y-38943328D01*
X40116191Y-38943330D01*
X40375001Y-39160499D01*
X40439561Y-39202960D01*
X40657292Y-39346164D01*
X40959224Y-39497800D01*
X41276717Y-39613358D01*
X41605480Y-39691276D01*
X41941065Y-39730500D01*
X41941072Y-39730500D01*
X42278928Y-39730500D01*
X42278935Y-39730500D01*
X42614520Y-39691276D01*
X42943283Y-39613358D01*
X43260776Y-39497800D01*
X43562708Y-39346164D01*
X43844994Y-39160502D01*
X43860292Y-39147666D01*
X44016671Y-39016447D01*
X44103817Y-38943323D01*
X44335678Y-38697565D01*
X44537440Y-38426552D01*
X44706375Y-38133948D01*
X44840198Y-37823711D01*
X44937100Y-37500035D01*
X44995771Y-37167298D01*
X45015416Y-36830000D01*
X44995771Y-36492702D01*
X44937100Y-36159965D01*
X44840198Y-35836289D01*
X44706375Y-35526052D01*
X44537440Y-35233448D01*
X44447775Y-35113007D01*
X44335681Y-34962438D01*
X44335676Y-34962432D01*
X44223564Y-34843601D01*
X44103817Y-34716677D01*
X44103810Y-34716671D01*
X44103808Y-34716669D01*
X43844998Y-34499500D01*
X43703851Y-34406667D01*
X43562708Y-34313836D01*
X43515245Y-34289999D01*
X43260783Y-34162203D01*
X43260777Y-34162200D01*
X42943284Y-34046642D01*
X42943281Y-34046641D01*
X42716639Y-33992926D01*
X42614520Y-33968724D01*
X42278935Y-33929500D01*
X41941065Y-33929500D01*
X41605480Y-33968724D01*
X41276718Y-34046641D01*
X41276715Y-34046642D01*
X40959222Y-34162200D01*
X40959216Y-34162203D01*
X40657295Y-34313834D01*
X40375001Y-34499500D01*
X40116191Y-34716669D01*
X40116181Y-34716679D01*
X39884323Y-34962432D01*
X39884318Y-34962438D01*
X39682560Y-35233446D01*
X39513627Y-35526047D01*
X39513621Y-35526060D01*
X39379801Y-35836289D01*
X39282899Y-36159968D01*
X39282896Y-36159982D01*
X39224230Y-36492690D01*
X39224229Y-36492701D01*
X39204584Y-36829996D01*
X25900500Y-36829996D01*
X25900500Y-26406961D01*
X25901280Y-26393077D01*
X25901280Y-26393076D01*
X25911459Y-26302731D01*
X25917635Y-26275670D01*
X25945353Y-26196456D01*
X25957396Y-26171450D01*
X26002046Y-26100389D01*
X26019351Y-26078690D01*
X26078690Y-26019351D01*
X26100389Y-26002046D01*
X26171450Y-25957396D01*
X26196456Y-25945353D01*
X26275670Y-25917635D01*
X26302733Y-25911459D01*
X26365419Y-25904396D01*
X26393079Y-25901280D01*
X26406962Y-25900500D01*
X26465892Y-25900500D01*
X82754108Y-25900500D01*
X82813038Y-25900500D01*
X82826922Y-25901280D01*
G37*
%TD.AperFunction*%
%TD*%
M02*
