M48
; DRILL file {KiCad 8.0.2} date 2025-02-23T18:43:35+0100
; FORMAT={-:-/ absolute / inch / decimal}
; #@! TF.CreationDate,2025-02-23T18:43:35+01:00
; #@! TF.GenerationSoftware,Kicad,Pcbnew,8.0.2
; #@! TF.FileFunction,Plated,1,2,PTH
FMAT,2
INCH
; #@! TA.AperFunction,Plated,PTH,ComponentDrill
T1C0.0315
; #@! TA.AperFunction,Plated,PTH,ComponentDrill
T2C0.0394
; #@! TA.AperFunction,Plated,PTH,ComponentDrill
T3C0.1260
%
G90
G05
T1
X1.1Y-1.9
X1.1Y-2.2
X1.15Y-2.8
X1.25Y-1.9
X1.25Y-2.2
X1.25Y-2.8
X1.35Y-2.8
X1.4Y-1.9
X1.4Y-2.2
X1.45Y-2.8
X1.5406Y-1.9
X1.5406Y-2.2
X1.55Y-2.8
X1.65Y-2.8
X1.7Y-1.9
X1.7Y-2.2
X1.75Y-2.8
X1.85Y-1.9
X1.85Y-2.2
X1.85Y-2.8
X2.0Y-1.9
X2.0Y-2.2
X2.1Y-2.8
X2.15Y-1.9
X2.15Y-2.2
X2.2Y-2.8
X2.3Y-1.9
X2.3Y-2.2
X2.3Y-2.8
X2.4Y-2.8
X2.45Y-1.9
X2.45Y-2.2
X2.5Y-2.8
X2.6Y-1.9
X2.6Y-2.2
X2.6Y-2.8
X2.7Y-2.8
X2.8Y-2.8
X3.05Y-2.65
X3.05Y-2.95
T2
X1.195Y-2.425
X1.2Y-3.2
X1.2Y-3.3
X1.295Y-2.425
X1.3Y-3.2
X1.3Y-3.3
X1.395Y-2.425
X1.4Y-3.2
X1.4Y-3.3
X1.495Y-2.425
X1.5Y-3.2
X1.5Y-3.3
X1.6Y-3.2
X1.6Y-3.3
X1.7Y-3.2
X1.7Y-3.3
X1.8Y-3.2
X1.8Y-3.3
X1.9Y-3.2
X1.9Y-3.3
X1.948Y-1.45
X1.9929Y-1.35
X1.9929Y-1.55
X2.0Y-3.2
X2.0Y-3.3
X2.0378Y-1.45
X2.0827Y-1.35
X2.0827Y-1.55
X2.095Y-2.425
X2.1Y-3.2
X2.1Y-3.3
X2.1276Y-1.45
X2.1724Y-1.35
X2.1724Y-1.55
X2.195Y-2.425
X2.2Y-3.2
X2.2Y-3.3
X2.2173Y-1.45
X2.2622Y-1.35
X2.2622Y-1.55
X2.295Y-2.425
X2.3Y-3.2
X2.3Y-3.3
X2.3071Y-1.45
X2.352Y-1.35
X2.352Y-1.55
X2.395Y-2.425
X2.4Y-3.2
X2.4Y-3.3
X2.495Y-2.425
X2.5Y-3.2
X2.5Y-3.3
X2.595Y-2.425
X2.6Y-3.2
X2.6Y-3.3
X2.695Y-2.425
X2.7Y-3.2
X2.7Y-3.3
X2.795Y-2.425
X2.8Y-3.2
X2.8Y-3.3
X2.8504Y-2.0
X2.9Y-3.2
X2.9Y-3.3
X3.0Y-3.2
X3.0Y-3.3
X3.1Y-3.2
X3.1Y-3.3
X3.1496Y-2.0
T3
X1.6579Y-1.45
X2.6421Y-1.45
M30
