M48
; DRILL file {KiCad 8.0.2} date 2025-01-09T14:11:17+0100
; FORMAT={-:-/ absolute / inch / decimal}
; #@! TF.CreationDate,2025-01-09T14:11:17+01:00
; #@! TF.GenerationSoftware,Kicad,Pcbnew,8.0.2
; #@! TF.FileFunction,Plated,1,4,PTH
FMAT,2
INCH
; #@! TA.AperFunction,Plated,PTH,ViaDrill
T1C0.0118
; #@! TA.AperFunction,Plated,PTH,ComponentDrill
T2C0.0315
; #@! TA.AperFunction,Plated,PTH,ComponentDrill
T3C0.0354
; #@! TA.AperFunction,Plated,PTH,ComponentDrill
T4C0.0362
; #@! TA.AperFunction,Plated,PTH,ComponentDrill
T5C0.0394
; #@! TA.AperFunction,Plated,PTH,ComponentDrill
T6C0.0433
; #@! TA.AperFunction,Plated,PTH,ComponentDrill
T7C0.0472
; #@! TA.AperFunction,Plated,PTH,ComponentDrill
T8C0.0591
; #@! TA.AperFunction,Plated,PTH,ComponentDrill
T9C0.0917
%
G90
G05
T1
X1.4416Y-3.9567
X1.4447Y-4.2527
X1.5046Y-4.2949
X1.5327Y-4.3376
X1.7102Y-3.8348
X1.7656Y-4.2413
X2.5086Y-3.7985
X2.6755Y-4.2127
X2.7062Y-3.6283
X2.8Y-5.225
X3.35Y-5.225
X3.35Y-5.325
X4.2356Y-5.4327
X4.3319Y-2.4705
X4.3433Y-4.7421
X4.4Y-5.1
X4.4128Y-4.4508
X4.4232Y-5.7653
X4.425Y-4.85
X4.4967Y-3.3422
X4.5779Y-3.3914
X4.6207Y-3.3564
X4.6434Y-3.201
X4.6875Y-5.3818
X4.8724Y-4.5701
X4.9228Y-3.8871
X5.025Y-4.65
X5.1Y-4.575
X5.125Y-4.425
X5.3Y-2.325
X5.3Y-2.55
X5.3031Y-3.5831
X5.35Y-4.5547
X5.3843Y-4.7
X5.4125Y-4.0483
X5.4327Y-2.9617
X5.4368Y-4.6
X5.448Y-5.5131
X5.45Y-2.875
X5.5564Y-3.8088
X5.5664Y-4.1847
X5.588Y-3.5679
X5.7007Y-4.7181
X5.7977Y-3.9242
X5.8537Y-3.7056
X5.9492Y-4.518
X6.0Y-3.35
X6.0967Y-5.1617
X6.097Y-5.4615
X6.1123Y-4.0181
X6.1203Y-5.224
X6.1334Y-4.5227
X6.225Y-4.8
X6.2383Y-4.7179
X6.262Y-4.8835
X6.4523Y-4.2552
X6.4561Y-2.9683
T2
X1.0Y-3.0
X1.0Y-3.1
X1.0Y-3.2
X1.0Y-3.3
X1.0Y-3.4
X1.0Y-3.5
X1.0Y-3.6
X1.0Y-3.7
X1.0Y-3.8
X1.0Y-3.9
X1.0Y-4.0
X1.0Y-4.1
X1.0Y-4.2
X1.0Y-4.3
X1.0Y-4.4
X1.0Y-4.5
X1.0Y-4.6
X1.0Y-4.7
X1.0Y-4.8
X1.0Y-4.9
X1.05Y-5.75
X1.05Y-6.05
X1.1016Y-2.525
X1.2Y-2.525
X1.2004Y-5.1483
X1.2004Y-5.4483
X1.2016Y-2.8
X1.3004Y-5.1483
X1.3004Y-5.4483
X1.3984Y-2.8
X1.4004Y-5.1483
X1.4004Y-5.4483
X1.5004Y-5.1483
X1.5004Y-5.4483
X1.575Y-2.425
X1.575Y-2.725
X1.6Y-3.0
X1.6Y-3.1
X1.6Y-3.2
X1.6Y-3.3
X1.6Y-3.4
X1.6Y-3.5
X1.6Y-3.6
X1.6Y-3.7
X1.6Y-3.8
X1.6Y-3.9
X1.6Y-4.0
X1.6Y-4.1
X1.6Y-4.2
X1.6Y-4.3
X1.6Y-4.4
X1.6Y-4.5
X1.6Y-4.6
X1.6Y-4.7
X1.6Y-4.8
X1.6Y-4.9
X1.65Y-5.75
X1.65Y-6.05
X1.8Y-2.25
X1.8Y-2.35
X1.8Y-2.45
X1.8Y-2.55
X1.8Y-2.65
X1.8Y-2.75
X1.8Y-2.85
X1.8Y-3.1
X1.8016Y-3.5996
X1.8016Y-3.6996
X1.8016Y-3.7996
X1.8016Y-3.8996
X1.8016Y-3.9996
X1.8016Y-4.0996
X1.8016Y-4.1996
X1.8016Y-4.2996
X1.8016Y-4.3996
X1.8016Y-4.4996
X1.8016Y-4.5996
X1.8016Y-4.6996
X1.8016Y-4.7996
X1.8016Y-4.8996
X1.8531Y-2.05
X1.9Y-5.4
X1.9Y-5.5
X1.9Y-5.6
X1.9Y-5.7
X1.9Y-5.8
X1.9Y-5.9
X1.9Y-6.0
X1.9Y-6.1
X1.9016Y-1.775
X1.9516Y-5.2
X2.0Y-1.775
X2.0016Y-3.3996
X2.05Y-2.05
X2.1Y-2.25
X2.1Y-2.35
X2.1Y-2.45
X2.1Y-2.55
X2.1Y-2.65
X2.1Y-2.75
X2.1Y-2.85
X2.1Y-3.1
X2.1484Y-5.2
X2.1984Y-3.3996
X2.2Y-5.4
X2.2Y-5.5
X2.2Y-5.6
X2.2Y-5.7
X2.2Y-5.8
X2.2Y-5.9
X2.2Y-6.0
X2.2Y-6.1
X2.3Y-1.95
X2.3Y-2.05
X2.3Y-2.15
X2.3Y-2.25
X2.3Y-2.35
X2.3Y-2.45
X2.3Y-2.55
X2.3Y-2.65
X2.3Y-2.75
X2.3Y-2.85
X2.3516Y-1.75
X2.4Y-5.4
X2.4Y-5.5
X2.4Y-5.6
X2.4Y-5.7
X2.4Y-5.8
X2.4Y-5.9
X2.4Y-6.0
X2.4Y-6.1
X2.4016Y-3.5996
X2.4016Y-3.6996
X2.4016Y-3.7996
X2.4016Y-3.8996
X2.4016Y-3.9996
X2.4016Y-4.0996
X2.4016Y-4.1996
X2.4016Y-4.2996
X2.4016Y-4.3996
X2.4016Y-4.4996
X2.4016Y-4.5996
X2.4016Y-4.6996
X2.4016Y-4.7996
X2.4016Y-4.8996
X2.4531Y-5.2
X2.5484Y-1.75
X2.6Y-1.95
X2.6Y-2.05
X2.6Y-2.15
X2.6Y-2.25
X2.6Y-2.35
X2.6Y-2.45
X2.6Y-2.55
X2.6Y-2.65
X2.6Y-2.75
X2.6Y-2.85
X2.6016Y-3.6
X2.6016Y-3.7
X2.6016Y-3.8
X2.6016Y-3.9
X2.6016Y-4.0
X2.6016Y-4.1
X2.6016Y-4.2
X2.6016Y-4.3
X2.6016Y-4.4
X2.6016Y-4.5
X2.6016Y-4.6
X2.6016Y-4.7
X2.6016Y-4.8
X2.6016Y-4.9
X2.65Y-5.2
X2.7Y-5.4
X2.7Y-5.5
X2.7Y-5.6
X2.7Y-5.7
X2.7Y-5.8
X2.7Y-5.9
X2.7Y-6.0
X2.7Y-6.1
X2.8Y-1.95
X2.8Y-2.05
X2.8Y-2.15
X2.8Y-2.25
X2.8Y-2.35
X2.8Y-2.45
X2.8Y-2.55
X2.8Y-2.65
X2.8Y-2.75
X2.8Y-2.85
X2.8016Y-3.4
X2.8516Y-1.75
X2.9Y-5.5
X2.9Y-5.6
X2.9Y-5.7
X2.9Y-5.8
X2.9Y-5.9
X2.9Y-6.0
X2.9Y-6.1
X2.9516Y-5.3
X2.9984Y-3.4
X3.0484Y-1.75
X3.1Y-1.95
X3.1Y-2.05
X3.1Y-2.15
X3.1Y-2.25
X3.1Y-2.35
X3.1Y-2.45
X3.1Y-2.55
X3.1Y-2.65
X3.1Y-2.75
X3.1Y-2.85
X3.1484Y-5.3
X3.2Y-5.5
X3.2Y-5.6
X3.2Y-5.7
X3.2Y-5.8
X3.2Y-5.9
X3.2Y-6.0
X3.2Y-6.1
X3.2016Y-3.6
X3.2016Y-3.7
X3.2016Y-3.8
X3.2016Y-3.9
X3.2016Y-4.0
X3.2016Y-4.1
X3.2016Y-4.2
X3.2016Y-4.3
X3.2016Y-4.4
X3.2016Y-4.5
X3.2016Y-4.6
X3.2016Y-4.7
X3.2016Y-4.8
X3.2016Y-4.9
X3.325Y-2.35
X3.325Y-2.65
X3.4Y-5.025
X3.4766Y-5.7
X3.5Y-3.6516
X3.5Y-3.8484
X3.5Y-4.1016
X3.5Y-4.2984
X3.5Y-4.5516
X3.5Y-4.7484
X3.5Y-5.025
X3.6Y-1.9266
X3.6Y-2.1234
X3.6Y-5.025
X3.6734Y-5.7
X3.6998Y-4.0512
X3.6998Y-4.3512
X3.7Y-3.575
X3.7Y-3.875
X3.7Y-4.5
X3.7Y-4.8
X3.7Y-5.025
X3.7998Y-4.0512
X3.7998Y-4.3512
X3.8Y-3.575
X3.8Y-3.875
X3.8Y-4.5
X3.8Y-4.8
X3.8Y-5.025
X3.825Y-1.975
X3.825Y-2.075
X3.825Y-2.175
X3.825Y-2.275
X3.825Y-2.375
X3.825Y-2.475
X3.825Y-2.575
X3.825Y-2.675
X3.825Y-2.775
X3.825Y-2.875
X3.825Y-2.975
X3.825Y-3.075
X3.825Y-3.175
X3.825Y-3.275
X3.8998Y-4.0512
X3.8998Y-4.3512
X3.9Y-3.575
X3.9Y-3.875
X3.9Y-4.5
X3.9Y-4.8
X3.9Y-5.025
X3.9Y-5.225
X3.9Y-5.375
X3.9Y-5.525
X3.9766Y-5.7
X3.9998Y-4.0512
X3.9998Y-4.3512
X4.0Y-3.575
X4.0Y-3.875
X4.0Y-4.5
X4.0Y-4.8
X4.0Y-5.025
X4.0266Y-1.7746
X4.0998Y-4.0512
X4.0998Y-4.3512
X4.1Y-3.575
X4.1Y-3.875
X4.1Y-4.5
X4.1Y-4.8
X4.1Y-5.025
X4.1734Y-5.7
X4.1998Y-4.0512
X4.1998Y-4.3512
X4.2Y-3.575
X4.2Y-3.875
X4.2Y-4.5
X4.2Y-4.8
X4.2Y-5.025
X4.2Y-5.225
X4.2Y-5.375
X4.2Y-5.525
X4.2234Y-1.7746
X4.2998Y-4.0512
X4.2998Y-4.3512
X4.3Y-3.575
X4.3Y-3.875
X4.3Y-4.5
X4.3Y-4.8
X4.425Y-1.975
X4.425Y-2.075
X4.425Y-2.175
X4.425Y-2.275
X4.425Y-2.375
X4.425Y-2.475
X4.425Y-2.575
X4.425Y-2.675
X4.425Y-2.775
X4.425Y-2.875
X4.425Y-2.975
X4.425Y-3.075
X4.425Y-3.175
X4.425Y-3.275
X4.5Y-5.2
X4.5Y-5.3
X4.5Y-5.4
X4.5Y-5.5
X4.5Y-5.6
X4.5Y-5.7
X4.5Y-5.8
X4.5Y-5.9
X4.5Y-6.0
X4.5Y-6.1
X4.5516Y-5.0
X4.7484Y-5.0
X4.8Y-5.2
X4.8Y-5.3
X4.8Y-5.4
X4.8Y-5.5
X4.8Y-5.6
X4.8Y-5.7
X4.8Y-5.8
X4.8Y-5.9
X4.8Y-6.0
X4.8Y-6.1
X4.9516Y-2.325
X5.0Y-5.2
X5.0Y-5.3
X5.0Y-5.4
X5.0Y-5.5
X5.0Y-5.6
X5.0Y-5.7
X5.0Y-5.8
X5.0Y-5.9
X5.0Y-6.0
X5.0Y-6.1
X5.0516Y-5.0
X5.1484Y-2.325
X5.2484Y-5.0
X5.3Y-5.2
X5.3Y-5.3
X5.3Y-5.4
X5.3Y-5.5
X5.3Y-5.6
X5.3Y-5.7
X5.3Y-5.8
X5.3Y-5.9
X5.3Y-6.0
X5.3Y-6.1
X5.5Y-5.2
X5.5Y-5.3
X5.5Y-5.4
X5.5Y-5.5
X5.5Y-5.6
X5.5Y-5.7
X5.5Y-5.8
X5.5Y-5.9
X5.5Y-6.0
X5.5Y-6.1
X5.5516Y-5.0
X5.6734Y-2.75
X5.6734Y-2.85
X5.6734Y-2.95
X5.6734Y-3.05
X5.6734Y-3.15
X5.6734Y-3.25
X5.6734Y-3.35
X5.6734Y-3.45
X5.6734Y-3.55
X5.6734Y-3.65
X5.6734Y-3.75
X5.6734Y-3.85
X5.6734Y-3.95
X5.6734Y-4.05
X5.6734Y-4.15
X5.6734Y-4.25
X5.6734Y-4.35
X5.6734Y-4.45
X5.6734Y-4.55
X5.6734Y-4.65
X5.7484Y-5.0
X5.8Y-5.2
X5.8Y-5.3
X5.8Y-5.4
X5.8Y-5.5
X5.8Y-5.6
X5.8Y-5.7
X5.8Y-5.8
X5.8Y-5.9
X5.8Y-6.0
X5.8Y-6.1
X5.8766Y-2.55
X6.0016Y-5.2
X6.0016Y-5.3
X6.0016Y-5.4
X6.0016Y-5.5
X6.0016Y-5.6
X6.0016Y-5.7
X6.0016Y-5.8
X6.0016Y-5.9
X6.0016Y-6.0
X6.0016Y-6.1
X6.0516Y-5.0
X6.0734Y-2.55
X6.2484Y-5.0
X6.2734Y-2.75
X6.2734Y-2.85
X6.2734Y-2.95
X6.2734Y-3.05
X6.2734Y-3.15
X6.2734Y-3.25
X6.2734Y-3.35
X6.2734Y-3.45
X6.2734Y-3.55
X6.2734Y-3.65
X6.2734Y-3.75
X6.2734Y-3.85
X6.2734Y-3.95
X6.2734Y-4.05
X6.2734Y-4.15
X6.2734Y-4.25
X6.2734Y-4.35
X6.2734Y-4.45
X6.2734Y-4.55
X6.2734Y-4.65
X6.3016Y-5.2
X6.3016Y-5.3
X6.3016Y-5.4
X6.3016Y-5.5
X6.3016Y-5.6
X6.3016Y-5.7
X6.3016Y-5.8
X6.3016Y-5.9
X6.3016Y-6.0
X6.3016Y-6.1
T3
X3.522Y-5.35
X3.622Y-5.35
T4
X1.2508Y-2.125
X1.2508Y-2.2037
X1.3492Y-2.125
X1.3492Y-2.2037
T5
X4.75Y-2.925
X4.75Y-3.025
X4.75Y-3.125
X4.75Y-3.225
X4.75Y-3.325
X4.75Y-3.425
X4.75Y-3.525
X4.75Y-3.625
X4.75Y-3.725
X4.75Y-3.825
X4.75Y-3.925
X4.75Y-4.025
X4.75Y-4.125
X4.75Y-4.225
X4.75Y-4.325
X4.75Y-4.425
X5.35Y-2.925
X5.35Y-3.025
X5.35Y-3.125
X5.35Y-3.225
X5.35Y-3.325
X5.35Y-3.425
X5.35Y-3.525
X5.35Y-3.625
X5.35Y-3.725
X5.35Y-3.825
X5.35Y-3.925
X5.35Y-4.025
X5.35Y-4.125
X5.35Y-4.225
X5.35Y-4.325
X5.35Y-4.425
X5.5Y-2.0
X5.5Y-2.275
X5.75Y-2.0
X5.75Y-2.275
X6.0Y-2.0
X6.0Y-2.275
X6.7Y-2.0004
X6.7Y-2.1004
X6.7Y-2.2004
X6.7Y-2.3004
X6.7Y-2.4004
X6.7Y-2.5004
T6
X3.4441Y-5.9114
X3.4441Y-6.0886
X3.7Y-5.9114
X3.7Y-6.0886
X3.9441Y-5.9114
X3.9441Y-6.0886
X4.2Y-5.9114
X4.2Y-6.0886
T7
X6.6Y-3.05
X6.6Y-3.15
X6.6Y-3.25
X6.6Y-3.35
X6.6Y-3.45
X6.6Y-3.55
X6.6Y-3.65
X6.6Y-3.75
X6.6Y-3.85
X6.6Y-3.95
X6.6Y-4.05
X6.6Y-4.15
X6.6Y-4.25
X6.6Y-4.35
X6.6Y-4.45
X6.6Y-4.55
X6.6Y-4.65
X6.6Y-4.75
X6.6Y-4.85
X6.6Y-4.95
X6.6Y-5.05
X6.6Y-5.15
X6.6Y-5.25
X6.6Y-5.35
X6.6Y-5.45
X6.6Y-5.55
X6.6Y-5.65
X6.6Y-5.75
X6.6Y-5.85
X6.6Y-5.95
X6.8Y-3.05
X6.8Y-3.15
X6.8Y-3.25
X6.8Y-3.35
X6.8Y-3.45
X6.8Y-3.55
X6.8Y-3.65
X6.8Y-3.75
X6.8Y-3.85
X6.8Y-3.95
X6.8Y-4.05
X6.8Y-4.15
X6.8Y-4.25
X6.8Y-4.35
X6.8Y-4.45
X6.8Y-4.55
X6.8Y-4.65
X6.8Y-4.75
X6.8Y-4.85
X6.8Y-4.95
X6.8Y-5.05
X6.8Y-5.15
X6.8Y-5.25
X6.8Y-5.35
X6.8Y-5.45
X6.8Y-5.55
X6.8Y-5.65
X6.8Y-5.75
X6.8Y-5.85
X6.8Y-5.95
T8
X3.6002Y-2.4266
X3.6002Y-2.6195
T9
X1.063Y-2.0183
X1.537Y-2.0183
M30
