M48
; DRILL file {KiCad 9.0.0} date 2025-04-01T20:46:00+0200
; FORMAT={-:-/ absolute / metric / decimal}
; #@! TF.CreationDate,2025-04-01T20:46:00+02:00
; #@! TF.GenerationSoftware,Kicad,Pcbnew,9.0.0
; #@! TF.FileFunction,Plated,1,2,PTH
FMAT,2
METRIC
; #@! TA.AperFunction,Plated,PTH,ViaDrill
T1C0.300
; #@! TA.AperFunction,Plated,PTH,ComponentDrill
T2C0.800
; #@! TA.AperFunction,Plated,PTH,ComponentDrill
T3C0.900
; #@! TA.AperFunction,Plated,PTH,ComponentDrill
T4C0.920
; #@! TA.AperFunction,Plated,PTH,ComponentDrill
T5C1.000
; #@! TA.AperFunction,Plated,PTH,ComponentDrill
T6C1.100
; #@! TA.AperFunction,Plated,PTH,ComponentDrill
T7C1.500
; #@! TA.AperFunction,Plated,PTH,ComponentDrill
T8C2.330
; #@! TA.AperFunction,Plated,PTH,ComponentDrill
T9C3.200
%
G90
G05
T1
X90.877Y-98.058
X91.184Y-100.531
X91.307Y-103.703
X93.153Y-116.248
X93.675Y-118.415
X95.25Y-94.25
X96.446Y-84.084
X100.089Y-90.425
X100.24Y-103.943
X102.12Y-92.778
X103.76Y-87.796
X104.923Y-87.186
X106.263Y-86.734
X108.74Y-89.737
X114.75Y-59.75
X116.5Y-140.5
X118.5Y-59.75
X120.978Y-102.501
X123.639Y-91.62
X124.628Y-111.773
X126.575Y-92.045
X129.064Y-92.649
X135.079Y-64.948
X137.088Y-64.302
X137.487Y-63.42
X137.848Y-61.729
X137.855Y-62.636
X140.97Y-84.86
X144.588Y-80.841
X145.544Y-100.1
X147.053Y-100.82
X147.273Y-80.389
X150.31Y-79.832
X150.731Y-90.373
X156.229Y-105.0
X159.358Y-89.773
X160.394Y-74.06
X165.164Y-109.926
X167.44Y-76.501
X167.949Y-75.317
X168.96Y-76.027
X169.163Y-117.762
X169.396Y-78.977
X170.258Y-117.377
X170.4Y-131.182
X170.709Y-74.209
X170.813Y-128.74
X171.059Y-106.149
X171.437Y-66.574
X173.167Y-130.741
X173.263Y-117.205
X173.723Y-79.232
X175.705Y-131.5
X175.909Y-116.762
X177.946Y-116.432
X178.245Y-129.74
X178.298Y-78.324
X178.343Y-90.022
X179.014Y-76.001
X180.572Y-109.528
X180.785Y-129.74
X182.236Y-92.685
X182.779Y-68.441
X185.884Y-126.597
X188.405Y-131.1
X189.582Y-92.435
X189.839Y-77.565
X198.663Y-100.804
X203.955Y-65.32
X204.402Y-93.07
X204.869Y-44.042
X205.0Y-128.051
X208.872Y-100.307
X209.578Y-132.217
X209.587Y-126.597
X209.646Y-135.223
X209.75Y-80.946
X211.485Y-104.978
X213.559Y-71.216
X217.973Y-124.071
X219.494Y-90.205
X220.738Y-116.025
X223.062Y-90.51
X225.996Y-98.615
X230.619Y-60.748
X231.14Y-105.12
X233.51Y-104.026
X233.9Y-92.581
X234.125Y-99.591
X234.702Y-103.426
X235.347Y-109.65
X237.15Y-92.446
X238.197Y-103.007
X243.474Y-116.935
X246.515Y-109.672
X250.38Y-98.762
X253.38Y-55.88
X255.131Y-122.37
X257.359Y-97.011
X263.166Y-104.912
T2
X96.52Y-132.08
X97.79Y-88.9
X97.79Y-93.9
X99.02Y-132.08
X99.06Y-71.2
X99.06Y-76.2
X100.33Y-44.49
X100.33Y-49.49
X100.335Y-57.19
X100.335Y-62.19
X101.6Y-83.76
X101.6Y-99.0
X101.6Y-104.14
X101.6Y-119.38
X104.14Y-69.85
X104.14Y-77.47
X104.14Y-83.76
X104.14Y-99.0
X104.14Y-104.14
X104.14Y-119.38
X105.41Y-43.18
X105.41Y-50.8
X105.41Y-55.88
X105.41Y-63.5
X105.41Y-128.27
X105.41Y-135.89
X106.68Y-83.76
X106.68Y-99.0
X106.68Y-104.14
X106.68Y-119.38
X107.95Y-43.18
X107.95Y-50.8
X107.95Y-55.88
X107.95Y-63.5
X109.22Y-83.76
X109.22Y-99.0
X109.22Y-104.14
X109.22Y-119.38
X109.22Y-128.27
X109.22Y-135.89
X110.49Y-43.18
X110.49Y-50.8
X110.49Y-55.88
X110.49Y-63.5
X111.76Y-83.76
X111.76Y-99.0
X111.76Y-104.14
X111.76Y-119.38
X113.03Y-43.18
X113.03Y-50.8
X113.03Y-55.88
X113.03Y-63.5
X113.03Y-128.27
X113.03Y-135.89
X114.3Y-83.76
X114.3Y-99.0
X114.3Y-104.14
X114.3Y-119.38
X115.57Y-43.18
X115.57Y-50.8
X115.57Y-55.88
X115.57Y-63.5
X116.84Y-83.76
X116.84Y-99.0
X116.84Y-104.14
X116.84Y-119.38
X118.11Y-43.18
X118.11Y-50.8
X118.11Y-55.88
X118.11Y-63.5
X119.38Y-69.85
X119.38Y-77.47
X119.38Y-83.76
X119.38Y-99.0
X119.38Y-104.14
X119.38Y-119.38
X119.38Y-123.19
X120.65Y-43.18
X120.65Y-50.8
X120.65Y-55.88
X120.65Y-63.5
X121.92Y-83.76
X121.92Y-99.0
X121.92Y-104.14
X121.92Y-119.38
X124.38Y-123.19
X124.46Y-83.76
X124.46Y-99.0
X124.46Y-104.14
X124.46Y-119.38
X127.0Y-83.76
X127.0Y-99.0
X127.0Y-104.14
X127.0Y-119.38
X128.27Y-43.18
X128.27Y-50.8
X128.27Y-129.62
X128.27Y-134.62
X128.78Y-60.96
X128.78Y-65.96
X129.54Y-83.76
X129.54Y-99.0
X129.54Y-104.14
X129.54Y-119.38
X132.08Y-83.76
X132.08Y-99.0
X132.08Y-104.14
X132.08Y-119.38
X133.35Y-55.88
X133.35Y-71.12
X133.39Y-77.47
X133.86Y-44.45
X133.86Y-49.45
X134.62Y-83.76
X134.62Y-99.0
X134.62Y-104.14
X134.62Y-119.38
X135.255Y-128.945
X135.255Y-136.565
X135.89Y-55.88
X135.89Y-71.12
X137.16Y-83.76
X137.16Y-99.0
X137.16Y-104.14
X137.16Y-119.38
X138.39Y-77.47
X138.43Y-43.18
X138.43Y-50.8
X138.43Y-55.88
X138.43Y-71.12
X139.7Y-83.76
X139.7Y-99.0
X139.7Y-104.14
X139.7Y-119.38
X140.97Y-43.18
X140.97Y-50.8
X140.97Y-55.88
X140.97Y-71.12
X142.24Y-83.76
X142.24Y-99.0
X142.24Y-104.14
X142.24Y-119.38
X143.51Y-43.18
X143.51Y-50.8
X143.51Y-55.88
X143.51Y-71.12
X144.78Y-83.76
X144.78Y-99.0
X144.78Y-104.14
X144.78Y-119.38
X146.05Y-43.18
X146.05Y-50.8
X146.05Y-55.88
X146.05Y-71.12
X147.32Y-83.76
X147.32Y-99.0
X147.32Y-104.14
X147.32Y-119.38
X148.59Y-43.18
X148.59Y-50.8
X148.59Y-55.88
X148.59Y-71.12
X149.225Y-129.62
X149.225Y-134.62
X149.86Y-83.76
X149.86Y-99.0
X149.86Y-104.14
X149.86Y-119.38
X151.13Y-43.18
X151.13Y-50.8
X151.13Y-55.88
X151.13Y-71.12
X153.67Y-43.18
X153.67Y-50.8
X153.67Y-55.88
X153.67Y-71.12
X156.21Y-43.18
X156.21Y-50.8
X156.21Y-55.88
X156.21Y-71.12
X156.21Y-77.47
X157.48Y-88.98
X157.48Y-93.98
X157.48Y-109.22
X157.48Y-114.22
X157.48Y-129.54
X157.48Y-134.54
X158.75Y-43.18
X158.75Y-50.8
X158.75Y-55.88
X158.75Y-71.12
X161.29Y-43.18
X161.29Y-50.8
X161.29Y-55.88
X161.29Y-71.12
X161.9Y-124.46
X161.9Y-139.7
X162.0Y-83.82
X162.0Y-99.06
X162.0Y-104.14
X162.0Y-119.38
X163.83Y-55.88
X163.83Y-71.12
X163.83Y-77.47
X164.44Y-124.46
X164.44Y-139.7
X164.54Y-83.82
X164.54Y-99.06
X164.54Y-104.14
X164.54Y-119.38
X166.37Y-55.88
X166.37Y-71.12
X166.98Y-124.46
X166.98Y-139.7
X167.08Y-83.82
X167.08Y-99.06
X167.08Y-104.14
X167.08Y-119.38
X169.52Y-124.46
X169.52Y-139.7
X169.62Y-83.82
X169.62Y-99.06
X169.62Y-104.14
X169.62Y-119.38
X171.45Y-59.69
X171.45Y-64.69
X172.06Y-124.46
X172.06Y-139.7
X172.16Y-83.82
X172.16Y-99.06
X172.16Y-104.14
X172.16Y-119.38
X174.6Y-124.46
X174.6Y-139.7
X174.7Y-83.82
X174.7Y-99.06
X174.7Y-104.14
X174.7Y-119.38
X175.26Y-73.66
X175.26Y-76.16
X176.53Y-58.42
X176.53Y-66.04
X177.14Y-124.46
X177.14Y-139.7
X177.24Y-83.82
X177.24Y-99.06
X177.24Y-104.14
X177.24Y-119.38
X179.07Y-58.42
X179.07Y-66.04
X179.68Y-124.46
X179.68Y-139.7
X179.78Y-83.82
X179.78Y-99.06
X179.78Y-104.14
X179.78Y-119.38
X181.61Y-58.42
X181.61Y-66.04
X181.61Y-73.66
X181.61Y-76.16
X182.22Y-124.46
X182.22Y-139.7
X182.32Y-83.82
X182.32Y-99.06
X182.32Y-104.14
X182.32Y-119.38
X184.15Y-58.42
X184.15Y-66.04
X184.76Y-124.46
X184.76Y-139.7
X184.86Y-83.82
X184.86Y-99.06
X184.86Y-104.14
X184.86Y-119.38
X186.69Y-58.42
X186.69Y-66.04
X187.3Y-124.46
X187.3Y-139.7
X187.4Y-83.82
X187.4Y-99.06
X187.4Y-104.14
X187.4Y-119.38
X187.96Y-73.66
X187.96Y-76.16
X189.23Y-58.42
X189.23Y-66.04
X189.84Y-124.46
X189.84Y-139.7
X189.94Y-83.82
X189.94Y-99.06
X189.94Y-104.14
X189.94Y-119.38
X191.77Y-58.42
X191.77Y-66.04
X192.38Y-124.46
X192.38Y-139.7
X192.48Y-83.82
X192.48Y-99.06
X192.48Y-104.14
X192.48Y-119.38
X194.31Y-58.42
X194.31Y-66.04
X194.31Y-73.66
X194.31Y-76.16
X194.92Y-124.46
X194.92Y-139.7
X195.02Y-83.82
X195.02Y-99.06
X195.02Y-104.14
X195.02Y-119.38
X197.46Y-124.46
X197.46Y-139.7
X197.56Y-104.14
X197.56Y-119.38
X200.0Y-124.46
X200.0Y-139.7
X200.1Y-104.14
X200.1Y-119.38
X207.01Y-44.49
X207.01Y-49.49
X207.01Y-57.2
X207.01Y-62.2
X207.01Y-69.9
X207.01Y-74.9
X207.01Y-82.38
X207.01Y-87.38
X207.01Y-95.08
X207.01Y-100.08
X207.01Y-107.29
X207.01Y-112.29
X207.01Y-119.99
X207.01Y-124.99
X207.01Y-133.4
X207.01Y-138.4
X212.09Y-43.18
X212.09Y-50.8
X212.09Y-55.88
X212.09Y-63.5
X212.09Y-68.58
X212.09Y-76.2
X212.09Y-81.28
X212.09Y-88.9
X212.09Y-93.98
X212.09Y-101.6
X212.09Y-106.68
X212.09Y-114.3
X212.09Y-119.38
X212.09Y-127.0
X212.09Y-132.08
X212.09Y-139.7
X214.63Y-43.18
X214.63Y-50.8
X214.63Y-55.88
X214.63Y-63.5
X214.63Y-68.58
X214.63Y-76.2
X214.63Y-81.28
X214.63Y-88.9
X214.63Y-93.98
X214.63Y-101.6
X214.63Y-106.68
X214.63Y-114.3
X214.63Y-119.38
X214.63Y-127.0
X214.63Y-132.08
X214.63Y-139.7
X217.17Y-43.18
X217.17Y-50.8
X217.17Y-55.88
X217.17Y-63.5
X217.17Y-68.58
X217.17Y-76.2
X217.17Y-81.28
X217.17Y-88.9
X217.17Y-93.98
X217.17Y-101.6
X217.17Y-106.68
X217.17Y-114.3
X217.17Y-119.38
X217.17Y-127.0
X217.17Y-132.08
X217.17Y-139.7
X219.71Y-43.18
X219.71Y-50.8
X219.71Y-55.88
X219.71Y-63.5
X219.71Y-68.58
X219.71Y-76.2
X219.71Y-81.28
X219.71Y-88.9
X219.71Y-93.98
X219.71Y-101.6
X219.71Y-106.68
X219.71Y-114.3
X219.71Y-119.38
X219.71Y-127.0
X219.71Y-132.08
X219.71Y-139.7
X222.25Y-43.18
X222.25Y-50.8
X222.25Y-55.88
X222.25Y-63.5
X222.25Y-68.58
X222.25Y-76.2
X222.25Y-81.28
X222.25Y-88.9
X222.25Y-93.98
X222.25Y-101.6
X222.25Y-106.68
X222.25Y-114.3
X222.25Y-119.38
X222.25Y-127.0
X222.25Y-132.08
X222.25Y-139.7
X224.79Y-43.18
X224.79Y-50.8
X224.79Y-55.88
X224.79Y-63.5
X224.79Y-68.58
X224.79Y-76.2
X224.79Y-81.28
X224.79Y-88.9
X224.79Y-93.98
X224.79Y-101.6
X224.79Y-106.68
X224.79Y-114.3
X224.79Y-119.38
X224.79Y-127.0
X224.79Y-132.08
X224.79Y-139.7
X227.33Y-43.18
X227.33Y-50.8
X227.33Y-55.88
X227.33Y-63.5
X227.33Y-68.58
X227.33Y-76.2
X227.33Y-81.28
X227.33Y-88.9
X227.33Y-93.98
X227.33Y-101.6
X227.33Y-106.68
X227.33Y-114.3
X227.33Y-119.38
X227.33Y-127.0
X227.33Y-132.08
X227.33Y-139.7
X229.87Y-43.18
X229.87Y-50.8
X229.87Y-55.88
X229.87Y-63.5
X229.87Y-68.58
X229.87Y-76.2
X229.87Y-81.28
X229.87Y-88.9
X229.87Y-93.98
X229.87Y-101.6
X229.87Y-106.68
X229.87Y-114.3
X229.87Y-119.38
X229.87Y-127.0
X229.87Y-132.08
X229.87Y-139.7
X232.41Y-43.18
X232.41Y-50.8
X232.41Y-55.88
X232.41Y-63.5
X232.41Y-68.58
X232.41Y-76.2
X232.41Y-81.28
X232.41Y-88.9
X232.41Y-93.98
X232.41Y-101.6
X232.41Y-106.68
X232.41Y-114.3
X232.41Y-119.38
X232.41Y-127.0
X232.41Y-132.08
X232.41Y-139.7
X234.95Y-43.18
X234.95Y-50.8
X234.95Y-55.88
X234.95Y-63.5
X234.95Y-68.58
X234.95Y-76.2
X234.95Y-81.28
X234.95Y-88.9
X234.95Y-93.98
X234.95Y-101.6
X234.95Y-106.68
X234.95Y-114.3
X234.95Y-119.38
X234.95Y-127.0
X234.95Y-132.08
X234.95Y-139.7
X241.3Y-61.595
X241.3Y-75.565
X241.3Y-82.6
X241.3Y-87.6
X241.3Y-95.3
X241.3Y-100.3
X241.3Y-108.0
X241.3Y-113.0
X241.3Y-120.7
X241.3Y-125.7
X246.375Y-119.38
X246.375Y-127.0
X246.38Y-81.29
X246.38Y-88.91
X246.38Y-93.99
X246.38Y-101.61
X246.38Y-106.69
X246.38Y-114.31
X248.915Y-119.38
X248.915Y-127.0
X248.92Y-61.595
X248.92Y-75.565
X248.92Y-81.29
X248.92Y-88.91
X248.92Y-93.99
X248.92Y-101.61
X248.92Y-106.69
X248.92Y-114.31
X251.455Y-119.38
X251.455Y-127.0
X251.46Y-81.29
X251.46Y-88.91
X251.46Y-93.99
X251.46Y-101.61
X251.46Y-106.69
X251.46Y-114.31
X253.995Y-119.38
X253.995Y-127.0
X254.0Y-81.29
X254.0Y-88.91
X254.0Y-93.99
X254.0Y-101.61
X254.0Y-106.69
X254.0Y-114.31
X256.535Y-119.38
X256.535Y-127.0
X256.54Y-81.29
X256.54Y-88.91
X256.54Y-93.99
X256.54Y-101.61
X256.54Y-106.69
X256.54Y-114.31
X259.075Y-119.38
X259.075Y-127.0
X259.08Y-81.29
X259.08Y-88.91
X259.08Y-93.99
X259.08Y-101.61
X259.08Y-106.69
X259.08Y-114.31
X259.12Y-55.88
X261.615Y-119.38
X261.615Y-127.0
X261.62Y-55.88
X261.62Y-81.29
X261.62Y-88.91
X261.62Y-93.99
X261.62Y-101.61
X261.62Y-106.69
X261.62Y-114.31
T3
X243.84Y-68.58
X246.38Y-68.58
T4
X246.38Y-53.34
X246.38Y-55.34
X248.88Y-53.34
X248.88Y-55.34
T5
X77.65Y-86.7
X80.19Y-86.7
X81.71Y-95.71
X81.71Y-98.25
X81.71Y-100.79
X81.71Y-103.33
X81.71Y-105.87
X81.71Y-108.41
X81.71Y-110.95
X81.71Y-113.49
X81.71Y-116.03
X81.71Y-118.57
X81.71Y-121.11
X81.71Y-123.65
X81.71Y-126.19
X81.71Y-128.73
X82.73Y-86.7
X84.25Y-95.71
X84.25Y-98.25
X84.25Y-100.79
X84.25Y-103.33
X84.25Y-105.87
X84.25Y-108.41
X84.25Y-110.95
X84.25Y-113.49
X84.25Y-116.03
X84.25Y-118.57
X84.25Y-121.11
X84.25Y-123.65
X84.25Y-126.19
X84.25Y-128.73
X85.27Y-86.7
X87.81Y-86.7
X90.35Y-86.7
X180.385Y-48.56
X181.77Y-45.72
X183.155Y-48.56
X184.54Y-45.72
X185.925Y-48.56
X187.31Y-45.72
X188.695Y-48.56
X190.08Y-45.72
X191.465Y-48.56
T6
X118.035Y-129.87
X118.035Y-134.37
X124.535Y-129.87
X124.535Y-134.37
X138.99Y-129.87
X138.99Y-134.37
X145.49Y-129.87
X145.49Y-134.37
T7
X144.96Y-77.47
X149.86Y-77.47
T8
X241.61Y-50.63
X253.65Y-50.63
T9
X74.75Y-44.0
X74.75Y-139.0
X173.425Y-45.72
X198.425Y-45.72
X261.62Y-44.45
X261.62Y-138.43
T5
G00X254.905Y-64.025
M15
G01X256.905Y-64.025
M16
G05
G00X254.905Y-68.525
M15
G01X256.905Y-68.525
M16
G05
G00X254.905Y-73.025
M15
G01X256.905Y-73.025
M16
G05
M30
