%TF.GenerationSoftware,KiCad,Pcbnew,9.0.0*%
%TF.CreationDate,2025-04-01T20:45:58+02:00*%
%TF.ProjectId,bytecradle-6502-single-board,62797465-6372-4616-946c-652d36353032,rev?*%
%TF.SameCoordinates,Original*%
%TF.FileFunction,Soldermask,Top*%
%TF.FilePolarity,Negative*%
%FSLAX46Y46*%
G04 Gerber Fmt 4.6, Leading zero omitted, Abs format (unit mm)*
G04 Created by KiCad (PCBNEW 9.0.0) date 2025-04-01 20:45:58*
%MOMM*%
%LPD*%
G01*
G04 APERTURE LIST*
G04 Aperture macros list*
%AMRoundRect*
0 Rectangle with rounded corners*
0 $1 Rounding radius*
0 $2 $3 $4 $5 $6 $7 $8 $9 X,Y pos of 4 corners*
0 Add a 4 corners polygon primitive as box body*
4,1,4,$2,$3,$4,$5,$6,$7,$8,$9,$2,$3,0*
0 Add four circle primitives for the rounded corners*
1,1,$1+$1,$2,$3*
1,1,$1+$1,$4,$5*
1,1,$1+$1,$6,$7*
1,1,$1+$1,$8,$9*
0 Add four rect primitives between the rounded corners*
20,1,$1+$1,$2,$3,$4,$5,0*
20,1,$1+$1,$4,$5,$6,$7,0*
20,1,$1+$1,$6,$7,$8,$9,0*
20,1,$1+$1,$8,$9,$2,$3,0*%
G04 Aperture macros list end*
%ADD10RoundRect,0.250000X0.550000X-0.550000X0.550000X0.550000X-0.550000X0.550000X-0.550000X-0.550000X0*%
%ADD11C,1.600000*%
%ADD12C,3.000000*%
%ADD13R,1.700000X1.700000*%
%ADD14O,1.700000X1.700000*%
%ADD15C,4.000000*%
%ADD16R,1.600000X1.600000*%
%ADD17C,2.300000*%
%ADD18O,1.600000X1.600000*%
%ADD19C,3.600000*%
%ADD20C,5.600000*%
%ADD21O,4.500000X2.500000*%
%ADD22C,2.000000*%
%ADD23R,1.800000X1.800000*%
%ADD24C,1.800000*%
%ADD25C,1.700000*%
%ADD26C,3.500000*%
G04 APERTURE END LIST*
D10*
%TO.C,U7*%
X246380000Y-88910000D03*
D11*
X248920000Y-88910000D03*
X251460000Y-88910000D03*
X254000000Y-88910000D03*
X256540000Y-88910000D03*
X259080000Y-88910000D03*
X261620000Y-88910000D03*
X261620000Y-81290000D03*
X259080000Y-81290000D03*
X256540000Y-81290000D03*
X254000000Y-81290000D03*
X251460000Y-81290000D03*
X248920000Y-81290000D03*
X246380000Y-81290000D03*
%TD*%
D12*
%TO.C,J3*%
X94000000Y-50700000D03*
X74000000Y-50700000D03*
X94000000Y-88700000D03*
X74000000Y-88700000D03*
D13*
X90350000Y-86700000D03*
D14*
X87810000Y-86700000D03*
X85270000Y-86700000D03*
X82730000Y-86700000D03*
X80190000Y-86700000D03*
X77650000Y-86700000D03*
%TD*%
D13*
%TO.C,J2*%
X81710000Y-95710000D03*
D14*
X84250000Y-95710000D03*
X81710000Y-98250000D03*
X84250000Y-98250000D03*
X81710000Y-100790000D03*
X84250000Y-100790000D03*
X81710000Y-103330000D03*
X84250000Y-103330000D03*
X81710000Y-105870000D03*
X84250000Y-105870000D03*
X81710000Y-108410000D03*
X84250000Y-108410000D03*
X81710000Y-110950000D03*
X84250000Y-110950000D03*
X81710000Y-113490000D03*
X84250000Y-113490000D03*
X81710000Y-116030000D03*
X84250000Y-116030000D03*
X81710000Y-118570000D03*
X84250000Y-118570000D03*
X81710000Y-121110000D03*
X84250000Y-121110000D03*
X81710000Y-123650000D03*
X84250000Y-123650000D03*
X81710000Y-126190000D03*
X84250000Y-126190000D03*
X81710000Y-128730000D03*
X84250000Y-128730000D03*
%TD*%
D11*
%TO.C,C5*%
X100330000Y-44490000D03*
X100330000Y-49490000D03*
%TD*%
D15*
%TO.C,J8*%
X198425000Y-45720000D03*
X173425000Y-45720000D03*
D16*
X191465000Y-48560000D03*
D11*
X188695000Y-48560000D03*
X185925000Y-48560000D03*
X183155000Y-48560000D03*
X180385000Y-48560000D03*
X190080000Y-45720000D03*
X187310000Y-45720000D03*
X184540000Y-45720000D03*
X181770000Y-45720000D03*
%TD*%
D10*
%TO.C,U11*%
X212090000Y-88900000D03*
D11*
X214630000Y-88900000D03*
X217170000Y-88900000D03*
X219710000Y-88900000D03*
X222250000Y-88900000D03*
X224790000Y-88900000D03*
X227330000Y-88900000D03*
X229870000Y-88900000D03*
X232410000Y-88900000D03*
X234950000Y-88900000D03*
X234950000Y-81280000D03*
X232410000Y-81280000D03*
X229870000Y-81280000D03*
X227330000Y-81280000D03*
X224790000Y-81280000D03*
X222250000Y-81280000D03*
X219710000Y-81280000D03*
X217170000Y-81280000D03*
X214630000Y-81280000D03*
X212090000Y-81280000D03*
%TD*%
D17*
%TO.C,Y1*%
X149860000Y-77470000D03*
X144960000Y-77470000D03*
%TD*%
D16*
%TO.C,C7*%
X99020000Y-132080000D03*
D11*
X96520000Y-132080000D03*
%TD*%
%TO.C,C10*%
X207010000Y-133400000D03*
X207010000Y-138400000D03*
%TD*%
%TO.C,R5*%
X135255000Y-136565000D03*
D18*
X135255000Y-128945000D03*
%TD*%
D19*
%TO.C,H1*%
X74750000Y-44000000D03*
D20*
X74750000Y-44000000D03*
%TD*%
D11*
%TO.C,C20*%
X119380000Y-123190000D03*
X124380000Y-123190000D03*
%TD*%
D21*
%TO.C,SW1*%
X255905000Y-73025000D03*
X255905000Y-68525000D03*
X255905000Y-64025000D03*
%TD*%
D11*
%TO.C,C16*%
X157480000Y-109220000D03*
X157480000Y-114220000D03*
%TD*%
D16*
%TO.C,C29*%
X187960000Y-76160000D03*
D11*
X187960000Y-73660000D03*
%TD*%
%TO.C,C13*%
X207010000Y-107290000D03*
X207010000Y-112290000D03*
%TD*%
%TO.C,R6*%
X109220000Y-135890000D03*
D18*
X109220000Y-128270000D03*
%TD*%
D11*
%TO.C,C4*%
X99060000Y-71200000D03*
X99060000Y-76200000D03*
%TD*%
%TO.C,C8*%
X128270000Y-134620000D03*
X128270000Y-129620000D03*
%TD*%
D16*
%TO.C,C31*%
X194310000Y-76160000D03*
D11*
X194310000Y-73660000D03*
%TD*%
%TO.C,C17*%
X157480000Y-129540000D03*
X157480000Y-134540000D03*
%TD*%
%TO.C,C26*%
X133860000Y-44450000D03*
X133860000Y-49450000D03*
%TD*%
D10*
%TO.C,U5*%
X212090000Y-76200000D03*
D11*
X214630000Y-76200000D03*
X217170000Y-76200000D03*
X219710000Y-76200000D03*
X222250000Y-76200000D03*
X224790000Y-76200000D03*
X227330000Y-76200000D03*
X229870000Y-76200000D03*
X232410000Y-76200000D03*
X234950000Y-76200000D03*
X234950000Y-68580000D03*
X232410000Y-68580000D03*
X229870000Y-68580000D03*
X227330000Y-68580000D03*
X224790000Y-68580000D03*
X222250000Y-68580000D03*
X219710000Y-68580000D03*
X217170000Y-68580000D03*
X214630000Y-68580000D03*
X212090000Y-68580000D03*
%TD*%
D10*
%TO.C,U15*%
X161900000Y-139700000D03*
D11*
X164440000Y-139700000D03*
X166980000Y-139700000D03*
X169520000Y-139700000D03*
X172060000Y-139700000D03*
X174600000Y-139700000D03*
X177140000Y-139700000D03*
X179680000Y-139700000D03*
X182220000Y-139700000D03*
X184760000Y-139700000D03*
X187300000Y-139700000D03*
X189840000Y-139700000D03*
X192380000Y-139700000D03*
X194920000Y-139700000D03*
X197460000Y-139700000D03*
X200000000Y-139700000D03*
X200000000Y-124460000D03*
X197460000Y-124460000D03*
X194920000Y-124460000D03*
X192380000Y-124460000D03*
X189840000Y-124460000D03*
X187300000Y-124460000D03*
X184760000Y-124460000D03*
X182220000Y-124460000D03*
X179680000Y-124460000D03*
X177140000Y-124460000D03*
X174600000Y-124460000D03*
X172060000Y-124460000D03*
X169520000Y-124460000D03*
X166980000Y-124460000D03*
X164440000Y-124460000D03*
X161900000Y-124460000D03*
%TD*%
D22*
%TO.C,SW2*%
X118035000Y-129870000D03*
X124535000Y-129870000D03*
X118035000Y-134370000D03*
X124535000Y-134370000D03*
%TD*%
D19*
%TO.C,H2*%
X261620000Y-44450000D03*
D20*
X261620000Y-44450000D03*
%TD*%
D11*
%TO.C,C22*%
X241300000Y-82600000D03*
X241300000Y-87600000D03*
%TD*%
D16*
%TO.C,C6*%
X261620000Y-55880000D03*
D11*
X259120000Y-55880000D03*
%TD*%
%TO.C,C23*%
X207010000Y-44490000D03*
X207010000Y-49490000D03*
%TD*%
%TO.C,R8*%
X163830000Y-77470000D03*
D18*
X156210000Y-77470000D03*
%TD*%
D11*
%TO.C,C1*%
X157480000Y-88980000D03*
X157480000Y-93980000D03*
%TD*%
%TO.C,R7*%
X128270000Y-43180000D03*
D18*
X128270000Y-50800000D03*
%TD*%
D23*
%TO.C,D1*%
X243840000Y-68580000D03*
D24*
X246380000Y-68580000D03*
%TD*%
D10*
%TO.C,U17*%
X162000000Y-99060000D03*
D11*
X164540000Y-99060000D03*
X167080000Y-99060000D03*
X169620000Y-99060000D03*
X172160000Y-99060000D03*
X174700000Y-99060000D03*
X177240000Y-99060000D03*
X179780000Y-99060000D03*
X182320000Y-99060000D03*
X184860000Y-99060000D03*
X187400000Y-99060000D03*
X189940000Y-99060000D03*
X192480000Y-99060000D03*
X195020000Y-99060000D03*
X195020000Y-83820000D03*
X192480000Y-83820000D03*
X189940000Y-83820000D03*
X187400000Y-83820000D03*
X184860000Y-83820000D03*
X182320000Y-83820000D03*
X179780000Y-83820000D03*
X177240000Y-83820000D03*
X174700000Y-83820000D03*
X172160000Y-83820000D03*
X169620000Y-83820000D03*
X167080000Y-83820000D03*
X164540000Y-83820000D03*
X162000000Y-83820000D03*
%TD*%
D10*
%TO.C,U10*%
X212090000Y-114300000D03*
D11*
X214630000Y-114300000D03*
X217170000Y-114300000D03*
X219710000Y-114300000D03*
X222250000Y-114300000D03*
X224790000Y-114300000D03*
X227330000Y-114300000D03*
X229870000Y-114300000D03*
X232410000Y-114300000D03*
X234950000Y-114300000D03*
X234950000Y-106680000D03*
X232410000Y-106680000D03*
X229870000Y-106680000D03*
X227330000Y-106680000D03*
X224790000Y-106680000D03*
X222250000Y-106680000D03*
X219710000Y-106680000D03*
X217170000Y-106680000D03*
X214630000Y-106680000D03*
X212090000Y-106680000D03*
%TD*%
D10*
%TO.C,U18*%
X212090000Y-50800000D03*
D11*
X214630000Y-50800000D03*
X217170000Y-50800000D03*
X219710000Y-50800000D03*
X222250000Y-50800000D03*
X224790000Y-50800000D03*
X227330000Y-50800000D03*
X229870000Y-50800000D03*
X232410000Y-50800000D03*
X234950000Y-50800000D03*
X234950000Y-43180000D03*
X232410000Y-43180000D03*
X229870000Y-43180000D03*
X227330000Y-43180000D03*
X224790000Y-43180000D03*
X222250000Y-43180000D03*
X219710000Y-43180000D03*
X217170000Y-43180000D03*
X214630000Y-43180000D03*
X212090000Y-43180000D03*
%TD*%
D10*
%TO.C,U3*%
X212090000Y-63500000D03*
D11*
X214630000Y-63500000D03*
X217170000Y-63500000D03*
X219710000Y-63500000D03*
X222250000Y-63500000D03*
X224790000Y-63500000D03*
X227330000Y-63500000D03*
X229870000Y-63500000D03*
X232410000Y-63500000D03*
X234950000Y-63500000D03*
X234950000Y-55880000D03*
X232410000Y-55880000D03*
X229870000Y-55880000D03*
X227330000Y-55880000D03*
X224790000Y-55880000D03*
X222250000Y-55880000D03*
X219710000Y-55880000D03*
X217170000Y-55880000D03*
X214630000Y-55880000D03*
X212090000Y-55880000D03*
%TD*%
%TO.C,C24*%
X97790000Y-88900000D03*
X97790000Y-93900000D03*
%TD*%
D10*
%TO.C,U16*%
X162000000Y-119380000D03*
D11*
X164540000Y-119380000D03*
X167080000Y-119380000D03*
X169620000Y-119380000D03*
X172160000Y-119380000D03*
X174700000Y-119380000D03*
X177240000Y-119380000D03*
X179780000Y-119380000D03*
X182320000Y-119380000D03*
X184860000Y-119380000D03*
X187400000Y-119380000D03*
X189940000Y-119380000D03*
X192480000Y-119380000D03*
X195020000Y-119380000D03*
X197560000Y-119380000D03*
X200100000Y-119380000D03*
X200100000Y-104140000D03*
X197560000Y-104140000D03*
X195020000Y-104140000D03*
X192480000Y-104140000D03*
X189940000Y-104140000D03*
X187400000Y-104140000D03*
X184860000Y-104140000D03*
X182320000Y-104140000D03*
X179780000Y-104140000D03*
X177240000Y-104140000D03*
X174700000Y-104140000D03*
X172160000Y-104140000D03*
X169620000Y-104140000D03*
X167080000Y-104140000D03*
X164540000Y-104140000D03*
X162000000Y-104140000D03*
%TD*%
%TO.C,R3*%
X248920000Y-61595000D03*
D18*
X241300000Y-61595000D03*
%TD*%
D10*
%TO.C,U14*%
X246380000Y-101610000D03*
D11*
X248920000Y-101610000D03*
X251460000Y-101610000D03*
X254000000Y-101610000D03*
X256540000Y-101610000D03*
X259080000Y-101610000D03*
X261620000Y-101610000D03*
X261620000Y-93990000D03*
X259080000Y-93990000D03*
X256540000Y-93990000D03*
X254000000Y-93990000D03*
X251460000Y-93990000D03*
X248920000Y-93990000D03*
X246380000Y-93990000D03*
%TD*%
D19*
%TO.C,H4*%
X74750000Y-139000000D03*
D20*
X74750000Y-139000000D03*
%TD*%
D11*
%TO.C,C12*%
X207010000Y-95080000D03*
X207010000Y-100080000D03*
%TD*%
%TO.C,C18*%
X241300000Y-120700000D03*
X241300000Y-125700000D03*
%TD*%
D22*
%TO.C,SW3*%
X138990000Y-129870000D03*
X145490000Y-129870000D03*
X138990000Y-134370000D03*
X145490000Y-134370000D03*
%TD*%
D11*
%TO.C,C11*%
X207010000Y-69900000D03*
X207010000Y-74900000D03*
%TD*%
%TO.C,C14*%
X207010000Y-82380000D03*
X207010000Y-87380000D03*
%TD*%
D10*
%TO.C,U2*%
X101600000Y-119380000D03*
D11*
X104140000Y-119380000D03*
X106680000Y-119380000D03*
X109220000Y-119380000D03*
X111760000Y-119380000D03*
X114300000Y-119380000D03*
X116840000Y-119380000D03*
X119380000Y-119380000D03*
X121920000Y-119380000D03*
X124460000Y-119380000D03*
X127000000Y-119380000D03*
X129540000Y-119380000D03*
X132080000Y-119380000D03*
X134620000Y-119380000D03*
X137160000Y-119380000D03*
X139700000Y-119380000D03*
X142240000Y-119380000D03*
X144780000Y-119380000D03*
X147320000Y-119380000D03*
X149860000Y-119380000D03*
X149860000Y-104140000D03*
X147320000Y-104140000D03*
X144780000Y-104140000D03*
X142240000Y-104140000D03*
X139700000Y-104140000D03*
X137160000Y-104140000D03*
X134620000Y-104140000D03*
X132080000Y-104140000D03*
X129540000Y-104140000D03*
X127000000Y-104140000D03*
X124460000Y-104140000D03*
X121920000Y-104140000D03*
X119380000Y-104140000D03*
X116840000Y-104140000D03*
X114300000Y-104140000D03*
X111760000Y-104140000D03*
X109220000Y-104140000D03*
X106680000Y-104140000D03*
X104140000Y-104140000D03*
X101600000Y-104140000D03*
%TD*%
%TO.C,C27*%
X128780000Y-60960000D03*
X128780000Y-65960000D03*
%TD*%
D16*
%TO.C,X1*%
X104140000Y-77470000D03*
D11*
X119380000Y-77470000D03*
X119380000Y-69850000D03*
X104140000Y-69850000D03*
%TD*%
D10*
%TO.C,U4*%
X105410000Y-50800000D03*
D11*
X107950000Y-50800000D03*
X110490000Y-50800000D03*
X113030000Y-50800000D03*
X115570000Y-50800000D03*
X118110000Y-50800000D03*
X120650000Y-50800000D03*
X120650000Y-43180000D03*
X118110000Y-43180000D03*
X115570000Y-43180000D03*
X113030000Y-43180000D03*
X110490000Y-43180000D03*
X107950000Y-43180000D03*
X105410000Y-43180000D03*
%TD*%
%TO.C,C21*%
X241300000Y-95300000D03*
X241300000Y-100300000D03*
%TD*%
%TO.C,C3*%
X100335000Y-57190000D03*
X100335000Y-62190000D03*
%TD*%
%TO.C,R4*%
X113030000Y-135890000D03*
D18*
X113030000Y-128270000D03*
%TD*%
D11*
%TO.C,C15*%
X207010000Y-119990000D03*
X207010000Y-124990000D03*
%TD*%
D10*
%TO.C,U21*%
X133350000Y-71120000D03*
D11*
X135890000Y-71120000D03*
X138430000Y-71120000D03*
X140970000Y-71120000D03*
X143510000Y-71120000D03*
X146050000Y-71120000D03*
X148590000Y-71120000D03*
X151130000Y-71120000D03*
X153670000Y-71120000D03*
X156210000Y-71120000D03*
X158750000Y-71120000D03*
X161290000Y-71120000D03*
X163830000Y-71120000D03*
X166370000Y-71120000D03*
X166370000Y-55880000D03*
X163830000Y-55880000D03*
X161290000Y-55880000D03*
X158750000Y-55880000D03*
X156210000Y-55880000D03*
X153670000Y-55880000D03*
X151130000Y-55880000D03*
X148590000Y-55880000D03*
X146050000Y-55880000D03*
X143510000Y-55880000D03*
X140970000Y-55880000D03*
X138430000Y-55880000D03*
X135890000Y-55880000D03*
X133350000Y-55880000D03*
%TD*%
D10*
%TO.C,U12*%
X212090000Y-127000000D03*
D11*
X214630000Y-127000000D03*
X217170000Y-127000000D03*
X219710000Y-127000000D03*
X222250000Y-127000000D03*
X224790000Y-127000000D03*
X227330000Y-127000000D03*
X229870000Y-127000000D03*
X232410000Y-127000000D03*
X234950000Y-127000000D03*
X234950000Y-119380000D03*
X232410000Y-119380000D03*
X229870000Y-119380000D03*
X227330000Y-119380000D03*
X224790000Y-119380000D03*
X222250000Y-119380000D03*
X219710000Y-119380000D03*
X217170000Y-119380000D03*
X214630000Y-119380000D03*
X212090000Y-119380000D03*
%TD*%
%TO.C,R2*%
X248920000Y-75565000D03*
D18*
X241300000Y-75565000D03*
%TD*%
D11*
%TO.C,C32*%
X171450000Y-59690000D03*
X171450000Y-64690000D03*
%TD*%
D10*
%TO.C,U20*%
X138430000Y-50800000D03*
D11*
X140970000Y-50800000D03*
X143510000Y-50800000D03*
X146050000Y-50800000D03*
X148590000Y-50800000D03*
X151130000Y-50800000D03*
X153670000Y-50800000D03*
X156210000Y-50800000D03*
X158750000Y-50800000D03*
X161290000Y-50800000D03*
X161290000Y-43180000D03*
X158750000Y-43180000D03*
X156210000Y-43180000D03*
X153670000Y-43180000D03*
X151130000Y-43180000D03*
X148590000Y-43180000D03*
X146050000Y-43180000D03*
X143510000Y-43180000D03*
X140970000Y-43180000D03*
X138430000Y-43180000D03*
%TD*%
D10*
%TO.C,U8*%
X246380000Y-114310000D03*
D11*
X248920000Y-114310000D03*
X251460000Y-114310000D03*
X254000000Y-114310000D03*
X256540000Y-114310000D03*
X259080000Y-114310000D03*
X261620000Y-114310000D03*
X261620000Y-106690000D03*
X259080000Y-106690000D03*
X256540000Y-106690000D03*
X254000000Y-106690000D03*
X251460000Y-106690000D03*
X248920000Y-106690000D03*
X246380000Y-106690000D03*
%TD*%
D10*
%TO.C,U1*%
X105410000Y-63500000D03*
D11*
X107950000Y-63500000D03*
X110490000Y-63500000D03*
X113030000Y-63500000D03*
X115570000Y-63500000D03*
X118110000Y-63500000D03*
X120650000Y-63500000D03*
X120650000Y-55880000D03*
X118110000Y-55880000D03*
X115570000Y-55880000D03*
X113030000Y-55880000D03*
X110490000Y-55880000D03*
X107950000Y-55880000D03*
X105410000Y-55880000D03*
%TD*%
%TO.C,C19*%
X241300000Y-108000000D03*
X241300000Y-113000000D03*
%TD*%
%TO.C,R1*%
X105410000Y-135890000D03*
D18*
X105410000Y-128270000D03*
%TD*%
D13*
%TO.C,J1*%
X246380000Y-55340000D03*
D25*
X248880000Y-55340000D03*
X248880000Y-53340000D03*
X246380000Y-53340000D03*
D26*
X241610000Y-50630000D03*
X253650000Y-50630000D03*
%TD*%
D11*
%TO.C,C9*%
X149225000Y-134620000D03*
X149225000Y-129620000D03*
%TD*%
%TO.C,C2*%
X207010000Y-57200000D03*
X207010000Y-62200000D03*
%TD*%
D10*
%TO.C,U22*%
X176530000Y-66040000D03*
D11*
X179070000Y-66040000D03*
X181610000Y-66040000D03*
X184150000Y-66040000D03*
X186690000Y-66040000D03*
X189230000Y-66040000D03*
X191770000Y-66040000D03*
X194310000Y-66040000D03*
X194310000Y-58420000D03*
X191770000Y-58420000D03*
X189230000Y-58420000D03*
X186690000Y-58420000D03*
X184150000Y-58420000D03*
X181610000Y-58420000D03*
X179070000Y-58420000D03*
X176530000Y-58420000D03*
%TD*%
D10*
%TO.C,U19*%
X101600000Y-99000000D03*
D11*
X104140000Y-99000000D03*
X106680000Y-99000000D03*
X109220000Y-99000000D03*
X111760000Y-99000000D03*
X114300000Y-99000000D03*
X116840000Y-99000000D03*
X119380000Y-99000000D03*
X121920000Y-99000000D03*
X124460000Y-99000000D03*
X127000000Y-99000000D03*
X129540000Y-99000000D03*
X132080000Y-99000000D03*
X134620000Y-99000000D03*
X137160000Y-99000000D03*
X139700000Y-99000000D03*
X142240000Y-99000000D03*
X144780000Y-99000000D03*
X147320000Y-99000000D03*
X149860000Y-99000000D03*
X149860000Y-83760000D03*
X147320000Y-83760000D03*
X144780000Y-83760000D03*
X142240000Y-83760000D03*
X139700000Y-83760000D03*
X137160000Y-83760000D03*
X134620000Y-83760000D03*
X132080000Y-83760000D03*
X129540000Y-83760000D03*
X127000000Y-83760000D03*
X124460000Y-83760000D03*
X121920000Y-83760000D03*
X119380000Y-83760000D03*
X116840000Y-83760000D03*
X114300000Y-83760000D03*
X111760000Y-83760000D03*
X109220000Y-83760000D03*
X106680000Y-83760000D03*
X104140000Y-83760000D03*
X101600000Y-83760000D03*
%TD*%
D16*
%TO.C,C30*%
X181610000Y-76160000D03*
D11*
X181610000Y-73660000D03*
%TD*%
D10*
%TO.C,U9*%
X246375000Y-127000000D03*
D11*
X248915000Y-127000000D03*
X251455000Y-127000000D03*
X253995000Y-127000000D03*
X256535000Y-127000000D03*
X259075000Y-127000000D03*
X261615000Y-127000000D03*
X261615000Y-119380000D03*
X259075000Y-119380000D03*
X256535000Y-119380000D03*
X253995000Y-119380000D03*
X251455000Y-119380000D03*
X248915000Y-119380000D03*
X246375000Y-119380000D03*
%TD*%
D10*
%TO.C,U6*%
X212090000Y-139700000D03*
D11*
X214630000Y-139700000D03*
X217170000Y-139700000D03*
X219710000Y-139700000D03*
X222250000Y-139700000D03*
X224790000Y-139700000D03*
X227330000Y-139700000D03*
X229870000Y-139700000D03*
X232410000Y-139700000D03*
X234950000Y-139700000D03*
X234950000Y-132080000D03*
X232410000Y-132080000D03*
X229870000Y-132080000D03*
X227330000Y-132080000D03*
X224790000Y-132080000D03*
X222250000Y-132080000D03*
X219710000Y-132080000D03*
X217170000Y-132080000D03*
X214630000Y-132080000D03*
X212090000Y-132080000D03*
%TD*%
D16*
%TO.C,C28*%
X175260000Y-76160000D03*
D11*
X175260000Y-73660000D03*
%TD*%
D10*
%TO.C,U13*%
X212090000Y-101600000D03*
D11*
X214630000Y-101600000D03*
X217170000Y-101600000D03*
X219710000Y-101600000D03*
X222250000Y-101600000D03*
X224790000Y-101600000D03*
X227330000Y-101600000D03*
X229870000Y-101600000D03*
X232410000Y-101600000D03*
X234950000Y-101600000D03*
X234950000Y-93980000D03*
X232410000Y-93980000D03*
X229870000Y-93980000D03*
X227330000Y-93980000D03*
X224790000Y-93980000D03*
X222250000Y-93980000D03*
X219710000Y-93980000D03*
X217170000Y-93980000D03*
X214630000Y-93980000D03*
X212090000Y-93980000D03*
%TD*%
%TO.C,C25*%
X133390000Y-77470000D03*
X138390000Y-77470000D03*
%TD*%
D19*
%TO.C,H3*%
X261620000Y-138430000D03*
D20*
X261620000Y-138430000D03*
%TD*%
M02*
