M48
; DRILL file {KiCad 8.0.2} date 2025-01-26T17:11:19+0100
; FORMAT={-:-/ absolute / inch / decimal}
; #@! TF.CreationDate,2025-01-26T17:11:19+01:00
; #@! TF.GenerationSoftware,Kicad,Pcbnew,8.0.2
; #@! TF.FileFunction,Plated,1,2,PTH
FMAT,2
INCH
; #@! TA.AperFunction,Plated,PTH,ViaDrill
T1C0.0118
; #@! TA.AperFunction,Plated,PTH,ComponentDrill
T2C0.0315
; #@! TA.AperFunction,Plated,PTH,ComponentDrill
T3C0.0354
; #@! TA.AperFunction,Plated,PTH,ComponentDrill
T4C0.0362
; #@! TA.AperFunction,Plated,PTH,ComponentDrill
T5C0.0394
; #@! TA.AperFunction,Plated,PTH,ComponentDrill
T6C0.0433
; #@! TA.AperFunction,Plated,PTH,ComponentDrill
T7C0.0591
; #@! TA.AperFunction,Plated,PTH,ComponentDrill
T8C0.0917
; #@! TA.AperFunction,Plated,PTH,ComponentDrill
T9C0.1260
%
G90
G05
T1
X2.7624Y-4.4736
X2.9115Y-4.5654
X2.95Y-3.125
X3.0585Y-4.6112
X3.3121Y-2.285
X3.3543Y-4.3078
X3.536Y-3.8845
X3.691Y-2.2492
X3.7791Y-4.3095
X3.9148Y-4.9467
X3.925Y-4.05
X4.0205Y-4.9023
X4.0465Y-3.765
X4.05Y-4.1
X4.2562Y-4.3959
X4.2886Y-4.8084
X4.3Y-1.45
X4.3Y-1.675
X4.3347Y-4.7245
X4.3494Y-4.8196
X4.3861Y-4.802
X4.433Y-3.1234
X4.4546Y-4.5463
X4.4634Y-2.9687
X4.4645Y-4.0085
X4.4805Y-4.6513
X4.4865Y-3.9229
X4.492Y-4.967
X4.5347Y-3.9632
X4.5397Y-4.8495
X4.57Y-1.7811
X4.5745Y-2.9435
X4.5892Y-4.669
X4.6592Y-4.1296
X4.6852Y-4.8866
X4.7126Y-4.1475
X4.7271Y-5.2454
X4.7442Y-3.4884
X4.7535Y-4.863
X4.7654Y-4.341
X4.795Y-1.8007
X4.8286Y-4.3583
X4.8408Y-3.4998
X4.8568Y-1.9385
X4.8606Y-4.6694
X4.8746Y-3.9153
X4.9264Y-3.8004
X4.9337Y-3.7648
X4.9375Y-3.2147
X4.9383Y-4.7482
X4.9905Y-1.8708
X5.0425Y-4.9266
X5.05Y-4.4265
X5.0957Y-4.9108
X5.0972Y-3.4331
X5.1237Y-4.3838
X5.1241Y-3.6614
X5.2028Y-4.0325
X5.2318Y-2.3324
X5.5Y-4.0705
X5.5Y-4.1295
X5.5335Y-3.9813
X5.5492Y-4.0442
X5.5666Y-4.375
X5.5787Y-3.4465
X5.5854Y-3.62
X5.5974Y-3.9507
X5.65Y-4.1
X5.6769Y-4.6971
X5.6776Y-4.5622
X5.6802Y-5.313
X5.6814Y-3.3285
X5.682Y-4.0686
X5.6971Y-5.3469
X5.6986Y-2.6213
X5.7004Y-3.9906
X5.7015Y-4.4669
X5.7018Y-5.2888
X5.9102Y-3.2847
X6.0435Y-4.1612
X6.1201Y-2.7088
X6.1512Y-3.3995
X6.1892Y-2.7987
X6.253Y-5.0496
X6.3501Y-3.3972
X6.3613Y-4.8174
X6.6139Y-4.0436
X6.7Y-1.425
X6.7Y-1.675
X6.7396Y-2.8475
X6.8895Y-4.3812
X6.9662Y-4.0142
X7.0025Y-4.413
X7.0448Y-3.8498
X7.0506Y-3.4188
X7.0752Y-3.6033
X7.2991Y-4.7904
X7.305Y-4.16
X7.335Y-3.66
X7.3622Y-2.3244
X7.5Y-3.66
X7.5288Y-3.5542
X7.575Y-1.15
X7.6121Y-3.5828
X7.74Y-3.6876
X7.7486Y-3.3139
X7.75Y-4.1295
X7.7545Y-3.9128
X7.7688Y-4.6368
X7.8295Y-4.1295
X7.95Y-4.523
X7.952Y-4.3983
X7.9751Y-4.3409
X8.0038Y-4.0309
X8.0184Y-4.5466
X8.0425Y-3.3494
X8.0431Y-4.8023
X8.0566Y-4.6183
X8.0606Y-4.7172
X8.0684Y-3.7822
X8.0894Y-2.6277
X8.1004Y-4.4348
X8.1244Y-4.0083
X8.145Y-3.69
X8.1458Y-4.7337
X8.16Y-4.345
X8.2082Y-4.7048
X8.2495Y-1.7433
X8.3186Y-3.8178
X8.3358Y-4.6539
X8.3779Y-3.0961
X8.3996Y-3.1542
X8.4155Y-4.2933
X8.5221Y-3.1633
X8.5237Y-4.5893
X8.5378Y-4.675
X8.5691Y-3.0453
X8.5932Y-2.95
X8.6395Y-3.9654
X8.6572Y-3.7825
X8.6598Y-4.7873
X8.7Y-4.125
X8.7Y-4.225
X8.726Y-2.7591
X8.7641Y-4.3721
X8.7981Y-4.9012
X8.802Y-2.9371
X8.8112Y-4.3252
X9.1254Y-1.9408
X9.1342Y-4.3421
X9.2459Y-2.2943
X9.4271Y-2.4709
X9.5715Y-4.9222
X9.6468Y-2.5146
X9.6866Y-4.875
X9.7344Y-4.8624
X9.7678Y-2.9901
X9.775Y-4.125
X9.775Y-4.225
X9.8146Y-5.0008
X9.8149Y-3.4395
X9.839Y-4.7624
X9.8799Y-3.4708
X9.9Y-3.35
X9.9619Y-3.4655
X9.9726Y-3.1673
X10.0284Y-4.0054
X10.3Y-4.2
X10.3Y-4.925
T2
X2.05Y-4.2766
X2.05Y-4.4734
X2.05Y-4.7766
X2.05Y-4.9734
X2.1Y-2.2
X2.1016Y-1.75
X2.1984Y-2.2
X2.2Y-1.75
X2.25Y-2.5516
X2.25Y-2.7484
X2.25Y-3.0516
X2.25Y-3.2484
X2.25Y-3.6781
X2.25Y-3.875
X2.25Y-4.225
X2.25Y-4.525
X2.25Y-4.725
X2.25Y-5.025
X2.35Y-4.225
X2.35Y-4.525
X2.35Y-4.725
X2.35Y-5.025
X2.35Y-5.2
X2.35Y-5.5
X2.4498Y-3.0
X2.4498Y-3.3
X2.45Y-2.5
X2.45Y-2.8
X2.45Y-3.625
X2.45Y-3.925
X2.45Y-4.225
X2.45Y-4.525
X2.45Y-4.725
X2.45Y-5.025
X2.5498Y-3.0
X2.5498Y-3.3
X2.55Y-2.5
X2.55Y-2.8
X2.55Y-4.225
X2.55Y-4.525
X2.55Y-4.725
X2.55Y-5.025
X2.6498Y-3.0
X2.6498Y-3.3
X2.65Y-2.5
X2.65Y-2.8
X2.65Y-4.225
X2.65Y-4.525
X2.65Y-4.725
X2.65Y-5.025
X2.7498Y-3.0
X2.7498Y-3.3
X2.75Y-2.5
X2.75Y-2.8
X2.75Y-4.225
X2.75Y-4.525
X2.75Y-4.725
X2.75Y-5.025
X2.8498Y-3.0
X2.8498Y-3.3
X2.85Y-2.5
X2.85Y-2.8
X2.85Y-4.225
X2.85Y-4.525
X2.85Y-4.725
X2.85Y-5.025
X2.9Y-5.2266
X2.9Y-5.4234
X2.9498Y-3.0
X2.9498Y-3.3
X2.95Y-2.5
X2.95Y-2.8
X2.95Y-4.225
X2.95Y-4.525
X2.95Y-4.725
X2.95Y-5.025
X3.0498Y-3.0
X3.0498Y-3.3
X3.05Y-2.5
X3.05Y-2.8
X3.05Y-3.625
X3.05Y-3.925
X3.05Y-4.225
X3.05Y-4.525
X3.05Y-4.725
X3.05Y-5.025
X3.05Y-5.2
X3.05Y-5.5
X3.15Y-4.225
X3.15Y-4.525
X3.15Y-4.725
X3.15Y-5.025
X3.175Y-1.175
X3.175Y-1.725
X3.375Y-4.725
X3.375Y-5.025
X3.4Y-2.1016
X3.4Y-2.2984
X3.4Y-3.2516
X3.4Y-3.4484
X3.4Y-4.0516
X3.4Y-4.2484
X3.475Y-1.175
X3.475Y-1.725
X3.6Y-1.9
X3.6Y-2.5
X3.6Y-3.05
X3.6Y-3.65
X3.6Y-3.85
X3.6Y-4.45
X3.6Y-5.2266
X3.6Y-5.4234
X3.6016Y-2.7
X3.7Y-1.9
X3.7Y-2.5
X3.7Y-3.05
X3.7Y-3.65
X3.7Y-3.85
X3.7Y-4.45
X3.7984Y-2.7
X3.8Y-1.725
X3.8Y-1.9
X3.8Y-2.5
X3.8Y-3.05
X3.8Y-3.65
X3.8Y-3.85
X3.8Y-4.45
X3.8Y-4.8016
X3.8Y-4.9984
X3.9Y-1.9
X3.9Y-2.5
X3.9Y-3.05
X3.9Y-3.65
X3.9Y-3.85
X3.9Y-4.45
X4.0Y-1.9
X4.0Y-2.5
X4.0Y-3.05
X4.0Y-3.65
X4.0Y-3.85
X4.0Y-4.45
X4.0Y-4.6
X4.0Y-5.2
X4.1Y-1.725
X4.1Y-1.9
X4.1Y-2.5
X4.1Y-3.05
X4.1Y-3.65
X4.1Y-3.85
X4.1Y-4.45
X4.1Y-4.6
X4.1Y-5.2
X4.2Y-1.9
X4.2Y-2.5
X4.2Y-3.05
X4.2Y-3.65
X4.2Y-3.85
X4.2Y-4.45
X4.2Y-4.6
X4.2Y-5.2
X4.3Y-1.9
X4.3Y-2.5
X4.3Y-3.05
X4.3Y-3.65
X4.3Y-3.85
X4.3Y-4.45
X4.3Y-4.6
X4.3Y-5.2
X4.4Y-1.9
X4.4Y-2.5
X4.4Y-3.05
X4.4Y-3.65
X4.4Y-3.85
X4.4Y-4.45
X4.4Y-4.6
X4.4Y-5.2
X4.5Y-1.9
X4.5Y-2.5
X4.5Y-2.7
X4.5Y-3.05
X4.5Y-3.65
X4.5Y-3.85
X4.5Y-4.45
X4.5Y-4.6
X4.5Y-5.2
X4.6Y-1.9
X4.6Y-2.5
X4.6Y-3.05
X4.6Y-3.65
X4.6Y-3.85
X4.6Y-4.45
X4.6Y-4.6
X4.6Y-5.2
X4.7Y-1.9
X4.7Y-2.5
X4.7Y-3.05
X4.7Y-3.65
X4.7Y-3.85
X4.7Y-4.45
X4.7Y-4.6
X4.7Y-5.2
X4.8Y-1.9
X4.8Y-2.5
X4.8Y-2.7
X4.8Y-3.05
X4.8Y-3.65
X4.8Y-3.85
X4.8Y-4.45
X4.8Y-4.6
X4.8Y-5.2
X4.9Y-1.9
X4.9Y-2.5
X4.9Y-3.05
X4.9Y-3.65
X4.9Y-3.85
X4.9Y-4.45
X4.9Y-4.6
X4.9Y-5.2
X5.0Y-3.85
X5.0Y-4.45
X5.0Y-4.6
X5.0Y-5.2
X5.1Y-3.85
X5.1Y-4.45
X5.1Y-4.6
X5.1Y-5.2
X5.2Y-3.85
X5.2Y-4.45
X5.2Y-4.6
X5.2Y-5.2
X5.3Y-2.25
X5.3Y-2.35
X5.3Y-2.45
X5.3Y-2.55
X5.3Y-2.65
X5.3Y-2.75
X5.3Y-2.85
X5.3Y-2.95
X5.3Y-3.05
X5.3Y-3.15
X5.3Y-3.85
X5.3Y-4.45
X5.3Y-4.6
X5.3Y-5.2
X5.35Y-2.05
X5.4Y-3.85
X5.4Y-4.45
X5.4Y-4.6
X5.4Y-5.2
X5.5Y-3.85
X5.5Y-4.45
X5.5Y-4.6
X5.5Y-5.2
X5.5469Y-2.05
X5.6Y-2.25
X5.6Y-2.35
X5.6Y-2.45
X5.6Y-2.55
X5.6Y-2.65
X5.6Y-2.75
X5.6Y-2.85
X5.6Y-2.95
X5.6Y-3.05
X5.6Y-3.15
X5.8Y-2.1016
X5.8Y-2.2984
X5.8Y-3.0016
X5.8Y-3.1984
X5.8Y-3.5016
X5.8Y-3.6984
X5.8Y-4.0016
X5.8Y-4.1984
X5.8Y-4.5016
X5.8Y-4.6984
X5.8Y-5.0016
X5.8Y-5.1984
X5.9Y-1.725
X5.9994Y-1.9
X5.9994Y-2.5
X6.0Y-2.9496
X6.0Y-3.2496
X6.0Y-3.4496
X6.0Y-3.7496
X6.0Y-3.9496
X6.0Y-4.2496
X6.0Y-4.4496
X6.0Y-4.7496
X6.0Y-4.9496
X6.0Y-5.2496
X6.0016Y-2.7
X6.0994Y-1.9
X6.0994Y-2.5
X6.1Y-2.9496
X6.1Y-3.2496
X6.1Y-3.4496
X6.1Y-3.7496
X6.1Y-3.9496
X6.1Y-4.2496
X6.1Y-4.4496
X6.1Y-4.7496
X6.1Y-4.9496
X6.1Y-5.2496
X6.1984Y-2.7
X6.1994Y-1.9
X6.1994Y-2.5
X6.2Y-1.725
X6.2Y-2.9496
X6.2Y-3.2496
X6.2Y-3.4496
X6.2Y-3.7496
X6.2Y-3.9496
X6.2Y-4.2496
X6.2Y-4.4496
X6.2Y-4.7496
X6.2Y-4.9496
X6.2Y-5.2496
X6.2994Y-1.9
X6.2994Y-2.5
X6.3Y-2.9496
X6.3Y-3.2496
X6.3Y-3.4496
X6.3Y-3.7496
X6.3Y-3.9496
X6.3Y-4.2496
X6.3Y-4.4496
X6.3Y-4.7496
X6.3Y-4.9496
X6.3Y-5.2496
X6.3994Y-1.9
X6.3994Y-2.5
X6.4Y-2.9496
X6.4Y-3.2496
X6.4Y-3.4496
X6.4Y-3.7496
X6.4Y-3.9496
X6.4Y-4.2496
X6.4Y-4.4496
X6.4Y-4.7496
X6.4Y-4.9496
X6.4Y-5.2496
X6.4994Y-1.9
X6.4994Y-2.5
X6.5Y-2.9496
X6.5Y-3.2496
X6.5Y-3.4496
X6.5Y-3.7496
X6.5Y-3.9496
X6.5Y-4.2496
X6.5Y-4.4496
X6.5Y-4.7496
X6.5Y-4.9496
X6.5Y-5.2496
X6.5994Y-1.9
X6.5994Y-2.5
X6.6Y-2.9496
X6.6Y-3.2496
X6.6Y-3.4496
X6.6Y-3.7496
X6.6Y-3.9496
X6.6Y-4.2496
X6.6Y-4.4496
X6.6Y-4.7496
X6.6Y-4.9496
X6.6Y-5.2496
X6.6994Y-1.9
X6.6994Y-2.5
X6.7Y-2.9496
X6.7Y-3.2496
X6.7Y-3.4496
X6.7Y-3.7496
X6.7Y-3.9496
X6.7Y-4.2496
X6.7Y-4.4496
X6.7Y-4.7496
X6.7Y-4.9496
X6.7Y-5.2496
X6.7994Y-1.9
X6.7994Y-2.5
X6.8Y-2.9496
X6.8Y-3.2496
X6.8Y-3.4496
X6.8Y-3.7496
X6.8Y-3.9496
X6.8Y-4.2496
X6.8Y-4.4496
X6.8Y-4.7496
X6.8Y-4.9496
X6.8Y-5.2496
X6.8994Y-1.9
X6.8994Y-2.5
X6.9Y-2.7
X6.9Y-2.9496
X6.9Y-3.2496
X6.9Y-3.4496
X6.9Y-3.7496
X6.9Y-3.9496
X6.9Y-4.2496
X6.9Y-4.4496
X6.9Y-4.7496
X6.9Y-4.9496
X6.9Y-5.2496
X6.9994Y-1.9
X6.9994Y-2.5
X7.0994Y-1.9
X7.0994Y-2.5
X7.1994Y-1.9
X7.1994Y-2.5
X7.2Y-2.7
X7.2Y-3.5016
X7.2Y-3.6984
X7.2Y-4.0016
X7.2Y-4.1984
X7.2Y-4.5016
X7.2Y-4.6984
X7.2Y-5.0016
X7.2Y-5.1984
X7.2994Y-1.9
X7.2994Y-2.5
X7.3998Y-4.9496
X7.3998Y-5.2496
X7.4Y-3.45
X7.4Y-3.75
X7.4Y-3.95
X7.4Y-4.25
X7.4Y-4.45
X7.4Y-4.75
X7.4998Y-4.9496
X7.4998Y-5.2496
X7.5Y-3.45
X7.5Y-3.75
X7.5Y-3.95
X7.5Y-4.25
X7.5Y-4.45
X7.5Y-4.75
X7.5998Y-4.9496
X7.5998Y-5.2496
X7.6Y-3.45
X7.6Y-3.75
X7.6Y-3.95
X7.6Y-4.25
X7.6Y-4.45
X7.6Y-4.75
X7.6998Y-4.9496
X7.6998Y-5.2496
X7.7Y-2.25
X7.7Y-2.35
X7.7Y-2.45
X7.7Y-2.55
X7.7Y-2.65
X7.7Y-2.75
X7.7Y-2.85
X7.7Y-2.95
X7.7Y-3.05
X7.7Y-3.15
X7.7Y-3.45
X7.7Y-3.75
X7.7Y-3.95
X7.7Y-4.25
X7.7Y-4.45
X7.7Y-4.75
X7.7516Y-2.05
X7.7998Y-4.9496
X7.7998Y-5.2496
X7.8Y-3.45
X7.8Y-3.75
X7.8Y-3.95
X7.8Y-4.25
X7.8Y-4.45
X7.8Y-4.75
X7.8998Y-4.9496
X7.8998Y-5.2496
X7.9Y-3.45
X7.9Y-3.75
X7.9Y-3.95
X7.9Y-4.25
X7.9Y-4.45
X7.9Y-4.75
X7.9484Y-2.05
X7.9998Y-4.9496
X7.9998Y-5.2496
X8.0Y-2.25
X8.0Y-2.35
X8.0Y-2.45
X8.0Y-2.55
X8.0Y-2.65
X8.0Y-2.75
X8.0Y-2.85
X8.0Y-2.95
X8.0Y-3.05
X8.0Y-3.15
X8.0Y-3.45
X8.0Y-3.75
X8.0Y-3.95
X8.0Y-4.25
X8.0Y-4.45
X8.0Y-4.75
X8.6766Y-3.15
X8.8734Y-3.15
X9.3Y-2.6516
X9.3Y-2.8484
X9.5Y-2.6
X9.5Y-2.9
X9.5016Y-3.425
X9.5016Y-3.525
X9.5016Y-3.625
X9.5016Y-3.725
X9.5016Y-3.825
X9.5016Y-3.925
X9.5016Y-4.025
X9.5016Y-4.125
X9.5016Y-4.225
X9.5016Y-4.325
X9.5016Y-4.425
X9.5016Y-4.525
X9.5016Y-4.625
X9.5016Y-4.725
X9.5016Y-4.825
X9.5016Y-4.925
X9.5016Y-5.025
X9.5016Y-5.125
X9.5016Y-5.225
X9.5016Y-5.325
X9.6Y-2.6
X9.6Y-2.9
X9.7Y-2.6
X9.7Y-2.9
X9.7031Y-3.225
X9.8Y-2.6
X9.8Y-2.9
X9.9Y-2.6
X9.9Y-2.9
X9.9Y-3.225
X10.0Y-2.6
X10.0Y-2.9
X10.1Y-2.6
X10.1Y-2.9
X10.1016Y-3.425
X10.1016Y-3.525
X10.1016Y-3.625
X10.1016Y-3.725
X10.1016Y-3.825
X10.1016Y-3.925
X10.1016Y-4.025
X10.1016Y-4.125
X10.1016Y-4.225
X10.1016Y-4.325
X10.1016Y-4.425
X10.1016Y-4.525
X10.1016Y-4.625
X10.1016Y-4.725
X10.1016Y-4.825
X10.1016Y-4.925
X10.1016Y-5.025
X10.1016Y-5.125
X10.1016Y-5.225
X10.1016Y-5.325
X10.2Y-2.6
X10.2Y-2.9
X10.3Y-2.6
X10.3Y-2.9
X10.3Y-5.025
X10.3Y-5.325
X10.4Y-2.6
X10.4Y-2.9
T3
X3.275Y-1.45
X3.375Y-1.45
T4
X2.7138Y-1.5463
X2.7138Y-1.625
X2.8122Y-1.5463
X2.8122Y-1.625
T5
X4.0Y-5.425
X4.0323Y-1.3667
X4.0868Y-1.2549
X4.1413Y-1.3667
X4.1959Y-1.2549
X4.2Y-5.425
X4.2504Y-1.3667
X4.3049Y-1.2549
X4.3594Y-1.3667
X4.4Y-5.425
X4.414Y-1.2549
X4.4685Y-1.3667
X4.6Y-5.425
X4.8Y-5.425
X5.0Y-5.425
X5.45Y-1.25
X5.45Y-1.35
X5.45Y-1.45
X5.45Y-1.55
X5.45Y-1.65
X5.45Y-1.75
X6.4323Y-1.3667
X6.4868Y-1.2549
X6.5413Y-1.3667
X6.5959Y-1.2549
X6.6504Y-1.3667
X6.7049Y-1.2549
X6.7594Y-1.3667
X6.814Y-1.2549
X6.8685Y-1.3667
X7.85Y-1.25
X7.85Y-1.35
X7.85Y-1.45
X7.85Y-1.55
X7.85Y-1.65
X7.85Y-1.75
X8.475Y-3.725
X8.475Y-3.825
X8.475Y-3.925
X8.475Y-4.025
X8.475Y-4.125
X8.475Y-4.225
X8.475Y-4.325
X8.475Y-4.425
X8.475Y-4.525
X8.475Y-4.625
X8.475Y-4.725
X8.475Y-4.825
X8.475Y-4.925
X8.475Y-5.025
X8.475Y-5.125
X8.475Y-5.225
X8.5Y-1.45
X8.5Y-1.55
X8.5Y-2.25
X8.5Y-2.35
X8.6Y-1.45
X8.6Y-1.55
X8.6Y-2.25
X8.6Y-2.35
X8.7Y-1.45
X8.7Y-1.55
X8.7Y-2.25
X8.7Y-2.35
X8.8Y-1.45
X8.8Y-1.55
X8.8Y-2.25
X8.8Y-2.35
X8.9Y-1.45
X8.9Y-1.55
X8.9Y-2.25
X8.9Y-2.35
X9.0Y-1.45
X9.0Y-1.55
X9.0Y-2.25
X9.0Y-2.35
X9.075Y-3.725
X9.075Y-3.825
X9.075Y-3.925
X9.075Y-4.025
X9.075Y-4.125
X9.075Y-4.225
X9.075Y-4.325
X9.075Y-4.425
X9.075Y-4.525
X9.075Y-4.625
X9.075Y-4.725
X9.075Y-4.825
X9.075Y-4.925
X9.075Y-5.025
X9.075Y-5.125
X9.075Y-5.225
X9.1Y-1.45
X9.1Y-1.55
X9.1Y-2.25
X9.1Y-2.35
X9.2Y-1.45
X9.2Y-1.55
X9.2Y-2.25
X9.2Y-2.35
X9.3Y-1.45
X9.3Y-1.55
X9.3Y-2.25
X9.3Y-2.35
X9.4Y-1.45
X9.4Y-1.55
X9.4Y-2.25
X9.4Y-2.35
X9.5Y-1.45
X9.5Y-1.55
X9.5Y-2.25
X9.5Y-2.35
X9.6Y-1.45
X9.6Y-1.55
X9.6Y-2.25
X9.6Y-2.35
X9.7Y-1.45
X9.7Y-1.55
X9.7Y-2.25
X9.7Y-2.35
X9.8Y-1.45
X9.8Y-1.55
X9.8Y-2.25
X9.8Y-2.35
X9.9Y-1.45
X9.9Y-1.55
X9.9Y-2.25
X9.9Y-2.35
X10.0Y-1.45
X10.0Y-1.55
X10.0Y-2.25
X10.0Y-2.35
X10.1Y-1.45
X10.1Y-1.55
X10.1Y-2.25
X10.1Y-2.35
X10.2Y-1.45
X10.2Y-1.55
X10.2Y-2.25
X10.2Y-2.35
X10.3Y-1.45
X10.3Y-1.55
X10.3Y-2.25
X10.3Y-2.35
X10.4Y-1.45
X10.4Y-1.55
X10.4Y-2.25
X10.4Y-2.35
X10.5Y-3.2
X10.5Y-3.3
X10.5Y-3.4
X10.5Y-3.5
X10.5Y-3.6
X10.5Y-3.7
X10.5Y-3.8
X10.5Y-3.9
X10.5Y-4.0
X10.5Y-4.1
X10.5Y-4.2
X10.5Y-4.3
X10.5Y-4.4
X10.5Y-4.5
X10.5Y-4.6
X10.5Y-4.7
X10.5Y-4.8
X10.5Y-4.9
X10.5Y-5.0
X10.5Y-5.1
X10.6Y-3.2
X10.6Y-3.3
X10.6Y-3.4
X10.6Y-3.5
X10.6Y-3.6
X10.6Y-3.7
X10.6Y-3.8
X10.6Y-3.9
X10.6Y-4.0
X10.6Y-4.1
X10.6Y-4.2
X10.6Y-4.3
X10.6Y-4.4
X10.6Y-4.5
X10.6Y-4.6
X10.6Y-4.7
X10.6Y-4.8
X10.6Y-4.9
X10.6Y-5.0
X10.6Y-5.1
T6
X2.497Y-5.2364
X2.497Y-5.4136
X2.753Y-5.2364
X2.753Y-5.4136
X3.197Y-5.2364
X3.197Y-5.4136
X3.453Y-5.2364
X3.453Y-5.4136
T7
X4.1035Y-2.7
X4.2965Y-2.7
X6.5Y-2.7
X6.6929Y-2.7
T8
X2.526Y-1.4396
X3.0Y-1.4396
T9
X3.7583Y-1.3549
X4.7425Y-1.3549
X6.1583Y-1.3549
X7.1425Y-1.3549
T5
G00X2.7106Y-1.9207
M15
G01X2.7894Y-1.9207
M16
G05
G00X2.7106Y-2.0978
M15
G01X2.7894Y-2.0978
M16
G05
G00X2.7106Y-2.275
M15
G01X2.7894Y-2.275
M16
G05
M30
