%TF.GenerationSoftware,KiCad,Pcbnew,8.0.2*%
%TF.CreationDate,2025-01-27T08:15:17+01:00*%
%TF.ProjectId,bytecradle-6502-single-board,62797465-6372-4616-946c-652d36353032,rev?*%
%TF.SameCoordinates,Original*%
%TF.FileFunction,Soldermask,Bot*%
%TF.FilePolarity,Negative*%
%FSLAX46Y46*%
G04 Gerber Fmt 4.6, Leading zero omitted, Abs format (unit mm)*
G04 Created by KiCad (PCBNEW 8.0.2) date 2025-01-27 08:15:17*
%MOMM*%
%LPD*%
G01*
G04 APERTURE LIST*
%ADD10C,1.600000*%
%ADD11R,1.600000X1.600000*%
%ADD12O,1.600000X1.600000*%
%ADD13C,2.300000*%
%ADD14O,4.500000X2.500000*%
%ADD15R,1.700000X1.700000*%
%ADD16R,2.000000X1.440000*%
%ADD17O,2.000000X1.440000*%
%ADD18C,2.000000*%
%ADD19R,1.800000X1.800000*%
%ADD20C,1.800000*%
%ADD21O,1.700000X1.700000*%
%ADD22C,3.200000*%
%ADD23C,4.000000*%
%ADD24C,1.700000*%
%ADD25C,3.500000*%
G04 APERTURE END LIST*
D10*
%TO.C,C5*%
X57150000Y-64810000D03*
X57150000Y-69810000D03*
%TD*%
D11*
%TO.C,U11*%
X152400000Y-107940000D03*
D12*
X154940000Y-107940000D03*
X157480000Y-107940000D03*
X160020000Y-107940000D03*
X162560000Y-107940000D03*
X165100000Y-107940000D03*
X167640000Y-107940000D03*
X170180000Y-107940000D03*
X172720000Y-107940000D03*
X175260000Y-107940000D03*
X175260000Y-100320000D03*
X172720000Y-100320000D03*
X170180000Y-100320000D03*
X167640000Y-100320000D03*
X165100000Y-100320000D03*
X162560000Y-100320000D03*
X160020000Y-100320000D03*
X157480000Y-100320000D03*
X154940000Y-100320000D03*
X152400000Y-100320000D03*
%TD*%
D13*
%TO.C,Y1*%
X109130000Y-68580000D03*
X104230000Y-68580000D03*
%TD*%
D10*
%TO.C,C30*%
X147320000Y-53380000D03*
X147320000Y-58380000D03*
%TD*%
D11*
%TO.C,C7*%
X55840000Y-55880000D03*
D10*
X53340000Y-55880000D03*
%TD*%
%TO.C,C10*%
X147320000Y-76240000D03*
X147320000Y-81240000D03*
%TD*%
%TO.C,R5*%
X77470000Y-139700000D03*
D12*
X77470000Y-132080000D03*
%TD*%
D10*
%TO.C,C20*%
X86360000Y-82590000D03*
X86360000Y-87590000D03*
%TD*%
D14*
%TO.C,SW1*%
X69850000Y-57785000D03*
X69850000Y-53285000D03*
X69850000Y-48785000D03*
%TD*%
D10*
%TO.C,C16*%
X225385000Y-80010000D03*
X220385000Y-80010000D03*
%TD*%
%TO.C,C13*%
X52070000Y-108625000D03*
X52070000Y-113625000D03*
%TD*%
%TO.C,R6*%
X261620000Y-127635000D03*
D12*
X261620000Y-135255000D03*
%TD*%
D10*
%TO.C,C4*%
X57150000Y-93425000D03*
X57150000Y-98425000D03*
%TD*%
D15*
%TO.C,TP4*%
X116840000Y-137795000D03*
%TD*%
D10*
%TO.C,C8*%
X73660000Y-137755000D03*
X73660000Y-132755000D03*
%TD*%
%TO.C,C17*%
X96520000Y-121960000D03*
X96520000Y-126960000D03*
%TD*%
%TO.C,C26*%
X140890000Y-52070000D03*
X135890000Y-52070000D03*
%TD*%
D11*
%TO.C,U5*%
X152400000Y-133340000D03*
D12*
X154940000Y-133340000D03*
X157480000Y-133340000D03*
X160020000Y-133340000D03*
X162560000Y-133340000D03*
X165100000Y-133340000D03*
X167640000Y-133340000D03*
X170180000Y-133340000D03*
X172720000Y-133340000D03*
X175260000Y-133340000D03*
X175260000Y-125720000D03*
X172720000Y-125720000D03*
X170180000Y-125720000D03*
X167640000Y-125720000D03*
X165100000Y-125720000D03*
X162560000Y-125720000D03*
X160020000Y-125720000D03*
X157480000Y-125720000D03*
X154940000Y-125720000D03*
X152400000Y-125720000D03*
%TD*%
D16*
%TO.C,U15*%
X215265000Y-94615000D03*
D17*
X215265000Y-97155000D03*
X215265000Y-99695000D03*
X215265000Y-102235000D03*
X215265000Y-104775000D03*
X215265000Y-107315000D03*
X215265000Y-109855000D03*
X215265000Y-112395000D03*
X215265000Y-114935000D03*
X215265000Y-117475000D03*
X215265000Y-120015000D03*
X215265000Y-122555000D03*
X215265000Y-125095000D03*
X215265000Y-127635000D03*
X215265000Y-130175000D03*
X215265000Y-132715000D03*
X230505000Y-132715000D03*
X230505000Y-130175000D03*
X230505000Y-127635000D03*
X230505000Y-125095000D03*
X230505000Y-122555000D03*
X230505000Y-120015000D03*
X230505000Y-117475000D03*
X230505000Y-114935000D03*
X230505000Y-112395000D03*
X230505000Y-109855000D03*
X230505000Y-107315000D03*
X230505000Y-104775000D03*
X230505000Y-102235000D03*
X230505000Y-99695000D03*
X230505000Y-97155000D03*
X230505000Y-94615000D03*
%TD*%
D11*
%TO.C,U22*%
X195580000Y-57150000D03*
D12*
X195580000Y-59690000D03*
X195580000Y-62230000D03*
X195580000Y-64770000D03*
X195580000Y-67310000D03*
X195580000Y-69850000D03*
X195580000Y-72390000D03*
X195580000Y-74930000D03*
X195580000Y-77470000D03*
X195580000Y-80010000D03*
X203200000Y-80010000D03*
X203200000Y-77470000D03*
X203200000Y-74930000D03*
X203200000Y-72390000D03*
X203200000Y-69850000D03*
X203200000Y-67310000D03*
X203200000Y-64770000D03*
X203200000Y-62230000D03*
X203200000Y-59690000D03*
X203200000Y-57150000D03*
%TD*%
D18*
%TO.C,SW2*%
X63425000Y-133005000D03*
X69925000Y-133005000D03*
X63425000Y-137505000D03*
X69925000Y-137505000D03*
%TD*%
D10*
%TO.C,C22*%
X182880000Y-88940000D03*
X182880000Y-93940000D03*
%TD*%
D11*
%TO.C,C6*%
X55880000Y-44450000D03*
D10*
X53380000Y-44450000D03*
%TD*%
D11*
%TO.C,U23*%
X152385000Y-63500000D03*
D12*
X154925000Y-63500000D03*
X157465000Y-63500000D03*
X160005000Y-63500000D03*
X162545000Y-63500000D03*
X165085000Y-63500000D03*
X167625000Y-63500000D03*
X170165000Y-63500000D03*
X172705000Y-63500000D03*
X175245000Y-63500000D03*
X177785000Y-63500000D03*
X180325000Y-63500000D03*
X182865000Y-63500000D03*
X185405000Y-63500000D03*
X185405000Y-48260000D03*
X182865000Y-48260000D03*
X180325000Y-48260000D03*
X177785000Y-48260000D03*
X175245000Y-48260000D03*
X172705000Y-48260000D03*
X170165000Y-48260000D03*
X167625000Y-48260000D03*
X165085000Y-48260000D03*
X162545000Y-48260000D03*
X160005000Y-48260000D03*
X157465000Y-48260000D03*
X154925000Y-48260000D03*
X152385000Y-48260000D03*
%TD*%
D10*
%TO.C,C23*%
X236220000Y-67350000D03*
X236220000Y-72350000D03*
%TD*%
%TO.C,R8*%
X121920000Y-68580000D03*
D12*
X114300000Y-68580000D03*
%TD*%
D10*
%TO.C,C1*%
X86360000Y-102910000D03*
X86360000Y-107910000D03*
%TD*%
%TO.C,R7*%
X96520000Y-43815000D03*
D12*
X104140000Y-43815000D03*
%TD*%
D19*
%TO.C,D1*%
X83185000Y-36830000D03*
D20*
X85725000Y-36830000D03*
%TD*%
D11*
%TO.C,U17*%
X91440000Y-92710000D03*
D12*
X93980000Y-92710000D03*
X96520000Y-92710000D03*
X99060000Y-92710000D03*
X101600000Y-92710000D03*
X104140000Y-92710000D03*
X106680000Y-92710000D03*
X109220000Y-92710000D03*
X111760000Y-92710000D03*
X114300000Y-92710000D03*
X116840000Y-92710000D03*
X119380000Y-92710000D03*
X121920000Y-92710000D03*
X124460000Y-92710000D03*
X124460000Y-77470000D03*
X121920000Y-77470000D03*
X119380000Y-77470000D03*
X116840000Y-77470000D03*
X114300000Y-77470000D03*
X111760000Y-77470000D03*
X109220000Y-77470000D03*
X106680000Y-77470000D03*
X104140000Y-77470000D03*
X101600000Y-77470000D03*
X99060000Y-77470000D03*
X96520000Y-77470000D03*
X93980000Y-77470000D03*
X91440000Y-77470000D03*
%TD*%
D11*
%TO.C,U10*%
X57150000Y-114935000D03*
D12*
X59690000Y-114935000D03*
X62230000Y-114935000D03*
X64770000Y-114935000D03*
X67310000Y-114935000D03*
X69850000Y-114935000D03*
X72390000Y-114935000D03*
X74930000Y-114935000D03*
X77470000Y-114935000D03*
X80010000Y-114935000D03*
X80010000Y-107315000D03*
X77470000Y-107315000D03*
X74930000Y-107315000D03*
X72390000Y-107315000D03*
X69850000Y-107315000D03*
X67310000Y-107315000D03*
X64770000Y-107315000D03*
X62230000Y-107315000D03*
X59690000Y-107315000D03*
X57150000Y-107315000D03*
%TD*%
D11*
%TO.C,U18*%
X241300000Y-73660000D03*
D12*
X243840000Y-73660000D03*
X246380000Y-73660000D03*
X248920000Y-73660000D03*
X251460000Y-73660000D03*
X254000000Y-73660000D03*
X256540000Y-73660000D03*
X259080000Y-73660000D03*
X261620000Y-73660000D03*
X264160000Y-73660000D03*
X264160000Y-66040000D03*
X261620000Y-66040000D03*
X259080000Y-66040000D03*
X256540000Y-66040000D03*
X254000000Y-66040000D03*
X251460000Y-66040000D03*
X248920000Y-66040000D03*
X246380000Y-66040000D03*
X243840000Y-66040000D03*
X241300000Y-66040000D03*
%TD*%
D15*
%TO.C,J2*%
X215900000Y-59690000D03*
D21*
X215900000Y-57150000D03*
X218440000Y-59690000D03*
X218440000Y-57150000D03*
X220980000Y-59690000D03*
X220980000Y-57150000D03*
X223520000Y-59690000D03*
X223520000Y-57150000D03*
X226060000Y-59690000D03*
X226060000Y-57150000D03*
X228600000Y-59690000D03*
X228600000Y-57150000D03*
X231140000Y-59690000D03*
X231140000Y-57150000D03*
X233680000Y-59690000D03*
X233680000Y-57150000D03*
X236220000Y-59690000D03*
X236220000Y-57150000D03*
X238760000Y-59690000D03*
X238760000Y-57150000D03*
X241300000Y-59690000D03*
X241300000Y-57150000D03*
X243840000Y-59690000D03*
X243840000Y-57150000D03*
X246380000Y-59690000D03*
X246380000Y-57150000D03*
X248920000Y-59690000D03*
X248920000Y-57150000D03*
X251460000Y-59690000D03*
X251460000Y-57150000D03*
X254000000Y-59690000D03*
X254000000Y-57150000D03*
X256540000Y-59690000D03*
X256540000Y-57150000D03*
X259080000Y-59690000D03*
X259080000Y-57150000D03*
X261620000Y-59690000D03*
X261620000Y-57150000D03*
X264160000Y-59690000D03*
X264160000Y-57150000D03*
%TD*%
D11*
%TO.C,U3*%
X152400000Y-95240000D03*
D12*
X154940000Y-95240000D03*
X157480000Y-95240000D03*
X160020000Y-95240000D03*
X162560000Y-95240000D03*
X165100000Y-95240000D03*
X167640000Y-95240000D03*
X170180000Y-95240000D03*
X172720000Y-95240000D03*
X175260000Y-95240000D03*
X175260000Y-87620000D03*
X172720000Y-87620000D03*
X170180000Y-87620000D03*
X167640000Y-87620000D03*
X165100000Y-87620000D03*
X162560000Y-87620000D03*
X160020000Y-87620000D03*
X157480000Y-87620000D03*
X154940000Y-87620000D03*
X152400000Y-87620000D03*
%TD*%
D11*
%TO.C,U7*%
X187960000Y-95250000D03*
D12*
X190500000Y-95250000D03*
X193040000Y-95250000D03*
X195580000Y-95250000D03*
X198120000Y-95250000D03*
X200660000Y-95250000D03*
X203200000Y-95250000D03*
X203200000Y-87630000D03*
X200660000Y-87630000D03*
X198120000Y-87630000D03*
X195580000Y-87630000D03*
X193040000Y-87630000D03*
X190500000Y-87630000D03*
X187960000Y-87630000D03*
%TD*%
D10*
%TO.C,C24*%
X251460000Y-81915000D03*
X246460000Y-81915000D03*
%TD*%
D15*
%TO.C,J8*%
X199390000Y-31750000D03*
D21*
X199390000Y-34290000D03*
X199390000Y-36830000D03*
X199390000Y-39370000D03*
X199390000Y-41910000D03*
X199390000Y-44450000D03*
%TD*%
D11*
%TO.C,U16*%
X101600000Y-132080000D03*
D12*
X104140000Y-132080000D03*
X106680000Y-132080000D03*
X109220000Y-132080000D03*
X111760000Y-132080000D03*
X114300000Y-132080000D03*
X116840000Y-132080000D03*
X119380000Y-132080000D03*
X121920000Y-132080000D03*
X124460000Y-132080000D03*
X127000000Y-132080000D03*
X129540000Y-132080000D03*
X132080000Y-132080000D03*
X134620000Y-132080000D03*
X137160000Y-132080000D03*
X139700000Y-132080000D03*
X139700000Y-116840000D03*
X137160000Y-116840000D03*
X134620000Y-116840000D03*
X132080000Y-116840000D03*
X129540000Y-116840000D03*
X127000000Y-116840000D03*
X124460000Y-116840000D03*
X121920000Y-116840000D03*
X119380000Y-116840000D03*
X116840000Y-116840000D03*
X114300000Y-116840000D03*
X111760000Y-116840000D03*
X109220000Y-116840000D03*
X106680000Y-116840000D03*
X104140000Y-116840000D03*
X101600000Y-116840000D03*
%TD*%
D10*
%TO.C,R3*%
X88265000Y-29845000D03*
D12*
X80645000Y-29845000D03*
%TD*%
D10*
%TO.C,C29*%
X201890000Y-52070000D03*
X196890000Y-52070000D03*
%TD*%
D11*
%TO.C,U14*%
X187960000Y-107950000D03*
D12*
X190500000Y-107950000D03*
X193040000Y-107950000D03*
X195580000Y-107950000D03*
X198120000Y-107950000D03*
X200660000Y-107950000D03*
X203200000Y-107950000D03*
X203200000Y-100330000D03*
X200660000Y-100330000D03*
X198120000Y-100330000D03*
X195580000Y-100330000D03*
X193040000Y-100330000D03*
X190500000Y-100330000D03*
X187960000Y-100330000D03*
%TD*%
D22*
%TO.C,H2*%
X268605000Y-29845000D03*
%TD*%
D10*
%TO.C,C12*%
X147320000Y-114340000D03*
X147320000Y-119340000D03*
%TD*%
%TO.C,C28*%
X152440000Y-68580000D03*
X157440000Y-68580000D03*
%TD*%
D15*
%TO.C,TP3*%
X111760000Y-137795000D03*
%TD*%
%TO.C,TP1*%
X101600000Y-137795000D03*
%TD*%
D10*
%TO.C,C18*%
X182880000Y-127040000D03*
X182880000Y-132040000D03*
%TD*%
D15*
%TO.C,J7*%
X138430000Y-31750000D03*
D21*
X138430000Y-34290000D03*
X138430000Y-36830000D03*
X138430000Y-39370000D03*
X138430000Y-41910000D03*
X138430000Y-44450000D03*
%TD*%
D18*
%TO.C,SW3*%
X81205000Y-133005000D03*
X87705000Y-133005000D03*
X81205000Y-137505000D03*
X87705000Y-137505000D03*
%TD*%
D10*
%TO.C,C11*%
X147320000Y-127040000D03*
X147320000Y-132040000D03*
%TD*%
D15*
%TO.C,TP5*%
X121920000Y-137795000D03*
%TD*%
D10*
%TO.C,C14*%
X147320000Y-101640000D03*
X147320000Y-106640000D03*
%TD*%
D11*
%TO.C,U2*%
X91440000Y-113030000D03*
D12*
X93980000Y-113030000D03*
X96520000Y-113030000D03*
X99060000Y-113030000D03*
X101600000Y-113030000D03*
X104140000Y-113030000D03*
X106680000Y-113030000D03*
X109220000Y-113030000D03*
X111760000Y-113030000D03*
X114300000Y-113030000D03*
X116840000Y-113030000D03*
X119380000Y-113030000D03*
X121920000Y-113030000D03*
X124460000Y-113030000D03*
X127000000Y-113030000D03*
X129540000Y-113030000D03*
X132080000Y-113030000D03*
X134620000Y-113030000D03*
X137160000Y-113030000D03*
X139700000Y-113030000D03*
X139700000Y-97790000D03*
X137160000Y-97790000D03*
X134620000Y-97790000D03*
X132080000Y-97790000D03*
X129540000Y-97790000D03*
X127000000Y-97790000D03*
X124460000Y-97790000D03*
X121920000Y-97790000D03*
X119380000Y-97790000D03*
X116840000Y-97790000D03*
X114300000Y-97790000D03*
X111760000Y-97790000D03*
X109220000Y-97790000D03*
X106680000Y-97790000D03*
X104140000Y-97790000D03*
X101600000Y-97790000D03*
X99060000Y-97790000D03*
X96520000Y-97790000D03*
X93980000Y-97790000D03*
X91440000Y-97790000D03*
%TD*%
D10*
%TO.C,C27*%
X86360000Y-53380000D03*
X86360000Y-58380000D03*
%TD*%
D11*
%TO.C,X1*%
X62230000Y-99695000D03*
D10*
X77470000Y-99695000D03*
X77470000Y-92075000D03*
X62230000Y-92075000D03*
%TD*%
D11*
%TO.C,U4*%
X62230000Y-71120000D03*
D12*
X64770000Y-71120000D03*
X67310000Y-71120000D03*
X69850000Y-71120000D03*
X72390000Y-71120000D03*
X74930000Y-71120000D03*
X77470000Y-71120000D03*
X77470000Y-63500000D03*
X74930000Y-63500000D03*
X72390000Y-63500000D03*
X69850000Y-63500000D03*
X67310000Y-63500000D03*
X64770000Y-63500000D03*
X62230000Y-63500000D03*
%TD*%
D10*
%TO.C,C21*%
X182880000Y-101640000D03*
X182880000Y-106640000D03*
%TD*%
%TO.C,C3*%
X57150000Y-77510000D03*
X57150000Y-82510000D03*
%TD*%
%TO.C,R4*%
X59690000Y-139700000D03*
D12*
X59690000Y-132080000D03*
%TD*%
D10*
%TO.C,C15*%
X52070000Y-121325000D03*
X52070000Y-126325000D03*
%TD*%
D15*
%TO.C,J4*%
X266700000Y-81280000D03*
D21*
X269240000Y-81280000D03*
X266700000Y-83820000D03*
X269240000Y-83820000D03*
X266700000Y-86360000D03*
X269240000Y-86360000D03*
X266700000Y-88900000D03*
X269240000Y-88900000D03*
X266700000Y-91440000D03*
X269240000Y-91440000D03*
X266700000Y-93980000D03*
X269240000Y-93980000D03*
X266700000Y-96520000D03*
X269240000Y-96520000D03*
X266700000Y-99060000D03*
X269240000Y-99060000D03*
X266700000Y-101600000D03*
X269240000Y-101600000D03*
X266700000Y-104140000D03*
X269240000Y-104140000D03*
X266700000Y-106680000D03*
X269240000Y-106680000D03*
X266700000Y-109220000D03*
X269240000Y-109220000D03*
X266700000Y-111760000D03*
X269240000Y-111760000D03*
X266700000Y-114300000D03*
X269240000Y-114300000D03*
X266700000Y-116840000D03*
X269240000Y-116840000D03*
X266700000Y-119380000D03*
X269240000Y-119380000D03*
X266700000Y-121920000D03*
X269240000Y-121920000D03*
X266700000Y-124460000D03*
X269240000Y-124460000D03*
X266700000Y-127000000D03*
X269240000Y-127000000D03*
X266700000Y-129540000D03*
X269240000Y-129540000D03*
%TD*%
D15*
%TO.C,TP2*%
X106680000Y-137795000D03*
%TD*%
D11*
%TO.C,U21*%
X91440000Y-63500000D03*
D12*
X93980000Y-63500000D03*
X96520000Y-63500000D03*
X99060000Y-63500000D03*
X101600000Y-63500000D03*
X104140000Y-63500000D03*
X106680000Y-63500000D03*
X109220000Y-63500000D03*
X111760000Y-63500000D03*
X114300000Y-63500000D03*
X116840000Y-63500000D03*
X119380000Y-63500000D03*
X121920000Y-63500000D03*
X124460000Y-63500000D03*
X124460000Y-48260000D03*
X121920000Y-48260000D03*
X119380000Y-48260000D03*
X116840000Y-48260000D03*
X114300000Y-48260000D03*
X111760000Y-48260000D03*
X109220000Y-48260000D03*
X106680000Y-48260000D03*
X104140000Y-48260000D03*
X101600000Y-48260000D03*
X99060000Y-48260000D03*
X96520000Y-48260000D03*
X93980000Y-48260000D03*
X91440000Y-48260000D03*
%TD*%
D23*
%TO.C,J6*%
X181420000Y-34415300D03*
X156420000Y-34415300D03*
D11*
X174460000Y-34715300D03*
D10*
X171690000Y-34715300D03*
X168920000Y-34715300D03*
X166150000Y-34715300D03*
X163380000Y-34715300D03*
X173075000Y-31875300D03*
X170305000Y-31875300D03*
X167535000Y-31875300D03*
X164765000Y-31875300D03*
%TD*%
D11*
%TO.C,U12*%
X57150000Y-127635000D03*
D12*
X59690000Y-127635000D03*
X62230000Y-127635000D03*
X64770000Y-127635000D03*
X67310000Y-127635000D03*
X69850000Y-127635000D03*
X72390000Y-127635000D03*
X74930000Y-127635000D03*
X77470000Y-127635000D03*
X80010000Y-127635000D03*
X80010000Y-120015000D03*
X77470000Y-120015000D03*
X74930000Y-120015000D03*
X72390000Y-120015000D03*
X69850000Y-120015000D03*
X67310000Y-120015000D03*
X64770000Y-120015000D03*
X62230000Y-120015000D03*
X59690000Y-120015000D03*
X57150000Y-120015000D03*
%TD*%
D10*
%TO.C,R2*%
X88265000Y-43815000D03*
D12*
X80645000Y-43815000D03*
%TD*%
D15*
%TO.C,J3*%
X215900000Y-39370000D03*
D21*
X215900000Y-36830000D03*
X218440000Y-39370000D03*
X218440000Y-36830000D03*
X220980000Y-39370000D03*
X220980000Y-36830000D03*
X223520000Y-39370000D03*
X223520000Y-36830000D03*
X226060000Y-39370000D03*
X226060000Y-36830000D03*
X228600000Y-39370000D03*
X228600000Y-36830000D03*
X231140000Y-39370000D03*
X231140000Y-36830000D03*
X233680000Y-39370000D03*
X233680000Y-36830000D03*
X236220000Y-39370000D03*
X236220000Y-36830000D03*
X238760000Y-39370000D03*
X238760000Y-36830000D03*
X241300000Y-39370000D03*
X241300000Y-36830000D03*
X243840000Y-39370000D03*
X243840000Y-36830000D03*
X246380000Y-39370000D03*
X246380000Y-36830000D03*
X248920000Y-39370000D03*
X248920000Y-36830000D03*
X251460000Y-39370000D03*
X251460000Y-36830000D03*
X254000000Y-39370000D03*
X254000000Y-36830000D03*
X256540000Y-39370000D03*
X256540000Y-36830000D03*
X259080000Y-39370000D03*
X259080000Y-36830000D03*
X261620000Y-39370000D03*
X261620000Y-36830000D03*
X264160000Y-39370000D03*
X264160000Y-36830000D03*
%TD*%
D22*
%TO.C,H3*%
X51435000Y-138430000D03*
%TD*%
D11*
%TO.C,U20*%
X134620000Y-57150000D03*
D12*
X134620000Y-59690000D03*
X134620000Y-62230000D03*
X134620000Y-64770000D03*
X134620000Y-67310000D03*
X134620000Y-69850000D03*
X134620000Y-72390000D03*
X134620000Y-74930000D03*
X134620000Y-77470000D03*
X134620000Y-80010000D03*
X142240000Y-80010000D03*
X142240000Y-77470000D03*
X142240000Y-74930000D03*
X142240000Y-72390000D03*
X142240000Y-69850000D03*
X142240000Y-67310000D03*
X142240000Y-64770000D03*
X142240000Y-62230000D03*
X142240000Y-59690000D03*
X142240000Y-57150000D03*
%TD*%
D22*
%TO.C,H4*%
X268605000Y-138430000D03*
%TD*%
D11*
%TO.C,U8*%
X187960000Y-120650000D03*
D12*
X190500000Y-120650000D03*
X193040000Y-120650000D03*
X195580000Y-120650000D03*
X198120000Y-120650000D03*
X200660000Y-120650000D03*
X203200000Y-120650000D03*
X203200000Y-113030000D03*
X200660000Y-113030000D03*
X198120000Y-113030000D03*
X195580000Y-113030000D03*
X193040000Y-113030000D03*
X190500000Y-113030000D03*
X187960000Y-113030000D03*
%TD*%
D11*
%TO.C,U1*%
X62225000Y-83820000D03*
D12*
X64765000Y-83820000D03*
X67305000Y-83820000D03*
X69845000Y-83820000D03*
X72385000Y-83820000D03*
X74925000Y-83820000D03*
X77465000Y-83820000D03*
X77465000Y-76200000D03*
X74925000Y-76200000D03*
X72385000Y-76200000D03*
X69845000Y-76200000D03*
X67305000Y-76200000D03*
X64765000Y-76200000D03*
X62225000Y-76200000D03*
%TD*%
D10*
%TO.C,C19*%
X182880000Y-114340000D03*
X182880000Y-119340000D03*
%TD*%
%TO.C,R1*%
X85725000Y-127635000D03*
D12*
X85725000Y-120015000D03*
%TD*%
D15*
%TO.C,J1*%
X68930000Y-41275000D03*
D24*
X71430000Y-41275000D03*
X71430000Y-39275000D03*
X68930000Y-39275000D03*
D25*
X64160000Y-36565000D03*
X76200000Y-36565000D03*
%TD*%
D13*
%TO.C,Y2*%
X170000000Y-68580000D03*
X165100000Y-68580000D03*
%TD*%
D10*
%TO.C,C9*%
X91440000Y-137755000D03*
X91440000Y-132755000D03*
%TD*%
%TO.C,C2*%
X147320000Y-88940000D03*
X147320000Y-93940000D03*
%TD*%
D11*
%TO.C,U19*%
X241340000Y-86995000D03*
D12*
X241340000Y-89535000D03*
X241340000Y-92075000D03*
X241340000Y-94615000D03*
X241340000Y-97155000D03*
X241340000Y-99695000D03*
X241340000Y-102235000D03*
X241340000Y-104775000D03*
X241340000Y-107315000D03*
X241340000Y-109855000D03*
X241340000Y-112395000D03*
X241340000Y-114935000D03*
X241340000Y-117475000D03*
X241340000Y-120015000D03*
X241340000Y-122555000D03*
X241340000Y-125095000D03*
X241340000Y-127635000D03*
X241340000Y-130175000D03*
X241340000Y-132715000D03*
X241340000Y-135255000D03*
X256580000Y-135255000D03*
X256580000Y-132715000D03*
X256580000Y-130175000D03*
X256580000Y-127635000D03*
X256580000Y-125095000D03*
X256580000Y-122555000D03*
X256580000Y-120015000D03*
X256580000Y-117475000D03*
X256580000Y-114935000D03*
X256580000Y-112395000D03*
X256580000Y-109855000D03*
X256580000Y-107315000D03*
X256580000Y-104775000D03*
X256580000Y-102235000D03*
X256580000Y-99695000D03*
X256580000Y-97155000D03*
X256580000Y-94615000D03*
X256580000Y-92075000D03*
X256580000Y-89535000D03*
X256580000Y-86995000D03*
%TD*%
D11*
%TO.C,U9*%
X187955000Y-133340000D03*
D12*
X190495000Y-133340000D03*
X193035000Y-133340000D03*
X195575000Y-133340000D03*
X198115000Y-133340000D03*
X200655000Y-133340000D03*
X203195000Y-133340000D03*
X203195000Y-125720000D03*
X200655000Y-125720000D03*
X198115000Y-125720000D03*
X195575000Y-125720000D03*
X193035000Y-125720000D03*
X190495000Y-125720000D03*
X187955000Y-125720000D03*
%TD*%
D23*
%TO.C,J5*%
X120460000Y-34415300D03*
X95460000Y-34415300D03*
D11*
X113500000Y-34715300D03*
D10*
X110730000Y-34715300D03*
X107960000Y-34715300D03*
X105190000Y-34715300D03*
X102420000Y-34715300D03*
X112115000Y-31875300D03*
X109345000Y-31875300D03*
X106575000Y-31875300D03*
X103805000Y-31875300D03*
%TD*%
D11*
%TO.C,U6*%
X152400000Y-82540000D03*
D12*
X154940000Y-82540000D03*
X157480000Y-82540000D03*
X160020000Y-82540000D03*
X162560000Y-82540000D03*
X165100000Y-82540000D03*
X167640000Y-82540000D03*
X170180000Y-82540000D03*
X172720000Y-82540000D03*
X175260000Y-82540000D03*
X175260000Y-74920000D03*
X172720000Y-74920000D03*
X170180000Y-74920000D03*
X167640000Y-74920000D03*
X165100000Y-74920000D03*
X162560000Y-74920000D03*
X160020000Y-74920000D03*
X157480000Y-74920000D03*
X154940000Y-74920000D03*
X152400000Y-74920000D03*
%TD*%
D10*
%TO.C,R9*%
X157480000Y-43815000D03*
D12*
X149860000Y-43815000D03*
%TD*%
D15*
%TO.C,TP6*%
X127000000Y-137795000D03*
%TD*%
D10*
%TO.C,R10*%
X182880000Y-68580000D03*
D12*
X175260000Y-68580000D03*
%TD*%
D11*
%TO.C,U13*%
X152400000Y-120640000D03*
D12*
X154940000Y-120640000D03*
X157480000Y-120640000D03*
X160020000Y-120640000D03*
X162560000Y-120640000D03*
X165100000Y-120640000D03*
X167640000Y-120640000D03*
X170180000Y-120640000D03*
X172720000Y-120640000D03*
X175260000Y-120640000D03*
X175260000Y-113020000D03*
X172720000Y-113020000D03*
X170180000Y-113020000D03*
X167640000Y-113020000D03*
X165100000Y-113020000D03*
X162560000Y-113020000D03*
X160020000Y-113020000D03*
X157480000Y-113020000D03*
X154940000Y-113020000D03*
X152400000Y-113020000D03*
%TD*%
D22*
%TO.C,H1*%
X51738200Y-30148200D03*
%TD*%
D10*
%TO.C,C25*%
X91480000Y-68580000D03*
X96480000Y-68580000D03*
%TD*%
M02*
